<svg width="28" height="28" viewBox="0 0 28 28" fill="none" xmlns="http://www.w3.org/2000/svg">
<g clip-path="url(#clip0_966_12206)">
<path d="M27.4182 20.9968L17.5272 2.8145C15.938 0.139132 12.0641 0.135577 10.4728 2.8145L0.582251 20.9968C-1.0423 23.7306 0.924541 27.1924 4.10861 27.1924H23.891C27.0724 27.1924 29.0428 23.7333 27.4182 20.9968ZM14 23.9111C13.0956 23.9111 12.3594 23.1749 12.3594 22.2705C12.3594 21.3661 13.0956 20.6299 14 20.6299C14.9044 20.6299 15.6406 21.3661 15.6406 22.2705C15.6406 23.1749 14.9044 23.9111 14 23.9111ZM15.6406 17.3486C15.6406 18.2531 14.9044 18.9893 14 18.9893C13.0956 18.9893 12.3594 18.2531 12.3594 17.3486V9.14551C12.3594 8.24109 13.0956 7.50488 14 7.50488C14.9044 7.50488 15.6406 8.24109 15.6406 9.14551V17.3486Z" fill="white"/>
</g>
<defs>
<clipPath id="clip0_966_12206">
<rect width="28" height="28" fill="white"/>
</clipPath>
</defs>
</svg>
