<svg width="356" height="200" viewBox="0 0 356 200" fill="none" xmlns="http://www.w3.org/2000/svg">
<g clip-path="url(#clip0_528_6639)">
<rect x="-1" y="-1" width="357" height="201" rx="8" fill="#1E2631"/>
<path opacity="0.4" fill-rule="evenodd" clip-rule="evenodd" d="M173.912 43.4849L130.829 68.359L87.7453 43.4849V-6.26335L130.829 -31.1375L173.912 -6.26335V43.4849ZM132.203 70.7399C131.353 71.231 130.305 71.231 129.454 70.7399L86.3707 45.8658C85.5201 45.3747 84.9961 44.4671 84.9961 43.4849V-6.26335C84.9961 -7.24556 85.5201 -8.15316 86.3707 -8.64426L129.454 -33.5184C130.305 -34.0095 131.353 -34.0095 132.203 -33.5184L175.286 -8.64426C176.137 -8.15316 176.661 -7.24556 176.661 -6.26335V43.4849C176.661 44.4671 176.137 45.3747 175.286 45.8658L132.203 70.7399ZM83.4067 150.149L126.49 125.274V75.5262L83.4067 50.6521L40.3235 75.5262V125.274L83.4067 150.149ZM82.0321 152.529C82.8827 153.021 83.9307 153.021 84.7813 152.529L127.865 127.655C128.715 127.164 129.239 126.257 129.239 125.274V75.5262C129.239 74.544 128.715 73.6364 127.865 73.1453L84.7813 48.2712C83.9307 47.7801 82.8827 47.7801 82.0321 48.2712L38.9488 73.1453C38.0982 73.6364 37.5742 74.544 37.5742 75.5262V125.274C37.5742 126.257 38.0982 127.164 38.9488 127.655L82.0321 152.529ZM225.211 231.251L268.295 206.377V156.629L225.211 131.755L182.128 156.629V206.377L225.211 231.251ZM223.837 233.632C224.687 234.123 225.735 234.123 226.586 233.632L269.669 208.758C270.52 208.267 271.044 207.359 271.044 206.377V156.629C271.044 155.647 270.52 154.739 269.669 154.248L226.586 129.374C225.735 128.883 224.687 128.883 223.837 129.374L180.754 154.248C179.903 154.739 179.379 155.647 179.379 156.629V206.377C179.379 207.359 179.903 208.267 180.754 208.758L223.837 233.632ZM79.2829 206.377L36.1997 231.251L-6.88358 206.377V156.629L36.1997 131.755L79.2829 156.629V206.377ZM37.5743 233.632C36.7237 234.123 35.6757 234.123 34.8251 233.632L-8.25819 208.758C-9.10881 208.267 -9.63281 207.359 -9.63281 206.377V156.629C-9.63281 155.647 -9.10881 154.739 -8.25819 154.248L34.8251 129.374C35.6757 128.883 36.7237 128.883 37.5743 129.374L80.6576 154.248C81.5082 154.739 82.0322 155.647 82.0322 156.629V206.377C82.0322 207.359 81.5082 208.267 80.6576 208.758L37.5743 233.632ZM173.443 206.377L130.36 231.251L87.2765 206.377V156.629L130.36 131.755L173.443 156.629V206.377ZM131.734 233.632C130.884 234.123 129.836 234.123 128.985 233.632L85.9019 208.758C85.0513 208.267 84.5273 207.359 84.5273 206.377V156.629C84.5273 155.647 85.0513 154.739 85.9019 154.248L128.985 129.374C129.836 128.883 130.884 128.883 131.734 129.374L174.818 154.248C175.668 154.739 176.192 155.647 176.192 156.629V206.377C176.192 207.359 175.668 208.267 174.818 208.758L131.734 233.632ZM362.455 206.377L319.372 231.251L276.288 206.377V156.629L319.372 131.755L362.455 156.629V206.377ZM320.746 233.632C319.896 234.123 318.848 234.123 317.997 233.632L274.914 208.758C274.063 208.267 273.539 207.359 273.539 206.377V156.629C273.539 155.647 274.063 154.739 274.914 154.248L317.997 129.374C318.848 128.883 319.896 128.883 320.746 129.374L363.829 154.248C364.68 154.739 365.204 155.647 365.204 156.629V206.377C365.204 207.359 364.68 208.267 363.829 208.758L320.746 233.632ZM220.869 125.274L177.786 150.149L134.702 125.274V75.5262L177.786 50.6521L220.869 75.5262V125.274ZM179.16 152.529C178.31 153.021 177.262 153.021 176.411 152.529L133.328 127.655C132.477 127.164 131.953 126.257 131.953 125.274V75.5262C131.953 74.544 132.477 73.6364 133.328 73.1453L176.411 48.2712C177.262 47.7801 178.31 47.7801 179.16 48.2712L222.243 73.1453C223.094 73.6364 223.618 74.544 223.618 75.5262V125.274C223.618 126.257 223.094 127.164 222.243 127.655L179.16 152.529ZM272.633 150.149L315.716 125.274V75.5262L272.633 50.6521L229.55 75.5262V125.274L272.633 150.149ZM271.258 152.53C272.109 153.021 273.157 153.021 274.008 152.53L317.091 127.655C317.942 127.164 318.466 126.257 318.466 125.274V75.5262C318.466 74.544 317.942 73.6364 317.091 73.1453L274.008 48.2712C273.157 47.7801 272.109 47.7801 271.258 48.2712L228.175 73.1453C227.325 73.6364 226.801 74.544 226.801 75.5262V125.274C226.801 126.257 227.325 127.164 228.175 127.655L271.258 152.53ZM225.215 68.359L268.299 43.4849V-6.26335L225.215 -31.1375L182.132 -6.26335V43.4849L225.215 68.359ZM223.841 70.7399C224.691 71.231 225.739 71.231 226.59 70.7399L269.673 45.8658C270.524 45.3747 271.048 44.4671 271.048 43.4849V-6.26335C271.048 -7.24556 270.524 -8.15316 269.673 -8.64426L226.59 -33.5184C225.739 -34.0095 224.691 -34.0095 223.841 -33.5184L180.757 -8.64426C179.907 -8.15316 179.383 -7.24556 179.383 -6.26335V43.4849C179.383 44.4671 179.907 45.3747 180.757 45.8658L223.841 70.7399Z" fill="url(#paint0_linear_528_6639)"/>
<rect x="-1" y="-1" width="357" height="201" rx="8" fill="#1E2631"/>
<path opacity="0.4" fill-rule="evenodd" clip-rule="evenodd" d="M173.912 43.4849L130.829 68.359L87.7453 43.4849V-6.26335L130.829 -31.1375L173.912 -6.26335V43.4849ZM132.203 70.7399C131.353 71.231 130.305 71.231 129.454 70.7399L86.3707 45.8658C85.5201 45.3747 84.9961 44.4671 84.9961 43.4849V-6.26335C84.9961 -7.24556 85.5201 -8.15316 86.3707 -8.64426L129.454 -33.5184C130.305 -34.0095 131.353 -34.0095 132.203 -33.5184L175.286 -8.64426C176.137 -8.15316 176.661 -7.24556 176.661 -6.26335V43.4849C176.661 44.4671 176.137 45.3747 175.286 45.8658L132.203 70.7399ZM83.4067 150.149L126.49 125.274V75.5262L83.4067 50.6521L40.3235 75.5262V125.274L83.4067 150.149ZM82.0321 152.529C82.8827 153.021 83.9307 153.021 84.7813 152.529L127.865 127.655C128.715 127.164 129.239 126.257 129.239 125.274V75.5262C129.239 74.544 128.715 73.6364 127.865 73.1453L84.7813 48.2712C83.9307 47.7801 82.8827 47.7801 82.0321 48.2712L38.9488 73.1453C38.0982 73.6364 37.5742 74.544 37.5742 75.5262V125.274C37.5742 126.257 38.0982 127.164 38.9488 127.655L82.0321 152.529ZM225.211 231.251L268.295 206.377V156.629L225.211 131.755L182.128 156.629V206.377L225.211 231.251ZM223.837 233.632C224.687 234.123 225.735 234.123 226.586 233.632L269.669 208.758C270.52 208.267 271.044 207.359 271.044 206.377V156.629C271.044 155.647 270.52 154.739 269.669 154.248L226.586 129.374C225.735 128.883 224.687 128.883 223.837 129.374L180.754 154.248C179.903 154.739 179.379 155.647 179.379 156.629V206.377C179.379 207.359 179.903 208.267 180.754 208.758L223.837 233.632ZM79.2829 206.377L36.1997 231.251L-6.88358 206.377V156.629L36.1997 131.755L79.2829 156.629V206.377ZM37.5743 233.632C36.7237 234.123 35.6757 234.123 34.8251 233.632L-8.25819 208.758C-9.10881 208.267 -9.63281 207.359 -9.63281 206.377V156.629C-9.63281 155.647 -9.10881 154.739 -8.25819 154.248L34.8251 129.374C35.6757 128.883 36.7237 128.883 37.5743 129.374L80.6576 154.248C81.5082 154.739 82.0322 155.647 82.0322 156.629V206.377C82.0322 207.359 81.5082 208.267 80.6576 208.758L37.5743 233.632ZM173.443 206.377L130.36 231.251L87.2765 206.377V156.629L130.36 131.755L173.443 156.629V206.377ZM131.734 233.632C130.884 234.123 129.836 234.123 128.985 233.632L85.9019 208.758C85.0513 208.267 84.5273 207.359 84.5273 206.377V156.629C84.5273 155.647 85.0513 154.739 85.9019 154.248L128.985 129.374C129.836 128.883 130.884 128.883 131.734 129.374L174.818 154.248C175.668 154.739 176.192 155.647 176.192 156.629V206.377C176.192 207.359 175.668 208.267 174.818 208.758L131.734 233.632ZM362.455 206.377L319.372 231.251L276.288 206.377V156.629L319.372 131.755L362.455 156.629V206.377ZM320.746 233.632C319.896 234.123 318.848 234.123 317.997 233.632L274.914 208.758C274.063 208.267 273.539 207.359 273.539 206.377V156.629C273.539 155.647 274.063 154.739 274.914 154.248L317.997 129.374C318.848 128.883 319.896 128.883 320.746 129.374L363.829 154.248C364.68 154.739 365.204 155.647 365.204 156.629V206.377C365.204 207.359 364.68 208.267 363.829 208.758L320.746 233.632ZM220.869 125.274L177.786 150.149L134.702 125.274V75.5262L177.786 50.6521L220.869 75.5262V125.274ZM179.16 152.529C178.31 153.021 177.262 153.021 176.411 152.529L133.328 127.655C132.477 127.164 131.953 126.257 131.953 125.274V75.5262C131.953 74.544 132.477 73.6364 133.328 73.1453L176.411 48.2712C177.262 47.7801 178.31 47.7801 179.16 48.2712L222.243 73.1453C223.094 73.6364 223.618 74.544 223.618 75.5262V125.274C223.618 126.257 223.094 127.164 222.243 127.655L179.16 152.529ZM272.633 150.149L315.716 125.274V75.5262L272.633 50.6521L229.55 75.5262V125.274L272.633 150.149ZM271.258 152.53C272.109 153.021 273.157 153.021 274.008 152.53L317.091 127.655C317.942 127.164 318.466 126.257 318.466 125.274V75.5262C318.466 74.544 317.942 73.6364 317.091 73.1453L274.008 48.2712C273.157 47.7801 272.109 47.7801 271.258 48.2712L228.175 73.1453C227.325 73.6364 226.801 74.544 226.801 75.5262V125.274C226.801 126.257 227.325 127.164 228.175 127.655L271.258 152.53ZM225.215 68.359L268.299 43.4849V-6.26335L225.215 -31.1375L182.132 -6.26335V43.4849L225.215 68.359ZM223.841 70.7399C224.691 71.231 225.739 71.231 226.59 70.7399L269.673 45.8658C270.524 45.3747 271.048 44.4671 271.048 43.4849V-6.26335C271.048 -7.24556 270.524 -8.15316 269.673 -8.64426L226.59 -33.5184C225.739 -34.0095 224.691 -34.0095 223.841 -33.5184L180.757 -8.64426C179.907 -8.15316 179.383 -7.24556 179.383 -6.26335V43.4849C179.383 44.4671 179.907 45.3747 180.757 45.8658L223.841 70.7399Z" fill="url(#paint1_linear_528_6639)"/>
</g>
<defs>
<linearGradient id="paint0_linear_528_6639" x1="288.66" y1="-30.4502" x2="53.6002" y2="234.164" gradientUnits="userSpaceOnUse">
<stop stop-color="#3E4253" stop-opacity="0"/>
<stop offset="0.53125" stop-color="#3E4253"/>
<stop offset="0.96875" stop-color="#3E4253" stop-opacity="0"/>
</linearGradient>
<linearGradient id="paint1_linear_528_6639" x1="288.66" y1="-30.4502" x2="53.6002" y2="234.164" gradientUnits="userSpaceOnUse">
<stop stop-color="#3E4253" stop-opacity="0"/>
<stop offset="0.53125" stop-color="#3E4253"/>
<stop offset="0.96875" stop-color="#3E4253" stop-opacity="0"/>
</linearGradient>
<clipPath id="clip0_528_6639">
<rect width="356" height="200" rx="8" fill="white"/>
</clipPath>
</defs>
</svg>
