<svg width="48" height="48" viewBox="0 0 48 48" fill="none" xmlns="http://www.w3.org/2000/svg">
<rect width="48" height="48" rx="4" fill="url(#paint0_linear_515_4561)"/>
<path d="M15.4688 16.1797C15.4688 15.5756 15.9584 15.0859 16.5625 15.0859H31.4375C32.0416 15.0859 32.5312 15.5756 32.5312 16.1797C32.5312 16.7838 32.0416 17.2734 31.4375 17.2734H16.5625C15.9584 17.2734 15.4688 16.7838 15.4688 16.1797ZM32.5312 20.5547C32.5312 19.9506 32.0416 19.4609 31.4375 19.4609H16.5625C15.9584 19.4609 15.4688 19.9506 15.4688 20.5547C15.4688 21.1588 15.9584 21.6484 16.5625 21.6484H31.4375C32.0416 21.6484 32.5312 21.1588 32.5312 20.5547ZM16.5625 23.8359C15.9584 23.8359 15.4688 24.3256 15.4688 24.9297C15.4688 25.5338 15.9584 26.0234 16.5625 26.0234H21.5938C22.1979 26.0234 22.6875 25.5338 22.6875 24.9297C22.6875 24.3256 22.1979 23.8359 21.5938 23.8359H16.5625ZM37.0398 32.3994C38.3183 33.678 38.3183 35.7595 37.0389 37.0389C36.3993 37.6785 35.5589 37.9985 34.7188 37.9985C33.8786 37.9985 33.0382 37.6785 32.3986 37.0389L26.4176 31.0468C26.2843 30.9133 26.1879 30.7477 26.1377 30.5659L24.9147 26.1514C24.8083 25.7669 24.9194 25.355 25.205 25.0764C25.4904 24.7981 25.9049 24.6968 26.2866 24.8128L30.592 26.1206C30.7644 26.173 30.9212 26.267 31.0483 26.3945L37.0398 32.3994ZM28.1689 29.7048L32.1892 33.7327L33.7363 32.1856L29.6935 28.1338L27.5536 27.4838L28.1689 29.7048ZM35.4921 33.9454L35.2814 33.7342L33.7346 35.281L33.9461 35.4929C34.3718 35.9187 35.0657 35.9187 35.4921 35.4921C35.9187 35.0657 35.9187 34.3718 35.4921 33.9454ZM33.625 10H14.375C11.9626 10 10 11.9626 10 14.375V33.625C10 36.0374 11.9626 38 14.375 38H27.7734C28.3776 38 28.8672 37.5104 28.8672 36.9062C28.8672 36.3021 28.3776 35.8125 27.7734 35.8125H14.375C13.1689 35.8125 12.1875 34.8311 12.1875 33.625V14.375C12.1875 13.1689 13.1689 12.1875 14.375 12.1875H33.625C34.8311 12.1875 35.8125 13.1689 35.8125 14.375V27.8281C35.8125 28.4323 36.3021 28.9219 36.9062 28.9219C37.5104 28.9219 38 28.4323 38 27.8281V14.375C38 11.9626 36.0374 10 33.625 10Z" fill="white"/>
<defs>
<linearGradient id="paint0_linear_515_4561" x1="8.29947e-07" y1="21.84" x2="48" y2="22.56" gradientUnits="userSpaceOnUse">
<stop stop-color="#F77468"/>
<stop offset="1" stop-color="#F68831"/>
</linearGradient>
</defs>
</svg>
