<svg width="48" height="48" viewBox="0 0 48 48" fill="none" xmlns="http://www.w3.org/2000/svg">
<rect width="48" height="48" rx="4" fill="url(#paint0_linear_515_4708)"/>
<path d="M18.7493 31.2733C18.4711 31.2735 18.2025 31.1724 17.9935 30.9889L10.9935 24.8639C10.8704 24.7561 10.7717 24.6232 10.7041 24.4742C10.6365 24.3252 10.6016 24.1634 10.6016 23.9998C10.6016 23.8362 10.6365 23.6744 10.7041 23.5254C10.7717 23.3764 10.8704 23.2435 10.9935 23.1358L17.9935 17.0108C18.2227 16.8102 18.5223 16.7089 18.8262 16.7291C19.1301 16.7494 19.4136 16.8895 19.6142 17.1188C19.8147 17.348 19.9161 17.6475 19.8958 17.9515C19.8755 18.2554 19.7354 18.5388 19.5061 18.7394L13.4933 23.9998L19.5056 29.2602C19.6816 29.414 19.8064 29.6179 19.8634 29.8446C19.9205 30.0713 19.907 30.3099 19.8248 30.5287C19.7426 30.7475 19.5956 30.936 19.4034 31.0691C19.2112 31.2021 18.983 31.2733 18.7493 31.2733V31.2733Z" fill="white"/>
<path d="M29.251 31.2733C29.0172 31.2735 28.7889 31.2023 28.5967 31.0693C28.4044 30.9363 28.2573 30.7478 28.175 30.529C28.0928 30.3102 28.0792 30.0714 28.1362 29.8447C28.1933 29.618 28.3181 29.4141 28.4941 29.2602L34.507 23.9998L28.4947 18.7394C28.2654 18.5388 28.1253 18.2554 28.105 17.9515C28.0848 17.6475 28.1861 17.348 28.3867 17.1188C28.5872 16.8895 28.8707 16.7494 29.1746 16.7291C29.4786 16.7089 29.7781 16.8102 30.0073 17.0108L37.0073 23.1358C37.1304 23.2435 37.2291 23.3764 37.2967 23.5254C37.3643 23.6744 37.3993 23.8362 37.3993 23.9998C37.3993 24.1634 37.3643 24.3252 37.2967 24.4742C37.2291 24.6232 37.1304 24.7561 37.0073 24.8639L30.0073 30.9889C29.7983 31.1726 29.5293 31.2738 29.251 31.2733V31.2733Z" fill="white"/>
<path d="M21.3747 33.8983C21.1959 33.8983 21.0195 33.8565 20.8597 33.7762C20.6999 33.696 20.561 33.5795 20.4541 33.4361C20.3473 33.2927 20.2754 33.1263 20.2442 32.9502C20.213 32.7741 20.2233 32.5931 20.2744 32.4218L25.5244 14.9218C25.564 14.7732 25.6329 14.6342 25.7272 14.5128C25.8215 14.3915 25.9391 14.2902 26.0732 14.2152C26.2073 14.1401 26.3551 14.0927 26.5079 14.0758C26.6606 14.0589 26.8152 14.0728 26.9625 14.1168C27.1097 14.1607 27.2467 14.2337 27.3652 14.3315C27.4837 14.4294 27.5814 14.55 27.6525 14.6862C27.7235 14.8225 27.7665 14.9716 27.7789 15.1248C27.7913 15.278 27.7728 15.4321 27.7245 15.578L22.4745 33.078C22.4039 33.3149 22.2587 33.5227 22.0606 33.6704C21.8625 33.8182 21.6219 33.8981 21.3747 33.8983V33.8983Z" fill="white"/>
<defs>
<linearGradient id="paint0_linear_515_4708" x1="8.29947e-07" y1="21.84" x2="48" y2="22.56" gradientUnits="userSpaceOnUse">
<stop stop-color="#F77468"/>
<stop offset="1" stop-color="#F68831"/>
</linearGradient>
</defs>
</svg>
