<svg width="48" height="48" viewBox="0 0 48 48" fill="none" xmlns="http://www.w3.org/2000/svg">
<rect width="48" height="48" rx="4" fill="url(#paint0_linear_515_4762)"/>
<path d="M32.6733 36.498H15.4687C14.6416 36.498 13.8972 36.0025 13.4835 35.3419C13.07 34.5987 13.1527 33.6903 13.6489 33.0298L20.1834 23.1205V15.1931C19.439 14.9454 18.9427 14.2022 18.9427 13.3764C18.9427 12.3029 19.8526 11.3945 20.9279 11.3945H27.2143C28.2895 11.3945 29.1994 12.3029 29.1994 13.3764C29.1994 14.2022 28.7032 14.9454 27.9588 15.1931V23.1204L34.4932 33.0297C34.9895 33.6903 34.9895 34.5986 34.6586 35.3418C34.2449 36.0025 33.5004 36.498 32.6733 36.498ZM20.9278 13.0461C20.7624 13.0461 20.5969 13.2112 20.5969 13.3764C20.5969 13.5415 20.7623 13.7068 20.9278 13.7068H21.0106C21.5068 13.7068 21.8377 14.0371 21.8377 14.5325V23.3683C21.8377 23.5334 21.755 23.6986 21.6723 23.8637L14.9725 34.0206C14.8071 34.2684 14.8897 34.5161 14.8897 34.5987C14.9725 34.6813 15.0551 34.929 15.386 34.929H32.5906C32.9215 34.929 33.0041 34.6813 33.0869 34.5987C33.1696 34.5161 33.2523 34.2684 33.0869 34.0206L26.387 23.8637C26.3043 23.6986 26.2216 23.5334 26.2216 23.3683V14.5325C26.2216 14.0371 26.5525 13.7068 27.0488 13.7068H27.1315C27.2969 13.7068 27.4624 13.5416 27.4624 13.3764C27.4624 13.2113 27.297 13.0461 27.1315 13.0461C27.1314 13.0461 20.9278 13.0461 20.9278 13.0461Z" fill="white"/>
<path d="M22.4087 26.8135L18.1211 32.8325H29.9943L25.7068 26.8135H22.4087Z" fill="white"/>
<path d="M23.5628 15.105C23.0681 15.105 22.7383 15.4348 22.7383 15.9295C22.7383 16.4242 23.0681 16.7541 23.5628 16.7541C24.0575 16.7541 24.3874 16.4242 24.3874 15.9295C24.3874 15.4347 23.9752 15.105 23.5628 15.105Z" fill="white"/>
<path d="M24.5511 18.8979C24.0564 18.8979 23.7266 19.2278 23.7266 19.7225C23.7266 20.2172 24.0564 20.547 24.5511 20.547C25.0458 20.547 25.3757 20.2172 25.3757 19.7225C25.3757 19.2278 24.9633 18.8979 24.5511 18.8979Z" fill="white"/>
<path d="M23.5628 22.6084C23.0681 22.6084 22.7383 22.9382 22.7383 23.4329C22.7383 23.9276 23.0681 24.2575 23.5628 24.2575C24.0575 24.2575 24.3874 23.9276 24.3874 23.4329C24.3874 23.0206 23.9752 22.6084 23.5628 22.6084Z" fill="white"/>
<defs>
<linearGradient id="paint0_linear_515_4762" x1="8.29947e-07" y1="21.84" x2="48" y2="22.56" gradientUnits="userSpaceOnUse">
<stop stop-color="#F77468"/>
<stop offset="1" stop-color="#F68831"/>
</linearGradient>
</defs>
</svg>
