<svg width="479" height="96" viewBox="0 0 479 96" fill="none" xmlns="http://www.w3.org/2000/svg">
<path d="M32.0004 95.9935C11.8954 95.9935 0 81.6842 0 50.9796C0 19.4824 15.4138 3.21229 35.5188 3.21229C40.2492 3.2852 44.9013 4.42704 49.1241 6.55169C53.3468 8.67634 57.0301 11.7283 59.8961 15.4774L53.6133 21.61C48.7553 17.4108 42.6149 14.9704 36.1889 14.6848C23.3301 14.6848 14.995 26.0321 14.995 48.4348C14.995 74.3418 22.66 84.3541 34.4298 84.3541C38.7784 84.4765 43.0372 83.1067 46.4927 80.4743V54.9845H34.7648V44.3047H60.9013V85.3971C52.9337 92.3991 42.6244 96.1789 32.0004 95.9935ZM110.577 40.7169C108.739 40.1675 106.84 39.8452 104.923 39.7574C101.027 39.7574 97.4253 42.7194 90.8493 50.8544V94.6585H77.069V28.1598H88.4619L89.6347 39.5071C96.8808 30.1622 101.446 26.9916 106.389 26.9916C108.449 27.0184 110.474 27.5332 112.295 28.4935L110.577 40.7169ZM159.206 94.6585L158.117 87.4413C152.553 92.715 145.19 95.6958 137.51 95.7849C124.358 95.7849 117.405 89.11 117.405 77.3455C117.405 63.7453 128.002 54.6508 151.416 54.6508H156.232V48.852C156.232 40.8421 152.044 36.9623 142.41 36.9623C135.716 37.1417 129.102 38.4537 122.85 40.8421L120.839 32.4984C128.742 28.9513 137.302 27.0898 145.97 27.0334C162.725 27.0334 169.845 35.0433 169.845 47.1832V94.742L159.206 94.6585ZM156.232 63.6619H150.494C135.29 63.6619 131.101 68.7098 131.101 75.6767C130.958 77.0615 131.125 78.4607 131.592 79.773C132.058 81.0853 132.812 82.2778 133.798 83.2641C134.784 84.2505 135.979 85.006 137.294 85.4759C138.61 85.9458 140.014 86.1184 141.405 85.9811C146.974 85.5334 152.215 83.1742 156.232 79.3062V63.6619ZM224.296 94.6585L223.249 87.4413C217.665 92.7106 210.291 95.6899 202.599 95.7849C189.447 95.7849 182.494 89.11 182.494 77.3455C182.494 63.7453 193.091 54.6508 216.547 54.6508H221.364V48.852C221.364 40.8421 217.176 36.9623 207.542 36.9623C200.848 37.1417 194.234 38.4537 187.981 40.8421L185.971 32.4984C193.876 28.9572 202.435 27.0959 211.102 27.0334C227.856 27.0334 234.935 35.0433 234.935 47.1832V94.742L224.296 94.6585ZM221.364 63.6619H215.626C200.212 63.6619 196.191 68.7515 196.191 75.6767C196.055 77.0598 196.228 78.4557 196.697 79.7645C197.167 81.0732 197.92 82.2625 198.905 83.2472C199.89 84.2318 201.081 84.9875 202.393 85.4602C203.705 85.9328 205.106 86.1107 206.495 85.9811C212.082 85.5532 217.342 83.1918 221.364 79.3062V63.6619ZM263.249 95.5763C254.872 95.5763 251.061 93.1567 251.061 82.3516V0H265.134V77.0534C265.134 84.813 266.098 86.0229 269.951 86.0229C271.166 86.0229 272.632 86.0229 273.595 86.0229L274.265 94.3665C270.76 95.3137 267.13 95.7216 263.501 95.5763H263.249Z" fill="white"/>
<path d="M322.474 94.6588H305.301C294.67 65.218 285.981 35.1168 279.29 4.54761H295.123C299.814 28.5773 307.437 54.067 315.102 79.6402C322.606 54.9959 328.593 29.9184 333.029 4.54761H347.396C341.494 35.1938 333.161 65.3254 322.474 94.6588ZM433.051 94.6588C432.507 68.4598 430.622 41.3847 428.863 22.8201L406.077 94.6588H394.14L371.103 22.8201C369.385 42.7197 368.171 68.4598 367.752 94.6588H353.972C354.767 65.4561 356.904 33.9172 360.506 4.54761H379.564L401.26 70.7543L422.999 4.54761H441.051C444.528 33.7503 447.208 65.4144 448.004 94.6588H433.051ZM458.518 85.4808H455.25V83.6452H464.172V85.3973H460.905V94.5753H458.518V85.4808ZM466.518 83.6452H470.371L472.717 91.6551L475.23 83.6452H478.999V94.6588H476.612V85.3973L473.638 94.8256H471.67L468.738 85.3973V94.8256H466.518V83.6452Z" fill="#F29111"/>
</svg>
