<svg width="281" height="26" viewBox="0 0 281 26" fill="none" xmlns="http://www.w3.org/2000/svg">
<path d="M17.9615 11.9775V23.1004C15.8377 24.9722 13.246 25.9081 10.2223 25.9081C4.49884 25.9081 1.61914 21.8765 1.61914 13.7773C1.61914 9.67375 2.51905 6.47007 4.35486 4.1303C6.08268 1.97052 8.35046 0.890625 11.1582 0.890625C13.8219 0.890625 16.0177 2.00651 17.7455 4.20229L16.0537 5.85813C14.4339 4.59826 12.85 3.98632 11.3742 3.98632C9.61033 3.98632 8.20647 4.74224 7.23457 6.25409C6.19067 7.87393 5.68672 10.1417 5.68672 13.0934C5.68672 19.5368 7.41455 22.7764 10.9062 22.7764C12.2381 22.7764 13.318 22.4165 14.1459 21.7325V14.8572H10.9422V11.9775H17.9615Z" fill="white"/>
<path d="M32.6947 7.69381L32.2627 11.0055C31.6148 10.8255 31.1109 10.7535 30.7509 10.7535C29.851 10.7535 28.5911 11.7614 26.9713 13.7412V25.548H23.2637V7.62182H26.3234L26.6473 10.6455C28.3751 8.41374 29.851 7.29785 31.1109 7.29785C31.6508 7.29785 32.1548 7.44184 32.6947 7.69381Z" fill="white"/>
<path d="M48.8 12.7333V25.548H45.9203L45.6324 23.6042C43.8685 25.1521 41.9967 25.908 40.0889 25.908C36.4893 25.908 34.6895 24.2522 34.6895 20.9405C34.6895 19.0327 35.4094 17.5568 36.8852 16.5129C38.4691 15.397 40.7728 14.8211 43.8325 14.8211H45.1284V13.2013C45.1284 11.0775 43.9045 9.99758 41.4208 9.99758C39.8009 9.99758 38.0731 10.3575 36.1653 11.0415L35.6254 8.7737C37.8571 7.8018 40.1249 7.29785 42.4287 7.29785C46.6763 7.29785 48.8 9.09767 48.8 12.7333ZM45.1284 21.4084V17.1609H43.5806C40.0889 17.1609 38.3611 18.2408 38.3611 20.4005C38.3611 22.2724 39.297 23.2083 41.1328 23.2083C42.3927 23.2083 43.7246 22.5963 45.1284 21.4084Z" fill="white"/>
<path d="M66.8684 12.7333V25.548H63.9887L63.7007 23.6042C61.9369 25.1521 60.0651 25.908 58.1573 25.908C54.5576 25.908 52.7578 24.2522 52.7578 20.9405C52.7578 19.0327 53.4777 17.5568 54.9536 16.5129C56.5374 15.397 58.8412 14.8211 61.9009 14.8211H63.1968V13.2013C63.1968 11.0775 61.9729 9.99758 59.4891 9.99758C57.8693 9.99758 56.1415 10.3575 54.2337 11.0415L53.6937 8.7737C55.9255 7.8018 58.1933 7.29785 60.497 7.29785C64.7446 7.29785 66.8684 9.09767 66.8684 12.7333ZM63.1968 21.4084V17.1609H61.6489C58.1573 17.1609 56.4294 18.2408 56.4294 20.4005C56.4294 22.2724 57.3653 23.2083 59.2012 23.2083C60.461 23.2083 61.7929 22.5963 63.1968 21.4084Z" fill="white"/>
<path d="M78.351 23.1721L78.495 25.4038C77.631 25.6558 76.6591 25.7998 75.5432 25.7998C74.3554 25.7998 73.5634 25.5838 73.0955 25.1159C72.5555 24.5759 72.2676 23.64 72.2676 22.2361V0.0263672H75.9752V20.7963C75.9752 22.2001 76.1912 22.9561 76.6231 23.1361C76.7671 23.1721 76.9831 23.208 77.2711 23.208C77.3791 23.208 77.5591 23.208 77.811 23.1721H78.351Z" fill="white"/>
<path d="M104.041 20.2207L105.769 22.1285C104.005 24.6483 101.593 25.9081 98.5337 25.9081C92.5943 25.9081 89.6426 21.8765 89.6426 13.8493C89.6426 5.53416 93.0982 0.890625 98.9656 0.890625C101.809 0.890625 103.933 2.22249 105.301 4.88623L103.429 6.54206C102.385 4.85023 101.017 4.02231 99.3256 4.02231C95.762 4.02231 93.7102 7.65795 93.7102 13.1654C93.7102 19.5368 95.546 22.7404 99.2536 22.7404C101.017 22.7404 102.601 21.9125 104.041 20.2207Z" fill="#F29111"/>
<path d="M115.507 23.1721L115.651 25.4038C114.787 25.6558 113.815 25.7998 112.699 25.7998C111.512 25.7998 110.72 25.5838 110.252 25.1159C109.712 24.5759 109.424 23.64 109.424 22.2361V0.0263672H113.131V20.7963C113.131 22.2001 113.347 22.9561 113.779 23.1361C113.923 23.1721 114.139 23.208 114.427 23.208C114.535 23.208 114.715 23.208 114.967 23.1721H115.507Z" fill="#F29111"/>
<path d="M133.917 16.1533C133.917 22.5967 130.786 25.9083 125.602 25.9083C120.563 25.9083 118.043 22.9206 118.043 16.9452C118.043 13.7416 118.799 11.2938 120.311 9.63797C121.715 8.05413 123.73 7.26221 126.358 7.26221C131.398 7.26221 133.917 10.2139 133.917 16.1533ZM130.102 16.9812C130.102 14.4255 129.742 12.6257 129.058 11.5458C128.41 10.5379 127.366 10.0339 125.926 10.0339C123.226 10.0339 121.859 12.0857 121.859 16.1533C121.859 21.3008 123.154 23.1366 126.034 23.1366C128.734 23.1366 130.102 21.0848 130.102 16.9812Z" fill="#F29111"/>
<path d="M152.29 7.62207V25.5483H149.266L148.978 23.5325C147.214 25.1163 145.342 25.9082 143.435 25.9082C139.835 25.9082 138.035 23.2085 138.035 17.845C138.035 17.1971 138.071 15.6853 138.107 13.2735C138.143 10.8617 138.143 8.98993 138.143 7.62207H141.851C141.851 8.84595 141.851 10.5738 141.815 12.7696C141.779 14.9653 141.743 16.4412 141.743 17.1251C141.743 21.4447 142.679 22.9205 144.694 22.9205C145.738 22.9205 147.034 22.3086 148.582 21.1207V7.62207H152.29Z" fill="#F29111"/>
<path d="M171.223 0.0263672V25.5478H168.199L167.875 23.64C166.075 25.1519 164.347 25.9078 162.728 25.9078C160.82 25.9078 159.308 25.0799 158.192 23.424C157.112 21.8762 156.572 19.8244 156.572 17.2686C156.572 13.849 157.436 11.2932 159.128 9.56541C160.64 8.01757 162.692 7.26164 165.247 7.26164C166.039 7.26164 166.795 7.29764 167.515 7.40563V0.0263672H171.223ZM167.515 21.2283V10.3573C166.687 10.1054 165.823 9.96137 164.959 9.96137C163.556 9.96137 162.476 10.5013 161.684 11.5812C160.82 12.7691 160.388 14.4609 160.388 16.6927C160.388 20.6883 161.684 23.0281 163.808 23.0281C164.887 23.0281 166.111 22.4161 167.515 21.2283Z" fill="#F29111"/>
<path d="M203.029 1.25049V25.5481H199.069L188.846 6.75794V25.5481H185.57V1.25049H190.43L199.753 17.9168V1.25049H203.029Z" fill="#F29111"/>
<path d="M221.402 12.7333V25.548H218.522L218.234 23.6042C216.47 25.1521 214.598 25.908 212.69 25.908C209.091 25.908 207.291 24.2522 207.291 20.9405C207.291 19.0327 208.011 17.5568 209.487 16.5129C211.071 15.397 213.374 14.8211 216.434 14.8211H217.73V13.2013C217.73 11.0775 216.506 9.99758 214.022 9.99758C212.403 9.99758 210.675 10.3575 208.767 11.0415L208.227 8.7737C210.459 7.8018 212.726 7.29785 215.03 7.29785C219.278 7.29785 221.402 9.09767 221.402 12.7333ZM217.73 21.4084V17.1609H216.182C212.69 17.1609 210.963 18.2408 210.963 20.4005C210.963 22.2724 211.899 23.2083 213.734 23.2083C214.994 23.2083 216.326 22.5963 217.73 21.4084Z" fill="#F29111"/>
<path d="M235.402 22.5605L235.798 24.7562C234.323 25.5122 232.883 25.8721 231.515 25.8721C228.383 25.8721 227.195 24.5763 227.195 21.1206V10.2497H224.604V7.62196H227.303C227.663 6.00212 227.951 4.27429 228.203 2.43848H230.903V7.62196H235.294V10.2497H230.903V20.2207C230.903 22.3805 231.335 23.0644 232.775 23.0644C233.495 23.0644 234.359 22.8844 235.402 22.5605Z" fill="#F29111"/>
<path d="M243.523 2.69047C243.523 4.23831 243.055 4.70626 241.291 4.70626C239.455 4.70626 239.023 4.27431 239.023 2.69047C239.023 1.10663 239.455 0.638672 241.291 0.638672C243.127 0.638672 243.523 1.07063 243.523 2.69047ZM243.127 7.62197V25.5482H239.419V7.62197H243.127Z" fill="#F29111"/>
<path d="M258.133 7.62207H262.021C260.833 14.2454 258.997 20.2208 256.477 25.5483H251.906L246.398 7.62207H250.394L253.814 18.637L254.57 21.9486C256.333 17.0531 257.521 12.2656 258.133 7.62207Z" fill="#F29111"/>
<path d="M278.752 17.1972H268.06V17.5212C268.06 21.1928 269.572 23.0286 272.559 23.0286C274.359 23.0286 276.194 22.6687 278.068 21.9847L278.678 24.1445C276.374 25.3324 274.073 25.9083 271.767 25.9083C266.764 25.9083 264.244 22.9566 264.244 17.0892C264.244 10.7899 267.088 7.26221 271.983 7.26221C276.519 7.26221 278.788 10.1059 278.788 15.7934C278.788 16.2613 278.788 16.7293 278.752 17.1972ZM268.06 14.8215H275.152V14.7135C275.152 11.4378 274.034 9.81795 271.767 9.81795C269.572 9.81795 268.204 11.9057 268.06 14.8215Z" fill="#F29111"/>
</svg>
