<svg width="187" height="48" viewBox="0 0 187 48" fill="none" xmlns="http://www.w3.org/2000/svg">
<g clip-path="url(#clip0_1057_12298)">
<path d="M186.428 23.175L186.834 25.4221C185.322 26.1957 183.846 26.5641 182.444 26.5641C179.234 26.5641 178.016 25.2379 178.016 21.7015V10.5767H175.359V7.88757H178.127C178.496 6.22989 178.791 4.46171 179.049 2.58301H181.816V7.88757H186.318V10.5767H181.816V20.7806C181.816 22.9908 182.259 23.6908 183.735 23.6908C184.473 23.6908 185.358 23.5066 186.428 23.175Z" fill="#FF9100"/>
<path d="M173.221 2.84093C173.221 4.42496 172.742 4.90382 170.934 4.90382C169.052 4.90382 168.609 4.4618 168.609 2.84093C168.609 1.22012 169.052 0.741211 170.934 0.741211C172.816 0.741211 173.221 1.18328 173.221 2.84093ZM172.816 7.88763V26.2325H169.015V7.88763H172.816Z" fill="#FF9100"/>
<path d="M157.9 12.6025L166.239 26.2322H161.59L154.395 14.4076V26.2322H150.41V1.36719H154.395V12.1605L161.221 1.36719H165.685L157.9 12.6025Z" fill="#FF9100"/>
<path d="M135.247 7.8877H139.232C138.014 14.6657 136.133 20.7808 133.55 26.2327H128.864L123.219 7.8877H127.314L130.819 19.16L131.594 22.549C133.402 17.5391 134.62 12.6397 135.247 7.8877Z" fill="#FF9100"/>
<path d="M121.408 17.6865H110.45V18.018C110.45 21.7754 112 23.6541 115.062 23.6541C116.907 23.6541 118.789 23.2857 120.707 22.5858L121.335 24.7961C118.973 26.0117 116.612 26.6011 114.251 26.6011C109.122 26.6011 106.539 23.5804 106.539 17.576C106.539 11.1296 109.454 7.51953 114.472 7.51953C119.121 7.51953 121.445 10.4297 121.445 16.25C121.445 16.7288 121.445 17.2076 121.408 17.6865ZM110.45 15.2553H117.719V15.1448C117.719 11.7926 116.575 10.135 114.251 10.135C112 10.135 110.598 12.2715 110.45 15.2553Z" fill="#FF9100"/>
<path d="M104.067 13.1548C104.067 21.959 100.193 26.3427 92.4815 26.3427C91.8912 26.3427 91.0057 26.3427 89.825 26.3058C88.6074 26.269 87.7587 26.2321 87.2422 26.2321V1.36692C87.9801 1.36692 89.0501 1.36692 90.4153 1.33008H93.5516C97.2043 1.33008 99.9347 2.47203 101.743 4.79277C103.292 6.81882 104.067 9.61845 104.067 13.1548ZM99.8978 13.6337C99.8978 7.40822 97.6471 4.31389 93.1457 4.31389C92.2971 4.31389 91.6698 4.31389 91.2271 4.35073V23.1747C92.1495 23.2115 92.8505 23.2483 93.3302 23.2483C97.7209 23.2483 99.8978 20.0435 99.8978 13.6337Z" fill="#FF9100"/>
<path d="M75.7434 23.8015L75.891 26.0854C75.0054 26.3433 74.0092 26.4906 72.8654 26.4906C71.6478 26.4906 70.8361 26.2696 70.3564 25.7907C69.803 25.2382 69.5078 24.2804 69.5078 22.8438V0.115234H73.3082V21.3703C73.3082 22.8069 73.5296 23.5805 73.9723 23.7647C74.1199 23.8015 74.3413 23.8384 74.6365 23.8384C74.7472 23.8384 74.9317 23.8384 75.1899 23.8015H75.7434Z" fill="white"/>
<path d="M64.7136 13.1181V26.2321H61.7618L61.4666 24.2429C59.6587 25.8269 57.7401 26.6004 55.7845 26.6004C52.0948 26.6004 50.25 24.9059 50.25 21.5169C50.25 19.5645 50.9879 18.0542 52.5007 16.986C54.1242 15.844 56.4856 15.2546 59.6218 15.2546H60.9501V13.597C60.9501 11.4236 59.6956 10.3185 57.1497 10.3185C55.4894 10.3185 53.7183 10.6868 51.7628 11.3867L51.2093 9.06599C53.4969 8.07138 55.8214 7.55566 58.1828 7.55566C62.5367 7.55566 64.7136 9.39752 64.7136 13.1181ZM60.9501 21.9958V17.649H59.3635C55.7845 17.649 54.0135 18.7541 54.0135 20.9644C54.0135 22.8799 54.9728 23.8377 56.8545 23.8377C58.1459 23.8377 59.5111 23.2114 60.9501 21.9958Z" fill="white"/>
<path d="M46.9284 13.1181V26.2321H43.9767L43.6815 24.2429C41.8735 25.8269 39.9549 26.6004 37.9994 26.6004C34.3097 26.6004 32.4648 24.9059 32.4648 21.5169C32.4648 19.5645 33.2028 18.0542 34.7156 16.986C36.339 15.844 38.7004 15.2546 41.8366 15.2546H43.1649V13.597C43.1649 11.4236 41.9104 10.3185 39.3646 10.3185C37.7042 10.3185 35.9331 10.6868 33.9776 11.3867L33.4242 9.06599C35.7118 8.07138 38.0363 7.55566 40.3977 7.55566C44.7515 7.55566 46.9284 9.39752 46.9284 13.1181ZM43.1649 21.9958V17.649H41.5784C37.9994 17.649 36.2283 18.7541 36.2283 20.9644C36.2283 22.8799 37.1876 23.8377 39.0694 23.8377C40.3608 23.8377 41.726 23.2114 43.1649 21.9958Z" fill="white"/>
<path d="M31.1593 7.96087L30.7165 11.3499C30.0523 11.1657 29.5358 11.092 29.1668 11.092C28.2444 11.092 26.953 12.1235 25.2926 14.1495V26.2321H21.4922V7.8872H24.6285L24.9606 10.9815C26.7316 8.69762 28.2444 7.55566 29.5358 7.55566C30.0892 7.55566 30.6058 7.70301 31.1593 7.96087Z" fill="white"/>
<path d="M16.7941 12.3449V23.7276C14.6172 25.6431 11.9607 26.6009 8.86132 26.6009C2.99472 26.6009 0.0429688 22.4751 0.0429688 14.1867C0.0429688 9.9873 0.965391 6.70879 2.84713 4.31437C4.61818 2.10414 6.94268 0.999023 9.82064 0.999023C12.551 0.999023 14.8017 2.14098 16.5728 4.38805L14.8386 6.08256C13.1783 4.79326 11.5548 4.16702 10.042 4.16702C8.23407 4.16702 6.79509 4.9406 5.79888 6.48777C4.72887 8.14544 4.21231 10.4662 4.21231 13.4868C4.21231 20.0807 5.98336 23.396 9.56236 23.396C10.9275 23.396 12.0344 23.0276 12.8831 22.3277V15.2919H9.59925V12.3449H16.7941Z" fill="white"/>
<path d="M183.172 44.7923V39.4694H181.512V38.6221L183.172 38.0695L183.836 35.4541H184.832V38.1064H186.917V39.4694H184.832V44.7739C184.832 45.8299 185.287 46.3579 186.198 46.3579C186.345 46.3579 186.487 46.3518 186.622 46.3395C186.77 46.3149 186.905 46.2965 187.028 46.2842V47.7209C186.856 47.7577 186.677 47.7823 186.493 47.7946C186.321 47.8068 186.136 47.813 185.939 47.813C184.992 47.813 184.291 47.5674 183.836 47.0762C183.393 46.5851 183.172 45.8238 183.172 44.7923Z" fill="white"/>
<path d="M171.883 44.0557V38.1064H173.543V44.0004C173.543 44.8231 173.721 45.4555 174.078 45.8975C174.435 46.3396 174.958 46.5606 175.646 46.5606C176.224 46.5606 176.765 46.3641 177.27 45.9712C177.786 45.566 178.174 45.0318 178.432 44.3688V38.1064H180.092V47.721H178.967L178.672 46.0817C178.278 46.6711 177.78 47.1254 177.177 47.4447C176.587 47.7639 175.941 47.9236 175.24 47.9236C174.17 47.9236 173.34 47.592 172.75 46.929C172.172 46.2659 171.883 45.3081 171.883 44.0557Z" fill="white"/>
<path d="M168.169 47.7214L167.893 46.1742C167.106 47.3408 166.036 47.924 164.683 47.924C163.711 47.924 162.93 47.6539 162.34 47.1136C161.762 46.561 161.473 45.8304 161.473 44.9218C161.473 43.9149 161.817 43.1352 162.506 42.5826C163.207 42.0178 164.178 41.7354 165.421 41.7354H167.634V41.1275C167.634 40.4399 167.481 39.9549 167.173 39.6725C166.878 39.3901 166.368 39.2489 165.642 39.2489C165.175 39.2489 164.677 39.3041 164.148 39.4146C163.619 39.5129 163.022 39.6786 162.358 39.9119V38.5674C162.826 38.3586 163.361 38.199 163.963 38.0885C164.566 37.9657 165.132 37.9043 165.66 37.9043C168.083 37.9043 169.295 38.9787 169.295 41.1275V47.7214H168.169ZM164.886 46.5979C165.451 46.5979 165.98 46.4382 166.472 46.119C166.964 45.7875 167.358 45.3393 167.653 44.7744V42.951H165.587C164.75 42.951 164.129 43.1045 163.723 43.4115C163.33 43.7062 163.133 44.1666 163.133 44.7929C163.133 45.3454 163.287 45.7875 163.594 46.119C163.914 46.4382 164.344 46.5979 164.886 46.5979Z" fill="white"/>
<path d="M151.148 47.7214V38.1069H152.274L152.569 39.7462C152.975 39.1568 153.473 38.7024 154.063 38.3832C154.654 38.0639 155.318 37.9043 156.056 37.9043C157.163 37.9043 158.011 38.2358 158.602 38.8989C159.192 39.562 159.487 40.5197 159.487 41.7722V47.7214H157.827V41.8275C157.827 40.1575 157.101 39.3225 155.65 39.3225C155.035 39.3225 154.469 39.5129 153.953 39.8935C153.448 40.2619 153.067 40.7653 152.809 41.4038V47.7214H151.148Z" fill="white"/>
<path d="M144.396 47.924C142.944 47.924 141.819 47.482 141.019 46.5979C140.22 45.7015 139.82 44.4736 139.82 42.9142C139.82 41.3424 140.22 40.1145 141.019 39.2304C141.819 38.3463 142.944 37.9043 144.396 37.9043C145.859 37.9043 146.991 38.3463 147.79 39.2304C148.589 40.1145 148.989 41.3424 148.989 42.9142C148.989 44.4736 148.589 45.7015 147.79 46.5979C146.991 47.482 145.859 47.924 144.396 47.924ZM144.396 46.561C145.343 46.561 146.062 46.2541 146.554 45.6401C147.046 45.0139 147.292 44.1052 147.292 42.9142C147.292 41.7231 147.046 40.8206 146.554 40.2066C146.062 39.5804 145.343 39.2673 144.396 39.2673C143.461 39.2673 142.747 39.5804 142.255 40.2066C141.764 40.8206 141.518 41.7231 141.518 42.9142C141.518 44.1052 141.764 45.0139 142.255 45.6401C142.747 46.2541 143.461 46.561 144.396 46.561Z" fill="white"/>
<path d="M133.961 47.7208V38.1063H135.086L135.418 39.9113C136.046 38.6957 136.943 38.0879 138.112 38.0879C138.358 38.0879 138.573 38.1063 138.758 38.1431V39.5982H138.333C137.632 39.5982 137.048 39.7947 136.581 40.1876C136.113 40.5805 135.793 41.1515 135.621 41.9005V47.7208H133.961Z" fill="white"/>
<path d="M131.941 45.8795V47.2425C131.178 47.6969 130.213 47.924 129.044 47.924C127.556 47.924 126.431 47.4942 125.668 46.6347C124.918 45.7629 124.543 44.4859 124.543 42.8036C124.543 41.2442 124.943 40.0409 125.742 39.1936C126.542 38.3341 127.673 37.9043 129.137 37.9043C130.047 37.9043 130.889 38.1069 131.664 38.5121V39.8751C130.852 39.4699 130.096 39.2673 129.395 39.2673C127.292 39.2673 126.24 40.4461 126.24 42.8036C126.24 44.0807 126.48 45.0262 126.96 45.6401C127.452 46.2541 128.22 46.561 129.266 46.561C129.684 46.561 130.108 46.5058 130.539 46.3953C130.969 46.2848 131.437 46.1129 131.941 45.8795Z" fill="white"/>
<path d="M120.338 35.8777V34.3857H122.367V35.8777H120.338ZM120.725 47.7208V39.3956L119.766 38.7878V38.1063H122.385V47.7208H120.725Z" fill="white"/>
<path d="M104.203 47.7214V34.3311H105.956L111.011 44.6455L115.955 34.3311H117.707V47.7214H116.047V37.4438L111.675 46.4321H110.236L105.863 37.5543V47.7214H104.203Z" fill="white"/>
<path d="M92.7383 47.7208V38.1063H93.8636L94.1957 39.9113C94.823 38.6957 95.7208 38.0879 96.8892 38.0879C97.1352 38.0879 97.3504 38.1063 97.5349 38.1431V39.5982H97.1106C96.4095 39.5982 95.8253 39.7947 95.358 40.1876C94.8906 40.5805 94.5708 41.1515 94.3986 41.9005V47.7208H92.7383Z" fill="white"/>
<path d="M85.9893 47.924C84.538 47.924 83.4126 47.482 82.6132 46.5979C81.8138 45.7015 81.4141 44.4736 81.4141 42.9142C81.4141 41.3424 81.8138 40.1145 82.6132 39.2304C83.4126 38.3463 84.538 37.9043 85.9893 37.9043C87.4528 37.9043 88.5844 38.3463 89.3838 39.2304C90.1832 40.1145 90.5829 41.3424 90.5829 42.9142C90.5829 44.4736 90.1832 45.7015 89.3838 46.5979C88.5844 47.482 87.4528 47.924 85.9893 47.924ZM85.9893 46.561C86.9363 46.561 87.6558 46.2541 88.1477 45.6401C88.6397 45.0139 88.8857 44.1052 88.8857 42.9142C88.8857 41.7231 88.6397 40.8206 88.1477 40.2066C87.6558 39.5804 86.9363 39.2673 85.9893 39.2673C85.0545 39.2673 84.3412 39.5804 83.8492 40.2066C83.3573 40.8206 83.1113 41.7231 83.1113 42.9142C83.1113 44.1052 83.3573 45.0139 83.8492 45.6401C84.3412 46.2541 85.0545 46.561 85.9893 46.561Z" fill="white"/>
<path d="M76.6838 47.7211V39.4695H75.0234V38.6223L76.6838 38.0697V37.0014C76.6838 34.8403 77.7169 33.7598 79.7831 33.7598C80.0045 33.7598 80.2443 33.7843 80.5026 33.8334V35.1227C80.355 35.0982 80.1582 35.0859 79.9123 35.0859C79.3465 35.0859 78.9407 35.2394 78.6947 35.5464C78.461 35.8411 78.3442 36.3199 78.3442 36.983V38.1066H80.5764V39.4695H78.3442V47.7211H76.6838Z" fill="white"/>
</g>
<defs>
<clipPath id="clip0_1057_12298">
<rect width="187" height="48" fill="white"/>
</clipPath>
</defs>
</svg>
