<svg width="48" height="48" viewBox="0 0 48 48" fill="none" xmlns="http://www.w3.org/2000/svg">
<path d="M0 4C0 1.79086 1.79086 0 4 0H44C46.2091 0 48 1.79086 48 4V44C48 46.2091 46.2091 48 44 48H4C1.79086 48 0 46.2091 0 44V4Z" fill="url(#paint0_linear_202_1151)"/>
<path d="M24 11.0688C15.7069 11.0688 9 17.79 9 26.0688C9 30.0731 10.561 33.8393 13.3954 36.6735C13.567 36.8451 13.792 36.9309 14.0169 36.9309C14.2418 36.9309 14.4667 36.8451 14.6384 36.6734L17.3005 34.0111C17.6437 33.6679 17.6437 33.1114 17.3005 32.7682C16.548 32.0156 14.5363 29.7776 14.5235 26.0681C14.5238 20.7979 18.8035 16.5922 24 16.5922C29.2676 16.5922 33.4762 20.8684 33.4765 26.0681C33.4689 28.2746 32.7406 30.296 31.4365 31.9406C30.0819 29.8398 27.0579 25.2211 25.9528 24.1162C24.8645 23.0279 23.1159 23.0475 22.0471 24.1162C20.9568 25.2065 20.9807 26.9551 22.0471 28.0215C23.3677 29.3424 29.707 33.4037 30.7689 34.0807L33.3616 36.6734C33.5332 36.8451 33.7581 36.9309 33.9831 36.9309C34.208 36.9309 34.4329 36.8451 34.6045 36.6735C37.439 33.8393 39 30.0731 39 26.0688C39 17.7748 32.2775 11.0688 24 11.0688ZM15.4598 33.3659L14.037 34.7889C12.1089 32.5928 10.9763 29.861 10.7863 26.9478H12.7994C12.9827 29.3246 13.9078 31.5552 15.4598 33.3659ZM12.7993 25.1899H10.7863C10.9762 22.2767 12.1088 19.5448 14.037 17.3487L15.4598 18.7717C13.9063 20.5833 12.9824 22.8126 12.7993 25.1899ZM23.1211 14.8681C20.7437 15.0512 18.5142 15.9754 16.7027 17.5287L15.28 16.1058C17.4762 14.1777 20.208 13.0451 23.1211 12.8552V14.8681ZM23.2902 26.7785C22.8954 26.3838 22.9011 25.7482 23.2901 25.3592C23.6818 24.9675 24.3186 24.9679 24.7099 25.3592C24.7099 25.3592 24.7099 25.3592 24.7099 25.3592C25.3403 25.9895 26.9026 28.2554 28.3181 30.3869C26.1866 28.9714 23.9205 27.4091 23.2902 26.7785ZM24.8789 14.8681V12.8552C27.792 13.0451 30.5238 14.1777 32.72 16.1059L31.2973 17.5287C29.4858 15.9754 27.2563 15.0512 24.8789 14.8681ZM32.5402 18.7717L33.963 17.3487C35.8911 19.5448 37.0237 22.2767 37.2137 25.1899H35.2007C35.0176 22.8126 34.0937 20.5833 32.5402 18.7717ZM33.963 34.7889L32.5402 33.3659C34.0922 31.5552 35.0173 29.3246 35.2006 26.9477H37.2137C37.0237 29.861 35.8911 32.5928 33.963 34.7889Z" fill="white"/>
<defs>
<linearGradient id="paint0_linear_202_1151" x1="8.29947e-07" y1="21.84" x2="48" y2="22.56" gradientUnits="userSpaceOnUse">
<stop stop-color="#F77468"/>
<stop offset="1" stop-color="#F68831"/>
</linearGradient>
</defs>
</svg>
