<svg width="685" height="222" viewBox="0 0 685 222" fill="none" xmlns="http://www.w3.org/2000/svg">
<g clip-path="url(#clip0_926_13470)">
<path fill-rule="evenodd" clip-rule="evenodd" d="M407.5 33H380.5C379.948 33 379.5 33.4477 379.5 34C379.5 34.5523 379.948 35 380.5 35H405.5C406.605 35 407.5 35.8954 407.5 37V63C407.5 64.1046 406.605 65 405.5 65H380.5C379.948 65 379.5 65.4477 379.5 66C379.5 66.5523 379.948 67 380.5 67H405.5C406.605 67 407.5 67.8954 407.5 69V95C407.5 96.1046 406.605 97 405.5 97H380.5C379.948 97 379.5 97.4477 379.5 98C379.5 98.5523 379.948 99 380.5 99H405.5C406.605 99 407.5 99.8954 407.5 101V127C407.5 128.105 406.605 129 405.5 129H380.5C379.948 129 379.5 129.448 379.5 130C379.5 130.552 379.948 131 380.5 131H405.5C406.605 131 407.5 131.895 407.5 133V175C407.5 176.105 406.605 177 405.5 177H380.5C379.948 177 379.5 177.448 379.5 178C379.5 178.552 379.948 179 380.5 179H407.5C408.605 179 409.5 178.105 409.5 177V131V129V109C409.5 107.895 410.395 107 411.5 107H432.5C433.052 107 433.5 106.552 433.5 106C433.5 105.448 433.052 105 432.5 105H411.5C410.395 105 409.5 104.105 409.5 103V99V97V67V65V35C409.5 33.8954 408.605 33 407.5 33Z" fill="#FF9142"/>
<path fill-rule="evenodd" clip-rule="evenodd" d="M215.5 33H252.5C253.052 33 253.5 33.4477 253.5 34C253.5 34.5523 253.052 35 252.5 35H217.5C216.395 35 215.5 35.8954 215.5 37V63C215.5 64.1046 216.395 65 217.5 65H252.5C253.052 65 253.5 65.4477 253.5 66C253.5 66.5523 253.052 67 252.5 67H217.5C216.395 67 215.5 67.8954 215.5 69V95C215.5 96.1046 216.395 97 217.5 97H252.5C253.052 97 253.5 97.4477 253.5 98C253.5 98.5523 253.052 99 252.5 99H217.5C216.395 99 215.5 99.8954 215.5 101V105V107V127C215.5 128.105 216.395 129 217.5 129H252.5C253.052 129 253.5 129.448 253.5 130C253.5 130.552 253.052 131 252.5 131H217.5C216.395 131 215.5 131.895 215.5 133V175C215.5 176.105 216.395 177 217.5 177H252.5C253.052 177 253.5 177.448 253.5 178C253.5 178.552 253.052 179 252.5 179H215.5C214.395 179 213.5 178.105 213.5 177V131V129V109C213.5 107.895 212.605 107 211.5 107H196.5C195.948 107 195.5 106.552 195.5 106C195.5 105.448 195.948 105 196.5 105H211.5C212.605 105 213.5 104.105 213.5 103V99V97V67V65V35C213.5 33.8954 214.395 33 215.5 33Z" fill="#FF9142"/>
<g filter="url(#filter0_di_926_13470)">
<path d="M378.5 20H244.5C242.291 20 240.5 21.7909 240.5 24V44C240.5 46.2091 242.291 48 244.5 48H378.5C380.709 48 382.5 46.2091 382.5 44V24C382.5 21.7909 380.709 20 378.5 20Z" fill="#1E2631"/>
<path d="M378.5 20.5H244.5C242.567 20.5 241 22.067 241 24V44C241 45.933 242.567 47.5 244.5 47.5H378.5C380.433 47.5 382 45.933 382 44V24C382 22.067 380.433 20.5 378.5 20.5Z" stroke="white"/>
</g>
<path d="M262.523 28.5312C259.18 28.5312 257.086 30.7734 257.086 34.3672C257.086 37.9531 259.18 40.1875 262.523 40.1875C265.859 40.1875 267.961 37.9531 267.961 34.3672C267.961 30.7734 265.859 28.5312 262.523 28.5312ZM262.523 30.5C264.367 30.5 265.547 32 265.547 34.3672C265.547 36.7266 264.367 38.2188 262.523 38.2188C260.672 38.2188 259.492 36.7266 259.492 34.3672C259.492 32 260.68 30.5 262.523 30.5ZM274.266 40.1328C276.375 40.1328 277.664 38.5078 277.664 35.8125C277.664 33.1094 276.367 31.4922 274.258 31.4922C273.062 31.4922 272.133 32.0859 271.672 33.0781H271.625V28.7266H269.344V40H271.594V38.5625H271.641C272.102 39.5391 273.039 40.1328 274.266 40.1328ZM273.477 33.3203C274.609 33.3203 275.328 34.2891 275.328 35.8125C275.328 37.3438 274.617 38.2969 273.477 38.2969C272.367 38.2969 271.617 37.3281 271.617 35.8125C271.617 34.3125 272.375 33.3203 273.477 33.3203ZM280.016 30.4922C280.68 30.4922 281.203 29.9609 281.203 29.3203C281.203 28.6719 280.68 28.1484 280.016 28.1484C279.359 28.1484 278.828 28.6719 278.828 29.3203C278.828 29.9609 279.359 30.4922 280.016 30.4922ZM281.172 31.625H278.891V40.3203C278.891 41.0078 278.594 41.2734 277.836 41.2734C277.766 41.2734 277.602 41.2734 277.547 41.2656V42.9453C277.648 42.9609 277.992 42.9688 278.172 42.9688C280.133 42.9688 281.172 42.0859 281.172 40.3828V31.625ZM288.242 37.4375C288.031 38.0781 287.391 38.4922 286.555 38.4922C285.391 38.4922 284.633 37.6719 284.633 36.4766V36.3359H290.406V35.6406C290.406 33.0938 288.867 31.4453 286.43 31.4453C283.953 31.4453 282.391 33.1797 282.391 35.8516C282.391 38.5312 283.938 40.1797 286.516 40.1797C288.586 40.1797 290.086 39.0781 290.336 37.4375H288.242ZM286.453 33.1328C287.469 33.1328 288.164 33.8672 288.211 34.9375H284.656C284.734 33.8906 285.453 33.1328 286.453 33.1328ZM299.195 34.7422C299.094 32.8438 297.656 31.4453 295.391 31.4453C292.883 31.4453 291.281 33.1172 291.281 35.8047C291.281 38.5391 292.883 40.1797 295.406 40.1797C297.609 40.1797 299.086 38.9062 299.203 36.9297H297.078C296.938 37.8438 296.344 38.3906 295.43 38.3906C294.297 38.3906 293.594 37.4531 293.594 35.8047C293.594 34.1875 294.297 33.2344 295.422 33.2344C296.359 33.2344 296.945 33.8594 297.078 34.7422H299.195ZM300.914 29.6953V31.625H299.734V33.3438H300.914V37.7422C300.914 39.375 301.68 40.0312 303.648 40.0312C304.109 40.0312 304.5 39.9922 304.734 39.9375V38.2578C304.594 38.2812 304.383 38.2969 304.18 38.2969C303.508 38.2969 303.195 37.9922 303.195 37.3516V33.3438H304.742V31.625H303.195V29.6953H300.914ZM308.93 36.7812C309 38.9062 310.789 40.1875 313.477 40.1875C316.297 40.1875 318.023 38.7969 318.023 36.5938C318.023 34.8828 316.984 33.9219 314.602 33.4453L313.406 33.2031C312.078 32.9375 311.531 32.5078 311.531 31.8125C311.531 30.9844 312.312 30.4375 313.477 30.4375C314.664 30.4375 315.5 31.0156 315.578 31.9766H317.805C317.766 29.9062 316.109 28.5312 313.477 28.5312C310.969 28.5312 309.172 29.8984 309.172 31.9609C309.172 33.6406 310.273 34.7188 312.523 35.1641L313.711 35.3984C315.125 35.6875 315.656 36.1094 315.656 36.8516C315.656 37.6797 314.797 38.2891 313.539 38.2891C312.258 38.2891 311.305 37.7266 311.156 36.7812H308.93ZM319.883 29.6953V31.625H318.703V33.3438H319.883V37.7422C319.883 39.375 320.648 40.0312 322.617 40.0312C323.078 40.0312 323.469 39.9922 323.703 39.9375V38.2578C323.562 38.2812 323.352 38.2969 323.148 38.2969C322.477 38.2969 322.164 37.9922 322.164 37.3516V33.3438H323.711V31.625H322.164V29.6953H319.883ZM328.68 40.1797C331.211 40.1797 332.828 38.5625 332.828 35.8047C332.828 33.0859 331.188 31.4453 328.68 31.4453C326.172 31.4453 324.531 33.0938 324.531 35.8047C324.531 38.5547 326.148 40.1797 328.68 40.1797ZM328.68 38.4375C327.555 38.4375 326.844 37.4922 326.844 35.8125C326.844 34.1484 327.57 33.1875 328.68 33.1875C329.789 33.1875 330.508 34.1484 330.508 35.8125C330.508 37.4922 329.797 38.4375 328.68 38.4375ZM334.008 40H336.289V35.3203C336.289 34.1406 336.945 33.4531 338.07 33.4531C338.398 33.4531 338.711 33.5078 338.898 33.5859V31.5781C338.742 31.5312 338.516 31.4922 338.25 31.4922C337.266 31.4922 336.555 32.0703 336.258 33.1328H336.211V31.625H334.008V40ZM342.117 40.1328C343.164 40.1328 344.203 39.6094 344.672 38.7188H344.719V40H346.922V34.2422C346.922 32.5547 345.523 31.4453 343.375 31.4453C341.156 31.4453 339.773 32.5625 339.688 34.1875H341.773C341.883 33.5703 342.422 33.1484 343.273 33.1484C344.133 33.1484 344.68 33.6016 344.68 34.3828V34.9375L342.57 35.0625C340.484 35.1875 339.312 36.0703 339.312 37.5938C339.312 39.1016 340.523 40.1328 342.117 40.1328ZM342.867 38.4844C342.094 38.4844 341.578 38.0938 341.578 37.4688C341.578 36.875 342.062 36.4922 342.914 36.4297L344.68 36.3203V36.9297C344.68 37.8359 343.859 38.4844 342.867 38.4844ZM352.227 43.1562C354.734 43.1562 356.406 41.875 356.406 39.8828V31.625H354.156V33.0859H354.117C353.68 32.125 352.734 31.4922 351.531 31.4922C349.406 31.4922 348.094 33.125 348.094 35.7812C348.094 38.3984 349.445 39.9766 351.492 39.9766C352.703 39.9766 353.688 39.3672 354.078 38.4766H354.125V39.9453C354.125 40.9141 353.469 41.5625 352.289 41.5625C351.422 41.5625 350.766 41.1719 350.586 40.5938H348.352C348.531 42.0859 350.023 43.1562 352.227 43.1562ZM352.266 38.2188C351.133 38.2188 350.43 37.3281 350.43 35.7969C350.43 34.2734 351.141 33.3203 352.266 33.3203C353.406 33.3203 354.133 34.2891 354.133 35.7969C354.133 37.3125 353.406 38.2188 352.266 38.2188ZM363.445 37.4375C363.234 38.0781 362.594 38.4922 361.758 38.4922C360.594 38.4922 359.836 37.6719 359.836 36.4766V36.3359H365.609V35.6406C365.609 33.0938 364.07 31.4453 361.633 31.4453C359.156 31.4453 357.594 33.1797 357.594 35.8516C357.594 38.5312 359.141 40.1797 361.719 40.1797C363.789 40.1797 365.289 39.0781 365.539 37.4375H363.445ZM361.656 33.1328C362.672 33.1328 363.367 33.8672 363.414 34.9375H359.859C359.938 33.8906 360.656 33.1328 361.656 33.1328Z" fill="white"/>
<path d="M240.5 37C242.157 37 243.5 35.6569 243.5 34C243.5 32.3431 242.157 31 240.5 31C238.843 31 237.5 32.3431 237.5 34C237.5 35.6569 238.843 37 240.5 37Z" fill="white"/>
<path d="M382.5 37C384.157 37 385.5 35.6569 385.5 34C385.5 32.3431 384.157 31 382.5 31C380.843 31 379.5 32.3431 379.5 34C379.5 35.6569 380.843 37 382.5 37Z" fill="white"/>
<g filter="url(#filter1_di_926_13470)">
<path d="M378.5 52H244.5C242.291 52 240.5 53.7909 240.5 56V76C240.5 78.2091 242.291 80 244.5 80H378.5C380.709 80 382.5 78.2091 382.5 76V56C382.5 53.7909 380.709 52 378.5 52Z" fill="#1E2631"/>
<path d="M378.5 52.5H244.5C242.567 52.5 241 54.067 241 56V76C241 77.933 242.567 79.5 244.5 79.5H378.5C380.433 79.5 382 77.933 382 76V56C382 54.067 380.433 52.5 378.5 52.5Z" stroke="white"/>
</g>
<path d="M286.422 72.1875C289.188 72.1875 291.117 70.6016 291.383 68.0859H289.086C288.836 69.4219 287.828 70.2422 286.43 70.2422C284.625 70.2422 283.492 68.7578 283.492 66.3516C283.492 63.9766 284.641 62.4844 286.422 62.4844C287.797 62.4844 288.859 63.3906 289.078 64.7734H291.375C291.195 62.25 289.133 60.5312 286.422 60.5312C283.156 60.5312 281.086 62.7266 281.086 66.3594C281.086 70 283.141 72.1875 286.422 72.1875ZM295.086 72.1328C296.133 72.1328 297.172 71.6094 297.641 70.7188H297.688V72H299.891V66.2422C299.891 64.5547 298.492 63.4453 296.344 63.4453C294.125 63.4453 292.742 64.5625 292.656 66.1875H294.742C294.852 65.5703 295.391 65.1484 296.242 65.1484C297.102 65.1484 297.648 65.6016 297.648 66.3828V66.9375L295.539 67.0625C293.453 67.1875 292.281 68.0703 292.281 69.5938C292.281 71.1016 293.492 72.1328 295.086 72.1328ZM295.836 70.4844C295.062 70.4844 294.547 70.0938 294.547 69.4688C294.547 68.875 295.031 68.4922 295.883 68.4297L297.648 68.3203V68.9297C297.648 69.8359 296.828 70.4844 295.836 70.4844ZM308.977 66.7422C308.875 64.8438 307.438 63.4453 305.172 63.4453C302.664 63.4453 301.062 65.1172 301.062 67.8047C301.062 70.5391 302.664 72.1797 305.188 72.1797C307.391 72.1797 308.867 70.9062 308.984 68.9297H306.859C306.719 69.8438 306.125 70.3906 305.211 70.3906C304.078 70.3906 303.375 69.4531 303.375 67.8047C303.375 66.1875 304.078 65.2344 305.203 65.2344C306.141 65.2344 306.727 65.8594 306.859 66.7422H308.977ZM310.141 72H312.422V67.2188C312.422 66.1172 313.055 65.3594 314.133 65.3594C315.172 65.3594 315.703 66.0156 315.703 67.0938V72H317.984V66.6094C317.984 64.6719 316.922 63.4688 315.062 63.4688C313.789 63.4688 312.875 64.0625 312.43 65.1172H312.383V60.7266H310.141V72ZM320.617 62.4922C321.281 62.4922 321.805 61.9609 321.805 61.3203C321.805 60.6719 321.281 60.1484 320.617 60.1484C319.953 60.1484 319.43 60.6719 319.43 61.3203C319.43 61.9609 319.953 62.4922 320.617 62.4922ZM319.484 72H321.766V63.625H319.484V72ZM323.289 72H325.57V67.1953C325.57 66.1094 326.219 65.3594 327.242 65.3594C328.266 65.3594 328.781 65.9844 328.781 67.0781V72H331.062V66.6016C331.062 64.6406 330.016 63.4688 328.156 63.4688C326.867 63.4688 325.984 64.0781 325.539 65.1172H325.492V63.625H323.289V72ZM336.336 75.1562C338.844 75.1562 340.516 73.875 340.516 71.8828V63.625H338.266V65.0859H338.227C337.789 64.125 336.844 63.4922 335.641 63.4922C333.516 63.4922 332.203 65.125 332.203 67.7812C332.203 70.3984 333.555 71.9766 335.602 71.9766C336.812 71.9766 337.797 71.3672 338.188 70.4766H338.234V71.9453C338.234 72.9141 337.578 73.5625 336.398 73.5625C335.531 73.5625 334.875 73.1719 334.695 72.5938H332.461C332.641 74.0859 334.133 75.1562 336.336 75.1562ZM336.375 70.2188C335.242 70.2188 334.539 69.3281 334.539 67.7969C334.539 66.2734 335.25 65.3203 336.375 65.3203C337.516 65.3203 338.242 66.2891 338.242 67.7969C338.242 69.3125 337.516 70.2188 336.375 70.2188Z" fill="white"/>
<path d="M240.5 69C242.157 69 243.5 67.6569 243.5 66C243.5 64.3431 242.157 63 240.5 63C238.843 63 237.5 64.3431 237.5 66C237.5 67.6569 238.843 69 240.5 69Z" fill="white"/>
<path d="M382.5 69C384.157 69 385.5 67.6569 385.5 66C385.5 64.3431 384.157 63 382.5 63C380.843 63 379.5 64.3431 379.5 66C379.5 67.6569 380.843 69 382.5 69Z" fill="white"/>
<g filter="url(#filter2_di_926_13470)">
<path d="M378.5 84H244.5C242.291 84 240.5 85.7909 240.5 88V108C240.5 110.209 242.291 112 244.5 112H378.5C380.709 112 382.5 110.209 382.5 108V88C382.5 85.7909 380.709 84 378.5 84Z" fill="#1E2631"/>
<path d="M378.5 84.5H244.5C242.567 84.5 241 86.067 241 88V108C241 109.933 242.567 111.5 244.5 111.5H378.5C380.433 111.5 382 109.933 382 108V88C382 86.067 380.433 84.5 378.5 84.5Z" stroke="white"/>
</g>
<path d="M290.492 104V94.6719H293.758V92.7266H284.875V94.6719H288.133V104H290.492ZM293.805 104H296.086V99.3203C296.086 98.1406 296.742 97.4531 297.867 97.4531C298.195 97.4531 298.508 97.5078 298.695 97.5859V95.5781C298.539 95.5312 298.312 95.4922 298.047 95.4922C297.062 95.4922 296.352 96.0703 296.055 97.1328H296.008V95.625H293.805V104ZM301.914 104.133C302.961 104.133 304 103.609 304.469 102.719H304.516V104H306.719V98.2422C306.719 96.5547 305.32 95.4453 303.172 95.4453C300.953 95.4453 299.57 96.5625 299.484 98.1875H301.57C301.68 97.5703 302.219 97.1484 303.07 97.1484C303.93 97.1484 304.477 97.6016 304.477 98.3828V98.9375L302.367 99.0625C300.281 99.1875 299.109 100.07 299.109 101.594C299.109 103.102 300.32 104.133 301.914 104.133ZM302.664 102.484C301.891 102.484 301.375 102.094 301.375 101.469C301.375 100.875 301.859 100.492 302.711 100.43L304.477 100.32V100.93C304.477 101.836 303.656 102.484 302.664 102.484ZM315.805 98.7422C315.703 96.8438 314.266 95.4453 312 95.4453C309.492 95.4453 307.891 97.1172 307.891 99.8047C307.891 102.539 309.492 104.18 312.016 104.18C314.219 104.18 315.695 102.906 315.812 100.93H313.688C313.547 101.844 312.953 102.391 312.039 102.391C310.906 102.391 310.203 101.453 310.203 99.8047C310.203 98.1875 310.906 97.2344 312.031 97.2344C312.969 97.2344 313.555 97.8594 313.688 98.7422H315.805ZM318.086 94.4922C318.75 94.4922 319.273 93.9609 319.273 93.3203C319.273 92.6719 318.75 92.1484 318.086 92.1484C317.422 92.1484 316.898 92.6719 316.898 93.3203C316.898 93.9609 317.422 94.4922 318.086 94.4922ZM316.953 104H319.234V95.625H316.953V104ZM320.758 104H323.039V99.1953C323.039 98.1094 323.688 97.3594 324.711 97.3594C325.734 97.3594 326.25 97.9844 326.25 99.0781V104H328.531V98.6016C328.531 96.6406 327.484 95.4688 325.625 95.4688C324.336 95.4688 323.453 96.0781 323.008 97.1172H322.961V95.625H320.758V104ZM333.805 107.156C336.312 107.156 337.984 105.875 337.984 103.883V95.625H335.734V97.0859H335.695C335.258 96.125 334.312 95.4922 333.109 95.4922C330.984 95.4922 329.672 97.125 329.672 99.7812C329.672 102.398 331.023 103.977 333.07 103.977C334.281 103.977 335.266 103.367 335.656 102.477H335.703V103.945C335.703 104.914 335.047 105.562 333.867 105.562C333 105.562 332.344 105.172 332.164 104.594H329.93C330.109 106.086 331.602 107.156 333.805 107.156ZM333.844 102.219C332.711 102.219 332.008 101.328 332.008 99.7969C332.008 98.2734 332.719 97.3203 333.844 97.3203C334.984 97.3203 335.711 98.2891 335.711 99.7969C335.711 101.312 334.984 102.219 333.844 102.219Z" fill="white"/>
<path d="M240.5 101C242.157 101 243.5 99.6569 243.5 98C243.5 96.3431 242.157 95 240.5 95C238.843 95 237.5 96.3431 237.5 98C237.5 99.6569 238.843 101 240.5 101Z" fill="white"/>
<path d="M382.5 101C384.157 101 385.5 99.6569 385.5 98C385.5 96.3431 384.157 95 382.5 95C380.843 95 379.5 96.3431 379.5 98C379.5 99.6569 380.843 101 382.5 101Z" fill="white"/>
<g filter="url(#filter3_di_926_13470)">
<path d="M378.5 116H244.5C242.291 116 240.5 117.791 240.5 120V140C240.5 142.209 242.291 144 244.5 144H378.5C380.709 144 382.5 142.209 382.5 140V120C382.5 117.791 380.709 116 378.5 116Z" fill="#1E2631"/>
<path d="M378.5 116.5H244.5C242.567 116.5 241 118.067 241 120V140C241 141.933 242.567 143.5 244.5 143.5H378.5C380.433 143.5 382 141.933 382 140V120C382 118.067 380.433 116.5 378.5 116.5Z" stroke="white"/>
</g>
<path d="M297.375 136V124.727H294.641L291.438 132.82H291.375L288.172 124.727H285.438V136H287.539V128.391H287.602L290.664 136H292.148L295.211 128.391H295.273V136H297.375ZM304.602 133.438C304.391 134.078 303.75 134.492 302.914 134.492C301.75 134.492 300.992 133.672 300.992 132.477V132.336H306.766V131.641C306.766 129.094 305.227 127.445 302.789 127.445C300.312 127.445 298.75 129.18 298.75 131.852C298.75 134.531 300.297 136.18 302.875 136.18C304.945 136.18 306.445 135.078 306.695 133.438H304.602ZM302.812 129.133C303.828 129.133 304.523 129.867 304.57 130.938H301.016C301.094 129.891 301.812 129.133 302.812 129.133ZM308.555 125.695V127.625H307.375V129.344H308.555V133.742C308.555 135.375 309.32 136.031 311.289 136.031C311.75 136.031 312.141 135.992 312.375 135.938V134.258C312.234 134.281 312.023 134.297 311.82 134.297C311.148 134.297 310.836 133.992 310.836 133.352V129.344H312.383V127.625H310.836V125.695H308.555ZM313.633 136H315.914V131.32C315.914 130.141 316.57 129.453 317.695 129.453C318.023 129.453 318.336 129.508 318.523 129.586V127.578C318.367 127.531 318.141 127.492 317.875 127.492C316.891 127.492 316.18 128.07 315.883 129.133H315.836V127.625H313.633V136ZM320.633 126.492C321.297 126.492 321.82 125.961 321.82 125.32C321.82 124.672 321.297 124.148 320.633 124.148C319.969 124.148 319.445 124.672 319.445 125.32C319.445 125.961 319.969 126.492 320.633 126.492ZM319.5 136H321.781V127.625H319.5V136ZM330.914 130.742C330.812 128.844 329.375 127.445 327.109 127.445C324.602 127.445 323 129.117 323 131.805C323 134.539 324.602 136.18 327.125 136.18C329.328 136.18 330.805 134.906 330.922 132.93H328.797C328.656 133.844 328.062 134.391 327.148 134.391C326.016 134.391 325.312 133.453 325.312 131.805C325.312 130.188 326.016 129.234 327.141 129.234C328.078 129.234 328.664 129.859 328.797 130.742H330.914ZM331.883 130.086C331.883 131.344 332.703 132.156 334.32 132.5L335.75 132.797C336.57 132.984 336.859 133.234 336.859 133.68C336.859 134.227 336.328 134.578 335.469 134.578C334.562 134.578 334.039 134.188 333.898 133.453H331.672C331.82 135.102 333.156 136.18 335.469 136.18C337.625 136.18 339.133 135.094 339.133 133.445C339.133 132.219 338.414 131.531 336.664 131.164L335.234 130.859C334.391 130.68 334.078 130.391 334.078 129.961C334.078 129.406 334.602 129.047 335.391 129.047C336.234 129.047 336.742 129.508 336.812 130.188H338.914C338.867 128.547 337.539 127.445 335.391 127.445C333.258 127.445 331.883 128.492 331.883 130.086Z" fill="white"/>
<path d="M240.5 133C242.157 133 243.5 131.657 243.5 130C243.5 128.343 242.157 127 240.5 127C238.843 127 237.5 128.343 237.5 130C237.5 131.657 238.843 133 240.5 133Z" fill="white"/>
<path d="M382.5 133C384.157 133 385.5 131.657 385.5 130C385.5 128.343 384.157 127 382.5 127C380.843 127 379.5 128.343 379.5 130C379.5 131.657 380.843 133 382.5 133Z" fill="white"/>
<g filter="url(#filter4_di_926_13470)">
<path d="M378.5 164H244.5C242.291 164 240.5 165.791 240.5 168V188C240.5 190.209 242.291 192 244.5 192H378.5C380.709 192 382.5 190.209 382.5 188V168C382.5 165.791 380.709 164 378.5 164Z" fill="#1E2631"/>
<path d="M378.5 164.5H244.5C242.567 164.5 241 166.067 241 168V188C241 189.933 242.567 191.5 244.5 191.5H378.5C380.433 191.5 382 189.933 382 188V168C382 166.067 380.433 164.5 378.5 164.5Z" stroke="white"/>
</g>
<path d="M277.438 172.727V184H281.742C285.125 184 287.117 181.898 287.117 178.32C287.117 174.742 285.125 172.727 281.742 172.727H277.438ZM279.797 174.672H281.461C283.539 174.672 284.711 175.969 284.711 178.328C284.711 180.766 283.57 182.047 281.461 182.047H279.797V174.672ZM290.883 184.133C291.93 184.133 292.968 183.609 293.438 182.719H293.484V184H295.688V178.242C295.688 176.555 294.289 175.445 292.141 175.445C289.922 175.445 288.539 176.562 288.453 178.188H290.539C290.648 177.57 291.188 177.148 292.039 177.148C292.898 177.148 293.445 177.602 293.445 178.383V178.938L291.336 179.062C289.25 179.188 288.078 180.07 288.078 181.594C288.078 183.102 289.289 184.133 290.883 184.133ZM291.633 182.484C290.859 182.484 290.344 182.094 290.344 181.469C290.344 180.875 290.828 180.492 291.68 180.43L293.445 180.32V180.93C293.445 181.836 292.625 182.484 291.633 182.484ZM297.773 173.695V175.625H296.594V177.344H297.773V181.742C297.773 183.375 298.539 184.031 300.508 184.031C300.969 184.031 301.359 183.992 301.594 183.938V182.258C301.453 182.281 301.242 182.297 301.039 182.297C300.367 182.297 300.055 181.992 300.055 181.352V177.344H301.602V175.625H300.055V173.695H297.773ZM305.258 184.133C306.305 184.133 307.344 183.609 307.812 182.719H307.859V184H310.062V178.242C310.062 176.555 308.664 175.445 306.516 175.445C304.297 175.445 302.914 176.562 302.828 178.188H304.914C305.023 177.57 305.562 177.148 306.414 177.148C307.273 177.148 307.82 177.602 307.82 178.383V178.938L305.711 179.062C303.625 179.188 302.453 180.07 302.453 181.594C302.453 183.102 303.664 184.133 305.258 184.133ZM306.008 182.484C305.234 182.484 304.719 182.094 304.719 181.469C304.719 180.875 305.203 180.492 306.055 180.43L307.82 180.32V180.93C307.82 181.836 307 182.484 306.008 182.484ZM316.516 184.133C318.625 184.133 319.914 182.508 319.914 179.812C319.914 177.109 318.617 175.492 316.508 175.492C315.312 175.492 314.383 176.086 313.922 177.078H313.875V172.727H311.594V184H313.844V182.562H313.891C314.352 183.539 315.289 184.133 316.516 184.133ZM315.727 177.32C316.859 177.32 317.578 178.289 317.578 179.812C317.578 181.344 316.867 182.297 315.727 182.297C314.617 182.297 313.867 181.328 313.867 179.812C313.867 178.312 314.625 177.32 315.727 177.32ZM323.586 184.133C324.633 184.133 325.672 183.609 326.141 182.719H326.188V184H328.391V178.242C328.391 176.555 326.992 175.445 324.844 175.445C322.625 175.445 321.242 176.562 321.156 178.188H323.242C323.352 177.57 323.891 177.148 324.742 177.148C325.602 177.148 326.148 177.602 326.148 178.383V178.938L324.039 179.062C321.953 179.188 320.781 180.07 320.781 181.594C320.781 183.102 321.992 184.133 323.586 184.133ZM324.336 182.484C323.562 182.484 323.047 182.094 323.047 181.469C323.047 180.875 323.531 180.492 324.383 180.43L326.148 180.32V180.93C326.148 181.836 325.328 182.484 324.336 182.484ZM329.727 178.086C329.727 179.344 330.547 180.156 332.164 180.5L333.594 180.797C334.414 180.984 334.703 181.234 334.703 181.68C334.703 182.227 334.172 182.578 333.312 182.578C332.406 182.578 331.883 182.188 331.742 181.453H329.516C329.664 183.102 331 184.18 333.312 184.18C335.469 184.18 336.977 183.094 336.977 181.445C336.977 180.219 336.258 179.531 334.508 179.164L333.078 178.859C332.234 178.68 331.922 178.391 331.922 177.961C331.922 177.406 332.445 177.047 333.234 177.047C334.078 177.047 334.586 177.508 334.656 178.188H336.758C336.711 176.547 335.383 175.445 333.234 175.445C331.102 175.445 329.727 176.492 329.727 178.086ZM343.648 181.438C343.438 182.078 342.797 182.492 341.961 182.492C340.797 182.492 340.039 181.672 340.039 180.477V180.336H345.812V179.641C345.812 177.094 344.273 175.445 341.836 175.445C339.359 175.445 337.797 177.18 337.797 179.852C337.797 182.531 339.344 184.18 341.922 184.18C343.992 184.18 345.492 183.078 345.742 181.438H343.648ZM341.859 177.133C342.875 177.133 343.57 177.867 343.617 178.938H340.062C340.141 177.891 340.859 177.133 341.859 177.133Z" fill="white"/>
<path d="M240.5 181C242.157 181 243.5 179.657 243.5 178C243.5 176.343 242.157 175 240.5 175C238.843 175 237.5 176.343 237.5 178C237.5 179.657 238.843 181 240.5 181Z" fill="white"/>
<path d="M382.5 181C384.157 181 385.5 179.657 385.5 178C385.5 176.343 384.157 175 382.5 175C380.843 175 379.5 176.343 379.5 178C379.5 179.657 380.843 181 382.5 181Z" fill="white"/>
<path d="M287.5 158C289.709 158 291.5 156.209 291.5 154C291.5 151.791 289.709 150 287.5 150C285.291 150 283.5 151.791 283.5 154C283.5 156.209 285.291 158 287.5 158Z" fill="white"/>
<path d="M311.5 158C313.709 158 315.5 156.209 315.5 154C315.5 151.791 313.709 150 311.5 150C309.291 150 307.5 151.791 307.5 154C307.5 156.209 309.291 158 311.5 158Z" fill="white"/>
<path d="M335.5 158C337.709 158 339.5 156.209 339.5 154C339.5 151.791 337.709 150 335.5 150C333.291 150 331.5 151.791 331.5 154C331.5 156.209 333.291 158 335.5 158Z" fill="white"/>
<path d="M393.5 4.5H229.5C225.358 4.5 222 7.85786 222 12V200C222 204.142 225.358 207.5 229.5 207.5H393.5C397.642 207.5 401 204.142 401 200V12C401 7.85786 397.642 4.5 393.5 4.5Z" stroke="white" stroke-linecap="round" stroke-linejoin="round" stroke-dasharray="12 12"/>
<g filter="url(#filter5_di_926_13470)">
<path d="M187.5 20H28.5C24.0817 20 20.5 23.5817 20.5 28V184C20.5 188.418 24.0817 192 28.5 192H187.5C191.918 192 195.5 188.418 195.5 184V28C195.5 23.5817 191.918 20 187.5 20Z" fill="#1E2631"/>
<path d="M187.5 20.5H28.5C24.3579 20.5 21 23.8579 21 28V184C21 188.142 24.3579 191.5 28.5 191.5H187.5C191.642 191.5 195 188.142 195 184V28C195 23.8579 191.642 20.5 187.5 20.5Z" stroke="white"/>
</g>
<path d="M195.5 109C197.157 109 198.5 107.657 198.5 106C198.5 104.343 197.157 103 195.5 103C193.843 103 192.5 104.343 192.5 106C192.5 107.657 193.843 109 195.5 109Z" fill="white"/>
<path d="M20.5 28C20.5 23.5817 24.0817 20 28.5 20H187.5C191.918 20 195.5 23.5817 195.5 28V52H20.5V28Z" fill="white"/>
<path d="M73.4922 42V32.6719H76.7578V30.7266H67.875V32.6719H71.1328V42H73.4922ZM81.5703 39.4375C81.3594 40.0781 80.7188 40.4922 79.8828 40.4922C78.7188 40.4922 77.9609 39.6719 77.9609 38.4766V38.3359H83.7344V37.6406C83.7344 35.0938 82.1953 33.4453 79.7578 33.4453C77.2812 33.4453 75.7188 35.1797 75.7188 37.8516C75.7188 40.5312 77.2656 42.1797 79.8438 42.1797C81.9141 42.1797 83.4141 41.0781 83.6641 39.4375H81.5703ZM79.7812 35.1328C80.7969 35.1328 81.4922 35.8672 81.5391 36.9375H77.9844C78.0625 35.8906 78.7812 35.1328 79.7812 35.1328ZM92.5234 36.7422C92.4219 34.8438 90.9844 33.4453 88.7188 33.4453C86.2109 33.4453 84.6094 35.1172 84.6094 37.8047C84.6094 40.5391 86.2109 42.1797 88.7344 42.1797C90.9375 42.1797 92.4141 40.9062 92.5312 38.9297H90.4062C90.2656 39.8438 89.6719 40.3906 88.7578 40.3906C87.625 40.3906 86.9219 39.4531 86.9219 37.8047C86.9219 36.1875 87.625 35.2344 88.75 35.2344C89.6875 35.2344 90.2734 35.8594 90.4062 36.7422H92.5234ZM93.6875 42H95.9688V37.2188C95.9688 36.1172 96.6016 35.3594 97.6797 35.3594C98.7188 35.3594 99.25 36.0156 99.25 37.0938V42H101.531V36.6094C101.531 34.6719 100.469 33.4688 98.6094 33.4688C97.3359 33.4688 96.4219 34.0625 95.9766 35.1172H95.9297V30.7266H93.6875V42ZM102.992 42H105.273V37.1953C105.273 36.1094 105.922 35.3594 106.945 35.3594C107.969 35.3594 108.484 35.9844 108.484 37.0781V42H110.766V36.6016C110.766 34.6406 109.719 33.4688 107.859 33.4688C106.57 33.4688 105.688 34.0781 105.242 35.1172H105.195V33.625H102.992V42ZM116.055 42.1797C118.586 42.1797 120.203 40.5625 120.203 37.8047C120.203 35.0859 118.562 33.4453 116.055 33.4453C113.547 33.4453 111.906 35.0938 111.906 37.8047C111.906 40.5547 113.523 42.1797 116.055 42.1797ZM116.055 40.4375C114.93 40.4375 114.219 39.4922 114.219 37.8125C114.219 36.1484 114.945 35.1875 116.055 35.1875C117.164 35.1875 117.883 36.1484 117.883 37.8125C117.883 39.4922 117.172 40.4375 116.055 40.4375ZM121.438 42H123.719V30.7266H121.438V42ZM129.102 42.1797C131.633 42.1797 133.25 40.5625 133.25 37.8047C133.25 35.0859 131.609 33.4453 129.102 33.4453C126.594 33.4453 124.953 35.0938 124.953 37.8047C124.953 40.5547 126.57 42.1797 129.102 42.1797ZM129.102 40.4375C127.977 40.4375 127.266 39.4922 127.266 37.8125C127.266 36.1484 127.992 35.1875 129.102 35.1875C130.211 35.1875 130.93 36.1484 130.93 37.8125C130.93 39.4922 130.219 40.4375 129.102 40.4375ZM138.258 45.1562C140.766 45.1562 142.438 43.875 142.438 41.8828V33.625H140.188V35.0859H140.148C139.711 34.125 138.766 33.4922 137.562 33.4922C135.438 33.4922 134.125 35.125 134.125 37.7812C134.125 40.3984 135.477 41.9766 137.523 41.9766C138.734 41.9766 139.719 41.3672 140.109 40.4766H140.156V41.9453C140.156 42.9141 139.5 43.5625 138.32 43.5625C137.453 43.5625 136.797 43.1719 136.617 42.5938H134.383C134.562 44.0859 136.055 45.1562 138.258 45.1562ZM138.297 40.2188C137.164 40.2188 136.461 39.3281 136.461 37.7969C136.461 36.2734 137.172 35.3203 138.297 35.3203C139.438 35.3203 140.164 36.2891 140.164 37.7969C140.164 39.3125 139.438 40.2188 138.297 40.2188ZM145.008 45.1016C147.141 45.1016 148.195 44.3281 148.906 42.1797L151.789 33.625H149.383L147.609 40.1719H147.562L145.781 33.625H143.281L146.195 42C146.203 42.0391 146.117 42.3672 146.117 42.4062C145.961 43.0703 145.547 43.3359 144.719 43.3359C144.633 43.3359 144.219 43.3281 144.141 43.3125V45.0781C144.219 45.0938 144.922 45.1016 145.008 45.1016Z" fill="#1E2631"/>
<path d="M83.125 86V74.7266H80.7969L77.3438 83.3281H77.2812L73.8281 74.7266H71.4922V86H73.3125V78H73.3672L76.625 86H78L81.2578 78H81.3125V86H83.125ZM85.9375 76.4688C86.5312 76.4688 87 75.9922 87 75.4141C87 74.8281 86.5312 74.3594 85.9375 74.3594C85.3438 74.3594 84.8672 74.8281 84.8672 75.4141C84.8672 75.9922 85.3438 76.4688 85.9375 76.4688ZM84.9688 86H86.9141V77.7188H84.9688V86ZM95.8438 80.6719C95.7109 78.9297 94.3594 77.5469 92.1719 77.5469C89.7656 77.5469 88.2031 79.2109 88.2031 81.8594C88.2031 84.5469 89.7656 86.1641 92.1875 86.1641C94.2656 86.1641 95.6953 84.9453 95.8516 83.0938H94.0156C93.8359 84.0312 93.1953 84.5938 92.2109 84.5938C90.9766 84.5938 90.1797 83.5938 90.1797 81.8594C90.1797 80.1562 90.9688 79.125 92.1953 79.125C93.2344 79.125 93.8516 79.7891 94.0078 80.6719H95.8438ZM97.0156 86H98.9609V81.1797C98.9609 80.0156 99.625 79.3047 100.727 79.3047C101.055 79.3047 101.352 79.3516 101.516 79.4141V77.6562C101.375 77.625 101.156 77.5781 100.906 77.5781C99.9297 77.5781 99.2031 78.1562 98.9219 79.1641H98.8828V77.7188H97.0156V86ZM105.867 86.1641C108.297 86.1641 109.875 84.5469 109.875 81.8594C109.875 79.1797 108.281 77.5469 105.867 77.5469C103.453 77.5469 101.859 79.1875 101.859 81.8594C101.859 84.5469 103.438 86.1641 105.867 86.1641ZM105.867 84.625C104.633 84.625 103.836 83.625 103.836 81.8594C103.836 80.1016 104.641 79.0938 105.867 79.0938C107.102 79.0938 107.898 80.1016 107.898 81.8594C107.898 83.625 107.102 84.625 105.867 84.625ZM111.125 86H113.07V81.2031C113.07 80.0156 113.781 79.2109 114.898 79.2109C116.008 79.2109 116.555 79.8672 116.555 81.0391V86H118.5V80.6484C118.5 78.7344 117.461 77.5625 115.633 77.5625C114.359 77.5625 113.477 78.1562 113.031 79.1406H112.992V77.7188H111.125V86ZM122.5 86.1328C123.562 86.1328 124.602 85.5781 125.078 84.6797H125.117V86H126.992V80.2969C126.992 78.6328 125.656 77.5469 123.602 77.5469C121.492 77.5469 120.172 78.6562 120.086 80.2031H121.891C122.016 79.5156 122.602 79.0703 123.523 79.0703C124.484 79.0703 125.07 79.5703 125.07 80.4375V81.0312L122.883 81.1562C120.867 81.2812 119.734 82.1641 119.734 83.6328C119.734 85.125 120.898 86.1328 122.5 86.1328ZM123.086 84.6641C122.242 84.6641 121.68 84.2344 121.68 83.5547C121.68 82.8984 122.219 82.4766 123.156 82.4141L125.07 82.2969V82.9297C125.07 83.9297 124.188 84.6641 123.086 84.6641ZM135.906 77.7188H133.961V82.5078C133.961 83.7109 133.266 84.5078 132.141 84.5078C131.047 84.5078 130.469 83.8672 130.469 82.6797V77.7188H128.523V83.0703C128.523 84.9844 129.664 86.1484 131.461 86.1484C132.719 86.1484 133.555 85.5703 133.992 84.5625H134.031V86H135.906V77.7188ZM138.039 75.7812V77.7188H136.852V79.2188H138.039V83.7969C138.039 85.4062 138.742 86.0391 140.531 86.0391C140.945 86.0391 141.328 86.0078 141.539 85.9609V84.4766C141.414 84.5 141.164 84.5156 140.984 84.5156C140.297 84.5156 139.984 84.2031 139.984 83.5234V79.2188H141.547V77.7188H139.984V75.7812H138.039Z" fill="white"/>
<path d="M39.7734 119.297V118.094H35.0859V119.633H37.8047L37.7969 119.82C37.7656 121.398 36.5859 122.477 34.8828 122.477C32.8516 122.477 31.5859 120.891 31.5859 118.297C31.5859 115.758 32.7969 114.25 34.8281 114.25C36.2109 114.25 37.2578 115.016 37.6406 116.312H39.6875C39.3203 114.055 37.3828 112.539 34.8203 112.539C31.5625 112.539 29.5234 114.742 29.5234 118.32C29.5234 121.953 31.5703 124.188 34.8594 124.188C37.9453 124.188 39.7734 122.352 39.7734 119.297ZM41.2266 124H43.1719V119.18C43.1719 118.016 43.8359 117.305 44.9375 117.305C45.2656 117.305 45.5625 117.352 45.7266 117.414V115.656C45.5859 115.625 45.3672 115.578 45.1172 115.578C44.1406 115.578 43.4141 116.156 43.1328 117.164H43.0938V115.719H41.2266V124ZM48.9766 124.133C50.0391 124.133 51.0781 123.578 51.5547 122.68H51.5938V124H53.4688V118.297C53.4688 116.633 52.1328 115.547 50.0781 115.547C47.9688 115.547 46.6484 116.656 46.5625 118.203H48.3672C48.4922 117.516 49.0781 117.07 50 117.07C50.9609 117.07 51.5469 117.57 51.5469 118.438V119.031L49.3594 119.156C47.3438 119.281 46.2109 120.164 46.2109 121.633C46.2109 123.125 47.375 124.133 48.9766 124.133ZM49.5625 122.664C48.7188 122.664 48.1562 122.234 48.1562 121.555C48.1562 120.898 48.6953 120.477 49.6328 120.414L51.5469 120.297V120.93C51.5469 121.93 50.6641 122.664 49.5625 122.664ZM57.4766 124.133C58.5391 124.133 59.5781 123.578 60.0547 122.68H60.0938V124H61.9688V118.297C61.9688 116.633 60.6328 115.547 58.5781 115.547C56.4688 115.547 55.1484 116.656 55.0625 118.203H56.8672C56.9922 117.516 57.5781 117.07 58.5 117.07C59.4609 117.07 60.0469 117.57 60.0469 118.438V119.031L57.8594 119.156C55.8438 119.281 54.7109 120.164 54.7109 121.633C54.7109 123.125 55.875 124.133 57.4766 124.133ZM58.0625 122.664C57.2188 122.664 56.6562 122.234 56.6562 121.555C56.6562 120.898 57.1953 120.477 58.1328 120.414L60.0469 120.297V120.93C60.0469 121.93 59.1641 122.664 58.0625 122.664ZM63.5938 124H65.5391V112.727H63.5938V124ZM72.8438 124L76.7656 112.727H74.5938L71.7344 121.836H71.6875L68.8281 112.727H66.6094L70.5312 124H72.8438ZM89.6016 124V112.727H87.2734L83.8203 121.328H83.7578L80.3047 112.727H77.9688V124H79.7891V116H79.8438L83.1016 124H84.4766L87.7344 116H87.7891V124H89.6016ZM96.7422 124V116.094H96.8125L102.414 124H104.148V112.727H102.211V120.625H102.141L96.5469 112.727H94.7969V124H96.7422ZM108.18 124.133C109.242 124.133 110.281 123.578 110.758 122.68H110.797V124H112.672V118.297C112.672 116.633 111.336 115.547 109.281 115.547C107.172 115.547 105.852 116.656 105.766 118.203H107.57C107.695 117.516 108.281 117.07 109.203 117.07C110.164 117.07 110.75 117.57 110.75 118.438V119.031L108.562 119.156C106.547 119.281 105.414 120.164 105.414 121.633C105.414 123.125 106.578 124.133 108.18 124.133ZM108.766 122.664C107.922 122.664 107.359 122.234 107.359 121.555C107.359 120.898 107.898 120.477 108.836 120.414L110.75 120.297V120.93C110.75 121.93 109.867 122.664 108.766 122.664ZM114.781 113.781V115.719H113.594V117.219H114.781V121.797C114.781 123.406 115.484 124.039 117.273 124.039C117.688 124.039 118.07 124.008 118.281 123.961V122.477C118.156 122.5 117.906 122.516 117.727 122.516C117.039 122.516 116.727 122.203 116.727 121.523V117.219H118.289V115.719H116.727V113.781H114.781ZM120.633 114.469C121.227 114.469 121.695 113.992 121.695 113.414C121.695 112.828 121.227 112.359 120.633 112.359C120.039 112.359 119.562 112.828 119.562 113.414C119.562 113.992 120.039 114.469 120.633 114.469ZM119.664 124H121.609V115.719H119.664V124ZM130.531 115.719H128.5L126.578 122.195H126.539L124.617 115.719H122.539L125.477 124H127.617L130.531 115.719ZM136.68 121.523C136.469 122.211 135.781 122.664 134.875 122.664C133.602 122.664 132.789 121.773 132.789 120.445V120.328H138.578V119.695C138.578 117.18 137.109 115.547 134.758 115.547C132.367 115.547 130.852 117.273 130.852 119.891C130.852 122.531 132.352 124.164 134.836 124.164C136.797 124.164 138.25 123.086 138.5 121.523H136.68ZM134.766 117.055C135.883 117.055 136.633 117.875 136.672 119.047H132.805C132.883 117.891 133.672 117.055 134.766 117.055ZM145.25 124V112.727H143.234V124H145.25ZM147.039 124H148.984V118.93C148.984 117.93 149.641 117.203 150.578 117.203C151.484 117.203 152.047 117.773 152.047 118.695V124H153.938V118.883C153.938 117.891 154.578 117.203 155.516 117.203C156.469 117.203 157 117.781 157 118.797V124H158.945V118.32C158.945 116.664 157.875 115.562 156.242 115.562C155.047 115.562 154.062 116.203 153.664 117.227H153.617C153.312 116.164 152.477 115.562 151.305 115.562C150.18 115.562 149.305 116.195 148.945 117.156H148.906V115.719H147.039V124ZM162.945 124.133C164.008 124.133 165.047 123.578 165.523 122.68H165.562V124H167.438V118.297C167.438 116.633 166.102 115.547 164.047 115.547C161.938 115.547 160.617 116.656 160.531 118.203H162.336C162.461 117.516 163.047 117.07 163.969 117.07C164.93 117.07 165.516 117.57 165.516 118.438V119.031L163.328 119.156C161.312 119.281 160.18 120.164 160.18 121.633C160.18 123.125 161.344 124.133 162.945 124.133ZM163.531 122.664C162.688 122.664 162.125 122.234 162.125 121.555C162.125 120.898 162.664 120.477 163.602 120.414L165.516 120.297V120.93C165.516 121.93 164.633 122.664 163.531 122.664ZM172.656 127.125C175.07 127.125 176.656 125.844 176.656 123.867V115.719H174.75V117.141H174.719C174.242 116.188 173.289 115.578 172.109 115.578C169.992 115.578 168.664 117.211 168.664 119.828C168.664 122.406 170.023 124.008 172.07 124.008C173.258 124.008 174.234 123.414 174.664 122.523H174.711V123.922C174.711 124.977 173.984 125.688 172.719 125.688C171.797 125.688 171.086 125.258 170.875 124.625H168.945C169.141 126.078 170.609 127.125 172.656 127.125ZM172.664 122.461C171.438 122.461 170.656 121.477 170.656 119.836C170.656 118.211 171.438 117.18 172.664 117.18C173.906 117.18 174.711 118.227 174.711 119.836C174.711 121.453 173.906 122.461 172.664 122.461ZM183.727 121.523C183.516 122.211 182.828 122.664 181.922 122.664C180.648 122.664 179.836 121.773 179.836 120.445V120.328H185.625V119.695C185.625 117.18 184.156 115.547 181.805 115.547C179.414 115.547 177.898 117.273 177.898 119.891C177.898 122.531 179.398 124.164 181.883 124.164C183.844 124.164 185.297 123.086 185.547 121.523H183.727ZM181.812 117.055C182.93 117.055 183.68 117.875 183.719 119.047H179.852C179.93 117.891 180.719 117.055 181.812 117.055Z" fill="white"/>
<path d="M85.5 160C87.7091 160 89.5 158.209 89.5 156C89.5 153.791 87.7091 152 85.5 152C83.2909 152 81.5 153.791 81.5 156C81.5 158.209 83.2909 160 85.5 160Z" fill="white"/>
<path d="M109.5 160C111.709 160 113.5 158.209 113.5 156C113.5 153.791 111.709 152 109.5 152C107.291 152 105.5 153.791 105.5 156C105.5 158.209 107.291 160 109.5 160Z" fill="white"/>
<path d="M133.5 160C135.709 160 137.5 158.209 137.5 156C137.5 153.791 135.709 152 133.5 152C131.291 152 129.5 153.791 129.5 156C129.5 158.209 131.291 160 133.5 160Z" fill="white"/>
<g filter="url(#filter6_di_926_13470)">
<path d="M650.5 20H437.5C433.082 20 429.5 23.5817 429.5 28V184C429.5 188.418 433.082 192 437.5 192H650.5C654.918 192 658.5 188.418 658.5 184V28C658.5 23.5817 654.918 20 650.5 20Z" fill="#1E2631"/>
<path d="M650.5 20.5H437.5C433.358 20.5 430 23.8579 430 28V184C430 188.142 433.358 191.5 437.5 191.5H650.5C654.642 191.5 658 188.142 658 184V28C658 23.8579 654.642 20.5 650.5 20.5Z" stroke="white"/>
</g>
<path d="M429.5 109C431.157 109 432.5 107.657 432.5 106C432.5 104.343 431.157 103 429.5 103C427.843 103 426.5 104.343 426.5 106C426.5 107.657 427.843 109 429.5 109Z" fill="white"/>
<path d="M429.5 28C429.5 23.5817 433.082 20 437.5 20H650.5C654.918 20 658.5 23.5817 658.5 28V52H429.5V28Z" fill="white"/>
<path d="M497.438 30.7266V42H499.797V38.4453H501.906C504.281 38.4453 505.93 36.8984 505.93 34.5859C505.93 32.2656 504.336 30.7266 502.023 30.7266H497.438ZM499.797 32.5938H501.398C502.75 32.5938 503.531 33.3125 503.531 34.5938C503.531 35.8828 502.742 36.6016 501.391 36.6016H499.797V32.5938ZM514.867 33.625H512.586V38.4219C512.586 39.5312 511.952 40.2578 510.938 40.2578C509.929 40.2578 509.375 39.6641 509.375 38.5469V33.625H507.094V39.0234C507.094 40.9766 508.297 42.1562 510.109 42.1562C511.375 42.1562 512.203 41.5469 512.617 40.4922H512.664V42H514.867V33.625ZM521.328 42.1328C523.438 42.1328 524.727 40.5078 524.727 37.8125C524.727 35.1094 523.43 33.4922 521.32 33.4922C520.125 33.4922 519.195 34.0859 518.734 35.0781H518.688V30.7266H516.406V42H518.656V40.5625H518.703C519.164 41.5391 520.102 42.1328 521.328 42.1328ZM520.539 35.3203C521.672 35.3203 522.391 36.2891 522.391 37.8125C522.391 39.3438 521.68 40.2969 520.539 40.2969C519.43 40.2969 518.68 39.3281 518.68 37.8125C518.68 36.3125 519.438 35.3203 520.539 35.3203ZM525.969 42H528.25V30.7266H525.969V42ZM530.961 32.4922C531.625 32.4922 532.148 31.9609 532.148 31.3203C532.148 30.6719 531.625 30.1484 530.961 30.1484C530.297 30.1484 529.773 30.6719 529.773 31.3203C529.773 31.9609 530.297 32.4922 530.961 32.4922ZM529.828 42H532.109V33.625H529.828V42ZM541.242 36.7422C541.141 34.8438 539.703 33.4453 537.438 33.4453C534.93 33.4453 533.328 35.1172 533.328 37.8047C533.328 40.5391 534.93 42.1797 537.453 42.1797C539.656 42.1797 541.133 40.9062 541.25 38.9297H539.125C538.984 39.8438 538.391 40.3906 537.477 40.3906C536.344 40.3906 535.641 39.4531 535.641 37.8047C535.641 36.1875 536.344 35.2344 537.469 35.2344C538.406 35.2344 538.992 35.8594 539.125 36.7422H541.242ZM550.703 42.1875C553.469 42.1875 555.398 40.6016 555.664 38.0859H553.367C553.117 39.4219 552.109 40.2422 550.711 40.2422C548.906 40.2422 547.773 38.7578 547.773 36.3516C547.773 33.9766 548.922 32.4844 550.703 32.4844C552.078 32.4844 553.141 33.3906 553.359 34.7734H555.656C555.477 32.25 553.414 30.5312 550.703 30.5312C547.438 30.5312 545.367 32.7266 545.367 36.3594C545.367 40 547.422 42.1875 550.703 42.1875ZM556.984 42H559.266V30.7266H556.984V42ZM564.648 42.1797C567.18 42.1797 568.797 40.5625 568.797 37.8047C568.797 35.0859 567.156 33.4453 564.648 33.4453C562.141 33.4453 560.5 35.0938 560.5 37.8047C560.5 40.5547 562.117 42.1797 564.648 42.1797ZM564.648 40.4375C563.523 40.4375 562.812 39.4922 562.812 37.8125C562.812 36.1484 563.539 35.1875 564.648 35.1875C565.758 35.1875 566.477 36.1484 566.477 37.8125C566.477 39.4922 565.766 40.4375 564.648 40.4375ZM577.711 33.625H575.43V38.4219C575.43 39.5312 574.797 40.2578 573.781 40.2578C572.773 40.2578 572.219 39.6641 572.219 38.5469V33.625H569.938V39.0234C569.938 40.9766 571.141 42.1562 572.953 42.1562C574.219 42.1562 575.047 41.5469 575.461 40.4922H575.508V42H577.711V33.625ZM582.305 42.1328C583.539 42.1328 584.508 41.4844 584.914 40.5625H584.953V42H587.203V30.7266H584.922V35.0625H584.875C584.469 34.1328 583.531 33.4922 582.32 33.4922C580.219 33.4922 578.891 35.1406 578.891 37.7969C578.891 40.4766 580.211 42.1328 582.305 42.1328ZM583.078 35.3203C584.211 35.3203 584.938 36.2891 584.938 37.8125C584.938 39.3438 584.211 40.2969 583.078 40.2969C581.93 40.2969 581.227 39.3516 581.227 37.8125C581.227 36.2812 581.93 35.3203 583.078 35.3203Z" fill="#1E2631"/>
<path d="M452.461 74.5391C449.172 74.5391 447.109 76.7812 447.109 80.3672C447.109 83.9531 449.172 86.1875 452.461 86.1875C455.742 86.1875 457.805 83.9531 457.805 80.3672C457.805 76.7812 455.742 74.5391 452.461 74.5391ZM452.461 76.2578C454.469 76.2578 455.75 77.8516 455.75 80.3672C455.75 82.875 454.469 84.4688 452.461 84.4688C450.445 84.4688 449.172 82.875 449.172 80.3672C449.172 77.8516 450.445 76.2578 452.461 76.2578ZM459.219 86H461.164V81.1797C461.164 80.0156 461.828 79.3047 462.93 79.3047C463.258 79.3047 463.555 79.3516 463.719 79.4141V77.6562C463.578 77.625 463.359 77.5781 463.109 77.5781C462.133 77.5781 461.406 78.1562 461.125 79.1641H461.086V77.7188H459.219V86ZM466.969 86.1328C468.031 86.1328 469.07 85.5781 469.547 84.6797H469.586V86H471.461V80.2969C471.461 78.6328 470.125 77.5469 468.07 77.5469C465.961 77.5469 464.641 78.6562 464.555 80.2031H466.359C466.484 79.5156 467.07 79.0703 467.992 79.0703C468.953 79.0703 469.539 79.5703 469.539 80.4375V81.0312L467.352 81.1562C465.336 81.2812 464.203 82.1641 464.203 83.6328C464.203 85.125 465.367 86.1328 466.969 86.1328ZM467.555 84.6641C466.711 84.6641 466.148 84.2344 466.148 83.5547C466.148 82.8984 466.688 82.4766 467.625 82.4141L469.539 82.2969V82.9297C469.539 83.9297 468.656 84.6641 467.555 84.6641ZM480.328 80.6719C480.195 78.9297 478.844 77.5469 476.656 77.5469C474.25 77.5469 472.688 79.2109 472.688 81.8594C472.688 84.5469 474.25 86.1641 476.672 86.1641C478.75 86.1641 480.18 84.9453 480.336 83.0938H478.5C478.32 84.0312 477.68 84.5938 476.695 84.5938C475.461 84.5938 474.664 83.5938 474.664 81.8594C474.664 80.1562 475.453 79.125 476.68 79.125C477.719 79.125 478.336 79.7891 478.492 80.6719H480.328ZM481.555 86H483.5V74.7266H481.555V86ZM490.641 83.5234C490.43 84.2109 489.742 84.6641 488.836 84.6641C487.562 84.6641 486.75 83.7734 486.75 82.4453V82.3281H492.539V81.6953C492.539 79.1797 491.07 77.5469 488.719 77.5469C486.328 77.5469 484.812 79.2734 484.812 81.8906C484.812 84.5312 486.312 86.1641 488.797 86.1641C490.758 86.1641 492.211 85.0859 492.461 83.5234H490.641ZM488.727 79.0547C489.844 79.0547 490.594 79.875 490.633 81.0469H486.766C486.844 79.8906 487.633 79.0547 488.727 79.0547ZM502.055 86.1875C504.719 86.1875 506.562 84.7266 506.914 82.3125H504.938C504.625 83.6719 503.555 84.4766 502.062 84.4766C500.109 84.4766 498.875 82.8906 498.875 80.3594C498.875 77.8438 500.117 76.25 502.055 76.25C503.516 76.25 504.664 77.1797 504.93 78.5938H506.914C506.664 76.1719 504.672 74.5391 502.055 74.5391C498.852 74.5391 496.812 76.7656 496.812 80.3594C496.812 83.9766 498.836 86.1875 502.055 86.1875ZM508.305 86H510.25V74.7266H508.305V86ZM515.57 86.1641C518 86.1641 519.578 84.5469 519.578 81.8594C519.578 79.1797 517.984 77.5469 515.57 77.5469C513.156 77.5469 511.562 79.1875 511.562 81.8594C511.562 84.5469 513.141 86.1641 515.57 86.1641ZM515.57 84.625C514.336 84.625 513.539 83.625 513.539 81.8594C513.539 80.1016 514.344 79.0938 515.57 79.0938C516.805 79.0938 517.602 80.1016 517.602 81.8594C517.602 83.625 516.805 84.625 515.57 84.625ZM528.172 77.7188H526.227V82.5078C526.227 83.7109 525.531 84.5078 524.406 84.5078C523.312 84.5078 522.734 83.8672 522.734 82.6797V77.7188H520.789V83.0703C520.789 84.9844 521.93 86.1484 523.727 86.1484C524.984 86.1484 525.82 85.5703 526.258 84.5625H526.297V86H528.172V77.7188ZM532.859 86.1328C534.07 86.1328 535.023 85.5156 535.477 84.5859H535.508V86H537.414V74.7266H535.469V79.1094H535.422C534.984 78.1953 534.047 77.5781 532.859 77.5781C530.773 77.5781 529.422 79.2344 529.422 81.8516C529.422 84.4844 530.773 86.1328 532.859 86.1328ZM533.445 79.1797C534.672 79.1797 535.477 80.2344 535.477 81.8594C535.477 83.5 534.672 84.5391 533.445 84.5391C532.188 84.5391 531.414 83.5078 531.414 81.8594C531.414 80.2188 532.195 79.1797 533.445 79.1797ZM544.461 86V74.7266H542.445V86H544.461ZM546.25 86H548.195V81.2031C548.195 80.0156 548.906 79.2109 550.023 79.2109C551.133 79.2109 551.68 79.8672 551.68 81.0391V86H553.625V80.6484C553.625 78.7344 552.586 77.5625 550.758 77.5625C549.484 77.5625 548.602 78.1562 548.156 79.1406H548.117V77.7188H546.25V86ZM555.727 86H557.672V79.2188H559.297V77.7422H557.641V77.0625C557.641 76.3906 557.977 76.0391 558.719 76.0391C558.945 76.0391 559.172 76.0625 559.336 76.0859V74.7266C559.094 74.6797 558.672 74.6406 558.289 74.6406C556.492 74.6406 555.727 75.3984 555.727 77.0078V77.7422H554.594V79.2188H555.727V86ZM560.578 86H562.523V81.1797C562.523 80.0156 563.188 79.3047 564.289 79.3047C564.617 79.3047 564.914 79.3516 565.078 79.4141V77.6562C564.938 77.625 564.719 77.5781 564.469 77.5781C563.492 77.5781 562.766 78.1562 562.484 79.1641H562.445V77.7188H560.578V86ZM568.328 86.1328C569.391 86.1328 570.43 85.5781 570.906 84.6797H570.945V86H572.82V80.2969C572.82 78.6328 571.484 77.5469 569.43 77.5469C567.32 77.5469 566 78.6562 565.914 80.2031H567.719C567.844 79.5156 568.43 79.0703 569.352 79.0703C570.312 79.0703 570.898 79.5703 570.898 80.4375V81.0312L568.711 81.1562C566.695 81.2812 565.562 82.1641 565.562 83.6328C565.562 85.125 566.727 86.1328 568.328 86.1328ZM568.914 84.6641C568.07 84.6641 567.508 84.2344 567.508 83.5547C567.508 82.8984 568.047 82.4766 568.984 82.4141L570.898 82.2969V82.9297C570.898 83.9297 570.016 84.6641 568.914 84.6641ZM574.242 80.0938C574.242 81.3203 575.039 82.1016 576.625 82.4531L578 82.7578C578.867 82.9531 579.164 83.2344 579.164 83.7344C579.164 84.3516 578.578 84.7422 577.633 84.7422C576.648 84.7422 576.094 84.3359 575.945 83.5312H574.031C574.188 85.1328 575.469 86.1641 577.633 86.1641C579.664 86.1641 581.102 85.1094 581.102 83.5469C581.102 82.3438 580.438 81.6797 578.719 81.2969L577.344 80.9922C576.477 80.7969 576.133 80.4688 576.133 79.9922C576.133 79.3828 576.703 78.9766 577.562 78.9766C578.461 78.9766 579.016 79.4531 579.094 80.2031H580.906C580.859 78.6328 579.578 77.5469 577.562 77.5469C575.562 77.5469 574.242 78.5781 574.242 80.0938ZM582.883 75.7812V77.7188H581.695V79.2188H582.883V83.7969C582.883 85.4062 583.586 86.0391 585.375 86.0391C585.789 86.0391 586.172 86.0078 586.383 85.9609V84.4766C586.258 84.5 586.008 84.5156 585.828 84.5156C585.141 84.5156 584.828 84.2031 584.828 83.5234V79.2188H586.391V77.7188H584.828V75.7812H582.883ZM587.719 86H589.664V81.1797C589.664 80.0156 590.328 79.3047 591.43 79.3047C591.758 79.3047 592.055 79.3516 592.219 79.4141V77.6562C592.078 77.625 591.859 77.5781 591.609 77.5781C590.633 77.5781 589.906 78.1562 589.625 79.1641H589.586V77.7188H587.719V86ZM600.562 77.7188H598.617V82.5078C598.617 83.7109 597.922 84.5078 596.797 84.5078C595.703 84.5078 595.125 83.8672 595.125 82.6797V77.7188H593.18V83.0703C593.18 84.9844 594.32 86.1484 596.117 86.1484C597.375 86.1484 598.211 85.5703 598.648 84.5625H598.688V86H600.562V77.7188ZM609.453 80.6719C609.32 78.9297 607.969 77.5469 605.781 77.5469C603.375 77.5469 601.812 79.2109 601.812 81.8594C601.812 84.5469 603.375 86.1641 605.797 86.1641C607.875 86.1641 609.305 84.9453 609.461 83.0938H607.625C607.445 84.0312 606.805 84.5938 605.82 84.5938C604.586 84.5938 603.789 83.5938 603.789 81.8594C603.789 80.1562 604.578 79.125 605.805 79.125C606.844 79.125 607.461 79.7891 607.617 80.6719H609.453ZM611.164 75.7812V77.7188H609.977V79.2188H611.164V83.7969C611.164 85.4062 611.867 86.0391 613.656 86.0391C614.07 86.0391 614.453 86.0078 614.664 85.9609V84.4766C614.539 84.5 614.289 84.5156 614.109 84.5156C613.422 84.5156 613.109 84.2031 613.109 83.5234V79.2188H614.672V77.7188H613.109V75.7812H611.164ZM623.344 77.7188H621.398V82.5078C621.398 83.7109 620.703 84.5078 619.578 84.5078C618.484 84.5078 617.906 83.8672 617.906 82.6797V77.7188H615.961V83.0703C615.961 84.9844 617.102 86.1484 618.898 86.1484C620.156 86.1484 620.992 85.5703 621.43 84.5625H621.469V86H623.344V77.7188ZM624.938 86H626.883V81.1797C626.883 80.0156 627.547 79.3047 628.648 79.3047C628.977 79.3047 629.273 79.3516 629.438 79.4141V77.6562C629.297 77.625 629.078 77.5781 628.828 77.5781C627.852 77.5781 627.125 78.1562 626.844 79.1641H626.805V77.7188H624.938V86ZM635.609 83.5234C635.398 84.2109 634.711 84.6641 633.805 84.6641C632.531 84.6641 631.719 83.7734 631.719 82.4453V82.3281H637.508V81.6953C637.508 79.1797 636.039 77.5469 633.688 77.5469C631.297 77.5469 629.781 79.2734 629.781 81.8906C629.781 84.5312 631.281 86.1641 633.766 86.1641C635.727 86.1641 637.18 85.0859 637.43 83.5234H635.609ZM633.695 79.0547C634.812 79.0547 635.562 79.875 635.602 81.0469H631.734C631.812 79.8906 632.602 79.0547 633.695 79.0547Z" fill="white"/>
<path d="M471.859 114H473.984L469.984 102.727H467.711L463.711 114H465.789L466.75 111.086H470.898L471.859 114ZM468.797 104.719H468.852L470.422 109.531H467.219L468.797 104.719ZM475 114H476.945V108.93C476.945 107.93 477.602 107.203 478.539 107.203C479.445 107.203 480.008 107.773 480.008 108.695V114H481.898V108.883C481.898 107.891 482.539 107.203 483.477 107.203C484.43 107.203 484.961 107.781 484.961 108.797V114H486.906V108.32C486.906 106.664 485.836 105.562 484.203 105.562C483.008 105.562 482.023 106.203 481.625 107.227H481.578C481.273 106.164 480.438 105.562 479.266 105.562C478.141 105.562 477.266 106.195 476.906 107.156H476.867V105.719H475V114ZM490.906 114.133C491.969 114.133 493.008 113.578 493.484 112.68H493.523V114H495.398V108.297C495.398 106.633 494.062 105.547 492.008 105.547C489.898 105.547 488.578 106.656 488.492 108.203H490.297C490.422 107.516 491.008 107.07 491.93 107.07C492.891 107.07 493.477 107.57 493.477 108.438V109.031L491.289 109.156C489.273 109.281 488.141 110.164 488.141 111.633C488.141 113.125 489.305 114.133 490.906 114.133ZM491.492 112.664C490.648 112.664 490.086 112.234 490.086 111.555C490.086 110.898 490.625 110.477 491.562 110.414L493.477 110.297V110.93C493.477 111.93 492.594 112.664 491.492 112.664ZM496.742 114H503.344V112.484H499.156V112.445L503.273 107V105.719H496.781V107.234H501.031V107.266L496.742 112.82V114ZM508.227 114.164C510.656 114.164 512.234 112.547 512.234 109.859C512.234 107.18 510.641 105.547 508.227 105.547C505.812 105.547 504.219 107.188 504.219 109.859C504.219 112.547 505.797 114.164 508.227 114.164ZM508.227 112.625C506.992 112.625 506.195 111.625 506.195 109.859C506.195 108.102 507 107.094 508.227 107.094C509.461 107.094 510.258 108.102 510.258 109.859C510.258 111.625 509.461 112.625 508.227 112.625ZM513.484 114H515.43V109.203C515.43 108.016 516.141 107.211 517.258 107.211C518.367 107.211 518.914 107.867 518.914 109.039V114H520.859V108.648C520.859 106.734 519.82 105.562 517.992 105.562C516.719 105.562 515.836 106.156 515.391 107.141H515.352V105.719H513.484V114ZM532.391 105.844H532.469L534.773 114H536.672L539.695 102.727H537.602L535.648 111.266H535.586L533.32 102.727H531.539L529.273 111.266H529.211L527.258 102.727H525.164L528.188 114H530.086L532.391 105.844ZM545.406 111.523C545.195 112.211 544.508 112.664 543.602 112.664C542.328 112.664 541.516 111.773 541.516 110.445V110.328H547.305V109.695C547.305 107.18 545.836 105.547 543.484 105.547C541.094 105.547 539.578 107.273 539.578 109.891C539.578 112.531 541.078 114.164 543.562 114.164C545.523 114.164 546.977 113.086 547.227 111.523H545.406ZM543.492 107.055C544.609 107.055 545.359 107.875 545.398 109.047H541.531C541.609 107.891 542.398 107.055 543.492 107.055ZM553.195 114.133C555.289 114.133 556.609 112.508 556.609 109.859C556.609 107.211 555.281 105.578 553.195 105.578C552.023 105.578 551.078 106.172 550.609 107.141H550.562V102.727H548.617V114H550.523V112.586H550.562C551.047 113.547 551.977 114.133 553.195 114.133ZM552.594 107.18C553.836 107.18 554.617 108.219 554.617 109.859C554.617 111.508 553.844 112.539 552.594 112.539C551.391 112.539 550.555 111.484 550.555 109.859C550.555 108.25 551.391 107.18 552.594 107.18ZM560.805 110.852C560.898 112.914 562.625 114.188 565.234 114.188C567.945 114.188 569.641 112.828 569.641 110.672C569.641 109 568.648 108.047 566.273 107.555L565.055 107.305C563.648 107.008 563.086 106.516 563.086 105.75C563.086 104.805 563.977 104.211 565.227 104.211C566.516 104.211 567.406 104.852 567.5 105.914H569.43C569.383 103.898 567.734 102.539 565.242 102.539C562.797 102.539 561.055 103.883 561.055 105.867C561.055 107.516 562.109 108.578 564.367 109.039L565.578 109.289C567.047 109.594 567.609 110.094 567.609 110.906C567.609 111.844 566.664 112.516 565.305 112.516C563.898 112.516 562.883 111.891 562.734 110.852H560.805ZM576.438 111.523C576.227 112.211 575.539 112.664 574.633 112.664C573.359 112.664 572.547 111.773 572.547 110.445V110.328H578.336V109.695C578.336 107.18 576.867 105.547 574.516 105.547C572.125 105.547 570.609 107.273 570.609 109.891C570.609 112.531 572.109 114.164 574.594 114.164C576.555 114.164 578.008 113.086 578.258 111.523H576.438ZM574.523 107.055C575.641 107.055 576.391 107.875 576.43 109.047H572.562C572.641 107.891 573.43 107.055 574.523 107.055ZM579.594 114H581.539V109.18C581.539 108.016 582.203 107.305 583.305 107.305C583.633 107.305 583.93 107.352 584.094 107.414V105.656C583.953 105.625 583.734 105.578 583.484 105.578C582.508 105.578 581.781 106.156 581.5 107.164H581.461V105.719H579.594V114ZM592.383 105.719H590.352L588.43 112.195H588.391L586.469 105.719H584.391L587.328 114H589.469L592.383 105.719ZM594.297 104.469C594.891 104.469 595.359 103.992 595.359 103.414C595.359 102.828 594.891 102.359 594.297 102.359C593.703 102.359 593.227 102.828 593.227 103.414C593.227 103.992 593.703 104.469 594.297 104.469ZM593.328 114H595.273V105.719H593.328V114ZM604.203 108.672C604.07 106.93 602.719 105.547 600.531 105.547C598.125 105.547 596.562 107.211 596.562 109.859C596.562 112.547 598.125 114.164 600.547 114.164C602.625 114.164 604.055 112.945 604.211 111.094H602.375C602.195 112.031 601.555 112.594 600.57 112.594C599.336 112.594 598.539 111.594 598.539 109.859C598.539 108.156 599.328 107.125 600.555 107.125C601.594 107.125 602.211 107.789 602.367 108.672H604.203ZM610.859 111.523C610.648 112.211 609.961 112.664 609.055 112.664C607.781 112.664 606.969 111.773 606.969 110.445V110.328H612.758V109.695C612.758 107.18 611.289 105.547 608.938 105.547C606.547 105.547 605.031 107.273 605.031 109.891C605.031 112.531 606.531 114.164 609.016 114.164C610.977 114.164 612.43 113.086 612.68 111.523H610.859ZM608.945 107.055C610.062 107.055 610.812 107.875 610.852 109.047H606.984C607.062 107.891 607.852 107.055 608.945 107.055ZM613.867 108.094C613.867 109.32 614.664 110.102 616.25 110.453L617.625 110.758C618.492 110.953 618.789 111.234 618.789 111.734C618.789 112.352 618.203 112.742 617.258 112.742C616.273 112.742 615.719 112.336 615.57 111.531H613.656C613.812 113.133 615.094 114.164 617.258 114.164C619.289 114.164 620.727 113.109 620.727 111.547C620.727 110.344 620.062 109.68 618.344 109.297L616.969 108.992C616.102 108.797 615.758 108.469 615.758 107.992C615.758 107.383 616.328 106.977 617.188 106.977C618.086 106.977 618.641 107.453 618.719 108.203H620.531C620.484 106.633 619.203 105.547 617.188 105.547C615.188 105.547 613.867 106.578 613.867 108.094Z" fill="white"/>
<path d="M470.359 137.297V136.094H465.672V137.633H468.391L468.383 137.82C468.352 139.398 467.172 140.477 465.469 140.477C463.438 140.477 462.172 138.891 462.172 136.297C462.172 133.758 463.383 132.25 465.414 132.25C466.797 132.25 467.844 133.016 468.227 134.312H470.273C469.906 132.055 467.969 130.539 465.406 130.539C462.148 130.539 460.109 132.742 460.109 136.32C460.109 139.953 462.156 142.188 465.445 142.188C468.531 142.188 470.359 140.352 470.359 137.297ZM475.477 142.164C477.906 142.164 479.484 140.547 479.484 137.859C479.484 135.18 477.891 133.547 475.477 133.547C473.062 133.547 471.469 135.188 471.469 137.859C471.469 140.547 473.047 142.164 475.477 142.164ZM475.477 140.625C474.242 140.625 473.445 139.625 473.445 137.859C473.445 136.102 474.25 135.094 475.477 135.094C476.711 135.094 477.508 136.102 477.508 137.859C477.508 139.625 476.711 140.625 475.477 140.625ZM484.398 142.164C486.828 142.164 488.406 140.547 488.406 137.859C488.406 135.18 486.812 133.547 484.398 133.547C481.984 133.547 480.391 135.188 480.391 137.859C480.391 140.547 481.969 142.164 484.398 142.164ZM484.398 140.625C483.164 140.625 482.367 139.625 482.367 137.859C482.367 136.102 483.172 135.094 484.398 135.094C485.633 135.094 486.43 136.102 486.43 137.859C486.43 139.625 485.633 140.625 484.398 140.625ZM493.305 145.125C495.719 145.125 497.305 143.844 497.305 141.867V133.719H495.398V135.141H495.367C494.891 134.188 493.938 133.578 492.758 133.578C490.641 133.578 489.312 135.211 489.312 137.828C489.312 140.406 490.672 142.008 492.719 142.008C493.906 142.008 494.883 141.414 495.312 140.523H495.359V141.922C495.359 142.977 494.633 143.688 493.367 143.688C492.445 143.688 491.734 143.258 491.523 142.625H489.594C489.789 144.078 491.258 145.125 493.305 145.125ZM493.312 140.461C492.086 140.461 491.305 139.477 491.305 137.836C491.305 136.211 492.086 135.18 493.312 135.18C494.555 135.18 495.359 136.227 495.359 137.836C495.359 139.453 494.555 140.461 493.312 140.461ZM498.945 142H500.891V130.727H498.945V142ZM508.031 139.523C507.82 140.211 507.133 140.664 506.227 140.664C504.953 140.664 504.141 139.773 504.141 138.445V138.328H509.93V137.695C509.93 135.18 508.461 133.547 506.109 133.547C503.719 133.547 502.203 135.273 502.203 137.891C502.203 140.531 503.703 142.164 506.188 142.164C508.148 142.164 509.602 141.086 509.852 139.523H508.031ZM506.117 135.055C507.234 135.055 507.984 135.875 508.023 137.047H504.156C504.234 135.891 505.023 135.055 506.117 135.055ZM519.445 142.188C522.109 142.188 523.953 140.727 524.305 138.312H522.328C522.016 139.672 520.945 140.477 519.453 140.477C517.5 140.477 516.266 138.891 516.266 136.359C516.266 133.844 517.508 132.25 519.445 132.25C520.906 132.25 522.055 133.18 522.32 134.594H524.305C524.055 132.172 522.062 130.539 519.445 130.539C516.242 130.539 514.203 132.766 514.203 136.359C514.203 139.977 516.227 142.188 519.445 142.188ZM525.695 142H527.641V130.727H525.695V142ZM532.961 142.164C535.391 142.164 536.969 140.547 536.969 137.859C536.969 135.18 535.375 133.547 532.961 133.547C530.547 133.547 528.953 135.188 528.953 137.859C528.953 140.547 530.531 142.164 532.961 142.164ZM532.961 140.625C531.727 140.625 530.93 139.625 530.93 137.859C530.93 136.102 531.734 135.094 532.961 135.094C534.195 135.094 534.992 136.102 534.992 137.859C534.992 139.625 534.195 140.625 532.961 140.625ZM545.562 133.719H543.617V138.508C543.617 139.711 542.922 140.508 541.797 140.508C540.703 140.508 540.125 139.867 540.125 138.68V133.719H538.18V139.07C538.18 140.984 539.32 142.148 541.117 142.148C542.375 142.148 543.211 141.57 543.648 140.562H543.688V142H545.562V133.719ZM550.25 142.133C551.461 142.133 552.414 141.516 552.867 140.586H552.898V142H554.805V130.727H552.859V135.109H552.812C552.375 134.195 551.438 133.578 550.25 133.578C548.164 133.578 546.812 135.234 546.812 137.852C546.812 140.484 548.164 142.133 550.25 142.133ZM550.836 135.18C552.062 135.18 552.867 136.234 552.867 137.859C552.867 139.5 552.062 140.539 550.836 140.539C549.578 140.539 548.805 139.508 548.805 137.859C548.805 136.219 549.586 135.18 550.836 135.18ZM559.836 130.727V142H561.852V138.273H564.133C566.414 138.273 568.016 136.75 568.016 134.5C568.016 132.25 566.461 130.727 564.219 130.727H559.836ZM561.852 132.375H563.688C565.133 132.375 565.969 133.148 565.969 134.5C565.969 135.867 565.125 136.648 563.68 136.648H561.852V132.375ZM569.352 142H571.297V130.727H569.352V142ZM575.391 142.133C576.453 142.133 577.492 141.578 577.969 140.68H578.008V142H579.883V136.297C579.883 134.633 578.547 133.547 576.492 133.547C574.383 133.547 573.062 134.656 572.977 136.203H574.781C574.906 135.516 575.492 135.07 576.414 135.07C577.375 135.07 577.961 135.57 577.961 136.438V137.031L575.773 137.156C573.758 137.281 572.625 138.164 572.625 139.633C572.625 141.125 573.789 142.133 575.391 142.133ZM575.977 140.664C575.133 140.664 574.57 140.234 574.57 139.555C574.57 138.898 575.109 138.477 576.047 138.414L577.961 138.297V138.93C577.961 139.93 577.078 140.664 575.977 140.664ZM581.992 131.781V133.719H580.805V135.219H581.992V139.797C581.992 141.406 582.695 142.039 584.484 142.039C584.898 142.039 585.281 142.008 585.492 141.961V140.477C585.367 140.5 585.117 140.516 584.938 140.516C584.25 140.516 583.938 140.203 583.938 139.523V135.219H585.5V133.719H583.938V131.781H581.992ZM587.367 142H589.312V135.219H590.938V133.742H589.281V133.062C589.281 132.391 589.617 132.039 590.359 132.039C590.586 132.039 590.812 132.062 590.977 132.086V130.727C590.734 130.68 590.312 130.641 589.93 130.641C588.133 130.641 587.367 131.398 587.367 133.008V133.742H586.234V135.219H587.367V142ZM595.586 142.164C598.016 142.164 599.594 140.547 599.594 137.859C599.594 135.18 598 133.547 595.586 133.547C593.172 133.547 591.578 135.188 591.578 137.859C591.578 140.547 593.156 142.164 595.586 142.164ZM595.586 140.625C594.352 140.625 593.555 139.625 593.555 137.859C593.555 136.102 594.359 135.094 595.586 135.094C596.82 135.094 597.617 136.102 597.617 137.859C597.617 139.625 596.82 140.625 595.586 140.625ZM600.844 142H602.789V137.18C602.789 136.016 603.453 135.305 604.555 135.305C604.883 135.305 605.18 135.352 605.344 135.414V133.656C605.203 133.625 604.984 133.578 604.734 133.578C603.758 133.578 603.031 134.156 602.75 135.164H602.711V133.719H600.844V142ZM606.344 142H608.289V136.93C608.289 135.93 608.945 135.203 609.883 135.203C610.789 135.203 611.352 135.773 611.352 136.695V142H613.242V136.883C613.242 135.891 613.883 135.203 614.82 135.203C615.773 135.203 616.305 135.781 616.305 136.797V142H618.25V136.32C618.25 134.664 617.18 133.562 615.547 133.562C614.352 133.562 613.367 134.203 612.969 135.227H612.922C612.617 134.164 611.781 133.562 610.609 133.562C609.484 133.562 608.609 134.195 608.25 135.156H608.211V133.719H606.344V142Z" fill="white"/>
<path d="M496.125 170V158.727H493.797L490.344 167.328H490.281L486.828 158.727H484.492V170H486.312V162H486.367L489.625 170H491L494.258 162H494.312V170H496.125ZM498.938 160.469C499.531 160.469 500 159.992 500 159.414C500 158.828 499.531 158.359 498.938 158.359C498.344 158.359 497.867 158.828 497.867 159.414C497.867 159.992 498.344 160.469 498.938 160.469ZM497.969 170H499.914V161.719H497.969V170ZM508.844 164.672C508.711 162.93 507.359 161.547 505.172 161.547C502.766 161.547 501.203 163.211 501.203 165.859C501.203 168.547 502.766 170.164 505.188 170.164C507.266 170.164 508.695 168.945 508.852 167.094H507.016C506.836 168.031 506.195 168.594 505.211 168.594C503.977 168.594 503.18 167.594 503.18 165.859C503.18 164.156 503.969 163.125 505.195 163.125C506.234 163.125 506.852 163.789 507.008 164.672H508.844ZM510.016 170H511.961V165.18C511.961 164.016 512.625 163.305 513.727 163.305C514.055 163.305 514.352 163.352 514.516 163.414V161.656C514.375 161.625 514.156 161.578 513.906 161.578C512.93 161.578 512.203 162.156 511.922 163.164H511.883V161.719H510.016V170ZM518.867 170.164C521.297 170.164 522.875 168.547 522.875 165.859C522.875 163.18 521.281 161.547 518.867 161.547C516.453 161.547 514.859 163.188 514.859 165.859C514.859 168.547 516.438 170.164 518.867 170.164ZM518.867 168.625C517.633 168.625 516.836 167.625 516.836 165.859C516.836 164.102 517.641 163.094 518.867 163.094C520.102 163.094 520.898 164.102 520.898 165.859C520.898 167.625 520.102 168.625 518.867 168.625ZM523.977 164.094C523.977 165.32 524.773 166.102 526.359 166.453L527.734 166.758C528.602 166.953 528.898 167.234 528.898 167.734C528.898 168.352 528.312 168.742 527.367 168.742C526.383 168.742 525.828 168.336 525.68 167.531H523.766C523.922 169.133 525.203 170.164 527.367 170.164C529.398 170.164 530.836 169.109 530.836 167.547C530.836 166.344 530.172 165.68 528.453 165.297L527.078 164.992C526.211 164.797 525.867 164.469 525.867 163.992C525.867 163.383 526.438 162.977 527.297 162.977C528.195 162.977 528.75 163.453 528.828 164.203H530.641C530.594 162.633 529.312 161.547 527.297 161.547C525.297 161.547 523.977 162.578 523.977 164.094ZM535.742 170.164C538.172 170.164 539.75 168.547 539.75 165.859C539.75 163.18 538.156 161.547 535.742 161.547C533.328 161.547 531.734 163.188 531.734 165.859C531.734 168.547 533.312 170.164 535.742 170.164ZM535.742 168.625C534.508 168.625 533.711 167.625 533.711 165.859C533.711 164.102 534.516 163.094 535.742 163.094C536.977 163.094 537.773 164.102 537.773 165.859C537.773 167.625 536.977 168.625 535.742 168.625ZM541.539 170H543.484V163.219H545.109V161.742H543.453V161.062C543.453 160.391 543.789 160.039 544.531 160.039C544.758 160.039 544.984 160.062 545.148 160.086V158.727C544.906 158.68 544.484 158.641 544.102 158.641C542.305 158.641 541.539 159.398 541.539 161.008V161.742H540.406V163.219H541.539V170ZM546.93 159.781V161.719H545.742V163.219H546.93V167.797C546.93 169.406 547.633 170.039 549.422 170.039C549.836 170.039 550.219 170.008 550.43 169.961V168.477C550.305 168.5 550.055 168.516 549.875 168.516C549.188 168.516 548.875 168.203 548.875 167.523V163.219H550.438V161.719H548.875V159.781H546.93ZM562.531 170H564.656L560.656 158.727H558.383L554.383 170H556.461L557.422 167.086H561.57L562.531 170ZM559.469 160.719H559.523L561.094 165.531H557.891L559.469 160.719ZM565.508 170H572.109V168.484H567.922V168.445L572.039 163V161.719H565.547V163.234H569.797V163.266L565.508 168.82V170ZM580.891 161.719H578.945V166.508C578.945 167.711 578.25 168.508 577.125 168.508C576.031 168.508 575.453 167.867 575.453 166.68V161.719H573.508V167.07C573.508 168.984 574.648 170.148 576.445 170.148C577.703 170.148 578.539 169.57 578.977 168.562H579.016V170H580.891V161.719ZM582.484 170H584.43V165.18C584.43 164.016 585.094 163.305 586.195 163.305C586.523 163.305 586.82 163.352 586.984 163.414V161.656C586.844 161.625 586.625 161.578 586.375 161.578C585.398 161.578 584.672 162.156 584.391 163.164H584.352V161.719H582.484V170ZM593.156 167.523C592.945 168.211 592.258 168.664 591.352 168.664C590.078 168.664 589.266 167.773 589.266 166.445V166.328H595.055V165.695C595.055 163.18 593.586 161.547 591.234 161.547C588.844 161.547 587.328 163.273 587.328 165.891C587.328 168.531 588.828 170.164 591.312 170.164C593.273 170.164 594.727 169.086 594.977 167.523H593.156ZM591.242 163.055C592.359 163.055 593.109 163.875 593.148 165.047H589.281C589.359 163.891 590.148 163.055 591.242 163.055ZM601.188 163.5L601.742 162.523L600.016 161.539L601.75 160.539L601.188 159.562L599.523 160.578L599.594 158.727H598.336L598.406 160.578L596.742 159.562L596.195 160.539L597.906 161.531L596.188 162.516L596.734 163.5L598.406 162.484L598.336 164.336H599.594L599.523 162.484L601.188 163.5Z" fill="white"/>
<path d="M583.056 203.2L582.564 202.384L584.376 201.34L582.648 200.632L583.116 199.804L584.928 200.848L584.676 198.988H585.624V201.088L587.1 199.936L587.592 200.752L585.768 201.796L587.508 202.504L587.04 203.332L585.228 202.288L585.48 204.148H584.532V202.048L583.056 203.2Z" fill="#F68831"/>
<path d="M593.234 206.8V207.688C592.738 207.984 592.11 208.132 591.35 208.132C590.382 208.132 589.65 207.852 589.154 207.292C588.666 206.724 588.422 205.892 588.422 204.796C588.422 203.78 588.682 202.996 589.202 202.444C589.722 201.884 590.458 201.604 591.41 201.604C592.002 201.604 592.55 201.736 593.054 202V202.888C592.526 202.624 592.034 202.492 591.578 202.492C590.21 202.492 589.526 203.26 589.526 204.796C589.526 205.628 589.682 206.244 589.994 206.644C590.314 207.044 590.814 207.244 591.494 207.244C591.766 207.244 592.042 207.208 592.322 207.136C592.602 207.064 592.906 206.952 593.234 206.8ZM597.128 208.132C596.184 208.132 595.452 207.844 594.932 207.268C594.412 206.684 594.152 205.884 594.152 204.868C594.152 203.844 594.412 203.044 594.932 202.468C595.452 201.892 596.184 201.604 597.128 201.604C598.08 201.604 598.816 201.892 599.336 202.468C599.856 203.044 600.116 203.844 600.116 204.868C600.116 205.884 599.856 206.684 599.336 207.268C598.816 207.844 598.08 208.132 597.128 208.132ZM597.128 207.244C597.744 207.244 598.212 207.044 598.532 206.644C598.852 206.236 599.012 205.644 599.012 204.868C599.012 204.092 598.852 203.504 598.532 203.104C598.212 202.696 597.744 202.492 597.128 202.492C596.52 202.492 596.056 202.696 595.736 203.104C595.416 203.504 595.256 204.092 595.256 204.868C595.256 205.644 595.416 206.236 595.736 206.644C596.056 207.044 596.52 207.244 597.128 207.244ZM601.521 208V201.736H602.253L602.445 202.78C602.677 202.42 602.969 202.136 603.321 201.928C603.681 201.712 604.073 201.604 604.497 201.604C605.425 201.604 606.053 202.004 606.381 202.804C606.605 202.444 606.905 202.156 607.281 201.94C607.657 201.716 608.069 201.604 608.517 201.604C609.197 201.604 609.717 201.82 610.077 202.252C610.437 202.676 610.617 203.3 610.617 204.124V208H609.537V204.148C609.537 203.068 609.117 202.528 608.277 202.528C607.869 202.528 607.517 202.644 607.221 202.876C606.933 203.1 606.729 203.412 606.609 203.812V208H605.541V204.148C605.541 203.068 605.109 202.528 604.245 202.528C603.853 202.528 603.509 202.652 603.213 202.9C602.917 203.14 602.713 203.468 602.601 203.884V208H601.521ZM612.205 200.284V199.312H613.525V200.284H612.205ZM612.457 208V202.576L611.833 202.18V201.736H613.537V208H612.457ZM615.338 208V201.736H616.07L616.262 202.804C616.526 202.42 616.85 202.124 617.234 201.916C617.618 201.708 618.05 201.604 618.53 201.604C619.25 201.604 619.802 201.82 620.186 202.252C620.57 202.684 620.762 203.308 620.762 204.124V208H619.682V204.16C619.682 203.072 619.21 202.528 618.266 202.528C617.866 202.528 617.498 202.652 617.162 202.9C616.834 203.14 616.586 203.468 616.418 203.884V208H615.338ZM622.366 207.244L622.15 206.62L623.098 205.156C622.714 204.78 622.522 204.3 622.522 203.716C622.522 203.052 622.75 202.536 623.206 202.168C623.67 201.792 624.31 201.604 625.126 201.604C625.542 201.604 625.918 201.664 626.254 201.784L628.27 201.76V202.3L627.43 202.564C627.742 202.868 627.898 203.264 627.898 203.752C627.898 204.408 627.658 204.92 627.178 205.288C626.706 205.656 626.05 205.84 625.21 205.84C624.69 205.84 624.234 205.764 623.842 205.612L623.302 206.452L626.362 206.872C627.026 206.96 627.51 207.144 627.814 207.424C628.126 207.704 628.282 208.088 628.282 208.576C628.282 209.184 628.006 209.664 627.454 210.016C626.91 210.368 626.162 210.544 625.21 210.544C624.25 210.544 623.51 210.388 622.99 210.076C622.478 209.772 622.222 209.332 622.222 208.756C622.222 208.212 622.474 207.736 622.978 207.328L622.366 207.244ZM623.554 203.716C623.554 204.572 624.106 205 625.21 205C626.314 205 626.866 204.572 626.866 203.716C626.866 202.86 626.314 202.432 625.21 202.432C624.106 202.432 623.554 202.86 623.554 203.716ZM623.278 208.564C623.278 209.316 623.922 209.692 625.21 209.692C625.826 209.692 626.31 209.592 626.662 209.392C627.022 209.2 627.202 208.94 627.202 208.612C627.202 208.364 627.126 208.176 626.974 208.048C626.83 207.92 626.57 207.828 626.194 207.772L623.818 207.448C623.458 207.76 623.278 208.132 623.278 208.564ZM632.076 207.688V206.776C632.452 206.936 632.792 207.052 633.096 207.124C633.408 207.196 633.736 207.232 634.08 207.232C635.12 207.232 635.64 206.92 635.64 206.296C635.64 206.048 635.564 205.856 635.412 205.72C635.26 205.576 634.992 205.452 634.608 205.348L633.624 205.084C633.048 204.924 632.628 204.708 632.364 204.436C632.1 204.156 631.968 203.8 631.968 203.368C631.968 202.824 632.18 202.396 632.604 202.084C633.036 201.764 633.616 201.604 634.344 201.604C634.744 201.604 635.108 201.636 635.436 201.7C635.764 201.764 636.048 201.852 636.288 201.964V202.876C635.672 202.628 635.048 202.504 634.416 202.504C633.504 202.504 633.048 202.768 633.048 203.296C633.048 203.52 633.116 203.7 633.252 203.836C633.396 203.964 633.644 204.076 633.996 204.172L634.992 204.436C635.6 204.596 636.04 204.82 636.312 205.108C636.584 205.388 636.72 205.768 636.72 206.248C636.72 206.832 636.492 207.292 636.036 207.628C635.58 207.964 634.948 208.132 634.14 208.132C633.756 208.132 633.38 208.092 633.012 208.012C632.644 207.932 632.332 207.824 632.076 207.688ZM640.582 208.132C639.638 208.132 638.906 207.844 638.386 207.268C637.866 206.684 637.606 205.884 637.606 204.868C637.606 203.844 637.866 203.044 638.386 202.468C638.906 201.892 639.638 201.604 640.582 201.604C641.534 201.604 642.27 201.892 642.79 202.468C643.31 203.044 643.57 203.844 643.57 204.868C643.57 205.884 643.31 206.684 642.79 207.268C642.27 207.844 641.534 208.132 640.582 208.132ZM640.582 207.244C641.198 207.244 641.666 207.044 641.986 206.644C642.306 206.236 642.466 205.644 642.466 204.868C642.466 204.092 642.306 203.504 641.986 203.104C641.666 202.696 641.198 202.492 640.582 202.492C639.974 202.492 639.51 202.696 639.19 203.104C638.87 203.504 638.71 204.092 638.71 204.868C638.71 205.644 638.87 206.236 639.19 206.644C639.51 207.044 639.974 207.244 640.582 207.244ZM647.554 208.132C646.61 208.132 645.878 207.844 645.358 207.268C644.838 206.684 644.578 205.884 644.578 204.868C644.578 203.844 644.838 203.044 645.358 202.468C645.878 201.892 646.61 201.604 647.554 201.604C648.506 201.604 649.242 201.892 649.762 202.468C650.282 203.044 650.542 203.844 650.542 204.868C650.542 205.884 650.282 206.684 649.762 207.268C649.242 207.844 648.506 208.132 647.554 208.132ZM647.554 207.244C648.17 207.244 648.638 207.044 648.958 206.644C649.278 206.236 649.438 205.644 649.438 204.868C649.438 204.092 649.278 203.504 648.958 203.104C648.638 202.696 648.17 202.492 647.554 202.492C646.946 202.492 646.482 202.696 646.162 203.104C645.842 203.504 645.682 204.092 645.682 204.868C645.682 205.644 645.842 206.236 646.162 206.644C646.482 207.044 646.946 207.244 647.554 207.244ZM651.947 208V201.736H652.679L652.871 202.804C653.135 202.42 653.459 202.124 653.843 201.916C654.227 201.708 654.659 201.604 655.139 201.604C655.859 201.604 656.411 201.82 656.795 202.252C657.179 202.684 657.371 203.308 657.371 204.124V208H656.291V204.16C656.291 203.072 655.819 202.528 654.875 202.528C654.475 202.528 654.107 202.652 653.771 202.9C653.443 203.14 653.195 203.468 653.027 203.884V208H651.947Z" fill="white"/>
</g>
<defs>
<filter id="filter0_di_926_13470" x="220.5" y="0" width="174" height="60" filterUnits="userSpaceOnUse" color-interpolation-filters="sRGB">
<feFlood flood-opacity="0" result="BackgroundImageFix"/>
<feColorMatrix in="SourceAlpha" type="matrix" values="0 0 0 0 0 0 0 0 0 0 0 0 0 0 0 0 0 0 127 0" result="hardAlpha"/>
<feOffset dx="-4" dy="-4"/>
<feGaussianBlur stdDeviation="8"/>
<feComposite in2="hardAlpha" operator="out"/>
<feColorMatrix type="matrix" values="0 0 0 0 0.0901961 0 0 0 0 0.415686 0 0 0 0 1 0 0 0 0.05 0"/>
<feBlend mode="normal" in2="BackgroundImageFix" result="effect1_dropShadow_926_13470"/>
<feBlend mode="normal" in="SourceGraphic" in2="effect1_dropShadow_926_13470" result="shape"/>
<feColorMatrix in="SourceAlpha" type="matrix" values="0 0 0 0 0 0 0 0 0 0 0 0 0 0 0 0 0 0 127 0" result="hardAlpha"/>
<feOffset dx="8" dy="12"/>
<feGaussianBlur stdDeviation="9"/>
<feComposite in2="hardAlpha" operator="arithmetic" k2="-1" k3="1"/>
<feColorMatrix type="matrix" values="0 0 0 0 0.239216 0 0 0 0 0.513726 0 0 0 0 1 0 0 0 0.1 0"/>
<feBlend mode="normal" in2="shape" result="effect2_innerShadow_926_13470"/>
</filter>
<filter id="filter1_di_926_13470" x="220.5" y="32" width="174" height="60" filterUnits="userSpaceOnUse" color-interpolation-filters="sRGB">
<feFlood flood-opacity="0" result="BackgroundImageFix"/>
<feColorMatrix in="SourceAlpha" type="matrix" values="0 0 0 0 0 0 0 0 0 0 0 0 0 0 0 0 0 0 127 0" result="hardAlpha"/>
<feOffset dx="-4" dy="-4"/>
<feGaussianBlur stdDeviation="8"/>
<feComposite in2="hardAlpha" operator="out"/>
<feColorMatrix type="matrix" values="0 0 0 0 0.0901961 0 0 0 0 0.415686 0 0 0 0 1 0 0 0 0.05 0"/>
<feBlend mode="normal" in2="BackgroundImageFix" result="effect1_dropShadow_926_13470"/>
<feBlend mode="normal" in="SourceGraphic" in2="effect1_dropShadow_926_13470" result="shape"/>
<feColorMatrix in="SourceAlpha" type="matrix" values="0 0 0 0 0 0 0 0 0 0 0 0 0 0 0 0 0 0 127 0" result="hardAlpha"/>
<feOffset dx="8" dy="12"/>
<feGaussianBlur stdDeviation="9"/>
<feComposite in2="hardAlpha" operator="arithmetic" k2="-1" k3="1"/>
<feColorMatrix type="matrix" values="0 0 0 0 0.239216 0 0 0 0 0.513726 0 0 0 0 1 0 0 0 0.1 0"/>
<feBlend mode="normal" in2="shape" result="effect2_innerShadow_926_13470"/>
</filter>
<filter id="filter2_di_926_13470" x="220.5" y="64" width="174" height="60" filterUnits="userSpaceOnUse" color-interpolation-filters="sRGB">
<feFlood flood-opacity="0" result="BackgroundImageFix"/>
<feColorMatrix in="SourceAlpha" type="matrix" values="0 0 0 0 0 0 0 0 0 0 0 0 0 0 0 0 0 0 127 0" result="hardAlpha"/>
<feOffset dx="-4" dy="-4"/>
<feGaussianBlur stdDeviation="8"/>
<feComposite in2="hardAlpha" operator="out"/>
<feColorMatrix type="matrix" values="0 0 0 0 0.0901961 0 0 0 0 0.415686 0 0 0 0 1 0 0 0 0.05 0"/>
<feBlend mode="normal" in2="BackgroundImageFix" result="effect1_dropShadow_926_13470"/>
<feBlend mode="normal" in="SourceGraphic" in2="effect1_dropShadow_926_13470" result="shape"/>
<feColorMatrix in="SourceAlpha" type="matrix" values="0 0 0 0 0 0 0 0 0 0 0 0 0 0 0 0 0 0 127 0" result="hardAlpha"/>
<feOffset dx="8" dy="12"/>
<feGaussianBlur stdDeviation="9"/>
<feComposite in2="hardAlpha" operator="arithmetic" k2="-1" k3="1"/>
<feColorMatrix type="matrix" values="0 0 0 0 0.239216 0 0 0 0 0.513726 0 0 0 0 1 0 0 0 0.1 0"/>
<feBlend mode="normal" in2="shape" result="effect2_innerShadow_926_13470"/>
</filter>
<filter id="filter3_di_926_13470" x="220.5" y="96" width="174" height="60" filterUnits="userSpaceOnUse" color-interpolation-filters="sRGB">
<feFlood flood-opacity="0" result="BackgroundImageFix"/>
<feColorMatrix in="SourceAlpha" type="matrix" values="0 0 0 0 0 0 0 0 0 0 0 0 0 0 0 0 0 0 127 0" result="hardAlpha"/>
<feOffset dx="-4" dy="-4"/>
<feGaussianBlur stdDeviation="8"/>
<feComposite in2="hardAlpha" operator="out"/>
<feColorMatrix type="matrix" values="0 0 0 0 0.0901961 0 0 0 0 0.415686 0 0 0 0 1 0 0 0 0.05 0"/>
<feBlend mode="normal" in2="BackgroundImageFix" result="effect1_dropShadow_926_13470"/>
<feBlend mode="normal" in="SourceGraphic" in2="effect1_dropShadow_926_13470" result="shape"/>
<feColorMatrix in="SourceAlpha" type="matrix" values="0 0 0 0 0 0 0 0 0 0 0 0 0 0 0 0 0 0 127 0" result="hardAlpha"/>
<feOffset dx="8" dy="12"/>
<feGaussianBlur stdDeviation="9"/>
<feComposite in2="hardAlpha" operator="arithmetic" k2="-1" k3="1"/>
<feColorMatrix type="matrix" values="0 0 0 0 0.239216 0 0 0 0 0.513726 0 0 0 0 1 0 0 0 0.1 0"/>
<feBlend mode="normal" in2="shape" result="effect2_innerShadow_926_13470"/>
</filter>
<filter id="filter4_di_926_13470" x="220.5" y="144" width="174" height="60" filterUnits="userSpaceOnUse" color-interpolation-filters="sRGB">
<feFlood flood-opacity="0" result="BackgroundImageFix"/>
<feColorMatrix in="SourceAlpha" type="matrix" values="0 0 0 0 0 0 0 0 0 0 0 0 0 0 0 0 0 0 127 0" result="hardAlpha"/>
<feOffset dx="-4" dy="-4"/>
<feGaussianBlur stdDeviation="8"/>
<feComposite in2="hardAlpha" operator="out"/>
<feColorMatrix type="matrix" values="0 0 0 0 0.0901961 0 0 0 0 0.415686 0 0 0 0 1 0 0 0 0.05 0"/>
<feBlend mode="normal" in2="BackgroundImageFix" result="effect1_dropShadow_926_13470"/>
<feBlend mode="normal" in="SourceGraphic" in2="effect1_dropShadow_926_13470" result="shape"/>
<feColorMatrix in="SourceAlpha" type="matrix" values="0 0 0 0 0 0 0 0 0 0 0 0 0 0 0 0 0 0 127 0" result="hardAlpha"/>
<feOffset dx="8" dy="12"/>
<feGaussianBlur stdDeviation="9"/>
<feComposite in2="hardAlpha" operator="arithmetic" k2="-1" k3="1"/>
<feColorMatrix type="matrix" values="0 0 0 0 0.239216 0 0 0 0 0.513726 0 0 0 0 1 0 0 0 0.1 0"/>
<feBlend mode="normal" in2="shape" result="effect2_innerShadow_926_13470"/>
</filter>
<filter id="filter5_di_926_13470" x="0.5" y="0" width="207" height="204" filterUnits="userSpaceOnUse" color-interpolation-filters="sRGB">
<feFlood flood-opacity="0" result="BackgroundImageFix"/>
<feColorMatrix in="SourceAlpha" type="matrix" values="0 0 0 0 0 0 0 0 0 0 0 0 0 0 0 0 0 0 127 0" result="hardAlpha"/>
<feOffset dx="-4" dy="-4"/>
<feGaussianBlur stdDeviation="8"/>
<feComposite in2="hardAlpha" operator="out"/>
<feColorMatrix type="matrix" values="0 0 0 0 0.0901961 0 0 0 0 0.415686 0 0 0 0 1 0 0 0 0.05 0"/>
<feBlend mode="normal" in2="BackgroundImageFix" result="effect1_dropShadow_926_13470"/>
<feBlend mode="normal" in="SourceGraphic" in2="effect1_dropShadow_926_13470" result="shape"/>
<feColorMatrix in="SourceAlpha" type="matrix" values="0 0 0 0 0 0 0 0 0 0 0 0 0 0 0 0 0 0 127 0" result="hardAlpha"/>
<feOffset dx="8" dy="12"/>
<feGaussianBlur stdDeviation="9"/>
<feComposite in2="hardAlpha" operator="arithmetic" k2="-1" k3="1"/>
<feColorMatrix type="matrix" values="0 0 0 0 0.239216 0 0 0 0 0.513726 0 0 0 0 1 0 0 0 0.1 0"/>
<feBlend mode="normal" in2="shape" result="effect2_innerShadow_926_13470"/>
</filter>
<filter id="filter6_di_926_13470" x="409.5" y="0" width="261" height="204" filterUnits="userSpaceOnUse" color-interpolation-filters="sRGB">
<feFlood flood-opacity="0" result="BackgroundImageFix"/>
<feColorMatrix in="SourceAlpha" type="matrix" values="0 0 0 0 0 0 0 0 0 0 0 0 0 0 0 0 0 0 127 0" result="hardAlpha"/>
<feOffset dx="-4" dy="-4"/>
<feGaussianBlur stdDeviation="8"/>
<feComposite in2="hardAlpha" operator="out"/>
<feColorMatrix type="matrix" values="0 0 0 0 0.0901961 0 0 0 0 0.415686 0 0 0 0 1 0 0 0 0.05 0"/>
<feBlend mode="normal" in2="BackgroundImageFix" result="effect1_dropShadow_926_13470"/>
<feBlend mode="normal" in="SourceGraphic" in2="effect1_dropShadow_926_13470" result="shape"/>
<feColorMatrix in="SourceAlpha" type="matrix" values="0 0 0 0 0 0 0 0 0 0 0 0 0 0 0 0 0 0 127 0" result="hardAlpha"/>
<feOffset dx="8" dy="12"/>
<feGaussianBlur stdDeviation="9"/>
<feComposite in2="hardAlpha" operator="arithmetic" k2="-1" k3="1"/>
<feColorMatrix type="matrix" values="0 0 0 0 0.239216 0 0 0 0 0.513726 0 0 0 0 1 0 0 0 0.1 0"/>
<feBlend mode="normal" in2="shape" result="effect2_innerShadow_926_13470"/>
</filter>
<clipPath id="clip0_926_13470">
<rect width="684" height="222" fill="white" transform="translate(0.5)"/>
</clipPath>
</defs>
</svg>
