<svg width="296" height="954" viewBox="0 0 296 954" fill="none" xmlns="http://www.w3.org/2000/svg">
<g clip-path="url(#clip0_980_12576)">
<mask id="mask0_980_12576" style="mask-type:luminance" maskUnits="userSpaceOnUse" x="0" y="0" width="296" height="954">
<path d="M295.5 0H0.5V954H295.5V0Z" fill="white"/>
</mask>
<g mask="url(#mask0_980_12576)">
<path fill-rule="evenodd" clip-rule="evenodd" d="M0.5 145C0.5 144.448 0.947716 144 1.5 144H33.5C34.0523 144 34.5 144.448 34.5 145C34.5 145.552 34.0523 146 33.5 146H4.5C3.39543 146 2.5 146.895 2.5 148V311C2.5 312.105 3.39543 313 4.5 313H53.5C54.0523 313 54.5 313.448 54.5 314C54.5 314.552 54.0523 315 53.5 315H4.5C3.39543 315 2.5 315.895 2.5 317V355C2.5 356.105 3.39543 357 4.5 357H53.5C54.0523 357 54.5 357.448 54.5 358C54.5 358.552 54.0523 359 53.5 359H4.5C3.39543 359 2.5 359.895 2.5 361V399C2.5 400.105 3.39543 401 4.5 401H53.5C54.0523 401 54.5 401.448 54.5 402C54.5 402.552 54.0523 403 53.5 403H4.5C3.39543 403 2.5 403.895 2.5 405V443C2.5 444.105 3.39543 445 4.5 445H53.5C54.0523 445 54.5 445.448 54.5 446C54.5 446.552 54.0523 447 53.5 447H4.5C3.39543 447 2.5 447.895 2.5 449V509C2.5 510.105 3.39543 511 4.5 511H53.5C54.0523 511 54.5 511.448 54.5 512C54.5 512.552 54.0523 513 53.5 513H2.5C1.39543 513 0.5 512.105 0.5 511V447V445V403V401V359V357V315V313V146V145Z" fill="#E97826"/>
<path fill-rule="evenodd" clip-rule="evenodd" d="M241.5 314C241.5 313.448 241.948 313 242.5 313H293.5C294.605 313 295.5 313.895 295.5 315V357V359V401V403V445V447V511V513V739C295.5 740.105 294.605 741 293.5 741H262.5C261.948 741 261.5 740.552 261.5 740C261.5 739.448 261.948 739 262.5 739H291.5C292.605 739 293.5 738.105 293.5 737V515C293.5 513.895 292.605 513 291.5 513H242.5C241.948 513 241.5 512.552 241.5 512C241.5 511.448 241.948 511 242.5 511H291.5C292.605 511 293.5 510.105 293.5 509V449C293.5 447.895 292.605 447 291.5 447H242.5C241.948 447 241.5 446.552 241.5 446C241.5 445.448 241.948 445 242.5 445H291.5C292.605 445 293.5 444.105 293.5 443V405C293.5 403.895 292.605 403 291.5 403H242.5C241.948 403 241.5 402.552 241.5 402C241.5 401.448 241.948 401 242.5 401H291.5C292.605 401 293.5 400.105 293.5 399V361C293.5 359.895 292.605 359 291.5 359H242.5C241.948 359 241.5 358.552 241.5 358C241.5 357.448 241.948 357 242.5 357H291.5C292.605 357 293.5 356.105 293.5 355V317C293.5 315.895 292.605 315 291.5 315H242.5C241.948 315 241.5 314.552 241.5 314Z" fill="#E97826"/>
<g filter="url(#filter0_di_980_12576)">
<path d="M253.5 588H42.5C38.0817 588 34.5 591.582 34.5 596V916C34.5 920.418 38.0817 924 42.5 924H253.5C257.918 924 261.5 920.418 261.5 916V596C261.5 591.582 257.918 588 253.5 588Z" fill="#1E2631"/>
<path d="M253.5 588.5H42.5C38.3579 588.5 35 591.858 35 596V916C35 920.142 38.3579 923.5 42.5 923.5H253.5C257.642 923.5 261 920.142 261 916V596C261 591.858 257.642 588.5 253.5 588.5Z" stroke="white"/>
</g>
<path d="M260.5 744C262.709 744 264.5 742.209 264.5 740C264.5 737.791 262.709 736 260.5 736C258.291 736 256.5 737.791 256.5 740C256.5 742.209 258.291 744 260.5 744Z" fill="white"/>
<path d="M95.1182 658.24C90.5957 658.24 87.7598 661.323 87.7598 666.254C87.7598 671.185 90.5957 674.257 95.1182 674.257C99.6299 674.257 102.466 671.185 102.466 666.254C102.466 661.323 99.6299 658.24 95.1182 658.24ZM95.1182 660.603C97.8789 660.603 99.6406 662.795 99.6406 666.254C99.6406 669.702 97.8789 671.894 95.1182 671.894C92.3467 671.894 90.5957 669.702 90.5957 666.254C90.5957 662.795 92.3467 660.603 95.1182 660.603ZM104.41 673.999H107.085V667.371C107.085 665.77 107.998 664.793 109.513 664.793C109.964 664.793 110.372 664.857 110.598 664.943V662.526C110.404 662.483 110.104 662.419 109.76 662.419C108.417 662.419 107.418 663.214 107.031 664.6H106.978V662.612H104.41V673.999ZM115.066 674.182C116.527 674.182 117.956 673.419 118.611 672.184H118.665V673.999H121.243V666.157C121.243 663.869 119.406 662.376 116.581 662.376C113.681 662.376 111.865 663.901 111.747 666.028H114.229C114.4 665.083 115.206 664.471 116.474 664.471C117.795 664.471 118.601 665.158 118.601 666.351V667.167L115.593 667.339C112.821 667.511 111.264 668.725 111.264 670.744C111.264 672.796 112.864 674.182 115.066 674.182ZM115.872 672.162C114.712 672.162 113.938 671.571 113.938 670.637C113.938 669.734 114.68 669.154 115.969 669.068L118.601 668.907V669.777C118.601 671.152 117.387 672.162 115.872 672.162ZM133.436 666.673C133.253 664.277 131.395 662.376 128.387 662.376C125.078 662.376 122.93 664.664 122.93 668.306C122.93 672.001 125.078 674.225 128.408 674.225C131.266 674.225 133.231 672.549 133.446 670.003H130.922C130.675 671.292 129.794 672.065 128.44 672.065C126.743 672.065 125.647 670.69 125.647 668.306C125.647 665.964 126.732 664.546 128.419 664.546C129.848 664.546 130.696 665.459 130.911 666.673H133.436ZM135.122 673.999H137.797V658.498H135.122V673.999ZM147.615 670.594C147.325 671.539 146.38 672.162 145.134 672.162C143.383 672.162 142.266 670.937 142.266 669.111V668.95H150.226V668.08C150.226 664.621 148.206 662.376 144.973 662.376C141.686 662.376 139.602 664.75 139.602 668.349C139.602 671.979 141.664 674.225 145.08 674.225C147.776 674.225 149.774 672.742 150.118 670.594H147.615ZM144.983 664.449C146.52 664.449 147.551 665.577 147.604 667.188H142.287C142.395 665.599 143.479 664.449 144.983 664.449ZM163.31 674.257C166.973 674.257 169.508 672.248 169.991 668.929H167.273C166.844 670.798 165.372 671.904 163.32 671.904C160.635 671.904 158.938 669.724 158.938 666.243C158.938 662.784 160.646 660.593 163.31 660.593C165.318 660.593 166.897 661.871 167.263 663.815H169.991C169.647 660.485 166.908 658.24 163.31 658.24C158.905 658.24 156.102 661.302 156.102 666.243C156.102 671.217 158.884 674.257 163.31 674.257ZM171.903 673.999H174.578V658.498H171.903V673.999ZM181.894 674.225C185.234 674.225 187.404 672.001 187.404 668.306C187.404 664.621 185.213 662.376 181.894 662.376C178.574 662.376 176.383 664.632 176.383 668.306C176.383 672.001 178.553 674.225 181.894 674.225ZM181.894 672.108C180.196 672.108 179.101 670.733 179.101 668.306C179.101 665.889 180.207 664.503 181.894 664.503C183.591 664.503 184.687 665.889 184.687 668.306C184.687 670.733 183.591 672.108 181.894 672.108ZM199.221 662.612H196.546V669.197C196.546 670.852 195.59 671.947 194.043 671.947C192.539 671.947 191.744 671.066 191.744 669.434V662.612H189.069V669.971C189.069 672.603 190.638 674.203 193.108 674.203C194.838 674.203 195.987 673.408 196.589 672.022H196.643V673.999H199.221V662.612ZM205.666 674.182C207.331 674.182 208.642 673.333 209.265 672.055H209.308V673.999H211.929V658.498H209.254V664.524H209.189C208.588 663.268 207.299 662.419 205.666 662.419C202.798 662.419 200.939 664.696 200.939 668.295C200.939 671.915 202.798 674.182 205.666 674.182ZM206.472 664.621C208.158 664.621 209.265 666.071 209.265 668.306C209.265 670.561 208.158 671.99 206.472 671.99C204.742 671.99 203.679 670.572 203.679 668.306C203.679 666.05 204.753 664.621 206.472 664.621ZM87.7812 701.999V686.498H85.0098V701.999H87.7812ZM90.2412 701.999H92.916V695.403C92.916 693.77 93.8936 692.664 95.4297 692.664C96.9551 692.664 97.707 693.566 97.707 695.178V701.999H100.382V694.641C100.382 692.009 98.9531 690.397 96.4395 690.397C94.6885 690.397 93.4746 691.214 92.8623 692.567H92.8086V690.612H90.2412V701.999ZM103.271 701.999H105.946V692.675H108.181V690.645H105.903V689.71C105.903 688.786 106.365 688.303 107.386 688.303C107.697 688.303 108.009 688.335 108.234 688.367V686.498C107.901 686.434 107.321 686.38 106.795 686.38C104.324 686.38 103.271 687.422 103.271 689.635V690.645H101.714V692.675H103.271V701.999ZM109.942 701.999H112.617V695.371C112.617 693.77 113.53 692.793 115.045 692.793C115.496 692.793 115.904 692.857 116.13 692.943V690.526C115.937 690.483 115.636 690.419 115.292 690.419C113.949 690.419 112.95 691.214 112.563 692.6H112.51V690.612H109.942V701.999ZM120.599 702.182C122.06 702.182 123.488 701.419 124.144 700.184H124.197V701.999H126.775V694.157C126.775 691.869 124.938 690.376 122.113 690.376C119.213 690.376 117.397 691.901 117.279 694.028H119.761C119.933 693.083 120.738 692.471 122.006 692.471C123.327 692.471 124.133 693.158 124.133 694.351V695.167L121.125 695.339C118.354 695.511 116.796 696.725 116.796 698.744C116.796 700.796 118.396 702.182 120.599 702.182ZM121.404 700.162C120.244 700.162 119.471 699.571 119.471 698.637C119.471 697.734 120.212 697.154 121.501 697.068L124.133 696.907V697.777C124.133 699.152 122.919 700.162 121.404 700.162ZM128.73 693.878C128.73 695.564 129.826 696.639 132.007 697.122L133.897 697.541C135.09 697.81 135.498 698.196 135.498 698.884C135.498 699.732 134.692 700.27 133.393 700.27C132.039 700.27 131.276 699.711 131.072 698.604H128.44C128.655 700.807 130.417 702.225 133.393 702.225C136.186 702.225 138.162 700.774 138.162 698.626C138.162 696.972 137.249 696.059 134.886 695.532L132.995 695.113C131.803 694.845 131.33 694.394 131.33 693.738C131.33 692.9 132.114 692.342 133.296 692.342C134.531 692.342 135.294 692.997 135.401 694.028H137.894C137.829 691.869 136.067 690.376 133.296 690.376C130.546 690.376 128.73 691.794 128.73 693.878ZM140.611 687.948V690.612H138.979V692.675H140.611V698.97C140.611 701.183 141.578 702.053 144.038 702.053C144.607 702.053 145.134 702.01 145.424 701.945V699.904C145.252 699.937 144.908 699.958 144.661 699.958C143.716 699.958 143.286 699.528 143.286 698.594V692.675H145.435V690.612H143.286V687.948H140.611ZM147.261 701.999H149.936V695.371C149.936 693.77 150.849 692.793 152.363 692.793C152.814 692.793 153.223 692.857 153.448 692.943V690.526C153.255 690.483 152.954 690.419 152.61 690.419C151.268 690.419 150.269 691.214 149.882 692.6H149.828V690.612H147.261V701.999ZM164.921 690.612H162.246V697.197C162.246 698.852 161.29 699.947 159.743 699.947C158.239 699.947 157.444 699.066 157.444 697.434V690.612H154.77V697.971C154.77 700.603 156.338 702.203 158.809 702.203C160.538 702.203 161.688 701.408 162.289 700.022H162.343V701.999H164.921V690.612ZM177.146 694.673C176.963 692.277 175.104 690.376 172.097 690.376C168.788 690.376 166.64 692.664 166.64 696.306C166.64 700.001 168.788 702.225 172.118 702.225C174.976 702.225 176.941 700.549 177.156 698.003H174.632C174.385 699.292 173.504 700.065 172.15 700.065C170.453 700.065 169.357 698.69 169.357 696.306C169.357 693.964 170.442 692.546 172.129 692.546C173.558 692.546 174.406 693.459 174.621 694.673H177.146ZM179.498 687.948V690.612H177.865V692.675H179.498V698.97C179.498 701.183 180.465 702.053 182.925 702.053C183.494 702.053 184.021 702.01 184.311 701.945V699.904C184.139 699.937 183.795 699.958 183.548 699.958C182.603 699.958 182.173 699.528 182.173 698.594V692.675H184.321V690.612H182.173V687.948H179.498ZM196.245 690.612H193.57V697.197C193.57 698.852 192.614 699.947 191.067 699.947C189.563 699.947 188.769 699.066 188.769 697.434V690.612H186.094V697.971C186.094 700.603 187.662 702.203 190.133 702.203C191.862 702.203 193.012 701.408 193.613 700.022H193.667V701.999H196.245V690.612ZM198.437 701.999H201.111V695.371C201.111 693.77 202.024 692.793 203.539 692.793C203.99 692.793 204.398 692.857 204.624 692.943V690.526C204.431 690.483 204.13 690.419 203.786 690.419C202.443 690.419 201.444 691.214 201.058 692.6H201.004V690.612H198.437V701.999ZM213.11 698.594C212.82 699.539 211.875 700.162 210.629 700.162C208.878 700.162 207.761 698.937 207.761 697.111V696.95H215.721V696.08C215.721 692.621 213.701 690.376 210.468 690.376C207.181 690.376 205.097 692.75 205.097 696.349C205.097 699.979 207.159 702.225 210.575 702.225C213.271 702.225 215.27 700.742 215.613 698.594H213.11ZM210.479 692.449C212.015 692.449 213.046 693.577 213.1 695.188H207.782C207.89 693.599 208.975 692.449 210.479 692.449Z" fill="white"/>
<path d="M82.8603 892V876.499H79.6591L74.9111 888.326H74.8251L70.0771 876.499H66.8652V892H69.3681V881H69.4433L73.9228 892H75.8134L80.2929 881H80.3681V892H82.8603ZM86.7275 878.895C87.5439 878.895 88.1884 878.239 88.1884 877.444C88.1884 876.639 87.5439 875.994 86.7275 875.994C85.9111 875.994 85.2558 876.639 85.2558 877.444C85.2558 878.239 85.9111 878.895 86.7275 878.895ZM85.3954 892H88.0702V880.613H85.3954V892ZM100.349 884.674C100.166 882.278 98.3075 880.377 95.2997 880.377C91.9911 880.377 89.8427 882.665 89.8427 886.307C89.8427 890.002 91.9911 892.226 95.3212 892.226C98.1786 892.226 100.145 890.55 100.359 888.004H97.8349C97.5878 889.293 96.707 890.066 95.3534 890.066C93.6562 890.066 92.5605 888.691 92.5605 886.307C92.5605 883.965 93.6454 882.547 95.332 882.547C96.7607 882.547 97.6093 883.46 97.8241 884.674H100.349ZM101.96 892H104.635V885.372C104.635 883.771 105.548 882.794 107.063 882.794C107.514 882.794 107.922 882.858 108.147 882.944V880.527C107.954 880.484 107.653 880.42 107.31 880.42C105.967 880.42 104.968 881.215 104.581 882.601H104.527V880.613H101.96V892ZM114.131 892.226C117.472 892.226 119.642 890.002 119.642 886.307C119.642 882.622 117.45 880.377 114.131 880.377C110.812 880.377 108.62 882.633 108.62 886.307C108.62 890.002 110.79 892.226 114.131 892.226ZM114.131 890.109C112.434 890.109 111.338 888.734 111.338 886.307C111.338 883.89 112.444 882.504 114.131 882.504C115.828 882.504 116.924 883.89 116.924 886.307C116.924 888.734 115.828 890.109 114.131 890.109ZM121.156 883.879C121.156 885.565 122.252 886.64 124.433 887.123L126.323 887.542C127.516 887.811 127.924 888.197 127.924 888.885C127.924 889.733 127.118 890.271 125.818 890.271C124.465 890.271 123.702 889.712 123.498 888.605H120.866C121.081 890.808 122.843 892.226 125.818 892.226C128.611 892.226 130.588 890.775 130.588 888.627C130.588 886.973 129.675 886.06 127.312 885.533L125.421 885.114C124.229 884.846 123.756 884.395 123.756 883.739C123.756 882.901 124.54 882.343 125.722 882.343C126.957 882.343 127.72 882.998 127.827 884.029H130.319C130.255 881.87 128.493 880.377 125.722 880.377C122.972 880.377 121.156 881.795 121.156 883.879ZM137.334 892.226C140.675 892.226 142.845 890.002 142.845 886.307C142.845 882.622 140.653 880.377 137.334 880.377C134.015 880.377 131.823 882.633 131.823 886.307C131.823 890.002 133.993 892.226 137.334 892.226ZM137.334 890.109C135.637 890.109 134.541 888.734 134.541 886.307C134.541 883.89 135.647 882.504 137.334 882.504C139.031 882.504 140.127 883.89 140.127 886.307C140.127 888.734 139.031 890.109 137.334 890.109ZM145.305 892H147.98V882.676H150.214V880.646H147.937V879.711C147.937 878.787 148.398 878.304 149.419 878.304C149.73 878.304 150.042 878.336 150.268 878.368V876.499C149.935 876.435 149.355 876.381 148.828 876.381C146.357 876.381 145.305 877.423 145.305 879.636V880.646H143.747V882.676H145.305V892ZM152.717 877.949V880.613H151.084V882.676H152.717V888.971C152.717 891.184 153.684 892.054 156.144 892.054C156.713 892.054 157.239 892.011 157.529 891.946V889.905C157.357 889.938 157.014 889.959 156.767 889.959C155.821 889.959 155.392 889.529 155.392 888.595V882.676H157.54V880.613H155.392V877.949H152.717ZM174.169 892H177.091L171.591 876.499H168.465L162.965 892H165.822L167.144 887.993H172.848L174.169 892ZM169.958 879.238H170.033L172.192 885.855H167.788L169.958 879.238ZM178.262 892H187.339V889.916H181.581V889.862L187.242 882.375V880.613H178.315V882.697H184.159V882.74L178.262 890.378V892ZM199.413 880.613H196.738V887.198C196.738 888.853 195.782 889.948 194.235 889.948C192.731 889.948 191.937 889.067 191.937 887.435V880.613H189.262V887.972C189.262 890.604 190.83 892.204 193.301 892.204C195.03 892.204 196.18 891.409 196.781 890.023H196.835V892H199.413V880.613ZM201.605 892H204.279V885.372C204.279 883.771 205.192 882.794 206.707 882.794C207.158 882.794 207.566 882.858 207.792 882.944V880.527C207.599 880.484 207.298 880.42 206.954 880.42C205.611 880.42 204.612 881.215 204.226 882.601H204.172V880.613H201.605V892ZM216.278 888.595C215.988 889.54 215.043 890.163 213.797 890.163C212.046 890.163 210.929 888.938 210.929 887.112V886.951H218.889V886.081C218.889 882.622 216.869 880.377 213.636 880.377C210.349 880.377 208.265 882.751 208.265 886.35C208.265 889.98 210.327 892.226 213.743 892.226C216.439 892.226 218.438 890.743 218.781 888.595H216.278ZM213.647 882.45C215.183 882.45 216.214 883.578 216.268 885.189H210.95C211.058 883.6 212.143 882.45 213.647 882.45ZM227.321 883.062L228.084 881.72L225.71 880.366L228.095 878.991L227.321 877.648L225.033 879.045L225.13 876.499H223.4L223.497 879.045L221.209 877.648L220.457 878.991L222.81 880.355L220.446 881.709L221.198 883.062L223.497 881.666L223.4 884.212H225.13L225.033 881.666L227.321 883.062Z" fill="white"/>
<path d="M96.6592 746.001H99.5811L94.0811 730.5H90.9551L85.4551 746.001H88.3125L89.6338 741.994H95.3379L96.6592 746.001ZM92.4482 733.239H92.5234L94.6826 739.856H90.2783L92.4482 733.239ZM100.978 746.001H103.652V739.029C103.652 737.654 104.555 736.655 105.844 736.655C107.09 736.655 107.863 737.439 107.863 738.707V746.001H110.463V738.965C110.463 737.601 111.344 736.655 112.633 736.655C113.943 736.655 114.674 737.45 114.674 738.847V746.001H117.349V738.191C117.349 735.914 115.877 734.399 113.632 734.399C111.988 734.399 110.635 735.28 110.087 736.688H110.022C109.604 735.227 108.454 734.399 106.843 734.399C105.296 734.399 104.093 735.27 103.599 736.591H103.545V734.614H100.978V746.001ZM122.849 746.184C124.31 746.184 125.738 745.421 126.394 744.186H126.447V746.001H129.025V738.159C129.025 735.871 127.188 734.378 124.363 734.378C121.463 734.378 119.647 735.903 119.529 738.03H122.011C122.183 737.085 122.988 736.473 124.256 736.473C125.577 736.473 126.383 737.16 126.383 738.353V739.169L123.375 739.341C120.604 739.513 119.046 740.727 119.046 742.746C119.046 744.798 120.646 746.184 122.849 746.184ZM123.654 744.164C122.494 744.164 121.721 743.573 121.721 742.639C121.721 741.736 122.462 741.156 123.751 741.07L126.383 740.909V741.779C126.383 743.154 125.169 744.164 123.654 744.164ZM130.873 746.001H139.95V743.917H134.192V743.863L139.854 736.376V734.614H130.927V736.698H136.771V736.741L130.873 744.379V746.001ZM146.664 746.227C150.005 746.227 152.175 744.003 152.175 740.308C152.175 736.623 149.983 734.378 146.664 734.378C143.345 734.378 141.153 736.634 141.153 740.308C141.153 744.003 143.323 746.227 146.664 746.227ZM146.664 744.11C144.967 744.11 143.871 742.735 143.871 740.308C143.871 737.891 144.978 736.505 146.664 736.505C148.361 736.505 149.457 737.891 149.457 740.308C149.457 742.735 148.361 744.11 146.664 744.11ZM153.894 746.001H156.568V739.405C156.568 737.772 157.546 736.666 159.082 736.666C160.607 736.666 161.359 737.568 161.359 739.18V746.001H164.034V738.643C164.034 736.011 162.605 734.399 160.092 734.399C158.341 734.399 157.127 735.216 156.515 736.569H156.461V734.614H153.894V746.001ZM179.89 734.786H179.997L183.166 746.001H185.776L189.934 730.5H187.055L184.369 742.241H184.283L181.168 730.5H178.719L175.604 742.241H175.518L172.832 730.5H169.953L174.11 746.001H176.721L179.89 734.786ZM197.786 742.596C197.496 743.541 196.551 744.164 195.305 744.164C193.554 744.164 192.437 742.939 192.437 741.113V740.952H200.396V740.082C200.396 736.623 198.377 734.378 195.144 734.378C191.856 734.378 189.772 736.752 189.772 740.351C189.772 743.981 191.835 746.227 195.251 746.227C197.947 746.227 199.945 744.744 200.289 742.596H197.786ZM195.154 736.451C196.69 736.451 197.722 737.579 197.775 739.19H192.458C192.565 737.601 193.65 736.451 195.154 736.451ZM208.496 746.184C211.375 746.184 213.19 743.949 213.19 740.308C213.19 736.666 211.364 734.421 208.496 734.421C206.885 734.421 205.585 735.237 204.94 736.569H204.876V730.5H202.201V746.001H204.822V744.057H204.876C205.542 745.378 206.82 746.184 208.496 746.184ZM207.669 736.623C209.377 736.623 210.451 738.052 210.451 740.308C210.451 742.574 209.388 743.992 207.669 743.992C206.015 743.992 204.865 742.542 204.865 740.308C204.865 738.095 206.015 736.623 207.669 736.623ZM108.357 769.672C108.486 772.508 110.86 774.259 114.448 774.259C118.176 774.259 120.507 772.39 120.507 769.425C120.507 767.126 119.143 765.815 115.877 765.139L114.201 764.795C112.268 764.387 111.494 763.71 111.494 762.657C111.494 761.357 112.719 760.541 114.438 760.541C116.21 760.541 117.435 761.422 117.563 762.883H120.217C120.152 760.111 117.886 758.242 114.459 758.242C111.097 758.242 108.701 760.09 108.701 762.818C108.701 765.085 110.151 766.546 113.256 767.18L114.921 767.523C116.94 767.942 117.714 768.63 117.714 769.747C117.714 771.036 116.414 771.96 114.545 771.96C112.611 771.96 111.215 771.101 111.011 769.672H108.357ZM129.853 770.596C129.562 771.541 128.617 772.164 127.371 772.164C125.62 772.164 124.503 770.939 124.503 769.113V768.952H132.463V768.082C132.463 764.623 130.443 762.378 127.21 762.378C123.923 762.378 121.839 764.752 121.839 768.351C121.839 771.981 123.901 774.227 127.317 774.227C130.014 774.227 132.012 772.744 132.355 770.596H129.853ZM127.221 764.451C128.757 764.451 129.788 765.579 129.842 767.19H124.524C124.632 765.601 125.717 764.451 127.221 764.451ZM134.192 774.001H136.867V767.373C136.867 765.772 137.78 764.795 139.295 764.795C139.746 764.795 140.154 764.859 140.38 764.945V762.528C140.187 762.485 139.886 762.421 139.542 762.421C138.199 762.421 137.2 763.216 136.813 764.602H136.76V762.614H134.192V774.001ZM151.777 762.614H148.984L146.342 771.52H146.288L143.646 762.614H140.788L144.827 774.001H147.771L151.777 762.614ZM154.409 760.896C155.226 760.896 155.87 760.24 155.87 759.445C155.87 758.64 155.226 757.995 154.409 757.995C153.593 757.995 152.938 758.64 152.938 759.445C152.938 760.24 153.593 760.896 154.409 760.896ZM153.077 774.001H155.752V762.614H153.077V774.001ZM168.03 766.675C167.848 764.279 165.989 762.378 162.981 762.378C159.673 762.378 157.524 764.666 157.524 768.308C157.524 772.003 159.673 774.227 163.003 774.227C165.86 774.227 167.826 772.551 168.041 770.005H165.517C165.27 771.294 164.389 772.067 163.035 772.067C161.338 772.067 160.242 770.692 160.242 768.308C160.242 765.966 161.327 764.548 163.014 764.548C164.442 764.548 165.291 765.461 165.506 766.675H168.03ZM177.183 770.596C176.893 771.541 175.947 772.164 174.701 772.164C172.95 772.164 171.833 770.939 171.833 769.113V768.952H179.793V768.082C179.793 764.623 177.773 762.378 174.54 762.378C171.253 762.378 169.169 764.752 169.169 768.351C169.169 771.981 171.231 774.227 174.647 774.227C177.344 774.227 179.342 772.744 179.686 770.596H177.183ZM174.551 764.451C176.087 764.451 177.118 765.579 177.172 767.19H171.854C171.962 765.601 173.047 764.451 174.551 764.451ZM181.318 765.88C181.318 767.566 182.414 768.641 184.595 769.124L186.485 769.543C187.678 769.812 188.086 770.198 188.086 770.886C188.086 771.734 187.28 772.272 185.98 772.272C184.627 772.272 183.864 771.713 183.66 770.606H181.028C181.243 772.809 183.005 774.227 185.98 774.227C188.773 774.227 190.75 772.776 190.75 770.628C190.75 768.974 189.837 768.061 187.474 767.534L185.583 767.115C184.391 766.847 183.918 766.396 183.918 765.74C183.918 764.902 184.702 764.344 185.884 764.344C187.119 764.344 187.882 764.999 187.989 766.03H190.481C190.417 763.871 188.655 762.378 185.884 762.378C183.134 762.378 181.318 763.796 181.318 765.88Z" fill="white"/>
<path d="M98.834 811.532V809.878H92.3886V811.994H96.1269L96.1162 812.252C96.0732 814.422 94.4511 815.904 92.1094 815.904C89.3164 815.904 87.5761 813.724 87.5761 810.157C87.5761 806.666 89.2412 804.593 92.0342 804.593C93.9355 804.593 95.375 805.645 95.9013 807.429H98.7158C98.2109 804.324 95.5469 802.24 92.0234 802.24C87.5439 802.24 84.7402 805.27 84.7402 810.189C84.7402 815.185 87.5547 818.257 92.0771 818.257C96.3203 818.257 98.834 815.732 98.834 811.532ZM105.87 818.225C109.211 818.225 111.381 816.001 111.381 812.306C111.381 808.621 109.189 806.376 105.87 806.376C102.551 806.376 100.359 808.632 100.359 812.306C100.359 816.001 102.529 818.225 105.87 818.225ZM105.87 816.108C104.173 816.108 103.077 814.733 103.077 812.306C103.077 809.889 104.184 808.503 105.87 808.503C107.567 808.503 108.663 809.889 108.663 812.306C108.663 814.733 107.567 816.108 105.87 816.108ZM118.138 818.225C121.478 818.225 123.648 816.001 123.648 812.306C123.648 808.621 121.457 806.376 118.138 806.376C114.818 806.376 112.627 808.632 112.627 812.306C112.627 816.001 114.797 818.225 118.138 818.225ZM118.138 816.108C116.44 816.108 115.345 814.733 115.345 812.306C115.345 809.889 116.451 808.503 118.138 808.503C119.835 808.503 120.931 809.889 120.931 812.306C120.931 814.733 119.835 816.108 118.138 816.108ZM130.384 822.296C133.703 822.296 135.884 820.534 135.884 817.816V806.612H133.263V808.567H133.22C132.564 807.257 131.254 806.419 129.632 806.419C126.721 806.419 124.895 808.664 124.895 812.263C124.895 815.808 126.764 818.01 129.578 818.01C131.211 818.01 132.554 817.193 133.145 815.969H133.209V817.892C133.209 819.342 132.21 820.319 130.47 820.319C129.202 820.319 128.225 819.728 127.935 818.858H125.281C125.55 820.856 127.569 822.296 130.384 822.296ZM130.395 815.883C128.708 815.883 127.634 814.529 127.634 812.273C127.634 810.039 128.708 808.621 130.395 808.621C132.103 808.621 133.209 810.061 133.209 812.273C133.209 814.497 132.103 815.883 130.395 815.883ZM138.14 817.999H140.814V802.498H138.14V817.999ZM150.633 814.594C150.343 815.539 149.397 816.162 148.151 816.162C146.4 816.162 145.283 814.937 145.283 813.111V812.95H153.243V812.08C153.243 808.621 151.224 806.376 147.99 806.376C144.703 806.376 142.619 808.75 142.619 812.349C142.619 815.979 144.682 818.225 148.098 818.225C150.794 818.225 152.792 816.742 153.136 814.594H150.633ZM148.001 808.449C149.537 808.449 150.568 809.577 150.622 811.188H145.305C145.412 809.599 146.497 808.449 148.001 808.449ZM166.327 818.257C169.99 818.257 172.525 816.248 173.009 812.929H170.291C169.861 814.798 168.39 815.904 166.338 815.904C163.652 815.904 161.955 813.724 161.955 810.243C161.955 806.784 163.663 804.593 166.327 804.593C168.336 804.593 169.915 805.871 170.28 807.815H173.009C172.665 804.485 169.926 802.24 166.327 802.24C161.923 802.24 159.119 805.302 159.119 810.243C159.119 815.217 161.901 818.257 166.327 818.257ZM174.921 817.999H177.596V802.498H174.921V817.999ZM184.911 818.225C188.252 818.225 190.422 816.001 190.422 812.306C190.422 808.621 188.23 806.376 184.911 806.376C181.592 806.376 179.4 808.632 179.4 812.306C179.4 816.001 181.57 818.225 184.911 818.225ZM184.911 816.108C183.214 816.108 182.118 814.733 182.118 812.306C182.118 809.889 183.225 808.503 184.911 808.503C186.608 808.503 187.704 809.889 187.704 812.306C187.704 814.733 186.608 816.108 184.911 816.108ZM202.238 806.612H199.563V813.197C199.563 814.852 198.607 815.947 197.061 815.947C195.557 815.947 194.762 815.066 194.762 813.434V806.612H192.087V813.971C192.087 816.603 193.655 818.203 196.126 818.203C197.855 818.203 199.005 817.408 199.606 816.022H199.66V817.999H202.238V806.612ZM208.684 818.182C210.349 818.182 211.659 817.333 212.282 816.055H212.325V817.999H214.946V802.498H212.271V808.524H212.207C211.605 807.268 210.316 806.419 208.684 806.419C205.815 806.419 203.957 808.696 203.957 812.295C203.957 815.915 205.815 818.182 208.684 818.182ZM209.489 808.621C211.176 808.621 212.282 810.071 212.282 812.306C212.282 814.561 211.176 815.99 209.489 815.99C207.76 815.99 206.696 814.572 206.696 812.306C206.696 810.05 207.77 808.621 209.489 808.621ZM105.247 830.498V845.999H108.019V840.875H111.155C114.292 840.875 116.494 838.78 116.494 835.687C116.494 832.593 114.356 830.498 111.273 830.498H105.247ZM108.019 832.765H110.543C112.53 832.765 113.68 833.828 113.68 835.687C113.68 837.566 112.52 838.641 110.532 838.641H108.019V832.765ZM118.331 845.999H121.006V830.498H118.331V845.999ZM126.635 846.182C128.096 846.182 129.524 845.419 130.18 844.184H130.233V845.999H132.811V838.157C132.811 835.869 130.975 834.376 128.149 834.376C125.249 834.376 123.434 835.901 123.315 838.028H125.797C125.969 837.083 126.774 836.471 128.042 836.471C129.363 836.471 130.169 837.158 130.169 838.351V839.167L127.161 839.339C124.39 839.511 122.832 840.725 122.832 842.744C122.832 844.796 124.433 846.182 126.635 846.182ZM127.44 844.162C126.28 844.162 125.507 843.571 125.507 842.637C125.507 841.734 126.248 841.154 127.537 841.068L130.169 840.907V841.777C130.169 843.152 128.955 844.162 127.44 844.162ZM135.712 831.948V834.612H134.079V836.675H135.712V842.97C135.712 845.183 136.679 846.053 139.139 846.053C139.708 846.053 140.234 846.01 140.524 845.945V843.904C140.353 843.937 140.009 843.958 139.762 843.958C138.816 843.958 138.387 843.528 138.387 842.594V836.675H140.535V834.612H138.387V831.948H135.712ZM143.103 845.999H145.777V836.675H148.012V834.645H145.734V833.71C145.734 832.786 146.196 832.303 147.217 832.303C147.528 832.303 147.84 832.335 148.065 832.367V830.498C147.732 830.434 147.152 830.38 146.626 830.38C144.155 830.38 143.103 831.422 143.103 833.635V834.645H141.545V836.675H143.103V845.999ZM154.403 846.225C157.744 846.225 159.914 844.001 159.914 840.306C159.914 836.621 157.723 834.376 154.403 834.376C151.084 834.376 148.893 836.632 148.893 840.306C148.893 844.001 151.062 846.225 154.403 846.225ZM154.403 844.108C152.706 844.108 151.61 842.733 151.61 840.306C151.61 837.889 152.717 836.503 154.403 836.503C156.101 836.503 157.196 837.889 157.196 840.306C157.196 842.733 156.101 844.108 154.403 844.108ZM161.633 845.999H164.308V839.371C164.308 837.77 165.221 836.793 166.735 836.793C167.187 836.793 167.595 836.857 167.82 836.943V834.526C167.627 834.483 167.326 834.419 166.982 834.419C165.64 834.419 164.641 835.214 164.254 836.6H164.2V834.612H161.633V845.999ZM169.195 845.999H171.87V839.027C171.87 837.652 172.772 836.653 174.061 836.653C175.308 836.653 176.081 837.437 176.081 838.705V845.999H178.681V838.963C178.681 837.599 179.561 836.653 180.851 836.653C182.161 836.653 182.892 837.448 182.892 838.845V845.999H185.566V838.189C185.566 835.912 184.095 834.397 181.85 834.397C180.206 834.397 178.853 835.278 178.305 836.686H178.24C177.821 835.225 176.672 834.397 175.061 834.397C173.514 834.397 172.311 835.268 171.816 836.589H171.763V834.612H169.195V845.999Z" fill="white"/>
<path d="M34.5 596C34.5 591.582 38.0817 588 42.5 588H253.5C257.918 588 261.5 591.582 261.5 596V636H34.5V596Z" fill="white"/>
<path d="M83.9883 605.09V622H87.0117V616.41H90.4336C93.8555 616.41 96.2578 614.125 96.2578 610.75C96.2578 607.375 93.9258 605.09 90.5625 605.09H83.9883ZM87.0117 607.562H89.7656C91.9336 607.562 93.1875 608.723 93.1875 610.75C93.1875 612.801 91.9219 613.973 89.7539 613.973H87.0117V607.562ZM109.195 609.578H106.277V616.762C106.277 618.566 105.234 619.762 103.547 619.762C101.906 619.762 101.039 618.801 101.039 617.02V609.578H98.1211V617.605C98.1211 620.477 99.832 622.223 102.527 622.223C104.414 622.223 105.668 621.355 106.324 619.844H106.383V622H109.195V609.578ZM118.535 622.199C121.676 622.199 123.656 619.762 123.656 615.789C123.656 611.816 121.664 609.367 118.535 609.367C116.777 609.367 115.359 610.258 114.656 611.711H114.586V605.09H111.668V622H114.527V619.879H114.586C115.312 621.32 116.707 622.199 118.535 622.199ZM117.633 611.77C119.496 611.77 120.668 613.328 120.668 615.789C120.668 618.262 119.508 619.809 117.633 619.809C115.828 619.809 114.574 618.227 114.574 615.789C114.574 613.375 115.828 611.77 117.633 611.77ZM125.637 622H128.555V605.09H125.637V622ZM132.562 607.703C133.453 607.703 134.156 606.988 134.156 606.121C134.156 605.242 133.453 604.539 132.562 604.539C131.672 604.539 130.957 605.242 130.957 606.121C130.957 606.988 131.672 607.703 132.562 607.703ZM131.109 622H134.027V609.578H131.109V622ZM147.422 614.008C147.223 611.395 145.195 609.32 141.914 609.32C138.305 609.32 135.961 611.816 135.961 615.789C135.961 619.82 138.305 622.246 141.938 622.246C145.055 622.246 147.199 620.418 147.434 617.641H144.68C144.41 619.047 143.449 619.891 141.973 619.891C140.121 619.891 138.926 618.391 138.926 615.789C138.926 613.234 140.109 611.688 141.949 611.688C143.508 611.688 144.434 612.684 144.668 614.008H147.422ZM161.566 622.281C165.562 622.281 168.328 620.09 168.855 616.469H165.891C165.422 618.508 163.816 619.715 161.578 619.715C158.648 619.715 156.797 617.336 156.797 613.539C156.797 609.766 158.66 607.375 161.566 607.375C163.758 607.375 165.48 608.77 165.879 610.891H168.855C168.48 607.258 165.492 604.809 161.566 604.809C156.762 604.809 153.703 608.148 153.703 613.539C153.703 618.965 156.738 622.281 161.566 622.281ZM170.941 622H173.859V605.09H170.941V622ZM181.84 622.246C185.484 622.246 187.852 619.82 187.852 615.789C187.852 611.77 185.461 609.32 181.84 609.32C178.219 609.32 175.828 611.781 175.828 615.789C175.828 619.82 178.195 622.246 181.84 622.246ZM181.84 619.938C179.988 619.938 178.793 618.438 178.793 615.789C178.793 613.152 180 611.641 181.84 611.641C183.691 611.641 184.887 613.152 184.887 615.789C184.887 618.438 183.691 619.938 181.84 619.938ZM200.742 609.578H197.824V616.762C197.824 618.566 196.781 619.762 195.094 619.762C193.453 619.762 192.586 618.801 192.586 617.02V609.578H189.668V617.605C189.668 620.477 191.379 622.223 194.074 622.223C195.961 622.223 197.215 621.355 197.871 619.844H197.93V622H200.742V609.578ZM207.773 622.199C209.59 622.199 211.02 621.273 211.699 619.879H211.746V622H214.605V605.09H211.688V611.664H211.617C210.961 610.293 209.555 609.367 207.773 609.367C204.645 609.367 202.617 611.852 202.617 615.777C202.617 619.727 204.645 622.199 207.773 622.199ZM208.652 611.77C210.492 611.77 211.699 613.352 211.699 615.789C211.699 618.25 210.492 619.809 208.652 619.809C206.766 619.809 205.605 618.262 205.605 615.789C205.605 613.328 206.777 611.77 208.652 611.77Z" fill="#1E2631"/>
<g filter="url(#filter1_di_980_12576)">
<path d="M231.5 294H64.5C60.0817 294 56.5 297.582 56.5 302V326C56.5 330.418 60.0817 334 64.5 334H231.5C235.918 334 239.5 330.418 239.5 326V302C239.5 297.582 235.918 294 231.5 294Z" fill="#1E2631"/>
<path d="M231.5 294.5H64.5C60.3579 294.5 57 297.858 57 302V326C57 330.142 60.3579 333.5 64.5 333.5H231.5C235.642 333.5 239 330.142 239 326V302C239 297.858 235.642 294.5 231.5 294.5Z" stroke="white"/>
</g>
<path d="M80.7831 306.229C76.1855 306.229 73.3066 309.312 73.3066 314.254C73.3066 319.185 76.1855 322.257 80.7831 322.257C85.37 322.257 88.2597 319.185 88.2597 314.254C88.2597 309.312 85.37 306.229 80.7831 306.229ZM80.7831 308.937C83.3183 308.937 84.9404 310.999 84.9404 314.254C84.9404 317.498 83.3183 319.55 80.7831 319.55C78.2372 319.55 76.6152 317.498 76.6152 314.254C76.6152 310.999 78.248 308.937 80.7831 308.937ZM96.9286 322.182C99.829 322.182 101.602 319.947 101.602 316.241C101.602 312.524 99.8183 310.301 96.9179 310.301C95.2743 310.301 93.996 311.117 93.3622 312.481H93.2978V306.498H90.1611V321.999H93.2548V320.022H93.3193C93.953 321.365 95.2421 322.182 96.9286 322.182ZM95.8437 312.814C97.4013 312.814 98.3896 314.146 98.3896 316.241C98.3896 318.347 97.412 319.657 95.8437 319.657C94.3183 319.657 93.287 318.325 93.287 316.241C93.287 314.179 94.329 312.814 95.8437 312.814ZM104.835 308.926C105.748 308.926 106.468 308.195 106.468 307.314C106.468 306.423 105.748 305.703 104.835 305.703C103.933 305.703 103.202 306.423 103.202 307.314C103.202 308.195 103.933 308.926 104.835 308.926ZM106.425 310.483H103.288V322.439C103.288 323.385 102.88 323.75 101.838 323.75C101.741 323.75 101.516 323.75 101.44 323.739V326.049C101.58 326.07 102.053 326.081 102.3 326.081C104.996 326.081 106.425 324.867 106.425 322.525V310.483ZM116.147 318.476C115.856 319.356 114.976 319.926 113.826 319.926C112.226 319.926 111.184 318.798 111.184 317.154V316.961H119.122V316.005C119.122 312.503 117.006 310.236 113.654 310.236C110.249 310.236 108.101 312.621 108.101 316.295C108.101 319.979 110.228 322.246 113.772 322.246C116.619 322.246 118.682 320.731 119.025 318.476H116.147ZM113.687 312.557C115.083 312.557 116.039 313.566 116.104 315.038H111.216C111.323 313.599 112.312 312.557 113.687 312.557ZM131.207 314.77C131.067 312.159 129.091 310.236 125.976 310.236C122.527 310.236 120.325 312.535 120.325 316.23C120.325 319.99 122.527 322.246 125.997 322.246C129.026 322.246 131.057 320.495 131.218 317.777H128.296C128.103 319.034 127.286 319.786 126.029 319.786C124.472 319.786 123.505 318.497 123.505 316.23C123.505 314.007 124.472 312.696 126.019 312.696C127.308 312.696 128.113 313.556 128.296 314.77H131.207ZM133.57 307.83V310.483H131.948V312.847H133.57V318.895C133.57 321.14 134.623 322.042 137.33 322.042C137.964 322.042 138.501 321.988 138.823 321.913V319.603C138.63 319.636 138.34 319.657 138.061 319.657C137.137 319.657 136.707 319.238 136.707 318.357V312.847H138.834V310.483H136.707V307.83H133.57ZM144.592 317.573C144.689 320.495 147.148 322.257 150.844 322.257C154.722 322.257 157.096 320.345 157.096 317.315C157.096 314.963 155.667 313.642 152.391 312.986L150.747 312.653C148.921 312.288 148.169 311.697 148.169 310.741C148.169 309.603 149.243 308.851 150.844 308.851C152.477 308.851 153.626 309.645 153.733 310.967H156.795C156.741 308.12 154.464 306.229 150.844 306.229C147.396 306.229 144.925 308.109 144.925 310.945C144.925 313.255 146.439 314.737 149.533 315.35L151.166 315.672C153.11 316.069 153.841 316.649 153.841 317.67C153.841 318.809 152.659 319.646 150.93 319.646C149.168 319.646 147.857 318.873 147.653 317.573H144.592ZM159.652 307.83V310.483H158.03V312.847H159.652V318.895C159.652 321.14 160.705 322.042 163.412 322.042C164.046 322.042 164.583 321.988 164.905 321.913V319.603C164.712 319.636 164.422 319.657 164.143 319.657C163.219 319.657 162.789 319.238 162.789 318.357V312.847H164.916V310.483H162.789V307.83H159.652ZM171.748 322.246C175.229 322.246 177.452 320.022 177.452 316.23C177.452 312.492 175.196 310.236 171.748 310.236C168.3 310.236 166.044 312.503 166.044 316.23C166.044 320.012 168.268 322.246 171.748 322.246ZM171.748 319.851C170.201 319.851 169.224 318.551 169.224 316.241C169.224 313.953 170.223 312.632 171.748 312.632C173.273 312.632 174.262 313.953 174.262 316.241C174.262 318.551 173.284 319.851 171.748 319.851ZM179.074 321.999H182.211V315.564C182.211 313.942 183.113 312.997 184.66 312.997C185.111 312.997 185.541 313.072 185.799 313.18V310.419C185.584 310.354 185.272 310.301 184.907 310.301C183.554 310.301 182.576 311.096 182.168 312.557H182.104V310.483H179.074V321.999ZM190.225 322.182C191.664 322.182 193.093 321.462 193.737 320.237H193.802V321.999H196.831V314.082C196.831 311.762 194.908 310.236 191.954 310.236C188.903 310.236 187.002 311.772 186.884 314.007H189.752C189.902 313.158 190.644 312.578 191.814 312.578C192.996 312.578 193.748 313.201 193.748 314.275V315.038L190.848 315.21C187.98 315.382 186.368 316.596 186.368 318.69C186.368 320.764 188.033 322.182 190.225 322.182ZM191.256 319.915C190.192 319.915 189.483 319.378 189.483 318.519C189.483 317.702 190.149 317.176 191.32 317.09L193.748 316.939V317.777C193.748 319.023 192.62 319.915 191.256 319.915ZM204.125 326.339C207.573 326.339 209.872 324.577 209.872 321.838V310.483H206.778V312.492H206.725C206.123 311.171 204.823 310.301 203.169 310.301C200.247 310.301 198.442 312.546 198.442 316.198C198.442 319.797 200.301 321.967 203.115 321.967C204.78 321.967 206.134 321.129 206.671 319.904H206.735V321.924C206.735 323.256 205.833 324.147 204.211 324.147C203.019 324.147 202.116 323.61 201.869 322.815H198.797C199.044 324.867 201.096 326.339 204.125 326.339ZM204.179 319.55C202.621 319.55 201.654 318.325 201.654 316.22C201.654 314.125 202.632 312.814 204.179 312.814C205.747 312.814 206.746 314.146 206.746 316.22C206.746 318.304 205.747 319.55 204.179 319.55ZM219.551 318.476C219.261 319.356 218.38 319.926 217.23 319.926C215.63 319.926 214.588 318.798 214.588 317.154V316.961H222.526V316.005C222.526 312.503 220.41 310.236 217.059 310.236C213.653 310.236 211.505 312.621 211.505 316.295C211.505 319.979 213.632 322.246 217.177 322.246C220.023 322.246 222.086 320.731 222.43 318.476H219.551ZM217.091 312.557C218.487 312.557 219.443 313.566 219.508 315.038H214.62C214.728 313.599 215.716 312.557 217.091 312.557Z" fill="white"/>
<path d="M56.5 318C58.7091 318 60.5 316.209 60.5 314C60.5 311.791 58.7091 310 56.5 310C54.2909 310 52.5 311.791 52.5 314C52.5 316.209 54.2909 318 56.5 318Z" fill="white"/>
<path d="M239.5 318C241.709 318 243.5 316.209 243.5 314C243.5 311.791 241.709 310 239.5 310C237.291 310 235.5 311.791 235.5 314C235.5 316.209 237.291 318 239.5 318Z" fill="white"/>
<g filter="url(#filter2_di_980_12576)">
<path d="M231.5 338H64.5C60.0817 338 56.5 341.582 56.5 346V370C56.5 374.418 60.0817 378 64.5 378H231.5C235.918 378 239.5 374.418 239.5 370V346C239.5 341.582 235.918 338 231.5 338Z" fill="#1E2631"/>
<path d="M231.5 338.5H64.5C60.3579 338.5 57 341.858 57 346V370C57 374.142 60.3579 377.5 64.5 377.5H231.5C235.642 377.5 239 374.142 239 370V346C239 341.858 235.642 338.5 231.5 338.5Z" stroke="white"/>
</g>
<path d="M113.644 366.257C117.446 366.257 120.1 364.076 120.465 360.617H117.307C116.963 362.454 115.577 363.582 113.654 363.582C111.173 363.582 109.615 361.541 109.615 358.232C109.615 354.967 111.194 352.915 113.644 352.915C115.534 352.915 116.995 354.161 117.296 356.062H120.454C120.207 352.593 117.371 350.229 113.644 350.229C109.153 350.229 106.307 353.248 106.307 358.243C106.307 363.249 109.132 366.257 113.644 366.257ZM125.557 366.182C126.996 366.182 128.425 365.462 129.069 364.237H129.134V365.999H132.163V358.082C132.163 355.762 130.24 354.236 127.286 354.236C124.235 354.236 122.334 355.772 122.216 358.007H125.084C125.234 357.158 125.976 356.578 127.147 356.578C128.328 356.578 129.08 357.201 129.08 358.275V359.038L126.18 359.21C123.312 359.382 121.7 360.596 121.7 362.69C121.7 364.764 123.365 366.182 125.557 366.182ZM126.588 363.915C125.524 363.915 124.815 363.378 124.815 362.519C124.815 361.702 125.481 361.176 126.652 361.09L129.08 360.939V361.777C129.08 363.023 127.952 363.915 126.588 363.915ZM144.656 358.77C144.517 356.159 142.54 354.236 139.425 354.236C135.977 354.236 133.774 356.535 133.774 360.23C133.774 363.99 135.977 366.246 139.446 366.246C142.476 366.246 144.506 364.495 144.667 361.777H141.745C141.552 363.034 140.735 363.786 139.479 363.786C137.921 363.786 136.954 362.497 136.954 360.23C136.954 358.007 137.921 356.696 139.468 356.696C140.757 356.696 141.563 357.556 141.745 358.77H144.656ZM146.257 365.999H149.394V359.425C149.394 357.91 150.264 356.868 151.746 356.868C153.175 356.868 153.905 357.77 153.905 359.253V365.999H157.042V358.587C157.042 355.923 155.581 354.269 153.024 354.269C151.273 354.269 150.017 355.085 149.404 356.535H149.34V350.498H146.257V365.999ZM160.662 352.926C161.575 352.926 162.295 352.195 162.295 351.314C162.295 350.423 161.575 349.703 160.662 349.703C159.749 349.703 159.029 350.423 159.029 351.314C159.029 352.195 159.749 352.926 160.662 352.926ZM159.105 365.999H162.241V354.483H159.105V365.999ZM164.336 365.999H167.473V359.393C167.473 357.899 168.364 356.868 169.772 356.868C171.179 356.868 171.888 357.728 171.888 359.231V365.999H175.024V358.576C175.024 355.88 173.585 354.269 171.028 354.269C169.256 354.269 168.042 355.106 167.43 356.535H167.365V354.483H164.336V365.999ZM182.275 370.339C185.724 370.339 188.022 368.577 188.022 365.838V354.483H184.929V356.492H184.875C184.273 355.171 182.974 354.301 181.319 354.301C178.397 354.301 176.593 356.546 176.593 360.198C176.593 363.797 178.451 365.967 181.266 365.967C182.931 365.967 184.284 365.129 184.821 363.904H184.886V365.924C184.886 367.256 183.983 368.147 182.361 368.147C181.169 368.147 180.267 367.61 180.02 366.815H176.947C177.194 368.867 179.246 370.339 182.275 370.339ZM182.329 363.55C180.772 363.55 179.805 362.325 179.805 360.22C179.805 358.125 180.782 356.814 182.329 356.814C183.897 356.814 184.897 358.146 184.897 360.22C184.897 362.304 183.897 363.55 182.329 363.55Z" fill="white"/>
<path d="M56.5 362C58.7091 362 60.5 360.209 60.5 358C60.5 355.791 58.7091 354 56.5 354C54.2909 354 52.5 355.791 52.5 358C52.5 360.209 54.2909 362 56.5 362Z" fill="white"/>
<path d="M239.5 362C241.709 362 243.5 360.209 243.5 358C243.5 355.791 241.709 354 239.5 354C237.291 354 235.5 355.791 235.5 358C235.5 360.209 237.291 362 239.5 362Z" fill="white"/>
<g filter="url(#filter3_di_980_12576)">
<path d="M231.5 382H64.5C60.0817 382 56.5 385.582 56.5 390V414C56.5 418.418 60.0817 422 64.5 422H231.5C235.918 422 239.5 418.418 239.5 414V390C239.5 385.582 235.918 382 231.5 382Z" fill="#1E2631"/>
<path d="M231.5 382.5H64.5C60.3579 382.5 57 385.858 57 390V414C57 418.142 60.3579 421.5 64.5 421.5H231.5C235.642 421.5 239 418.142 239 414V390C239 385.858 235.642 382.5 231.5 382.5Z" stroke="white"/>
</g>
<path d="M118.739 409.999V397.173H123.229V394.498H111.016V397.173H115.495V409.999H118.739ZM123.294 409.999H126.431V403.564C126.431 401.942 127.333 400.997 128.88 400.997C129.331 400.997 129.761 401.072 130.019 401.18V398.419C129.804 398.354 129.492 398.301 129.127 398.301C127.773 398.301 126.796 399.096 126.388 400.557H126.323V398.483H123.294V409.999ZM134.444 410.182C135.884 410.182 137.312 409.462 137.957 408.237H138.021V409.999H141.051V402.082C141.051 399.762 139.128 398.236 136.174 398.236C133.123 398.236 131.222 399.772 131.104 402.007H133.972C134.122 401.158 134.863 400.578 136.034 400.578C137.216 400.578 137.968 401.201 137.968 402.275V403.038L135.067 403.21C132.199 403.382 130.588 404.596 130.588 406.69C130.588 408.764 132.253 410.182 134.444 410.182ZM135.476 407.915C134.412 407.915 133.703 407.378 133.703 406.519C133.703 405.702 134.369 405.176 135.54 405.09L137.968 404.939V405.777C137.968 407.023 136.84 407.915 135.476 407.915ZM153.544 402.77C153.404 400.159 151.428 398.236 148.312 398.236C144.864 398.236 142.662 400.535 142.662 404.23C142.662 407.99 144.864 410.246 148.334 410.246C151.363 410.246 153.394 408.495 153.555 405.777H150.633C150.439 407.034 149.623 407.786 148.366 407.786C146.809 407.786 145.842 406.497 145.842 404.23C145.842 402.007 146.809 400.696 148.355 400.696C149.645 400.696 150.45 401.556 150.633 402.77H153.544ZM156.681 396.926C157.594 396.926 158.313 396.195 158.313 395.314C158.313 394.423 157.594 393.703 156.681 393.703C155.768 393.703 155.048 394.423 155.048 395.314C155.048 396.195 155.768 396.926 156.681 396.926ZM155.123 409.999H158.26V398.483H155.123V409.999ZM160.354 409.999H163.491V403.393C163.491 401.899 164.383 400.868 165.79 400.868C167.197 400.868 167.906 401.728 167.906 403.231V409.999H171.043V402.576C171.043 399.88 169.604 398.269 167.047 398.269C165.274 398.269 164.061 399.106 163.448 400.535H163.384V398.483H160.354V409.999ZM178.294 414.339C181.742 414.339 184.041 412.577 184.041 409.838V398.483H180.947V400.492H180.894C180.292 399.171 178.992 398.301 177.338 398.301C174.416 398.301 172.611 400.546 172.611 404.198C172.611 407.797 174.47 409.967 177.284 409.967C178.949 409.967 180.303 409.129 180.84 407.904H180.904V409.924C180.904 411.256 180.002 412.147 178.38 412.147C177.188 412.147 176.285 411.61 176.038 410.815H172.966C173.213 412.867 175.265 414.339 178.294 414.339ZM178.348 407.55C176.79 407.55 175.823 406.325 175.823 404.22C175.823 402.125 176.801 400.814 178.348 400.814C179.916 400.814 180.915 402.146 180.915 404.22C180.915 406.304 179.916 407.55 178.348 407.55Z" fill="white"/>
<path d="M56.5 406C58.7091 406 60.5 404.209 60.5 402C60.5 399.791 58.7091 398 56.5 398C54.2909 398 52.5 399.791 52.5 402C52.5 404.209 54.2909 406 56.5 406Z" fill="white"/>
<path d="M239.5 406C241.709 406 243.5 404.209 243.5 402C243.5 399.791 241.709 398 239.5 398C237.291 398 235.5 399.791 235.5 402C235.5 404.209 237.291 406 239.5 406Z" fill="white"/>
<g filter="url(#filter4_di_980_12576)">
<path d="M231.5 426H64.5C60.0817 426 56.5 429.582 56.5 434V458C56.5 462.418 60.0817 466 64.5 466H231.5C235.918 466 239.5 462.418 239.5 458V434C239.5 429.582 235.918 426 231.5 426Z" fill="#1E2631"/>
<path d="M231.5 426.5H64.5C60.3579 426.5 57 429.858 57 434V458C57 462.142 60.3579 465.5 64.5 465.5H231.5C235.642 465.5 239 462.142 239 458V434C239 429.858 235.642 426.5 231.5 426.5Z" stroke="white"/>
</g>
<path d="M127.203 453.999V438.498H123.443L119.039 449.627H118.953L114.549 438.498H110.789V453.999H113.679V443.536H113.765L117.976 453.999H120.017L124.228 443.536H124.313V453.999H127.203ZM137.14 450.476C136.85 451.356 135.969 451.926 134.819 451.926C133.219 451.926 132.177 450.798 132.177 449.154V448.961H140.115V448.005C140.115 444.503 137.999 442.236 134.647 442.236C131.242 442.236 129.094 444.621 129.094 448.295C129.094 451.979 131.221 454.246 134.766 454.246C137.612 454.246 139.675 452.731 140.019 450.476H137.14ZM134.68 444.557C136.076 444.557 137.032 445.566 137.097 447.038H132.209C132.316 445.599 133.305 444.557 134.68 444.557ZM142.575 439.83V442.483H140.953V444.847H142.575V450.895C142.575 453.14 143.628 454.042 146.335 454.042C146.969 454.042 147.506 453.988 147.828 453.913V451.603C147.635 451.636 147.345 451.657 147.065 451.657C146.142 451.657 145.712 451.238 145.712 450.357V444.847H147.839V442.483H145.712V439.83H142.575ZM149.558 453.999H152.694V447.564C152.694 445.942 153.597 444.997 155.144 444.997C155.595 444.997 156.024 445.072 156.282 445.18V442.419C156.067 442.354 155.756 442.301 155.391 442.301C154.037 442.301 153.06 443.096 152.651 444.557H152.587V442.483H149.558V453.999ZM159.183 440.926C160.096 440.926 160.815 440.195 160.815 439.314C160.815 438.423 160.096 437.703 159.183 437.703C158.27 437.703 157.55 438.423 157.55 439.314C157.55 440.195 158.27 440.926 159.183 440.926ZM157.625 453.999H160.762V442.483H157.625V453.999ZM173.319 446.77C173.18 444.159 171.203 442.236 168.088 442.236C164.64 442.236 162.438 444.535 162.438 448.23C162.438 451.99 164.64 454.246 168.109 454.246C171.139 454.246 173.169 452.495 173.33 449.777H170.408C170.215 451.034 169.398 451.786 168.142 451.786C166.584 451.786 165.617 450.497 165.617 448.23C165.617 446.007 166.584 444.696 168.131 444.696C169.42 444.696 170.226 445.556 170.408 446.77H173.319ZM174.651 445.867C174.651 447.597 175.779 448.714 178.003 449.187L179.969 449.595C181.097 449.853 181.494 450.196 181.494 450.809C181.494 451.561 180.764 452.044 179.582 452.044C178.336 452.044 177.616 451.507 177.423 450.497H174.361C174.565 452.764 176.402 454.246 179.582 454.246C182.547 454.246 184.62 452.753 184.62 450.486C184.62 448.8 183.632 447.854 181.226 447.35L179.26 446.931C178.1 446.684 177.67 446.286 177.67 445.695C177.67 444.933 178.39 444.438 179.475 444.438C180.635 444.438 181.333 445.072 181.43 446.007H184.319C184.255 443.751 182.429 442.236 179.475 442.236C176.542 442.236 174.651 443.676 174.651 445.867Z" fill="white"/>
<path d="M56.5 450C58.7091 450 60.5 448.209 60.5 446C60.5 443.791 58.7091 442 56.5 442C54.2909 442 52.5 443.791 52.5 446C52.5 448.209 54.2909 450 56.5 450Z" fill="white"/>
<path d="M239.5 450C241.709 450 243.5 448.209 243.5 446C243.5 443.791 241.709 442 239.5 442C237.291 442 235.5 443.791 235.5 446C235.5 448.209 237.291 450 239.5 450Z" fill="white"/>
<g filter="url(#filter5_di_980_12576)">
<path d="M231.5 492H64.5C60.0817 492 56.5 495.582 56.5 500V524C56.5 528.418 60.0817 532 64.5 532H231.5C235.918 532 239.5 528.418 239.5 524V500C239.5 495.582 235.918 492 231.5 492Z" fill="#1E2631"/>
<path d="M231.5 492.5H64.5C60.3579 492.5 57 495.858 57 500V524C57 528.142 60.3579 531.5 64.5 531.5H231.5C235.642 531.5 239 528.142 239 524V500C239 495.858 235.642 492.5 231.5 492.5Z" stroke="white"/>
</g>
<path d="M100.789 504.498V519.999H106.708C111.359 519.999 114.099 517.109 114.099 512.189C114.099 507.27 111.359 504.498 106.708 504.498H100.789ZM104.033 507.173H106.321C109.179 507.173 110.79 508.956 110.79 512.2C110.79 515.552 109.222 517.313 106.321 517.313H104.033V507.173ZM119.276 520.182C120.716 520.182 122.145 519.462 122.789 518.237H122.854V519.999H125.883V512.082C125.883 509.762 123.96 508.236 121.006 508.236C117.955 508.236 116.054 509.772 115.936 512.007H118.804C118.954 511.158 119.695 510.578 120.866 510.578C122.048 510.578 122.8 511.201 122.8 512.275V513.038L119.899 513.21C117.031 513.382 115.42 514.596 115.42 516.69C115.42 518.764 117.085 520.182 119.276 520.182ZM120.308 517.915C119.244 517.915 118.535 517.378 118.535 516.519C118.535 515.702 119.201 515.176 120.372 515.09L122.8 514.939V515.777C122.8 517.023 121.672 517.915 120.308 517.915ZM128.751 505.83V508.483H127.129V510.847H128.751V516.895C128.751 519.14 129.804 520.042 132.511 520.042C133.145 520.042 133.682 519.988 134.004 519.913V517.603C133.811 517.636 133.521 517.657 133.241 517.657C132.317 517.657 131.888 517.238 131.888 516.357V510.847H134.015V508.483H131.888V505.83H128.751ZM139.042 520.182C140.481 520.182 141.91 519.462 142.555 518.237H142.619V519.999H145.648V512.082C145.648 509.762 143.726 508.236 140.771 508.236C137.721 508.236 135.819 509.772 135.701 512.007H138.569C138.72 511.158 139.461 510.578 140.632 510.578C141.813 510.578 142.565 511.201 142.565 512.275V513.038L139.665 513.21C136.797 513.382 135.186 514.596 135.186 516.69C135.186 518.764 136.851 520.182 139.042 520.182ZM140.073 517.915C139.01 517.915 138.301 517.378 138.301 516.519C138.301 515.702 138.967 515.176 140.138 515.09L142.565 514.939V515.777C142.565 517.023 141.438 517.915 140.073 517.915ZM154.521 520.182C157.422 520.182 159.194 517.947 159.194 514.241C159.194 510.524 157.411 508.301 154.511 508.301C152.867 508.301 151.589 509.117 150.955 510.481H150.891V504.498H147.754V519.999H150.848V518.022H150.912C151.546 519.365 152.835 520.182 154.521 520.182ZM153.437 510.814C154.994 510.814 155.982 512.146 155.982 514.241C155.982 516.347 155.005 517.657 153.437 517.657C151.911 517.657 150.88 516.325 150.88 514.241C150.88 512.179 151.922 510.814 153.437 510.814ZM164.243 520.182C165.683 520.182 167.111 519.462 167.756 518.237H167.82V519.999H170.85V512.082C170.85 509.762 168.927 508.236 165.973 508.236C162.922 508.236 161.021 509.772 160.902 512.007H163.771C163.921 511.158 164.662 510.578 165.833 510.578C167.015 510.578 167.767 511.201 167.767 512.275V513.038L164.866 513.21C161.998 513.382 160.387 514.596 160.387 516.69C160.387 518.764 162.052 520.182 164.243 520.182ZM165.274 517.915C164.211 517.915 163.502 517.378 163.502 516.519C163.502 515.702 164.168 515.176 165.339 515.09L167.767 514.939V515.777C167.767 517.023 166.639 517.915 165.274 517.915ZM172.687 511.867C172.687 513.597 173.814 514.714 176.038 515.187L178.004 515.595C179.132 515.853 179.529 516.196 179.529 516.809C179.529 517.561 178.799 518.044 177.617 518.044C176.371 518.044 175.651 517.507 175.458 516.497H172.396C172.601 518.764 174.438 520.246 177.617 520.246C180.582 520.246 182.655 518.753 182.655 516.486C182.655 514.8 181.667 513.854 179.261 513.35L177.295 512.931C176.135 512.684 175.705 512.286 175.705 511.695C175.705 510.933 176.425 510.438 177.51 510.438C178.67 510.438 179.368 511.072 179.465 512.007H182.354C182.29 509.751 180.464 508.236 177.51 508.236C174.577 508.236 172.687 509.676 172.687 511.867ZM191.829 516.476C191.539 517.356 190.658 517.926 189.509 517.926C187.908 517.926 186.866 516.798 186.866 515.154V514.961H194.805V514.005C194.805 510.503 192.688 508.236 189.337 508.236C185.932 508.236 183.783 510.621 183.783 514.295C183.783 517.979 185.91 520.246 189.455 520.246C192.302 520.246 194.364 518.731 194.708 516.476H191.829ZM189.369 510.557C190.766 510.557 191.722 511.566 191.786 513.038H186.898C187.006 511.599 187.994 510.557 189.369 510.557Z" fill="white"/>
<path d="M56.5 516C58.7091 516 60.5 514.209 60.5 512C60.5 509.791 58.7091 508 56.5 508C54.2909 508 52.5 509.791 52.5 512C52.5 514.209 54.2909 516 56.5 516Z" fill="white"/>
<path d="M239.5 516C241.709 516 243.5 514.209 243.5 512C243.5 509.791 241.709 508 239.5 508C237.291 508 235.5 509.791 235.5 512C235.5 514.209 237.291 516 239.5 516Z" fill="white"/>
<path d="M122.5 484C125.261 484 127.5 481.761 127.5 479C127.5 476.239 125.261 474 122.5 474C119.739 474 117.5 476.239 117.5 479C117.5 481.761 119.739 484 122.5 484Z" fill="white"/>
<path d="M148.5 484C151.261 484 153.5 481.761 153.5 479C153.5 476.239 151.261 474 148.5 474C145.739 474 143.5 476.239 143.5 479C143.5 481.761 145.739 484 148.5 484Z" fill="white"/>
<path d="M174.5 484C177.261 484 179.5 481.761 179.5 479C179.5 476.239 177.261 474 174.5 474C171.739 474 169.5 476.239 169.5 479C169.5 481.761 171.739 484 174.5 484Z" fill="white"/>
<path d="M247.5 278.5H48.5C44.3579 278.5 41 281.858 41 286V540C41 544.142 44.3579 547.5 48.5 547.5H247.5C251.642 547.5 255 544.142 255 540V286C255 281.858 251.642 278.5 247.5 278.5Z" stroke="white" stroke-linecap="round" stroke-linejoin="round" stroke-dasharray="12 12"/>
<g filter="url(#filter6_di_980_12576)">
<path d="M253.5 20H42.5C38.0817 20 34.5 23.5817 34.5 28V230C34.5 234.418 38.0817 238 42.5 238H253.5C257.918 238 261.5 234.418 261.5 230V28C261.5 23.5817 257.918 20 253.5 20Z" fill="#1E2631"/>
<path d="M253.5 20.5H42.5C38.3579 20.5 35 23.8579 35 28V230C35 234.142 38.3579 237.5 42.5 237.5H253.5C257.642 237.5 261 234.142 261 230V28C261 23.8579 257.642 20.5 253.5 20.5Z" stroke="white"/>
</g>
<path d="M34.5 28C34.5 23.5817 38.0817 20 42.5 20H253.5C257.918 20 261.5 23.5817 261.5 28V68H34.5V28Z" fill="white"/>
<path d="M93.1367 55V40.6445H98.1875V38.0898H85.0625V40.6445H90.125V55H93.1367ZM105.289 51.2852C104.973 52.3164 103.941 52.9961 102.582 52.9961C100.672 52.9961 99.4531 51.6602 99.4531 49.668V49.4922H108.137V48.543C108.137 44.7695 105.934 42.3203 102.406 42.3203C98.8203 42.3203 96.5469 44.9102 96.5469 48.8359C96.5469 52.7969 98.7969 55.2461 102.523 55.2461C105.465 55.2461 107.645 53.6289 108.02 51.2852H105.289ZM102.418 44.582C104.094 44.582 105.219 45.8125 105.277 47.5703H99.4766C99.5938 45.8359 100.777 44.582 102.418 44.582ZM120.969 47.0078C120.77 44.3945 118.742 42.3203 115.461 42.3203C111.852 42.3203 109.508 44.8164 109.508 48.7891C109.508 52.8203 111.852 55.2461 115.484 55.2461C118.602 55.2461 120.746 53.418 120.98 50.6406H118.227C117.957 52.0469 116.996 52.8906 115.52 52.8906C113.668 52.8906 112.473 51.3906 112.473 48.7891C112.473 46.2344 113.656 44.6875 115.496 44.6875C117.055 44.6875 117.98 45.6836 118.215 47.0078H120.969ZM122.809 55H125.727V47.8633C125.727 46.0352 126.793 44.8164 128.551 44.8164C130.238 44.8164 131.105 45.8594 131.105 47.5938V55H134.023V46.9961C134.023 44.1484 132.418 42.3438 129.676 42.3438C127.789 42.3438 126.418 43.1992 125.75 44.7109H125.691V38.0898H122.809V55ZM136.367 55H139.285V47.8047C139.285 46.0234 140.352 44.8164 142.027 44.8164C143.691 44.8164 144.512 45.8008 144.512 47.5586V55H147.43V46.9727C147.43 44.1016 145.871 42.3438 143.129 42.3438C141.219 42.3438 139.895 43.2344 139.227 44.7109H139.168V42.5781H136.367V55ZM155.27 55.2461C158.914 55.2461 161.281 52.8203 161.281 48.7891C161.281 44.7695 158.891 42.3203 155.27 42.3203C151.648 42.3203 149.258 44.7812 149.258 48.7891C149.258 52.8203 151.625 55.2461 155.27 55.2461ZM155.27 52.9375C153.418 52.9375 152.223 51.4375 152.223 48.7891C152.223 46.1523 153.43 44.6406 155.27 44.6406C157.121 44.6406 158.316 46.1523 158.316 48.7891C158.316 51.4375 157.121 52.9375 155.27 52.9375ZM163.238 55H166.156V38.0898H163.238V55ZM174.137 55.2461C177.781 55.2461 180.148 52.8203 180.148 48.7891C180.148 44.7695 177.758 42.3203 174.137 42.3203C170.516 42.3203 168.125 44.7812 168.125 48.7891C168.125 52.8203 170.492 55.2461 174.137 55.2461ZM174.137 52.9375C172.285 52.9375 171.09 51.4375 171.09 48.7891C171.09 46.1523 172.297 44.6406 174.137 44.6406C175.988 44.6406 177.184 46.1523 177.184 48.7891C177.184 51.4375 175.988 52.9375 174.137 52.9375ZM187.496 59.6875C191.117 59.6875 193.496 57.7656 193.496 54.8008V42.5781H190.637V44.7109H190.59C189.875 43.2812 188.445 42.3672 186.676 42.3672C183.5 42.3672 181.508 44.8164 181.508 48.7422C181.508 52.6094 183.547 55.0117 186.617 55.0117C188.398 55.0117 189.863 54.1211 190.508 52.7852H190.578V54.8828C190.578 56.4648 189.488 57.5312 187.59 57.5312C186.207 57.5312 185.141 56.8867 184.824 55.9375H181.93C182.223 58.1172 184.426 59.6875 187.496 59.6875ZM187.508 52.6914C185.668 52.6914 184.496 51.2148 184.496 48.7539C184.496 46.3164 185.668 44.7695 187.508 44.7695C189.371 44.7695 190.578 46.3398 190.578 48.7539C190.578 51.1797 189.371 52.6914 187.508 52.6914ZM197.27 59.6172C200.105 59.6172 201.477 58.5742 202.531 55.4922L207.031 42.5781H203.961L201.031 52.5156H200.973L198.055 42.5781H194.867L199.285 55.0117C199.297 55.0469 199.109 55.668 199.109 55.7031C198.793 56.8516 198.172 57.3086 196.965 57.3086C196.789 57.3086 196.273 57.2969 196.121 57.2617V59.5703C196.273 59.6055 197.094 59.6172 197.27 59.6172Z" fill="#1E2631"/>
<path d="M115.86 108V92.499H112.659L107.911 104.326H107.825L103.077 92.499H99.8652V108H102.368V97H102.443L106.923 108H108.813L113.293 97H113.368V108H115.86ZM119.728 94.8945C120.544 94.8945 121.189 94.2393 121.189 93.4443C121.189 92.6387 120.544 91.9941 119.728 91.9941C118.911 91.9941 118.256 92.6387 118.256 93.4443C118.256 94.2393 118.911 94.8945 119.728 94.8945ZM118.396 108H121.07V96.6133H118.396V108ZM133.349 100.674C133.166 98.2783 131.308 96.377 128.3 96.377C124.991 96.377 122.843 98.665 122.843 102.307C122.843 106.002 124.991 108.226 128.321 108.226C131.179 108.226 133.145 106.55 133.359 104.004H130.835C130.588 105.293 129.707 106.066 128.354 106.066C126.656 106.066 125.561 104.691 125.561 102.307C125.561 99.9648 126.646 98.5469 128.332 98.5469C129.761 98.5469 130.609 99.46 130.824 100.674H133.349ZM134.96 108H137.635V101.372C137.635 99.7715 138.548 98.7939 140.063 98.7939C140.514 98.7939 140.922 98.8584 141.147 98.9443V96.5273C140.954 96.4844 140.653 96.4199 140.31 96.4199C138.967 96.4199 137.968 97.2148 137.581 98.6006H137.527V96.6133H134.96V108ZM147.131 108.226C150.472 108.226 152.642 106.002 152.642 102.307C152.642 98.6221 150.45 96.377 147.131 96.377C143.812 96.377 141.62 98.6328 141.62 102.307C141.62 106.002 143.79 108.226 147.131 108.226ZM147.131 106.109C145.434 106.109 144.338 104.734 144.338 102.307C144.338 99.8896 145.444 98.5039 147.131 98.5039C148.828 98.5039 149.924 99.8896 149.924 102.307C149.924 104.734 148.828 106.109 147.131 106.109ZM154.36 108H157.035V101.404C157.035 99.7715 158.013 98.665 159.549 98.665C161.074 98.665 161.826 99.5674 161.826 101.179V108H164.501V100.642C164.501 98.0098 163.072 96.3984 160.559 96.3984C158.808 96.3984 157.594 97.2148 156.981 98.5684H156.928V96.6133H154.36V108ZM170.001 108.183C171.462 108.183 172.891 107.42 173.546 106.185H173.6V108H176.178V100.158C176.178 97.8701 174.341 96.377 171.516 96.377C168.615 96.377 166.8 97.9023 166.682 100.029H169.163C169.335 99.084 170.141 98.4717 171.408 98.4717C172.73 98.4717 173.535 99.1592 173.535 100.352V101.168L170.527 101.34C167.756 101.512 166.198 102.726 166.198 104.745C166.198 106.797 167.799 108.183 170.001 108.183ZM170.807 106.163C169.647 106.163 168.873 105.572 168.873 104.638C168.873 103.735 169.614 103.155 170.903 103.069L173.535 102.908V103.778C173.535 105.153 172.321 106.163 170.807 106.163ZM188.435 96.6133H185.76V103.198C185.76 104.853 184.804 105.948 183.257 105.948C181.753 105.948 180.958 105.067 180.958 103.435V96.6133H178.283V103.972C178.283 106.604 179.852 108.204 182.322 108.204C184.052 108.204 185.201 107.409 185.803 106.023H185.856V108H188.435V96.6133ZM191.367 93.9492V96.6133H189.734V98.6758H191.367V104.971C191.367 107.184 192.334 108.054 194.794 108.054C195.363 108.054 195.89 108.011 196.18 107.946V105.905C196.008 105.938 195.664 105.959 195.417 105.959C194.472 105.959 194.042 105.529 194.042 104.595V98.6758H196.19V96.6133H194.042V93.9492H191.367Z" fill="white"/>
<path d="M121.522 147.532V145.878H115.077V147.994H118.815L118.805 148.252C118.762 150.422 117.14 151.904 114.798 151.904C112.005 151.904 110.265 149.724 110.265 146.157C110.265 142.666 111.93 140.593 114.723 140.593C116.624 140.593 118.063 141.645 118.59 143.429H121.404C120.899 140.324 118.235 138.24 114.712 138.24C110.232 138.24 107.429 141.27 107.429 146.189C107.429 151.185 110.243 154.257 114.766 154.257C119.009 154.257 121.522 151.732 121.522 147.532ZM123.521 153.999H126.195V147.371C126.195 145.77 127.108 144.793 128.623 144.793C129.074 144.793 129.482 144.857 129.708 144.943V142.526C129.515 142.483 129.214 142.419 128.87 142.419C127.527 142.419 126.528 143.214 126.142 144.6H126.088V142.612H123.521V153.999ZM134.177 154.182C135.638 154.182 137.066 153.419 137.722 152.184H137.775V153.999H140.354V146.157C140.354 143.869 138.517 142.376 135.691 142.376C132.791 142.376 130.976 143.901 130.857 146.028H133.339C133.511 145.083 134.316 144.471 135.584 144.471C136.905 144.471 137.711 145.158 137.711 146.351V147.167L134.703 147.339C131.932 147.511 130.374 148.725 130.374 150.744C130.374 152.796 131.975 154.182 134.177 154.182ZM134.982 152.162C133.822 152.162 133.049 151.571 133.049 150.637C133.049 149.734 133.79 149.154 135.079 149.068L137.711 148.907V149.777C137.711 151.152 136.497 152.162 134.982 152.162ZM145.864 154.182C147.325 154.182 148.754 153.419 149.409 152.184H149.463V153.999H152.041V146.157C152.041 143.869 150.204 142.376 147.379 142.376C144.479 142.376 142.663 143.901 142.545 146.028H145.026C145.198 145.083 146.004 144.471 147.272 144.471C148.593 144.471 149.398 145.158 149.398 146.351V147.167L146.391 147.339C143.619 147.511 142.062 148.725 142.062 150.744C142.062 152.796 143.662 154.182 145.864 154.182ZM146.67 152.162C145.51 152.162 144.736 151.571 144.736 150.637C144.736 149.734 145.478 149.154 146.767 149.068L149.398 148.907V149.777C149.398 151.152 148.185 152.162 146.67 152.162ZM154.275 153.999H156.95V138.498H154.275V153.999ZM166.994 153.999L172.387 138.498H169.4L165.469 151.023H165.404L161.473 138.498H158.422L163.814 153.999H166.994ZM190.036 153.999V138.498H186.835L182.087 150.325H182.001L177.253 138.498H174.041V153.999H176.544V142.999H176.619L181.099 153.999H182.989L187.469 142.999H187.544V153.999H190.036ZM89.5967 181.999V171.128H89.6934L97.3955 181.999H99.7803V166.498H97.1162V177.358H97.0196L89.3281 166.498H86.9219V181.999H89.5967ZM105.323 182.182C106.784 182.182 108.213 181.419 108.868 180.184H108.922V181.999H111.5V174.157C111.5 171.869 109.663 170.376 106.838 170.376C103.938 170.376 102.122 171.901 102.004 174.028H104.485C104.657 173.083 105.463 172.471 106.73 172.471C108.052 172.471 108.857 173.158 108.857 174.351V175.167L105.85 175.339C103.078 175.511 101.521 176.725 101.521 178.744C101.521 180.796 103.121 182.182 105.323 182.182ZM106.129 180.162C104.969 180.162 104.195 179.571 104.195 178.637C104.195 177.734 104.937 177.154 106.226 177.068L108.857 176.907V177.777C108.857 179.152 107.644 180.162 106.129 180.162ZM114.4 167.948V170.612H112.768V172.675H114.4V178.97C114.4 181.183 115.367 182.053 117.827 182.053C118.397 182.053 118.923 182.01 119.213 181.945V179.904C119.041 179.937 118.697 179.958 118.45 179.958C117.505 179.958 117.075 179.528 117.075 178.594V172.675H119.224V170.612H117.075V167.948H114.4ZM122.446 168.894C123.263 168.894 123.907 168.238 123.907 167.443C123.907 166.638 123.263 165.993 122.446 165.993C121.63 165.993 120.975 166.638 120.975 167.443C120.975 168.238 121.63 168.894 122.446 168.894ZM121.114 181.999H123.789V170.612H121.114V181.999ZM136.057 170.612H133.264L130.621 179.518H130.567L127.925 170.612H125.067L129.106 181.999H132.05L136.057 170.612ZM144.511 178.594C144.221 179.539 143.275 180.162 142.029 180.162C140.278 180.162 139.161 178.937 139.161 177.111V176.95H147.121V176.08C147.121 172.621 145.102 170.376 141.868 170.376C138.581 170.376 136.497 172.75 136.497 176.349C136.497 179.979 138.56 182.225 141.976 182.225C144.672 182.225 146.67 180.742 147.014 178.594H144.511ZM141.879 172.449C143.415 172.449 144.446 173.577 144.5 175.188H139.183C139.29 173.599 140.375 172.449 141.879 172.449ZM156.295 181.999V166.498H153.523V181.999H156.295ZM158.755 181.999H161.43V175.027C161.43 173.652 162.332 172.653 163.621 172.653C164.867 172.653 165.641 173.437 165.641 174.705V181.999H168.24V174.963C168.24 173.599 169.121 172.653 170.41 172.653C171.721 172.653 172.451 173.448 172.451 174.845V181.999H175.126V174.189C175.126 171.912 173.654 170.397 171.409 170.397C169.766 170.397 168.412 171.278 167.864 172.686H167.8C167.381 171.225 166.231 170.397 164.62 170.397C163.073 170.397 161.87 171.268 161.376 172.589H161.322V170.612H158.755V181.999ZM180.626 182.182C182.087 182.182 183.516 181.419 184.171 180.184H184.225V181.999H186.803V174.157C186.803 171.869 184.966 170.376 182.141 170.376C179.24 170.376 177.425 171.901 177.307 174.028H179.788C179.96 173.083 180.766 172.471 182.033 172.471C183.355 172.471 184.16 173.158 184.16 174.351V175.167L181.152 175.339C178.381 175.511 176.823 176.725 176.823 178.744C176.823 180.796 178.424 182.182 180.626 182.182ZM181.432 180.162C180.272 180.162 179.498 179.571 179.498 178.637C179.498 177.734 180.239 177.154 181.528 177.068L184.16 176.907V177.777C184.16 179.152 182.946 180.162 181.432 180.162ZM193.979 186.296C197.298 186.296 199.479 184.534 199.479 181.816V170.612H196.857V172.567H196.814C196.159 171.257 194.849 170.419 193.227 170.419C190.315 170.419 188.489 172.664 188.489 176.263C188.489 179.808 190.358 182.01 193.173 182.01C194.806 182.01 196.148 181.193 196.739 179.969H196.804V181.892C196.804 183.342 195.805 184.319 194.064 184.319C192.797 184.319 191.819 183.728 191.529 182.858H188.876C189.145 184.856 191.164 186.296 193.979 186.296ZM193.989 179.883C192.303 179.883 191.229 178.529 191.229 176.273C191.229 174.039 192.303 172.621 193.989 172.621C195.697 172.621 196.804 174.061 196.804 176.273C196.804 178.497 195.697 179.883 193.989 179.883ZM209.2 178.594C208.91 179.539 207.965 180.162 206.719 180.162C204.968 180.162 203.851 178.937 203.851 177.111V176.95H211.811V176.08C211.811 172.621 209.791 170.376 206.558 170.376C203.271 170.376 201.187 172.75 201.187 176.349C201.187 179.979 203.249 182.225 206.665 182.225C209.361 182.225 211.359 180.742 211.703 178.594H209.2ZM206.568 172.449C208.105 172.449 209.136 173.577 209.189 175.188H203.872C203.98 173.599 205.064 172.449 206.568 172.449Z" fill="white"/>
<path d="M121.5 214C124.261 214 126.5 211.761 126.5 209C126.5 206.239 124.261 204 121.5 204C118.739 204 116.5 206.239 116.5 209C116.5 211.761 118.739 214 121.5 214Z" fill="white"/>
<path d="M147.5 214C150.261 214 152.5 211.761 152.5 209C152.5 206.239 150.261 204 147.5 204C144.739 204 142.5 206.239 142.5 209C142.5 211.761 144.739 214 147.5 214Z" fill="white"/>
<path d="M173.5 214C176.261 214 178.5 211.761 178.5 209C178.5 206.239 176.261 204 173.5 204C170.739 204 168.5 206.239 168.5 209C168.5 211.761 170.739 214 173.5 214Z" fill="white"/>
<path d="M34.5 149C36.7091 149 38.5 147.209 38.5 145C38.5 142.791 36.7091 141 34.5 141C32.2909 141 30.5 142.791 30.5 145C30.5 147.209 32.2909 149 34.5 149Z" fill="white"/>
</g>
<path d="M158.133 938.008L156.352 936.617L156.656 938.852H155.086L155.391 936.617L153.609 938.008L152.828 936.656L154.93 935.789L152.828 934.93L153.609 933.57L155.398 934.992L155.086 932.727H156.656L156.336 934.992L158.133 933.57L158.914 934.93L156.812 935.789L158.914 936.656L158.133 938.008Z" fill="#F68831"/>
<path d="M168.305 938.312H166.461C166.281 937.484 165.641 936.883 164.578 936.883C163.25 936.883 162.461 937.93 162.461 939.711C162.461 941.523 163.258 942.578 164.578 942.578C165.586 942.578 166.258 942.102 166.461 941.203H168.305C168.094 942.969 166.75 944.172 164.586 944.172C162.016 944.172 160.5 942.508 160.5 939.711C160.5 936.945 162.008 935.297 164.578 935.297C166.773 935.297 168.102 936.547 168.305 938.312ZM173.844 944.172C171.281 944.172 169.734 942.5 169.734 939.727C169.734 936.977 171.305 935.297 173.844 935.297C176.391 935.297 177.953 936.969 177.953 939.727C177.953 942.5 176.398 944.172 173.844 944.172ZM173.844 942.586C175.195 942.586 175.961 941.539 175.961 939.734C175.961 937.93 175.188 936.883 173.844 936.883C172.492 936.883 171.719 937.93 171.719 939.734C171.719 941.539 172.492 942.586 173.844 942.586ZM179.906 944V935.461H181.773V936.836H181.906C182.273 935.875 183.148 935.297 184.281 935.297C185.461 935.297 186.281 935.891 186.641 936.836H186.773C187.195 935.906 188.18 935.297 189.367 935.297C191.078 935.297 192.109 936.352 192.109 938.125V944H190.18V938.602C190.18 937.492 189.656 936.938 188.617 936.938C187.609 936.938 186.945 937.688 186.945 938.664V944H185.062V938.461C185.062 937.516 184.469 936.938 183.516 936.938C182.555 936.938 181.844 937.742 181.844 938.805V944H179.906ZM195.391 934.031C194.758 934.031 194.234 933.523 194.234 932.883C194.234 932.25 194.758 931.734 195.391 931.734C196.031 931.734 196.555 932.25 196.555 932.883C196.555 933.523 196.031 934.031 195.391 934.031ZM194.43 944V935.461H196.359V944H194.43ZM198.766 944V935.461H200.633V936.828H200.766C201.172 935.875 202.031 935.297 203.305 935.297C205.211 935.297 206.25 936.445 206.25 938.477V944H204.312V938.93C204.312 937.602 203.766 936.938 202.586 936.938C201.43 936.938 200.703 937.742 200.703 939.023V944H198.766ZM212.219 947.25C210.023 947.25 208.586 946.289 208.43 944.82H210.375C210.5 945.422 211.188 945.805 212.25 945.805C213.578 945.805 214.352 945.164 214.352 944.078V942.453H214.219C213.727 943.375 212.797 943.875 211.609 943.875C209.453 943.875 208.109 942.203 208.109 939.641C208.109 937.023 209.461 935.32 211.641 935.32C212.805 935.32 213.82 935.898 214.289 936.828H214.422V935.461H216.289V944.047C216.289 946.008 214.711 947.25 212.219 947.25ZM212.219 942.336C213.57 942.336 214.383 941.289 214.383 939.641C214.383 937.984 213.562 936.938 212.219 936.938C210.867 936.938 210.102 937.984 210.102 939.633C210.102 941.289 210.867 942.336 212.219 942.336ZM222.742 937.898C222.742 936.367 224.148 935.297 226.164 935.297C228.195 935.297 229.469 936.188 229.609 937.727H227.789C227.648 937.125 227.078 936.734 226.172 936.734C225.289 936.734 224.625 937.164 224.625 937.797C224.625 938.281 225.031 938.586 225.891 938.789L227.398 939.125C229.031 939.5 229.789 940.195 229.789 941.453C229.789 943.086 228.281 944.172 226.148 944.172C224.016 944.172 222.672 943.25 222.523 941.711H224.438C224.625 942.344 225.227 942.734 226.195 942.734C227.172 942.734 227.852 942.289 227.852 941.641C227.852 941.156 227.484 940.844 226.672 940.656L225.156 940.305C223.516 939.93 222.742 939.18 222.742 937.898ZM235.438 944.172C232.875 944.172 231.328 942.5 231.328 939.727C231.328 936.977 232.898 935.297 235.438 935.297C237.984 935.297 239.547 936.969 239.547 939.727C239.547 942.5 237.992 944.172 235.438 944.172ZM235.438 942.586C236.789 942.586 237.555 941.539 237.555 939.734C237.555 937.93 236.781 936.883 235.438 936.883C234.086 936.883 233.312 937.93 233.312 939.734C233.312 941.539 234.086 942.586 235.438 942.586ZM245.188 944.172C242.625 944.172 241.078 942.5 241.078 939.727C241.078 936.977 242.648 935.297 245.188 935.297C247.734 935.297 249.297 936.969 249.297 939.727C249.297 942.5 247.742 944.172 245.188 944.172ZM245.188 942.586C246.539 942.586 247.305 941.539 247.305 939.734C247.305 937.93 246.531 936.883 245.188 936.883C243.836 936.883 243.062 937.93 243.062 939.734C243.062 941.539 243.836 942.586 245.188 942.586ZM251.25 944V935.461H253.117V936.828H253.25C253.656 935.875 254.516 935.297 255.789 935.297C257.695 935.297 258.734 936.445 258.734 938.477V944H256.797V938.93C256.797 937.602 256.25 936.938 255.07 936.938C253.914 936.938 253.188 937.742 253.188 939.023V944H251.25Z" fill="white"/>
</g>
<defs>
<filter id="filter0_di_980_12576" x="14.5" y="568" width="259" height="368" filterUnits="userSpaceOnUse" color-interpolation-filters="sRGB">
<feFlood flood-opacity="0" result="BackgroundImageFix"/>
<feColorMatrix in="SourceAlpha" type="matrix" values="0 0 0 0 0 0 0 0 0 0 0 0 0 0 0 0 0 0 127 0" result="hardAlpha"/>
<feOffset dx="-4" dy="-4"/>
<feGaussianBlur stdDeviation="8"/>
<feComposite in2="hardAlpha" operator="out"/>
<feColorMatrix type="matrix" values="0 0 0 0 0.0901961 0 0 0 0 0.415686 0 0 0 0 1 0 0 0 0.05 0"/>
<feBlend mode="normal" in2="BackgroundImageFix" result="effect1_dropShadow_980_12576"/>
<feBlend mode="normal" in="SourceGraphic" in2="effect1_dropShadow_980_12576" result="shape"/>
<feColorMatrix in="SourceAlpha" type="matrix" values="0 0 0 0 0 0 0 0 0 0 0 0 0 0 0 0 0 0 127 0" result="hardAlpha"/>
<feOffset dx="8" dy="12"/>
<feGaussianBlur stdDeviation="9"/>
<feComposite in2="hardAlpha" operator="arithmetic" k2="-1" k3="1"/>
<feColorMatrix type="matrix" values="0 0 0 0 0.239216 0 0 0 0 0.513726 0 0 0 0 1 0 0 0 0.1 0"/>
<feBlend mode="normal" in2="shape" result="effect2_innerShadow_980_12576"/>
</filter>
<filter id="filter1_di_980_12576" x="36.5" y="274" width="215" height="72" filterUnits="userSpaceOnUse" color-interpolation-filters="sRGB">
<feFlood flood-opacity="0" result="BackgroundImageFix"/>
<feColorMatrix in="SourceAlpha" type="matrix" values="0 0 0 0 0 0 0 0 0 0 0 0 0 0 0 0 0 0 127 0" result="hardAlpha"/>
<feOffset dx="-4" dy="-4"/>
<feGaussianBlur stdDeviation="8"/>
<feComposite in2="hardAlpha" operator="out"/>
<feColorMatrix type="matrix" values="0 0 0 0 0.0901961 0 0 0 0 0.415686 0 0 0 0 1 0 0 0 0.05 0"/>
<feBlend mode="normal" in2="BackgroundImageFix" result="effect1_dropShadow_980_12576"/>
<feBlend mode="normal" in="SourceGraphic" in2="effect1_dropShadow_980_12576" result="shape"/>
<feColorMatrix in="SourceAlpha" type="matrix" values="0 0 0 0 0 0 0 0 0 0 0 0 0 0 0 0 0 0 127 0" result="hardAlpha"/>
<feOffset dx="8" dy="12"/>
<feGaussianBlur stdDeviation="9"/>
<feComposite in2="hardAlpha" operator="arithmetic" k2="-1" k3="1"/>
<feColorMatrix type="matrix" values="0 0 0 0 0.239216 0 0 0 0 0.513726 0 0 0 0 1 0 0 0 0.1 0"/>
<feBlend mode="normal" in2="shape" result="effect2_innerShadow_980_12576"/>
</filter>
<filter id="filter2_di_980_12576" x="36.5" y="318" width="215" height="72" filterUnits="userSpaceOnUse" color-interpolation-filters="sRGB">
<feFlood flood-opacity="0" result="BackgroundImageFix"/>
<feColorMatrix in="SourceAlpha" type="matrix" values="0 0 0 0 0 0 0 0 0 0 0 0 0 0 0 0 0 0 127 0" result="hardAlpha"/>
<feOffset dx="-4" dy="-4"/>
<feGaussianBlur stdDeviation="8"/>
<feComposite in2="hardAlpha" operator="out"/>
<feColorMatrix type="matrix" values="0 0 0 0 0.0901961 0 0 0 0 0.415686 0 0 0 0 1 0 0 0 0.05 0"/>
<feBlend mode="normal" in2="BackgroundImageFix" result="effect1_dropShadow_980_12576"/>
<feBlend mode="normal" in="SourceGraphic" in2="effect1_dropShadow_980_12576" result="shape"/>
<feColorMatrix in="SourceAlpha" type="matrix" values="0 0 0 0 0 0 0 0 0 0 0 0 0 0 0 0 0 0 127 0" result="hardAlpha"/>
<feOffset dx="8" dy="12"/>
<feGaussianBlur stdDeviation="9"/>
<feComposite in2="hardAlpha" operator="arithmetic" k2="-1" k3="1"/>
<feColorMatrix type="matrix" values="0 0 0 0 0.239216 0 0 0 0 0.513726 0 0 0 0 1 0 0 0 0.1 0"/>
<feBlend mode="normal" in2="shape" result="effect2_innerShadow_980_12576"/>
</filter>
<filter id="filter3_di_980_12576" x="36.5" y="362" width="215" height="72" filterUnits="userSpaceOnUse" color-interpolation-filters="sRGB">
<feFlood flood-opacity="0" result="BackgroundImageFix"/>
<feColorMatrix in="SourceAlpha" type="matrix" values="0 0 0 0 0 0 0 0 0 0 0 0 0 0 0 0 0 0 127 0" result="hardAlpha"/>
<feOffset dx="-4" dy="-4"/>
<feGaussianBlur stdDeviation="8"/>
<feComposite in2="hardAlpha" operator="out"/>
<feColorMatrix type="matrix" values="0 0 0 0 0.0901961 0 0 0 0 0.415686 0 0 0 0 1 0 0 0 0.05 0"/>
<feBlend mode="normal" in2="BackgroundImageFix" result="effect1_dropShadow_980_12576"/>
<feBlend mode="normal" in="SourceGraphic" in2="effect1_dropShadow_980_12576" result="shape"/>
<feColorMatrix in="SourceAlpha" type="matrix" values="0 0 0 0 0 0 0 0 0 0 0 0 0 0 0 0 0 0 127 0" result="hardAlpha"/>
<feOffset dx="8" dy="12"/>
<feGaussianBlur stdDeviation="9"/>
<feComposite in2="hardAlpha" operator="arithmetic" k2="-1" k3="1"/>
<feColorMatrix type="matrix" values="0 0 0 0 0.239216 0 0 0 0 0.513726 0 0 0 0 1 0 0 0 0.1 0"/>
<feBlend mode="normal" in2="shape" result="effect2_innerShadow_980_12576"/>
</filter>
<filter id="filter4_di_980_12576" x="36.5" y="406" width="215" height="72" filterUnits="userSpaceOnUse" color-interpolation-filters="sRGB">
<feFlood flood-opacity="0" result="BackgroundImageFix"/>
<feColorMatrix in="SourceAlpha" type="matrix" values="0 0 0 0 0 0 0 0 0 0 0 0 0 0 0 0 0 0 127 0" result="hardAlpha"/>
<feOffset dx="-4" dy="-4"/>
<feGaussianBlur stdDeviation="8"/>
<feComposite in2="hardAlpha" operator="out"/>
<feColorMatrix type="matrix" values="0 0 0 0 0.0901961 0 0 0 0 0.415686 0 0 0 0 1 0 0 0 0.05 0"/>
<feBlend mode="normal" in2="BackgroundImageFix" result="effect1_dropShadow_980_12576"/>
<feBlend mode="normal" in="SourceGraphic" in2="effect1_dropShadow_980_12576" result="shape"/>
<feColorMatrix in="SourceAlpha" type="matrix" values="0 0 0 0 0 0 0 0 0 0 0 0 0 0 0 0 0 0 127 0" result="hardAlpha"/>
<feOffset dx="8" dy="12"/>
<feGaussianBlur stdDeviation="9"/>
<feComposite in2="hardAlpha" operator="arithmetic" k2="-1" k3="1"/>
<feColorMatrix type="matrix" values="0 0 0 0 0.239216 0 0 0 0 0.513726 0 0 0 0 1 0 0 0 0.1 0"/>
<feBlend mode="normal" in2="shape" result="effect2_innerShadow_980_12576"/>
</filter>
<filter id="filter5_di_980_12576" x="36.5" y="472" width="215" height="72" filterUnits="userSpaceOnUse" color-interpolation-filters="sRGB">
<feFlood flood-opacity="0" result="BackgroundImageFix"/>
<feColorMatrix in="SourceAlpha" type="matrix" values="0 0 0 0 0 0 0 0 0 0 0 0 0 0 0 0 0 0 127 0" result="hardAlpha"/>
<feOffset dx="-4" dy="-4"/>
<feGaussianBlur stdDeviation="8"/>
<feComposite in2="hardAlpha" operator="out"/>
<feColorMatrix type="matrix" values="0 0 0 0 0.0901961 0 0 0 0 0.415686 0 0 0 0 1 0 0 0 0.05 0"/>
<feBlend mode="normal" in2="BackgroundImageFix" result="effect1_dropShadow_980_12576"/>
<feBlend mode="normal" in="SourceGraphic" in2="effect1_dropShadow_980_12576" result="shape"/>
<feColorMatrix in="SourceAlpha" type="matrix" values="0 0 0 0 0 0 0 0 0 0 0 0 0 0 0 0 0 0 127 0" result="hardAlpha"/>
<feOffset dx="8" dy="12"/>
<feGaussianBlur stdDeviation="9"/>
<feComposite in2="hardAlpha" operator="arithmetic" k2="-1" k3="1"/>
<feColorMatrix type="matrix" values="0 0 0 0 0.239216 0 0 0 0 0.513726 0 0 0 0 1 0 0 0 0.1 0"/>
<feBlend mode="normal" in2="shape" result="effect2_innerShadow_980_12576"/>
</filter>
<filter id="filter6_di_980_12576" x="14.5" y="0" width="259" height="250" filterUnits="userSpaceOnUse" color-interpolation-filters="sRGB">
<feFlood flood-opacity="0" result="BackgroundImageFix"/>
<feColorMatrix in="SourceAlpha" type="matrix" values="0 0 0 0 0 0 0 0 0 0 0 0 0 0 0 0 0 0 127 0" result="hardAlpha"/>
<feOffset dx="-4" dy="-4"/>
<feGaussianBlur stdDeviation="8"/>
<feComposite in2="hardAlpha" operator="out"/>
<feColorMatrix type="matrix" values="0 0 0 0 0.0901961 0 0 0 0 0.415686 0 0 0 0 1 0 0 0 0.05 0"/>
<feBlend mode="normal" in2="BackgroundImageFix" result="effect1_dropShadow_980_12576"/>
<feBlend mode="normal" in="SourceGraphic" in2="effect1_dropShadow_980_12576" result="shape"/>
<feColorMatrix in="SourceAlpha" type="matrix" values="0 0 0 0 0 0 0 0 0 0 0 0 0 0 0 0 0 0 127 0" result="hardAlpha"/>
<feOffset dx="8" dy="12"/>
<feGaussianBlur stdDeviation="9"/>
<feComposite in2="hardAlpha" operator="arithmetic" k2="-1" k3="1"/>
<feColorMatrix type="matrix" values="0 0 0 0 0.239216 0 0 0 0 0.513726 0 0 0 0 1 0 0 0 0.1 0"/>
<feBlend mode="normal" in2="shape" result="effect2_innerShadow_980_12576"/>
</filter>
<clipPath id="clip0_980_12576">
<rect width="296" height="954" fill="white"/>
</clipPath>
</defs>
</svg>
