<svg width="48" height="48" viewBox="0 0 48 48" fill="none" xmlns="http://www.w3.org/2000/svg">
<g clip-path="url(#clip0_328_73036)">
<path d="M0 4C0 1.79086 1.79086 0 4 0H44C46.2091 0 48 1.79086 48 4V44C48 46.2091 46.2091 48 44 48H4C1.79086 48 0 46.2091 0 44V4Z" fill="url(#paint0_linear_328_73036)"/>
<path d="M36.7991 31.0206C34.2931 28.5146 34.4575 28.6733 34.3869 28.6213L27.7535 23.7237L30.3268 21.1506C32.3957 21.8878 34.7382 21.3781 36.3146 19.8016C38.0322 18.0841 38.483 15.4583 37.4365 13.2677C37.1926 12.7573 36.5162 12.6417 36.1167 13.0413L33.9953 15.1627C33.6756 15.4824 33.1555 15.4824 32.8355 15.1627C32.515 14.8421 32.515 14.3235 32.8355 14.003L34.957 11.8815C35.357 11.4816 35.2406 10.8053 34.7306 10.5617C32.54 9.51525 29.9142 9.96609 28.1966 11.6836C26.6198 13.2604 26.1107 15.603 26.8477 17.6713L23.8799 20.6389C23.2757 20.1689 24.073 20.9716 18.382 14.9371L18.9785 14.3405C19.3559 13.9632 19.2772 13.3315 18.8206 13.0575L14.4284 10.4221C13.2771 9.73132 11.81 9.9119 10.8606 10.8613C9.91119 11.8107 9.73056 13.2779 10.4214 14.4292L13.0567 18.8214C13.3311 19.2789 13.9632 19.3559 14.3397 18.9794L14.9024 18.4167C20.5639 24.4201 19.8188 23.6046 20.2663 24.1801C20.2769 24.1937 20.2887 24.2057 20.3 24.2185L17.6684 26.8499C15.6001 26.1129 13.2574 26.622 11.6807 28.1989C9.96315 29.9164 9.5123 32.5421 10.5589 34.7328C10.8028 35.2433 11.4791 35.3588 11.8787 34.9592L14.0001 32.8378C14.3199 32.518 14.8401 32.5181 15.1598 32.8378C15.4803 33.1583 15.4803 33.677 15.1598 33.9975L13.0383 36.1189C12.6383 36.5188 12.7547 37.1951 13.2647 37.4387C14.0521 37.8149 14.8955 37.9976 15.733 37.9976C17.2254 37.9975 18.6985 37.4171 19.7987 36.3169C21.3756 34.7401 21.8846 32.3975 21.1476 30.3291L23.3951 28.0818L28.6278 34.4409C28.6676 34.4891 28.5362 34.3547 30.8766 36.695C31.7286 37.547 32.8612 37.9887 33.9751 37.9887C34.7923 37.9887 35.5994 37.7507 36.2774 37.2625C38.3463 35.7724 38.5902 32.8115 36.7991 31.0206ZM15.5162 16.6772C15.1983 16.3401 14.6654 16.3342 14.3397 16.66L13.9226 17.077L11.8277 13.5854C11.5249 13.0806 11.604 12.4373 12.0203 12.021C12.4366 11.6047 13.0798 11.5256 13.5846 11.8285L17.0762 13.9234L16.6591 14.3404C16.3455 14.6541 16.338 15.1603 16.6423 15.4829C23.1814 22.4167 22.1528 21.3733 22.7111 21.8075L21.4666 23.0519C21.0364 22.4988 22.0351 23.5896 15.5162 16.6772ZM19.6007 29.5565C19.3549 29.8023 19.2908 30.1762 19.4406 30.4899C20.1881 32.0546 19.8659 33.9302 18.639 35.1571C17.8529 35.9432 16.8007 36.358 15.7344 36.3578C15.5426 36.3578 15.3505 36.3444 15.1592 36.3173L16.3195 35.1571C17.2809 34.1957 17.2811 32.6394 16.3195 31.6779C15.3603 30.7187 13.7995 30.7187 12.8403 31.6779L11.6801 32.8382C11.5024 31.5839 11.9129 30.2859 12.8403 29.3585C14.0673 28.1315 15.9428 27.8094 17.5076 28.5568C17.8211 28.7066 18.195 28.6426 18.4409 28.3968L28.3946 18.4438C28.6404 18.198 28.7045 17.8241 28.5547 17.5105C27.8072 15.9458 28.1294 14.0701 29.3563 12.8432C30.2839 11.9157 31.5818 11.5053 32.836 11.683L31.6757 12.8432C31.211 13.3078 30.9551 13.9257 30.9551 14.5828C30.9551 15.2399 31.211 15.8577 31.6757 16.3224C32.6349 17.2816 34.1957 17.2816 35.1549 16.3224L36.3151 15.1622C36.4928 16.4164 36.0823 17.7144 35.1549 18.6418C33.9279 19.8688 32.0523 20.191 30.4876 19.4435C30.1741 19.2937 29.8001 19.3578 29.5543 19.6036L19.6007 29.5565ZM24.5568 26.9201L26.5807 24.8964L28.6435 26.4193L26.179 28.8838C24.5033 26.8476 24.6079 26.9703 24.5568 26.9201ZM35.3188 35.9317C34.3624 36.6205 32.9511 36.4503 32.0362 35.5353L29.8688 33.3681L27.2259 30.1562L29.9777 27.4045L33.3634 29.9042L35.6394 32.1802C36.6797 33.2205 36.6129 34.9997 35.3188 35.9317Z" fill="white"/>
<path d="M34.4653 33.1981L31.185 29.9179C30.8649 29.5977 30.3456 29.5977 30.0253 29.9179C29.7051 30.2382 29.7051 30.7574 30.0253 31.0776L33.3056 34.3578C33.6258 34.678 34.145 34.6781 34.4653 34.3578C34.7855 34.0376 34.7855 33.5184 34.4653 33.1981Z" fill="white"/>
</g>
<defs>
<linearGradient id="paint0_linear_328_73036" x1="8.29947e-07" y1="21.84" x2="48" y2="22.56" gradientUnits="userSpaceOnUse">
<stop stop-color="#F77468"/>
<stop offset="1" stop-color="#F68831"/>
</linearGradient>
<clipPath id="clip0_328_73036">
<rect width="48" height="48" fill="white"/>
</clipPath>
</defs>
</svg>
