<svg width="498" height="322" viewBox="0 0 498 322" fill="none" xmlns="http://www.w3.org/2000/svg">
<g filter="url(#filter0_dd_584_3024)">
<rect x="20" y="20" width="452" height="272" rx="8" fill="#171923"/>
<rect x="20.25" y="20.25" width="451.5" height="271.5" rx="7.75" stroke="white" stroke-opacity="0.2" stroke-width="0.5"/>
</g>
<path d="M297 20H464C468.418 20 472 23.5817 472 28V92H305C300.582 92 297 88.4183 297 84V20Z" fill="white"/>
<path d="M336.523 57.8984V55.9883H329.398V58.5664H333.078L333.066 58.8359C332.996 60.9336 331.391 62.3516 329.082 62.3516C326.27 62.3516 324.488 60.1133 324.488 56.4453C324.488 52.8477 326.164 50.7266 328.953 50.7266C330.863 50.7266 332.305 51.7812 332.82 53.5508H336.371C335.867 50.1289 332.891 47.7969 328.941 47.7969C323.973 47.7969 320.879 51.0781 320.879 56.4922C320.879 61.9883 323.973 65.2812 329.023 65.2812C333.734 65.2812 336.523 62.5039 336.523 57.8984ZM346.344 65.2812C350.492 65.2812 353.387 62.9023 353.785 59.1289H350.34C349.965 61.1328 348.453 62.3633 346.355 62.3633C343.648 62.3633 341.949 60.1367 341.949 56.5273C341.949 52.9648 343.672 50.7266 346.344 50.7266C348.406 50.7266 350 52.0859 350.328 54.1602H353.773C353.504 50.375 350.41 47.7969 346.344 47.7969C341.445 47.7969 338.34 51.0898 338.34 56.5391C338.34 62 341.422 65.2812 346.344 65.2812ZM359.363 65V53.9258H359.469L367.379 65H370.309V48.0898H366.922V59.1055H366.828L358.93 48.0898H355.977V65H359.363ZM385.473 65V51.0078H390.371V48.0898H377.047V51.0078H381.934V65H385.473ZM395.035 65.2695C398.832 65.2695 401.258 62.8438 401.258 58.707C401.258 54.6289 398.797 52.168 395.035 52.168C391.273 52.168 388.812 54.6406 388.812 58.707C388.812 62.832 391.238 65.2695 395.035 65.2695ZM395.035 62.6562C393.348 62.6562 392.281 61.2383 392.281 58.7188C392.281 56.2227 393.371 54.7812 395.035 54.7812C396.699 54.7812 397.777 56.2227 397.777 58.7188C397.777 61.2383 396.711 62.6562 395.035 62.6562ZM408.793 65.2695C412.59 65.2695 415.016 62.8438 415.016 58.707C415.016 54.6289 412.555 52.168 408.793 52.168C405.031 52.168 402.57 54.6406 402.57 58.707C402.57 62.832 404.996 65.2695 408.793 65.2695ZM408.793 62.6562C407.105 62.6562 406.039 61.2383 406.039 58.7188C406.039 56.2227 407.129 54.7812 408.793 54.7812C410.457 54.7812 411.535 56.2227 411.535 58.7188C411.535 61.2383 410.469 62.6562 408.793 62.6562ZM416.867 65H420.289V48.0898H416.867V65ZM426.148 57.4766H426.102V48.0898H422.68V65H426.102V60.8516L426.992 59.8906L430.59 65H434.527L429.5 57.8281L434.293 52.4375H430.414L426.148 57.4766ZM437.27 50.7383C438.266 50.7383 439.051 49.9414 439.051 48.9805C439.051 48.0078 438.266 47.2227 437.27 47.2227C436.273 47.2227 435.488 48.0078 435.488 48.9805C435.488 49.9414 436.273 50.7383 437.27 50.7383ZM435.57 65H438.992V52.4375H435.57V65ZM442.191 49.543V52.4375H440.422V55.0156H442.191V61.6133C442.191 64.0625 443.34 65.0469 446.293 65.0469C446.984 65.0469 447.57 64.9883 447.922 64.9062V62.3867C447.711 62.4219 447.395 62.4453 447.09 62.4453C446.082 62.4453 445.613 61.9883 445.613 61.0273V55.0156H447.934V52.4375H445.613V49.543H442.191Z" fill="#1E2631"/>
<rect x="39.5" y="36.5" width="241" height="239" rx="7.5" stroke="white" stroke-opacity="0.2" stroke-linecap="round" stroke-linejoin="round" stroke-dasharray="12 12"/>
<g filter="url(#filter1_dd_584_3024)">
<rect x="55" y="52" width="210" height="144" rx="8" fill="#1E2631"/>
<rect x="55.5" y="52.5" width="209" height="143" rx="7.5" stroke="white" stroke-opacity="0.2"/>
</g>
<path fill-rule="evenodd" clip-rule="evenodd" d="M291 181H330C330.552 181 331 181.448 331 182V182C331 182.552 330.552 183 330 183H293C291.895 183 291 183.895 291 185V211C291 212.105 291.895 213 293 213H330C330.552 213 331 213.448 331 214V214C331 214.552 330.552 215 330 215H293C291.895 215 291 215.895 291 217V243C291 244.105 291.895 245 293 245H330C330.552 245 331 245.448 331 246V246C331 246.552 330.552 247 330 247H291V247C289.895 247 289 246.105 289 245V237C289 235.895 288.105 235 287 235H267C266.448 235 266 234.552 266 234V234C266 233.448 266.448 233 267 233H287C288.105 233 289 232.105 289 231L289 183C289 181.895 289.895 181 291 181V181Z" fill="#FF9142"/>
<rect x="160" y="208" width="12" height="2" transform="rotate(-90 160 208)" fill="#FF9142"/>
<g filter="url(#filter2_dd_584_3024)">
<rect x="333" y="168" width="105" height="28" rx="4" fill="#1E2631"/>
<rect x="333.5" y="168.5" width="104" height="27" rx="3.5" stroke="white" stroke-opacity="0.2"/>
</g>
<path d="M370.32 188H372.828L368.906 176.727H366.133L362.219 188H364.641L365.5 185.266H369.461L370.32 188ZM367.453 178.883H367.508L368.953 183.5H366.008L367.453 178.883ZM373.844 188H376.125V176.727H373.844V188ZM382.555 179.492C381.344 179.492 380.414 180.102 379.961 181.086H379.914V179.625H377.664V190.734H379.945V186.594H379.992C380.438 187.539 381.375 188.133 382.594 188.133C384.688 188.133 385.984 186.508 385.984 183.812C385.984 181.109 384.68 179.492 382.555 179.492ZM381.789 186.297C380.672 186.297 379.938 185.328 379.938 183.812C379.938 182.312 380.672 181.32 381.789 181.32C382.93 181.32 383.648 182.297 383.648 183.812C383.648 185.336 382.93 186.297 381.789 186.297ZM388.336 178.492C389 178.492 389.523 177.961 389.523 177.32C389.523 176.672 389 176.148 388.336 176.148C387.672 176.148 387.148 176.672 387.148 177.32C387.148 177.961 387.672 178.492 388.336 178.492ZM387.203 188H389.484V179.625H387.203V188ZM391.008 188H393.289V183.195C393.289 182.109 393.938 181.359 394.961 181.359C395.984 181.359 396.5 181.984 396.5 183.078V188H398.781V182.602C398.781 180.641 397.734 179.469 395.875 179.469C394.586 179.469 393.703 180.078 393.258 181.117H393.211V179.625H391.008V188ZM405.773 185.438C405.562 186.078 404.922 186.492 404.086 186.492C402.922 186.492 402.164 185.672 402.164 184.477V184.336H407.938V183.641C407.938 181.094 406.398 179.445 403.961 179.445C401.484 179.445 399.922 181.18 399.922 183.852C399.922 186.531 401.469 188.18 404.047 188.18C406.117 188.18 407.617 187.078 407.867 185.438H405.773ZM403.984 181.133C405 181.133 405.695 181.867 405.742 182.938H402.188C402.266 181.891 402.984 181.133 403.984 181.133Z" fill="white"/>
<circle cx="333" cy="182" r="3" fill="white"/>
<g filter="url(#filter3_dd_584_3024)">
<rect x="333" y="200" width="105" height="28" rx="4" fill="#1E2631"/>
<rect x="333.5" y="200.5" width="104" height="27" rx="3.5" stroke="white" stroke-opacity="0.2"/>
</g>
<path d="M349.938 208.727V220H354.242C357.625 220 359.617 217.898 359.617 214.32C359.617 210.742 357.625 208.727 354.242 208.727H349.938ZM352.297 210.672H353.961C356.039 210.672 357.211 211.969 357.211 214.328C357.211 216.766 356.07 218.047 353.961 218.047H352.297V210.672ZM362.117 210.492C362.781 210.492 363.305 209.961 363.305 209.32C363.305 208.672 362.781 208.148 362.117 208.148C361.453 208.148 360.93 208.672 360.93 209.32C360.93 209.961 361.453 210.492 362.117 210.492ZM360.984 220H363.266V211.625H360.984V220ZM364.648 214.086C364.648 215.344 365.469 216.156 367.086 216.5L368.516 216.797C369.336 216.984 369.625 217.234 369.625 217.68C369.625 218.227 369.094 218.578 368.234 218.578C367.328 218.578 366.805 218.188 366.664 217.453H364.438C364.586 219.102 365.922 220.18 368.234 220.18C370.391 220.18 371.898 219.094 371.898 217.445C371.898 216.219 371.18 215.531 369.43 215.164L368 214.859C367.156 214.68 366.844 214.391 366.844 213.961C366.844 213.406 367.367 213.047 368.156 213.047C369 213.047 369.508 213.508 369.578 214.188H371.68C371.633 212.547 370.305 211.445 368.156 211.445C366.023 211.445 364.648 212.492 364.648 214.086ZM373.633 209.695V211.625H372.453V213.344H373.633V217.742C373.633 219.375 374.398 220.031 376.367 220.031C376.828 220.031 377.219 219.992 377.453 219.938V218.258C377.312 218.281 377.102 218.297 376.898 218.297C376.227 218.297 375.914 217.992 375.914 217.352V213.344H377.461V211.625H375.914V209.695H373.633ZM378.711 220H380.992V215.32C380.992 214.141 381.648 213.453 382.773 213.453C383.102 213.453 383.414 213.508 383.602 213.586V211.578C383.445 211.531 383.219 211.492 382.953 211.492C381.969 211.492 381.258 212.07 380.961 213.133H380.914V211.625H378.711V220ZM388.102 220.18C390.633 220.18 392.25 218.562 392.25 215.805C392.25 213.086 390.609 211.445 388.102 211.445C385.594 211.445 383.953 213.094 383.953 215.805C383.953 218.555 385.57 220.18 388.102 220.18ZM388.102 218.438C386.977 218.438 386.266 217.492 386.266 215.812C386.266 214.148 386.992 213.188 388.102 213.188C389.211 213.188 389.93 214.148 389.93 215.812C389.93 217.492 389.219 218.438 388.102 218.438ZM393.484 220H395.766V208.727H393.484V220ZM402.852 217.438C402.641 218.078 402 218.492 401.164 218.492C400 218.492 399.242 217.672 399.242 216.477V216.336H405.016V215.641C405.016 213.094 403.477 211.445 401.039 211.445C398.562 211.445 397 213.18 397 215.852C397 218.531 398.547 220.18 401.125 220.18C403.195 220.18 404.695 219.078 404.945 217.438H402.852ZM401.062 213.133C402.078 213.133 402.773 213.867 402.82 214.938H399.266C399.344 213.891 400.062 213.133 401.062 213.133ZM406.055 214.086C406.055 215.344 406.875 216.156 408.492 216.5L409.922 216.797C410.742 216.984 411.031 217.234 411.031 217.68C411.031 218.227 410.5 218.578 409.641 218.578C408.734 218.578 408.211 218.188 408.07 217.453H405.844C405.992 219.102 407.328 220.18 409.641 220.18C411.797 220.18 413.305 219.094 413.305 217.445C413.305 216.219 412.586 215.531 410.836 215.164L409.406 214.859C408.562 214.68 408.25 214.391 408.25 213.961C408.25 213.406 408.773 213.047 409.562 213.047C410.406 213.047 410.914 213.508 410.984 214.188H413.086C413.039 212.547 411.711 211.445 409.562 211.445C407.43 211.445 406.055 212.492 406.055 214.086ZM414.289 214.086C414.289 215.344 415.109 216.156 416.727 216.5L418.156 216.797C418.977 216.984 419.266 217.234 419.266 217.68C419.266 218.227 418.734 218.578 417.875 218.578C416.969 218.578 416.445 218.188 416.305 217.453H414.078C414.227 219.102 415.562 220.18 417.875 220.18C420.031 220.18 421.539 219.094 421.539 217.445C421.539 216.219 420.82 215.531 419.07 215.164L417.641 214.859C416.797 214.68 416.484 214.391 416.484 213.961C416.484 213.406 417.008 213.047 417.797 213.047C418.641 213.047 419.148 213.508 419.219 214.188H421.32C421.273 212.547 419.945 211.445 417.797 211.445C415.664 211.445 414.289 212.492 414.289 214.086Z" fill="white"/>
<circle cx="333" cy="214" r="3" fill="white"/>
<g filter="url(#filter4_dd_584_3024)">
<rect x="333" y="232" width="105" height="28" rx="4" fill="#1E2631"/>
<rect x="333.5" y="232.5" width="104" height="27" rx="3.5" stroke="white" stroke-opacity="0.2"/>
</g>
<path d="M357.508 248.781C357.578 250.906 359.367 252.188 362.055 252.188C364.875 252.188 366.602 250.797 366.602 248.594C366.602 246.883 365.562 245.922 363.18 245.445L361.984 245.203C360.656 244.938 360.109 244.508 360.109 243.812C360.109 242.984 360.891 242.438 362.055 242.438C363.242 242.438 364.078 243.016 364.156 243.977H366.383C366.344 241.906 364.688 240.531 362.055 240.531C359.547 240.531 357.75 241.898 357.75 243.961C357.75 245.641 358.852 246.719 361.102 247.164L362.289 247.398C363.703 247.688 364.234 248.109 364.234 248.852C364.234 249.68 363.375 250.289 362.117 250.289C360.836 250.289 359.883 249.727 359.734 248.781H357.508ZM375.461 246.742C375.359 244.844 373.922 243.445 371.656 243.445C369.148 243.445 367.547 245.117 367.547 247.805C367.547 250.539 369.148 252.18 371.672 252.18C373.875 252.18 375.352 250.906 375.469 248.93H373.344C373.203 249.844 372.609 250.391 371.695 250.391C370.562 250.391 369.859 249.453 369.859 247.805C369.859 246.188 370.562 245.234 371.688 245.234C372.625 245.234 373.211 245.859 373.344 246.742H375.461ZM376.57 252H378.852V247.32C378.852 246.141 379.508 245.453 380.633 245.453C380.961 245.453 381.273 245.508 381.461 245.586V243.578C381.305 243.531 381.078 243.492 380.812 243.492C379.828 243.492 379.117 244.07 378.82 245.133H378.773V243.625H376.57V252ZM384.68 252.133C385.727 252.133 386.766 251.609 387.234 250.719H387.281V252H389.484V246.242C389.484 244.555 388.086 243.445 385.938 243.445C383.719 243.445 382.336 244.562 382.25 246.188H384.336C384.445 245.57 384.984 245.148 385.836 245.148C386.695 245.148 387.242 245.602 387.242 246.383V246.938L385.133 247.062C383.047 247.188 381.875 248.07 381.875 249.594C381.875 251.102 383.086 252.133 384.68 252.133ZM385.43 250.484C384.656 250.484 384.141 250.094 384.141 249.469C384.141 248.875 384.625 248.492 385.477 248.43L387.242 248.32V248.93C387.242 249.836 386.422 250.484 385.43 250.484ZM391.57 241.695V243.625H390.391V245.344H391.57V249.742C391.57 251.375 392.336 252.031 394.305 252.031C394.766 252.031 395.156 251.992 395.391 251.938V250.258C395.25 250.281 395.039 250.297 394.836 250.297C394.164 250.297 393.852 249.992 393.852 249.352V245.344H395.398V243.625H393.852V241.695H391.57ZM404.133 246.742C404.031 244.844 402.594 243.445 400.328 243.445C397.82 243.445 396.219 245.117 396.219 247.805C396.219 250.539 397.82 252.18 400.344 252.18C402.547 252.18 404.023 250.906 404.141 248.93H402.016C401.875 249.844 401.281 250.391 400.367 250.391C399.234 250.391 398.531 249.453 398.531 247.805C398.531 246.188 399.234 245.234 400.359 245.234C401.297 245.234 401.883 245.859 402.016 246.742H404.133ZM405.297 252H407.578V247.219C407.578 246.117 408.211 245.359 409.289 245.359C410.328 245.359 410.859 246.016 410.859 247.094V252H413.141V246.609C413.141 244.672 412.078 243.469 410.219 243.469C408.945 243.469 408.031 244.062 407.586 245.117H407.539V240.727H405.297V252Z" fill="white"/>
<circle cx="333" cy="246" r="3" fill="white"/>
<rect x="314.5" y="152.5" width="142" height="123" rx="7.5" stroke="white" stroke-opacity="0.2" stroke-linecap="round" stroke-linejoin="round" stroke-dasharray="12 12"/>
<g filter="url(#filter5_dd_584_3024)">
<rect x="55" y="208" width="210" height="52" rx="8" fill="#1E2631"/>
<rect x="55.5" y="208.5" width="209" height="51" rx="7.5" stroke="white" stroke-opacity="0.2"/>
</g>
<path d="M100.422 228V223.562H105.008V221.695H100.422V218.672H105.445V216.727H98.0625V228H100.422ZM108.773 228.133C109.82 228.133 110.859 227.609 111.328 226.719H111.375V228H113.578V222.242C113.578 220.555 112.18 219.445 110.031 219.445C107.812 219.445 106.43 220.562 106.344 222.188H108.43C108.539 221.57 109.078 221.148 109.93 221.148C110.789 221.148 111.336 221.602 111.336 222.383V222.938L109.227 223.062C107.141 223.188 105.969 224.07 105.969 225.594C105.969 227.102 107.18 228.133 108.773 228.133ZM109.523 226.484C108.75 226.484 108.234 226.094 108.234 225.469C108.234 224.875 108.719 224.492 109.57 224.43L111.336 224.32V224.93C111.336 225.836 110.516 226.484 109.523 226.484ZM114.914 222.086C114.914 223.344 115.734 224.156 117.352 224.5L118.781 224.797C119.602 224.984 119.891 225.234 119.891 225.68C119.891 226.227 119.359 226.578 118.5 226.578C117.594 226.578 117.07 226.188 116.93 225.453H114.703C114.852 227.102 116.188 228.18 118.5 228.18C120.656 228.18 122.164 227.094 122.164 225.445C122.164 224.219 121.445 223.531 119.695 223.164L118.266 222.859C117.422 222.68 117.109 222.391 117.109 221.961C117.109 221.406 117.633 221.047 118.422 221.047C119.266 221.047 119.773 221.508 119.844 222.188H121.945C121.898 220.547 120.57 219.445 118.422 219.445C116.289 219.445 114.914 220.492 114.914 222.086ZM123.898 217.695V219.625H122.719V221.344H123.898V225.742C123.898 227.375 124.664 228.031 126.633 228.031C127.094 228.031 127.484 227.992 127.719 227.938V226.258C127.578 226.281 127.367 226.297 127.164 226.297C126.492 226.297 126.18 225.992 126.18 225.352V221.344H127.727V219.625H126.18V217.695H123.898ZM134.633 228.133C135.68 228.133 136.719 227.609 137.188 226.719H137.234V228H139.438V222.242C139.438 220.555 138.039 219.445 135.891 219.445C133.672 219.445 132.289 220.562 132.203 222.188H134.289C134.398 221.57 134.938 221.148 135.789 221.148C136.648 221.148 137.195 221.602 137.195 222.383V222.938L135.086 223.062C133 223.188 131.828 224.07 131.828 225.594C131.828 227.102 133.039 228.133 134.633 228.133ZM135.383 226.484C134.609 226.484 134.094 226.094 134.094 225.469C134.094 224.875 134.578 224.492 135.43 224.43L137.195 224.32V224.93C137.195 225.836 136.375 226.484 135.383 226.484ZM140.914 228H143.195V223.195C143.195 222.109 143.844 221.359 144.867 221.359C145.891 221.359 146.406 221.984 146.406 223.078V228H148.688V222.602C148.688 220.641 147.641 219.469 145.781 219.469C144.492 219.469 143.609 220.078 143.164 221.117H143.117V219.625H140.914V228ZM153.242 228.133C154.477 228.133 155.445 227.484 155.852 226.562H155.891V228H158.141V216.727H155.859V221.062H155.812C155.406 220.133 154.469 219.492 153.258 219.492C151.156 219.492 149.828 221.141 149.828 223.797C149.828 226.477 151.148 228.133 153.242 228.133ZM154.016 221.32C155.148 221.32 155.875 222.289 155.875 223.812C155.875 225.344 155.148 226.297 154.016 226.297C152.867 226.297 152.164 225.352 152.164 223.812C152.164 222.281 152.867 221.32 154.016 221.32ZM170.5 226.047H165.391V223.203H170.211V221.391H165.391V218.672H170.5V216.727H163.031V228H170.5V226.047ZM172.617 228H174.898V221.344H176.508V219.664H174.844V219.109C174.844 218.516 175.172 218.188 175.922 218.188C176.148 218.188 176.375 218.203 176.539 218.234V216.727C176.273 216.672 175.797 216.625 175.375 216.625C173.391 216.625 172.617 217.391 172.617 219.031V219.664H171.477V221.344H172.617V228ZM178.32 228H180.602V221.344H182.211V219.664H180.547V219.109C180.547 218.516 180.875 218.188 181.625 218.188C181.852 218.188 182.078 218.203 182.242 218.234V216.727C181.977 216.672 181.5 216.625 181.078 216.625C179.094 216.625 178.32 217.391 178.32 219.031V219.664H177.18V221.344H178.32V228ZM184.586 218.492C185.25 218.492 185.773 217.961 185.773 217.32C185.773 216.672 185.25 216.148 184.586 216.148C183.922 216.148 183.398 216.672 183.398 217.32C183.398 217.961 183.922 218.492 184.586 218.492ZM183.453 228H185.734V219.625H183.453V228ZM194.867 222.742C194.766 220.844 193.328 219.445 191.062 219.445C188.555 219.445 186.953 221.117 186.953 223.805C186.953 226.539 188.555 228.18 191.078 228.18C193.281 228.18 194.758 226.906 194.875 224.93H192.75C192.609 225.844 192.016 226.391 191.102 226.391C189.969 226.391 189.266 225.453 189.266 223.805C189.266 222.188 189.969 221.234 191.094 221.234C192.031 221.234 192.617 221.859 192.75 222.742H194.867ZM197.148 218.492C197.812 218.492 198.336 217.961 198.336 217.32C198.336 216.672 197.812 216.148 197.148 216.148C196.484 216.148 195.961 216.672 195.961 217.32C195.961 217.961 196.484 218.492 197.148 218.492ZM196.016 228H198.297V219.625H196.016V228ZM205.367 225.438C205.156 226.078 204.516 226.492 203.68 226.492C202.516 226.492 201.758 225.672 201.758 224.477V224.336H207.531V223.641C207.531 221.094 205.992 219.445 203.555 219.445C201.078 219.445 199.516 221.18 199.516 223.852C199.516 226.531 201.062 228.18 203.641 228.18C205.711 228.18 207.211 227.078 207.461 225.438H205.367ZM203.578 221.133C204.594 221.133 205.289 221.867 205.336 222.938H201.781C201.859 221.891 202.578 221.133 203.578 221.133ZM208.711 228H210.992V223.195C210.992 222.109 211.641 221.359 212.664 221.359C213.688 221.359 214.203 221.984 214.203 223.078V228H216.484V222.602C216.484 220.641 215.438 219.469 213.578 219.469C212.289 219.469 211.406 220.078 210.961 221.117H210.914V219.625H208.711V228ZM218.539 217.695V219.625H217.359V221.344H218.539V225.742C218.539 227.375 219.305 228.031 221.273 228.031C221.734 228.031 222.125 227.992 222.359 227.938V226.258C222.219 226.281 222.008 226.297 221.805 226.297C221.133 226.297 220.82 225.992 220.82 225.352V221.344H222.367V219.625H220.82V217.695H218.539ZM116.562 240.727V252H120.867C124.25 252 126.242 249.898 126.242 246.32C126.242 242.742 124.25 240.727 120.867 240.727H116.562ZM118.922 242.672H120.586C122.664 242.672 123.836 243.969 123.836 246.328C123.836 248.766 122.695 250.047 120.586 250.047H118.922V242.672ZM133.117 249.438C132.906 250.078 132.266 250.492 131.43 250.492C130.266 250.492 129.508 249.672 129.508 248.477V248.336H135.281V247.641C135.281 245.094 133.742 243.445 131.305 243.445C128.828 243.445 127.266 245.18 127.266 247.852C127.266 250.531 128.812 252.18 131.391 252.18C133.461 252.18 134.961 251.078 135.211 249.438H133.117ZM131.328 245.133C132.344 245.133 133.039 245.867 133.086 246.938H129.531C129.609 245.891 130.328 245.133 131.328 245.133ZM141.352 243.492C140.141 243.492 139.211 244.102 138.758 245.086H138.711V243.625H136.461V254.734H138.742V250.594H138.789C139.234 251.539 140.172 252.133 141.391 252.133C143.484 252.133 144.781 250.508 144.781 247.812C144.781 245.109 143.477 243.492 141.352 243.492ZM140.586 250.297C139.469 250.297 138.734 249.328 138.734 247.812C138.734 246.312 139.469 245.32 140.586 245.32C141.727 245.32 142.445 246.297 142.445 247.812C142.445 249.336 141.727 250.297 140.586 250.297ZM146.016 252H148.297V240.727H146.016V252ZM153.68 252.18C156.211 252.18 157.828 250.562 157.828 247.805C157.828 245.086 156.188 243.445 153.68 243.445C151.172 243.445 149.531 245.094 149.531 247.805C149.531 250.555 151.148 252.18 153.68 252.18ZM153.68 250.438C152.555 250.438 151.844 249.492 151.844 247.812C151.844 246.148 152.57 245.188 153.68 245.188C154.789 245.188 155.508 246.148 155.508 247.812C155.508 249.492 154.797 250.438 153.68 250.438ZM159.883 255.102C162.016 255.102 163.07 254.328 163.781 252.18L166.664 243.625H164.258L162.484 250.172H162.438L160.656 243.625H158.156L161.07 252C161.078 252.039 160.992 252.367 160.992 252.406C160.836 253.07 160.422 253.336 159.594 253.336C159.508 253.336 159.094 253.328 159.016 253.312V255.078C159.094 255.094 159.797 255.102 159.883 255.102ZM167.508 252H169.789V246.945C169.789 246.008 170.375 245.352 171.242 245.352C172.086 245.352 172.594 245.883 172.594 246.781V252H174.789V246.914C174.789 245.984 175.359 245.352 176.227 245.352C177.109 245.352 177.594 245.883 177.594 246.852V252H179.875V246.281C179.875 244.594 178.773 243.469 177.133 243.469C175.906 243.469 174.906 244.133 174.531 245.188H174.484C174.203 244.094 173.359 243.469 172.148 243.469C171.008 243.469 170.109 244.133 169.758 245.141H169.711V243.625H167.508V252ZM186.867 249.438C186.656 250.078 186.016 250.492 185.18 250.492C184.016 250.492 183.258 249.672 183.258 248.477V248.336H189.031V247.641C189.031 245.094 187.492 243.445 185.055 243.445C182.578 243.445 181.016 245.18 181.016 247.852C181.016 250.531 182.562 252.18 185.141 252.18C187.211 252.18 188.711 251.078 188.961 249.438H186.867ZM185.078 245.133C186.094 245.133 186.789 245.867 186.836 246.938H183.281C183.359 245.891 184.078 245.133 185.078 245.133ZM190.211 252H192.492V247.195C192.492 246.109 193.141 245.359 194.164 245.359C195.188 245.359 195.703 245.984 195.703 247.078V252H197.984V246.602C197.984 244.641 196.938 243.469 195.078 243.469C193.789 243.469 192.906 244.078 192.461 245.117H192.414V243.625H190.211V252ZM200.039 241.695V243.625H198.859V245.344H200.039V249.742C200.039 251.375 200.805 252.031 202.773 252.031C203.234 252.031 203.625 251.992 203.859 251.938V250.258C203.719 250.281 203.508 250.297 203.305 250.297C202.633 250.297 202.32 249.992 202.32 249.352V245.344H203.867V243.625H202.32V241.695H200.039Z" fill="white"/>
<circle cx="265" cy="234" r="3" fill="white"/>
<circle cx="161" cy="208" r="3" fill="white"/>
<circle cx="161" cy="196" r="3" fill="white"/>
<path d="M55 60C55 55.5817 58.5817 52 63 52H257C261.418 52 265 55.5817 265 60V84H55V60Z" fill="white"/>
<path d="M90.0156 69.2656V67.9922H85.2656V69.7109H87.7188L87.7109 69.8906C87.6641 71.2891 86.5938 72.2344 85.0547 72.2344C83.1797 72.2344 81.9922 70.7422 81.9922 68.2969C81.9922 65.8984 83.1094 64.4844 84.9688 64.4844C86.2422 64.4844 87.2031 65.1875 87.5469 66.3672H89.9141C89.5781 64.0859 87.5938 62.5312 84.9609 62.5312C81.6484 62.5312 79.5859 64.7188 79.5859 68.3281C79.5859 71.9922 81.6484 74.1875 85.0156 74.1875C88.1562 74.1875 90.0156 72.3359 90.0156 69.2656ZM91.3828 74H93.6641V69.3203C93.6641 68.1406 94.3203 67.4531 95.4453 67.4531C95.7734 67.4531 96.0859 67.5078 96.2734 67.5859V65.5781C96.1172 65.5312 95.8906 65.4922 95.625 65.4922C94.6406 65.4922 93.9297 66.0703 93.6328 67.1328H93.5859V65.625H91.3828V74ZM99.4922 74.1328C100.539 74.1328 101.578 73.6094 102.047 72.7188H102.094V74H104.297V68.2422C104.297 66.5547 102.898 65.4453 100.75 65.4453C98.5312 65.4453 97.1484 66.5625 97.0625 68.1875H99.1484C99.2578 67.5703 99.7969 67.1484 100.648 67.1484C101.508 67.1484 102.055 67.6016 102.055 68.3828V68.9375L99.9453 69.0625C97.8594 69.1875 96.6875 70.0703 96.6875 71.5938C96.6875 73.1016 97.8984 74.1328 99.4922 74.1328ZM100.242 72.4844C99.4688 72.4844 98.9531 72.0938 98.9531 71.4688C98.9531 70.875 99.4375 70.4922 100.289 70.4297L102.055 70.3203V70.9297C102.055 71.8359 101.234 72.4844 100.242 72.4844ZM108.258 74.1328C109.305 74.1328 110.344 73.6094 110.812 72.7188H110.859V74H113.062V68.2422C113.062 66.5547 111.664 65.4453 109.516 65.4453C107.297 65.4453 105.914 66.5625 105.828 68.1875H107.914C108.023 67.5703 108.562 67.1484 109.414 67.1484C110.273 67.1484 110.82 67.6016 110.82 68.3828V68.9375L108.711 69.0625C106.625 69.1875 105.453 70.0703 105.453 71.5938C105.453 73.1016 106.664 74.1328 108.258 74.1328ZM109.008 72.4844C108.234 72.4844 107.719 72.0938 107.719 71.4688C107.719 70.875 108.203 70.4922 109.055 70.4297L110.82 70.3203V70.9297C110.82 71.8359 110 72.4844 109.008 72.4844ZM114.594 74H116.875V62.7266H114.594V74ZM124.523 74L128.312 62.7266H125.742L123.164 71.5703H123.109L120.531 62.7266H117.891L121.68 74H124.523ZM141.406 74V62.7266H138.672L135.469 70.8203H135.406L132.203 62.7266H129.469V74H131.57V66.3906H131.633L134.695 74H136.18L139.242 66.3906H139.305V74H141.406ZM148.711 74V66.6172H148.781L154.055 74H156.008V62.7266H153.75V70.0703H153.688L148.422 62.7266H146.453V74H148.711ZM160.008 74.1328C161.055 74.1328 162.094 73.6094 162.562 72.7188H162.609V74H164.812V68.2422C164.812 66.5547 163.414 65.4453 161.266 65.4453C159.047 65.4453 157.664 66.5625 157.578 68.1875H159.664C159.773 67.5703 160.312 67.1484 161.164 67.1484C162.023 67.1484 162.57 67.6016 162.57 68.3828V68.9375L160.461 69.0625C158.375 69.1875 157.203 70.0703 157.203 71.5938C157.203 73.1016 158.414 74.1328 160.008 74.1328ZM160.758 72.4844C159.984 72.4844 159.469 72.0938 159.469 71.4688C159.469 70.875 159.953 70.4922 160.805 70.4297L162.57 70.3203V70.9297C162.57 71.8359 161.75 72.4844 160.758 72.4844ZM166.898 63.6953V65.625H165.719V67.3438H166.898V71.7422C166.898 73.375 167.664 74.0312 169.633 74.0312C170.094 74.0312 170.484 73.9922 170.719 73.9375V72.2578C170.578 72.2812 170.367 72.2969 170.164 72.2969C169.492 72.2969 169.18 71.9922 169.18 71.3516V67.3438H170.727V65.625H169.18V63.6953H166.898ZM173.148 64.4922C173.812 64.4922 174.336 63.9609 174.336 63.3203C174.336 62.6719 173.812 62.1484 173.148 62.1484C172.484 62.1484 171.961 62.6719 171.961 63.3203C171.961 63.9609 172.484 64.4922 173.148 64.4922ZM172.016 74H174.297V65.625H172.016V74ZM183.477 65.625H181.094L179.359 71.9844H179.312L177.57 65.625H175.125L178.023 74H180.602L183.477 65.625ZM189.586 71.4375C189.375 72.0781 188.734 72.4922 187.898 72.4922C186.734 72.4922 185.977 71.6719 185.977 70.4766V70.3359H191.75V69.6406C191.75 67.0938 190.211 65.4453 187.773 65.4453C185.297 65.4453 183.734 67.1797 183.734 69.8516C183.734 72.5312 185.281 74.1797 187.859 74.1797C189.93 74.1797 191.43 73.0781 191.68 71.4375H189.586ZM187.797 67.1328C188.812 67.1328 189.508 67.8672 189.555 68.9375H186C186.078 67.8906 186.797 67.1328 187.797 67.1328ZM198.656 74V62.7266H196.297V74H198.656ZM200.336 74H202.617V68.9453C202.617 68.0078 203.203 67.3516 204.07 67.3516C204.914 67.3516 205.422 67.8828 205.422 68.7812V74H207.617V68.9141C207.617 67.9844 208.188 67.3516 209.055 67.3516C209.938 67.3516 210.422 67.8828 210.422 68.8516V74H212.703V68.2812C212.703 66.5938 211.602 65.4688 209.961 65.4688C208.734 65.4688 207.734 66.1328 207.359 67.1875H207.312C207.031 66.0938 206.188 65.4688 204.977 65.4688C203.836 65.4688 202.938 66.1328 202.586 67.1406H202.539V65.625H200.336V74ZM216.633 74.1328C217.68 74.1328 218.719 73.6094 219.188 72.7188H219.234V74H221.438V68.2422C221.438 66.5547 220.039 65.4453 217.891 65.4453C215.672 65.4453 214.289 66.5625 214.203 68.1875H216.289C216.398 67.5703 216.938 67.1484 217.789 67.1484C218.648 67.1484 219.195 67.6016 219.195 68.3828V68.9375L217.086 69.0625C215 69.1875 213.828 70.0703 213.828 71.5938C213.828 73.1016 215.039 74.1328 216.633 74.1328ZM217.383 72.4844C216.609 72.4844 216.094 72.0938 216.094 71.4688C216.094 70.875 216.578 70.4922 217.43 70.4297L219.195 70.3203V70.9297C219.195 71.8359 218.375 72.4844 217.383 72.4844ZM226.742 77.1562C229.25 77.1562 230.922 75.875 230.922 73.8828V65.625H228.672V67.0859H228.633C228.195 66.125 227.25 65.4922 226.047 65.4922C223.922 65.4922 222.609 67.125 222.609 69.7812C222.609 72.3984 223.961 73.9766 226.008 73.9766C227.219 73.9766 228.203 73.3672 228.594 72.4766H228.641V73.9453C228.641 74.9141 227.984 75.5625 226.805 75.5625C225.938 75.5625 225.281 75.1719 225.102 74.5938H222.867C223.047 76.0859 224.539 77.1562 226.742 77.1562ZM226.781 72.2188C225.648 72.2188 224.945 71.3281 224.945 69.7969C224.945 68.2734 225.656 67.3203 226.781 67.3203C227.922 67.3203 228.648 68.2891 228.648 69.7969C228.648 71.3125 227.922 72.2188 226.781 72.2188ZM237.961 71.4375C237.75 72.0781 237.109 72.4922 236.273 72.4922C235.109 72.4922 234.352 71.6719 234.352 70.4766V70.3359H240.125V69.6406C240.125 67.0938 238.586 65.4453 236.148 65.4453C233.672 65.4453 232.109 67.1797 232.109 69.8516C232.109 72.5312 233.656 74.1797 236.234 74.1797C238.305 74.1797 239.805 73.0781 240.055 71.4375H237.961ZM236.172 67.1328C237.188 67.1328 237.883 67.8672 237.93 68.9375H234.375C234.453 67.8906 235.172 67.1328 236.172 67.1328Z" fill="#1E2631"/>
<path d="M119.008 118V113.398H123.734V111.758H119.008V108.43H124.18V106.727H116.992V118H119.008ZM127.469 118.133C128.531 118.133 129.57 117.578 130.047 116.68H130.086V118H131.961V112.297C131.961 110.633 130.625 109.547 128.57 109.547C126.461 109.547 125.141 110.656 125.055 112.203H126.859C126.984 111.516 127.57 111.07 128.492 111.07C129.453 111.07 130.039 111.57 130.039 112.438V113.031L127.852 113.156C125.836 113.281 124.703 114.164 124.703 115.633C124.703 117.125 125.867 118.133 127.469 118.133ZM128.055 116.664C127.211 116.664 126.648 116.234 126.648 115.555C126.648 114.898 127.188 114.477 128.125 114.414L130.039 114.297V114.93C130.039 115.93 129.156 116.664 128.055 116.664ZM133.383 112.094C133.383 113.32 134.18 114.102 135.766 114.453L137.141 114.758C138.008 114.953 138.305 115.234 138.305 115.734C138.305 116.352 137.719 116.742 136.773 116.742C135.789 116.742 135.234 116.336 135.086 115.531H133.172C133.328 117.133 134.609 118.164 136.773 118.164C138.805 118.164 140.242 117.109 140.242 115.547C140.242 114.344 139.578 113.68 137.859 113.297L136.484 112.992C135.617 112.797 135.273 112.469 135.273 111.992C135.273 111.383 135.844 110.977 136.703 110.977C137.602 110.977 138.156 111.453 138.234 112.203H140.047C140 110.633 138.719 109.547 136.703 109.547C134.703 109.547 133.383 110.578 133.383 112.094ZM142.023 107.781V109.719H140.836V111.219H142.023V115.797C142.023 117.406 142.727 118.039 144.516 118.039C144.93 118.039 145.312 118.008 145.523 117.961V116.477C145.398 116.5 145.148 116.516 144.969 116.516C144.281 116.516 143.969 116.203 143.969 115.523V111.219H145.531V109.719H143.969V107.781H142.023ZM149.789 114.852C149.883 116.914 151.609 118.188 154.219 118.188C156.93 118.188 158.625 116.828 158.625 114.672C158.625 113 157.633 112.047 155.258 111.555L154.039 111.305C152.633 111.008 152.07 110.516 152.07 109.75C152.07 108.805 152.961 108.211 154.211 108.211C155.5 108.211 156.391 108.852 156.484 109.914H158.414C158.367 107.898 156.719 106.539 154.227 106.539C151.781 106.539 150.039 107.883 150.039 109.867C150.039 111.516 151.094 112.578 153.352 113.039L154.562 113.289C156.031 113.594 156.594 114.094 156.594 114.906C156.594 115.844 155.648 116.516 154.289 116.516C152.883 116.516 151.867 115.891 151.719 114.852H149.789ZM160.477 107.781V109.719H159.289V111.219H160.477V115.797C160.477 117.406 161.18 118.039 162.969 118.039C163.383 118.039 163.766 118.008 163.977 117.961V116.477C163.852 116.5 163.602 116.516 163.422 116.516C162.734 116.516 162.422 116.203 162.422 115.523V111.219H163.984V109.719H162.422V107.781H160.477ZM167.641 118.133C168.703 118.133 169.742 117.578 170.219 116.68H170.258V118H172.133V112.297C172.133 110.633 170.797 109.547 168.742 109.547C166.633 109.547 165.312 110.656 165.227 112.203H167.031C167.156 111.516 167.742 111.07 168.664 111.07C169.625 111.07 170.211 111.57 170.211 112.438V113.031L168.023 113.156C166.008 113.281 164.875 114.164 164.875 115.633C164.875 117.125 166.039 118.133 167.641 118.133ZM168.227 116.664C167.383 116.664 166.82 116.234 166.82 115.555C166.82 114.898 167.359 114.477 168.297 114.414L170.211 114.297V114.93C170.211 115.93 169.328 116.664 168.227 116.664ZM173.703 118H175.648V113.18C175.648 112.016 176.312 111.305 177.414 111.305C177.742 111.305 178.039 111.352 178.203 111.414V109.656C178.062 109.625 177.844 109.578 177.594 109.578C176.617 109.578 175.891 110.156 175.609 111.164H175.57V109.719H173.703V118ZM180.039 107.781V109.719H178.852V111.219H180.039V115.797C180.039 117.406 180.742 118.039 182.531 118.039C182.945 118.039 183.328 118.008 183.539 117.961V116.477C183.414 116.5 183.164 116.516 182.984 116.516C182.297 116.516 181.984 116.203 181.984 115.523V111.219H183.547V109.719H181.984V107.781H180.039ZM192.219 109.719H190.273V114.508C190.273 115.711 189.578 116.508 188.453 116.508C187.359 116.508 186.781 115.867 186.781 114.68V109.719H184.836V115.07C184.836 116.984 185.977 118.148 187.773 118.148C189.031 118.148 189.867 117.57 190.305 116.562H190.344V118H192.219V109.719ZM198.359 109.578C197.156 109.578 196.219 110.188 195.75 111.148H195.711V109.719H193.812V120.727H195.758V116.625H195.797C196.25 117.555 197.188 118.133 198.391 118.133C200.469 118.133 201.797 116.5 201.797 113.859C201.797 111.211 200.461 109.578 198.359 109.578ZM197.766 116.539C196.555 116.539 195.75 115.484 195.742 113.859C195.75 112.25 196.555 111.18 197.766 111.18C199.023 111.18 199.805 112.227 199.805 113.859C199.805 115.5 199.023 116.539 197.766 116.539Z" fill="white"/>
<path d="M92.625 146V134.727H90.2969L86.8438 143.328H86.7812L83.3281 134.727H80.9922V146H82.8125V138H82.8672L86.125 146H87.5L90.7578 138H90.8125V146H92.625ZM95.4375 136.469C96.0312 136.469 96.5 135.992 96.5 135.414C96.5 134.828 96.0312 134.359 95.4375 134.359C94.8438 134.359 94.3672 134.828 94.3672 135.414C94.3672 135.992 94.8438 136.469 95.4375 136.469ZM94.4688 146H96.4141V137.719H94.4688V146ZM98.0469 146H99.9922V141.203C99.9922 140.016 100.703 139.211 101.82 139.211C102.93 139.211 103.477 139.867 103.477 141.039V146H105.422V140.648C105.422 138.734 104.383 137.562 102.555 137.562C101.281 137.562 100.398 138.156 99.9531 139.141H99.9141V137.719H98.0469V146ZM115.242 146.188C117.906 146.188 119.75 144.727 120.102 142.312H118.125C117.812 143.672 116.742 144.477 115.25 144.477C113.297 144.477 112.062 142.891 112.062 140.359C112.062 137.844 113.305 136.25 115.242 136.25C116.703 136.25 117.852 137.18 118.117 138.594H120.102C119.852 136.172 117.859 134.539 115.242 134.539C112.039 134.539 110 136.766 110 140.359C110 143.977 112.023 146.188 115.242 146.188ZM121.633 134.727V146H123.648V142.273H125.93C128.211 142.273 129.812 140.75 129.812 138.5C129.812 136.25 128.258 134.727 126.016 134.727H121.633ZM123.648 136.375H125.484C126.93 136.375 127.766 137.148 127.766 138.5C127.766 139.867 126.922 140.648 125.477 140.648H123.648V136.375ZM133.305 134.727H131.289V142.023C131.289 144.484 133.07 146.188 135.922 146.188C138.781 146.188 140.555 144.484 140.555 142.023V134.727H138.547V141.844C138.547 143.383 137.594 144.43 135.922 144.43C134.25 144.43 133.305 143.383 133.305 141.844V134.727ZM145.562 146H147.508V141.18C147.508 140.016 148.172 139.305 149.273 139.305C149.602 139.305 149.898 139.352 150.062 139.414V137.656C149.922 137.625 149.703 137.578 149.453 137.578C148.477 137.578 147.75 138.156 147.469 139.164H147.43V137.719H145.562V146ZM156.234 143.523C156.023 144.211 155.336 144.664 154.43 144.664C153.156 144.664 152.344 143.773 152.344 142.445V142.328H158.133V141.695C158.133 139.18 156.664 137.547 154.312 137.547C151.922 137.547 150.406 139.273 150.406 141.891C150.406 144.531 151.906 146.164 154.391 146.164C156.352 146.164 157.805 145.086 158.055 143.523H156.234ZM154.32 139.055C155.438 139.055 156.188 139.875 156.227 141.047H152.359C152.438 139.891 153.227 139.055 154.32 139.055ZM162.492 137.578C160.383 137.578 159.047 139.227 159.047 141.852C159.047 144.484 160.375 146.133 162.453 146.133C163.648 146.133 164.617 145.523 165.047 144.602H165.094V148.727H167.039V137.719H165.133V139.148H165.094C164.625 138.203 163.695 137.578 162.492 137.578ZM163.047 144.539C161.805 144.539 161.039 143.516 161.039 141.859C161.039 140.203 161.805 139.18 163.047 139.18C164.273 139.18 165.094 140.234 165.094 141.859C165.094 143.492 164.273 144.539 163.047 144.539ZM175.969 137.719H174.023V142.508C174.023 143.711 173.328 144.508 172.203 144.508C171.109 144.508 170.531 143.867 170.531 142.68V137.719H168.586V143.07C168.586 144.984 169.727 146.148 171.523 146.148C172.781 146.148 173.617 145.57 174.055 144.562H174.094V146H175.969V137.719ZM178.578 136.469C179.172 136.469 179.641 135.992 179.641 135.414C179.641 134.828 179.172 134.359 178.578 134.359C177.984 134.359 177.508 134.828 177.508 135.414C177.508 135.992 177.984 136.469 178.578 136.469ZM177.609 146H179.555V137.719H177.609V146ZM181.188 146H183.133V141.18C183.133 140.016 183.797 139.305 184.898 139.305C185.227 139.305 185.523 139.352 185.688 139.414V137.656C185.547 137.625 185.328 137.578 185.078 137.578C184.102 137.578 183.375 138.156 183.094 139.164H183.055V137.719H181.188V146ZM191.859 143.523C191.648 144.211 190.961 144.664 190.055 144.664C188.781 144.664 187.969 143.773 187.969 142.445V142.328H193.758V141.695C193.758 139.18 192.289 137.547 189.938 137.547C187.547 137.547 186.031 139.273 186.031 141.891C186.031 144.531 187.531 146.164 190.016 146.164C191.977 146.164 193.43 145.086 193.68 143.523H191.859ZM189.945 139.055C191.062 139.055 191.812 139.875 191.852 141.047H187.984C188.062 139.891 188.852 139.055 189.945 139.055ZM195.016 146H196.961V140.93C196.961 139.93 197.617 139.203 198.555 139.203C199.461 139.203 200.023 139.773 200.023 140.695V146H201.914V140.883C201.914 139.891 202.555 139.203 203.492 139.203C204.445 139.203 204.977 139.781 204.977 140.797V146H206.922V140.32C206.922 138.664 205.852 137.562 204.219 137.562C203.023 137.562 202.039 138.203 201.641 139.227H201.594C201.289 138.164 200.453 137.562 199.281 137.562C198.156 137.562 197.281 138.195 196.922 139.156H196.883V137.719H195.016V146ZM213.969 143.523C213.758 144.211 213.07 144.664 212.164 144.664C210.891 144.664 210.078 143.773 210.078 142.445V142.328H215.867V141.695C215.867 139.18 214.398 137.547 212.047 137.547C209.656 137.547 208.141 139.273 208.141 141.891C208.141 144.531 209.641 146.164 212.125 146.164C214.086 146.164 215.539 145.086 215.789 143.523H213.969ZM212.055 139.055C213.172 139.055 213.922 139.875 213.961 141.047H210.094C210.172 139.891 210.961 139.055 212.055 139.055ZM217.125 146H219.07V141.203C219.07 140.016 219.781 139.211 220.898 139.211C222.008 139.211 222.555 139.867 222.555 141.039V146H224.5V140.648C224.5 138.734 223.461 137.562 221.633 137.562C220.359 137.562 219.477 138.156 219.031 139.141H218.992V137.719H217.125V146ZM226.602 135.781V137.719H225.414V139.219H226.602V143.797C226.602 145.406 227.305 146.039 229.094 146.039C229.508 146.039 229.891 146.008 230.102 145.961V144.477C229.977 144.5 229.727 144.516 229.547 144.516C228.859 144.516 228.547 144.203 228.547 143.523V139.219H230.109V137.719H228.547V135.781H226.602ZM231.289 140.094C231.289 141.32 232.086 142.102 233.672 142.453L235.047 142.758C235.914 142.953 236.211 143.234 236.211 143.734C236.211 144.352 235.625 144.742 234.68 144.742C233.695 144.742 233.141 144.336 232.992 143.531H231.078C231.234 145.133 232.516 146.164 234.68 146.164C236.711 146.164 238.148 145.109 238.148 143.547C238.148 142.344 237.484 141.68 235.766 141.297L234.391 140.992C233.523 140.797 233.18 140.469 233.18 139.992C233.18 139.383 233.75 138.977 234.609 138.977C235.508 138.977 236.062 139.453 236.141 140.203H237.953C237.906 138.633 236.625 137.547 234.609 137.547C232.609 137.547 231.289 138.578 231.289 140.094Z" fill="white"/>
<path d="M108.523 170.852C108.617 172.914 110.344 174.188 112.953 174.188C115.664 174.188 117.359 172.828 117.359 170.672C117.359 169 116.367 168.047 113.992 167.555L112.773 167.305C111.367 167.008 110.805 166.516 110.805 165.75C110.805 164.805 111.695 164.211 112.945 164.211C114.234 164.211 115.125 164.852 115.219 165.914H117.148C117.102 163.898 115.453 162.539 112.961 162.539C110.516 162.539 108.773 163.883 108.773 165.867C108.773 167.516 109.828 168.578 112.086 169.039L113.297 169.289C114.766 169.594 115.328 170.094 115.328 170.906C115.328 171.844 114.383 172.516 113.023 172.516C111.617 172.516 110.602 171.891 110.453 170.852H108.523ZM118.672 174H120.617V168.93C120.617 167.93 121.273 167.203 122.211 167.203C123.117 167.203 123.68 167.773 123.68 168.695V174H125.57V168.883C125.57 167.891 126.211 167.203 127.148 167.203C128.102 167.203 128.633 167.781 128.633 168.797V174H130.578V168.32C130.578 166.664 129.508 165.562 127.875 165.562C126.68 165.562 125.695 166.203 125.297 167.227H125.25C124.945 166.164 124.109 165.562 122.938 165.562C121.812 165.562 120.938 166.195 120.578 167.156H120.539V165.719H118.672V174ZM134.578 174.133C135.641 174.133 136.68 173.578 137.156 172.68H137.195V174H139.07V168.297C139.07 166.633 137.734 165.547 135.68 165.547C133.57 165.547 132.25 166.656 132.164 168.203H133.969C134.094 167.516 134.68 167.07 135.602 167.07C136.562 167.07 137.148 167.57 137.148 168.438V169.031L134.961 169.156C132.945 169.281 131.812 170.164 131.812 171.633C131.812 173.125 132.977 174.133 134.578 174.133ZM135.164 172.664C134.32 172.664 133.758 172.234 133.758 171.555C133.758 170.898 134.297 170.477 135.234 170.414L137.148 170.297V170.93C137.148 171.93 136.266 172.664 135.164 172.664ZM140.695 174H142.641V162.727H140.695V174ZM144.352 174H146.297V162.727H144.352V174ZM158.719 174H160.844L156.844 162.727H154.57L150.57 174H152.648L153.609 171.086H157.758L158.719 174ZM155.656 164.719H155.711L157.281 169.531H154.078L155.656 164.719ZM162.055 162.727V174H164.07V170.273H166.352C168.633 170.273 170.234 168.75 170.234 166.5C170.234 164.25 168.68 162.727 166.438 162.727H162.055ZM164.07 164.375H165.906C167.352 164.375 168.188 165.148 168.188 166.5C168.188 167.867 167.344 168.648 165.898 168.648H164.07V164.375ZM171.711 162.727V174H173.727V170.273H176.008C178.289 170.273 179.891 168.75 179.891 166.5C179.891 164.25 178.336 162.727 176.094 162.727H171.711ZM173.727 164.375H175.562C177.008 164.375 177.844 165.148 177.844 166.5C177.844 167.867 177 168.648 175.555 168.648H173.727V164.375ZM184.227 168.094C184.227 169.32 185.023 170.102 186.609 170.453L187.984 170.758C188.852 170.953 189.148 171.234 189.148 171.734C189.148 172.352 188.562 172.742 187.617 172.742C186.633 172.742 186.078 172.336 185.93 171.531H184.016C184.172 173.133 185.453 174.164 187.617 174.164C189.648 174.164 191.086 173.109 191.086 171.547C191.086 170.344 190.422 169.68 188.703 169.297L187.328 168.992C186.461 168.797 186.117 168.469 186.117 167.992C186.117 167.383 186.688 166.977 187.547 166.977C188.445 166.977 189 167.453 189.078 168.203H190.891C190.844 166.633 189.562 165.547 187.547 165.547C185.547 165.547 184.227 166.578 184.227 168.094ZM193.344 164.469C193.938 164.469 194.406 163.992 194.406 163.414C194.406 162.828 193.938 162.359 193.344 162.359C192.75 162.359 192.273 162.828 192.273 163.414C192.273 163.992 192.75 164.469 193.344 164.469ZM192.375 174H194.32V165.719H192.375V174ZM195.789 174H202.391V172.484H198.203V172.445L202.32 167V165.719H195.828V167.234H200.078V167.266L195.789 172.82V174ZM209.094 171.523C208.883 172.211 208.195 172.664 207.289 172.664C206.016 172.664 205.203 171.773 205.203 170.445V170.328H210.992V169.695C210.992 167.18 209.523 165.547 207.172 165.547C204.781 165.547 203.266 167.273 203.266 169.891C203.266 172.531 204.766 174.164 207.25 174.164C209.211 174.164 210.664 173.086 210.914 171.523H209.094ZM207.18 167.055C208.297 167.055 209.047 167.875 209.086 169.047H205.219C205.297 167.891 206.086 167.055 207.18 167.055Z" fill="white"/>
<path d="M392.649 136.954V144H395.135C397.234 144 398.47 142.691 398.47 140.465C398.47 138.243 397.229 136.954 395.135 136.954H392.649ZM393.743 137.896H395.032C396.521 137.896 397.352 138.814 397.352 140.475C397.352 142.14 396.526 143.053 395.032 143.053H393.743V137.896ZM401.595 144.098C403.064 144.098 404.031 143.087 404.031 141.432C404.031 139.781 403.06 138.771 401.595 138.771C400.13 138.771 399.158 139.781 399.158 141.432C399.158 143.087 400.125 144.098 401.595 144.098ZM401.595 143.229C400.77 143.229 400.232 142.574 400.232 141.432C400.232 140.294 400.77 139.64 401.595 139.64C402.42 139.64 402.957 140.294 402.957 141.432C402.957 142.574 402.425 143.229 401.595 143.229ZM409.256 140.631C409.163 139.62 408.357 138.771 407.034 138.771C405.574 138.771 404.617 139.801 404.617 141.432C404.617 143.092 405.574 144.098 407.044 144.098C408.279 144.098 409.153 143.355 409.266 142.262H408.25C408.128 142.857 407.703 143.214 407.054 143.214C406.233 143.214 405.691 142.56 405.691 141.432C405.691 140.328 406.229 139.649 407.044 139.649C407.732 139.649 408.143 140.084 408.25 140.631H409.256ZM411.116 141.065H411.106V136.954H410.052V144H411.106V142.154L411.546 141.72L413.289 144H414.515L412.303 141.075L414.432 138.863H413.191L411.116 141.065ZM418.221 142.491C418.079 142.94 417.635 143.243 417.034 143.243C416.189 143.243 415.652 142.652 415.652 141.759V141.695H419.28V141.334C419.28 139.776 418.392 138.771 416.966 138.771C415.516 138.771 414.588 139.845 414.588 141.456C414.588 143.077 415.501 144.098 417.01 144.098C418.187 144.098 419.075 143.429 419.222 142.491H418.221ZM416.966 139.62C417.703 139.62 418.201 140.172 418.226 140.958H415.657C415.711 140.182 416.229 139.62 416.966 139.62ZM420.101 144H421.155V140.924C421.155 140.196 421.575 139.742 422.254 139.742C422.459 139.742 422.645 139.767 422.728 139.801V138.819C422.649 138.805 422.518 138.78 422.366 138.78C421.761 138.78 421.302 139.137 421.131 139.737H421.106V138.863H420.101V144ZM426.634 144V136.954H425.54V144H426.634ZM427.806 144H428.86V140.826C428.86 140.167 429.305 139.679 429.93 139.679C430.525 139.679 430.901 140.055 430.901 140.646V144H431.937V140.792C431.937 140.143 432.371 139.679 432.996 139.679C433.621 139.679 433.978 140.06 433.978 140.724V144H435.037V140.47C435.037 139.449 434.373 138.775 433.357 138.775C432.625 138.775 432.02 139.156 431.756 139.781H431.731C431.526 139.142 431.009 138.775 430.296 138.775C429.603 138.775 429.065 139.156 428.836 139.728H428.812V138.863H427.806V144ZM437.562 144.088C438.235 144.088 438.885 143.727 439.183 143.155H439.207V144H440.218V140.46C440.218 139.43 439.422 138.771 438.177 138.771C436.907 138.771 436.116 139.454 436.058 140.382H437.054C437.146 139.923 437.527 139.63 438.138 139.63C438.782 139.63 439.168 139.972 439.168 140.543V140.938L437.762 141.021C436.541 141.09 435.853 141.642 435.853 142.54C435.853 143.463 436.556 144.088 437.562 144.088ZM437.854 143.253C437.288 143.253 436.917 142.96 436.917 142.511C436.917 142.071 437.273 141.793 437.903 141.749L439.168 141.671V142.076C439.168 142.745 438.592 143.253 437.854 143.253ZM443.44 145.934C444.905 145.934 445.853 145.133 445.853 143.907V138.863H444.827V139.742H444.808C444.495 139.146 443.899 138.78 443.172 138.78C441.854 138.78 441.014 139.796 441.014 141.412C441.014 143.014 441.858 144.02 443.147 144.02C443.88 144.02 444.485 143.653 444.773 143.097H444.793V143.941C444.793 144.645 444.305 145.113 443.479 145.113C442.879 145.113 442.41 144.83 442.259 144.4H441.199C441.331 145.289 442.229 145.934 443.44 145.934ZM443.431 143.146C442.62 143.146 442.093 142.491 442.093 141.417C442.093 140.348 442.62 139.669 443.431 139.669C444.256 139.669 444.798 140.362 444.798 141.417C444.798 142.477 444.256 143.146 443.431 143.146ZM450.301 142.491C450.159 142.94 449.715 143.243 449.114 143.243C448.27 143.243 447.732 142.652 447.732 141.759V141.695H451.36V141.334C451.36 139.776 450.472 138.771 449.046 138.771C447.596 138.771 446.668 139.845 446.668 141.456C446.668 143.077 447.581 144.098 449.09 144.098C450.267 144.098 451.155 143.429 451.302 142.491H450.301ZM449.046 139.62C449.783 139.62 450.281 140.172 450.306 140.958H447.737C447.791 140.182 448.309 139.62 449.046 139.62ZM452.088 140.318C452.088 141.065 452.571 141.534 453.548 141.759L454.383 141.954C454.944 142.081 455.135 142.276 455.135 142.608C455.135 143.028 454.744 143.292 454.109 143.292C453.465 143.292 453.099 143.028 453.001 142.491H451.956C452.054 143.468 452.825 144.098 454.109 144.098C455.32 144.098 456.194 143.453 456.194 142.516C456.194 141.773 455.794 141.363 454.744 141.119L453.909 140.929C453.353 140.802 453.118 140.582 453.118 140.26C453.118 139.85 453.499 139.571 454.07 139.571C454.661 139.571 455.027 139.884 455.086 140.382H456.077C456.043 139.435 455.267 138.771 454.07 138.771C452.889 138.771 452.088 139.4 452.088 140.318Z" fill="white"/>
<g clip-path="url(#clip0_584_3024)">
<path d="M387.905 138.521C387.858 138.483 387.434 138.165 386.522 138.165C386.286 138.165 386.042 138.188 385.806 138.227C385.634 137.043 384.635 136.47 384.596 136.439L384.352 136.299L384.195 136.524C383.998 136.826 383.849 137.166 383.763 137.515C383.598 138.188 383.7 138.823 384.046 139.365C383.629 139.597 382.953 139.652 382.811 139.659H371.649C371.358 139.659 371.122 139.892 371.122 140.178C371.106 141.138 371.271 142.098 371.61 143.004C371.995 143.995 372.569 144.73 373.307 145.179C374.141 145.683 375.501 145.969 377.034 145.969C377.725 145.969 378.417 145.907 379.101 145.783C380.052 145.613 380.964 145.288 381.805 144.815C382.497 144.421 383.118 143.917 383.645 143.329C384.533 142.346 385.06 141.246 385.445 140.271C385.5 140.271 385.547 140.271 385.602 140.271C386.569 140.271 387.166 139.892 387.497 139.566C387.717 139.365 387.882 139.117 388 138.839L388.07 138.637L387.905 138.521Z" fill="white"/>
<path d="M372.684 139.342H374.178C374.249 139.342 374.312 139.288 374.312 139.21V137.894C374.312 137.825 374.257 137.763 374.178 137.763H372.684C372.614 137.763 372.551 137.817 372.551 137.894V139.21C372.559 139.288 372.614 139.342 372.684 139.342Z" fill="white"/>
<path d="M374.743 139.342H376.237C376.307 139.342 376.37 139.288 376.37 139.21V137.894C376.37 137.825 376.315 137.763 376.237 137.763H374.743C374.672 137.763 374.609 137.817 374.609 137.894V139.21C374.617 139.288 374.672 139.342 374.743 139.342Z" fill="white"/>
<path d="M376.845 139.342H378.338C378.409 139.342 378.472 139.288 378.472 139.21V137.894C378.472 137.825 378.417 137.763 378.338 137.763H376.845C376.774 137.763 376.711 137.817 376.711 137.894V139.21C376.711 139.288 376.766 139.342 376.845 139.342Z" fill="white"/>
<path d="M378.911 139.342H380.405C380.475 139.342 380.538 139.288 380.538 139.21V137.894C380.538 137.825 380.483 137.763 380.405 137.763H378.911C378.84 137.763 378.777 137.817 378.777 137.894V139.21C378.777 139.288 378.84 139.342 378.911 139.342Z" fill="white"/>
<path d="M374.743 137.461H376.237C376.307 137.461 376.37 137.399 376.37 137.329V136.013C376.37 135.943 376.315 135.881 376.237 135.881H374.743C374.672 135.881 374.609 135.936 374.609 136.013V137.329C374.617 137.399 374.672 137.461 374.743 137.461Z" fill="white"/>
<path d="M376.845 137.461H378.338C378.409 137.461 378.472 137.399 378.472 137.329V136.013C378.472 135.943 378.417 135.881 378.338 135.881H376.845C376.774 135.881 376.711 135.936 376.711 136.013V137.329C376.711 137.399 376.766 137.461 376.845 137.461Z" fill="white"/>
<path d="M378.911 137.461H380.405C380.475 137.461 380.538 137.399 380.538 137.329V136.013C380.538 135.943 380.475 135.881 380.405 135.881H378.911C378.84 135.881 378.777 135.936 378.777 136.013V137.329C378.777 137.399 378.84 137.461 378.911 137.461Z" fill="white"/>
<path d="M378.911 135.572H380.405C380.475 135.572 380.538 135.517 380.538 135.44V134.124C380.538 134.054 380.475 133.992 380.405 133.992H378.911C378.84 133.992 378.777 134.046 378.777 134.124V135.44C378.777 135.51 378.84 135.572 378.911 135.572Z" fill="white"/>
<path d="M380.993 139.342H382.487C382.557 139.342 382.62 139.288 382.62 139.21V137.894C382.62 137.825 382.565 137.763 382.487 137.763H380.993C380.922 137.763 380.859 137.817 380.859 137.894V139.21C380.867 139.288 380.922 139.342 380.993 139.342Z" fill="white"/>
</g>
<defs>
<filter id="filter0_dd_584_3024" x="0" y="0" width="498" height="322" filterUnits="userSpaceOnUse" color-interpolation-filters="sRGB">
<feFlood flood-opacity="0" result="BackgroundImageFix"/>
<feColorMatrix in="SourceAlpha" type="matrix" values="0 0 0 0 0 0 0 0 0 0 0 0 0 0 0 0 0 0 127 0" result="hardAlpha"/>
<feOffset dx="8" dy="12"/>
<feGaussianBlur stdDeviation="9"/>
<feComposite in2="hardAlpha" operator="out"/>
<feColorMatrix type="matrix" values="0 0 0 0 0.239216 0 0 0 0 0.513726 0 0 0 0 1 0 0 0 0.1 0"/>
<feBlend mode="normal" in2="BackgroundImageFix" result="effect1_dropShadow_584_3024"/>
<feColorMatrix in="SourceAlpha" type="matrix" values="0 0 0 0 0 0 0 0 0 0 0 0 0 0 0 0 0 0 127 0" result="hardAlpha"/>
<feOffset dx="-4" dy="-4"/>
<feGaussianBlur stdDeviation="8"/>
<feComposite in2="hardAlpha" operator="out"/>
<feColorMatrix type="matrix" values="0 0 0 0 0.0901961 0 0 0 0 0.415686 0 0 0 0 1 0 0 0 0.05 0"/>
<feBlend mode="normal" in2="effect1_dropShadow_584_3024" result="effect2_dropShadow_584_3024"/>
<feBlend mode="normal" in="SourceGraphic" in2="effect2_dropShadow_584_3024" result="shape"/>
</filter>
<filter id="filter1_dd_584_3024" x="35" y="32" width="256" height="194" filterUnits="userSpaceOnUse" color-interpolation-filters="sRGB">
<feFlood flood-opacity="0" result="BackgroundImageFix"/>
<feColorMatrix in="SourceAlpha" type="matrix" values="0 0 0 0 0 0 0 0 0 0 0 0 0 0 0 0 0 0 127 0" result="hardAlpha"/>
<feOffset dx="8" dy="12"/>
<feGaussianBlur stdDeviation="9"/>
<feComposite in2="hardAlpha" operator="out"/>
<feColorMatrix type="matrix" values="0 0 0 0 0.239216 0 0 0 0 0.513726 0 0 0 0 1 0 0 0 0.1 0"/>
<feBlend mode="normal" in2="BackgroundImageFix" result="effect1_dropShadow_584_3024"/>
<feColorMatrix in="SourceAlpha" type="matrix" values="0 0 0 0 0 0 0 0 0 0 0 0 0 0 0 0 0 0 127 0" result="hardAlpha"/>
<feOffset dx="-4" dy="-4"/>
<feGaussianBlur stdDeviation="8"/>
<feComposite in2="hardAlpha" operator="out"/>
<feColorMatrix type="matrix" values="0 0 0 0 0.0901961 0 0 0 0 0.415686 0 0 0 0 1 0 0 0 0.05 0"/>
<feBlend mode="normal" in2="effect1_dropShadow_584_3024" result="effect2_dropShadow_584_3024"/>
<feBlend mode="normal" in="SourceGraphic" in2="effect2_dropShadow_584_3024" result="shape"/>
</filter>
<filter id="filter2_dd_584_3024" x="313" y="148" width="151" height="78" filterUnits="userSpaceOnUse" color-interpolation-filters="sRGB">
<feFlood flood-opacity="0" result="BackgroundImageFix"/>
<feColorMatrix in="SourceAlpha" type="matrix" values="0 0 0 0 0 0 0 0 0 0 0 0 0 0 0 0 0 0 127 0" result="hardAlpha"/>
<feOffset dx="8" dy="12"/>
<feGaussianBlur stdDeviation="9"/>
<feComposite in2="hardAlpha" operator="out"/>
<feColorMatrix type="matrix" values="0 0 0 0 0.239216 0 0 0 0 0.513726 0 0 0 0 1 0 0 0 0.1 0"/>
<feBlend mode="normal" in2="BackgroundImageFix" result="effect1_dropShadow_584_3024"/>
<feColorMatrix in="SourceAlpha" type="matrix" values="0 0 0 0 0 0 0 0 0 0 0 0 0 0 0 0 0 0 127 0" result="hardAlpha"/>
<feOffset dx="-4" dy="-4"/>
<feGaussianBlur stdDeviation="8"/>
<feComposite in2="hardAlpha" operator="out"/>
<feColorMatrix type="matrix" values="0 0 0 0 0.0901961 0 0 0 0 0.415686 0 0 0 0 1 0 0 0 0.05 0"/>
<feBlend mode="normal" in2="effect1_dropShadow_584_3024" result="effect2_dropShadow_584_3024"/>
<feBlend mode="normal" in="SourceGraphic" in2="effect2_dropShadow_584_3024" result="shape"/>
</filter>
<filter id="filter3_dd_584_3024" x="313" y="180" width="151" height="78" filterUnits="userSpaceOnUse" color-interpolation-filters="sRGB">
<feFlood flood-opacity="0" result="BackgroundImageFix"/>
<feColorMatrix in="SourceAlpha" type="matrix" values="0 0 0 0 0 0 0 0 0 0 0 0 0 0 0 0 0 0 127 0" result="hardAlpha"/>
<feOffset dx="8" dy="12"/>
<feGaussianBlur stdDeviation="9"/>
<feComposite in2="hardAlpha" operator="out"/>
<feColorMatrix type="matrix" values="0 0 0 0 0.239216 0 0 0 0 0.513726 0 0 0 0 1 0 0 0 0.1 0"/>
<feBlend mode="normal" in2="BackgroundImageFix" result="effect1_dropShadow_584_3024"/>
<feColorMatrix in="SourceAlpha" type="matrix" values="0 0 0 0 0 0 0 0 0 0 0 0 0 0 0 0 0 0 127 0" result="hardAlpha"/>
<feOffset dx="-4" dy="-4"/>
<feGaussianBlur stdDeviation="8"/>
<feComposite in2="hardAlpha" operator="out"/>
<feColorMatrix type="matrix" values="0 0 0 0 0.0901961 0 0 0 0 0.415686 0 0 0 0 1 0 0 0 0.05 0"/>
<feBlend mode="normal" in2="effect1_dropShadow_584_3024" result="effect2_dropShadow_584_3024"/>
<feBlend mode="normal" in="SourceGraphic" in2="effect2_dropShadow_584_3024" result="shape"/>
</filter>
<filter id="filter4_dd_584_3024" x="313" y="212" width="151" height="78" filterUnits="userSpaceOnUse" color-interpolation-filters="sRGB">
<feFlood flood-opacity="0" result="BackgroundImageFix"/>
<feColorMatrix in="SourceAlpha" type="matrix" values="0 0 0 0 0 0 0 0 0 0 0 0 0 0 0 0 0 0 127 0" result="hardAlpha"/>
<feOffset dx="8" dy="12"/>
<feGaussianBlur stdDeviation="9"/>
<feComposite in2="hardAlpha" operator="out"/>
<feColorMatrix type="matrix" values="0 0 0 0 0.239216 0 0 0 0 0.513726 0 0 0 0 1 0 0 0 0.1 0"/>
<feBlend mode="normal" in2="BackgroundImageFix" result="effect1_dropShadow_584_3024"/>
<feColorMatrix in="SourceAlpha" type="matrix" values="0 0 0 0 0 0 0 0 0 0 0 0 0 0 0 0 0 0 127 0" result="hardAlpha"/>
<feOffset dx="-4" dy="-4"/>
<feGaussianBlur stdDeviation="8"/>
<feComposite in2="hardAlpha" operator="out"/>
<feColorMatrix type="matrix" values="0 0 0 0 0.0901961 0 0 0 0 0.415686 0 0 0 0 1 0 0 0 0.05 0"/>
<feBlend mode="normal" in2="effect1_dropShadow_584_3024" result="effect2_dropShadow_584_3024"/>
<feBlend mode="normal" in="SourceGraphic" in2="effect2_dropShadow_584_3024" result="shape"/>
</filter>
<filter id="filter5_dd_584_3024" x="35" y="188" width="256" height="102" filterUnits="userSpaceOnUse" color-interpolation-filters="sRGB">
<feFlood flood-opacity="0" result="BackgroundImageFix"/>
<feColorMatrix in="SourceAlpha" type="matrix" values="0 0 0 0 0 0 0 0 0 0 0 0 0 0 0 0 0 0 127 0" result="hardAlpha"/>
<feOffset dx="8" dy="12"/>
<feGaussianBlur stdDeviation="9"/>
<feComposite in2="hardAlpha" operator="out"/>
<feColorMatrix type="matrix" values="0 0 0 0 0.239216 0 0 0 0 0.513726 0 0 0 0 1 0 0 0 0.1 0"/>
<feBlend mode="normal" in2="BackgroundImageFix" result="effect1_dropShadow_584_3024"/>
<feColorMatrix in="SourceAlpha" type="matrix" values="0 0 0 0 0 0 0 0 0 0 0 0 0 0 0 0 0 0 127 0" result="hardAlpha"/>
<feOffset dx="-4" dy="-4"/>
<feGaussianBlur stdDeviation="8"/>
<feComposite in2="hardAlpha" operator="out"/>
<feColorMatrix type="matrix" values="0 0 0 0 0.0901961 0 0 0 0 0.415686 0 0 0 0 1 0 0 0 0.05 0"/>
<feBlend mode="normal" in2="effect1_dropShadow_584_3024" result="effect2_dropShadow_584_3024"/>
<feBlend mode="normal" in="SourceGraphic" in2="effect2_dropShadow_584_3024" result="shape"/>
</filter>
<clipPath id="clip0_584_3024">
<rect width="17" height="12" fill="white" transform="translate(371 134)"/>
</clipPath>
</defs>
</svg>
