<svg width="373" height="173" viewBox="0 0 373 173" fill="none" xmlns="http://www.w3.org/2000/svg">
<path fill-rule="evenodd" clip-rule="evenodd" d="M194 49H233C233.552 49 234 49.4477 234 50V50C234 50.5523 233.552 51 233 51H196C194.895 51 194 51.8954 194 53V79C194 80.1046 194.895 81 196 81H233C233.552 81 234 81.4477 234 82V82C234 82.5523 233.552 83 233 83H196C194.895 83 194 83.8954 194 85V111C194 112.105 194.895 113 196 113H233C233.552 113 234 113.448 234 114V114C234 114.552 233.552 115 233 115H194V115C192.895 115 192 114.105 192 113L192 85C192 83.8954 191.105 83 190 83H170C169.448 83 169 82.5523 169 82V82C169 81.4477 169.448 81 170 81H190C191.105 81 192 80.1046 192 79L192 51C192 49.8954 192.895 49 194 49V49Z" fill="#FF9142"/>
<g filter="url(#filter0_dd_578_2515)">
<rect x="236" y="36" width="111" height="28" rx="4" fill="#1E2631"/>
<rect x="236.5" y="36.5" width="110" height="27" rx="3.5" stroke="white"/>
</g>
<path d="M268.32 56H270.828L266.906 44.7266H264.133L260.219 56H262.641L263.5 53.2656H267.461L268.32 56ZM265.453 46.8828H265.508L266.953 51.5H264.008L265.453 46.8828ZM277.672 48.2969H277.742L279.883 56H282.109L285.102 44.7266H282.656L280.875 52.8906H280.812L278.703 44.7266H276.711L274.602 52.8906H274.539L272.766 44.7266H270.32L273.305 56H275.531L277.672 48.2969ZM285.82 52.7812C285.891 54.9062 287.68 56.1875 290.367 56.1875C293.188 56.1875 294.914 54.7969 294.914 52.5938C294.914 50.8828 293.875 49.9219 291.492 49.4453L290.297 49.2031C288.969 48.9375 288.422 48.5078 288.422 47.8125C288.422 46.9844 289.203 46.4375 290.367 46.4375C291.555 46.4375 292.391 47.0156 292.469 47.9766H294.695C294.656 45.9062 293 44.5312 290.367 44.5312C287.859 44.5312 286.062 45.8984 286.062 47.9609C286.062 49.6406 287.164 50.7188 289.414 51.1641L290.602 51.3984C292.016 51.6875 292.547 52.1094 292.547 52.8516C292.547 53.6797 291.688 54.2891 290.43 54.2891C289.148 54.2891 288.195 53.7266 288.047 52.7812H285.82ZM306.914 56H309.422L305.5 44.7266H302.727L298.812 56H301.234L302.094 53.2656H306.055L306.914 56ZM304.047 46.8828H304.102L305.547 51.5H302.602L304.047 46.8828ZM315.273 47.4922C314.062 47.4922 313.133 48.1016 312.68 49.0859H312.633V47.625H310.383V58.7344H312.664V54.5938H312.711C313.156 55.5391 314.094 56.1328 315.312 56.1328C317.406 56.1328 318.703 54.5078 318.703 51.8125C318.703 49.1094 317.398 47.4922 315.273 47.4922ZM314.508 54.2969C313.391 54.2969 312.656 53.3281 312.656 51.8125C312.656 50.3125 313.391 49.3203 314.508 49.3203C315.648 49.3203 316.367 50.2969 316.367 51.8125C316.367 53.3359 315.648 54.2969 314.508 54.2969ZM321.055 46.4922C321.719 46.4922 322.242 45.9609 322.242 45.3203C322.242 44.6719 321.719 44.1484 321.055 44.1484C320.391 44.1484 319.867 44.6719 319.867 45.3203C319.867 45.9609 320.391 46.4922 321.055 46.4922ZM319.922 56H322.203V47.625H319.922V56Z" fill="white"/>
<circle cx="236" cy="50" r="3" fill="white"/>
<g filter="url(#filter1_dd_578_2515)">
<rect x="236" y="68" width="111" height="28" rx="4" fill="#1E2631"/>
<rect x="236.5" y="68.5" width="110" height="27" rx="3.5" stroke="white"/>
</g>
<path d="M272.016 83.2656V81.9922H267.266V83.7109H269.719L269.711 83.8906C269.664 85.2891 268.594 86.2344 267.055 86.2344C265.18 86.2344 263.992 84.7422 263.992 82.2969C263.992 79.8984 265.109 78.4844 266.969 78.4844C268.242 78.4844 269.203 79.1875 269.547 80.3672H271.914C271.578 78.0859 269.594 76.5312 266.961 76.5312C263.648 76.5312 261.586 78.7188 261.586 82.3281C261.586 85.9922 263.648 88.1875 267.016 88.1875C270.156 88.1875 272.016 86.3359 272.016 83.2656ZM278.562 88.1875C281.328 88.1875 283.258 86.6016 283.523 84.0859H281.227C280.977 85.4219 279.969 86.2422 278.57 86.2422C276.766 86.2422 275.633 84.7578 275.633 82.3516C275.633 79.9766 276.781 78.4844 278.562 78.4844C279.938 78.4844 281 79.3906 281.219 80.7734H283.516C283.336 78.25 281.273 76.5312 278.562 76.5312C275.297 76.5312 273.227 78.7266 273.227 82.3594C273.227 86 275.281 88.1875 278.562 88.1875ZM284.984 76.7266V88H287.344V84.4453H289.453C291.828 84.4453 293.477 82.8984 293.477 80.5859C293.477 78.2656 291.883 76.7266 289.57 76.7266H284.984ZM287.344 78.5938H288.945C290.297 78.5938 291.078 79.3125 291.078 80.5938C291.078 81.8828 290.289 82.6016 288.938 82.6016H287.344V78.5938ZM305.43 88H307.938L304.016 76.7266H301.242L297.328 88H299.75L300.609 85.2656H304.57L305.43 88ZM302.562 78.8828H302.617L304.062 83.5H301.117L302.562 78.8828ZM313.789 79.4922C312.578 79.4922 311.648 80.1016 311.195 81.0859H311.148V79.625H308.898V90.7344H311.18V86.5938H311.227C311.672 87.5391 312.609 88.1328 313.828 88.1328C315.922 88.1328 317.219 86.5078 317.219 83.8125C317.219 81.1094 315.914 79.4922 313.789 79.4922ZM313.023 86.2969C311.906 86.2969 311.172 85.3281 311.172 83.8125C311.172 82.3125 311.906 81.3203 313.023 81.3203C314.164 81.3203 314.883 82.2969 314.883 83.8125C314.883 85.3359 314.164 86.2969 313.023 86.2969ZM319.57 78.4922C320.234 78.4922 320.758 77.9609 320.758 77.3203C320.758 76.6719 320.234 76.1484 319.57 76.1484C318.906 76.1484 318.383 76.6719 318.383 77.3203C318.383 77.9609 318.906 78.4922 319.57 78.4922ZM318.438 88H320.719V79.625H318.438V88Z" fill="white"/>
<circle cx="236" cy="82" r="3" fill="white"/>
<g filter="url(#filter2_dd_578_2515)">
<rect x="236" y="100" width="111" height="28" rx="4" fill="#1E2631"/>
<rect x="236.5" y="100.5" width="110" height="27" rx="3.5" stroke="white"/>
</g>
<path d="M269.023 108.531C265.68 108.531 263.586 110.773 263.586 114.367C263.586 117.953 265.68 120.188 269.023 120.188C272.359 120.188 274.461 117.953 274.461 114.367C274.461 110.773 272.359 108.531 269.023 108.531ZM269.023 110.5C270.867 110.5 272.047 112 272.047 114.367C272.047 116.727 270.867 118.219 269.023 118.219C267.172 118.219 265.992 116.727 265.992 114.367C265.992 112 267.18 110.5 269.023 110.5ZM280.969 120.188C283.734 120.188 285.664 118.602 285.93 116.086H283.633C283.383 117.422 282.375 118.242 280.977 118.242C279.172 118.242 278.039 116.758 278.039 114.352C278.039 111.977 279.188 110.484 280.969 110.484C282.344 110.484 283.406 111.391 283.625 112.773H285.922C285.742 110.25 283.68 108.531 280.969 108.531C277.703 108.531 275.633 110.727 275.633 114.359C275.633 118 277.688 120.188 280.969 120.188ZM289.75 120V108.727H287.391V120H289.75ZM302.18 120H304.688L300.766 108.727H297.992L294.078 120H296.5L297.359 117.266H301.32L302.18 120ZM299.312 110.883H299.367L300.812 115.5H297.867L299.312 110.883ZM310.539 111.492C309.328 111.492 308.398 112.102 307.945 113.086H307.898V111.625H305.648V122.734H307.93V118.594H307.977C308.422 119.539 309.359 120.133 310.578 120.133C312.672 120.133 313.969 118.508 313.969 115.812C313.969 113.109 312.664 111.492 310.539 111.492ZM309.773 118.297C308.656 118.297 307.922 117.328 307.922 115.812C307.922 114.312 308.656 113.32 309.773 113.32C310.914 113.32 311.633 114.297 311.633 115.812C311.633 117.336 310.914 118.297 309.773 118.297ZM316.32 110.492C316.984 110.492 317.508 109.961 317.508 109.32C317.508 108.672 316.984 108.148 316.32 108.148C315.656 108.148 315.133 108.672 315.133 109.32C315.133 109.961 315.656 110.492 316.32 110.492ZM315.188 120H317.469V111.625H315.188V120Z" fill="white"/>
<circle cx="236" cy="114" r="3" fill="white"/>
<rect x="217.5" y="20.5" width="148" height="122" rx="7.5" stroke="white" stroke-opacity="0.2" stroke-linecap="round" stroke-linejoin="round" stroke-dasharray="12 12"/>
<g filter="url(#filter3_dd_578_2515)">
<rect x="20" y="20" width="148" height="123" rx="8" fill="#1E2631"/>
<rect x="20.5" y="20.5" width="147" height="122" rx="7.5" stroke="white"/>
</g>
<circle cx="168" cy="82" r="3" fill="white"/>
<path d="M20 28C20 23.5817 23.5817 20 28 20H160C164.418 20 168 23.5817 168 28V52H20V28Z" fill="white"/>
<path d="M70.0156 37.2656V35.9922H65.2656V37.7109H67.7188L67.7109 37.8906C67.6641 39.2891 66.5938 40.2344 65.0547 40.2344C63.1797 40.2344 61.9922 38.7422 61.9922 36.2969C61.9922 33.8984 63.1094 32.4844 64.9688 32.4844C66.2422 32.4844 67.2031 33.1875 67.5469 34.3672H69.9141C69.5781 32.0859 67.5938 30.5312 64.9609 30.5312C61.6484 30.5312 59.5859 32.7188 59.5859 36.3281C59.5859 39.9922 61.6484 42.1875 65.0156 42.1875C68.1562 42.1875 70.0156 40.3359 70.0156 37.2656ZM76.5625 42.1875C79.3281 42.1875 81.2578 40.6016 81.5234 38.0859H79.2266C78.9766 39.4219 77.9688 40.2422 76.5703 40.2422C74.7656 40.2422 73.6328 38.7578 73.6328 36.3516C73.6328 33.9766 74.7812 32.4844 76.5625 32.4844C77.9375 32.4844 79 33.3906 79.2188 34.7734H81.5156C81.3359 32.25 79.2734 30.5312 76.5625 30.5312C73.2969 30.5312 71.2266 32.7266 71.2266 36.3594C71.2266 40 73.2812 42.1875 76.5625 42.1875ZM85.2422 42V34.6172H85.3125L90.5859 42H92.5391V30.7266H90.2812V38.0703H90.2188L84.9531 30.7266H82.9844V42H85.2422ZM104.977 42H107.484L103.562 30.7266H100.789L96.875 42H99.2969L100.156 39.2656H104.117L104.977 42ZM102.109 32.8828H102.164L103.609 37.5H100.664L102.109 32.8828ZM108.641 30.7266V42H111V38.4453H113.109C115.484 38.4453 117.133 36.8984 117.133 34.5859C117.133 32.2656 115.539 30.7266 113.227 30.7266H108.641ZM111 32.5938H112.602C113.953 32.5938 114.734 33.3125 114.734 34.5938C114.734 35.8828 113.945 36.6016 112.594 36.6016H111V32.5938ZM118.531 30.7266V42H120.891V38.4453H123C125.375 38.4453 127.023 36.8984 127.023 34.5859C127.023 32.2656 125.43 30.7266 123.117 30.7266H118.531ZM120.891 32.5938H122.492C123.844 32.5938 124.625 33.3125 124.625 34.5938C124.625 35.8828 123.836 36.6016 122.484 36.6016H120.891V32.5938Z" fill="#1E2631"/>
<path d="M71.4297 81.8516C71.5234 83.9141 73.25 85.1875 75.8594 85.1875C78.5703 85.1875 80.2656 83.8281 80.2656 81.6719C80.2656 80 79.2734 79.0469 76.8984 78.5547L75.6797 78.3047C74.2734 78.0078 73.7109 77.5156 73.7109 76.75C73.7109 75.8047 74.6016 75.2109 75.8516 75.2109C77.1406 75.2109 78.0312 75.8516 78.125 76.9141H80.0547C80.0078 74.8984 78.3594 73.5391 75.8672 73.5391C73.4219 73.5391 71.6797 74.8828 71.6797 76.8672C71.6797 78.5156 72.7344 79.5781 74.9922 80.0391L76.2031 80.2891C77.6719 80.5938 78.2344 81.0938 78.2344 81.9062C78.2344 82.8438 77.2891 83.5156 75.9297 83.5156C74.5234 83.5156 73.5078 82.8906 73.3594 81.8516H71.4297ZM87.0625 82.5234C86.8516 83.2109 86.1641 83.6641 85.2578 83.6641C83.9844 83.6641 83.1719 82.7734 83.1719 81.4453V81.3281H88.9609V80.6953C88.9609 78.1797 87.4922 76.5469 85.1406 76.5469C82.75 76.5469 81.2344 78.2734 81.2344 80.8906C81.2344 83.5312 82.7344 85.1641 85.2188 85.1641C87.1797 85.1641 88.6328 84.0859 88.8828 82.5234H87.0625ZM85.1484 78.0547C86.2656 78.0547 87.0156 78.875 87.0547 80.0469H83.1875C83.2656 78.8906 84.0547 78.0547 85.1484 78.0547ZM97.5156 79.6719C97.3828 77.9297 96.0312 76.5469 93.8438 76.5469C91.4375 76.5469 89.875 78.2109 89.875 80.8594C89.875 83.5469 91.4375 85.1641 93.8594 85.1641C95.9375 85.1641 97.3672 83.9453 97.5234 82.0938H95.6875C95.5078 83.0312 94.8672 83.5938 93.8828 83.5938C92.6484 83.5938 91.8516 82.5938 91.8516 80.8594C91.8516 79.1562 92.6406 78.125 93.8672 78.125C94.9062 78.125 95.5234 78.7891 95.6797 79.6719H97.5156ZM98.6875 85H100.633V80.1797C100.633 79.0156 101.297 78.3047 102.398 78.3047C102.727 78.3047 103.023 78.3516 103.188 78.4141V76.6562C103.047 76.625 102.828 76.5781 102.578 76.5781C101.602 76.5781 100.875 77.1562 100.594 78.1641H100.555V76.7188H98.6875V85ZM109.359 82.5234C109.148 83.2109 108.461 83.6641 107.555 83.6641C106.281 83.6641 105.469 82.7734 105.469 81.4453V81.3281H111.258V80.6953C111.258 78.1797 109.789 76.5469 107.438 76.5469C105.047 76.5469 103.531 78.2734 103.531 80.8906C103.531 83.5312 105.031 85.1641 107.516 85.1641C109.477 85.1641 110.93 84.0859 111.18 82.5234H109.359ZM107.445 78.0547C108.562 78.0547 109.312 78.875 109.352 80.0469H105.484C105.562 78.8906 106.352 78.0547 107.445 78.0547ZM113.055 74.7812V76.7188H111.867V78.2188H113.055V82.7969C113.055 84.4062 113.758 85.0391 115.547 85.0391C115.961 85.0391 116.344 85.0078 116.555 84.9609V83.4766C116.43 83.5 116.18 83.5156 116 83.5156C115.312 83.5156 115 83.2031 115 82.5234V78.2188H116.562V76.7188H115V74.7812H113.055ZM59.7969 109V97.7266H57.4688L54.0156 106.328H53.9531L50.5 97.7266H48.1641V109H49.9844V101H50.0391L53.2969 109H54.6719L57.9297 101H57.9844V109H59.7969ZM63.8281 109.133C64.8906 109.133 65.9297 108.578 66.4062 107.68H66.4453V109H68.3203V103.297C68.3203 101.633 66.9844 100.547 64.9297 100.547C62.8203 100.547 61.5 101.656 61.4141 103.203H63.2188C63.3438 102.516 63.9297 102.07 64.8516 102.07C65.8125 102.07 66.3984 102.57 66.3984 103.438V104.031L64.2109 104.156C62.1953 104.281 61.0625 105.164 61.0625 106.633C61.0625 108.125 62.2266 109.133 63.8281 109.133ZM64.4141 107.664C63.5703 107.664 63.0078 107.234 63.0078 106.555C63.0078 105.898 63.5469 105.477 64.4844 105.414L66.3984 105.297V105.93C66.3984 106.93 65.5156 107.664 64.4141 107.664ZM69.8906 109H71.8359V104.203C71.8359 103.016 72.5469 102.211 73.6641 102.211C74.7734 102.211 75.3203 102.867 75.3203 104.039V109H77.2656V103.648C77.2656 101.734 76.2266 100.562 74.3984 100.562C73.125 100.562 72.2422 101.156 71.7969 102.141H71.7578V100.719H69.8906V109ZM81.2656 109.133C82.3281 109.133 83.3672 108.578 83.8438 107.68H83.8828V109H85.7578V103.297C85.7578 101.633 84.4219 100.547 82.3672 100.547C80.2578 100.547 78.9375 101.656 78.8516 103.203H80.6562C80.7812 102.516 81.3672 102.07 82.2891 102.07C83.25 102.07 83.8359 102.57 83.8359 103.438V104.031L81.6484 104.156C79.6328 104.281 78.5 105.164 78.5 106.633C78.5 108.125 79.6641 109.133 81.2656 109.133ZM81.8516 107.664C81.0078 107.664 80.4453 107.234 80.4453 106.555C80.4453 105.898 80.9844 105.477 81.9219 105.414L83.8359 105.297V105.93C83.8359 106.93 82.9531 107.664 81.8516 107.664ZM90.9766 112.125C93.3906 112.125 94.9766 110.844 94.9766 108.867V100.719H93.0703V102.141H93.0391C92.5625 101.188 91.6094 100.578 90.4297 100.578C88.3125 100.578 86.9844 102.211 86.9844 104.828C86.9844 107.406 88.3438 109.008 90.3906 109.008C91.5781 109.008 92.5547 108.414 92.9844 107.523H93.0312V108.922C93.0312 109.977 92.3047 110.688 91.0391 110.688C90.1172 110.688 89.4062 110.258 89.1953 109.625H87.2656C87.4609 111.078 88.9297 112.125 90.9766 112.125ZM90.9844 107.461C89.7578 107.461 88.9766 106.477 88.9766 104.836C88.9766 103.211 89.7578 102.18 90.9844 102.18C92.2266 102.18 93.0312 103.227 93.0312 104.836C93.0312 106.453 92.2266 107.461 90.9844 107.461ZM102.047 106.523C101.836 107.211 101.148 107.664 100.242 107.664C98.9688 107.664 98.1562 106.773 98.1562 105.445V105.328H103.945V104.695C103.945 102.18 102.477 100.547 100.125 100.547C97.7344 100.547 96.2188 102.273 96.2188 104.891C96.2188 107.531 97.7188 109.164 100.203 109.164C102.164 109.164 103.617 108.086 103.867 106.523H102.047ZM100.133 102.055C101.25 102.055 102 102.875 102.039 104.047H98.1719C98.25 102.891 99.0391 102.055 100.133 102.055ZM105.203 109H107.148V103.93C107.148 102.93 107.805 102.203 108.742 102.203C109.648 102.203 110.211 102.773 110.211 103.695V109H112.102V103.883C112.102 102.891 112.742 102.203 113.68 102.203C114.633 102.203 115.164 102.781 115.164 103.797V109H117.109V103.32C117.109 101.664 116.039 100.562 114.406 100.562C113.211 100.562 112.227 101.203 111.828 102.227H111.781C111.477 101.164 110.641 100.562 109.469 100.562C108.344 100.562 107.469 101.195 107.109 102.156H107.07V100.719H105.203V109ZM124.156 106.523C123.945 107.211 123.258 107.664 122.352 107.664C121.078 107.664 120.266 106.773 120.266 105.445V105.328H126.055V104.695C126.055 102.18 124.586 100.547 122.234 100.547C119.844 100.547 118.328 102.273 118.328 104.891C118.328 107.531 119.828 109.164 122.312 109.164C124.273 109.164 125.727 108.086 125.977 106.523H124.156ZM122.242 102.055C123.359 102.055 124.109 102.875 124.148 104.047H120.281C120.359 102.891 121.148 102.055 122.242 102.055ZM127.312 109H129.258V104.203C129.258 103.016 129.969 102.211 131.086 102.211C132.195 102.211 132.742 102.867 132.742 104.039V109H134.688V103.648C134.688 101.734 133.648 100.562 131.82 100.562C130.547 100.562 129.664 101.156 129.219 102.141H129.18V100.719H127.312V109ZM136.789 98.7812V100.719H135.602V102.219H136.789V106.797C136.789 108.406 137.492 109.039 139.281 109.039C139.695 109.039 140.078 109.008 140.289 108.961V107.477C140.164 107.5 139.914 107.516 139.734 107.516C139.047 107.516 138.734 107.203 138.734 106.523V102.219H140.297V100.719H138.734V98.7812H136.789Z" fill="white"/>
<defs>
<filter id="filter0_dd_578_2515" x="216" y="16" width="157" height="78" filterUnits="userSpaceOnUse" color-interpolation-filters="sRGB">
<feFlood flood-opacity="0" result="BackgroundImageFix"/>
<feColorMatrix in="SourceAlpha" type="matrix" values="0 0 0 0 0 0 0 0 0 0 0 0 0 0 0 0 0 0 127 0" result="hardAlpha"/>
<feOffset dx="8" dy="12"/>
<feGaussianBlur stdDeviation="9"/>
<feComposite in2="hardAlpha" operator="out"/>
<feColorMatrix type="matrix" values="0 0 0 0 0.239216 0 0 0 0 0.513726 0 0 0 0 1 0 0 0 0.1 0"/>
<feBlend mode="normal" in2="BackgroundImageFix" result="effect1_dropShadow_578_2515"/>
<feColorMatrix in="SourceAlpha" type="matrix" values="0 0 0 0 0 0 0 0 0 0 0 0 0 0 0 0 0 0 127 0" result="hardAlpha"/>
<feOffset dx="-4" dy="-4"/>
<feGaussianBlur stdDeviation="8"/>
<feComposite in2="hardAlpha" operator="out"/>
<feColorMatrix type="matrix" values="0 0 0 0 0.0901961 0 0 0 0 0.415686 0 0 0 0 1 0 0 0 0.05 0"/>
<feBlend mode="normal" in2="effect1_dropShadow_578_2515" result="effect2_dropShadow_578_2515"/>
<feBlend mode="normal" in="SourceGraphic" in2="effect2_dropShadow_578_2515" result="shape"/>
</filter>
<filter id="filter1_dd_578_2515" x="216" y="48" width="157" height="78" filterUnits="userSpaceOnUse" color-interpolation-filters="sRGB">
<feFlood flood-opacity="0" result="BackgroundImageFix"/>
<feColorMatrix in="SourceAlpha" type="matrix" values="0 0 0 0 0 0 0 0 0 0 0 0 0 0 0 0 0 0 127 0" result="hardAlpha"/>
<feOffset dx="8" dy="12"/>
<feGaussianBlur stdDeviation="9"/>
<feComposite in2="hardAlpha" operator="out"/>
<feColorMatrix type="matrix" values="0 0 0 0 0.239216 0 0 0 0 0.513726 0 0 0 0 1 0 0 0 0.1 0"/>
<feBlend mode="normal" in2="BackgroundImageFix" result="effect1_dropShadow_578_2515"/>
<feColorMatrix in="SourceAlpha" type="matrix" values="0 0 0 0 0 0 0 0 0 0 0 0 0 0 0 0 0 0 127 0" result="hardAlpha"/>
<feOffset dx="-4" dy="-4"/>
<feGaussianBlur stdDeviation="8"/>
<feComposite in2="hardAlpha" operator="out"/>
<feColorMatrix type="matrix" values="0 0 0 0 0.0901961 0 0 0 0 0.415686 0 0 0 0 1 0 0 0 0.05 0"/>
<feBlend mode="normal" in2="effect1_dropShadow_578_2515" result="effect2_dropShadow_578_2515"/>
<feBlend mode="normal" in="SourceGraphic" in2="effect2_dropShadow_578_2515" result="shape"/>
</filter>
<filter id="filter2_dd_578_2515" x="216" y="80" width="157" height="78" filterUnits="userSpaceOnUse" color-interpolation-filters="sRGB">
<feFlood flood-opacity="0" result="BackgroundImageFix"/>
<feColorMatrix in="SourceAlpha" type="matrix" values="0 0 0 0 0 0 0 0 0 0 0 0 0 0 0 0 0 0 127 0" result="hardAlpha"/>
<feOffset dx="8" dy="12"/>
<feGaussianBlur stdDeviation="9"/>
<feComposite in2="hardAlpha" operator="out"/>
<feColorMatrix type="matrix" values="0 0 0 0 0.239216 0 0 0 0 0.513726 0 0 0 0 1 0 0 0 0.1 0"/>
<feBlend mode="normal" in2="BackgroundImageFix" result="effect1_dropShadow_578_2515"/>
<feColorMatrix in="SourceAlpha" type="matrix" values="0 0 0 0 0 0 0 0 0 0 0 0 0 0 0 0 0 0 127 0" result="hardAlpha"/>
<feOffset dx="-4" dy="-4"/>
<feGaussianBlur stdDeviation="8"/>
<feComposite in2="hardAlpha" operator="out"/>
<feColorMatrix type="matrix" values="0 0 0 0 0.0901961 0 0 0 0 0.415686 0 0 0 0 1 0 0 0 0.05 0"/>
<feBlend mode="normal" in2="effect1_dropShadow_578_2515" result="effect2_dropShadow_578_2515"/>
<feBlend mode="normal" in="SourceGraphic" in2="effect2_dropShadow_578_2515" result="shape"/>
</filter>
<filter id="filter3_dd_578_2515" x="0" y="0" width="194" height="173" filterUnits="userSpaceOnUse" color-interpolation-filters="sRGB">
<feFlood flood-opacity="0" result="BackgroundImageFix"/>
<feColorMatrix in="SourceAlpha" type="matrix" values="0 0 0 0 0 0 0 0 0 0 0 0 0 0 0 0 0 0 127 0" result="hardAlpha"/>
<feOffset dx="8" dy="12"/>
<feGaussianBlur stdDeviation="9"/>
<feComposite in2="hardAlpha" operator="out"/>
<feColorMatrix type="matrix" values="0 0 0 0 0.239216 0 0 0 0 0.513726 0 0 0 0 1 0 0 0 0.1 0"/>
<feBlend mode="normal" in2="BackgroundImageFix" result="effect1_dropShadow_578_2515"/>
<feColorMatrix in="SourceAlpha" type="matrix" values="0 0 0 0 0 0 0 0 0 0 0 0 0 0 0 0 0 0 127 0" result="hardAlpha"/>
<feOffset dx="-4" dy="-4"/>
<feGaussianBlur stdDeviation="8"/>
<feComposite in2="hardAlpha" operator="out"/>
<feColorMatrix type="matrix" values="0 0 0 0 0.0901961 0 0 0 0 0.415686 0 0 0 0 1 0 0 0 0.05 0"/>
<feBlend mode="normal" in2="effect1_dropShadow_578_2515" result="effect2_dropShadow_578_2515"/>
<feBlend mode="normal" in="SourceGraphic" in2="effect2_dropShadow_578_2515" result="shape"/>
</filter>
</defs>
</svg>
