<svg width="32" height="32" viewBox="0 0 32 32" fill="none" xmlns="http://www.w3.org/2000/svg">
<path d="M7.85569 19.6793C7.85339 20.2574 7.67973 20.8219 7.35662 21.3014C7.03351 21.781 6.57544 22.1542 6.04025 22.3738C5.50505 22.5935 4.91673 22.6498 4.34955 22.5356C3.78237 22.4214 3.26176 22.1418 2.85345 21.7322C2.44515 21.3226 2.16745 20.8013 2.05542 20.2341C1.94338 19.667 2.00204 19.0793 2.22398 18.5454C2.44592 18.0115 2.82119 17.5553 3.30242 17.2343C3.78365 16.9134 4.34925 16.7421 4.92783 16.7421H7.85569V19.6793ZM9.33123 27.0048C9.43892 27.6973 9.79088 28.3285 10.3235 28.7844C10.8562 29.2404 11.5345 29.491 12.2359 29.491C12.9372 29.491 13.6155 29.2404 14.1482 28.7844C14.6808 28.3285 15.0328 27.6973 15.1405 27.0048V19.6793C15.2056 19.2604 15.1792 18.8325 15.0632 18.4248C14.9472 18.0171 14.7442 17.6394 14.4682 17.3175C14.1923 16.9956 13.8499 16.7372 13.4645 16.56C13.0792 16.3828 12.66 16.2911 12.2359 16.2911C11.8117 16.2911 11.3925 16.3828 11.0072 16.56C10.6218 16.7372 10.2794 16.9956 10.0035 17.3175C9.7275 17.6394 9.52453 18.0171 9.4085 18.4248C9.29246 18.8325 9.2661 19.2604 9.33123 19.6793V27.0048ZM15.1405 7.91895V4.99338C15.1517 4.40575 14.9863 3.82826 14.6655 3.33558C14.3448 2.84291 13.8835 2.45771 13.3413 2.22981C12.7992 2.0019 12.201 1.94177 11.6243 2.05719C11.0475 2.17261 10.5187 2.45827 10.1062 2.87723C9.69366 3.29619 9.41641 3.82918 9.31029 4.40728C9.20418 4.98538 9.27407 5.58199 9.51094 6.11997C9.7478 6.65795 10.1407 7.11255 10.639 7.42498C11.1372 7.73741 11.7177 7.89331 12.3056 7.87251L15.1405 7.91895ZM4.86974 9.39334C4.17668 9.50095 3.54496 9.85263 3.08867 10.3849C2.63239 10.9171 2.3816 11.5949 2.3816 12.2957C2.3816 12.9965 2.63239 13.6742 3.08867 14.2065C3.54496 14.7387 4.17668 15.0904 4.86974 15.198H12.201C12.6201 15.2631 13.0484 15.2368 13.4564 15.1208C13.8644 15.0049 14.2425 14.8021 14.5646 14.5263C14.8868 14.2506 15.1454 13.9085 15.3227 13.5234C15.5 13.1384 15.5918 12.7195 15.5918 12.2957C15.5918 11.8718 15.5 11.453 15.3227 11.068C15.1454 10.6829 14.8868 10.3408 14.5646 10.065C14.2425 9.7893 13.8644 9.58649 13.4564 9.47055C13.0484 9.3546 12.6201 9.32826 12.201 9.39334H4.86974ZM23.9705 15.198H26.8984C27.488 15.2306 28.0738 15.0849 28.5795 14.78C29.0851 14.4751 29.487 14.025 29.733 13.4885C29.9789 12.952 30.0574 12.3539 29.9583 11.7722C29.8591 11.1905 29.5869 10.6521 29.1771 10.2272C28.7673 9.80226 28.2389 9.51055 27.6608 9.39005C27.0826 9.26955 26.4816 9.32584 25.936 9.5516C25.3903 9.77736 24.9254 10.1621 24.6017 10.6557C24.2781 11.1493 24.1108 11.7289 24.1215 12.3189L23.9705 15.198ZM22.495 4.93534C22.448 4.18978 22.1185 3.49012 21.5734 2.97875C21.0284 2.46738 20.3089 2.18273 19.5613 2.18273C18.8137 2.18273 18.0941 2.46738 17.5491 2.97875C17.0041 3.49012 16.6746 4.18978 16.6276 4.93534V12.2609C16.6024 12.6613 16.6595 13.0627 16.7956 13.4403C16.9316 13.8178 17.1436 14.1635 17.4185 14.456C17.6934 14.7485 18.0253 14.9817 18.3939 15.141C18.7624 15.3004 19.1597 15.3826 19.5613 15.3826C19.9629 15.3826 20.3602 15.3004 20.7287 15.141C21.0973 14.9817 21.4292 14.7485 21.7041 14.456C21.979 14.1635 22.191 13.8178 22.327 13.4403C22.463 13.0627 22.5202 12.6613 22.495 12.2609V4.93534ZM16.7322 24.1256V27.0512C16.7299 27.6326 16.9003 28.2016 17.2219 28.6862C17.5435 29.1707 18.0018 29.549 18.5387 29.7731C19.0756 29.9972 19.667 30.057 20.238 29.945C20.8089 29.833 21.3338 29.5541 21.746 29.1438C22.1583 28.7335 22.4394 28.2102 22.5538 27.6401C22.6681 27.07 22.6106 26.4789 22.3885 25.9415C22.1663 25.4041 21.7896 24.9447 21.306 24.6215C20.8223 24.2982 20.2535 24.1257 19.6717 24.1256H16.7322ZM27.0029 22.6513C27.7491 22.6043 28.4493 22.275 28.961 21.7305C29.4728 21.1859 29.7577 20.4669 29.7577 19.7199C29.7577 18.9729 29.4728 18.2539 28.961 17.7093C28.4493 17.1647 27.7491 16.8355 27.0029 16.7885H19.6717C19.2709 16.7633 18.8692 16.8204 18.4913 16.9563C18.1135 17.0922 17.7675 17.3041 17.4748 17.5787C17.1821 17.8534 16.9487 18.1851 16.7893 18.5534C16.6298 18.9216 16.5475 19.3186 16.5475 19.7199C16.5475 20.1211 16.6298 20.5182 16.7893 20.8864C16.9487 21.2547 17.1821 21.5864 17.4748 21.861C17.7675 22.1357 18.1135 22.3475 18.4913 22.4835C18.8692 22.6194 19.2709 22.6765 19.6717 22.6513H27.0029Z" fill="white"/>
</svg>
