<svg width="28" height="9" viewBox="0 0 28 9" fill="none" xmlns="http://www.w3.org/2000/svg">
<path d="M3.97174 8.83984C3.34373 8.83984 2.74527 8.76648 2.17637 8.61976C1.61486 8.4657 1.14201 8.26029 0.757812 8.00353L1.3341 6.42994C1.57792 6.584 1.8439 6.71605 2.13204 6.82609C2.42019 6.93613 2.71941 7.02416 3.02972 7.09019C3.34742 7.14888 3.66882 7.17822 3.9939 7.17822C4.48153 7.17822 4.8177 7.11586 5.00241 6.99115C5.19451 6.86644 5.29055 6.70504 5.29055 6.50697C5.29055 6.3309 5.22775 6.19519 5.10215 6.09982C4.97655 5.99711 4.74012 5.90908 4.39287 5.83572L3.04081 5.56061C2.32414 5.41389 1.78848 5.1608 1.43384 4.80133C1.0792 4.43453 0.901885 3.95768 0.901885 3.37079C0.901885 2.85727 1.03857 2.41343 1.31194 2.03929C1.59269 1.65782 1.98428 1.36437 2.48668 1.15896C2.98909 0.946217 3.57646 0.839844 4.2488 0.839844C4.80292 0.839844 5.3238 0.916873 5.81143 1.07093C6.29906 1.21765 6.69803 1.42306 7.00834 1.68716L6.43205 3.16171C6.13652 2.94897 5.80404 2.78757 5.43463 2.67753C5.06521 2.56016 4.65516 2.50147 4.20447 2.50147C3.77595 2.50147 3.45086 2.56749 3.22921 2.69954C3.01495 2.82425 2.90782 3.00399 2.90782 3.23874C2.90782 3.40014 2.97062 3.53952 3.09622 3.6569C3.22921 3.76694 3.46933 3.85864 3.81658 3.932L5.14648 4.1961C5.86315 4.33549 6.39881 4.58491 6.75344 4.94438C7.11547 5.30385 7.29649 5.77336 7.29649 6.35291C7.29649 6.85176 7.15611 7.28826 6.87535 7.6624C6.60198 8.03654 6.21779 8.32632 5.72277 8.53173C5.22775 8.73714 4.64408 8.83984 3.97174 8.83984Z" fill="url(#paint0_linear_557_1422)"/>
<path d="M11.1742 8.83984C10.5462 8.83984 10.0032 8.72247 9.54511 8.48771C9.08703 8.25296 8.73239 7.91917 8.48119 7.48634C8.22999 7.04617 8.10438 6.52531 8.10438 5.92375C8.10438 5.31486 8.22999 4.79399 8.48119 4.36116C8.73239 3.92834 9.08703 3.59454 9.54511 3.35979C10.0032 3.12503 10.5462 3.00766 11.1742 3.00766C11.7949 3.00766 12.3342 3.12503 12.7923 3.35979C13.2504 3.59454 13.605 3.932 13.8562 4.37217C14.1074 4.805 14.233 5.32219 14.233 5.92375C14.233 6.51797 14.1074 7.03517 13.8562 7.47533C13.605 7.9155 13.2504 8.25296 12.7923 8.48771C12.3342 8.72247 11.7949 8.83984 11.1742 8.83984ZM11.1742 7.3873C11.4993 7.3873 11.7579 7.27359 11.95 7.04617C12.1421 6.81142 12.2382 6.43728 12.2382 5.92375C12.2382 5.41022 12.1421 5.03975 11.95 4.81233C11.7579 4.57758 11.4993 4.4602 11.1742 4.4602C10.8418 4.4602 10.5795 4.57758 10.3874 4.81233C10.1953 5.03975 10.0992 5.41022 10.0992 5.92375C10.0992 6.43728 10.1953 6.81142 10.3874 7.04617C10.5795 7.27359 10.8418 7.3873 11.1742 7.3873Z" fill="url(#paint1_linear_557_1422)"/>
<path d="M18.0142 8.83984C17.3862 8.83984 16.8432 8.72247 16.3851 8.48771C15.927 8.25296 15.5724 7.91917 15.3212 7.48634C15.07 7.04617 14.9444 6.52531 14.9444 5.92375C14.9444 5.31486 15.07 4.79399 15.3212 4.36116C15.5724 3.92834 15.927 3.59454 16.3851 3.35979C16.8432 3.12503 17.3862 3.00766 18.0142 3.00766C18.6348 3.00766 19.1742 3.12503 19.6323 3.35979C20.0903 3.59454 20.445 3.932 20.6962 4.37217C20.9474 4.805 21.073 5.32219 21.073 5.92375C21.073 6.51797 20.9474 7.03517 20.6962 7.47533C20.445 7.9155 20.0903 8.25296 19.6323 8.48771C19.1742 8.72247 18.6348 8.83984 18.0142 8.83984ZM18.0142 7.3873C18.3393 7.3873 18.5979 7.27359 18.79 7.04617C18.9821 6.81142 19.0781 6.43728 19.0781 5.92375C19.0781 5.41022 18.9821 5.03975 18.79 4.81233C18.5979 4.57758 18.3393 4.4602 18.0142 4.4602C17.6817 4.4602 17.4195 4.57758 17.2274 4.81233C17.0353 5.03975 16.9392 5.41022 16.9392 5.92375C16.9392 6.43728 17.0353 6.81142 17.2274 7.04617C17.4195 7.27359 17.6817 7.3873 18.0142 7.3873Z" fill="url(#paint2_linear_557_1422)"/>
<path d="M22.0392 8.7188V4.64727C22.0392 4.39785 22.0319 4.14475 22.0171 3.88799C22.0023 3.63122 21.9801 3.37813 21.9506 3.1287H23.8568L23.9676 4.09707H23.8457C24.0304 3.74493 24.2927 3.47717 24.6325 3.29376C24.9724 3.10303 25.3566 3.00766 25.7851 3.00766C26.4427 3.00766 26.934 3.20206 27.2591 3.59088C27.5916 3.97235 27.7578 4.57024 27.7578 5.38455V8.7188H25.7851V5.47258C25.7851 5.11311 25.7223 4.86369 25.5967 4.7243C25.4711 4.57758 25.2901 4.50422 25.0537 4.50422C24.7434 4.50422 24.4922 4.60692 24.3001 4.81233C24.108 5.01041 24.0119 5.27451 24.0119 5.60463V8.7188H22.0392Z" fill="url(#paint3_linear_557_1422)"/>
<defs>
<linearGradient id="paint0_linear_557_1422" x1="0.757813" y1="4.47984" x2="27.6949" y2="5.84353" gradientUnits="userSpaceOnUse">
<stop stop-color="#F77468"/>
<stop offset="1" stop-color="#F68831"/>
</linearGradient>
<linearGradient id="paint1_linear_557_1422" x1="0.757813" y1="4.47984" x2="27.6949" y2="5.84353" gradientUnits="userSpaceOnUse">
<stop stop-color="#F77468"/>
<stop offset="1" stop-color="#F68831"/>
</linearGradient>
<linearGradient id="paint2_linear_557_1422" x1="0.757813" y1="4.47984" x2="27.6949" y2="5.84353" gradientUnits="userSpaceOnUse">
<stop stop-color="#F77468"/>
<stop offset="1" stop-color="#F68831"/>
</linearGradient>
<linearGradient id="paint3_linear_557_1422" x1="0.757813" y1="4.47984" x2="27.6949" y2="5.84353" gradientUnits="userSpaceOnUse">
<stop stop-color="#F77468"/>
<stop offset="1" stop-color="#F68831"/>
</linearGradient>
</defs>
</svg>
