<svg width="48" height="48" viewBox="0 0 48 48" fill="none" xmlns="http://www.w3.org/2000/svg">
<rect width="48" height="48" rx="4" fill="url(#paint0_linear_763_72525)"/>
<g clip-path="url(#clip0_763_72525)">
<path d="M35.9583 14.6667H32.1667C31.5227 14.6667 31 15.1894 31 15.8334C31 16.4774 31.5227 17.0001 32.1667 17.0001H35.6667V31.0001H12.3333V17.0001H15.8333C16.4773 17.0001 17 16.4774 17 15.8334C17 15.1894 16.4773 14.6667 15.8333 14.6667H12.0417C10.9147 14.6667 10 15.5814 10 16.7084V31.2917C10 32.4187 10.9147 33.3334 12.0417 33.3334H21.6667V35.6667H19.3333C18.6893 35.6667 18.1667 36.1894 18.1667 36.8334C18.1667 37.4774 18.6893 38.0001 19.3333 38.0001H28.6667C29.3118 38.0001 29.8333 37.4774 29.8333 36.8334C29.8333 36.1894 29.3118 35.6667 28.6667 35.6667H26.3333V33.3334H35.9583C37.0853 33.3334 38 32.4187 38 31.2917V16.7084C38 15.5814 37.0853 14.6667 35.9583 14.6667Z" fill="white"/>
<path d="M28.3203 16.3805C28.3425 16.1997 28.3752 16.0212 28.3752 15.8333C28.3752 15.6455 28.3425 15.467 28.3203 15.2862L29.3715 14.4905C29.606 14.3132 29.6713 13.9888 29.5243 13.7333L28.5805 12.1C28.4335 11.8457 28.1197 11.7395 27.849 11.8538L26.6392 12.3637C26.344 12.1385 26.0302 11.9402 25.6837 11.7955L25.5227 10.511C25.4853 10.2193 25.238 10 24.944 10H23.0575C22.7635 10 22.515 10.2193 22.4788 10.511L22.3178 11.7955C21.9702 11.9402 21.6563 12.1397 21.3612 12.3637L20.1525 11.8538C19.8807 11.7395 19.5668 11.8445 19.4198 12.1L18.4772 13.7333C18.3302 13.9877 18.3955 14.312 18.63 14.4905L19.6812 15.2862C19.6578 15.467 19.6252 15.6455 19.6252 15.8333C19.6252 16.0212 19.6578 16.1997 19.68 16.3805L18.63 17.1762C18.3955 17.3535 18.329 17.6778 18.4772 17.9333L19.4198 19.5667C19.5668 19.8222 19.8807 19.9272 20.1525 19.8128L21.3623 19.3018C21.6575 19.527 21.9713 19.7253 22.3178 19.87L22.4788 21.1545C22.515 21.4473 22.7623 21.6667 23.0563 21.6667H24.9428C25.2368 21.6667 25.4853 21.4473 25.5215 21.1557L25.6825 19.8712C26.029 19.7265 26.344 19.527 26.638 19.303L27.8478 19.8128C28.1197 19.9272 28.4335 19.8222 28.5805 19.5667L29.5232 17.9333C29.6702 17.679 29.6048 17.3547 29.3703 17.1762L28.3203 16.3805ZM24.0002 18.1667C22.711 18.1667 21.6668 17.1225 21.6668 15.8333C21.6668 14.5442 22.711 13.5 24.0002 13.5C25.2893 13.5 26.3335 14.5442 26.3335 15.8333C26.3335 17.1225 25.2893 18.1667 24.0002 18.1667Z" fill="white"/>
</g>
<defs>
<linearGradient id="paint0_linear_763_72525" x1="8.29947e-07" y1="21.84" x2="48" y2="22.56" gradientUnits="userSpaceOnUse">
<stop stop-color="#F77468"/>
<stop offset="1" stop-color="#F68831"/>
</linearGradient>
<clipPath id="clip0_763_72525">
<rect width="28" height="28" fill="white" transform="translate(10 10)"/>
</clipPath>
</defs>
</svg>
