<svg width="48" height="48" viewBox="0 0 48 48" fill="none" xmlns="http://www.w3.org/2000/svg">
<path d="M0 4C0 1.79086 1.79086 0 4 0H44C46.2091 0 48 1.79086 48 4V44C48 46.2091 46.2091 48 44 48H4C1.79086 48 0 46.2091 0 44V4Z" fill="url(#paint0_linear_202_1169)"/>
<path fill-rule="evenodd" clip-rule="evenodd" d="M20.8674 10.9802C18.8868 11.3546 17.3135 12.1729 15.8573 13.5858C13.8447 15.5388 12.8316 18.1196 12.9723 20.9346L13.0225 21.9383L12.1447 22.3723C11.4149 22.7331 11.1358 22.9372 10.4877 23.5841C9.82767 24.2431 9.64553 24.4937 9.29807 25.2213C8.76585 26.3361 8.64656 26.8591 8.64846 28.0701C8.65036 29.2191 8.80745 29.9242 9.2732 30.8737C10.0678 32.4937 11.4559 33.633 13.3055 34.1833C13.9559 34.3768 14.149 34.3854 18.6733 34.4233C21.2545 34.4449 23.5402 34.4365 23.7524 34.4047C24.2831 34.3251 24.6065 33.9914 24.6065 33.5233C24.6065 33.3279 24.5626 33.0858 24.5088 32.9854C24.2816 32.5608 24.1082 32.5468 19.0665 32.5468C13.914 32.5468 13.7667 32.5345 12.8112 32.0246C12.1806 31.6881 11.3228 30.8066 10.9665 30.1289C10.5763 29.387 10.3755 28.4249 10.4542 27.6759C10.5788 26.4927 11.0482 25.569 11.9488 24.7351C12.5557 24.1732 13.182 23.8415 14.0253 23.635C14.4227 23.5378 14.6823 23.4146 14.8263 23.2548C15.0621 22.9931 15.0629 22.8259 14.8365 21.2204C14.5772 19.3822 15.2451 17.1442 16.5358 15.5261C17.4555 14.3731 19.0378 13.3496 20.5858 12.9064C21.5348 12.6348 23.5138 12.6141 24.4255 12.8663C25.7918 13.2442 26.8719 13.8446 27.8396 14.7637C29.3862 16.2329 30.1683 17.9047 30.3519 20.1341C30.4321 21.1084 30.6026 21.2777 31.5874 21.3609C32.9941 21.4798 34.1173 21.9851 35.1258 22.9528C35.7796 23.5801 36.2064 24.216 36.5389 25.0583C36.6507 25.3416 36.8387 25.6367 36.9566 25.7139C37.2104 25.8802 37.6532 25.8963 37.9294 25.7492C38.521 25.4341 38.5089 24.8571 37.8845 23.5934C37.4684 22.7515 37.312 22.5407 36.5049 21.7336C35.6935 20.9222 35.4915 20.7729 34.6451 20.3586C33.7258 19.9087 32.8219 19.6142 32.3602 19.6142C32.1532 19.6142 32.1315 19.5725 32.0738 19.0627C31.9946 18.3626 31.6455 17.1537 31.3071 16.4073C30.8964 15.5015 30.2798 14.6144 29.4867 13.7883C28.233 12.4823 26.7244 11.5956 24.9869 11.1435C23.865 10.8516 21.9496 10.7756 20.8674 10.9802ZM21.5769 14.0526C20.1677 14.3189 18.994 14.9201 17.9716 15.8994C17.0295 16.8019 16.3146 17.9575 16.0194 19.0548C15.8173 19.8062 16.1746 20.3377 16.8819 20.3377C17.344 20.3377 17.6522 20.0629 17.8173 19.504C18.2462 18.0511 19.59 16.636 21.0663 16.0825C21.3471 15.9773 21.974 15.8395 22.4593 15.7765C23.0531 15.6993 23.4 15.609 23.5201 15.5003C23.7576 15.2855 23.8416 14.7959 23.6998 14.4535C23.4798 13.9226 22.8722 13.8078 21.5769 14.0526ZM31.3598 25.2186C30.9377 25.3003 30.675 25.5493 30.477 26.0556C30.3577 26.3607 30.2372 26.4854 29.8861 26.6669C29.6434 26.7923 29.3103 26.9908 29.1457 27.1081C28.8758 27.3003 28.788 27.315 28.2526 27.2577L27.6588 27.1941L27.1882 27.6917C26.5544 28.362 25.9179 29.6148 25.9179 30.1921C25.9179 30.5429 25.9693 30.676 26.2118 30.9522C26.5027 31.2835 26.5057 31.2964 26.5057 32.2194C26.5057 33.052 26.4854 33.1702 26.3156 33.3239C26.0582 33.5568 25.8726 33.9342 25.8726 34.2246C25.8726 34.5591 26.4939 35.8395 26.9441 36.4329C27.4387 37.085 27.6523 37.1907 28.319 37.1133C28.793 37.0583 28.8781 37.075 29.1461 37.2763C29.3104 37.3996 29.6586 37.6075 29.9197 37.7383C30.1808 37.8691 30.3945 38.0165 30.3945 38.066C30.3945 38.1154 30.4786 38.3348 30.5814 38.5533C30.8492 39.1232 31.0782 39.1939 32.6555 39.1939C34.2617 39.1939 34.4628 39.1177 34.7094 38.4155C34.8504 38.0138 34.9286 37.9254 35.3188 37.727C35.5651 37.6018 35.918 37.3992 36.1032 37.2766C36.3978 37.0816 36.5012 37.0616 36.9316 37.1153C37.2929 37.1604 37.4939 37.1403 37.6893 37.0392C38.2299 36.7597 39.3478 34.8211 39.3478 34.1631C39.3478 33.9167 39.2678 33.7342 39.0403 33.4618C38.7367 33.0984 38.7326 33.0821 38.7305 32.204C38.7284 31.3262 38.7325 31.3092 39.0382 30.923C39.2558 30.648 39.3478 30.4386 39.3478 30.2186C39.3478 29.5849 38.2335 27.6324 37.6982 27.3282C37.5604 27.2498 37.3153 27.2294 36.9455 27.2655C36.4517 27.3135 36.3618 27.2946 36.0412 27.0756C35.8453 26.9417 35.4992 26.7373 35.2719 26.6214C34.9398 26.4519 34.838 26.3415 34.7533 26.0592C34.6148 25.5967 34.2921 25.3065 33.8133 25.214C33.3429 25.123 31.8393 25.1259 31.3598 25.2186ZM33.278 27.3918C33.4175 27.7739 33.4765 27.8237 34.2433 28.2058C34.6924 28.4296 35.2253 28.7472 35.4275 28.9115C35.7644 29.1853 35.84 29.2081 36.328 29.1828C36.8589 29.1554 36.8617 29.1567 37.1091 29.5171C37.2457 29.7161 37.3576 29.9121 37.3578 29.9527C37.358 29.9933 37.2492 30.1694 37.116 30.3441C36.8771 30.6573 36.8736 30.6818 36.8641 32.1549C36.854 33.7113 36.8488 33.6843 37.2762 34.268C37.3554 34.3762 37.3236 34.4959 37.1305 34.8156L36.8834 35.2246L36.3472 35.1858C35.846 35.1495 35.7865 35.1669 35.4354 35.4521C35.2289 35.62 34.6924 35.9404 34.2433 36.1643C33.4765 36.5464 33.4175 36.5961 33.278 36.9782L33.1294 37.3852L32.6349 37.4118L32.1403 37.4386L31.9508 36.9823C31.7713 36.5506 31.7232 36.5087 31.0592 36.2062C30.6732 36.0302 30.142 35.7201 29.8787 35.517C29.4194 35.1627 29.3783 35.1493 28.8622 35.1865L28.3245 35.2255L28.0868 34.7888L27.8491 34.3521L28.0818 34.0755C28.3572 33.7481 28.3325 33.9208 28.3536 32.185C28.3711 30.7597 28.3396 30.5734 28.0225 30.2248C27.8437 30.0283 27.8437 30.0278 28.0809 29.5917L28.3181 29.1553L28.8815 29.1826C29.4268 29.2089 29.4623 29.1967 29.9875 28.8C30.286 28.5747 30.754 28.3015 31.0276 28.193C31.6669 27.9396 31.8017 27.8186 31.9878 27.3314L32.1405 26.9314L32.635 26.9582L33.1294 26.9848L33.278 27.3918ZM31.504 29.1008C30.6548 29.4159 29.9971 30.0393 29.5971 30.908C29.404 31.3275 29.363 31.5507 29.3622 32.185C29.3614 32.8563 29.3964 33.0282 29.639 33.5416C29.9714 34.2452 30.5297 34.8179 31.2078 35.1509C31.6483 35.3672 31.8104 35.3955 32.6102 35.3955C33.3483 35.3955 33.5929 35.3594 33.9408 35.1987C35.6225 34.4217 36.3409 32.5074 35.5837 30.8202C35.3008 30.1899 34.5716 29.4599 33.9443 29.179C33.3261 28.9022 32.1414 28.8643 31.504 29.1008ZM33.1331 30.8625C33.7669 31.1337 34.1906 31.9241 34.0203 32.5176C33.7498 33.4608 32.6706 33.9288 31.9249 33.4264C31.0713 32.8512 30.9567 31.7982 31.6747 31.1278C32.0887 30.7413 32.6227 30.6441 33.1331 30.8625Z" fill="white"/>
<defs>
<linearGradient id="paint0_linear_202_1169" x1="8.29947e-07" y1="21.84" x2="48" y2="22.56" gradientUnits="userSpaceOnUse">
<stop stop-color="#F77468"/>
<stop offset="1" stop-color="#F68831"/>
</linearGradient>
</defs>
</svg>
