<svg width="48" height="48" viewBox="0 0 48 48" fill="none" xmlns="http://www.w3.org/2000/svg">
<path d="M0 4C0 1.79086 1.79086 0 4 0H44C46.2091 0 48 1.79086 48 4V44C48 46.2091 46.2091 48 44 48H4C1.79086 48 0 46.2091 0 44V4Z" fill="url(#paint0_linear_202_1159)"/>
<path d="M35.8332 16.7278L24.4115 10.1105C24.1573 9.96317 23.8436 9.96317 23.5893 10.1105L12.163 16.7277C11.9111 16.8737 11.7539 17.1454 11.7539 17.4368C11.7539 17.4385 11.7541 17.4401 11.7541 17.4417V30.5625C11.7541 30.8567 11.9139 31.132 12.1713 31.2769L23.5894 37.8895C23.7124 37.9608 23.8587 38 24.0005 38C24.1486 38 24.2932 37.9581 24.4117 37.8895L35.825 31.2769C35.827 31.2758 35.8288 31.2747 35.8307 31.2736C36.0953 31.0827 36.2378 30.9223 36.2418 30.5724C36.2419 30.5691 36.2421 30.5659 36.2421 30.5626V17.4418C36.2421 17.4402 36.2423 17.4385 36.2423 17.4369C36.2423 17.1453 36.085 16.8735 35.8332 16.7278ZM23.1804 35.757L14.2211 30.5662L21.1281 26.6053C21.521 26.38 21.6569 25.8788 21.4315 25.4859C21.2063 25.093 20.7051 24.9572 20.3122 25.1825L13.3941 29.1469V18.8544L23.1804 24.4746V35.757V35.757ZM24.0005 23.0542L14.2199 17.4345L24.0005 11.7679L33.781 17.4345L24.0005 23.0542ZM34.6073 29.1469L27.6888 25.1825C27.2959 24.9572 26.7947 25.093 26.5694 25.4859C26.344 25.8788 26.4799 26.3799 26.8728 26.6052L33.7798 30.5661L24.8205 35.7569V24.4746L34.6073 18.8544V29.1469H34.6073Z" fill="white"/>
<defs>
<linearGradient id="paint0_linear_202_1159" x1="8.29947e-07" y1="21.84" x2="48" y2="22.56" gradientUnits="userSpaceOnUse">
<stop stop-color="#F77468"/>
<stop offset="1" stop-color="#F68831"/>
</linearGradient>
</defs>
</svg>
