<svg width="56" height="24" viewBox="0 0 56 24" fill="none" xmlns="http://www.w3.org/2000/svg">
<path d="M19.0312 13.0547V10.9805H11.7891V13.9336H14.8828L14.8711 14.1914C14.7539 15.8906 13.3945 17.0391 11.4492 17.0391C8.97656 17.0391 7.38281 15.0117 7.38281 11.6602C7.38281 8.36719 8.82422 6.45703 11.2617 6.45703C12.9141 6.45703 14.1797 7.37109 14.6016 8.87109H18.8555C18.4219 5.42578 15.3516 3 11.25 3C6.14062 3 3 6.23438 3 11.7188C3 17.2734 6.14062 20.4961 11.3555 20.4961C16.1719 20.4961 19.0312 17.6719 19.0312 13.0547Z" fill="white"/>
<path d="M28.9102 20.4961C33.2695 20.4961 36.3867 17.8477 36.5859 13.8281H32.4492C32.1797 15.8086 30.8086 17.0508 28.9219 17.0508C26.5547 17.0508 25.0781 15.0469 25.0781 11.7305C25.0781 8.44922 26.5664 6.44531 28.9102 6.44531C30.7969 6.44531 32.2148 7.75781 32.4258 9.75H36.5625C36.4336 5.75391 33.1875 3 28.9102 3C23.8711 3 20.6953 6.22266 20.6953 11.7422C20.6953 17.2734 23.8477 20.4961 28.9102 20.4961Z" fill="white"/>
<path d="M42.6797 20.2031V10.2773H42.7734L49.9805 20.2031H53.3789V3.29297H49.3008V13.125H49.207L42.0352 3.29297H38.6016V20.2031H42.6797Z" fill="white"/>
</svg>
