<svg width="296" height="954" viewBox="0 0 296 954" fill="none" xmlns="http://www.w3.org/2000/svg">
<g clip-path="url(#clip0_926_13528)">
<path fill-rule="evenodd" clip-rule="evenodd" d="M0.5 145C0.5 144.448 0.947716 144 1.5 144H33.5C34.0523 144 34.5 144.448 34.5 145C34.5 145.552 34.0523 146 33.5 146H4.5C3.39543 146 2.5 146.895 2.5 148V311C2.5 312.105 3.39543 313 4.5 313H53.5C54.0523 313 54.5 313.448 54.5 314C54.5 314.552 54.0523 315 53.5 315H4.5C3.39543 315 2.5 315.895 2.5 317V355C2.5 356.105 3.39543 357 4.5 357H53.5C54.0523 357 54.5 357.448 54.5 358C54.5 358.552 54.0523 359 53.5 359H4.5C3.39543 359 2.5 359.895 2.5 361V399C2.5 400.105 3.39543 401 4.5 401H53.5C54.0523 401 54.5 401.448 54.5 402C54.5 402.552 54.0523 403 53.5 403H4.5C3.39543 403 2.5 403.895 2.5 405V443C2.5 444.105 3.39543 445 4.5 445H53.5C54.0523 445 54.5 445.448 54.5 446C54.5 446.552 54.0523 447 53.5 447H4.5C3.39543 447 2.5 447.895 2.5 449V509C2.5 510.105 3.39543 511 4.5 511H53.5C54.0523 511 54.5 511.448 54.5 512C54.5 512.552 54.0523 513 53.5 513H2.5C1.39543 513 0.5 512.105 0.5 511V447V445V403V401V359V357V315V313V146V145Z" fill="#E97826"/>
<path fill-rule="evenodd" clip-rule="evenodd" d="M241.5 314C241.5 313.448 241.948 313 242.5 313H293.5C294.605 313 295.5 313.895 295.5 315V357V359V401V403V445V447V511V513V739C295.5 740.105 294.605 741 293.5 741H262.5C261.948 741 261.5 740.552 261.5 740C261.5 739.448 261.948 739 262.5 739H291.5C292.605 739 293.5 738.105 293.5 737V515C293.5 513.895 292.605 513 291.5 513H242.5C241.948 513 241.5 512.552 241.5 512C241.5 511.448 241.948 511 242.5 511H291.5C292.605 511 293.5 510.105 293.5 509V449C293.5 447.895 292.605 447 291.5 447H242.5C241.948 447 241.5 446.552 241.5 446C241.5 445.448 241.948 445 242.5 445H291.5C292.605 445 293.5 444.105 293.5 443V405C293.5 403.895 292.605 403 291.5 403H242.5C241.948 403 241.5 402.552 241.5 402C241.5 401.448 241.948 401 242.5 401H291.5C292.605 401 293.5 400.105 293.5 399V361C293.5 359.895 292.605 359 291.5 359H242.5C241.948 359 241.5 358.552 241.5 358C241.5 357.448 241.948 357 242.5 357H291.5C292.605 357 293.5 356.105 293.5 355V317C293.5 315.895 292.605 315 291.5 315H242.5C241.948 315 241.5 314.552 241.5 314Z" fill="#E97826"/>
<g filter="url(#filter0_di_926_13528)">
<path d="M253.5 588H42.5C38.0817 588 34.5 591.582 34.5 596V916C34.5 920.418 38.0817 924 42.5 924H253.5C257.918 924 261.5 920.418 261.5 916V596C261.5 591.582 257.918 588 253.5 588Z" fill="#1E2631"/>
<path d="M253.5 588.5H42.5C38.3579 588.5 35 591.858 35 596V916C35 920.142 38.3579 923.5 42.5 923.5H253.5C257.642 923.5 261 920.142 261 916V596C261 591.858 257.642 588.5 253.5 588.5Z" stroke="white"/>
</g>
<path d="M260.5 744C262.709 744 264.5 742.209 264.5 740C264.5 737.791 262.709 736 260.5 736C258.291 736 256.5 737.791 256.5 740C256.5 742.209 258.291 744 260.5 744Z" fill="white"/>
<path d="M95.1182 658.241C90.5957 658.241 87.7598 661.324 87.7598 666.255C87.7598 671.186 90.5957 674.258 95.1182 674.258C99.6299 674.258 102.466 671.186 102.466 666.255C102.466 661.324 99.6299 658.241 95.1182 658.241ZM95.1182 660.604C97.8789 660.604 99.6406 662.796 99.6406 666.255C99.6406 669.703 97.8789 671.895 95.1182 671.895C92.3467 671.895 90.5957 669.703 90.5957 666.255C90.5957 662.796 92.3467 660.604 95.1182 660.604ZM104.41 674H107.085V667.372C107.085 665.771 107.998 664.794 109.513 664.794C109.964 664.794 110.372 664.858 110.598 664.944V662.527C110.404 662.484 110.104 662.42 109.76 662.42C108.417 662.42 107.418 663.215 107.031 664.601H106.978V662.613H104.41V674ZM115.066 674.183C116.527 674.183 117.956 673.42 118.611 672.185H118.665V674H121.243V666.158C121.243 663.87 119.406 662.377 116.581 662.377C113.681 662.377 111.865 663.902 111.747 666.029H114.229C114.4 665.084 115.206 664.472 116.474 664.472C117.795 664.472 118.601 665.159 118.601 666.352V667.168L115.593 667.34C112.821 667.512 111.264 668.726 111.264 670.745C111.264 672.797 112.864 674.183 115.066 674.183ZM115.872 672.163C114.712 672.163 113.938 671.572 113.938 670.638C113.938 669.735 114.68 669.155 115.969 669.069L118.601 668.908V669.778C118.601 671.153 117.387 672.163 115.872 672.163ZM133.436 666.674C133.253 664.278 131.395 662.377 128.387 662.377C125.078 662.377 122.93 664.665 122.93 668.307C122.93 672.002 125.078 674.226 128.408 674.226C131.266 674.226 133.231 672.55 133.446 670.004H130.922C130.675 671.293 129.794 672.066 128.44 672.066C126.743 672.066 125.647 670.691 125.647 668.307C125.647 665.965 126.732 664.547 128.419 664.547C129.848 664.547 130.696 665.46 130.911 666.674H133.436ZM135.122 674H137.797V658.499H135.122V674ZM147.615 670.595C147.325 671.54 146.38 672.163 145.134 672.163C143.383 672.163 142.266 670.938 142.266 669.112V668.951H150.226V668.081C150.226 664.622 148.206 662.377 144.973 662.377C141.686 662.377 139.602 664.751 139.602 668.35C139.602 671.98 141.664 674.226 145.08 674.226C147.776 674.226 149.774 672.743 150.118 670.595H147.615ZM144.983 664.45C146.52 664.45 147.551 665.578 147.604 667.189H142.287C142.395 665.6 143.479 664.45 144.983 664.45ZM163.31 674.258C166.973 674.258 169.508 672.249 169.991 668.93H167.273C166.844 670.799 165.372 671.905 163.32 671.905C160.635 671.905 158.938 669.725 158.938 666.244C158.938 662.785 160.646 660.594 163.31 660.594C165.318 660.594 166.897 661.872 167.263 663.816H169.991C169.647 660.486 166.908 658.241 163.31 658.241C158.905 658.241 156.102 661.303 156.102 666.244C156.102 671.218 158.884 674.258 163.31 674.258ZM171.903 674H174.578V658.499H171.903V674ZM181.894 674.226C185.234 674.226 187.404 672.002 187.404 668.307C187.404 664.622 185.213 662.377 181.894 662.377C178.574 662.377 176.383 664.633 176.383 668.307C176.383 672.002 178.553 674.226 181.894 674.226ZM181.894 672.109C180.196 672.109 179.101 670.734 179.101 668.307C179.101 665.89 180.207 664.504 181.894 664.504C183.591 664.504 184.687 665.89 184.687 668.307C184.687 670.734 183.591 672.109 181.894 672.109ZM199.221 662.613H196.546V669.198C196.546 670.853 195.59 671.948 194.043 671.948C192.539 671.948 191.744 671.067 191.744 669.435V662.613H189.069V669.972C189.069 672.604 190.638 674.204 193.108 674.204C194.838 674.204 195.987 673.409 196.589 672.023H196.643V674H199.221V662.613ZM205.666 674.183C207.331 674.183 208.642 673.334 209.265 672.056H209.308V674H211.929V658.499H209.254V664.525H209.189C208.588 663.269 207.299 662.42 205.666 662.42C202.798 662.42 200.939 664.697 200.939 668.296C200.939 671.916 202.798 674.183 205.666 674.183ZM206.472 664.622C208.158 664.622 209.265 666.072 209.265 668.307C209.265 670.562 208.158 671.991 206.472 671.991C204.742 671.991 203.679 670.573 203.679 668.307C203.679 666.051 204.753 664.622 206.472 664.622ZM87.7812 702V686.499H85.0098V702H87.7812ZM90.2412 702H92.916V695.404C92.916 693.771 93.8936 692.665 95.4297 692.665C96.9551 692.665 97.707 693.567 97.707 695.179V702H100.382V694.642C100.382 692.01 98.9531 690.398 96.4395 690.398C94.6885 690.398 93.4746 691.215 92.8623 692.568H92.8086V690.613H90.2412V702ZM103.271 702H105.946V692.676H108.181V690.646H105.903V689.711C105.903 688.787 106.365 688.304 107.386 688.304C107.697 688.304 108.009 688.336 108.234 688.368V686.499C107.901 686.435 107.321 686.381 106.795 686.381C104.324 686.381 103.271 687.423 103.271 689.636V690.646H101.714V692.676H103.271V702ZM109.942 702H112.617V695.372C112.617 693.771 113.53 692.794 115.045 692.794C115.496 692.794 115.904 692.858 116.13 692.944V690.527C115.937 690.484 115.636 690.42 115.292 690.42C113.949 690.42 112.95 691.215 112.563 692.601H112.51V690.613H109.942V702ZM120.599 702.183C122.06 702.183 123.488 701.42 124.144 700.185H124.197V702H126.775V694.158C126.775 691.87 124.938 690.377 122.113 690.377C119.213 690.377 117.397 691.902 117.279 694.029H119.761C119.933 693.084 120.738 692.472 122.006 692.472C123.327 692.472 124.133 693.159 124.133 694.352V695.168L121.125 695.34C118.354 695.512 116.796 696.726 116.796 698.745C116.796 700.797 118.396 702.183 120.599 702.183ZM121.404 700.163C120.244 700.163 119.471 699.572 119.471 698.638C119.471 697.735 120.212 697.155 121.501 697.069L124.133 696.908V697.778C124.133 699.153 122.919 700.163 121.404 700.163ZM128.73 693.879C128.73 695.565 129.826 696.64 132.007 697.123L133.897 697.542C135.09 697.811 135.498 698.197 135.498 698.885C135.498 699.733 134.692 700.271 133.393 700.271C132.039 700.271 131.276 699.712 131.072 698.605H128.44C128.655 700.808 130.417 702.226 133.393 702.226C136.186 702.226 138.162 700.775 138.162 698.627C138.162 696.973 137.249 696.06 134.886 695.533L132.995 695.114C131.803 694.846 131.33 694.395 131.33 693.739C131.33 692.901 132.114 692.343 133.296 692.343C134.531 692.343 135.294 692.998 135.401 694.029H137.894C137.829 691.87 136.067 690.377 133.296 690.377C130.546 690.377 128.73 691.795 128.73 693.879ZM140.611 687.949V690.613H138.979V692.676H140.611V698.971C140.611 701.184 141.578 702.054 144.038 702.054C144.607 702.054 145.134 702.011 145.424 701.946V699.905C145.252 699.938 144.908 699.959 144.661 699.959C143.716 699.959 143.286 699.529 143.286 698.595V692.676H145.435V690.613H143.286V687.949H140.611ZM147.261 702H149.936V695.372C149.936 693.771 150.849 692.794 152.363 692.794C152.814 692.794 153.223 692.858 153.448 692.944V690.527C153.255 690.484 152.954 690.42 152.61 690.42C151.268 690.42 150.269 691.215 149.882 692.601H149.828V690.613H147.261V702ZM164.921 690.613H162.246V697.198C162.246 698.853 161.29 699.948 159.743 699.948C158.239 699.948 157.444 699.067 157.444 697.435V690.613H154.77V697.972C154.77 700.604 156.338 702.204 158.809 702.204C160.538 702.204 161.688 701.409 162.289 700.023H162.343V702H164.921V690.613ZM177.146 694.674C176.963 692.278 175.104 690.377 172.097 690.377C168.788 690.377 166.64 692.665 166.64 696.307C166.64 700.002 168.788 702.226 172.118 702.226C174.976 702.226 176.941 700.55 177.156 698.004H174.632C174.385 699.293 173.504 700.066 172.15 700.066C170.453 700.066 169.357 698.691 169.357 696.307C169.357 693.965 170.442 692.547 172.129 692.547C173.558 692.547 174.406 693.46 174.621 694.674H177.146ZM179.498 687.949V690.613H177.865V692.676H179.498V698.971C179.498 701.184 180.465 702.054 182.925 702.054C183.494 702.054 184.021 702.011 184.311 701.946V699.905C184.139 699.938 183.795 699.959 183.548 699.959C182.603 699.959 182.173 699.529 182.173 698.595V692.676H184.321V690.613H182.173V687.949H179.498ZM196.245 690.613H193.57V697.198C193.57 698.853 192.614 699.948 191.067 699.948C189.563 699.948 188.769 699.067 188.769 697.435V690.613H186.094V697.972C186.094 700.604 187.662 702.204 190.133 702.204C191.862 702.204 193.012 701.409 193.613 700.023H193.667V702H196.245V690.613ZM198.437 702H201.111V695.372C201.111 693.771 202.024 692.794 203.539 692.794C203.99 692.794 204.398 692.858 204.624 692.944V690.527C204.431 690.484 204.13 690.42 203.786 690.42C202.443 690.42 201.444 691.215 201.058 692.601H201.004V690.613H198.437V702ZM213.11 698.595C212.82 699.54 211.875 700.163 210.629 700.163C208.878 700.163 207.761 698.938 207.761 697.112V696.951H215.721V696.081C215.721 692.622 213.701 690.377 210.468 690.377C207.181 690.377 205.097 692.751 205.097 696.35C205.097 699.98 207.159 702.226 210.575 702.226C213.271 702.226 215.27 700.743 215.613 698.595H213.11ZM210.479 692.45C212.015 692.45 213.046 693.578 213.1 695.189H207.782C207.89 693.6 208.975 692.45 210.479 692.45Z" fill="white"/>
<path d="M82.8603 892V876.499H79.6591L74.9111 888.326H74.8251L70.0771 876.499H66.8652V892H69.3681V881H69.4433L73.9228 892H75.8134L80.2929 881H80.3681V892H82.8603ZM86.7275 878.895C87.5439 878.895 88.1884 878.239 88.1884 877.444C88.1884 876.639 87.5439 875.994 86.7275 875.994C85.9111 875.994 85.2558 876.639 85.2558 877.444C85.2558 878.239 85.9111 878.895 86.7275 878.895ZM85.3954 892H88.0702V880.613H85.3954V892ZM100.349 884.674C100.166 882.278 98.3075 880.377 95.2997 880.377C91.9911 880.377 89.8427 882.665 89.8427 886.307C89.8427 890.002 91.9911 892.226 95.3212 892.226C98.1786 892.226 100.145 890.55 100.359 888.004H97.8349C97.5878 889.293 96.707 890.066 95.3534 890.066C93.6562 890.066 92.5605 888.691 92.5605 886.307C92.5605 883.965 93.6454 882.547 95.332 882.547C96.7607 882.547 97.6093 883.46 97.8241 884.674H100.349ZM101.96 892H104.635V885.372C104.635 883.771 105.548 882.794 107.063 882.794C107.514 882.794 107.922 882.858 108.147 882.944V880.527C107.954 880.484 107.653 880.42 107.31 880.42C105.967 880.42 104.968 881.215 104.581 882.601H104.527V880.613H101.96V892ZM114.131 892.226C117.472 892.226 119.642 890.002 119.642 886.307C119.642 882.622 117.45 880.377 114.131 880.377C110.812 880.377 108.62 882.633 108.62 886.307C108.62 890.002 110.79 892.226 114.131 892.226ZM114.131 890.109C112.434 890.109 111.338 888.734 111.338 886.307C111.338 883.89 112.444 882.504 114.131 882.504C115.828 882.504 116.924 883.89 116.924 886.307C116.924 888.734 115.828 890.109 114.131 890.109ZM121.156 883.879C121.156 885.565 122.252 886.64 124.433 887.123L126.323 887.542C127.516 887.811 127.924 888.197 127.924 888.885C127.924 889.733 127.118 890.271 125.818 890.271C124.465 890.271 123.702 889.712 123.498 888.605H120.866C121.081 890.808 122.843 892.226 125.818 892.226C128.611 892.226 130.588 890.775 130.588 888.627C130.588 886.973 129.675 886.06 127.312 885.533L125.421 885.114C124.229 884.846 123.756 884.395 123.756 883.739C123.756 882.901 124.54 882.343 125.722 882.343C126.957 882.343 127.72 882.998 127.827 884.029H130.319C130.255 881.87 128.493 880.377 125.722 880.377C122.972 880.377 121.156 881.795 121.156 883.879ZM137.334 892.226C140.675 892.226 142.845 890.002 142.845 886.307C142.845 882.622 140.653 880.377 137.334 880.377C134.015 880.377 131.823 882.633 131.823 886.307C131.823 890.002 133.993 892.226 137.334 892.226ZM137.334 890.109C135.637 890.109 134.541 888.734 134.541 886.307C134.541 883.89 135.647 882.504 137.334 882.504C139.031 882.504 140.127 883.89 140.127 886.307C140.127 888.734 139.031 890.109 137.334 890.109ZM145.305 892H147.98V882.676H150.214V880.646H147.937V879.711C147.937 878.787 148.398 878.304 149.419 878.304C149.73 878.304 150.042 878.336 150.268 878.368V876.499C149.935 876.435 149.355 876.381 148.828 876.381C146.357 876.381 145.305 877.423 145.305 879.636V880.646H143.747V882.676H145.305V892ZM152.717 877.949V880.613H151.084V882.676H152.717V888.971C152.717 891.184 153.684 892.054 156.144 892.054C156.713 892.054 157.239 892.011 157.529 891.946V889.905C157.357 889.938 157.014 889.959 156.767 889.959C155.821 889.959 155.392 889.529 155.392 888.595V882.676H157.54V880.613H155.392V877.949H152.717ZM174.169 892H177.091L171.591 876.499H168.465L162.965 892H165.822L167.144 887.993H172.848L174.169 892ZM169.958 879.238H170.033L172.192 885.855H167.788L169.958 879.238ZM178.262 892H187.339V889.916H181.581V889.862L187.242 882.375V880.613H178.315V882.697H184.159V882.74L178.262 890.378V892ZM199.413 880.613H196.738V887.198C196.738 888.853 195.782 889.948 194.235 889.948C192.731 889.948 191.937 889.067 191.937 887.435V880.613H189.262V887.972C189.262 890.604 190.83 892.204 193.301 892.204C195.03 892.204 196.18 891.409 196.781 890.023H196.835V892H199.413V880.613ZM201.605 892H204.279V885.372C204.279 883.771 205.192 882.794 206.707 882.794C207.158 882.794 207.566 882.858 207.792 882.944V880.527C207.599 880.484 207.298 880.42 206.954 880.42C205.611 880.42 204.612 881.215 204.226 882.601H204.172V880.613H201.605V892ZM216.278 888.595C215.988 889.54 215.043 890.163 213.797 890.163C212.046 890.163 210.929 888.938 210.929 887.112V886.951H218.889V886.081C218.889 882.622 216.869 880.377 213.636 880.377C210.349 880.377 208.265 882.751 208.265 886.35C208.265 889.98 210.327 892.226 213.743 892.226C216.439 892.226 218.438 890.743 218.781 888.595H216.278ZM213.647 882.45C215.183 882.45 216.214 883.578 216.268 885.189H210.95C211.058 883.6 212.143 882.45 213.647 882.45ZM227.321 883.062L228.084 881.72L225.71 880.366L228.095 878.991L227.321 877.648L225.033 879.045L225.13 876.499H223.4L223.497 879.045L221.209 877.648L220.457 878.991L222.81 880.355L220.446 881.709L221.198 883.062L223.497 881.666L223.4 884.212H225.13L225.033 881.666L227.321 883.062Z" fill="white"/>
<path d="M96.6592 746H99.5811L94.0811 730.499H90.9551L85.4551 746H88.3125L89.6338 741.993H95.3379L96.6592 746ZM92.4482 733.238H92.5234L94.6826 739.855H90.2783L92.4482 733.238ZM100.978 746H103.652V739.028C103.652 737.653 104.555 736.654 105.844 736.654C107.09 736.654 107.863 737.438 107.863 738.706V746H110.463V738.964C110.463 737.6 111.344 736.654 112.633 736.654C113.943 736.654 114.674 737.449 114.674 738.846V746H117.349V738.19C117.349 735.913 115.877 734.398 113.632 734.398C111.988 734.398 110.635 735.279 110.087 736.687H110.022C109.604 735.226 108.454 734.398 106.843 734.398C105.296 734.398 104.093 735.269 103.599 736.59H103.545V734.613H100.978V746ZM122.849 746.183C124.31 746.183 125.738 745.42 126.394 744.185H126.447V746H129.025V738.158C129.025 735.87 127.188 734.377 124.363 734.377C121.463 734.377 119.647 735.902 119.529 738.029H122.011C122.183 737.084 122.988 736.472 124.256 736.472C125.577 736.472 126.383 737.159 126.383 738.352V739.168L123.375 739.34C120.604 739.512 119.046 740.726 119.046 742.745C119.046 744.797 120.646 746.183 122.849 746.183ZM123.654 744.163C122.494 744.163 121.721 743.572 121.721 742.638C121.721 741.735 122.462 741.155 123.751 741.069L126.383 740.908V741.778C126.383 743.153 125.169 744.163 123.654 744.163ZM130.873 746H139.95V743.916H134.192V743.862L139.854 736.375V734.613H130.927V736.697H136.771V736.74L130.873 744.378V746ZM146.664 746.226C150.005 746.226 152.175 744.002 152.175 740.307C152.175 736.622 149.983 734.377 146.664 734.377C143.345 734.377 141.153 736.633 141.153 740.307C141.153 744.002 143.323 746.226 146.664 746.226ZM146.664 744.109C144.967 744.109 143.871 742.734 143.871 740.307C143.871 737.89 144.978 736.504 146.664 736.504C148.361 736.504 149.457 737.89 149.457 740.307C149.457 742.734 148.361 744.109 146.664 744.109ZM153.894 746H156.568V739.404C156.568 737.771 157.546 736.665 159.082 736.665C160.607 736.665 161.359 737.567 161.359 739.179V746H164.034V738.642C164.034 736.01 162.605 734.398 160.092 734.398C158.341 734.398 157.127 735.215 156.515 736.568H156.461V734.613H153.894V746ZM179.89 734.785H179.997L183.166 746H185.776L189.934 730.499H187.055L184.369 742.24H184.283L181.168 730.499H178.719L175.604 742.24H175.518L172.832 730.499H169.953L174.11 746H176.721L179.89 734.785ZM197.786 742.595C197.496 743.54 196.551 744.163 195.305 744.163C193.554 744.163 192.437 742.938 192.437 741.112V740.951H200.396V740.081C200.396 736.622 198.377 734.377 195.144 734.377C191.856 734.377 189.772 736.751 189.772 740.35C189.772 743.98 191.835 746.226 195.251 746.226C197.947 746.226 199.945 744.743 200.289 742.595H197.786ZM195.154 736.45C196.69 736.45 197.722 737.578 197.775 739.189H192.458C192.565 737.6 193.65 736.45 195.154 736.45ZM208.496 746.183C211.375 746.183 213.19 743.948 213.19 740.307C213.19 736.665 211.364 734.42 208.496 734.42C206.885 734.42 205.585 735.236 204.94 736.568H204.876V730.499H202.201V746H204.822V744.056H204.876C205.542 745.377 206.82 746.183 208.496 746.183ZM207.669 736.622C209.377 736.622 210.451 738.051 210.451 740.307C210.451 742.573 209.388 743.991 207.669 743.991C206.015 743.991 204.865 742.541 204.865 740.307C204.865 738.094 206.015 736.622 207.669 736.622ZM108.357 769.671C108.486 772.507 110.86 774.258 114.448 774.258C118.176 774.258 120.507 772.389 120.507 769.424C120.507 767.125 119.143 765.814 115.877 765.138L114.201 764.794C112.268 764.386 111.494 763.709 111.494 762.656C111.494 761.356 112.719 760.54 114.438 760.54C116.21 760.54 117.435 761.421 117.563 762.882H120.217C120.152 760.11 117.886 758.241 114.459 758.241C111.097 758.241 108.701 760.089 108.701 762.817C108.701 765.084 110.151 766.545 113.256 767.179L114.921 767.522C116.94 767.941 117.714 768.629 117.714 769.746C117.714 771.035 116.414 771.959 114.545 771.959C112.611 771.959 111.215 771.1 111.011 769.671H108.357ZM129.853 770.595C129.562 771.54 128.617 772.163 127.371 772.163C125.62 772.163 124.503 770.938 124.503 769.112V768.951H132.463V768.081C132.463 764.622 130.443 762.377 127.21 762.377C123.923 762.377 121.839 764.751 121.839 768.35C121.839 771.98 123.901 774.226 127.317 774.226C130.014 774.226 132.012 772.743 132.355 770.595H129.853ZM127.221 764.45C128.757 764.45 129.788 765.578 129.842 767.189H124.524C124.632 765.6 125.717 764.45 127.221 764.45ZM134.192 774H136.867V767.372C136.867 765.771 137.78 764.794 139.295 764.794C139.746 764.794 140.154 764.858 140.38 764.944V762.527C140.187 762.484 139.886 762.42 139.542 762.42C138.199 762.42 137.2 763.215 136.813 764.601H136.76V762.613H134.192V774ZM151.777 762.613H148.984L146.342 771.519H146.288L143.646 762.613H140.788L144.827 774H147.771L151.777 762.613ZM154.409 760.895C155.226 760.895 155.87 760.239 155.87 759.444C155.87 758.639 155.226 757.994 154.409 757.994C153.593 757.994 152.938 758.639 152.938 759.444C152.938 760.239 153.593 760.895 154.409 760.895ZM153.077 774H155.752V762.613H153.077V774ZM168.03 766.674C167.848 764.278 165.989 762.377 162.981 762.377C159.673 762.377 157.524 764.665 157.524 768.307C157.524 772.002 159.673 774.226 163.003 774.226C165.86 774.226 167.826 772.55 168.041 770.004H165.517C165.27 771.293 164.389 772.066 163.035 772.066C161.338 772.066 160.242 770.691 160.242 768.307C160.242 765.965 161.327 764.547 163.014 764.547C164.442 764.547 165.291 765.46 165.506 766.674H168.03ZM177.183 770.595C176.893 771.54 175.947 772.163 174.701 772.163C172.95 772.163 171.833 770.938 171.833 769.112V768.951H179.793V768.081C179.793 764.622 177.773 762.377 174.54 762.377C171.253 762.377 169.169 764.751 169.169 768.35C169.169 771.98 171.231 774.226 174.647 774.226C177.344 774.226 179.342 772.743 179.686 770.595H177.183ZM174.551 764.45C176.087 764.45 177.118 765.578 177.172 767.189H171.854C171.962 765.6 173.047 764.45 174.551 764.45ZM181.318 765.879C181.318 767.565 182.414 768.64 184.595 769.123L186.485 769.542C187.678 769.811 188.086 770.197 188.086 770.885C188.086 771.733 187.28 772.271 185.98 772.271C184.627 772.271 183.864 771.712 183.66 770.605H181.028C181.243 772.808 183.005 774.226 185.98 774.226C188.773 774.226 190.75 772.775 190.75 770.627C190.75 768.973 189.837 768.06 187.474 767.533L185.583 767.114C184.391 766.846 183.918 766.395 183.918 765.739C183.918 764.901 184.702 764.343 185.884 764.343C187.119 764.343 187.882 764.998 187.989 766.029H190.481C190.417 763.87 188.655 762.377 185.884 762.377C183.134 762.377 181.318 763.795 181.318 765.879Z" fill="white"/>
<path d="M98.834 811.533V809.879H92.3886V811.995H96.1269L96.1162 812.253C96.0732 814.423 94.4511 815.905 92.1094 815.905C89.3164 815.905 87.5761 813.725 87.5761 810.158C87.5761 806.667 89.2412 804.594 92.0342 804.594C93.9355 804.594 95.375 805.646 95.9013 807.43H98.7158C98.2109 804.325 95.5469 802.241 92.0234 802.241C87.5439 802.241 84.7402 805.271 84.7402 810.19C84.7402 815.186 87.5547 818.258 92.0771 818.258C96.3203 818.258 98.834 815.733 98.834 811.533ZM105.87 818.226C109.211 818.226 111.381 816.002 111.381 812.307C111.381 808.622 109.189 806.377 105.87 806.377C102.551 806.377 100.359 808.633 100.359 812.307C100.359 816.002 102.529 818.226 105.87 818.226ZM105.87 816.109C104.173 816.109 103.077 814.734 103.077 812.307C103.077 809.89 104.184 808.504 105.87 808.504C107.567 808.504 108.663 809.89 108.663 812.307C108.663 814.734 107.567 816.109 105.87 816.109ZM118.138 818.226C121.478 818.226 123.648 816.002 123.648 812.307C123.648 808.622 121.457 806.377 118.138 806.377C114.818 806.377 112.627 808.633 112.627 812.307C112.627 816.002 114.797 818.226 118.138 818.226ZM118.138 816.109C116.44 816.109 115.345 814.734 115.345 812.307C115.345 809.89 116.451 808.504 118.138 808.504C119.835 808.504 120.931 809.89 120.931 812.307C120.931 814.734 119.835 816.109 118.138 816.109ZM130.384 822.297C133.703 822.297 135.884 820.535 135.884 817.817V806.613H133.263V808.568H133.22C132.564 807.258 131.254 806.42 129.632 806.42C126.721 806.42 124.895 808.665 124.895 812.264C124.895 815.809 126.764 818.011 129.578 818.011C131.211 818.011 132.554 817.194 133.145 815.97H133.209V817.893C133.209 819.343 132.21 820.32 130.47 820.32C129.202 820.32 128.225 819.729 127.935 818.859H125.281C125.55 820.857 127.569 822.297 130.384 822.297ZM130.395 815.884C128.708 815.884 127.634 814.53 127.634 812.274C127.634 810.04 128.708 808.622 130.395 808.622C132.103 808.622 133.209 810.062 133.209 812.274C133.209 814.498 132.103 815.884 130.395 815.884ZM138.14 818H140.814V802.499H138.14V818ZM150.633 814.595C150.343 815.54 149.397 816.163 148.151 816.163C146.4 816.163 145.283 814.938 145.283 813.112V812.951H153.243V812.081C153.243 808.622 151.224 806.377 147.99 806.377C144.703 806.377 142.619 808.751 142.619 812.35C142.619 815.98 144.682 818.226 148.098 818.226C150.794 818.226 152.792 816.743 153.136 814.595H150.633ZM148.001 808.45C149.537 808.45 150.568 809.578 150.622 811.189H145.305C145.412 809.6 146.497 808.45 148.001 808.45ZM166.327 818.258C169.99 818.258 172.525 816.249 173.009 812.93H170.291C169.861 814.799 168.39 815.905 166.338 815.905C163.652 815.905 161.955 813.725 161.955 810.244C161.955 806.785 163.663 804.594 166.327 804.594C168.336 804.594 169.915 805.872 170.28 807.816H173.009C172.665 804.486 169.926 802.241 166.327 802.241C161.923 802.241 159.119 805.303 159.119 810.244C159.119 815.218 161.901 818.258 166.327 818.258ZM174.921 818H177.596V802.499H174.921V818ZM184.911 818.226C188.252 818.226 190.422 816.002 190.422 812.307C190.422 808.622 188.23 806.377 184.911 806.377C181.592 806.377 179.4 808.633 179.4 812.307C179.4 816.002 181.57 818.226 184.911 818.226ZM184.911 816.109C183.214 816.109 182.118 814.734 182.118 812.307C182.118 809.89 183.225 808.504 184.911 808.504C186.608 808.504 187.704 809.89 187.704 812.307C187.704 814.734 186.608 816.109 184.911 816.109ZM202.238 806.613H199.563V813.198C199.563 814.853 198.607 815.948 197.061 815.948C195.557 815.948 194.762 815.067 194.762 813.435V806.613H192.087V813.972C192.087 816.604 193.655 818.204 196.126 818.204C197.855 818.204 199.005 817.409 199.606 816.023H199.66V818H202.238V806.613ZM208.684 818.183C210.349 818.183 211.659 817.334 212.282 816.056H212.325V818H214.946V802.499H212.271V808.525H212.207C211.605 807.269 210.316 806.42 208.684 806.42C205.815 806.42 203.957 808.697 203.957 812.296C203.957 815.916 205.815 818.183 208.684 818.183ZM209.489 808.622C211.176 808.622 212.282 810.072 212.282 812.307C212.282 814.562 211.176 815.991 209.489 815.991C207.76 815.991 206.696 814.573 206.696 812.307C206.696 810.051 207.77 808.622 209.489 808.622ZM105.247 830.499V846H108.019V840.876H111.155C114.292 840.876 116.494 838.781 116.494 835.688C116.494 832.594 114.356 830.499 111.273 830.499H105.247ZM108.019 832.766H110.543C112.53 832.766 113.68 833.829 113.68 835.688C113.68 837.567 112.52 838.642 110.532 838.642H108.019V832.766ZM118.331 846H121.006V830.499H118.331V846ZM126.635 846.183C128.096 846.183 129.524 845.42 130.18 844.185H130.233V846H132.811V838.158C132.811 835.87 130.975 834.377 128.149 834.377C125.249 834.377 123.434 835.902 123.315 838.029H125.797C125.969 837.084 126.774 836.472 128.042 836.472C129.363 836.472 130.169 837.159 130.169 838.352V839.168L127.161 839.34C124.39 839.512 122.832 840.726 122.832 842.745C122.832 844.797 124.433 846.183 126.635 846.183ZM127.44 844.163C126.28 844.163 125.507 843.572 125.507 842.638C125.507 841.735 126.248 841.155 127.537 841.069L130.169 840.908V841.778C130.169 843.153 128.955 844.163 127.44 844.163ZM135.712 831.949V834.613H134.079V836.676H135.712V842.971C135.712 845.184 136.679 846.054 139.139 846.054C139.708 846.054 140.234 846.011 140.524 845.946V843.905C140.353 843.938 140.009 843.959 139.762 843.959C138.816 843.959 138.387 843.529 138.387 842.595V836.676H140.535V834.613H138.387V831.949H135.712ZM143.103 846H145.777V836.676H148.012V834.646H145.734V833.711C145.734 832.787 146.196 832.304 147.217 832.304C147.528 832.304 147.84 832.336 148.065 832.368V830.499C147.732 830.435 147.152 830.381 146.626 830.381C144.155 830.381 143.103 831.423 143.103 833.636V834.646H141.545V836.676H143.103V846ZM154.403 846.226C157.744 846.226 159.914 844.002 159.914 840.307C159.914 836.622 157.723 834.377 154.403 834.377C151.084 834.377 148.893 836.633 148.893 840.307C148.893 844.002 151.062 846.226 154.403 846.226ZM154.403 844.109C152.706 844.109 151.61 842.734 151.61 840.307C151.61 837.89 152.717 836.504 154.403 836.504C156.101 836.504 157.196 837.89 157.196 840.307C157.196 842.734 156.101 844.109 154.403 844.109ZM161.633 846H164.308V839.372C164.308 837.771 165.221 836.794 166.735 836.794C167.187 836.794 167.595 836.858 167.82 836.944V834.527C167.627 834.484 167.326 834.42 166.982 834.42C165.64 834.42 164.641 835.215 164.254 836.601H164.2V834.613H161.633V846ZM169.195 846H171.87V839.028C171.87 837.653 172.772 836.654 174.061 836.654C175.308 836.654 176.081 837.438 176.081 838.706V846H178.681V838.964C178.681 837.6 179.561 836.654 180.851 836.654C182.161 836.654 182.892 837.449 182.892 838.846V846H185.566V838.19C185.566 835.913 184.095 834.398 181.85 834.398C180.206 834.398 178.853 835.279 178.305 836.687H178.24C177.821 835.226 176.672 834.398 175.061 834.398C173.514 834.398 172.311 835.269 171.816 836.59H171.763V834.613H169.195V846Z" fill="white"/>
<path d="M34.5 596C34.5 591.582 38.0817 588 42.5 588H253.5C257.918 588 261.5 591.582 261.5 596V636H34.5V596Z" fill="white"/>
<path d="M83.9883 605.09V622H87.0117V616.41H90.4336C93.8555 616.41 96.2578 614.125 96.2578 610.75C96.2578 607.375 93.9258 605.09 90.5625 605.09H83.9883ZM87.0117 607.562H89.7656C91.9336 607.562 93.1875 608.723 93.1875 610.75C93.1875 612.801 91.9219 613.973 89.7539 613.973H87.0117V607.562ZM109.195 609.578H106.277V616.762C106.277 618.566 105.234 619.762 103.547 619.762C101.906 619.762 101.039 618.801 101.039 617.02V609.578H98.1211V617.605C98.1211 620.477 99.832 622.223 102.527 622.223C104.414 622.223 105.668 621.355 106.324 619.844H106.383V622H109.195V609.578ZM118.535 622.199C121.676 622.199 123.656 619.762 123.656 615.789C123.656 611.816 121.664 609.367 118.535 609.367C116.777 609.367 115.359 610.258 114.656 611.711H114.586V605.09H111.668V622H114.527V619.879H114.586C115.312 621.32 116.707 622.199 118.535 622.199ZM117.633 611.77C119.496 611.77 120.668 613.328 120.668 615.789C120.668 618.262 119.508 619.809 117.633 619.809C115.828 619.809 114.574 618.227 114.574 615.789C114.574 613.375 115.828 611.77 117.633 611.77ZM125.637 622H128.555V605.09H125.637V622ZM132.562 607.703C133.453 607.703 134.156 606.988 134.156 606.121C134.156 605.242 133.453 604.539 132.562 604.539C131.672 604.539 130.957 605.242 130.957 606.121C130.957 606.988 131.672 607.703 132.562 607.703ZM131.109 622H134.027V609.578H131.109V622ZM147.422 614.008C147.223 611.395 145.195 609.32 141.914 609.32C138.305 609.32 135.961 611.816 135.961 615.789C135.961 619.82 138.305 622.246 141.938 622.246C145.055 622.246 147.199 620.418 147.434 617.641H144.68C144.41 619.047 143.449 619.891 141.973 619.891C140.121 619.891 138.926 618.391 138.926 615.789C138.926 613.234 140.109 611.688 141.949 611.688C143.508 611.688 144.434 612.684 144.668 614.008H147.422ZM161.566 622.281C165.562 622.281 168.328 620.09 168.855 616.469H165.891C165.422 618.508 163.816 619.715 161.578 619.715C158.648 619.715 156.797 617.336 156.797 613.539C156.797 609.766 158.66 607.375 161.566 607.375C163.758 607.375 165.48 608.77 165.879 610.891H168.855C168.48 607.258 165.492 604.809 161.566 604.809C156.762 604.809 153.703 608.148 153.703 613.539C153.703 618.965 156.738 622.281 161.566 622.281ZM170.941 622H173.859V605.09H170.941V622ZM181.84 622.246C185.484 622.246 187.852 619.82 187.852 615.789C187.852 611.77 185.461 609.32 181.84 609.32C178.219 609.32 175.828 611.781 175.828 615.789C175.828 619.82 178.195 622.246 181.84 622.246ZM181.84 619.938C179.988 619.938 178.793 618.438 178.793 615.789C178.793 613.152 180 611.641 181.84 611.641C183.691 611.641 184.887 613.152 184.887 615.789C184.887 618.438 183.691 619.938 181.84 619.938ZM200.742 609.578H197.824V616.762C197.824 618.566 196.781 619.762 195.094 619.762C193.453 619.762 192.586 618.801 192.586 617.02V609.578H189.668V617.605C189.668 620.477 191.379 622.223 194.074 622.223C195.961 622.223 197.215 621.355 197.871 619.844H197.93V622H200.742V609.578ZM207.773 622.199C209.59 622.199 211.02 621.273 211.699 619.879H211.746V622H214.605V605.09H211.688V611.664H211.617C210.961 610.293 209.555 609.367 207.773 609.367C204.645 609.367 202.617 611.852 202.617 615.777C202.617 619.727 204.645 622.199 207.773 622.199ZM208.652 611.77C210.492 611.77 211.699 613.352 211.699 615.789C211.699 618.25 210.492 619.809 208.652 619.809C206.766 619.809 205.605 618.262 205.605 615.789C205.605 613.328 206.777 611.77 208.652 611.77Z" fill="#1E2631"/>
<g filter="url(#filter1_di_926_13528)">
<path d="M231.5 294H64.5C60.0817 294 56.5 297.582 56.5 302V326C56.5 330.418 60.0817 334 64.5 334H231.5C235.918 334 239.5 330.418 239.5 326V302C239.5 297.582 235.918 294 231.5 294Z" fill="#1E2631"/>
<path d="M231.5 294.5H64.5C60.3579 294.5 57 297.858 57 302V326C57 330.142 60.3579 333.5 64.5 333.5H231.5C235.642 333.5 239 330.142 239 326V302C239 297.858 235.642 294.5 231.5 294.5Z" stroke="white"/>
</g>
<path d="M80.7831 306.23C76.1855 306.23 73.3066 309.313 73.3066 314.255C73.3066 319.186 76.1855 322.258 80.7831 322.258C85.37 322.258 88.2597 319.186 88.2597 314.255C88.2597 309.313 85.37 306.23 80.7831 306.23ZM80.7831 308.938C83.3183 308.938 84.9404 311 84.9404 314.255C84.9404 317.499 83.3183 319.551 80.7831 319.551C78.2372 319.551 76.6152 317.499 76.6152 314.255C76.6152 311 78.248 308.938 80.7831 308.938ZM96.9286 322.183C99.829 322.183 101.602 319.948 101.602 316.242C101.602 312.525 99.8183 310.302 96.9179 310.302C95.2743 310.302 93.996 311.118 93.3622 312.482H93.2978V306.499H90.1611V322H93.2548V320.023H93.3193C93.953 321.366 95.2421 322.183 96.9286 322.183ZM95.8437 312.815C97.4013 312.815 98.3896 314.147 98.3896 316.242C98.3896 318.348 97.412 319.658 95.8437 319.658C94.3183 319.658 93.287 318.326 93.287 316.242C93.287 314.18 94.329 312.815 95.8437 312.815ZM104.835 308.927C105.748 308.927 106.468 308.196 106.468 307.315C106.468 306.424 105.748 305.704 104.835 305.704C103.933 305.704 103.202 306.424 103.202 307.315C103.202 308.196 103.933 308.927 104.835 308.927ZM106.425 310.484H103.288V322.44C103.288 323.386 102.88 323.751 101.838 323.751C101.741 323.751 101.516 323.751 101.44 323.74V326.05C101.58 326.071 102.053 326.082 102.3 326.082C104.996 326.082 106.425 324.868 106.425 322.526V310.484ZM116.147 318.477C115.856 319.357 114.976 319.927 113.826 319.927C112.226 319.927 111.184 318.799 111.184 317.155V316.962H119.122V316.006C119.122 312.504 117.006 310.237 113.654 310.237C110.249 310.237 108.101 312.622 108.101 316.296C108.101 319.98 110.228 322.247 113.772 322.247C116.619 322.247 118.682 320.732 119.025 318.477H116.147ZM113.687 312.558C115.083 312.558 116.039 313.567 116.104 315.039H111.216C111.323 313.6 112.312 312.558 113.687 312.558ZM131.207 314.771C131.067 312.16 129.091 310.237 125.976 310.237C122.527 310.237 120.325 312.536 120.325 316.231C120.325 319.991 122.527 322.247 125.997 322.247C129.026 322.247 131.057 320.496 131.218 317.778H128.296C128.103 319.035 127.286 319.787 126.029 319.787C124.472 319.787 123.505 318.498 123.505 316.231C123.505 314.008 124.472 312.697 126.019 312.697C127.308 312.697 128.113 313.557 128.296 314.771H131.207ZM133.57 307.831V310.484H131.948V312.848H133.57V318.896C133.57 321.141 134.623 322.043 137.33 322.043C137.964 322.043 138.501 321.989 138.823 321.914V319.604C138.63 319.637 138.34 319.658 138.061 319.658C137.137 319.658 136.707 319.239 136.707 318.358V312.848H138.834V310.484H136.707V307.831H133.57ZM144.592 317.574C144.689 320.496 147.148 322.258 150.844 322.258C154.722 322.258 157.096 320.346 157.096 317.316C157.096 314.964 155.667 313.643 152.391 312.987L150.747 312.654C148.921 312.289 148.169 311.698 148.169 310.742C148.169 309.604 149.243 308.852 150.844 308.852C152.477 308.852 153.626 309.646 153.733 310.968H156.795C156.741 308.121 154.464 306.23 150.844 306.23C147.396 306.23 144.925 308.11 144.925 310.946C144.925 313.256 146.439 314.738 149.533 315.351L151.166 315.673C153.11 316.07 153.841 316.65 153.841 317.671C153.841 318.81 152.659 319.647 150.93 319.647C149.168 319.647 147.857 318.874 147.653 317.574H144.592ZM159.652 307.831V310.484H158.03V312.848H159.652V318.896C159.652 321.141 160.705 322.043 163.412 322.043C164.046 322.043 164.583 321.989 164.905 321.914V319.604C164.712 319.637 164.422 319.658 164.143 319.658C163.219 319.658 162.789 319.239 162.789 318.358V312.848H164.916V310.484H162.789V307.831H159.652ZM171.748 322.247C175.229 322.247 177.452 320.023 177.452 316.231C177.452 312.493 175.196 310.237 171.748 310.237C168.3 310.237 166.044 312.504 166.044 316.231C166.044 320.013 168.268 322.247 171.748 322.247ZM171.748 319.852C170.201 319.852 169.224 318.552 169.224 316.242C169.224 313.954 170.223 312.633 171.748 312.633C173.273 312.633 174.262 313.954 174.262 316.242C174.262 318.552 173.284 319.852 171.748 319.852ZM179.074 322H182.211V315.565C182.211 313.943 183.113 312.998 184.66 312.998C185.111 312.998 185.541 313.073 185.799 313.181V310.42C185.584 310.355 185.272 310.302 184.907 310.302C183.554 310.302 182.576 311.097 182.168 312.558H182.104V310.484H179.074V322ZM190.225 322.183C191.664 322.183 193.093 321.463 193.737 320.238H193.802V322H196.831V314.083C196.831 311.763 194.908 310.237 191.954 310.237C188.903 310.237 187.002 311.773 186.884 314.008H189.752C189.902 313.159 190.644 312.579 191.814 312.579C192.996 312.579 193.748 313.202 193.748 314.276V315.039L190.848 315.211C187.98 315.383 186.368 316.597 186.368 318.691C186.368 320.765 188.033 322.183 190.225 322.183ZM191.256 319.916C190.192 319.916 189.483 319.379 189.483 318.52C189.483 317.703 190.149 317.177 191.32 317.091L193.748 316.94V317.778C193.748 319.024 192.62 319.916 191.256 319.916ZM204.125 326.34C207.573 326.34 209.872 324.578 209.872 321.839V310.484H206.778V312.493H206.725C206.123 311.172 204.823 310.302 203.169 310.302C200.247 310.302 198.442 312.547 198.442 316.199C198.442 319.798 200.301 321.968 203.115 321.968C204.78 321.968 206.134 321.13 206.671 319.905H206.735V321.925C206.735 323.257 205.833 324.148 204.211 324.148C203.019 324.148 202.116 323.611 201.869 322.816H198.797C199.044 324.868 201.096 326.34 204.125 326.34ZM204.179 319.551C202.621 319.551 201.654 318.326 201.654 316.221C201.654 314.126 202.632 312.815 204.179 312.815C205.747 312.815 206.746 314.147 206.746 316.221C206.746 318.305 205.747 319.551 204.179 319.551ZM219.551 318.477C219.261 319.357 218.38 319.927 217.23 319.927C215.63 319.927 214.588 318.799 214.588 317.155V316.962H222.526V316.006C222.526 312.504 220.41 310.237 217.059 310.237C213.653 310.237 211.505 312.622 211.505 316.296C211.505 319.98 213.632 322.247 217.177 322.247C220.023 322.247 222.086 320.732 222.43 318.477H219.551ZM217.091 312.558C218.487 312.558 219.443 313.567 219.508 315.039H214.62C214.728 313.6 215.716 312.558 217.091 312.558Z" fill="white"/>
<path d="M56.5 318C58.7091 318 60.5 316.209 60.5 314C60.5 311.791 58.7091 310 56.5 310C54.2909 310 52.5 311.791 52.5 314C52.5 316.209 54.2909 318 56.5 318Z" fill="white"/>
<path d="M239.5 318C241.709 318 243.5 316.209 243.5 314C243.5 311.791 241.709 310 239.5 310C237.291 310 235.5 311.791 235.5 314C235.5 316.209 237.291 318 239.5 318Z" fill="white"/>
<g filter="url(#filter2_di_926_13528)">
<path d="M231.5 338H64.5C60.0817 338 56.5 341.582 56.5 346V370C56.5 374.418 60.0817 378 64.5 378H231.5C235.918 378 239.5 374.418 239.5 370V346C239.5 341.582 235.918 338 231.5 338Z" fill="#1E2631"/>
<path d="M231.5 338.5H64.5C60.3579 338.5 57 341.858 57 346V370C57 374.142 60.3579 377.5 64.5 377.5H231.5C235.642 377.5 239 374.142 239 370V346C239 341.858 235.642 338.5 231.5 338.5Z" stroke="white"/>
</g>
<path d="M113.644 366.258C117.446 366.258 120.1 364.077 120.465 360.618H117.307C116.963 362.455 115.577 363.583 113.654 363.583C111.173 363.583 109.615 361.542 109.615 358.233C109.615 354.968 111.194 352.916 113.644 352.916C115.534 352.916 116.995 354.162 117.296 356.063H120.454C120.207 352.594 117.371 350.23 113.644 350.23C109.153 350.23 106.307 353.249 106.307 358.244C106.307 363.25 109.132 366.258 113.644 366.258ZM125.557 366.183C126.996 366.183 128.425 365.463 129.069 364.238H129.134V366H132.163V358.083C132.163 355.763 130.24 354.237 127.286 354.237C124.235 354.237 122.334 355.773 122.216 358.008H125.084C125.234 357.159 125.976 356.579 127.147 356.579C128.328 356.579 129.08 357.202 129.08 358.276V359.039L126.18 359.211C123.312 359.383 121.7 360.597 121.7 362.691C121.7 364.765 123.365 366.183 125.557 366.183ZM126.588 363.916C125.524 363.916 124.815 363.379 124.815 362.52C124.815 361.703 125.481 361.177 126.652 361.091L129.08 360.94V361.778C129.08 363.024 127.952 363.916 126.588 363.916ZM144.656 358.771C144.517 356.16 142.54 354.237 139.425 354.237C135.977 354.237 133.774 356.536 133.774 360.231C133.774 363.991 135.977 366.247 139.446 366.247C142.476 366.247 144.506 364.496 144.667 361.778H141.745C141.552 363.035 140.735 363.787 139.479 363.787C137.921 363.787 136.954 362.498 136.954 360.231C136.954 358.008 137.921 356.697 139.468 356.697C140.757 356.697 141.563 357.557 141.745 358.771H144.656ZM146.257 366H149.394V359.426C149.394 357.911 150.264 356.869 151.746 356.869C153.175 356.869 153.905 357.771 153.905 359.254V366H157.042V358.588C157.042 355.924 155.581 354.27 153.024 354.27C151.273 354.27 150.017 355.086 149.404 356.536H149.34V350.499H146.257V366ZM160.662 352.927C161.575 352.927 162.295 352.196 162.295 351.315C162.295 350.424 161.575 349.704 160.662 349.704C159.749 349.704 159.029 350.424 159.029 351.315C159.029 352.196 159.749 352.927 160.662 352.927ZM159.105 366H162.241V354.484H159.105V366ZM164.336 366H167.473V359.394C167.473 357.9 168.364 356.869 169.772 356.869C171.179 356.869 171.888 357.729 171.888 359.232V366H175.024V358.577C175.024 355.881 173.585 354.27 171.028 354.27C169.256 354.27 168.042 355.107 167.43 356.536H167.365V354.484H164.336V366ZM182.275 370.34C185.724 370.34 188.022 368.578 188.022 365.839V354.484H184.929V356.493H184.875C184.273 355.172 182.974 354.302 181.319 354.302C178.397 354.302 176.593 356.547 176.593 360.199C176.593 363.798 178.451 365.968 181.266 365.968C182.931 365.968 184.284 365.13 184.821 363.905H184.886V365.925C184.886 367.257 183.983 368.148 182.361 368.148C181.169 368.148 180.267 367.611 180.02 366.816H176.947C177.194 368.868 179.246 370.34 182.275 370.34ZM182.329 363.551C180.772 363.551 179.805 362.326 179.805 360.221C179.805 358.126 180.782 356.815 182.329 356.815C183.897 356.815 184.897 358.147 184.897 360.221C184.897 362.305 183.897 363.551 182.329 363.551Z" fill="white"/>
<path d="M56.5 362C58.7091 362 60.5 360.209 60.5 358C60.5 355.791 58.7091 354 56.5 354C54.2909 354 52.5 355.791 52.5 358C52.5 360.209 54.2909 362 56.5 362Z" fill="white"/>
<path d="M239.5 362C241.709 362 243.5 360.209 243.5 358C243.5 355.791 241.709 354 239.5 354C237.291 354 235.5 355.791 235.5 358C235.5 360.209 237.291 362 239.5 362Z" fill="white"/>
<g filter="url(#filter3_di_926_13528)">
<path d="M231.5 382H64.5C60.0817 382 56.5 385.582 56.5 390V414C56.5 418.418 60.0817 422 64.5 422H231.5C235.918 422 239.5 418.418 239.5 414V390C239.5 385.582 235.918 382 231.5 382Z" fill="#1E2631"/>
<path d="M231.5 382.5H64.5C60.3579 382.5 57 385.858 57 390V414C57 418.142 60.3579 421.5 64.5 421.5H231.5C235.642 421.5 239 418.142 239 414V390C239 385.858 235.642 382.5 231.5 382.5Z" stroke="white"/>
</g>
<path d="M118.739 410V397.174H123.229V394.499H111.016V397.174H115.495V410H118.739ZM123.294 410H126.431V403.565C126.431 401.943 127.333 400.998 128.88 400.998C129.331 400.998 129.761 401.073 130.019 401.181V398.42C129.804 398.355 129.492 398.302 129.127 398.302C127.773 398.302 126.796 399.097 126.388 400.558H126.323V398.484H123.294V410ZM134.444 410.183C135.884 410.183 137.312 409.463 137.957 408.238H138.021V410H141.051V402.083C141.051 399.763 139.128 398.237 136.174 398.237C133.123 398.237 131.222 399.773 131.104 402.008H133.972C134.122 401.159 134.863 400.579 136.034 400.579C137.216 400.579 137.968 401.202 137.968 402.276V403.039L135.067 403.211C132.199 403.383 130.588 404.597 130.588 406.691C130.588 408.765 132.253 410.183 134.444 410.183ZM135.476 407.916C134.412 407.916 133.703 407.379 133.703 406.52C133.703 405.703 134.369 405.177 135.54 405.091L137.968 404.94V405.778C137.968 407.024 136.84 407.916 135.476 407.916ZM153.544 402.771C153.404 400.16 151.428 398.237 148.312 398.237C144.864 398.237 142.662 400.536 142.662 404.231C142.662 407.991 144.864 410.247 148.334 410.247C151.363 410.247 153.394 408.496 153.555 405.778H150.633C150.439 407.035 149.623 407.787 148.366 407.787C146.809 407.787 145.842 406.498 145.842 404.231C145.842 402.008 146.809 400.697 148.355 400.697C149.645 400.697 150.45 401.557 150.633 402.771H153.544ZM156.681 396.927C157.594 396.927 158.313 396.196 158.313 395.315C158.313 394.424 157.594 393.704 156.681 393.704C155.768 393.704 155.048 394.424 155.048 395.315C155.048 396.196 155.768 396.927 156.681 396.927ZM155.123 410H158.26V398.484H155.123V410ZM160.354 410H163.491V403.394C163.491 401.9 164.383 400.869 165.79 400.869C167.197 400.869 167.906 401.729 167.906 403.232V410H171.043V402.577C171.043 399.881 169.604 398.27 167.047 398.27C165.274 398.27 164.061 399.107 163.448 400.536H163.384V398.484H160.354V410ZM178.294 414.34C181.742 414.34 184.041 412.578 184.041 409.839V398.484H180.947V400.493H180.894C180.292 399.172 178.992 398.302 177.338 398.302C174.416 398.302 172.611 400.547 172.611 404.199C172.611 407.798 174.47 409.968 177.284 409.968C178.949 409.968 180.303 409.13 180.84 407.905H180.904V409.925C180.904 411.257 180.002 412.148 178.38 412.148C177.188 412.148 176.285 411.611 176.038 410.816H172.966C173.213 412.868 175.265 414.34 178.294 414.34ZM178.348 407.551C176.79 407.551 175.823 406.326 175.823 404.221C175.823 402.126 176.801 400.815 178.348 400.815C179.916 400.815 180.915 402.147 180.915 404.221C180.915 406.305 179.916 407.551 178.348 407.551Z" fill="white"/>
<path d="M56.5 406C58.7091 406 60.5 404.209 60.5 402C60.5 399.791 58.7091 398 56.5 398C54.2909 398 52.5 399.791 52.5 402C52.5 404.209 54.2909 406 56.5 406Z" fill="white"/>
<path d="M239.5 406C241.709 406 243.5 404.209 243.5 402C243.5 399.791 241.709 398 239.5 398C237.291 398 235.5 399.791 235.5 402C235.5 404.209 237.291 406 239.5 406Z" fill="white"/>
<g filter="url(#filter4_di_926_13528)">
<path d="M231.5 426H64.5C60.0817 426 56.5 429.582 56.5 434V458C56.5 462.418 60.0817 466 64.5 466H231.5C235.918 466 239.5 462.418 239.5 458V434C239.5 429.582 235.918 426 231.5 426Z" fill="#1E2631"/>
<path d="M231.5 426.5H64.5C60.3579 426.5 57 429.858 57 434V458C57 462.142 60.3579 465.5 64.5 465.5H231.5C235.642 465.5 239 462.142 239 458V434C239 429.858 235.642 426.5 231.5 426.5Z" stroke="white"/>
</g>
<path d="M127.203 454V438.499H123.443L119.039 449.628H118.953L114.549 438.499H110.789V454H113.679V443.537H113.765L117.976 454H120.017L124.228 443.537H124.313V454H127.203ZM137.14 450.477C136.85 451.357 135.969 451.927 134.819 451.927C133.219 451.927 132.177 450.799 132.177 449.155V448.962H140.115V448.006C140.115 444.504 137.999 442.237 134.647 442.237C131.242 442.237 129.094 444.622 129.094 448.296C129.094 451.98 131.221 454.247 134.766 454.247C137.612 454.247 139.675 452.732 140.019 450.477H137.14ZM134.68 444.558C136.076 444.558 137.032 445.567 137.097 447.039H132.209C132.316 445.6 133.305 444.558 134.68 444.558ZM142.575 439.831V442.484H140.953V444.848H142.575V450.896C142.575 453.141 143.628 454.043 146.335 454.043C146.969 454.043 147.506 453.989 147.828 453.914V451.604C147.635 451.637 147.345 451.658 147.065 451.658C146.142 451.658 145.712 451.239 145.712 450.358V444.848H147.839V442.484H145.712V439.831H142.575ZM149.558 454H152.694V447.565C152.694 445.943 153.597 444.998 155.144 444.998C155.595 444.998 156.024 445.073 156.282 445.181V442.42C156.067 442.355 155.756 442.302 155.391 442.302C154.037 442.302 153.06 443.097 152.651 444.558H152.587V442.484H149.558V454ZM159.183 440.927C160.096 440.927 160.815 440.196 160.815 439.315C160.815 438.424 160.096 437.704 159.183 437.704C158.27 437.704 157.55 438.424 157.55 439.315C157.55 440.196 158.27 440.927 159.183 440.927ZM157.625 454H160.762V442.484H157.625V454ZM173.319 446.771C173.18 444.16 171.203 442.237 168.088 442.237C164.64 442.237 162.438 444.536 162.438 448.231C162.438 451.991 164.64 454.247 168.109 454.247C171.139 454.247 173.169 452.496 173.33 449.778H170.408C170.215 451.035 169.398 451.787 168.142 451.787C166.584 451.787 165.617 450.498 165.617 448.231C165.617 446.008 166.584 444.697 168.131 444.697C169.42 444.697 170.226 445.557 170.408 446.771H173.319ZM174.651 445.868C174.651 447.598 175.779 448.715 178.003 449.188L179.969 449.596C181.097 449.854 181.494 450.197 181.494 450.81C181.494 451.562 180.764 452.045 179.582 452.045C178.336 452.045 177.616 451.508 177.423 450.498H174.361C174.565 452.765 176.402 454.247 179.582 454.247C182.547 454.247 184.62 452.754 184.62 450.487C184.62 448.801 183.632 447.855 181.226 447.351L179.26 446.932C178.1 446.685 177.67 446.287 177.67 445.696C177.67 444.934 178.39 444.439 179.475 444.439C180.635 444.439 181.333 445.073 181.43 446.008H184.319C184.255 443.752 182.429 442.237 179.475 442.237C176.542 442.237 174.651 443.677 174.651 445.868Z" fill="white"/>
<path d="M56.5 450C58.7091 450 60.5 448.209 60.5 446C60.5 443.791 58.7091 442 56.5 442C54.2909 442 52.5 443.791 52.5 446C52.5 448.209 54.2909 450 56.5 450Z" fill="white"/>
<path d="M239.5 450C241.709 450 243.5 448.209 243.5 446C243.5 443.791 241.709 442 239.5 442C237.291 442 235.5 443.791 235.5 446C235.5 448.209 237.291 450 239.5 450Z" fill="white"/>
<g filter="url(#filter5_di_926_13528)">
<path d="M231.5 492H64.5C60.0817 492 56.5 495.582 56.5 500V524C56.5 528.418 60.0817 532 64.5 532H231.5C235.918 532 239.5 528.418 239.5 524V500C239.5 495.582 235.918 492 231.5 492Z" fill="#1E2631"/>
<path d="M231.5 492.5H64.5C60.3579 492.5 57 495.858 57 500V524C57 528.142 60.3579 531.5 64.5 531.5H231.5C235.642 531.5 239 528.142 239 524V500C239 495.858 235.642 492.5 231.5 492.5Z" stroke="white"/>
</g>
<path d="M100.789 504.499V520H106.708C111.359 520 114.099 517.11 114.099 512.19C114.099 507.271 111.359 504.499 106.708 504.499H100.789ZM104.033 507.174H106.321C109.179 507.174 110.79 508.957 110.79 512.201C110.79 515.553 109.222 517.314 106.321 517.314H104.033V507.174ZM119.276 520.183C120.716 520.183 122.145 519.463 122.789 518.238H122.854V520H125.883V512.083C125.883 509.763 123.96 508.237 121.006 508.237C117.955 508.237 116.054 509.773 115.936 512.008H118.804C118.954 511.159 119.695 510.579 120.866 510.579C122.048 510.579 122.8 511.202 122.8 512.276V513.039L119.899 513.211C117.031 513.383 115.42 514.597 115.42 516.691C115.42 518.765 117.085 520.183 119.276 520.183ZM120.308 517.916C119.244 517.916 118.535 517.379 118.535 516.52C118.535 515.703 119.201 515.177 120.372 515.091L122.8 514.94V515.778C122.8 517.024 121.672 517.916 120.308 517.916ZM128.751 505.831V508.484H127.129V510.848H128.751V516.896C128.751 519.141 129.804 520.043 132.511 520.043C133.145 520.043 133.682 519.989 134.004 519.914V517.604C133.811 517.637 133.521 517.658 133.241 517.658C132.317 517.658 131.888 517.239 131.888 516.358V510.848H134.015V508.484H131.888V505.831H128.751ZM139.042 520.183C140.481 520.183 141.91 519.463 142.555 518.238H142.619V520H145.648V512.083C145.648 509.763 143.726 508.237 140.771 508.237C137.721 508.237 135.819 509.773 135.701 512.008H138.569C138.72 511.159 139.461 510.579 140.632 510.579C141.813 510.579 142.565 511.202 142.565 512.276V513.039L139.665 513.211C136.797 513.383 135.186 514.597 135.186 516.691C135.186 518.765 136.851 520.183 139.042 520.183ZM140.073 517.916C139.01 517.916 138.301 517.379 138.301 516.52C138.301 515.703 138.967 515.177 140.138 515.091L142.565 514.94V515.778C142.565 517.024 141.438 517.916 140.073 517.916ZM154.521 520.183C157.422 520.183 159.194 517.948 159.194 514.242C159.194 510.525 157.411 508.302 154.511 508.302C152.867 508.302 151.589 509.118 150.955 510.482H150.891V504.499H147.754V520H150.848V518.023H150.912C151.546 519.366 152.835 520.183 154.521 520.183ZM153.437 510.815C154.994 510.815 155.982 512.147 155.982 514.242C155.982 516.348 155.005 517.658 153.437 517.658C151.911 517.658 150.88 516.326 150.88 514.242C150.88 512.18 151.922 510.815 153.437 510.815ZM164.243 520.183C165.683 520.183 167.111 519.463 167.756 518.238H167.82V520H170.85V512.083C170.85 509.763 168.927 508.237 165.973 508.237C162.922 508.237 161.021 509.773 160.902 512.008H163.771C163.921 511.159 164.662 510.579 165.833 510.579C167.015 510.579 167.767 511.202 167.767 512.276V513.039L164.866 513.211C161.998 513.383 160.387 514.597 160.387 516.691C160.387 518.765 162.052 520.183 164.243 520.183ZM165.274 517.916C164.211 517.916 163.502 517.379 163.502 516.52C163.502 515.703 164.168 515.177 165.339 515.091L167.767 514.94V515.778C167.767 517.024 166.639 517.916 165.274 517.916ZM172.687 511.868C172.687 513.598 173.814 514.715 176.038 515.188L178.004 515.596C179.132 515.854 179.529 516.197 179.529 516.81C179.529 517.562 178.799 518.045 177.617 518.045C176.371 518.045 175.651 517.508 175.458 516.498H172.396C172.601 518.765 174.438 520.247 177.617 520.247C180.582 520.247 182.655 518.754 182.655 516.487C182.655 514.801 181.667 513.855 179.261 513.351L177.295 512.932C176.135 512.685 175.705 512.287 175.705 511.696C175.705 510.934 176.425 510.439 177.51 510.439C178.67 510.439 179.368 511.073 179.465 512.008H182.354C182.29 509.752 180.464 508.237 177.51 508.237C174.577 508.237 172.687 509.677 172.687 511.868ZM191.829 516.477C191.539 517.357 190.658 517.927 189.509 517.927C187.908 517.927 186.866 516.799 186.866 515.155V514.962H194.805V514.006C194.805 510.504 192.688 508.237 189.337 508.237C185.932 508.237 183.783 510.622 183.783 514.296C183.783 517.98 185.91 520.247 189.455 520.247C192.302 520.247 194.364 518.732 194.708 516.477H191.829ZM189.369 510.558C190.766 510.558 191.722 511.567 191.786 513.039H186.898C187.006 511.6 187.994 510.558 189.369 510.558Z" fill="white"/>
<path d="M56.5 516C58.7091 516 60.5 514.209 60.5 512C60.5 509.791 58.7091 508 56.5 508C54.2909 508 52.5 509.791 52.5 512C52.5 514.209 54.2909 516 56.5 516Z" fill="white"/>
<path d="M239.5 516C241.709 516 243.5 514.209 243.5 512C243.5 509.791 241.709 508 239.5 508C237.291 508 235.5 509.791 235.5 512C235.5 514.209 237.291 516 239.5 516Z" fill="white"/>
<path d="M122.5 484C125.261 484 127.5 481.761 127.5 479C127.5 476.239 125.261 474 122.5 474C119.739 474 117.5 476.239 117.5 479C117.5 481.761 119.739 484 122.5 484Z" fill="white"/>
<path d="M148.5 484C151.261 484 153.5 481.761 153.5 479C153.5 476.239 151.261 474 148.5 474C145.739 474 143.5 476.239 143.5 479C143.5 481.761 145.739 484 148.5 484Z" fill="white"/>
<path d="M174.5 484C177.261 484 179.5 481.761 179.5 479C179.5 476.239 177.261 474 174.5 474C171.739 474 169.5 476.239 169.5 479C169.5 481.761 171.739 484 174.5 484Z" fill="white"/>
<path d="M247.5 278.5H48.5C44.3579 278.5 41 281.858 41 286V540C41 544.142 44.3579 547.5 48.5 547.5H247.5C251.642 547.5 255 544.142 255 540V286C255 281.858 251.642 278.5 247.5 278.5Z" stroke="white" stroke-linecap="round" stroke-linejoin="round" stroke-dasharray="12 12"/>
<g filter="url(#filter6_di_926_13528)">
<path d="M253.5 20H42.5C38.0817 20 34.5 23.5817 34.5 28V230C34.5 234.418 38.0817 238 42.5 238H253.5C257.918 238 261.5 234.418 261.5 230V28C261.5 23.5817 257.918 20 253.5 20Z" fill="#1E2631"/>
<path d="M253.5 20.5H42.5C38.3579 20.5 35 23.8579 35 28V230C35 234.142 38.3579 237.5 42.5 237.5H253.5C257.642 237.5 261 234.142 261 230V28C261 23.8579 257.642 20.5 253.5 20.5Z" stroke="white"/>
</g>
<path d="M34.5 28C34.5 23.5817 38.0817 20 42.5 20H253.5C257.918 20 261.5 23.5817 261.5 28V68H34.5V28Z" fill="white"/>
<path d="M93.1367 55V40.6445H98.1875V38.0898H85.0625V40.6445H90.125V55H93.1367ZM105.289 51.2852C104.973 52.3164 103.941 52.9961 102.582 52.9961C100.672 52.9961 99.4531 51.6602 99.4531 49.668V49.4922H108.137V48.543C108.137 44.7695 105.934 42.3203 102.406 42.3203C98.8203 42.3203 96.5469 44.9102 96.5469 48.8359C96.5469 52.7969 98.7969 55.2461 102.523 55.2461C105.465 55.2461 107.645 53.6289 108.02 51.2852H105.289ZM102.418 44.582C104.094 44.582 105.219 45.8125 105.277 47.5703H99.4766C99.5938 45.8359 100.777 44.582 102.418 44.582ZM120.969 47.0078C120.77 44.3945 118.742 42.3203 115.461 42.3203C111.852 42.3203 109.508 44.8164 109.508 48.7891C109.508 52.8203 111.852 55.2461 115.484 55.2461C118.602 55.2461 120.746 53.418 120.98 50.6406H118.227C117.957 52.0469 116.996 52.8906 115.52 52.8906C113.668 52.8906 112.473 51.3906 112.473 48.7891C112.473 46.2344 113.656 44.6875 115.496 44.6875C117.055 44.6875 117.98 45.6836 118.215 47.0078H120.969ZM122.809 55H125.727V47.8633C125.727 46.0352 126.793 44.8164 128.551 44.8164C130.238 44.8164 131.105 45.8594 131.105 47.5938V55H134.023V46.9961C134.023 44.1484 132.418 42.3438 129.676 42.3438C127.789 42.3438 126.418 43.1992 125.75 44.7109H125.691V38.0898H122.809V55ZM136.367 55H139.285V47.8047C139.285 46.0234 140.352 44.8164 142.027 44.8164C143.691 44.8164 144.512 45.8008 144.512 47.5586V55H147.43V46.9727C147.43 44.1016 145.871 42.3438 143.129 42.3438C141.219 42.3438 139.895 43.2344 139.227 44.7109H139.168V42.5781H136.367V55ZM155.27 55.2461C158.914 55.2461 161.281 52.8203 161.281 48.7891C161.281 44.7695 158.891 42.3203 155.27 42.3203C151.648 42.3203 149.258 44.7812 149.258 48.7891C149.258 52.8203 151.625 55.2461 155.27 55.2461ZM155.27 52.9375C153.418 52.9375 152.223 51.4375 152.223 48.7891C152.223 46.1523 153.43 44.6406 155.27 44.6406C157.121 44.6406 158.316 46.1523 158.316 48.7891C158.316 51.4375 157.121 52.9375 155.27 52.9375ZM163.238 55H166.156V38.0898H163.238V55ZM174.137 55.2461C177.781 55.2461 180.148 52.8203 180.148 48.7891C180.148 44.7695 177.758 42.3203 174.137 42.3203C170.516 42.3203 168.125 44.7812 168.125 48.7891C168.125 52.8203 170.492 55.2461 174.137 55.2461ZM174.137 52.9375C172.285 52.9375 171.09 51.4375 171.09 48.7891C171.09 46.1523 172.297 44.6406 174.137 44.6406C175.988 44.6406 177.184 46.1523 177.184 48.7891C177.184 51.4375 175.988 52.9375 174.137 52.9375ZM187.496 59.6875C191.117 59.6875 193.496 57.7656 193.496 54.8008V42.5781H190.637V44.7109H190.59C189.875 43.2812 188.445 42.3672 186.676 42.3672C183.5 42.3672 181.508 44.8164 181.508 48.7422C181.508 52.6094 183.547 55.0117 186.617 55.0117C188.398 55.0117 189.863 54.1211 190.508 52.7852H190.578V54.8828C190.578 56.4648 189.488 57.5312 187.59 57.5312C186.207 57.5312 185.141 56.8867 184.824 55.9375H181.93C182.223 58.1172 184.426 59.6875 187.496 59.6875ZM187.508 52.6914C185.668 52.6914 184.496 51.2148 184.496 48.7539C184.496 46.3164 185.668 44.7695 187.508 44.7695C189.371 44.7695 190.578 46.3398 190.578 48.7539C190.578 51.1797 189.371 52.6914 187.508 52.6914ZM197.27 59.6172C200.105 59.6172 201.477 58.5742 202.531 55.4922L207.031 42.5781H203.961L201.031 52.5156H200.973L198.055 42.5781H194.867L199.285 55.0117C199.297 55.0469 199.109 55.668 199.109 55.7031C198.793 56.8516 198.172 57.3086 196.965 57.3086C196.789 57.3086 196.273 57.2969 196.121 57.2617V59.5703C196.273 59.6055 197.094 59.6172 197.27 59.6172Z" fill="#1E2631"/>
<path d="M115.86 108V92.499H112.659L107.911 104.326H107.825L103.077 92.499H99.8652V108H102.368V97H102.443L106.923 108H108.813L113.293 97H113.368V108H115.86ZM119.728 94.8945C120.544 94.8945 121.189 94.2393 121.189 93.4443C121.189 92.6387 120.544 91.9941 119.728 91.9941C118.911 91.9941 118.256 92.6387 118.256 93.4443C118.256 94.2393 118.911 94.8945 119.728 94.8945ZM118.396 108H121.07V96.6133H118.396V108ZM133.349 100.674C133.166 98.2783 131.308 96.377 128.3 96.377C124.991 96.377 122.843 98.665 122.843 102.307C122.843 106.002 124.991 108.226 128.321 108.226C131.179 108.226 133.145 106.55 133.359 104.004H130.835C130.588 105.293 129.707 106.066 128.354 106.066C126.656 106.066 125.561 104.691 125.561 102.307C125.561 99.9648 126.646 98.5469 128.332 98.5469C129.761 98.5469 130.609 99.46 130.824 100.674H133.349ZM134.96 108H137.635V101.372C137.635 99.7715 138.548 98.7939 140.063 98.7939C140.514 98.7939 140.922 98.8584 141.147 98.9443V96.5273C140.954 96.4844 140.653 96.4199 140.31 96.4199C138.967 96.4199 137.968 97.2148 137.581 98.6006H137.527V96.6133H134.96V108ZM147.131 108.226C150.472 108.226 152.642 106.002 152.642 102.307C152.642 98.6221 150.45 96.377 147.131 96.377C143.812 96.377 141.62 98.6328 141.62 102.307C141.62 106.002 143.79 108.226 147.131 108.226ZM147.131 106.109C145.434 106.109 144.338 104.734 144.338 102.307C144.338 99.8896 145.444 98.5039 147.131 98.5039C148.828 98.5039 149.924 99.8896 149.924 102.307C149.924 104.734 148.828 106.109 147.131 106.109ZM154.36 108H157.035V101.404C157.035 99.7715 158.013 98.665 159.549 98.665C161.074 98.665 161.826 99.5674 161.826 101.179V108H164.501V100.642C164.501 98.0098 163.072 96.3984 160.559 96.3984C158.808 96.3984 157.594 97.2148 156.981 98.5684H156.928V96.6133H154.36V108ZM170.001 108.183C171.462 108.183 172.891 107.42 173.546 106.185H173.6V108H176.178V100.158C176.178 97.8701 174.341 96.377 171.516 96.377C168.615 96.377 166.8 97.9023 166.682 100.029H169.163C169.335 99.084 170.141 98.4717 171.408 98.4717C172.73 98.4717 173.535 99.1592 173.535 100.352V101.168L170.527 101.34C167.756 101.512 166.198 102.726 166.198 104.745C166.198 106.797 167.799 108.183 170.001 108.183ZM170.807 106.163C169.647 106.163 168.873 105.572 168.873 104.638C168.873 103.735 169.614 103.155 170.903 103.069L173.535 102.908V103.778C173.535 105.153 172.321 106.163 170.807 106.163ZM188.435 96.6133H185.76V103.198C185.76 104.853 184.804 105.948 183.257 105.948C181.753 105.948 180.958 105.067 180.958 103.435V96.6133H178.283V103.972C178.283 106.604 179.852 108.204 182.322 108.204C184.052 108.204 185.201 107.409 185.803 106.023H185.856V108H188.435V96.6133ZM191.367 93.9492V96.6133H189.734V98.6758H191.367V104.971C191.367 107.184 192.334 108.054 194.794 108.054C195.363 108.054 195.89 108.011 196.18 107.946V105.905C196.008 105.938 195.664 105.959 195.417 105.959C194.472 105.959 194.042 105.529 194.042 104.595V98.6758H196.19V96.6133H194.042V93.9492H191.367Z" fill="white"/>
<path d="M121.522 147.533V145.879H115.077V147.995H118.815L118.805 148.253C118.762 150.423 117.14 151.905 114.798 151.905C112.005 151.905 110.265 149.725 110.265 146.158C110.265 142.667 111.93 140.594 114.723 140.594C116.624 140.594 118.063 141.646 118.59 143.43H121.404C120.899 140.325 118.235 138.241 114.712 138.241C110.232 138.241 107.429 141.271 107.429 146.19C107.429 151.186 110.243 154.258 114.766 154.258C119.009 154.258 121.522 151.733 121.522 147.533ZM123.521 154H126.195V147.372C126.195 145.771 127.108 144.794 128.623 144.794C129.074 144.794 129.482 144.858 129.708 144.944V142.527C129.515 142.484 129.214 142.42 128.87 142.42C127.527 142.42 126.528 143.215 126.142 144.601H126.088V142.613H123.521V154ZM134.177 154.183C135.638 154.183 137.066 153.42 137.722 152.185H137.775V154H140.354V146.158C140.354 143.87 138.517 142.377 135.691 142.377C132.791 142.377 130.976 143.902 130.857 146.029H133.339C133.511 145.084 134.316 144.472 135.584 144.472C136.905 144.472 137.711 145.159 137.711 146.352V147.168L134.703 147.34C131.932 147.512 130.374 148.726 130.374 150.745C130.374 152.797 131.975 154.183 134.177 154.183ZM134.982 152.163C133.822 152.163 133.049 151.572 133.049 150.638C133.049 149.735 133.79 149.155 135.079 149.069L137.711 148.908V149.778C137.711 151.153 136.497 152.163 134.982 152.163ZM145.864 154.183C147.325 154.183 148.754 153.42 149.409 152.185H149.463V154H152.041V146.158C152.041 143.87 150.204 142.377 147.379 142.377C144.479 142.377 142.663 143.902 142.545 146.029H145.026C145.198 145.084 146.004 144.472 147.272 144.472C148.593 144.472 149.398 145.159 149.398 146.352V147.168L146.391 147.34C143.619 147.512 142.062 148.726 142.062 150.745C142.062 152.797 143.662 154.183 145.864 154.183ZM146.67 152.163C145.51 152.163 144.736 151.572 144.736 150.638C144.736 149.735 145.478 149.155 146.767 149.069L149.398 148.908V149.778C149.398 151.153 148.185 152.163 146.67 152.163ZM154.275 154H156.95V138.499H154.275V154ZM166.994 154L172.387 138.499H169.4L165.469 151.024H165.404L161.473 138.499H158.422L163.814 154H166.994ZM190.036 154V138.499H186.835L182.087 150.326H182.001L177.253 138.499H174.041V154H176.544V143H176.619L181.099 154H182.989L187.469 143H187.544V154H190.036ZM89.5967 182V171.129H89.6934L97.3955 182H99.7803V166.499H97.1162V177.359H97.0196L89.3281 166.499H86.9219V182H89.5967ZM105.323 182.183C106.784 182.183 108.213 181.42 108.868 180.185H108.922V182H111.5V174.158C111.5 171.87 109.663 170.377 106.838 170.377C103.938 170.377 102.122 171.902 102.004 174.029H104.485C104.657 173.084 105.463 172.472 106.73 172.472C108.052 172.472 108.857 173.159 108.857 174.352V175.168L105.85 175.34C103.078 175.512 101.521 176.726 101.521 178.745C101.521 180.797 103.121 182.183 105.323 182.183ZM106.129 180.163C104.969 180.163 104.195 179.572 104.195 178.638C104.195 177.735 104.937 177.155 106.226 177.069L108.857 176.908V177.778C108.857 179.153 107.644 180.163 106.129 180.163ZM114.4 167.949V170.613H112.768V172.676H114.4V178.971C114.4 181.184 115.367 182.054 117.827 182.054C118.397 182.054 118.923 182.011 119.213 181.946V179.905C119.041 179.938 118.697 179.959 118.45 179.959C117.505 179.959 117.075 179.529 117.075 178.595V172.676H119.224V170.613H117.075V167.949H114.4ZM122.446 168.895C123.263 168.895 123.907 168.239 123.907 167.444C123.907 166.639 123.263 165.994 122.446 165.994C121.63 165.994 120.975 166.639 120.975 167.444C120.975 168.239 121.63 168.895 122.446 168.895ZM121.114 182H123.789V170.613H121.114V182ZM136.057 170.613H133.264L130.621 179.519H130.567L127.925 170.613H125.067L129.106 182H132.05L136.057 170.613ZM144.511 178.595C144.221 179.54 143.275 180.163 142.029 180.163C140.278 180.163 139.161 178.938 139.161 177.112V176.951H147.121V176.081C147.121 172.622 145.102 170.377 141.868 170.377C138.581 170.377 136.497 172.751 136.497 176.35C136.497 179.98 138.56 182.226 141.976 182.226C144.672 182.226 146.67 180.743 147.014 178.595H144.511ZM141.879 172.45C143.415 172.45 144.446 173.578 144.5 175.189H139.183C139.29 173.6 140.375 172.45 141.879 172.45ZM156.295 182V166.499H153.523V182H156.295ZM158.755 182H161.43V175.028C161.43 173.653 162.332 172.654 163.621 172.654C164.867 172.654 165.641 173.438 165.641 174.706V182H168.24V174.964C168.24 173.6 169.121 172.654 170.41 172.654C171.721 172.654 172.451 173.449 172.451 174.846V182H175.126V174.19C175.126 171.913 173.654 170.398 171.409 170.398C169.766 170.398 168.412 171.279 167.864 172.687H167.8C167.381 171.226 166.231 170.398 164.62 170.398C163.073 170.398 161.87 171.269 161.376 172.59H161.322V170.613H158.755V182ZM180.626 182.183C182.087 182.183 183.516 181.42 184.171 180.185H184.225V182H186.803V174.158C186.803 171.87 184.966 170.377 182.141 170.377C179.24 170.377 177.425 171.902 177.307 174.029H179.788C179.96 173.084 180.766 172.472 182.033 172.472C183.355 172.472 184.16 173.159 184.16 174.352V175.168L181.152 175.34C178.381 175.512 176.823 176.726 176.823 178.745C176.823 180.797 178.424 182.183 180.626 182.183ZM181.432 180.163C180.272 180.163 179.498 179.572 179.498 178.638C179.498 177.735 180.239 177.155 181.528 177.069L184.16 176.908V177.778C184.16 179.153 182.946 180.163 181.432 180.163ZM193.979 186.297C197.298 186.297 199.479 184.535 199.479 181.817V170.613H196.857V172.568H196.814C196.159 171.258 194.849 170.42 193.227 170.42C190.315 170.42 188.489 172.665 188.489 176.264C188.489 179.809 190.358 182.011 193.173 182.011C194.806 182.011 196.148 181.194 196.739 179.97H196.804V181.893C196.804 183.343 195.805 184.32 194.064 184.32C192.797 184.32 191.819 183.729 191.529 182.859H188.876C189.145 184.857 191.164 186.297 193.979 186.297ZM193.989 179.884C192.303 179.884 191.229 178.53 191.229 176.274C191.229 174.04 192.303 172.622 193.989 172.622C195.697 172.622 196.804 174.062 196.804 176.274C196.804 178.498 195.697 179.884 193.989 179.884ZM209.2 178.595C208.91 179.54 207.965 180.163 206.719 180.163C204.968 180.163 203.851 178.938 203.851 177.112V176.951H211.811V176.081C211.811 172.622 209.791 170.377 206.558 170.377C203.271 170.377 201.187 172.751 201.187 176.35C201.187 179.98 203.249 182.226 206.665 182.226C209.361 182.226 211.359 180.743 211.703 178.595H209.2ZM206.568 172.45C208.105 172.45 209.136 173.578 209.189 175.189H203.872C203.98 173.6 205.064 172.45 206.568 172.45Z" fill="white"/>
<path d="M121.5 214C124.261 214 126.5 211.761 126.5 209C126.5 206.239 124.261 204 121.5 204C118.739 204 116.5 206.239 116.5 209C116.5 211.761 118.739 214 121.5 214Z" fill="white"/>
<path d="M147.5 214C150.261 214 152.5 211.761 152.5 209C152.5 206.239 150.261 204 147.5 204C144.739 204 142.5 206.239 142.5 209C142.5 211.761 144.739 214 147.5 214Z" fill="white"/>
<path d="M173.5 214C176.261 214 178.5 211.761 178.5 209C178.5 206.239 176.261 204 173.5 204C170.739 204 168.5 206.239 168.5 209C168.5 211.761 170.739 214 173.5 214Z" fill="white"/>
<path d="M34.5 149C36.7091 149 38.5 147.209 38.5 145C38.5 142.791 36.7091 141 34.5 141C32.2909 141 30.5 142.791 30.5 145C30.5 147.209 32.2909 149 34.5 149Z" fill="white"/>
</g>
<defs>
<filter id="filter0_di_926_13528" x="14.5" y="568" width="259" height="368" filterUnits="userSpaceOnUse" color-interpolation-filters="sRGB">
<feFlood flood-opacity="0" result="BackgroundImageFix"/>
<feColorMatrix in="SourceAlpha" type="matrix" values="0 0 0 0 0 0 0 0 0 0 0 0 0 0 0 0 0 0 127 0" result="hardAlpha"/>
<feOffset dx="-4" dy="-4"/>
<feGaussianBlur stdDeviation="8"/>
<feComposite in2="hardAlpha" operator="out"/>
<feColorMatrix type="matrix" values="0 0 0 0 0.0901961 0 0 0 0 0.415686 0 0 0 0 1 0 0 0 0.05 0"/>
<feBlend mode="normal" in2="BackgroundImageFix" result="effect1_dropShadow_926_13528"/>
<feBlend mode="normal" in="SourceGraphic" in2="effect1_dropShadow_926_13528" result="shape"/>
<feColorMatrix in="SourceAlpha" type="matrix" values="0 0 0 0 0 0 0 0 0 0 0 0 0 0 0 0 0 0 127 0" result="hardAlpha"/>
<feOffset dx="8" dy="12"/>
<feGaussianBlur stdDeviation="9"/>
<feComposite in2="hardAlpha" operator="arithmetic" k2="-1" k3="1"/>
<feColorMatrix type="matrix" values="0 0 0 0 0.239216 0 0 0 0 0.513726 0 0 0 0 1 0 0 0 0.1 0"/>
<feBlend mode="normal" in2="shape" result="effect2_innerShadow_926_13528"/>
</filter>
<filter id="filter1_di_926_13528" x="36.5" y="274" width="215" height="72" filterUnits="userSpaceOnUse" color-interpolation-filters="sRGB">
<feFlood flood-opacity="0" result="BackgroundImageFix"/>
<feColorMatrix in="SourceAlpha" type="matrix" values="0 0 0 0 0 0 0 0 0 0 0 0 0 0 0 0 0 0 127 0" result="hardAlpha"/>
<feOffset dx="-4" dy="-4"/>
<feGaussianBlur stdDeviation="8"/>
<feComposite in2="hardAlpha" operator="out"/>
<feColorMatrix type="matrix" values="0 0 0 0 0.0901961 0 0 0 0 0.415686 0 0 0 0 1 0 0 0 0.05 0"/>
<feBlend mode="normal" in2="BackgroundImageFix" result="effect1_dropShadow_926_13528"/>
<feBlend mode="normal" in="SourceGraphic" in2="effect1_dropShadow_926_13528" result="shape"/>
<feColorMatrix in="SourceAlpha" type="matrix" values="0 0 0 0 0 0 0 0 0 0 0 0 0 0 0 0 0 0 127 0" result="hardAlpha"/>
<feOffset dx="8" dy="12"/>
<feGaussianBlur stdDeviation="9"/>
<feComposite in2="hardAlpha" operator="arithmetic" k2="-1" k3="1"/>
<feColorMatrix type="matrix" values="0 0 0 0 0.239216 0 0 0 0 0.513726 0 0 0 0 1 0 0 0 0.1 0"/>
<feBlend mode="normal" in2="shape" result="effect2_innerShadow_926_13528"/>
</filter>
<filter id="filter2_di_926_13528" x="36.5" y="318" width="215" height="72" filterUnits="userSpaceOnUse" color-interpolation-filters="sRGB">
<feFlood flood-opacity="0" result="BackgroundImageFix"/>
<feColorMatrix in="SourceAlpha" type="matrix" values="0 0 0 0 0 0 0 0 0 0 0 0 0 0 0 0 0 0 127 0" result="hardAlpha"/>
<feOffset dx="-4" dy="-4"/>
<feGaussianBlur stdDeviation="8"/>
<feComposite in2="hardAlpha" operator="out"/>
<feColorMatrix type="matrix" values="0 0 0 0 0.0901961 0 0 0 0 0.415686 0 0 0 0 1 0 0 0 0.05 0"/>
<feBlend mode="normal" in2="BackgroundImageFix" result="effect1_dropShadow_926_13528"/>
<feBlend mode="normal" in="SourceGraphic" in2="effect1_dropShadow_926_13528" result="shape"/>
<feColorMatrix in="SourceAlpha" type="matrix" values="0 0 0 0 0 0 0 0 0 0 0 0 0 0 0 0 0 0 127 0" result="hardAlpha"/>
<feOffset dx="8" dy="12"/>
<feGaussianBlur stdDeviation="9"/>
<feComposite in2="hardAlpha" operator="arithmetic" k2="-1" k3="1"/>
<feColorMatrix type="matrix" values="0 0 0 0 0.239216 0 0 0 0 0.513726 0 0 0 0 1 0 0 0 0.1 0"/>
<feBlend mode="normal" in2="shape" result="effect2_innerShadow_926_13528"/>
</filter>
<filter id="filter3_di_926_13528" x="36.5" y="362" width="215" height="72" filterUnits="userSpaceOnUse" color-interpolation-filters="sRGB">
<feFlood flood-opacity="0" result="BackgroundImageFix"/>
<feColorMatrix in="SourceAlpha" type="matrix" values="0 0 0 0 0 0 0 0 0 0 0 0 0 0 0 0 0 0 127 0" result="hardAlpha"/>
<feOffset dx="-4" dy="-4"/>
<feGaussianBlur stdDeviation="8"/>
<feComposite in2="hardAlpha" operator="out"/>
<feColorMatrix type="matrix" values="0 0 0 0 0.0901961 0 0 0 0 0.415686 0 0 0 0 1 0 0 0 0.05 0"/>
<feBlend mode="normal" in2="BackgroundImageFix" result="effect1_dropShadow_926_13528"/>
<feBlend mode="normal" in="SourceGraphic" in2="effect1_dropShadow_926_13528" result="shape"/>
<feColorMatrix in="SourceAlpha" type="matrix" values="0 0 0 0 0 0 0 0 0 0 0 0 0 0 0 0 0 0 127 0" result="hardAlpha"/>
<feOffset dx="8" dy="12"/>
<feGaussianBlur stdDeviation="9"/>
<feComposite in2="hardAlpha" operator="arithmetic" k2="-1" k3="1"/>
<feColorMatrix type="matrix" values="0 0 0 0 0.239216 0 0 0 0 0.513726 0 0 0 0 1 0 0 0 0.1 0"/>
<feBlend mode="normal" in2="shape" result="effect2_innerShadow_926_13528"/>
</filter>
<filter id="filter4_di_926_13528" x="36.5" y="406" width="215" height="72" filterUnits="userSpaceOnUse" color-interpolation-filters="sRGB">
<feFlood flood-opacity="0" result="BackgroundImageFix"/>
<feColorMatrix in="SourceAlpha" type="matrix" values="0 0 0 0 0 0 0 0 0 0 0 0 0 0 0 0 0 0 127 0" result="hardAlpha"/>
<feOffset dx="-4" dy="-4"/>
<feGaussianBlur stdDeviation="8"/>
<feComposite in2="hardAlpha" operator="out"/>
<feColorMatrix type="matrix" values="0 0 0 0 0.0901961 0 0 0 0 0.415686 0 0 0 0 1 0 0 0 0.05 0"/>
<feBlend mode="normal" in2="BackgroundImageFix" result="effect1_dropShadow_926_13528"/>
<feBlend mode="normal" in="SourceGraphic" in2="effect1_dropShadow_926_13528" result="shape"/>
<feColorMatrix in="SourceAlpha" type="matrix" values="0 0 0 0 0 0 0 0 0 0 0 0 0 0 0 0 0 0 127 0" result="hardAlpha"/>
<feOffset dx="8" dy="12"/>
<feGaussianBlur stdDeviation="9"/>
<feComposite in2="hardAlpha" operator="arithmetic" k2="-1" k3="1"/>
<feColorMatrix type="matrix" values="0 0 0 0 0.239216 0 0 0 0 0.513726 0 0 0 0 1 0 0 0 0.1 0"/>
<feBlend mode="normal" in2="shape" result="effect2_innerShadow_926_13528"/>
</filter>
<filter id="filter5_di_926_13528" x="36.5" y="472" width="215" height="72" filterUnits="userSpaceOnUse" color-interpolation-filters="sRGB">
<feFlood flood-opacity="0" result="BackgroundImageFix"/>
<feColorMatrix in="SourceAlpha" type="matrix" values="0 0 0 0 0 0 0 0 0 0 0 0 0 0 0 0 0 0 127 0" result="hardAlpha"/>
<feOffset dx="-4" dy="-4"/>
<feGaussianBlur stdDeviation="8"/>
<feComposite in2="hardAlpha" operator="out"/>
<feColorMatrix type="matrix" values="0 0 0 0 0.0901961 0 0 0 0 0.415686 0 0 0 0 1 0 0 0 0.05 0"/>
<feBlend mode="normal" in2="BackgroundImageFix" result="effect1_dropShadow_926_13528"/>
<feBlend mode="normal" in="SourceGraphic" in2="effect1_dropShadow_926_13528" result="shape"/>
<feColorMatrix in="SourceAlpha" type="matrix" values="0 0 0 0 0 0 0 0 0 0 0 0 0 0 0 0 0 0 127 0" result="hardAlpha"/>
<feOffset dx="8" dy="12"/>
<feGaussianBlur stdDeviation="9"/>
<feComposite in2="hardAlpha" operator="arithmetic" k2="-1" k3="1"/>
<feColorMatrix type="matrix" values="0 0 0 0 0.239216 0 0 0 0 0.513726 0 0 0 0 1 0 0 0 0.1 0"/>
<feBlend mode="normal" in2="shape" result="effect2_innerShadow_926_13528"/>
</filter>
<filter id="filter6_di_926_13528" x="14.5" y="0" width="259" height="250" filterUnits="userSpaceOnUse" color-interpolation-filters="sRGB">
<feFlood flood-opacity="0" result="BackgroundImageFix"/>
<feColorMatrix in="SourceAlpha" type="matrix" values="0 0 0 0 0 0 0 0 0 0 0 0 0 0 0 0 0 0 127 0" result="hardAlpha"/>
<feOffset dx="-4" dy="-4"/>
<feGaussianBlur stdDeviation="8"/>
<feComposite in2="hardAlpha" operator="out"/>
<feColorMatrix type="matrix" values="0 0 0 0 0.0901961 0 0 0 0 0.415686 0 0 0 0 1 0 0 0 0.05 0"/>
<feBlend mode="normal" in2="BackgroundImageFix" result="effect1_dropShadow_926_13528"/>
<feBlend mode="normal" in="SourceGraphic" in2="effect1_dropShadow_926_13528" result="shape"/>
<feColorMatrix in="SourceAlpha" type="matrix" values="0 0 0 0 0 0 0 0 0 0 0 0 0 0 0 0 0 0 127 0" result="hardAlpha"/>
<feOffset dx="8" dy="12"/>
<feGaussianBlur stdDeviation="9"/>
<feComposite in2="hardAlpha" operator="arithmetic" k2="-1" k3="1"/>
<feColorMatrix type="matrix" values="0 0 0 0 0.239216 0 0 0 0 0.513726 0 0 0 0 1 0 0 0 0.1 0"/>
<feBlend mode="normal" in2="shape" result="effect2_innerShadow_926_13528"/>
</filter>
<clipPath id="clip0_926_13528">
<rect width="295" height="954" fill="white" transform="translate(0.5)"/>
</clipPath>
</defs>
</svg>
