<svg width="295" height="954" viewBox="0 0 295 954" fill="none" xmlns="http://www.w3.org/2000/svg">
<path fill-rule="evenodd" clip-rule="evenodd" d="M0 145C0 144.448 0.447716 144 1 144H33C33.5523 144 34 144.448 34 145V145C34 145.552 33.5523 146 33 146H4C2.89543 146 2 146.895 2 148V311C2 312.105 2.89543 313 4 313H53C53.5523 313 54 313.448 54 314V314C54 314.552 53.5523 315 53 315H4C2.89543 315 2 315.895 2 317V355C2 356.105 2.89543 357 4 357H53C53.5523 357 54 357.448 54 358V358C54 358.552 53.5523 359 53 359H4C2.89543 359 2 359.895 2 361V399C2 400.105 2.89543 401 4 401H53C53.5523 401 54 401.448 54 402V402C54 402.552 53.5523 403 53 403H4C2.89543 403 2 403.895 2 405V443C2 444.105 2.89543 445 4 445H53C53.5523 445 54 445.448 54 446V446C54 446.552 53.5523 447 53 447H4C2.89543 447 2 447.895 2 449V509C2 510.105 2.89543 511 4 511H53C53.5523 511 54 511.448 54 512V512C54 512.552 53.5523 513 53 513H2V513C0.895431 513 0 512.105 0 511V511V447V445V403V401V359V357V315V313V146V145V145Z" fill="#E97826"/>
<path fill-rule="evenodd" clip-rule="evenodd" d="M241 314C241 313.448 241.448 313 242 313H293V313C294.105 313 295 313.895 295 315V315V357V359V401V403V445V447V511V513V739V739C295 740.105 294.105 741 293 741V741H262C261.448 741 261 740.552 261 740V740C261 739.448 261.448 739 262 739H291C292.105 739 293 738.105 293 737V515C293 513.895 292.105 513 291 513H242C241.448 513 241 512.552 241 512V512C241 511.448 241.448 511 242 511H291C292.105 511 293 510.105 293 509V449C293 447.895 292.105 447 291 447H242C241.448 447 241 446.552 241 446V446C241 445.448 241.448 445 242 445H291C292.105 445 293 444.105 293 443V405C293 403.895 292.105 403 291 403H242C241.448 403 241 402.552 241 402V402C241 401.448 241.448 401 242 401H291C292.105 401 293 400.105 293 399V361C293 359.895 292.105 359 291 359H242C241.448 359 241 358.552 241 358V358C241 357.448 241.448 357 242 357H291C292.105 357 293 356.105 293 355V317C293 315.895 292.105 315 291 315H242C241.448 315 241 314.552 241 314V314Z" fill="#E97826"/>
<g filter="url(#filter0_dd_328_72961)">
<rect x="34" y="588" width="227" height="336" rx="8" fill="#1E2631"/>
<rect x="34.5" y="588.5" width="226" height="335" rx="7.5" stroke="white"/>
</g>
<circle cx="260" cy="740" r="4" fill="white"/>
<path d="M94.6182 658.241C90.0957 658.241 87.2598 661.324 87.2598 666.255C87.2598 671.186 90.0957 674.258 94.6182 674.258C99.1299 674.258 101.966 671.186 101.966 666.255C101.966 661.324 99.1299 658.241 94.6182 658.241ZM94.6182 660.604C97.3789 660.604 99.1406 662.796 99.1406 666.255C99.1406 669.703 97.3789 671.895 94.6182 671.895C91.8467 671.895 90.0957 669.703 90.0957 666.255C90.0957 662.796 91.8467 660.604 94.6182 660.604ZM103.91 674H106.585V667.372C106.585 665.771 107.498 664.794 109.013 664.794C109.464 664.794 109.872 664.858 110.098 664.944V662.527C109.904 662.484 109.604 662.42 109.26 662.42C107.917 662.42 106.918 663.215 106.531 664.601H106.478V662.613H103.91V674ZM114.566 674.183C116.027 674.183 117.456 673.42 118.111 672.185H118.165V674H120.743V666.158C120.743 663.87 118.906 662.377 116.081 662.377C113.181 662.377 111.365 663.902 111.247 666.029H113.729C113.9 665.084 114.706 664.472 115.974 664.472C117.295 664.472 118.101 665.159 118.101 666.352V667.168L115.093 667.34C112.321 667.512 110.764 668.726 110.764 670.745C110.764 672.797 112.364 674.183 114.566 674.183ZM115.372 672.163C114.212 672.163 113.438 671.572 113.438 670.638C113.438 669.735 114.18 669.155 115.469 669.069L118.101 668.908V669.778C118.101 671.153 116.887 672.163 115.372 672.163ZM132.936 666.674C132.753 664.278 130.895 662.377 127.887 662.377C124.578 662.377 122.43 664.665 122.43 668.307C122.43 672.002 124.578 674.226 127.908 674.226C130.766 674.226 132.731 672.55 132.946 670.004H130.422C130.175 671.293 129.294 672.066 127.94 672.066C126.243 672.066 125.147 670.691 125.147 668.307C125.147 665.965 126.232 664.547 127.919 664.547C129.348 664.547 130.196 665.46 130.411 666.674H132.936ZM134.622 674H137.297V658.499H134.622V674ZM147.115 670.595C146.825 671.54 145.88 672.163 144.634 672.163C142.883 672.163 141.766 670.938 141.766 669.112V668.951H149.726V668.081C149.726 664.622 147.706 662.377 144.473 662.377C141.186 662.377 139.102 664.751 139.102 668.35C139.102 671.98 141.164 674.226 144.58 674.226C147.276 674.226 149.274 672.743 149.618 670.595H147.115ZM144.483 664.45C146.02 664.45 147.051 665.578 147.104 667.189H141.787C141.895 665.6 142.979 664.45 144.483 664.45ZM162.81 674.258C166.473 674.258 169.008 672.249 169.491 668.93H166.773C166.344 670.799 164.872 671.905 162.82 671.905C160.135 671.905 158.438 669.725 158.438 666.244C158.438 662.785 160.146 660.594 162.81 660.594C164.818 660.594 166.397 661.872 166.763 663.816H169.491C169.147 660.486 166.408 658.241 162.81 658.241C158.405 658.241 155.602 661.303 155.602 666.244C155.602 671.218 158.384 674.258 162.81 674.258ZM171.403 674H174.078V658.499H171.403V674ZM181.394 674.226C184.734 674.226 186.904 672.002 186.904 668.307C186.904 664.622 184.713 662.377 181.394 662.377C178.074 662.377 175.883 664.633 175.883 668.307C175.883 672.002 178.053 674.226 181.394 674.226ZM181.394 672.109C179.696 672.109 178.601 670.734 178.601 668.307C178.601 665.89 179.707 664.504 181.394 664.504C183.091 664.504 184.187 665.89 184.187 668.307C184.187 670.734 183.091 672.109 181.394 672.109ZM198.721 662.613H196.046V669.198C196.046 670.853 195.09 671.948 193.543 671.948C192.039 671.948 191.244 671.067 191.244 669.435V662.613H188.569V669.972C188.569 672.604 190.138 674.204 192.608 674.204C194.338 674.204 195.487 673.409 196.089 672.023H196.143V674H198.721V662.613ZM205.166 674.183C206.831 674.183 208.142 673.334 208.765 672.056H208.808V674H211.429V658.499H208.754V664.525H208.689C208.088 663.269 206.799 662.42 205.166 662.42C202.298 662.42 200.439 664.697 200.439 668.296C200.439 671.916 202.298 674.183 205.166 674.183ZM205.972 664.622C207.658 664.622 208.765 666.072 208.765 668.307C208.765 670.562 207.658 671.991 205.972 671.991C204.242 671.991 203.179 670.573 203.179 668.307C203.179 666.051 204.253 664.622 205.972 664.622ZM87.2812 702V686.499H84.5098V702H87.2812ZM89.7412 702H92.416V695.404C92.416 693.771 93.3936 692.665 94.9297 692.665C96.4551 692.665 97.207 693.567 97.207 695.179V702H99.8818V694.642C99.8818 692.01 98.4531 690.398 95.9395 690.398C94.1885 690.398 92.9746 691.215 92.3623 692.568H92.3086V690.613H89.7412V702ZM102.771 702H105.446V692.676H107.681V690.646H105.403V689.711C105.403 688.787 105.865 688.304 106.886 688.304C107.197 688.304 107.509 688.336 107.734 688.368V686.499C107.401 686.435 106.821 686.381 106.295 686.381C103.824 686.381 102.771 687.423 102.771 689.636V690.646H101.214V692.676H102.771V702ZM109.442 702H112.117V695.372C112.117 693.771 113.03 692.794 114.545 692.794C114.996 692.794 115.404 692.858 115.63 692.944V690.527C115.437 690.484 115.136 690.42 114.792 690.42C113.449 690.42 112.45 691.215 112.063 692.601H112.01V690.613H109.442V702ZM120.099 702.183C121.56 702.183 122.988 701.42 123.644 700.185H123.697V702H126.275V694.158C126.275 691.87 124.438 690.377 121.613 690.377C118.713 690.377 116.897 691.902 116.779 694.029H119.261C119.433 693.084 120.238 692.472 121.506 692.472C122.827 692.472 123.633 693.159 123.633 694.352V695.168L120.625 695.34C117.854 695.512 116.296 696.726 116.296 698.745C116.296 700.797 117.896 702.183 120.099 702.183ZM120.904 700.163C119.744 700.163 118.971 699.572 118.971 698.638C118.971 697.735 119.712 697.155 121.001 697.069L123.633 696.908V697.778C123.633 699.153 122.419 700.163 120.904 700.163ZM128.23 693.879C128.23 695.565 129.326 696.64 131.507 697.123L133.397 697.542C134.59 697.811 134.998 698.197 134.998 698.885C134.998 699.733 134.192 700.271 132.893 700.271C131.539 700.271 130.776 699.712 130.572 698.605H127.94C128.155 700.808 129.917 702.226 132.893 702.226C135.686 702.226 137.662 700.775 137.662 698.627C137.662 696.973 136.749 696.06 134.386 695.533L132.495 695.114C131.303 694.846 130.83 694.395 130.83 693.739C130.83 692.901 131.614 692.343 132.796 692.343C134.031 692.343 134.794 692.998 134.901 694.029H137.394C137.329 691.87 135.567 690.377 132.796 690.377C130.046 690.377 128.23 691.795 128.23 693.879ZM140.111 687.949V690.613H138.479V692.676H140.111V698.971C140.111 701.184 141.078 702.054 143.538 702.054C144.107 702.054 144.634 702.011 144.924 701.946V699.905C144.752 699.938 144.408 699.959 144.161 699.959C143.216 699.959 142.786 699.529 142.786 698.595V692.676H144.935V690.613H142.786V687.949H140.111ZM146.761 702H149.436V695.372C149.436 693.771 150.349 692.794 151.863 692.794C152.314 692.794 152.723 692.858 152.948 692.944V690.527C152.755 690.484 152.454 690.42 152.11 690.42C150.768 690.42 149.769 691.215 149.382 692.601H149.328V690.613H146.761V702ZM164.421 690.613H161.746V697.198C161.746 698.853 160.79 699.948 159.243 699.948C157.739 699.948 156.944 699.067 156.944 697.435V690.613H154.27V697.972C154.27 700.604 155.838 702.204 158.309 702.204C160.038 702.204 161.188 701.409 161.789 700.023H161.843V702H164.421V690.613ZM176.646 694.674C176.463 692.278 174.604 690.377 171.597 690.377C168.288 690.377 166.14 692.665 166.14 696.307C166.14 700.002 168.288 702.226 171.618 702.226C174.476 702.226 176.441 700.55 176.656 698.004H174.132C173.885 699.293 173.004 700.066 171.65 700.066C169.953 700.066 168.857 698.691 168.857 696.307C168.857 693.965 169.942 692.547 171.629 692.547C173.058 692.547 173.906 693.46 174.121 694.674H176.646ZM178.998 687.949V690.613H177.365V692.676H178.998V698.971C178.998 701.184 179.965 702.054 182.425 702.054C182.994 702.054 183.521 702.011 183.811 701.946V699.905C183.639 699.938 183.295 699.959 183.048 699.959C182.103 699.959 181.673 699.529 181.673 698.595V692.676H183.821V690.613H181.673V687.949H178.998ZM195.745 690.613H193.07V697.198C193.07 698.853 192.114 699.948 190.567 699.948C189.063 699.948 188.269 699.067 188.269 697.435V690.613H185.594V697.972C185.594 700.604 187.162 702.204 189.633 702.204C191.362 702.204 192.512 701.409 193.113 700.023H193.167V702H195.745V690.613ZM197.937 702H200.611V695.372C200.611 693.771 201.524 692.794 203.039 692.794C203.49 692.794 203.898 692.858 204.124 692.944V690.527C203.931 690.484 203.63 690.42 203.286 690.42C201.943 690.42 200.944 691.215 200.558 692.601H200.504V690.613H197.937V702ZM212.61 698.595C212.32 699.54 211.375 700.163 210.129 700.163C208.378 700.163 207.261 698.938 207.261 697.112V696.951H215.221V696.081C215.221 692.622 213.201 690.377 209.968 690.377C206.681 690.377 204.597 692.751 204.597 696.35C204.597 699.98 206.659 702.226 210.075 702.226C212.771 702.226 214.77 700.743 215.113 698.595H212.61ZM209.979 692.45C211.515 692.45 212.546 693.578 212.6 695.189H207.282C207.39 693.6 208.475 692.45 209.979 692.45Z" fill="white"/>
<path d="M82.3594 892V876.499H79.1582L74.4102 888.326H74.3242L69.5762 876.499H66.3643V892H68.8672V881H68.9424L73.4219 892H75.3125L79.792 881H79.8672V892H82.3594ZM86.2266 878.895C87.043 878.895 87.6875 878.239 87.6875 877.444C87.6875 876.639 87.043 875.994 86.2266 875.994C85.4102 875.994 84.7549 876.639 84.7549 877.444C84.7549 878.239 85.4102 878.895 86.2266 878.895ZM84.8945 892H87.5693V880.613H84.8945V892ZM99.8477 884.674C99.665 882.278 97.8066 880.377 94.7988 880.377C91.4902 880.377 89.3418 882.665 89.3418 886.307C89.3418 890.002 91.4902 892.226 94.8203 892.226C97.6777 892.226 99.6436 890.55 99.8584 888.004H97.334C97.0869 889.293 96.2061 890.066 94.8525 890.066C93.1553 890.066 92.0596 888.691 92.0596 886.307C92.0596 883.965 93.1445 882.547 94.8311 882.547C96.2598 882.547 97.1084 883.46 97.3232 884.674H99.8477ZM101.459 892H104.134V885.372C104.134 883.771 105.047 882.794 106.562 882.794C107.013 882.794 107.421 882.858 107.646 882.944V880.527C107.453 880.484 107.152 880.42 106.809 880.42C105.466 880.42 104.467 881.215 104.08 882.601H104.026V880.613H101.459V892ZM113.63 892.226C116.971 892.226 119.141 890.002 119.141 886.307C119.141 882.622 116.949 880.377 113.63 880.377C110.311 880.377 108.119 882.633 108.119 886.307C108.119 890.002 110.289 892.226 113.63 892.226ZM113.63 890.109C111.933 890.109 110.837 888.734 110.837 886.307C110.837 883.89 111.943 882.504 113.63 882.504C115.327 882.504 116.423 883.89 116.423 886.307C116.423 888.734 115.327 890.109 113.63 890.109ZM120.655 883.879C120.655 885.565 121.751 886.64 123.932 887.123L125.822 887.542C127.015 887.811 127.423 888.197 127.423 888.885C127.423 889.733 126.617 890.271 125.317 890.271C123.964 890.271 123.201 889.712 122.997 888.605H120.365C120.58 890.808 122.342 892.226 125.317 892.226C128.11 892.226 130.087 890.775 130.087 888.627C130.087 886.973 129.174 886.06 126.811 885.533L124.92 885.114C123.728 884.846 123.255 884.395 123.255 883.739C123.255 882.901 124.039 882.343 125.221 882.343C126.456 882.343 127.219 882.998 127.326 884.029H129.818C129.754 881.87 127.992 880.377 125.221 880.377C122.471 880.377 120.655 881.795 120.655 883.879ZM136.833 892.226C140.174 892.226 142.344 890.002 142.344 886.307C142.344 882.622 140.152 880.377 136.833 880.377C133.514 880.377 131.322 882.633 131.322 886.307C131.322 890.002 133.492 892.226 136.833 892.226ZM136.833 890.109C135.136 890.109 134.04 888.734 134.04 886.307C134.04 883.89 135.146 882.504 136.833 882.504C138.53 882.504 139.626 883.89 139.626 886.307C139.626 888.734 138.53 890.109 136.833 890.109ZM144.804 892H147.479V882.676H149.713V880.646H147.436V879.711C147.436 878.787 147.897 878.304 148.918 878.304C149.229 878.304 149.541 878.336 149.767 878.368V876.499C149.434 876.435 148.854 876.381 148.327 876.381C145.856 876.381 144.804 877.423 144.804 879.636V880.646H143.246V882.676H144.804V892ZM152.216 877.949V880.613H150.583V882.676H152.216V888.971C152.216 891.184 153.183 892.054 155.643 892.054C156.212 892.054 156.738 892.011 157.028 891.946V889.905C156.856 889.938 156.513 889.959 156.266 889.959C155.32 889.959 154.891 889.529 154.891 888.595V882.676H157.039V880.613H154.891V877.949H152.216ZM173.668 892H176.59L171.09 876.499H167.964L162.464 892H165.321L166.643 887.993H172.347L173.668 892ZM169.457 879.238H169.532L171.691 885.855H167.287L169.457 879.238ZM177.761 892H186.838V889.916H181.08V889.862L186.741 882.375V880.613H177.814V882.697H183.658V882.74L177.761 890.378V892ZM198.912 880.613H196.237V887.198C196.237 888.853 195.281 889.948 193.734 889.948C192.23 889.948 191.436 889.067 191.436 887.435V880.613H188.761V887.972C188.761 890.604 190.329 892.204 192.8 892.204C194.529 892.204 195.679 891.409 196.28 890.023H196.334V892H198.912V880.613ZM201.104 892H203.778V885.372C203.778 883.771 204.691 882.794 206.206 882.794C206.657 882.794 207.065 882.858 207.291 882.944V880.527C207.098 880.484 206.797 880.42 206.453 880.42C205.11 880.42 204.111 881.215 203.725 882.601H203.671V880.613H201.104V892ZM215.777 888.595C215.487 889.54 214.542 890.163 213.296 890.163C211.545 890.163 210.428 888.938 210.428 887.112V886.951H218.388V886.081C218.388 882.622 216.368 880.377 213.135 880.377C209.848 880.377 207.764 882.751 207.764 886.35C207.764 889.98 209.826 892.226 213.242 892.226C215.938 892.226 217.937 890.743 218.28 888.595H215.777ZM213.146 882.45C214.682 882.45 215.713 883.578 215.767 885.189H210.449C210.557 883.6 211.642 882.45 213.146 882.45ZM226.82 883.062L227.583 881.72L225.209 880.366L227.594 878.991L226.82 877.648L224.532 879.045L224.629 876.499H222.899L222.996 879.045L220.708 877.648L219.956 878.991L222.309 880.355L219.945 881.709L220.697 883.062L222.996 881.666L222.899 884.212H224.629L224.532 881.666L226.82 883.062Z" fill="white"/>
<path d="M96.1592 746H99.0811L93.5811 730.499H90.4551L84.9551 746H87.8125L89.1338 741.993H94.8379L96.1592 746ZM91.9482 733.238H92.0234L94.1826 739.855H89.7783L91.9482 733.238ZM100.478 746H103.152V739.028C103.152 737.653 104.055 736.654 105.344 736.654C106.59 736.654 107.363 737.438 107.363 738.706V746H109.963V738.964C109.963 737.6 110.844 736.654 112.133 736.654C113.443 736.654 114.174 737.449 114.174 738.846V746H116.849V738.19C116.849 735.913 115.377 734.398 113.132 734.398C111.488 734.398 110.135 735.279 109.587 736.687H109.522C109.104 735.226 107.954 734.398 106.343 734.398C104.796 734.398 103.593 735.269 103.099 736.59H103.045V734.613H100.478V746ZM122.349 746.183C123.81 746.183 125.238 745.42 125.894 744.185H125.947V746H128.525V738.158C128.525 735.87 126.688 734.377 123.863 734.377C120.963 734.377 119.147 735.902 119.029 738.029H121.511C121.683 737.084 122.488 736.472 123.756 736.472C125.077 736.472 125.883 737.159 125.883 738.352V739.168L122.875 739.34C120.104 739.512 118.546 740.726 118.546 742.745C118.546 744.797 120.146 746.183 122.349 746.183ZM123.154 744.163C121.994 744.163 121.221 743.572 121.221 742.638C121.221 741.735 121.962 741.155 123.251 741.069L125.883 740.908V741.778C125.883 743.153 124.669 744.163 123.154 744.163ZM130.373 746H139.45V743.916H133.692V743.862L139.354 736.375V734.613H130.427V736.697H136.271V736.74L130.373 744.378V746ZM146.164 746.226C149.505 746.226 151.675 744.002 151.675 740.307C151.675 736.622 149.483 734.377 146.164 734.377C142.845 734.377 140.653 736.633 140.653 740.307C140.653 744.002 142.823 746.226 146.164 746.226ZM146.164 744.109C144.467 744.109 143.371 742.734 143.371 740.307C143.371 737.89 144.478 736.504 146.164 736.504C147.861 736.504 148.957 737.89 148.957 740.307C148.957 742.734 147.861 744.109 146.164 744.109ZM153.394 746H156.068V739.404C156.068 737.771 157.046 736.665 158.582 736.665C160.107 736.665 160.859 737.567 160.859 739.179V746H163.534V738.642C163.534 736.01 162.105 734.398 159.592 734.398C157.841 734.398 156.627 735.215 156.015 736.568H155.961V734.613H153.394V746ZM179.39 734.785H179.497L182.666 746H185.276L189.434 730.499H186.555L183.869 742.24H183.783L180.668 730.499H178.219L175.104 742.24H175.018L172.332 730.499H169.453L173.61 746H176.221L179.39 734.785ZM197.286 742.595C196.996 743.54 196.051 744.163 194.805 744.163C193.054 744.163 191.937 742.938 191.937 741.112V740.951H199.896V740.081C199.896 736.622 197.877 734.377 194.644 734.377C191.356 734.377 189.272 736.751 189.272 740.35C189.272 743.98 191.335 746.226 194.751 746.226C197.447 746.226 199.445 744.743 199.789 742.595H197.286ZM194.654 736.45C196.19 736.45 197.222 737.578 197.275 739.189H191.958C192.065 737.6 193.15 736.45 194.654 736.45ZM207.996 746.183C210.875 746.183 212.69 743.948 212.69 740.307C212.69 736.665 210.864 734.42 207.996 734.42C206.385 734.42 205.085 735.236 204.44 736.568H204.376V730.499H201.701V746H204.322V744.056H204.376C205.042 745.377 206.32 746.183 207.996 746.183ZM207.169 736.622C208.877 736.622 209.951 738.051 209.951 740.307C209.951 742.573 208.888 743.991 207.169 743.991C205.515 743.991 204.365 742.541 204.365 740.307C204.365 738.094 205.515 736.622 207.169 736.622ZM107.857 769.671C107.986 772.507 110.36 774.258 113.948 774.258C117.676 774.258 120.007 772.389 120.007 769.424C120.007 767.125 118.643 765.814 115.377 765.138L113.701 764.794C111.768 764.386 110.994 763.709 110.994 762.656C110.994 761.356 112.219 760.54 113.938 760.54C115.71 760.54 116.935 761.421 117.063 762.882H119.717C119.652 760.11 117.386 758.241 113.959 758.241C110.597 758.241 108.201 760.089 108.201 762.817C108.201 765.084 109.651 766.545 112.756 767.179L114.421 767.522C116.44 767.941 117.214 768.629 117.214 769.746C117.214 771.035 115.914 771.959 114.045 771.959C112.111 771.959 110.715 771.1 110.511 769.671H107.857ZM129.353 770.595C129.062 771.54 128.117 772.163 126.871 772.163C125.12 772.163 124.003 770.938 124.003 769.112V768.951H131.963V768.081C131.963 764.622 129.943 762.377 126.71 762.377C123.423 762.377 121.339 764.751 121.339 768.35C121.339 771.98 123.401 774.226 126.817 774.226C129.514 774.226 131.512 772.743 131.855 770.595H129.353ZM126.721 764.45C128.257 764.45 129.288 765.578 129.342 767.189H124.024C124.132 765.6 125.217 764.45 126.721 764.45ZM133.692 774H136.367V767.372C136.367 765.771 137.28 764.794 138.795 764.794C139.246 764.794 139.654 764.858 139.88 764.944V762.527C139.687 762.484 139.386 762.42 139.042 762.42C137.699 762.42 136.7 763.215 136.313 764.601H136.26V762.613H133.692V774ZM151.277 762.613H148.484L145.842 771.519H145.788L143.146 762.613H140.288L144.327 774H147.271L151.277 762.613ZM153.909 760.895C154.726 760.895 155.37 760.239 155.37 759.444C155.37 758.639 154.726 757.994 153.909 757.994C153.093 757.994 152.438 758.639 152.438 759.444C152.438 760.239 153.093 760.895 153.909 760.895ZM152.577 774H155.252V762.613H152.577V774ZM167.53 766.674C167.348 764.278 165.489 762.377 162.481 762.377C159.173 762.377 157.024 764.665 157.024 768.307C157.024 772.002 159.173 774.226 162.503 774.226C165.36 774.226 167.326 772.55 167.541 770.004H165.017C164.77 771.293 163.889 772.066 162.535 772.066C160.838 772.066 159.742 770.691 159.742 768.307C159.742 765.965 160.827 764.547 162.514 764.547C163.942 764.547 164.791 765.46 165.006 766.674H167.53ZM176.683 770.595C176.393 771.54 175.447 772.163 174.201 772.163C172.45 772.163 171.333 770.938 171.333 769.112V768.951H179.293V768.081C179.293 764.622 177.273 762.377 174.04 762.377C170.753 762.377 168.669 764.751 168.669 768.35C168.669 771.98 170.731 774.226 174.147 774.226C176.844 774.226 178.842 772.743 179.186 770.595H176.683ZM174.051 764.45C175.587 764.45 176.618 765.578 176.672 767.189H171.354C171.462 765.6 172.547 764.45 174.051 764.45ZM180.818 765.879C180.818 767.565 181.914 768.64 184.095 769.123L185.985 769.542C187.178 769.811 187.586 770.197 187.586 770.885C187.586 771.733 186.78 772.271 185.48 772.271C184.127 772.271 183.364 771.712 183.16 770.605H180.528C180.743 772.808 182.505 774.226 185.48 774.226C188.273 774.226 190.25 772.775 190.25 770.627C190.25 768.973 189.337 768.06 186.974 767.533L185.083 767.114C183.891 766.846 183.418 766.395 183.418 765.739C183.418 764.901 184.202 764.343 185.384 764.343C186.619 764.343 187.382 764.998 187.489 766.029H189.981C189.917 763.87 188.155 762.377 185.384 762.377C182.634 762.377 180.818 763.795 180.818 765.879Z" fill="white"/>
<path d="M98.335 811.533V809.879H91.8896V811.995H95.6279L95.6172 812.253C95.5742 814.423 93.9521 815.905 91.6104 815.905C88.8174 815.905 87.0771 813.725 87.0771 810.158C87.0771 806.667 88.7422 804.594 91.5352 804.594C93.4365 804.594 94.876 805.646 95.4023 807.43H98.2168C97.7119 804.325 95.0479 802.241 91.5244 802.241C87.0449 802.241 84.2412 805.271 84.2412 810.19C84.2412 815.186 87.0557 818.258 91.5781 818.258C95.8213 818.258 98.335 815.733 98.335 811.533ZM105.371 818.226C108.712 818.226 110.882 816.002 110.882 812.307C110.882 808.622 108.69 806.377 105.371 806.377C102.052 806.377 99.8604 808.633 99.8604 812.307C99.8604 816.002 102.03 818.226 105.371 818.226ZM105.371 816.109C103.674 816.109 102.578 814.734 102.578 812.307C102.578 809.89 103.685 808.504 105.371 808.504C107.068 808.504 108.164 809.89 108.164 812.307C108.164 814.734 107.068 816.109 105.371 816.109ZM117.639 818.226C120.979 818.226 123.149 816.002 123.149 812.307C123.149 808.622 120.958 806.377 117.639 806.377C114.319 806.377 112.128 808.633 112.128 812.307C112.128 816.002 114.298 818.226 117.639 818.226ZM117.639 816.109C115.941 816.109 114.846 814.734 114.846 812.307C114.846 809.89 115.952 808.504 117.639 808.504C119.336 808.504 120.432 809.89 120.432 812.307C120.432 814.734 119.336 816.109 117.639 816.109ZM129.885 822.297C133.204 822.297 135.385 820.535 135.385 817.817V806.613H132.764V808.568H132.721C132.065 807.258 130.755 806.42 129.133 806.42C126.222 806.42 124.396 808.665 124.396 812.264C124.396 815.809 126.265 818.011 129.079 818.011C130.712 818.011 132.055 817.194 132.646 815.97H132.71V817.893C132.71 819.343 131.711 820.32 129.971 820.32C128.703 820.32 127.726 819.729 127.436 818.859H124.782C125.051 820.857 127.07 822.297 129.885 822.297ZM129.896 815.884C128.209 815.884 127.135 814.53 127.135 812.274C127.135 810.04 128.209 808.622 129.896 808.622C131.604 808.622 132.71 810.062 132.71 812.274C132.71 814.498 131.604 815.884 129.896 815.884ZM137.641 818H140.315V802.499H137.641V818ZM150.134 814.595C149.844 815.54 148.898 816.163 147.652 816.163C145.901 816.163 144.784 814.938 144.784 813.112V812.951H152.744V812.081C152.744 808.622 150.725 806.377 147.491 806.377C144.204 806.377 142.12 808.751 142.12 812.35C142.12 815.98 144.183 818.226 147.599 818.226C150.295 818.226 152.293 816.743 152.637 814.595H150.134ZM147.502 808.45C149.038 808.45 150.069 809.578 150.123 811.189H144.806C144.913 809.6 145.998 808.45 147.502 808.45ZM165.828 818.258C169.491 818.258 172.026 816.249 172.51 812.93H169.792C169.362 814.799 167.891 815.905 165.839 815.905C163.153 815.905 161.456 813.725 161.456 810.244C161.456 806.785 163.164 804.594 165.828 804.594C167.837 804.594 169.416 805.872 169.781 807.816H172.51C172.166 804.486 169.427 802.241 165.828 802.241C161.424 802.241 158.62 805.303 158.62 810.244C158.62 815.218 161.402 818.258 165.828 818.258ZM174.422 818H177.097V802.499H174.422V818ZM184.412 818.226C187.753 818.226 189.923 816.002 189.923 812.307C189.923 808.622 187.731 806.377 184.412 806.377C181.093 806.377 178.901 808.633 178.901 812.307C178.901 816.002 181.071 818.226 184.412 818.226ZM184.412 816.109C182.715 816.109 181.619 814.734 181.619 812.307C181.619 809.89 182.726 808.504 184.412 808.504C186.109 808.504 187.205 809.89 187.205 812.307C187.205 814.734 186.109 816.109 184.412 816.109ZM201.739 806.613H199.064V813.198C199.064 814.853 198.108 815.948 196.562 815.948C195.058 815.948 194.263 815.067 194.263 813.435V806.613H191.588V813.972C191.588 816.604 193.156 818.204 195.627 818.204C197.356 818.204 198.506 817.409 199.107 816.023H199.161V818H201.739V806.613ZM208.185 818.183C209.85 818.183 211.16 817.334 211.783 816.056H211.826V818H214.447V802.499H211.772V808.525H211.708C211.106 807.269 209.817 806.42 208.185 806.42C205.316 806.42 203.458 808.697 203.458 812.296C203.458 815.916 205.316 818.183 208.185 818.183ZM208.99 808.622C210.677 808.622 211.783 810.072 211.783 812.307C211.783 814.562 210.677 815.991 208.99 815.991C207.261 815.991 206.197 814.573 206.197 812.307C206.197 810.051 207.271 808.622 208.99 808.622ZM104.748 830.499V846H107.52V840.876H110.656C113.793 840.876 115.995 838.781 115.995 835.688C115.995 832.594 113.857 830.499 110.774 830.499H104.748ZM107.52 832.766H110.044C112.031 832.766 113.181 833.829 113.181 835.688C113.181 837.567 112.021 838.642 110.033 838.642H107.52V832.766ZM117.832 846H120.507V830.499H117.832V846ZM126.136 846.183C127.597 846.183 129.025 845.42 129.681 844.185H129.734V846H132.312V838.158C132.312 835.87 130.476 834.377 127.65 834.377C124.75 834.377 122.935 835.902 122.816 838.029H125.298C125.47 837.084 126.275 836.472 127.543 836.472C128.864 836.472 129.67 837.159 129.67 838.352V839.168L126.662 839.34C123.891 839.512 122.333 840.726 122.333 842.745C122.333 844.797 123.934 846.183 126.136 846.183ZM126.941 844.163C125.781 844.163 125.008 843.572 125.008 842.638C125.008 841.735 125.749 841.155 127.038 841.069L129.67 840.908V841.778C129.67 843.153 128.456 844.163 126.941 844.163ZM135.213 831.949V834.613H133.58V836.676H135.213V842.971C135.213 845.184 136.18 846.054 138.64 846.054C139.209 846.054 139.735 846.011 140.025 845.946V843.905C139.854 843.938 139.51 843.959 139.263 843.959C138.317 843.959 137.888 843.529 137.888 842.595V836.676H140.036V834.613H137.888V831.949H135.213ZM142.604 846H145.278V836.676H147.513V834.646H145.235V833.711C145.235 832.787 145.697 832.304 146.718 832.304C147.029 832.304 147.341 832.336 147.566 832.368V830.499C147.233 830.435 146.653 830.381 146.127 830.381C143.656 830.381 142.604 831.423 142.604 833.636V834.646H141.046V836.676H142.604V846ZM153.904 846.226C157.245 846.226 159.415 844.002 159.415 840.307C159.415 836.622 157.224 834.377 153.904 834.377C150.585 834.377 148.394 836.633 148.394 840.307C148.394 844.002 150.563 846.226 153.904 846.226ZM153.904 844.109C152.207 844.109 151.111 842.734 151.111 840.307C151.111 837.89 152.218 836.504 153.904 836.504C155.602 836.504 156.697 837.89 156.697 840.307C156.697 842.734 155.602 844.109 153.904 844.109ZM161.134 846H163.809V839.372C163.809 837.771 164.722 836.794 166.236 836.794C166.688 836.794 167.096 836.858 167.321 836.944V834.527C167.128 834.484 166.827 834.42 166.483 834.42C165.141 834.42 164.142 835.215 163.755 836.601H163.701V834.613H161.134V846ZM168.696 846H171.371V839.028C171.371 837.653 172.273 836.654 173.562 836.654C174.809 836.654 175.582 837.438 175.582 838.706V846H178.182V838.964C178.182 837.6 179.062 836.654 180.352 836.654C181.662 836.654 182.393 837.449 182.393 838.846V846H185.067V838.19C185.067 835.913 183.596 834.398 181.351 834.398C179.707 834.398 178.354 835.279 177.806 836.687H177.741C177.322 835.226 176.173 834.398 174.562 834.398C173.015 834.398 171.812 835.269 171.317 836.59H171.264V834.613H168.696V846ZM193.919 837.062L194.682 835.72L192.308 834.366L194.692 832.991L193.919 831.648L191.631 833.045L191.728 830.499H189.998L190.095 833.045L187.807 831.648L187.055 832.991L189.407 834.355L187.044 835.709L187.796 837.062L190.095 835.666L189.998 838.212H191.728L191.631 835.666L193.919 837.062Z" fill="white"/>
<path d="M34 596C34 591.582 37.5817 588 42 588H253C257.418 588 261 591.582 261 596V636H34V596Z" fill="white"/>
<path d="M83.4883 605.09V622H86.5117V616.41H89.9336C93.3555 616.41 95.7578 614.125 95.7578 610.75C95.7578 607.375 93.4258 605.09 90.0625 605.09H83.4883ZM86.5117 607.562H89.2656C91.4336 607.562 92.6875 608.723 92.6875 610.75C92.6875 612.801 91.4219 613.973 89.2539 613.973H86.5117V607.562ZM108.695 609.578H105.777V616.762C105.777 618.566 104.734 619.762 103.047 619.762C101.406 619.762 100.539 618.801 100.539 617.02V609.578H97.6211V617.605C97.6211 620.477 99.332 622.223 102.027 622.223C103.914 622.223 105.168 621.355 105.824 619.844H105.883V622H108.695V609.578ZM118.035 622.199C121.176 622.199 123.156 619.762 123.156 615.789C123.156 611.816 121.164 609.367 118.035 609.367C116.277 609.367 114.859 610.258 114.156 611.711H114.086V605.09H111.168V622H114.027V619.879H114.086C114.812 621.32 116.207 622.199 118.035 622.199ZM117.133 611.77C118.996 611.77 120.168 613.328 120.168 615.789C120.168 618.262 119.008 619.809 117.133 619.809C115.328 619.809 114.074 618.227 114.074 615.789C114.074 613.375 115.328 611.77 117.133 611.77ZM125.137 622H128.055V605.09H125.137V622ZM132.062 607.703C132.953 607.703 133.656 606.988 133.656 606.121C133.656 605.242 132.953 604.539 132.062 604.539C131.172 604.539 130.457 605.242 130.457 606.121C130.457 606.988 131.172 607.703 132.062 607.703ZM130.609 622H133.527V609.578H130.609V622ZM146.922 614.008C146.723 611.395 144.695 609.32 141.414 609.32C137.805 609.32 135.461 611.816 135.461 615.789C135.461 619.82 137.805 622.246 141.438 622.246C144.555 622.246 146.699 620.418 146.934 617.641H144.18C143.91 619.047 142.949 619.891 141.473 619.891C139.621 619.891 138.426 618.391 138.426 615.789C138.426 613.234 139.609 611.688 141.449 611.688C143.008 611.688 143.934 612.684 144.168 614.008H146.922ZM161.066 622.281C165.062 622.281 167.828 620.09 168.355 616.469H165.391C164.922 618.508 163.316 619.715 161.078 619.715C158.148 619.715 156.297 617.336 156.297 613.539C156.297 609.766 158.16 607.375 161.066 607.375C163.258 607.375 164.98 608.77 165.379 610.891H168.355C167.98 607.258 164.992 604.809 161.066 604.809C156.262 604.809 153.203 608.148 153.203 613.539C153.203 618.965 156.238 622.281 161.066 622.281ZM170.441 622H173.359V605.09H170.441V622ZM181.34 622.246C184.984 622.246 187.352 619.82 187.352 615.789C187.352 611.77 184.961 609.32 181.34 609.32C177.719 609.32 175.328 611.781 175.328 615.789C175.328 619.82 177.695 622.246 181.34 622.246ZM181.34 619.938C179.488 619.938 178.293 618.438 178.293 615.789C178.293 613.152 179.5 611.641 181.34 611.641C183.191 611.641 184.387 613.152 184.387 615.789C184.387 618.438 183.191 619.938 181.34 619.938ZM200.242 609.578H197.324V616.762C197.324 618.566 196.281 619.762 194.594 619.762C192.953 619.762 192.086 618.801 192.086 617.02V609.578H189.168V617.605C189.168 620.477 190.879 622.223 193.574 622.223C195.461 622.223 196.715 621.355 197.371 619.844H197.43V622H200.242V609.578ZM207.273 622.199C209.09 622.199 210.52 621.273 211.199 619.879H211.246V622H214.105V605.09H211.188V611.664H211.117C210.461 610.293 209.055 609.367 207.273 609.367C204.145 609.367 202.117 611.852 202.117 615.777C202.117 619.727 204.145 622.199 207.273 622.199ZM208.152 611.77C209.992 611.77 211.199 613.352 211.199 615.789C211.199 618.25 209.992 619.809 208.152 619.809C206.266 619.809 205.105 618.262 205.105 615.789C205.105 613.328 206.277 611.77 208.152 611.77Z" fill="#1E2631"/>
<g filter="url(#filter1_dd_328_72961)">
<rect x="56" y="294" width="183" height="40" rx="8" fill="#1E2631"/>
<rect x="56.5" y="294.5" width="182" height="39" rx="7.5" stroke="white"/>
</g>
<path d="M80.2822 306.23C75.6846 306.23 72.8057 309.313 72.8057 314.255C72.8057 319.186 75.6846 322.258 80.2822 322.258C84.8691 322.258 87.7588 319.186 87.7588 314.255C87.7588 309.313 84.8691 306.23 80.2822 306.23ZM80.2822 308.938C82.8174 308.938 84.4395 311 84.4395 314.255C84.4395 317.499 82.8174 319.551 80.2822 319.551C77.7363 319.551 76.1143 317.499 76.1143 314.255C76.1143 311 77.7471 308.938 80.2822 308.938ZM96.4277 322.183C99.3281 322.183 101.101 319.948 101.101 316.242C101.101 312.525 99.3174 310.302 96.417 310.302C94.7734 310.302 93.4951 311.118 92.8613 312.482H92.7969V306.499H89.6602V322H92.7539V320.023H92.8184C93.4521 321.366 94.7412 322.183 96.4277 322.183ZM95.3428 312.815C96.9004 312.815 97.8887 314.147 97.8887 316.242C97.8887 318.348 96.9111 319.658 95.3428 319.658C93.8174 319.658 92.7861 318.326 92.7861 316.242C92.7861 314.18 93.8281 312.815 95.3428 312.815ZM104.334 308.927C105.247 308.927 105.967 308.196 105.967 307.315C105.967 306.424 105.247 305.704 104.334 305.704C103.432 305.704 102.701 306.424 102.701 307.315C102.701 308.196 103.432 308.927 104.334 308.927ZM105.924 310.484H102.787V322.44C102.787 323.386 102.379 323.751 101.337 323.751C101.24 323.751 101.015 323.751 100.939 323.74V326.05C101.079 326.071 101.552 326.082 101.799 326.082C104.495 326.082 105.924 324.868 105.924 322.526V310.484ZM115.646 318.477C115.355 319.357 114.475 319.927 113.325 319.927C111.725 319.927 110.683 318.799 110.683 317.155V316.962H118.621V316.006C118.621 312.504 116.505 310.237 113.153 310.237C109.748 310.237 107.6 312.622 107.6 316.296C107.6 319.98 109.727 322.247 113.271 322.247C116.118 322.247 118.181 320.732 118.524 318.477H115.646ZM113.186 312.558C114.582 312.558 115.538 313.567 115.603 315.039H110.715C110.822 313.6 111.811 312.558 113.186 312.558ZM130.706 314.771C130.566 312.16 128.59 310.237 125.475 310.237C122.026 310.237 119.824 312.536 119.824 316.231C119.824 319.991 122.026 322.247 125.496 322.247C128.525 322.247 130.556 320.496 130.717 317.778H127.795C127.602 319.035 126.785 319.787 125.528 319.787C123.971 319.787 123.004 318.498 123.004 316.231C123.004 314.008 123.971 312.697 125.518 312.697C126.807 312.697 127.612 313.557 127.795 314.771H130.706ZM133.069 307.831V310.484H131.447V312.848H133.069V318.896C133.069 321.141 134.122 322.043 136.829 322.043C137.463 322.043 138 321.989 138.322 321.914V319.604C138.129 319.637 137.839 319.658 137.56 319.658C136.636 319.658 136.206 319.239 136.206 318.358V312.848H138.333V310.484H136.206V307.831H133.069ZM144.091 317.574C144.188 320.496 146.647 322.258 150.343 322.258C154.221 322.258 156.595 320.346 156.595 317.316C156.595 314.964 155.166 313.643 151.89 312.987L150.246 312.654C148.42 312.289 147.668 311.698 147.668 310.742C147.668 309.604 148.742 308.852 150.343 308.852C151.976 308.852 153.125 309.646 153.232 310.968H156.294C156.24 308.121 153.963 306.23 150.343 306.23C146.895 306.23 144.424 308.11 144.424 310.946C144.424 313.256 145.938 314.738 149.032 315.351L150.665 315.673C152.609 316.07 153.34 316.65 153.34 317.671C153.34 318.81 152.158 319.647 150.429 319.647C148.667 319.647 147.356 318.874 147.152 317.574H144.091ZM159.151 307.831V310.484H157.529V312.848H159.151V318.896C159.151 321.141 160.204 322.043 162.911 322.043C163.545 322.043 164.082 321.989 164.404 321.914V319.604C164.211 319.637 163.921 319.658 163.642 319.658C162.718 319.658 162.288 319.239 162.288 318.358V312.848H164.415V310.484H162.288V307.831H159.151ZM171.247 322.247C174.728 322.247 176.951 320.023 176.951 316.231C176.951 312.493 174.695 310.237 171.247 310.237C167.799 310.237 165.543 312.504 165.543 316.231C165.543 320.013 167.767 322.247 171.247 322.247ZM171.247 319.852C169.7 319.852 168.723 318.552 168.723 316.242C168.723 313.954 169.722 312.633 171.247 312.633C172.772 312.633 173.761 313.954 173.761 316.242C173.761 318.552 172.783 319.852 171.247 319.852ZM178.573 322H181.71V315.565C181.71 313.943 182.612 312.998 184.159 312.998C184.61 312.998 185.04 313.073 185.298 313.181V310.42C185.083 310.355 184.771 310.302 184.406 310.302C183.053 310.302 182.075 311.097 181.667 312.558H181.603V310.484H178.573V322ZM189.724 322.183C191.163 322.183 192.592 321.463 193.236 320.238H193.301V322H196.33V314.083C196.33 311.763 194.407 310.237 191.453 310.237C188.402 310.237 186.501 311.773 186.383 314.008H189.251C189.401 313.159 190.143 312.579 191.313 312.579C192.495 312.579 193.247 313.202 193.247 314.276V315.039L190.347 315.211C187.479 315.383 185.867 316.597 185.867 318.691C185.867 320.765 187.532 322.183 189.724 322.183ZM190.755 319.916C189.691 319.916 188.982 319.379 188.982 318.52C188.982 317.703 189.648 317.177 190.819 317.091L193.247 316.94V317.778C193.247 319.024 192.119 319.916 190.755 319.916ZM203.624 326.34C207.072 326.34 209.371 324.578 209.371 321.839V310.484H206.277V312.493H206.224C205.622 311.172 204.322 310.302 202.668 310.302C199.746 310.302 197.941 312.547 197.941 316.199C197.941 319.798 199.8 321.968 202.614 321.968C204.279 321.968 205.633 321.13 206.17 319.905H206.234V321.925C206.234 323.257 205.332 324.148 203.71 324.148C202.518 324.148 201.615 323.611 201.368 322.816H198.296C198.543 324.868 200.595 326.34 203.624 326.34ZM203.678 319.551C202.12 319.551 201.153 318.326 201.153 316.221C201.153 314.126 202.131 312.815 203.678 312.815C205.246 312.815 206.245 314.147 206.245 316.221C206.245 318.305 205.246 319.551 203.678 319.551ZM219.05 318.477C218.76 319.357 217.879 319.927 216.729 319.927C215.129 319.927 214.087 318.799 214.087 317.155V316.962H222.025V316.006C222.025 312.504 219.909 310.237 216.558 310.237C213.152 310.237 211.004 312.622 211.004 316.296C211.004 319.98 213.131 322.247 216.676 322.247C219.522 322.247 221.585 320.732 221.929 318.477H219.05ZM216.59 312.558C217.986 312.558 218.942 313.567 219.007 315.039H214.119C214.227 313.6 215.215 312.558 216.59 312.558Z" fill="white"/>
<circle cx="56" cy="314" r="4" fill="white"/>
<circle cx="239" cy="314" r="4" fill="white"/>
<g filter="url(#filter2_dd_328_72961)">
<rect x="56" y="338" width="183" height="40" rx="8" fill="#1E2631"/>
<rect x="56.5" y="338.5" width="182" height="39" rx="7.5" stroke="white"/>
</g>
<path d="M113.143 366.258C116.945 366.258 119.599 364.077 119.964 360.618H116.806C116.462 362.455 115.076 363.583 113.153 363.583C110.672 363.583 109.114 361.542 109.114 358.233C109.114 354.968 110.693 352.916 113.143 352.916C115.033 352.916 116.494 354.162 116.795 356.063H119.953C119.706 352.594 116.87 350.23 113.143 350.23C108.652 350.23 105.806 353.249 105.806 358.244C105.806 363.25 108.631 366.258 113.143 366.258ZM125.056 366.183C126.495 366.183 127.924 365.463 128.568 364.238H128.633V366H131.662V358.083C131.662 355.763 129.739 354.237 126.785 354.237C123.734 354.237 121.833 355.773 121.715 358.008H124.583C124.733 357.159 125.475 356.579 126.646 356.579C127.827 356.579 128.579 357.202 128.579 358.276V359.039L125.679 359.211C122.811 359.383 121.199 360.597 121.199 362.691C121.199 364.765 122.864 366.183 125.056 366.183ZM126.087 363.916C125.023 363.916 124.314 363.379 124.314 362.52C124.314 361.703 124.98 361.177 126.151 361.091L128.579 360.94V361.778C128.579 363.024 127.451 363.916 126.087 363.916ZM144.155 358.771C144.016 356.16 142.039 354.237 138.924 354.237C135.476 354.237 133.273 356.536 133.273 360.231C133.273 363.991 135.476 366.247 138.945 366.247C141.975 366.247 144.005 364.496 144.166 361.778H141.244C141.051 363.035 140.234 363.787 138.978 363.787C137.42 363.787 136.453 362.498 136.453 360.231C136.453 358.008 137.42 356.697 138.967 356.697C140.256 356.697 141.062 357.557 141.244 358.771H144.155ZM145.756 366H148.893V359.426C148.893 357.911 149.763 356.869 151.245 356.869C152.674 356.869 153.404 357.771 153.404 359.254V366H156.541V358.588C156.541 355.924 155.08 354.27 152.523 354.27C150.772 354.27 149.516 355.086 148.903 356.536H148.839V350.499H145.756V366ZM160.161 352.927C161.074 352.927 161.794 352.196 161.794 351.315C161.794 350.424 161.074 349.704 160.161 349.704C159.248 349.704 158.528 350.424 158.528 351.315C158.528 352.196 159.248 352.927 160.161 352.927ZM158.604 366H161.74V354.484H158.604V366ZM163.835 366H166.972V359.394C166.972 357.9 167.863 356.869 169.271 356.869C170.678 356.869 171.387 357.729 171.387 359.232V366H174.523V358.577C174.523 355.881 173.084 354.27 170.527 354.27C168.755 354.27 167.541 355.107 166.929 356.536H166.864V354.484H163.835V366ZM181.774 370.34C185.223 370.34 187.521 368.578 187.521 365.839V354.484H184.428V356.493H184.374C183.772 355.172 182.473 354.302 180.818 354.302C177.896 354.302 176.092 356.547 176.092 360.199C176.092 363.798 177.95 365.968 180.765 365.968C182.43 365.968 183.783 365.13 184.32 363.905H184.385V365.925C184.385 367.257 183.482 368.148 181.86 368.148C180.668 368.148 179.766 367.611 179.519 366.816H176.446C176.693 368.868 178.745 370.34 181.774 370.34ZM181.828 363.551C180.271 363.551 179.304 362.326 179.304 360.221C179.304 358.126 180.281 356.815 181.828 356.815C183.396 356.815 184.396 358.147 184.396 360.221C184.396 362.305 183.396 363.551 181.828 363.551Z" fill="white"/>
<circle cx="56" cy="358" r="4" fill="white"/>
<circle cx="239" cy="358" r="4" fill="white"/>
<g filter="url(#filter3_dd_328_72961)">
<rect x="56" y="382" width="183" height="40" rx="8" fill="#1E2631"/>
<rect x="56.5" y="382.5" width="182" height="39" rx="7.5" stroke="white"/>
</g>
<path d="M118.239 410V397.174H122.729V394.499H110.516V397.174H114.995V410H118.239ZM122.794 410H125.931V403.565C125.931 401.943 126.833 400.998 128.38 400.998C128.831 400.998 129.261 401.073 129.519 401.181V398.42C129.304 398.355 128.992 398.302 128.627 398.302C127.273 398.302 126.296 399.097 125.888 400.558H125.823V398.484H122.794V410ZM133.944 410.183C135.384 410.183 136.812 409.463 137.457 408.238H137.521V410H140.551V402.083C140.551 399.763 138.628 398.237 135.674 398.237C132.623 398.237 130.722 399.773 130.604 402.008H133.472C133.622 401.159 134.363 400.579 135.534 400.579C136.716 400.579 137.468 401.202 137.468 402.276V403.039L134.567 403.211C131.699 403.383 130.088 404.597 130.088 406.691C130.088 408.765 131.753 410.183 133.944 410.183ZM134.976 407.916C133.912 407.916 133.203 407.379 133.203 406.52C133.203 405.703 133.869 405.177 135.04 405.091L137.468 404.94V405.778C137.468 407.024 136.34 407.916 134.976 407.916ZM153.044 402.771C152.904 400.16 150.928 398.237 147.812 398.237C144.364 398.237 142.162 400.536 142.162 404.231C142.162 407.991 144.364 410.247 147.834 410.247C150.863 410.247 152.894 408.496 153.055 405.778H150.133C149.939 407.035 149.123 407.787 147.866 407.787C146.309 407.787 145.342 406.498 145.342 404.231C145.342 402.008 146.309 400.697 147.855 400.697C149.145 400.697 149.95 401.557 150.133 402.771H153.044ZM156.181 396.927C157.094 396.927 157.813 396.196 157.813 395.315C157.813 394.424 157.094 393.704 156.181 393.704C155.268 393.704 154.548 394.424 154.548 395.315C154.548 396.196 155.268 396.927 156.181 396.927ZM154.623 410H157.76V398.484H154.623V410ZM159.854 410H162.991V403.394C162.991 401.9 163.883 400.869 165.29 400.869C166.697 400.869 167.406 401.729 167.406 403.232V410H170.543V402.577C170.543 399.881 169.104 398.27 166.547 398.27C164.774 398.27 163.561 399.107 162.948 400.536H162.884V398.484H159.854V410ZM177.794 414.34C181.242 414.34 183.541 412.578 183.541 409.839V398.484H180.447V400.493H180.394C179.792 399.172 178.492 398.302 176.838 398.302C173.916 398.302 172.111 400.547 172.111 404.199C172.111 407.798 173.97 409.968 176.784 409.968C178.449 409.968 179.803 409.13 180.34 407.905H180.404V409.925C180.404 411.257 179.502 412.148 177.88 412.148C176.688 412.148 175.785 411.611 175.538 410.816H172.466C172.713 412.868 174.765 414.34 177.794 414.34ZM177.848 407.551C176.29 407.551 175.323 406.326 175.323 404.221C175.323 402.126 176.301 400.815 177.848 400.815C179.416 400.815 180.415 402.147 180.415 404.221C180.415 406.305 179.416 407.551 177.848 407.551Z" fill="white"/>
<circle cx="56" cy="402" r="4" fill="white"/>
<circle cx="239" cy="402" r="4" fill="white"/>
<g filter="url(#filter4_dd_328_72961)">
<rect x="56" y="426" width="183" height="40" rx="8" fill="#1E2631"/>
<rect x="56.5" y="426.5" width="182" height="39" rx="7.5" stroke="white"/>
</g>
<path d="M126.703 454V438.499H122.943L118.539 449.628H118.453L114.049 438.499H110.289V454H113.179V443.537H113.265L117.476 454H119.517L123.728 443.537H123.813V454H126.703ZM136.64 450.477C136.35 451.357 135.469 451.927 134.319 451.927C132.719 451.927 131.677 450.799 131.677 449.155V448.962H139.615V448.006C139.615 444.504 137.499 442.237 134.147 442.237C130.742 442.237 128.594 444.622 128.594 448.296C128.594 451.98 130.721 454.247 134.266 454.247C137.112 454.247 139.175 452.732 139.519 450.477H136.64ZM134.18 444.558C135.576 444.558 136.532 445.567 136.597 447.039H131.709C131.816 445.6 132.805 444.558 134.18 444.558ZM142.075 439.831V442.484H140.453V444.848H142.075V450.896C142.075 453.141 143.128 454.043 145.835 454.043C146.469 454.043 147.006 453.989 147.328 453.914V451.604C147.135 451.637 146.845 451.658 146.565 451.658C145.642 451.658 145.212 451.239 145.212 450.358V444.848H147.339V442.484H145.212V439.831H142.075ZM149.058 454H152.194V447.565C152.194 445.943 153.097 444.998 154.644 444.998C155.095 444.998 155.524 445.073 155.782 445.181V442.42C155.567 442.355 155.256 442.302 154.891 442.302C153.537 442.302 152.56 443.097 152.151 444.558H152.087V442.484H149.058V454ZM158.683 440.927C159.596 440.927 160.315 440.196 160.315 439.315C160.315 438.424 159.596 437.704 158.683 437.704C157.77 437.704 157.05 438.424 157.05 439.315C157.05 440.196 157.77 440.927 158.683 440.927ZM157.125 454H160.262V442.484H157.125V454ZM172.819 446.771C172.68 444.16 170.703 442.237 167.588 442.237C164.14 442.237 161.938 444.536 161.938 448.231C161.938 451.991 164.14 454.247 167.609 454.247C170.639 454.247 172.669 452.496 172.83 449.778H169.908C169.715 451.035 168.898 451.787 167.642 451.787C166.084 451.787 165.117 450.498 165.117 448.231C165.117 446.008 166.084 444.697 167.631 444.697C168.92 444.697 169.726 445.557 169.908 446.771H172.819ZM174.151 445.868C174.151 447.598 175.279 448.715 177.503 449.188L179.469 449.596C180.597 449.854 180.994 450.197 180.994 450.81C180.994 451.562 180.264 452.045 179.082 452.045C177.836 452.045 177.116 451.508 176.923 450.498H173.861C174.065 452.765 175.902 454.247 179.082 454.247C182.047 454.247 184.12 452.754 184.12 450.487C184.12 448.801 183.132 447.855 180.726 447.351L178.76 446.932C177.6 446.685 177.17 446.287 177.17 445.696C177.17 444.934 177.89 444.439 178.975 444.439C180.135 444.439 180.833 445.073 180.93 446.008H183.819C183.755 443.752 181.929 442.237 178.975 442.237C176.042 442.237 174.151 443.677 174.151 445.868Z" fill="white"/>
<circle cx="56" cy="446" r="4" fill="white"/>
<circle cx="239" cy="446" r="4" fill="white"/>
<g filter="url(#filter5_dd_328_72961)">
<rect x="56" y="492" width="183" height="40" rx="8" fill="#1E2631"/>
<rect x="56.5" y="492.5" width="182" height="39" rx="7.5" stroke="white"/>
</g>
<path d="M100.289 504.499V520H106.208C110.859 520 113.599 517.11 113.599 512.19C113.599 507.271 110.859 504.499 106.208 504.499H100.289ZM103.533 507.174H105.821C108.679 507.174 110.29 508.957 110.29 512.201C110.29 515.553 108.722 517.314 105.821 517.314H103.533V507.174ZM118.776 520.183C120.216 520.183 121.645 519.463 122.289 518.238H122.354V520H125.383V512.083C125.383 509.763 123.46 508.237 120.506 508.237C117.455 508.237 115.554 509.773 115.436 512.008H118.304C118.454 511.159 119.195 510.579 120.366 510.579C121.548 510.579 122.3 511.202 122.3 512.276V513.039L119.399 513.211C116.531 513.383 114.92 514.597 114.92 516.691C114.92 518.765 116.585 520.183 118.776 520.183ZM119.808 517.916C118.744 517.916 118.035 517.379 118.035 516.52C118.035 515.703 118.701 515.177 119.872 515.091L122.3 514.94V515.778C122.3 517.024 121.172 517.916 119.808 517.916ZM128.251 505.831V508.484H126.629V510.848H128.251V516.896C128.251 519.141 129.304 520.043 132.011 520.043C132.645 520.043 133.182 519.989 133.504 519.914V517.604C133.311 517.637 133.021 517.658 132.741 517.658C131.817 517.658 131.388 517.239 131.388 516.358V510.848H133.515V508.484H131.388V505.831H128.251ZM138.542 520.183C139.981 520.183 141.41 519.463 142.055 518.238H142.119V520H145.148V512.083C145.148 509.763 143.226 508.237 140.271 508.237C137.221 508.237 135.319 509.773 135.201 512.008H138.069C138.22 511.159 138.961 510.579 140.132 510.579C141.313 510.579 142.065 511.202 142.065 512.276V513.039L139.165 513.211C136.297 513.383 134.686 514.597 134.686 516.691C134.686 518.765 136.351 520.183 138.542 520.183ZM139.573 517.916C138.51 517.916 137.801 517.379 137.801 516.52C137.801 515.703 138.467 515.177 139.638 515.091L142.065 514.94V515.778C142.065 517.024 140.938 517.916 139.573 517.916ZM154.021 520.183C156.922 520.183 158.694 517.948 158.694 514.242C158.694 510.525 156.911 508.302 154.011 508.302C152.367 508.302 151.089 509.118 150.455 510.482H150.391V504.499H147.254V520H150.348V518.023H150.412C151.046 519.366 152.335 520.183 154.021 520.183ZM152.937 510.815C154.494 510.815 155.482 512.147 155.482 514.242C155.482 516.348 154.505 517.658 152.937 517.658C151.411 517.658 150.38 516.326 150.38 514.242C150.38 512.18 151.422 510.815 152.937 510.815ZM163.743 520.183C165.183 520.183 166.611 519.463 167.256 518.238H167.32V520H170.35V512.083C170.35 509.763 168.427 508.237 165.473 508.237C162.422 508.237 160.521 509.773 160.402 512.008H163.271C163.421 511.159 164.162 510.579 165.333 510.579C166.515 510.579 167.267 511.202 167.267 512.276V513.039L164.366 513.211C161.498 513.383 159.887 514.597 159.887 516.691C159.887 518.765 161.552 520.183 163.743 520.183ZM164.774 517.916C163.711 517.916 163.002 517.379 163.002 516.52C163.002 515.703 163.668 515.177 164.839 515.091L167.267 514.94V515.778C167.267 517.024 166.139 517.916 164.774 517.916ZM172.187 511.868C172.187 513.598 173.314 514.715 175.538 515.188L177.504 515.596C178.632 515.854 179.029 516.197 179.029 516.81C179.029 517.562 178.299 518.045 177.117 518.045C175.871 518.045 175.151 517.508 174.958 516.498H171.896C172.101 518.765 173.938 520.247 177.117 520.247C180.082 520.247 182.155 518.754 182.155 516.487C182.155 514.801 181.167 513.855 178.761 513.351L176.795 512.932C175.635 512.685 175.205 512.287 175.205 511.696C175.205 510.934 175.925 510.439 177.01 510.439C178.17 510.439 178.868 511.073 178.965 512.008H181.854C181.79 509.752 179.964 508.237 177.01 508.237C174.077 508.237 172.187 509.677 172.187 511.868ZM191.329 516.477C191.039 517.357 190.158 517.927 189.009 517.927C187.408 517.927 186.366 516.799 186.366 515.155V514.962H194.305V514.006C194.305 510.504 192.188 508.237 188.837 508.237C185.432 508.237 183.283 510.622 183.283 514.296C183.283 517.98 185.41 520.247 188.955 520.247C191.802 520.247 193.864 518.732 194.208 516.477H191.329ZM188.869 510.558C190.266 510.558 191.222 511.567 191.286 513.039H186.398C186.506 511.6 187.494 510.558 188.869 510.558Z" fill="white"/>
<circle cx="56" cy="512" r="4" fill="white"/>
<circle cx="239" cy="512" r="4" fill="white"/>
<circle cx="122" cy="479" r="5" fill="white"/>
<circle cx="148" cy="479" r="5" fill="white"/>
<circle cx="174" cy="479" r="5" fill="white"/>
<rect x="40.5" y="278.5" width="214" height="269" rx="7.5" stroke="white" stroke-linecap="round" stroke-linejoin="round" stroke-dasharray="12 12"/>
<g filter="url(#filter6_dd_328_72961)">
<rect x="34" y="20" width="227" height="218" rx="8" fill="#1E2631"/>
<rect x="34.5" y="20.5" width="226" height="217" rx="7.5" stroke="white"/>
</g>
<path d="M34 28C34 23.5817 37.5817 20 42 20H253C257.418 20 261 23.5817 261 28V68H34V28Z" fill="white"/>
<path d="M92.6367 55V40.6445H97.6875V38.0898H84.5625V40.6445H89.625V55H92.6367ZM104.789 51.2852C104.473 52.3164 103.441 52.9961 102.082 52.9961C100.172 52.9961 98.9531 51.6602 98.9531 49.668V49.4922H107.637V48.543C107.637 44.7695 105.434 42.3203 101.906 42.3203C98.3203 42.3203 96.0469 44.9102 96.0469 48.8359C96.0469 52.7969 98.2969 55.2461 102.023 55.2461C104.965 55.2461 107.145 53.6289 107.52 51.2852H104.789ZM101.918 44.582C103.594 44.582 104.719 45.8125 104.777 47.5703H98.9766C99.0938 45.8359 100.277 44.582 101.918 44.582ZM120.469 47.0078C120.27 44.3945 118.242 42.3203 114.961 42.3203C111.352 42.3203 109.008 44.8164 109.008 48.7891C109.008 52.8203 111.352 55.2461 114.984 55.2461C118.102 55.2461 120.246 53.418 120.48 50.6406H117.727C117.457 52.0469 116.496 52.8906 115.02 52.8906C113.168 52.8906 111.973 51.3906 111.973 48.7891C111.973 46.2344 113.156 44.6875 114.996 44.6875C116.555 44.6875 117.48 45.6836 117.715 47.0078H120.469ZM122.309 55H125.227V47.8633C125.227 46.0352 126.293 44.8164 128.051 44.8164C129.738 44.8164 130.605 45.8594 130.605 47.5938V55H133.523V46.9961C133.523 44.1484 131.918 42.3438 129.176 42.3438C127.289 42.3438 125.918 43.1992 125.25 44.7109H125.191V38.0898H122.309V55ZM135.867 55H138.785V47.8047C138.785 46.0234 139.852 44.8164 141.527 44.8164C143.191 44.8164 144.012 45.8008 144.012 47.5586V55H146.93V46.9727C146.93 44.1016 145.371 42.3438 142.629 42.3438C140.719 42.3438 139.395 43.2344 138.727 44.7109H138.668V42.5781H135.867V55ZM154.77 55.2461C158.414 55.2461 160.781 52.8203 160.781 48.7891C160.781 44.7695 158.391 42.3203 154.77 42.3203C151.148 42.3203 148.758 44.7812 148.758 48.7891C148.758 52.8203 151.125 55.2461 154.77 55.2461ZM154.77 52.9375C152.918 52.9375 151.723 51.4375 151.723 48.7891C151.723 46.1523 152.93 44.6406 154.77 44.6406C156.621 44.6406 157.816 46.1523 157.816 48.7891C157.816 51.4375 156.621 52.9375 154.77 52.9375ZM162.738 55H165.656V38.0898H162.738V55ZM173.637 55.2461C177.281 55.2461 179.648 52.8203 179.648 48.7891C179.648 44.7695 177.258 42.3203 173.637 42.3203C170.016 42.3203 167.625 44.7812 167.625 48.7891C167.625 52.8203 169.992 55.2461 173.637 55.2461ZM173.637 52.9375C171.785 52.9375 170.59 51.4375 170.59 48.7891C170.59 46.1523 171.797 44.6406 173.637 44.6406C175.488 44.6406 176.684 46.1523 176.684 48.7891C176.684 51.4375 175.488 52.9375 173.637 52.9375ZM186.996 59.6875C190.617 59.6875 192.996 57.7656 192.996 54.8008V42.5781H190.137V44.7109H190.09C189.375 43.2812 187.945 42.3672 186.176 42.3672C183 42.3672 181.008 44.8164 181.008 48.7422C181.008 52.6094 183.047 55.0117 186.117 55.0117C187.898 55.0117 189.363 54.1211 190.008 52.7852H190.078V54.8828C190.078 56.4648 188.988 57.5312 187.09 57.5312C185.707 57.5312 184.641 56.8867 184.324 55.9375H181.43C181.723 58.1172 183.926 59.6875 186.996 59.6875ZM187.008 52.6914C185.168 52.6914 183.996 51.2148 183.996 48.7539C183.996 46.3164 185.168 44.7695 187.008 44.7695C188.871 44.7695 190.078 46.3398 190.078 48.7539C190.078 51.1797 188.871 52.6914 187.008 52.6914ZM196.77 59.6172C199.605 59.6172 200.977 58.5742 202.031 55.4922L206.531 42.5781H203.461L200.531 52.5156H200.473L197.555 42.5781H194.367L198.785 55.0117C198.797 55.0469 198.609 55.668 198.609 55.7031C198.293 56.8516 197.672 57.3086 196.465 57.3086C196.289 57.3086 195.773 57.2969 195.621 57.2617V59.5703C195.773 59.6055 196.594 59.6172 196.77 59.6172Z" fill="#1E2631"/>
<path d="M115.359 108V92.499H112.158L107.41 104.326H107.324L102.576 92.499H99.3643V108H101.867V97H101.942L106.422 108H108.312L112.792 97H112.867V108H115.359ZM119.227 94.8945C120.043 94.8945 120.688 94.2393 120.688 93.4443C120.688 92.6387 120.043 91.9941 119.227 91.9941C118.41 91.9941 117.755 92.6387 117.755 93.4443C117.755 94.2393 118.41 94.8945 119.227 94.8945ZM117.895 108H120.569V96.6133H117.895V108ZM132.848 100.674C132.665 98.2783 130.807 96.377 127.799 96.377C124.49 96.377 122.342 98.665 122.342 102.307C122.342 106.002 124.49 108.226 127.82 108.226C130.678 108.226 132.644 106.55 132.858 104.004H130.334C130.087 105.293 129.206 106.066 127.853 106.066C126.155 106.066 125.06 104.691 125.06 102.307C125.06 99.9648 126.145 98.5469 127.831 98.5469C129.26 98.5469 130.108 99.46 130.323 100.674H132.848ZM134.459 108H137.134V101.372C137.134 99.7715 138.047 98.7939 139.562 98.7939C140.013 98.7939 140.421 98.8584 140.646 98.9443V96.5273C140.453 96.4844 140.152 96.4199 139.809 96.4199C138.466 96.4199 137.467 97.2148 137.08 98.6006H137.026V96.6133H134.459V108ZM146.63 108.226C149.971 108.226 152.141 106.002 152.141 102.307C152.141 98.6221 149.949 96.377 146.63 96.377C143.311 96.377 141.119 98.6328 141.119 102.307C141.119 106.002 143.289 108.226 146.63 108.226ZM146.63 106.109C144.933 106.109 143.837 104.734 143.837 102.307C143.837 99.8896 144.943 98.5039 146.63 98.5039C148.327 98.5039 149.423 99.8896 149.423 102.307C149.423 104.734 148.327 106.109 146.63 106.109ZM153.859 108H156.534V101.404C156.534 99.7715 157.512 98.665 159.048 98.665C160.573 98.665 161.325 99.5674 161.325 101.179V108H164V100.642C164 98.0098 162.571 96.3984 160.058 96.3984C158.307 96.3984 157.093 97.2148 156.48 98.5684H156.427V96.6133H153.859V108ZM169.5 108.183C170.961 108.183 172.39 107.42 173.045 106.185H173.099V108H175.677V100.158C175.677 97.8701 173.84 96.377 171.015 96.377C168.114 96.377 166.299 97.9023 166.181 100.029H168.662C168.834 99.084 169.64 98.4717 170.907 98.4717C172.229 98.4717 173.034 99.1592 173.034 100.352V101.168L170.026 101.34C167.255 101.512 165.697 102.726 165.697 104.745C165.697 106.797 167.298 108.183 169.5 108.183ZM170.306 106.163C169.146 106.163 168.372 105.572 168.372 104.638C168.372 103.735 169.113 103.155 170.402 103.069L173.034 102.908V103.778C173.034 105.153 171.82 106.163 170.306 106.163ZM187.934 96.6133H185.259V103.198C185.259 104.853 184.303 105.948 182.756 105.948C181.252 105.948 180.457 105.067 180.457 103.435V96.6133H177.782V103.972C177.782 106.604 179.351 108.204 181.821 108.204C183.551 108.204 184.7 107.409 185.302 106.023H185.355V108H187.934V96.6133ZM190.866 93.9492V96.6133H189.233V98.6758H190.866V104.971C190.866 107.184 191.833 108.054 194.293 108.054C194.862 108.054 195.389 108.011 195.679 107.946V105.905C195.507 105.938 195.163 105.959 194.916 105.959C193.971 105.959 193.541 105.529 193.541 104.595V98.6758H195.689V96.6133H193.541V93.9492H190.866Z" fill="white"/>
<path d="M121.021 147.533V145.879H114.576V147.995H118.314L118.304 148.253C118.261 150.423 116.639 151.905 114.297 151.905C111.504 151.905 109.764 149.725 109.764 146.158C109.764 142.667 111.429 140.594 114.222 140.594C116.123 140.594 117.562 141.646 118.089 143.43H120.903C120.398 140.325 117.734 138.241 114.211 138.241C109.731 138.241 106.928 141.271 106.928 146.19C106.928 151.186 109.742 154.258 114.265 154.258C118.508 154.258 121.021 151.733 121.021 147.533ZM123.02 154H125.694V147.372C125.694 145.771 126.607 144.794 128.122 144.794C128.573 144.794 128.981 144.858 129.207 144.944V142.527C129.014 142.484 128.713 142.42 128.369 142.42C127.026 142.42 126.027 143.215 125.641 144.601H125.587V142.613H123.02V154ZM133.676 154.183C135.137 154.183 136.565 153.42 137.221 152.185H137.274V154H139.853V146.158C139.853 143.87 138.016 142.377 135.19 142.377C132.29 142.377 130.475 143.902 130.356 146.029H132.838C133.01 145.084 133.815 144.472 135.083 144.472C136.404 144.472 137.21 145.159 137.21 146.352V147.168L134.202 147.34C131.431 147.512 129.873 148.726 129.873 150.745C129.873 152.797 131.474 154.183 133.676 154.183ZM134.481 152.163C133.321 152.163 132.548 151.572 132.548 150.638C132.548 149.735 133.289 149.155 134.578 149.069L137.21 148.908V149.778C137.21 151.153 135.996 152.163 134.481 152.163ZM145.363 154.183C146.824 154.183 148.253 153.42 148.908 152.185H148.962V154H151.54V146.158C151.54 143.87 149.703 142.377 146.878 142.377C143.978 142.377 142.162 143.902 142.044 146.029H144.525C144.697 145.084 145.503 144.472 146.771 144.472C148.092 144.472 148.897 145.159 148.897 146.352V147.168L145.89 147.34C143.118 147.512 141.561 148.726 141.561 150.745C141.561 152.797 143.161 154.183 145.363 154.183ZM146.169 152.163C145.009 152.163 144.235 151.572 144.235 150.638C144.235 149.735 144.977 149.155 146.266 149.069L148.897 148.908V149.778C148.897 151.153 147.684 152.163 146.169 152.163ZM153.774 154H156.449V138.499H153.774V154ZM166.493 154L171.886 138.499H168.899L164.968 151.024H164.903L160.972 138.499H157.921L163.313 154H166.493ZM189.535 154V138.499H186.334L181.586 150.326H181.5L176.752 138.499H173.54V154H176.043V143H176.118L180.598 154H182.488L186.968 143H187.043V154H189.535ZM89.0957 182V171.129H89.1924L96.8945 182H99.2793V166.499H96.6152V177.359H96.5186L88.8271 166.499H86.4209V182H89.0957ZM104.822 182.183C106.283 182.183 107.712 181.42 108.367 180.185H108.421V182H110.999V174.158C110.999 171.87 109.162 170.377 106.337 170.377C103.437 170.377 101.621 171.902 101.503 174.029H103.984C104.156 173.084 104.962 172.472 106.229 172.472C107.551 172.472 108.356 173.159 108.356 174.352V175.168L105.349 175.34C102.577 175.512 101.02 176.726 101.02 178.745C101.02 180.797 102.62 182.183 104.822 182.183ZM105.628 180.163C104.468 180.163 103.694 179.572 103.694 178.638C103.694 177.735 104.436 177.155 105.725 177.069L108.356 176.908V177.778C108.356 179.153 107.143 180.163 105.628 180.163ZM113.899 167.949V170.613H112.267V172.676H113.899V178.971C113.899 181.184 114.866 182.054 117.326 182.054C117.896 182.054 118.422 182.011 118.712 181.946V179.905C118.54 179.938 118.196 179.959 117.949 179.959C117.004 179.959 116.574 179.529 116.574 178.595V172.676H118.723V170.613H116.574V167.949H113.899ZM121.945 168.895C122.762 168.895 123.406 168.239 123.406 167.444C123.406 166.639 122.762 165.994 121.945 165.994C121.129 165.994 120.474 166.639 120.474 167.444C120.474 168.239 121.129 168.895 121.945 168.895ZM120.613 182H123.288V170.613H120.613V182ZM135.556 170.613H132.763L130.12 179.519H130.066L127.424 170.613H124.566L128.605 182H131.549L135.556 170.613ZM144.01 178.595C143.72 179.54 142.774 180.163 141.528 180.163C139.777 180.163 138.66 178.938 138.66 177.112V176.951H146.62V176.081C146.62 172.622 144.601 170.377 141.367 170.377C138.08 170.377 135.996 172.751 135.996 176.35C135.996 179.98 138.059 182.226 141.475 182.226C144.171 182.226 146.169 180.743 146.513 178.595H144.01ZM141.378 172.45C142.914 172.45 143.945 173.578 143.999 175.189H138.682C138.789 173.6 139.874 172.45 141.378 172.45ZM155.794 182V166.499H153.022V182H155.794ZM158.254 182H160.929V175.028C160.929 173.653 161.831 172.654 163.12 172.654C164.366 172.654 165.14 173.438 165.14 174.706V182H167.739V174.964C167.739 173.6 168.62 172.654 169.909 172.654C171.22 172.654 171.95 173.449 171.95 174.846V182H174.625V174.19C174.625 171.913 173.153 170.398 170.908 170.398C169.265 170.398 167.911 171.279 167.363 172.687H167.299C166.88 171.226 165.73 170.398 164.119 170.398C162.572 170.398 161.369 171.269 160.875 172.59H160.821V170.613H158.254V182ZM180.125 182.183C181.586 182.183 183.015 181.42 183.67 180.185H183.724V182H186.302V174.158C186.302 171.87 184.465 170.377 181.64 170.377C178.739 170.377 176.924 171.902 176.806 174.029H179.287C179.459 173.084 180.265 172.472 181.532 172.472C182.854 172.472 183.659 173.159 183.659 174.352V175.168L180.651 175.34C177.88 175.512 176.322 176.726 176.322 178.745C176.322 180.797 177.923 182.183 180.125 182.183ZM180.931 180.163C179.771 180.163 178.997 179.572 178.997 178.638C178.997 177.735 179.738 177.155 181.027 177.069L183.659 176.908V177.778C183.659 179.153 182.445 180.163 180.931 180.163ZM193.478 186.297C196.797 186.297 198.978 184.535 198.978 181.817V170.613H196.356V172.568H196.313C195.658 171.258 194.348 170.42 192.726 170.42C189.814 170.42 187.988 172.665 187.988 176.264C187.988 179.809 189.857 182.011 192.672 182.011C194.305 182.011 195.647 181.194 196.238 179.97H196.303V181.893C196.303 183.343 195.304 184.32 193.563 184.32C192.296 184.32 191.318 183.729 191.028 182.859H188.375C188.644 184.857 190.663 186.297 193.478 186.297ZM193.488 179.884C191.802 179.884 190.728 178.53 190.728 176.274C190.728 174.04 191.802 172.622 193.488 172.622C195.196 172.622 196.303 174.062 196.303 176.274C196.303 178.498 195.196 179.884 193.488 179.884ZM208.699 178.595C208.409 179.54 207.464 180.163 206.218 180.163C204.467 180.163 203.35 178.938 203.35 177.112V176.951H211.31V176.081C211.31 172.622 209.29 170.377 206.057 170.377C202.77 170.377 200.686 172.751 200.686 176.35C200.686 179.98 202.748 182.226 206.164 182.226C208.86 182.226 210.858 180.743 211.202 178.595H208.699ZM206.067 172.45C207.604 172.45 208.635 173.578 208.688 175.189H203.371C203.479 173.6 204.563 172.45 206.067 172.45Z" fill="white"/>
<circle cx="121" cy="209" r="5" fill="white"/>
<circle cx="147" cy="209" r="5" fill="white"/>
<circle cx="173" cy="209" r="5" fill="white"/>
<circle cx="34" cy="145" r="4" fill="white"/>
<defs>
<filter id="filter0_dd_328_72961" x="14" y="568" width="273" height="386" filterUnits="userSpaceOnUse" color-interpolation-filters="sRGB">
<feFlood flood-opacity="0" result="BackgroundImageFix"/>
<feColorMatrix in="SourceAlpha" type="matrix" values="0 0 0 0 0 0 0 0 0 0 0 0 0 0 0 0 0 0 127 0" result="hardAlpha"/>
<feOffset dx="8" dy="12"/>
<feGaussianBlur stdDeviation="9"/>
<feComposite in2="hardAlpha" operator="out"/>
<feColorMatrix type="matrix" values="0 0 0 0 0.239216 0 0 0 0 0.513726 0 0 0 0 1 0 0 0 0.1 0"/>
<feBlend mode="normal" in2="BackgroundImageFix" result="effect1_dropShadow_328_72961"/>
<feColorMatrix in="SourceAlpha" type="matrix" values="0 0 0 0 0 0 0 0 0 0 0 0 0 0 0 0 0 0 127 0" result="hardAlpha"/>
<feOffset dx="-4" dy="-4"/>
<feGaussianBlur stdDeviation="8"/>
<feComposite in2="hardAlpha" operator="out"/>
<feColorMatrix type="matrix" values="0 0 0 0 0.0901961 0 0 0 0 0.415686 0 0 0 0 1 0 0 0 0.05 0"/>
<feBlend mode="normal" in2="effect1_dropShadow_328_72961" result="effect2_dropShadow_328_72961"/>
<feBlend mode="normal" in="SourceGraphic" in2="effect2_dropShadow_328_72961" result="shape"/>
</filter>
<filter id="filter1_dd_328_72961" x="36" y="274" width="229" height="90" filterUnits="userSpaceOnUse" color-interpolation-filters="sRGB">
<feFlood flood-opacity="0" result="BackgroundImageFix"/>
<feColorMatrix in="SourceAlpha" type="matrix" values="0 0 0 0 0 0 0 0 0 0 0 0 0 0 0 0 0 0 127 0" result="hardAlpha"/>
<feOffset dx="8" dy="12"/>
<feGaussianBlur stdDeviation="9"/>
<feComposite in2="hardAlpha" operator="out"/>
<feColorMatrix type="matrix" values="0 0 0 0 0.239216 0 0 0 0 0.513726 0 0 0 0 1 0 0 0 0.1 0"/>
<feBlend mode="normal" in2="BackgroundImageFix" result="effect1_dropShadow_328_72961"/>
<feColorMatrix in="SourceAlpha" type="matrix" values="0 0 0 0 0 0 0 0 0 0 0 0 0 0 0 0 0 0 127 0" result="hardAlpha"/>
<feOffset dx="-4" dy="-4"/>
<feGaussianBlur stdDeviation="8"/>
<feComposite in2="hardAlpha" operator="out"/>
<feColorMatrix type="matrix" values="0 0 0 0 0.0901961 0 0 0 0 0.415686 0 0 0 0 1 0 0 0 0.05 0"/>
<feBlend mode="normal" in2="effect1_dropShadow_328_72961" result="effect2_dropShadow_328_72961"/>
<feBlend mode="normal" in="SourceGraphic" in2="effect2_dropShadow_328_72961" result="shape"/>
</filter>
<filter id="filter2_dd_328_72961" x="36" y="318" width="229" height="90" filterUnits="userSpaceOnUse" color-interpolation-filters="sRGB">
<feFlood flood-opacity="0" result="BackgroundImageFix"/>
<feColorMatrix in="SourceAlpha" type="matrix" values="0 0 0 0 0 0 0 0 0 0 0 0 0 0 0 0 0 0 127 0" result="hardAlpha"/>
<feOffset dx="8" dy="12"/>
<feGaussianBlur stdDeviation="9"/>
<feComposite in2="hardAlpha" operator="out"/>
<feColorMatrix type="matrix" values="0 0 0 0 0.239216 0 0 0 0 0.513726 0 0 0 0 1 0 0 0 0.1 0"/>
<feBlend mode="normal" in2="BackgroundImageFix" result="effect1_dropShadow_328_72961"/>
<feColorMatrix in="SourceAlpha" type="matrix" values="0 0 0 0 0 0 0 0 0 0 0 0 0 0 0 0 0 0 127 0" result="hardAlpha"/>
<feOffset dx="-4" dy="-4"/>
<feGaussianBlur stdDeviation="8"/>
<feComposite in2="hardAlpha" operator="out"/>
<feColorMatrix type="matrix" values="0 0 0 0 0.0901961 0 0 0 0 0.415686 0 0 0 0 1 0 0 0 0.05 0"/>
<feBlend mode="normal" in2="effect1_dropShadow_328_72961" result="effect2_dropShadow_328_72961"/>
<feBlend mode="normal" in="SourceGraphic" in2="effect2_dropShadow_328_72961" result="shape"/>
</filter>
<filter id="filter3_dd_328_72961" x="36" y="362" width="229" height="90" filterUnits="userSpaceOnUse" color-interpolation-filters="sRGB">
<feFlood flood-opacity="0" result="BackgroundImageFix"/>
<feColorMatrix in="SourceAlpha" type="matrix" values="0 0 0 0 0 0 0 0 0 0 0 0 0 0 0 0 0 0 127 0" result="hardAlpha"/>
<feOffset dx="8" dy="12"/>
<feGaussianBlur stdDeviation="9"/>
<feComposite in2="hardAlpha" operator="out"/>
<feColorMatrix type="matrix" values="0 0 0 0 0.239216 0 0 0 0 0.513726 0 0 0 0 1 0 0 0 0.1 0"/>
<feBlend mode="normal" in2="BackgroundImageFix" result="effect1_dropShadow_328_72961"/>
<feColorMatrix in="SourceAlpha" type="matrix" values="0 0 0 0 0 0 0 0 0 0 0 0 0 0 0 0 0 0 127 0" result="hardAlpha"/>
<feOffset dx="-4" dy="-4"/>
<feGaussianBlur stdDeviation="8"/>
<feComposite in2="hardAlpha" operator="out"/>
<feColorMatrix type="matrix" values="0 0 0 0 0.0901961 0 0 0 0 0.415686 0 0 0 0 1 0 0 0 0.05 0"/>
<feBlend mode="normal" in2="effect1_dropShadow_328_72961" result="effect2_dropShadow_328_72961"/>
<feBlend mode="normal" in="SourceGraphic" in2="effect2_dropShadow_328_72961" result="shape"/>
</filter>
<filter id="filter4_dd_328_72961" x="36" y="406" width="229" height="90" filterUnits="userSpaceOnUse" color-interpolation-filters="sRGB">
<feFlood flood-opacity="0" result="BackgroundImageFix"/>
<feColorMatrix in="SourceAlpha" type="matrix" values="0 0 0 0 0 0 0 0 0 0 0 0 0 0 0 0 0 0 127 0" result="hardAlpha"/>
<feOffset dx="8" dy="12"/>
<feGaussianBlur stdDeviation="9"/>
<feComposite in2="hardAlpha" operator="out"/>
<feColorMatrix type="matrix" values="0 0 0 0 0.239216 0 0 0 0 0.513726 0 0 0 0 1 0 0 0 0.1 0"/>
<feBlend mode="normal" in2="BackgroundImageFix" result="effect1_dropShadow_328_72961"/>
<feColorMatrix in="SourceAlpha" type="matrix" values="0 0 0 0 0 0 0 0 0 0 0 0 0 0 0 0 0 0 127 0" result="hardAlpha"/>
<feOffset dx="-4" dy="-4"/>
<feGaussianBlur stdDeviation="8"/>
<feComposite in2="hardAlpha" operator="out"/>
<feColorMatrix type="matrix" values="0 0 0 0 0.0901961 0 0 0 0 0.415686 0 0 0 0 1 0 0 0 0.05 0"/>
<feBlend mode="normal" in2="effect1_dropShadow_328_72961" result="effect2_dropShadow_328_72961"/>
<feBlend mode="normal" in="SourceGraphic" in2="effect2_dropShadow_328_72961" result="shape"/>
</filter>
<filter id="filter5_dd_328_72961" x="36" y="472" width="229" height="90" filterUnits="userSpaceOnUse" color-interpolation-filters="sRGB">
<feFlood flood-opacity="0" result="BackgroundImageFix"/>
<feColorMatrix in="SourceAlpha" type="matrix" values="0 0 0 0 0 0 0 0 0 0 0 0 0 0 0 0 0 0 127 0" result="hardAlpha"/>
<feOffset dx="8" dy="12"/>
<feGaussianBlur stdDeviation="9"/>
<feComposite in2="hardAlpha" operator="out"/>
<feColorMatrix type="matrix" values="0 0 0 0 0.239216 0 0 0 0 0.513726 0 0 0 0 1 0 0 0 0.1 0"/>
<feBlend mode="normal" in2="BackgroundImageFix" result="effect1_dropShadow_328_72961"/>
<feColorMatrix in="SourceAlpha" type="matrix" values="0 0 0 0 0 0 0 0 0 0 0 0 0 0 0 0 0 0 127 0" result="hardAlpha"/>
<feOffset dx="-4" dy="-4"/>
<feGaussianBlur stdDeviation="8"/>
<feComposite in2="hardAlpha" operator="out"/>
<feColorMatrix type="matrix" values="0 0 0 0 0.0901961 0 0 0 0 0.415686 0 0 0 0 1 0 0 0 0.05 0"/>
<feBlend mode="normal" in2="effect1_dropShadow_328_72961" result="effect2_dropShadow_328_72961"/>
<feBlend mode="normal" in="SourceGraphic" in2="effect2_dropShadow_328_72961" result="shape"/>
</filter>
<filter id="filter6_dd_328_72961" x="14" y="0" width="273" height="268" filterUnits="userSpaceOnUse" color-interpolation-filters="sRGB">
<feFlood flood-opacity="0" result="BackgroundImageFix"/>
<feColorMatrix in="SourceAlpha" type="matrix" values="0 0 0 0 0 0 0 0 0 0 0 0 0 0 0 0 0 0 127 0" result="hardAlpha"/>
<feOffset dx="8" dy="12"/>
<feGaussianBlur stdDeviation="9"/>
<feComposite in2="hardAlpha" operator="out"/>
<feColorMatrix type="matrix" values="0 0 0 0 0.239216 0 0 0 0 0.513726 0 0 0 0 1 0 0 0 0.1 0"/>
<feBlend mode="normal" in2="BackgroundImageFix" result="effect1_dropShadow_328_72961"/>
<feColorMatrix in="SourceAlpha" type="matrix" values="0 0 0 0 0 0 0 0 0 0 0 0 0 0 0 0 0 0 127 0" result="hardAlpha"/>
<feOffset dx="-4" dy="-4"/>
<feGaussianBlur stdDeviation="8"/>
<feComposite in2="hardAlpha" operator="out"/>
<feColorMatrix type="matrix" values="0 0 0 0 0.0901961 0 0 0 0 0.415686 0 0 0 0 1 0 0 0 0.05 0"/>
<feBlend mode="normal" in2="effect1_dropShadow_328_72961" result="effect2_dropShadow_328_72961"/>
<feBlend mode="normal" in="SourceGraphic" in2="effect2_dropShadow_328_72961" result="shape"/>
</filter>
</defs>
</svg>
