<svg width="24" height="24" viewBox="0 0 24 24" fill="none" xmlns="http://www.w3.org/2000/svg">
<g clip-path="url(#clip0_1416_974)">
<path d="M0 4.41379C0 1.97612 1.97612 0 4.41379 0H19.5862C22.0239 0 24 1.97612 24 4.41379V19.5862C24 22.0239 22.0239 24 19.5862 24H4.41379C1.97612 24 0 22.0239 0 19.5862V4.41379Z" fill="#F29111"/>
<g clip-path="url(#clip1_1416_974)">
<path d="M0 4.41379C0 1.97612 1.97612 0 4.41379 0H19.5862C22.0239 0 24 1.97612 24 4.41379V19.5862C24 22.0239 22.0239 24 19.5862 24H4.41379C1.97612 24 0 22.0239 0 19.5862V4.41379Z" fill="#F29111"/>
<path d="M15 15V9H16.4535L18.5134 12.9532L20.5465 9H22V15H20.6268V11.1128L18.9146 14.4223H18.0586L16.3465 11.1623V15H15Z" fill="white"/>
<path d="M10.3406 15L8 9H9.53712L11.0218 13.4154L12.524 9H14L11.6594 15H10.3406Z" fill="white"/>
<path d="M4.813 12.4331V11.7656H7V14.6026C6.41463 14.8675 5.75882 15 5.03252 15C4.03524 15 3.27913 14.7404 2.76423 14.2212C2.25474 13.702 2 12.9391 2 11.9325C2 11.3126 2.12466 10.7854 2.37398 10.351C2.62873 9.91127 2.99187 9.57749 3.46342 9.34967C3.94038 9.11656 4.51491 9 5.18701 9C5.43632 9 5.68295 9.0212 5.92685 9.06358C6.17616 9.10595 6.40923 9.16953 6.62602 9.2543V10.3033C6.34959 10.2185 6.10299 10.1603 5.8862 10.1285C5.66939 10.0914 5.45258 10.0728 5.23579 10.0728C4.61248 10.0728 4.1328 10.2344 3.79675 10.5576C3.46613 10.8755 3.30082 11.3338 3.30082 11.9325C3.30082 12.6 3.44445 13.1007 3.73171 13.4344C4.02438 13.7629 4.46884 13.9272 5.06504 13.9272C5.31979 13.9272 5.56912 13.9113 5.81303 13.8795V12.7589L4.813 12.4331Z" fill="white"/>
</g>
</g>
<defs>
<clipPath id="clip0_1416_974">
<rect width="24" height="24" fill="white"/>
</clipPath>
<clipPath id="clip1_1416_974">
<rect width="24" height="24" fill="white"/>
</clipPath>
</defs>
</svg>
