<svg width="24" height="24" viewBox="0 0 24 24" fill="none" xmlns="http://www.w3.org/2000/svg">
<g clip-path="url(#clip0_1416_1000)">
<path d="M11.1066 11.1147L0.325312 6.57526C0.170859 6.5102 0 6.62364 0 6.79126V18.9272C0 19.2338 0.186703 19.5096 0.471469 19.6235L10.9286 23.8063C11.0825 23.8679 11.25 23.7545 11.25 23.5887V11.3307C11.25 11.2364 11.1935 11.1513 11.1066 11.1147Z" fill="#F29111"/>
<path d="M12.092 9.82465L22.513 5.43687C22.7003 5.35803 22.7054 5.0944 22.5212 5.00848L12.3182 0.247105C12.1172 0.153309 11.885 0.153309 11.6839 0.247105L1.48098 5.00848C1.2968 5.0944 1.30182 5.35803 1.48913 5.43687L11.9101 9.82465C11.9683 9.84917 12.0339 9.84917 12.092 9.82465Z" fill="#F29111"/>
<path d="M12.75 11.3307V23.5887C12.75 23.7545 12.9175 23.8679 13.0714 23.8063L23.5285 19.6235C23.8132 19.5096 24 19.2338 24 18.9272V6.79126C24 6.62364 23.8291 6.5102 23.6747 6.57526L12.8934 11.1147C12.8065 11.1513 12.75 11.2364 12.75 11.3307Z" fill="#F29111"/>
</g>
<defs>
<clipPath id="clip0_1416_1000">
<rect width="24" height="24" fill="white"/>
</clipPath>
</defs>
</svg>
