<svg width="125" height="26" viewBox="0 0 125 26" fill="none" xmlns="http://www.w3.org/2000/svg">
<g clip-path="url(#clip0_1166_781)">
<path d="M18.5549 11.5154V23.005C16.3611 24.9385 13.684 25.9052 10.5606 25.9052C4.64846 25.9052 1.67383 21.7407 1.67383 13.3745C1.67383 9.13566 2.60341 5.82637 4.49973 3.40947C6.28452 1.17848 8.62706 0.0629883 11.5273 0.0629883C14.2789 0.0629883 16.5471 1.21566 18.3318 3.48383L16.5842 5.19426C14.911 3.89285 13.2749 3.26073 11.7504 3.26073C9.92846 3.26073 8.47832 4.04158 7.47438 5.60327C6.39607 7.27651 5.87551 9.61905 5.87551 12.6681C5.87551 19.3238 7.66029 22.6703 11.2671 22.6703C12.6428 22.6703 13.7583 22.2985 14.6135 21.592V14.49H11.3042V11.5154H18.5549Z" fill="white"/>
<path d="M33.7732 7.09017L33.327 10.511C32.6577 10.3251 32.1371 10.2507 31.7653 10.2507C30.8357 10.2507 29.5343 11.2919 27.8611 13.3369V25.533H24.0312V7.0158H27.1918L27.5265 10.1392C29.3112 7.83383 30.8357 6.68115 32.1371 6.68115C32.6949 6.68115 33.2154 6.82988 33.7732 7.09017Z" fill="white"/>
<path d="M50.4098 12.2958V25.533H47.4351L47.1376 23.5251C45.3157 25.124 43.3822 25.9048 41.4114 25.9048C37.6931 25.9048 35.834 24.1944 35.834 20.7735C35.834 18.8028 36.5776 17.2783 38.1022 16.2C39.7382 15.0473 42.1179 14.4524 45.2785 14.4524H46.6171V12.7792C46.6171 10.5854 45.3529 9.46989 42.7872 9.46989C41.114 9.46989 39.3292 9.84172 37.3585 10.5482L36.8007 8.20566C39.1061 7.20172 41.4486 6.68115 43.8284 6.68115C48.216 6.68115 50.4098 8.54031 50.4098 12.2958ZM46.6171 21.2569V16.8693H45.0182C41.4114 16.8693 39.6267 17.9848 39.6267 20.2158C39.6267 22.1493 40.5934 23.1161 42.4898 23.1161C43.7912 23.1161 45.1669 22.484 46.6171 21.2569Z" fill="white"/>
<path d="M69.0738 12.2958V25.533H66.0992L65.8017 23.5251C63.9797 25.124 62.0462 25.9048 60.0755 25.9048C56.3572 25.9048 54.498 24.1944 54.498 20.7735C54.498 18.8028 55.2417 17.2783 56.7662 16.2C58.4023 15.0473 60.782 14.4524 63.9426 14.4524H65.2811V12.7792C65.2811 10.5854 64.0169 9.46989 61.4513 9.46989C59.778 9.46989 57.9933 9.84172 56.0226 10.5482L55.4648 8.20566C57.7702 7.20172 60.1127 6.68115 62.4924 6.68115C66.88 6.68115 69.0738 8.54031 69.0738 12.2958ZM65.2811 21.2569V16.8693H63.6823C60.0755 16.8693 58.2907 17.9848 58.2907 20.2158C58.2907 22.1493 59.2575 23.1161 61.1538 23.1161C62.4552 23.1161 63.831 22.484 65.2811 21.2569Z" fill="white"/>
<path d="M80.9343 23.0791L81.0831 25.3845C80.1907 25.6448 79.1867 25.7935 78.0341 25.7935C76.807 25.7935 75.989 25.5704 75.5056 25.087C74.9478 24.5293 74.6504 23.5625 74.6504 22.1124V-0.82959H78.4803V20.6251C78.4803 22.0752 78.7033 22.856 79.1495 23.042C79.2983 23.0791 79.5214 23.1163 79.8188 23.1163C79.9304 23.1163 80.1163 23.1163 80.3766 23.0791H80.9343Z" fill="white"/>
<path d="M103.854 12.5193C103.854 17.0185 102.888 20.4393 100.917 22.7447C99.1322 24.8641 96.641 25.9052 93.4432 25.9052C90.2455 25.9052 87.8657 24.9757 86.2669 23.1165C84.5193 21.0714 83.6641 17.8365 83.6641 13.4117C83.6641 8.91257 84.6308 5.5289 86.6015 3.22355C88.3863 1.10411 90.8776 0.0629883 94.0753 0.0629883C100.582 0.0629883 103.854 4.2275 103.854 12.5193ZM99.6156 13.2258C99.6156 9.65623 99.095 7.05341 98.0911 5.41736C97.1615 3.89285 95.6742 3.14919 93.6663 3.14919C89.8365 3.14919 87.9029 6.30975 87.9029 12.6309C87.9029 16.2376 88.4235 18.8776 89.4274 20.5137C90.357 22.0382 91.8443 22.7819 93.8522 22.7819C97.6821 22.7819 99.6156 19.5841 99.6156 13.2258Z" fill="#F29111"/>
<path d="M122.775 18.5801C122.775 20.6995 121.995 22.4471 120.433 23.8229C118.871 25.1987 116.789 25.868 114.149 25.868C111.695 25.868 109.315 25.0871 107.01 23.5254L108.088 21.3688C110.059 22.3728 111.881 22.8562 113.48 22.8562C116.491 22.8562 118.313 21.4432 118.313 19.0635C118.313 17.5762 117.346 16.3119 115.45 15.2336C113.702 14.2669 111.918 13.3001 110.17 12.3333C108.274 10.9576 107.307 9.13559 107.307 6.9046C107.307 4.85953 108.014 3.22348 109.464 1.95925C110.877 0.73221 112.699 0.100098 114.967 0.100098C117.309 0.100098 119.429 0.73221 121.325 1.95925L120.358 4.11587C118.722 3.40939 117.123 3.07475 115.524 3.07475C112.959 3.07475 111.509 4.45052 111.509 6.38404C111.509 7.87136 112.475 9.17277 114.446 10.2511C116.231 11.2178 118.016 12.1846 119.838 13.1885C121.809 14.5643 122.775 16.3863 122.775 18.5801Z" fill="#F29111"/>
</g>
<defs>
<clipPath id="clip0_1166_781">
<rect width="124.286" height="26" fill="white"/>
</clipPath>
</defs>
</svg>
