<svg width="358" height="308" viewBox="0 0 358 308" fill="none" xmlns="http://www.w3.org/2000/svg">
<g clip-path="url(#clip0_1134_14509)">
<g filter="url(#filter0_d_1134_14509)">
<path d="M313 30.5088H42C38.9624 30.5088 36.5 32.9712 36.5 36.0088V274.009C36.5 277.046 38.9624 279.509 42 279.509H313C316.038 279.509 318.5 277.046 318.5 274.009V36.0088C318.5 32.9712 316.038 30.5088 313 30.5088Z" fill="url(#paint0_linear_1134_14509)" fill-opacity="0.8" shape-rendering="crispEdges"/>
</g>
<path d="M313 30.5088H42C38.9624 30.5088 36.5 32.9712 36.5 36.0088V274.009C36.5 277.046 38.9624 279.509 42 279.509H313C316.038 279.509 318.5 277.046 318.5 274.009V36.0088C318.5 32.9712 316.038 30.5088 313 30.5088Z" stroke="#D9D9D9"/>
<path d="M292.464 87.5879H62.5547V296.001H292.464V87.5879Z" fill="url(#paint1_radial_1134_14509)" fill-opacity="0.3"/>
<mask id="mask0_1134_14509" style="mask-type:luminance" maskUnits="userSpaceOnUse" x="130" y="54" width="95" height="144">
<path d="M224.24 54.877H130.781V197.327H224.24V54.877Z" fill="white"/>
</mask>
<g mask="url(#mask0_1134_14509)">
<path d="M211.138 140.481C211.248 140.416 211.34 140.324 211.403 140.214C211.467 140.103 211.5 139.978 211.5 139.851C211.5 139.723 211.467 139.598 211.403 139.487C211.34 139.377 211.248 139.285 211.138 139.221L183.285 123.038C181.503 122.005 179.479 121.461 177.419 121.461C175.359 121.461 173.336 122.005 171.554 123.038L143.706 139.221C143.595 139.285 143.504 139.377 143.441 139.487C143.377 139.598 143.344 139.723 143.344 139.851C143.344 139.978 143.377 140.103 143.441 140.214C143.504 140.324 143.595 140.416 143.706 140.481L177.055 160.099C177.168 160.165 177.295 160.2 177.426 160.2C177.556 160.2 177.684 160.165 177.796 160.099L211.138 140.481Z" fill="url(#paint2_linear_1134_14509)"/>
<path d="M210.885 140.05L210.886 140.049C210.921 140.029 210.95 140 210.97 139.965C210.99 139.93 211 139.891 211 139.851C211 139.81 210.99 139.771 210.97 139.736C210.95 139.702 210.921 139.673 210.886 139.652L183.034 123.471M210.885 140.05L183.034 123.471M210.885 140.05L177.542 159.668C177.507 159.689 177.467 159.7 177.426 159.7C177.385 159.7 177.344 159.689 177.309 159.668L143.959 140.05L143.958 140.049M210.885 140.05L143.958 140.049M183.034 123.471C181.328 122.483 179.391 121.961 177.419 121.961C175.447 121.961 173.511 122.482 171.805 123.47L171.804 123.471L143.958 139.652C143.957 139.652 143.957 139.653 143.957 139.653C143.923 139.673 143.894 139.702 143.874 139.736C143.854 139.771 143.844 139.81 143.844 139.851C143.844 139.891 143.854 139.93 143.874 139.965C143.894 140 143.923 140.029 143.958 140.049M183.034 123.471L143.958 140.049" stroke="#CEEFFF" stroke-opacity="0.56"/>
<path d="M140.582 145.442C140.471 145.378 140.345 145.345 140.217 145.345C140.088 145.345 139.962 145.379 139.851 145.444C139.74 145.508 139.648 145.601 139.584 145.713C139.521 145.824 139.487 145.95 139.488 146.079V177.789C139.491 179.317 139.894 180.818 140.657 182.142C141.419 183.467 142.515 184.568 143.836 185.337L173.407 203.068C173.518 203.132 173.644 203.166 173.772 203.166C173.9 203.166 174.025 203.132 174.136 203.068C174.247 203.004 174.339 202.912 174.403 202.801C174.467 202.691 174.501 202.565 174.501 202.437V165.646C174.501 165.518 174.467 165.392 174.403 165.282C174.339 165.171 174.247 165.079 174.136 165.015L140.582 145.442Z" fill="url(#paint3_linear_1134_14509)"/>
<path d="M180.336 165.774V202.428C180.336 202.556 180.37 202.682 180.434 202.793C180.498 202.904 180.59 202.996 180.701 203.059C180.812 203.123 180.938 203.157 181.066 203.157C181.194 203.157 181.319 203.123 181.43 203.059L211 185.329C212.319 184.56 213.415 183.46 214.178 182.138C214.941 180.816 215.344 179.317 215.349 177.79V146.079C215.348 145.952 215.314 145.826 215.25 145.716C215.186 145.605 215.094 145.513 214.983 145.45C214.872 145.386 214.747 145.352 214.619 145.353C214.491 145.353 214.365 145.386 214.255 145.45L180.701 165.145C180.59 165.209 180.498 165.301 180.434 165.411C180.37 165.521 180.336 165.647 180.336 165.774Z" fill="url(#paint4_linear_1134_14509)"/>
</g>
<mask id="mask1_1134_14509" style="mask-type:luminance" maskUnits="userSpaceOnUse" x="84" y="86" width="94" height="142">
<path d="M177.508 86.5322H84.0488V227.851H177.508V86.5322Z" fill="white"/>
</mask>
<g mask="url(#mask1_1134_14509)">
<path d="M164.451 165.829C164.561 165.765 164.652 165.673 164.716 165.562C164.779 165.452 164.813 165.327 164.813 165.199C164.813 165.072 164.779 164.946 164.716 164.836C164.652 164.725 164.561 164.633 164.451 164.569L136.597 148.387C134.815 147.354 132.792 146.81 130.732 146.81C128.672 146.81 126.648 147.354 124.866 148.387L97.0182 164.569C96.9082 164.633 96.8173 164.725 96.7533 164.836C96.6903 164.946 96.6562 165.072 96.6562 165.199C96.6562 165.327 96.6903 165.452 96.7533 165.562C96.8173 165.673 96.9082 165.765 97.0182 165.829L130.368 185.447C130.48 185.514 130.608 185.548 130.738 185.548C130.868 185.548 130.996 185.514 131.108 185.447L164.451 165.829Z" fill="url(#paint5_linear_1134_14509)"/>
<path d="M164.197 165.398L164.199 165.397C164.233 165.377 164.262 165.348 164.282 165.313C164.302 165.279 164.313 165.239 164.313 165.199C164.313 165.159 164.302 165.12 164.282 165.085C164.262 165.05 164.233 165.021 164.199 165.001L136.347 148.819L164.197 165.398ZM164.197 165.398L130.855 185.017C130.819 185.037 130.779 185.048 130.738 185.048C130.697 185.048 130.657 185.037 130.622 185.017L130.621 185.016L97.2722 165.398L97.2702 165.397M164.197 165.398L97.2702 165.397M97.2702 165.397C97.2352 165.377 97.2072 165.348 97.1872 165.313C97.1672 165.279 97.1562 165.239 97.1562 165.199C97.1562 165.159 97.1672 165.12 97.1872 165.085C97.2072 165.05 97.2352 165.021 97.2702 165.001L125.117 148.819C126.823 147.83 128.76 147.31 130.732 147.31C132.703 147.31 134.64 147.83 136.346 148.819L97.2702 165.397Z" stroke="#CEEFFF" stroke-opacity="0.56"/>
<path d="M93.8948 170.79C93.7838 170.726 93.6568 170.692 93.5288 170.692C93.4008 170.693 93.2738 170.727 93.1628 170.791C93.0518 170.856 92.9598 170.949 92.8968 171.06C92.8328 171.172 92.7998 171.298 92.8008 171.427V203.137C92.8038 204.665 93.2058 206.166 93.9688 207.49C94.7318 208.814 95.8278 209.916 97.1478 210.685L126.72 228.416C126.83 228.48 126.956 228.513 127.084 228.513C127.212 228.513 127.338 228.48 127.449 228.416C127.56 228.352 127.652 228.26 127.716 228.149C127.78 228.038 127.814 227.913 127.814 227.785V190.994C127.814 190.866 127.78 190.74 127.716 190.629C127.652 190.519 127.56 190.427 127.449 190.363L93.8948 170.79Z" fill="url(#paint6_linear_1134_14509)"/>
<path d="M93.3008 171.427V171.423C93.3008 171.383 93.3108 171.343 93.3308 171.308C93.3508 171.273 93.3798 171.244 93.4148 171.223C93.4498 171.203 93.4888 171.192 93.5298 171.192C93.5698 171.192 93.6088 171.203 93.6438 171.223H93.6448L127.197 190.795L127.199 190.796C127.234 190.816 127.263 190.845 127.283 190.88C127.303 190.914 127.314 190.954 127.314 190.994V227.784C127.314 227.824 127.303 227.864 127.283 227.899C127.263 227.934 127.234 227.962 127.199 227.983C127.164 228.003 127.124 228.013 127.084 228.013C127.045 228.013 127.006 228.003 126.972 227.984L97.4048 210.256L97.3998 210.253C96.1548 209.527 95.1208 208.489 94.4018 207.24C93.6828 205.992 93.3028 204.577 93.3008 203.136V171.427Z" stroke="#CEEFFF" stroke-opacity="0.56"/>
<path d="M133.65 191.121V227.775C133.651 227.903 133.684 228.029 133.748 228.139C133.812 228.25 133.905 228.342 134.015 228.406C134.126 228.47 134.252 228.504 134.38 228.504C134.508 228.504 134.634 228.47 134.745 228.406L164.314 210.675C165.633 209.907 166.729 208.807 167.492 207.485C168.255 206.162 168.659 204.663 168.663 203.136V171.426C168.663 171.298 168.629 171.173 168.565 171.062C168.5 170.952 168.408 170.86 168.297 170.796C168.187 170.733 168.061 170.699 167.933 170.699C167.805 170.699 167.68 170.733 167.569 170.797L134.015 190.492C133.905 190.555 133.813 190.647 133.749 190.758C133.685 190.868 133.651 190.993 133.65 191.121Z" fill="url(#paint7_linear_1134_14509)"/>
<path d="M98.0686 116.56L117.158 127.615L127.173 133.326C128.267 133.95 129.59 134.022 130.745 133.522L142.929 128.242L164.425 118.429L163.49 165.158L130.779 184.785L97.6016 165.158L98.0686 116.56Z" fill="url(#paint8_linear_1134_14509)"/>
</g>
<mask id="mask2_1134_14509" style="mask-type:luminance" maskUnits="userSpaceOnUse" x="177" y="84" width="94" height="144">
<path d="M270.965 84.2715H177.506V227.851H270.965V84.2715Z" fill="white"/>
</mask>
<g mask="url(#mask2_1134_14509)">
<path d="M258 166.193C258.11 166.128 258.201 166.036 258.265 165.926C258.328 165.815 258.361 165.69 258.361 165.562C258.361 165.435 258.328 165.31 258.265 165.199C258.201 165.089 258.11 164.997 258 164.932L230.146 148.75C228.364 147.717 226.34 147.173 224.281 147.173C222.221 147.173 220.197 147.717 218.415 148.75L190.567 164.932C190.457 164.997 190.365 165.089 190.302 165.199C190.238 165.31 190.205 165.435 190.205 165.562C190.205 165.69 190.238 165.815 190.302 165.926C190.365 166.036 190.457 166.128 190.567 166.193L223.917 185.811C224.029 185.877 224.157 185.912 224.287 185.912C224.417 185.912 224.545 185.877 224.657 185.811L258 166.193Z" fill="url(#paint9_linear_1134_14509)"/>
<path d="M257.746 165.762L257.748 165.761C257.782 165.74 257.811 165.712 257.831 165.677C257.851 165.642 257.861 165.603 257.861 165.562C257.861 165.522 257.851 165.483 257.831 165.448C257.811 165.413 257.782 165.385 257.748 165.364L229.895 149.182M257.746 165.762L229.895 149.182M257.746 165.762L224.404 185.38C224.369 185.401 224.328 185.412 224.287 185.412C224.246 185.412 224.206 185.401 224.17 185.38L190.82 165.762L190.819 165.761M257.746 165.762L190.819 165.761M229.895 149.182C228.189 148.194 226.252 147.673 224.281 147.673C222.309 147.673 220.372 148.194 218.666 149.182L190.819 165.364C190.819 165.364 190.819 165.365 190.818 165.365C190.784 165.385 190.755 165.414 190.736 165.448C190.716 165.483 190.705 165.522 190.705 165.562C190.705 165.603 190.716 165.642 190.736 165.677C190.756 165.712 190.784 165.74 190.819 165.761M229.895 149.182L190.819 165.761" stroke="#CEEFFF" stroke-opacity="0.56"/>
<path d="M187.444 171.155C187.333 171.091 187.206 171.057 187.078 171.058C186.949 171.058 186.823 171.092 186.712 171.157C186.601 171.221 186.509 171.314 186.446 171.425C186.382 171.537 186.349 171.663 186.35 171.792V203.502C186.352 205.03 186.755 206.531 187.518 207.855C188.281 209.179 189.377 210.281 190.697 211.05L220.268 228.781C220.379 228.845 220.505 228.878 220.633 228.878C220.761 228.879 220.887 228.845 220.997 228.781C221.108 228.717 221.2 228.625 221.265 228.514C221.329 228.403 221.362 228.278 221.363 228.15V191.359C221.362 191.231 221.329 191.105 221.265 190.995C221.201 190.884 221.109 190.792 220.998 190.728L187.444 171.155Z" fill="url(#paint10_linear_1134_14509)"/>
<path d="M227.197 191.484V228.139C227.197 228.267 227.231 228.392 227.295 228.503C227.359 228.613 227.451 228.706 227.562 228.77C227.673 228.834 227.799 228.867 227.927 228.867C228.055 228.867 228.181 228.834 228.291 228.77L257.861 211.038C259.18 210.27 260.276 209.17 261.039 207.848C261.802 206.526 262.206 205.027 262.21 203.501V171.789C262.21 171.662 262.176 171.536 262.111 171.426C262.047 171.315 261.955 171.223 261.844 171.16C261.734 171.096 261.608 171.062 261.48 171.062C261.352 171.064 261.227 171.096 261.116 171.16L227.562 190.855C227.451 190.919 227.36 191.01 227.296 191.121C227.232 191.231 227.198 191.356 227.197 191.484Z" fill="url(#paint11_linear_1134_14509)"/>
<path d="M257.609 210.606L257.604 210.61L228.039 228.339C228.005 228.358 227.966 228.367 227.927 228.367C227.887 228.367 227.847 228.357 227.812 228.337C227.777 228.317 227.748 228.288 227.728 228.253C227.708 228.219 227.697 228.179 227.697 228.139V191.485C227.698 191.445 227.708 191.406 227.728 191.372C227.748 191.337 227.777 191.308 227.812 191.288L227.815 191.286L261.366 171.593H261.367C261.402 171.573 261.441 171.564 261.481 171.562C261.521 171.562 261.56 171.573 261.595 171.593C261.63 171.613 261.659 171.642 261.679 171.677C261.699 171.711 261.71 171.75 261.71 171.79V171.792V203.498V203.501C261.706 204.94 261.325 206.352 260.606 207.598C259.886 208.845 258.853 209.882 257.609 210.606Z" stroke="#CEEFFF" stroke-opacity="0.56"/>
</g>
<path d="M211.138 196.831C211.248 196.767 211.34 196.675 211.403 196.564C211.467 196.454 211.5 196.329 211.5 196.201C211.5 196.074 211.467 195.948 211.403 195.838C211.34 195.727 211.248 195.635 211.138 195.571L183.285 179.389C181.503 178.356 179.479 177.812 177.419 177.812C175.359 177.812 173.336 178.356 171.554 179.389L143.706 195.571C143.595 195.635 143.504 195.727 143.441 195.838C143.377 195.948 143.344 196.074 143.344 196.201C143.344 196.329 143.377 196.454 143.441 196.564C143.504 196.675 143.595 196.767 143.706 196.831L177.055 216.449C177.168 216.515 177.295 216.55 177.426 216.55C177.556 216.55 177.684 216.515 177.796 216.449L211.138 196.831Z" fill="url(#paint12_linear_1134_14509)"/>
<path d="M210.885 196.4L210.886 196.399C210.921 196.379 210.95 196.35 210.97 196.315C210.99 196.281 211 196.241 211 196.201C211 196.161 210.99 196.122 210.97 196.087C210.95 196.052 210.921 196.023 210.886 196.003L183.034 179.821M210.885 196.4L183.034 179.821M210.885 196.4L177.542 216.018C177.507 216.038 177.467 216.05 177.426 216.05C177.385 216.05 177.344 216.039 177.309 216.019L143.959 196.4L143.958 196.399M210.885 196.4L143.958 196.399M183.034 179.821C181.328 178.832 179.391 178.312 177.419 178.312C175.447 178.312 173.511 178.832 171.805 179.821H171.804L143.957 196.003C143.923 196.023 143.894 196.052 143.874 196.087C143.854 196.122 143.844 196.161 143.844 196.201C143.844 196.241 143.854 196.281 143.874 196.315C143.894 196.35 143.923 196.379 143.958 196.399M183.034 179.821L143.958 196.399" stroke="#CEEFFF" stroke-opacity="0.56"/>
<path d="M140.582 201.792C140.471 201.728 140.345 201.694 140.217 201.694C140.088 201.695 139.962 201.729 139.851 201.793C139.74 201.858 139.648 201.951 139.584 202.062C139.521 202.174 139.487 202.3 139.488 202.429V234.139C139.491 235.667 139.894 237.168 140.657 238.492C141.419 239.816 142.515 240.918 143.836 241.687L173.407 259.417C173.518 259.481 173.644 259.515 173.772 259.515C173.9 259.515 174.025 259.482 174.136 259.418C174.247 259.354 174.339 259.262 174.403 259.151C174.467 259.04 174.501 258.915 174.501 258.787V221.996C174.501 221.868 174.467 221.742 174.403 221.631C174.339 221.521 174.247 221.429 174.136 221.365L140.582 201.792Z" fill="url(#paint13_linear_1134_14509)"/>
<path d="M139.988 202.429V202.425C139.988 202.385 139.998 202.345 140.018 202.31C140.038 202.275 140.067 202.246 140.102 202.225C140.137 202.205 140.177 202.194 140.217 202.194C140.257 202.194 140.297 202.205 140.332 202.225L173.885 221.797L173.886 221.798C173.921 221.818 173.95 221.847 173.97 221.882C173.991 221.916 174.001 221.956 174.001 221.996V258.786C174.001 258.826 173.991 258.866 173.97 258.901C173.95 258.935 173.921 258.964 173.886 258.985C173.852 259.005 173.812 259.015 173.772 259.015C173.732 259.015 173.694 259.005 173.66 258.986L144.093 241.258L144.087 241.255C142.842 240.529 141.809 239.491 141.09 238.242C140.371 236.994 139.991 235.579 139.988 234.138V202.429Z" stroke="#CEEFFF" stroke-opacity="0.56"/>
<path d="M180.336 222.124V258.778C180.336 258.906 180.37 259.032 180.434 259.142C180.498 259.253 180.59 259.345 180.701 259.409C180.812 259.473 180.938 259.507 181.066 259.507C181.194 259.507 181.319 259.473 181.43 259.409L211 241.678C212.319 240.91 213.415 239.81 214.178 238.488C214.941 237.165 215.344 235.666 215.349 234.139V202.429C215.348 202.301 215.314 202.176 215.25 202.065C215.186 201.955 215.094 201.863 214.983 201.799C214.872 201.736 214.747 201.702 214.619 201.702C214.491 201.702 214.365 201.736 214.255 201.8L180.701 221.495C180.59 221.558 180.498 221.65 180.434 221.761C180.37 221.871 180.336 221.996 180.336 222.124Z" fill="url(#paint14_linear_1134_14509)"/>
<path d="M210.748 241.246L210.742 241.249L181.178 258.977C181.143 258.997 181.105 259.007 181.065 259.007C181.025 259.007 180.986 258.996 180.951 258.976C180.916 258.956 180.887 258.927 180.867 258.892C180.847 258.857 180.836 258.818 180.836 258.778V222.125C180.836 222.085 180.847 222.046 180.867 222.011C180.887 221.977 180.916 221.948 180.951 221.928L180.954 221.926L214.505 202.233L214.506 202.232C214.54 202.213 214.579 202.202 214.619 202.202C214.659 202.202 214.699 202.213 214.734 202.233C214.769 202.253 214.798 202.282 214.818 202.316C214.838 202.351 214.849 202.39 214.849 202.43V202.431V234.138V234.139C214.844 235.578 214.464 236.991 213.744 238.238C213.025 239.485 211.992 240.522 210.748 241.246Z" stroke="#CEEFFF" stroke-opacity="0.56"/>
<path d="M292.464 44.8555H62.5547V253.268H292.464V44.8555Z" fill="url(#paint15_radial_1134_14509)" fill-opacity="0.7"/>
<mask id="mask3_1134_14509" style="mask-type:luminance" maskUnits="userSpaceOnUse" x="130" y="12" width="95" height="143">
<path d="M224.24 12.1445H130.781V154.595H224.24V12.1445Z" fill="white"/>
</mask>
<g mask="url(#mask3_1134_14509)">
<path d="M211.453 98.096C211.563 98.032 211.654 97.94 211.718 97.829C211.781 97.719 211.815 97.593 211.815 97.466C211.815 97.338 211.781 97.213 211.718 97.103C211.654 96.992 211.563 96.9 211.453 96.836L183.599 80.6532C181.817 79.6202 179.794 79.0762 177.734 79.0762C175.674 79.0762 173.65 79.6202 171.868 80.6532L144.02 96.836C143.91 96.9 143.819 96.992 143.755 97.103C143.692 97.213 143.658 97.338 143.658 97.466C143.658 97.593 143.692 97.719 143.755 97.829C143.819 97.94 143.91 98.032 144.02 98.096L177.37 117.714C177.482 117.78 177.61 117.815 177.74 117.815C177.87 117.815 177.998 117.78 178.11 117.714L211.453 98.096Z" fill="url(#paint16_linear_1134_14509)"/>
<path d="M172.119 81.0858L144.272 97.268C144.237 97.288 144.209 97.317 144.189 97.352C144.169 97.386 144.158 97.426 144.158 97.466C144.158 97.506 144.169 97.545 144.189 97.58C144.209 97.615 144.237 97.644 144.272 97.664L144.274 97.665L177.624 117.283C177.659 117.304 177.699 117.315 177.74 117.315C177.781 117.315 177.822 117.304 177.857 117.283L211.199 97.665L211.201 97.664C211.235 97.644 211.264 97.615 211.284 97.58C211.304 97.545 211.315 97.506 211.315 97.466C211.315 97.426 211.304 97.386 211.284 97.352C211.264 97.317 211.236 97.288 211.202 97.268C211.201 97.268 211.201 97.268 211.201 97.268L183.349 81.0858C181.642 80.0969 179.706 79.5762 177.734 79.5762C175.762 79.5762 173.825 80.0971 172.119 81.0858ZM172.119 81.0858C172.119 81.0857 172.119 81.0859 172.119 81.0858Z" stroke="#CEEFFF" stroke-opacity="0.56"/>
<path d="M140.582 102.71C140.471 102.646 140.345 102.612 140.217 102.612C140.088 102.613 139.962 102.647 139.851 102.711C139.74 102.776 139.648 102.869 139.584 102.98C139.521 103.092 139.487 103.218 139.488 103.347V135.057C139.491 136.585 139.894 138.086 140.657 139.41C141.419 140.734 142.515 141.836 143.836 142.605L173.407 160.335C173.518 160.399 173.644 160.433 173.772 160.433C173.9 160.433 174.025 160.4 174.136 160.336C174.247 160.272 174.339 160.18 174.403 160.069C174.467 159.958 174.501 159.832 174.501 159.704V122.914C174.501 122.786 174.467 122.66 174.403 122.549C174.339 122.439 174.247 122.347 174.136 122.283L140.582 102.71Z" fill="url(#paint17_linear_1134_14509)"/>
<path d="M180.336 123.042V159.696C180.336 159.824 180.37 159.95 180.434 160.06C180.498 160.171 180.59 160.263 180.701 160.327C180.812 160.391 180.938 160.425 181.066 160.425C181.194 160.425 181.319 160.391 181.43 160.327L211 142.596C212.319 141.828 213.415 140.728 214.178 139.406C214.941 138.083 215.344 136.584 215.349 135.057V103.347C215.348 103.219 215.314 103.094 215.25 102.983C215.186 102.873 215.094 102.781 214.983 102.717C214.872 102.654 214.747 102.62 214.619 102.62C214.491 102.62 214.365 102.654 214.255 102.718L180.701 122.413C180.59 122.476 180.498 122.568 180.434 122.678C180.37 122.789 180.336 122.914 180.336 123.042Z" fill="url(#paint18_linear_1134_14509)"/>
<path d="M144.799 48.5928L163.887 59.6478L173.903 65.3594C174.997 65.983 176.32 66.0554 177.475 65.5549L189.659 60.2751L211.155 50.462L210.22 97.6587L177.509 116.818L144.799 97.6587V48.5928Z" fill="url(#paint19_linear_1134_14509)"/>
<path d="M144.799 48.5928L163.887 59.6478L173.903 65.3594C174.997 65.983 176.32 66.0554 177.475 65.5549L189.659 60.2751L211.155 50.462L210.22 97.6587L177.509 116.818L144.799 97.6587V48.5928Z" fill="url(#paint20_linear_1134_14509)"/>
</g>
<mask id="mask4_1134_14509" style="mask-type:luminance" maskUnits="userSpaceOnUse" x="83" y="43" width="95" height="143">
<path d="M177.927 43.7646H83.9199V185.631H177.927V43.7646Z" fill="white"/>
</mask>
<g mask="url(#mask4_1134_14509)">
<path d="M164.453 123.096C164.563 123.032 164.654 122.94 164.718 122.829C164.781 122.719 164.815 122.593 164.815 122.466C164.815 122.338 164.781 122.213 164.718 122.103C164.654 121.992 164.563 121.9 164.453 121.836L136.599 105.653C134.817 104.62 132.794 104.076 130.734 104.076C128.674 104.076 126.65 104.62 124.868 105.653L97.0202 121.836C96.9102 121.9 96.8192 121.992 96.7552 122.103C96.6922 122.213 96.6582 122.338 96.6582 122.466C96.6582 122.593 96.6922 122.719 96.7552 122.829C96.8192 122.94 96.9102 123.032 97.0202 123.096L130.37 142.714C130.482 142.78 130.61 142.815 130.74 142.815C130.87 142.815 130.998 142.78 131.11 142.714L164.453 123.096Z" fill="url(#paint21_linear_1134_14509)"/>
<path d="M125.119 106.086L97.2722 122.268C97.2372 122.288 97.2092 122.317 97.1892 122.352C97.1692 122.386 97.1582 122.426 97.1582 122.466C97.1582 122.506 97.1692 122.545 97.1892 122.58C97.2092 122.615 97.2372 122.644 97.2722 122.664L97.2742 122.665L130.624 142.283C130.659 142.304 130.699 142.315 130.74 142.315C130.781 142.315 130.822 142.304 130.857 142.283L164.199 122.665L164.201 122.664C164.235 122.644 164.264 122.615 164.284 122.58C164.304 122.545 164.315 122.506 164.315 122.466C164.315 122.426 164.304 122.386 164.284 122.352C164.264 122.317 164.236 122.288 164.202 122.268C164.201 122.268 164.201 122.268 164.201 122.268L136.349 106.086C134.642 105.097 132.706 104.576 130.734 104.576C128.762 104.576 126.825 105.097 125.119 106.086ZM125.119 106.086C125.119 106.086 125.119 106.086 125.119 106.086Z" stroke="#CEEFFF" stroke-opacity="0.56"/>
<path d="M93.8968 128.059C93.7858 127.994 93.6588 127.961 93.5308 127.961C93.4028 127.961 93.2758 127.995 93.1648 128.06C93.0538 128.124 92.9618 128.217 92.8988 128.329C92.8348 128.44 92.8018 128.567 92.8028 128.695V160.405C92.8058 161.934 93.2078 163.434 93.9708 164.759C94.7338 166.083 95.8298 167.184 97.1498 167.953L126.722 185.684C126.832 185.748 126.958 185.782 127.086 185.782C127.214 185.782 127.34 185.748 127.451 185.684C127.561 185.62 127.654 185.528 127.718 185.418C127.782 185.307 127.816 185.181 127.816 185.053V148.262C127.816 148.134 127.782 148.009 127.718 147.898C127.654 147.787 127.562 147.695 127.451 147.631L93.8968 128.059Z" fill="url(#paint22_linear_1134_14509)"/>
<path d="M93.3028 128.695V128.692C93.3018 128.651 93.3128 128.612 93.3328 128.577C93.3528 128.542 93.3818 128.512 93.4168 128.492C93.4518 128.472 93.4908 128.461 93.5318 128.461C93.5718 128.461 93.6108 128.471 93.6458 128.491L93.6468 128.492L127.199 148.063L127.201 148.064C127.236 148.084 127.265 148.113 127.285 148.148C127.305 148.183 127.316 148.222 127.316 148.263V185.053C127.316 185.093 127.305 185.132 127.285 185.167C127.265 185.202 127.236 185.231 127.201 185.251C127.166 185.271 127.126 185.282 127.086 185.282C127.047 185.282 127.008 185.272 126.974 185.253L97.4068 167.525L97.4018 167.521C96.1568 166.796 95.1228 165.758 94.4038 164.509C93.6848 163.261 93.3048 161.846 93.3028 160.405V128.695Z" stroke="#CEEFFF" stroke-opacity="0.56"/>
<path d="M133.65 148.389V185.044C133.651 185.172 133.684 185.297 133.748 185.408C133.812 185.519 133.905 185.611 134.015 185.675C134.126 185.739 134.252 185.772 134.38 185.772C134.508 185.772 134.634 185.739 134.745 185.675L164.314 167.944C165.633 167.176 166.729 166.076 167.492 164.753C168.255 163.431 168.659 161.932 168.663 160.405V128.695C168.663 128.567 168.629 128.441 168.565 128.331C168.5 128.22 168.408 128.129 168.297 128.065C168.187 128.001 168.061 127.968 167.933 127.968C167.805 127.968 167.68 128.002 167.569 128.066L134.015 147.76C133.905 147.824 133.813 147.916 133.749 148.026C133.685 148.137 133.651 148.262 133.65 148.389Z" fill="url(#paint23_linear_1134_14509)"/>
<path d="M98.0686 73.8271L117.158 84.8823L127.173 90.5937C128.267 91.2174 129.59 91.2898 130.745 90.7893L142.929 85.5095L164.425 75.6964L163.49 122.426L130.779 142.052L97.6016 122.426L98.0686 73.8271Z" fill="url(#paint24_linear_1134_14509)"/>
</g>
<mask id="mask5_1134_14509" style="mask-type:luminance" maskUnits="userSpaceOnUse" x="177" y="41" width="95" height="146">
<path d="M271.077 41.2012H177.924V186.485H271.077V41.2012Z" fill="white"/>
</mask>
<g mask="url(#mask5_1134_14509)">
<path d="M258.453 127.096C258.563 127.032 258.654 126.94 258.718 126.829C258.781 126.719 258.815 126.593 258.815 126.466C258.815 126.338 258.781 126.213 258.718 126.103C258.654 125.992 258.563 125.9 258.453 125.836L230.599 109.653C228.817 108.62 226.794 108.076 224.734 108.076C222.674 108.076 220.65 108.62 218.868 109.653L191.02 125.836C190.91 125.9 190.819 125.992 190.755 126.103C190.692 126.213 190.658 126.338 190.658 126.466C190.658 126.593 190.692 126.719 190.755 126.829C190.819 126.94 190.91 127.032 191.02 127.096L224.37 146.714C224.482 146.78 224.61 146.815 224.74 146.815C224.87 146.815 224.998 146.78 225.11 146.714L258.453 127.096Z" fill="url(#paint25_linear_1134_14509)"/>
<path d="M219.119 110.086L191.272 126.268C191.237 126.288 191.209 126.317 191.189 126.352C191.169 126.386 191.158 126.426 191.158 126.466C191.158 126.506 191.169 126.545 191.189 126.58C191.209 126.615 191.237 126.644 191.272 126.664L191.274 126.665L224.624 146.283C224.659 146.304 224.699 146.315 224.74 146.315C224.781 146.315 224.822 146.304 224.857 146.283L258.199 126.665L258.201 126.664C258.235 126.644 258.264 126.615 258.284 126.58C258.304 126.545 258.315 126.506 258.315 126.466C258.315 126.426 258.304 126.386 258.284 126.352C258.264 126.317 258.236 126.288 258.202 126.268C258.201 126.268 258.201 126.268 258.201 126.268L230.349 110.086C228.642 109.097 226.706 108.576 224.734 108.576C222.762 108.576 220.825 109.097 219.119 110.086ZM219.119 110.086C219.119 110.086 219.119 110.086 219.119 110.086Z" stroke="#CEEFFF" stroke-opacity="0.56"/>
<path d="M187.444 128.423C187.333 128.359 187.206 128.325 187.078 128.325C186.949 128.325 186.823 128.36 186.712 128.424C186.601 128.489 186.509 128.581 186.446 128.693C186.382 128.805 186.349 128.931 186.35 129.059V160.77C186.352 162.298 186.755 163.799 187.518 165.123C188.281 166.447 189.377 167.548 190.697 168.318L220.268 186.048C220.379 186.112 220.505 186.146 220.633 186.146C220.761 186.146 220.887 186.112 220.997 186.049C221.108 185.985 221.2 185.893 221.265 185.782C221.329 185.671 221.362 185.545 221.363 185.417V148.626C221.362 148.499 221.329 148.373 221.265 148.262C221.201 148.151 221.109 148.059 220.998 147.996L187.444 128.423Z" fill="url(#paint26_linear_1134_14509)"/>
<path d="M227.197 148.754V185.408C227.197 185.536 227.231 185.661 227.295 185.772C227.359 185.883 227.451 185.975 227.562 186.039C227.673 186.103 227.799 186.137 227.927 186.136C228.055 186.136 228.181 186.103 228.291 186.039L257.861 168.308C259.18 167.54 260.276 166.44 261.039 165.118C261.802 163.795 262.206 162.296 262.21 160.769V129.059C262.21 128.931 262.176 128.806 262.111 128.695C262.047 128.585 261.955 128.493 261.844 128.429C261.734 128.365 261.608 128.332 261.48 128.332C261.352 128.332 261.227 128.366 261.116 128.43L227.562 148.125C227.451 148.188 227.36 148.28 227.296 148.39C227.232 148.501 227.198 148.626 227.197 148.754Z" fill="url(#paint27_linear_1134_14509)"/>
<path d="M257.609 167.876L257.604 167.879L228.039 185.607C228.005 185.626 227.966 185.636 227.927 185.636C227.887 185.637 227.847 185.626 227.812 185.606C227.777 185.586 227.748 185.557 227.728 185.522C227.708 185.487 227.697 185.448 227.697 185.407V148.755C227.698 148.715 227.708 148.676 227.728 148.641C227.748 148.606 227.777 148.578 227.812 148.558L227.815 148.556L261.366 128.863L261.367 128.862C261.402 128.842 261.441 128.832 261.481 128.832C261.521 128.832 261.56 128.843 261.595 128.863C261.63 128.883 261.659 128.911 261.679 128.946C261.699 128.981 261.71 129.02 261.71 129.06V160.768C261.706 162.207 261.325 163.621 260.606 164.868C259.886 166.115 258.853 167.152 257.609 167.876Z" stroke="#CEEFFF" stroke-opacity="0.56"/>
<path d="M190.975 75.4375L210.824 86.9422L221.307 92.925C222.401 93.5494 223.725 93.6219 224.881 93.1207L237.622 87.595L259.975 77.3827L259.003 126.499L224.989 146.437L190.975 126.499V75.4375Z" fill="url(#paint28_linear_1134_14509)"/>
<path d="M190.975 75.4375L210.824 86.9422L221.307 92.925C222.401 93.5494 223.725 93.6219 224.881 93.1207L237.622 87.595L259.975 77.3827L259.003 126.499L224.989 146.437L190.975 126.499V75.4375Z" fill="url(#paint29_linear_1134_14509)"/>
</g>
<path d="M210.795 154.02C210.905 153.956 210.996 153.864 211.06 153.753C211.123 153.643 211.157 153.517 211.157 153.39C211.157 153.262 211.123 153.137 211.06 153.027C210.996 152.916 210.905 152.824 210.795 152.76L182.941 136.577C181.159 135.544 179.136 135 177.076 135C175.016 135 172.992 135.544 171.21 136.577L143.362 152.76C143.252 152.824 143.161 152.916 143.097 153.027C143.034 153.137 143 153.262 143 153.39C143 153.517 143.034 153.643 143.097 153.753C143.161 153.864 143.252 153.956 143.362 154.02L176.712 173.638C176.824 173.704 176.952 173.739 177.082 173.739C177.212 173.739 177.34 173.704 177.452 173.638L210.795 154.02Z" fill="url(#paint30_linear_1134_14509)"/>
<path d="M171.461 137.01L143.614 153.192C143.579 153.212 143.551 153.241 143.531 153.276C143.511 153.31 143.5 153.35 143.5 153.39C143.5 153.43 143.511 153.469 143.531 153.504C143.551 153.539 143.579 153.568 143.614 153.588L143.616 153.589L176.966 173.207C177.001 173.228 177.041 173.239 177.082 173.239C177.123 173.239 177.164 173.228 177.199 173.207L210.541 153.589L210.543 153.588C210.577 153.568 210.606 153.539 210.626 153.504C210.646 153.469 210.657 153.43 210.657 153.39C210.657 153.35 210.646 153.31 210.626 153.276C210.606 153.241 210.578 153.212 210.544 153.192C210.543 153.192 210.543 153.192 210.543 153.192L182.691 137.01C180.984 136.021 179.048 135.5 177.076 135.5C175.104 135.5 173.167 136.021 171.461 137.01ZM171.461 137.01C171.461 137.009 171.461 137.01 171.461 137.01Z" stroke="#CEEFFF" stroke-opacity="0.56"/>
<path d="M140.582 159.059C140.471 158.994 140.345 158.961 140.217 158.961C140.088 158.961 139.962 158.995 139.851 159.06C139.74 159.124 139.648 159.217 139.584 159.329C139.521 159.44 139.487 159.567 139.488 159.695V191.405C139.491 192.934 139.894 194.434 140.657 195.759C141.419 197.083 142.515 198.184 143.836 198.953L173.407 216.684C173.518 216.748 173.644 216.782 173.772 216.782C173.9 216.782 174.025 216.748 174.136 216.684C174.247 216.62 174.339 216.528 174.403 216.418C174.467 216.307 174.501 216.181 174.501 216.053V179.262C174.501 179.134 174.467 179.009 174.403 178.898C174.339 178.787 174.247 178.695 174.136 178.631L140.582 159.059Z" fill="url(#paint31_linear_1134_14509)"/>
<path d="M139.988 159.695V159.692C139.988 159.651 139.998 159.612 140.018 159.577C140.038 159.542 140.067 159.512 140.102 159.492C140.137 159.472 140.177 159.461 140.217 159.461C140.257 159.461 140.297 159.471 140.332 159.491V159.492L173.885 179.063L173.886 179.064C173.921 179.084 173.95 179.113 173.97 179.148C173.991 179.183 174.001 179.222 174.001 179.263V216.053C174.001 216.093 173.991 216.132 173.97 216.167C173.95 216.202 173.921 216.231 173.886 216.251C173.852 216.271 173.812 216.282 173.772 216.282C173.732 216.282 173.694 216.272 173.66 216.253L144.093 198.525L144.087 198.521C142.842 197.796 141.809 196.758 141.09 195.509C140.371 194.261 139.991 192.846 139.988 191.405V159.695Z" stroke="#CEEFFF" stroke-opacity="0.56"/>
<path d="M180.336 179.39V216.045C180.336 216.173 180.37 216.298 180.434 216.409C180.498 216.52 180.59 216.612 180.701 216.676C180.812 216.74 180.938 216.773 181.066 216.773C181.194 216.773 181.319 216.739 181.43 216.675L211 198.945C212.319 198.177 213.415 197.077 214.178 195.754C214.941 194.432 215.344 192.933 215.349 191.406V159.696C215.348 159.568 215.314 159.442 215.25 159.332C215.186 159.221 215.094 159.13 214.983 159.066C214.872 159.002 214.747 158.969 214.619 158.969C214.491 158.969 214.365 159.003 214.255 159.066L180.701 178.761C180.59 178.825 180.498 178.917 180.434 179.027C180.37 179.138 180.336 179.263 180.336 179.39Z" fill="url(#paint32_linear_1134_14509)"/>
<path d="M210.748 198.513L210.742 198.516L181.178 216.244C181.143 216.263 181.105 216.273 181.065 216.273C181.025 216.273 180.986 216.263 180.951 216.243C180.916 216.222 180.887 216.193 180.867 216.159C180.847 216.124 180.836 216.084 180.836 216.044V179.392C180.836 179.352 180.847 179.312 180.867 179.278C180.887 179.243 180.916 179.214 180.951 179.194L180.954 179.192L214.505 159.499H214.506C214.54 159.479 214.579 159.469 214.619 159.469C214.659 159.469 214.699 159.479 214.734 159.499C214.769 159.519 214.798 159.548 214.818 159.583C214.838 159.617 214.849 159.657 214.849 159.697V191.405V191.406C214.844 192.845 214.464 194.258 213.744 195.504C213.025 196.751 211.992 197.788 210.748 198.513Z" stroke="#CEEFFF" stroke-opacity="0.56"/>
<path d="M144.799 104.669L163.887 115.724L173.903 121.436C174.997 122.059 176.32 122.132 177.475 121.631L189.659 116.351L211.155 106.538L210.22 153.735L177.509 172.894L144.799 153.735V104.669Z" fill="url(#paint33_linear_1134_14509)"/>
<path d="M144.799 104.669L163.887 115.724L173.903 121.436C174.997 122.059 176.32 122.132 177.475 121.631L189.659 116.351L211.155 106.538L210.22 153.735L177.509 172.894L144.799 153.735V104.669Z" fill="url(#paint34_linear_1134_14509)"/>
</g>
<defs>
<filter id="filter0_d_1134_14509" x="-27.5" y="-33.4912" width="410" height="377" filterUnits="userSpaceOnUse" color-interpolation-filters="sRGB">
<feFlood flood-opacity="0" result="BackgroundImageFix"/>
<feColorMatrix in="SourceAlpha" type="matrix" values="0 0 0 0 0 0 0 0 0 0 0 0 0 0 0 0 0 0 127 0" result="hardAlpha"/>
<feOffset/>
<feGaussianBlur stdDeviation="32"/>
<feComposite in2="hardAlpha" operator="out"/>
<feColorMatrix type="matrix" values="0 0 0 0 0.478431 0 0 0 0 0.67451 0 0 0 0 0.776471 0 0 0 0.35 0"/>
<feBlend mode="normal" in2="BackgroundImageFix" result="effect1_dropShadow_1134_14509"/>
<feBlend mode="normal" in="SourceGraphic" in2="effect1_dropShadow_1134_14509" result="shape"/>
</filter>
<linearGradient id="paint0_linear_1134_14509" x1="177.5" y1="30.0088" x2="177.5" y2="280.009" gradientUnits="userSpaceOnUse">
<stop/>
<stop offset="1" stop-color="#17232D"/>
</linearGradient>
<radialGradient id="paint1_radial_1134_14509" cx="0" cy="0" r="1" gradientUnits="userSpaceOnUse" gradientTransform="translate(177.509 191.795) rotate(90) scale(104.207 114.955)">
<stop offset="0.145833" stop-color="#62CBFF"/>
<stop offset="0.911458" stop-color="#8EC9E6" stop-opacity="0"/>
</radialGradient>
<linearGradient id="paint2_linear_1134_14509" x1="177.422" y1="121.461" x2="177.422" y2="160.2" gradientUnits="userSpaceOnUse">
<stop stop-color="#17222B"/>
<stop offset="1" stop-color="#11161B"/>
</linearGradient>
<linearGradient id="paint3_linear_1134_14509" x1="156.995" y1="145.345" x2="156.995" y2="203.166" gradientUnits="userSpaceOnUse">
<stop stop-color="#17222B"/>
<stop offset="1" stop-color="#11161B"/>
</linearGradient>
<linearGradient id="paint4_linear_1134_14509" x1="197.842" y1="145.353" x2="197.842" y2="203.157" gradientUnits="userSpaceOnUse">
<stop stop-color="#17222B"/>
<stop offset="1" stop-color="#11161B"/>
</linearGradient>
<linearGradient id="paint5_linear_1134_14509" x1="130.734" y1="146.81" x2="130.734" y2="185.548" gradientUnits="userSpaceOnUse">
<stop stop-color="#12171D"/>
<stop offset="0.520833" stop-color="#18232D"/>
</linearGradient>
<linearGradient id="paint6_linear_1134_14509" x1="110.307" y1="170.692" x2="110.307" y2="228.513" gradientUnits="userSpaceOnUse">
<stop stop-color="#18232D"/>
<stop offset="1" stop-color="#12171D"/>
</linearGradient>
<linearGradient id="paint7_linear_1134_14509" x1="151.157" y1="170.699" x2="151.157" y2="228.504" gradientUnits="userSpaceOnUse">
<stop stop-color="#18232D"/>
<stop offset="1" stop-color="#12171D"/>
</linearGradient>
<linearGradient id="paint8_linear_1134_14509" x1="146.2" y1="116.56" x2="113.49" y2="199.738" gradientUnits="userSpaceOnUse">
<stop offset="0.268899" stop-color="#FF9100" stop-opacity="0"/>
<stop offset="1" stop-color="#FF9100"/>
</linearGradient>
<linearGradient id="paint9_linear_1134_14509" x1="250.541" y1="171.426" x2="201.487" y2="159.938" gradientUnits="userSpaceOnUse">
<stop stop-color="#17222C"/>
<stop offset="1" stop-color="#11161C"/>
</linearGradient>
<linearGradient id="paint10_linear_1134_14509" x1="203.856" y1="171.058" x2="211.789" y2="233.52" gradientUnits="userSpaceOnUse">
<stop offset="0.2958" stop-color="#17222C"/>
<stop offset="1" stop-color="#11161C"/>
</linearGradient>
<linearGradient id="paint11_linear_1134_14509" x1="244.704" y1="171.062" x2="244.704" y2="228.867" gradientUnits="userSpaceOnUse">
<stop stop-color="#17222C"/>
<stop offset="1" stop-color="#11161C"/>
</linearGradient>
<linearGradient id="paint12_linear_1134_14509" x1="177.422" y1="177.812" x2="177.422" y2="216.55" gradientUnits="userSpaceOnUse">
<stop stop-color="#10151A"/>
<stop offset="1" stop-color="#17222C"/>
</linearGradient>
<linearGradient id="paint13_linear_1134_14509" x1="156.995" y1="201.694" x2="156.995" y2="259.515" gradientUnits="userSpaceOnUse">
<stop stop-color="#10151A"/>
<stop offset="1" stop-color="#17222C"/>
</linearGradient>
<linearGradient id="paint14_linear_1134_14509" x1="197.842" y1="201.702" x2="197.842" y2="259.507" gradientUnits="userSpaceOnUse">
<stop stop-color="#10151A"/>
<stop offset="1" stop-color="#17222C"/>
</linearGradient>
<radialGradient id="paint15_radial_1134_14509" cx="0" cy="0" r="1" gradientUnits="userSpaceOnUse" gradientTransform="translate(177.509 149.062) rotate(90) scale(104.083 114.818)">
<stop offset="0.145833" stop-color="#62CBFF"/>
<stop offset="0.604685" stop-color="#8EC9E6" stop-opacity="0"/>
</radialGradient>
<linearGradient id="paint16_linear_1134_14509" x1="177.736" y1="79.0762" x2="177.736" y2="117.815" gradientUnits="userSpaceOnUse">
<stop stop-color="#12171D"/>
<stop offset="0.520833" stop-color="#18232D"/>
</linearGradient>
<linearGradient id="paint17_linear_1134_14509" x1="156.995" y1="102.612" x2="156.995" y2="160.433" gradientUnits="userSpaceOnUse">
<stop stop-color="#17222B"/>
<stop offset="1" stop-color="#11161B"/>
</linearGradient>
<linearGradient id="paint18_linear_1134_14509" x1="197.842" y1="102.62" x2="197.842" y2="160.425" gradientUnits="userSpaceOnUse">
<stop stop-color="#17222B"/>
<stop offset="1" stop-color="#11161B"/>
</linearGradient>
<linearGradient id="paint19_linear_1134_14509" x1="192.93" y1="48.5928" x2="160.22" y2="131.771" gradientUnits="userSpaceOnUse">
<stop offset="0.268899" stop-color="#8EC9E6" stop-opacity="0"/>
<stop offset="1" stop-color="#8EC9E6"/>
</linearGradient>
<linearGradient id="paint20_linear_1134_14509" x1="192.93" y1="48.5928" x2="160.22" y2="131.771" gradientUnits="userSpaceOnUse">
<stop offset="0.268899" stop-color="#8EC9E6" stop-opacity="0"/>
<stop offset="1" stop-color="#8EC9E6"/>
</linearGradient>
<linearGradient id="paint21_linear_1134_14509" x1="130.736" y1="104.076" x2="130.736" y2="142.815" gradientUnits="userSpaceOnUse">
<stop stop-color="#12171D"/>
<stop offset="0.520833" stop-color="#18232D"/>
</linearGradient>
<linearGradient id="paint22_linear_1134_14509" x1="110.309" y1="127.961" x2="110.309" y2="185.782" gradientUnits="userSpaceOnUse">
<stop stop-color="#18232D"/>
<stop offset="1" stop-color="#12171D"/>
</linearGradient>
<linearGradient id="paint23_linear_1134_14509" x1="151.157" y1="127.968" x2="151.157" y2="185.772" gradientUnits="userSpaceOnUse">
<stop stop-color="#18232D"/>
<stop offset="1" stop-color="#12171D"/>
</linearGradient>
<linearGradient id="paint24_linear_1134_14509" x1="146.2" y1="73.8271" x2="113.49" y2="157.006" gradientUnits="userSpaceOnUse">
<stop offset="0.268899" stop-color="#FF9100" stop-opacity="0"/>
<stop offset="1" stop-color="#FF9100"/>
</linearGradient>
<linearGradient id="paint25_linear_1134_14509" x1="224.736" y1="108.076" x2="224.736" y2="146.815" gradientUnits="userSpaceOnUse">
<stop stop-color="#12171D"/>
<stop offset="0.520833" stop-color="#18232D"/>
</linearGradient>
<linearGradient id="paint26_linear_1134_14509" x1="203.856" y1="128.325" x2="211.789" y2="190.788" gradientUnits="userSpaceOnUse">
<stop offset="0.2958" stop-color="#17222C"/>
<stop offset="1" stop-color="#11161C"/>
</linearGradient>
<linearGradient id="paint27_linear_1134_14509" x1="244.704" y1="128.332" x2="244.704" y2="186.136" gradientUnits="userSpaceOnUse">
<stop stop-color="#17222C"/>
<stop offset="1" stop-color="#11161C"/>
</linearGradient>
<linearGradient id="paint28_linear_1134_14509" x1="241.024" y1="75.4375" x2="206.963" y2="161.981" gradientUnits="userSpaceOnUse">
<stop offset="0.268899" stop-color="#F29111" stop-opacity="0"/>
<stop offset="1" stop-color="#FF9100"/>
</linearGradient>
<linearGradient id="paint29_linear_1134_14509" x1="241.024" y1="75.4375" x2="206.963" y2="161.981" gradientUnits="userSpaceOnUse">
<stop offset="0.268899" stop-color="#F29111" stop-opacity="0"/>
<stop offset="1" stop-color="#FF9100"/>
</linearGradient>
<linearGradient id="paint30_linear_1134_14509" x1="177.078" y1="135" x2="177.078" y2="173.739" gradientUnits="userSpaceOnUse">
<stop stop-color="#12171D"/>
<stop offset="0.520833" stop-color="#18232D"/>
</linearGradient>
<linearGradient id="paint31_linear_1134_14509" x1="156.995" y1="158.961" x2="156.995" y2="216.782" gradientUnits="userSpaceOnUse">
<stop stop-color="#10151A"/>
<stop offset="1" stop-color="#17222C"/>
</linearGradient>
<linearGradient id="paint32_linear_1134_14509" x1="197.842" y1="158.969" x2="197.842" y2="216.773" gradientUnits="userSpaceOnUse">
<stop stop-color="#10151A"/>
<stop offset="1" stop-color="#17222C"/>
</linearGradient>
<linearGradient id="paint33_linear_1134_14509" x1="192.93" y1="104.669" x2="160.22" y2="187.847" gradientUnits="userSpaceOnUse">
<stop offset="0.268899" stop-color="#8EC9E6" stop-opacity="0"/>
<stop offset="1" stop-color="#8EC9E6"/>
</linearGradient>
<linearGradient id="paint34_linear_1134_14509" x1="192.93" y1="104.669" x2="160.22" y2="187.847" gradientUnits="userSpaceOnUse">
<stop offset="0.268899" stop-color="#8EC9E6" stop-opacity="0"/>
<stop offset="1" stop-color="#8EC9E6"/>
</linearGradient>
<clipPath id="clip0_1134_14509">
<rect width="358" height="308" fill="white"/>
</clipPath>
</defs>
</svg>
