<svg width="445" height="299" viewBox="0 0 445 299" fill="none" xmlns="http://www.w3.org/2000/svg">
<g filter="url(#filter0_d_1152_19197)">
<path d="M201 7.3532C201 5.50128 202.502 4 204.355 4H431.645C433.498 4 435 5.50127 435 7.35319V197.647C435 199.499 433.498 201 431.645 201H204.355C202.502 201 201 199.499 201 197.647V7.3532Z" fill="white"/>
<path d="M201 7.3532C201 5.50128 202.502 4 204.355 4H431.645C433.498 4 435 5.50127 435 7.35319V197.647C435 199.499 433.498 201 431.645 201H204.355C202.502 201 201 199.499 201 197.647V7.3532Z" fill="url(#paint0_linear_1152_19197)"/>
<path fill-rule="evenodd" clip-rule="evenodd" d="M431.645 4.8383H204.355C202.965 4.8383 201.839 5.96426 201.839 7.3532V197.647C201.839 199.036 202.965 200.162 204.355 200.162H431.645C433.035 200.162 434.161 199.036 434.161 197.647V7.35319C434.161 5.96426 433.035 4.8383 431.645 4.8383ZM204.355 4C202.502 4 201 5.50128 201 7.3532V197.647C201 199.499 202.502 201 204.355 201H431.645C433.498 201 435 199.499 435 197.647V7.35319C435 5.50127 433.498 4 431.645 4H204.355Z" fill="#C8CEDA"/>
</g>
<path d="M272.219 172C269.889 172 268 170.129 268 167.82L268 69.1797C268 66.8713 269.889 65 272.219 65L290.781 65C293.111 65 295 66.8713 295 69.1797L295 167.82C295 170.129 293.111 172 290.781 172L272.219 172Z" fill="#E1EEF3"/>
<path fill-rule="evenodd" clip-rule="evenodd" d="M268.337 69.1797L268.337 167.82C268.337 169.944 270.075 171.666 272.219 171.666L290.781 171.666C292.925 171.666 294.663 169.944 294.663 167.82L294.663 69.1797C294.663 67.056 292.925 65.3344 290.781 65.3344L272.219 65.3344C270.075 65.3344 268.337 67.056 268.337 69.1797ZM268 167.82C268 170.129 269.889 172 272.219 172L290.781 172C293.111 172 295 170.129 295 167.82L295 69.1797C295 66.8713 293.111 65 290.781 65L272.219 65C269.889 65 268 66.8713 268 69.1797L268 167.82Z" fill="#C8CEDA"/>
<path d="M272.219 172C269.889 172 268 170.129 268 167.82L268 69.1797C268 66.8713 269.889 65 272.219 65L290.781 65C293.111 65 295 66.8713 295 69.1797L295 167.82C295 170.129 293.111 172 290.781 172L272.219 172Z" fill="#F29111"/>
<path d="M348.063 172C345.819 172 344 170.129 344 167.82L344 69.1797C344 66.8713 345.819 65 348.062 65L365.937 65C368.181 65 370 66.8713 370 69.1797L370 167.82C370 170.129 368.181 172 365.938 172L348.063 172Z" fill="#E1EEF3"/>
<path fill-rule="evenodd" clip-rule="evenodd" d="M344.325 69.1797L344.325 167.82C344.325 169.944 345.998 171.666 348.063 171.666L365.938 171.666C368.002 171.666 369.675 169.944 369.675 167.82L369.675 69.1797C369.675 67.056 368.002 65.3344 365.937 65.3344L348.062 65.3344C345.998 65.3344 344.325 67.056 344.325 69.1797ZM344 167.82C344 170.129 345.819 172 348.063 172L365.938 172C368.181 172 370 170.129 370 167.82L370 69.1797C370 66.8713 368.181 65 365.937 65L348.062 65C345.819 65 344 66.8713 344 69.1797L344 167.82Z" fill="#C8CEDA"/>
<path d="M348.063 172C345.819 172 344 170.115 344 167.789L344 160.211C344 157.885 345.819 156 348.062 156L365.938 156C368.181 156 370 157.885 370 160.211L370 167.789C370 170.115 368.181 172 365.938 172L348.063 172Z" fill="#0BD3FF"/>
<path d="M216 29.5229V18.1871H218.448L221.918 25.6559L225.343 18.1871H227.792V29.5229H225.478V22.1788L222.594 28.4314H221.152L218.268 22.2723V29.5229H216Z" fill="white"/>
<path d="M236.44 29.1331C235.669 29.5177 234.748 29.71 233.677 29.71C232.315 29.71 231.268 29.341 230.537 28.6029C229.806 27.8545 229.441 26.7786 229.441 25.3753C229.441 24.0343 229.791 22.9844 230.492 22.2256C231.203 21.4667 232.179 21.0873 233.421 21.0873C234.523 21.0873 235.364 21.42 235.945 22.0852C236.526 22.7505 236.816 23.6705 236.816 24.8451V26.0457H231.709C231.799 26.6902 232.019 27.158 232.37 27.4491C232.73 27.7401 233.246 27.8857 233.917 27.8857C234.337 27.8857 234.738 27.8493 235.119 27.7765C235.509 27.6933 235.95 27.553 236.44 27.3555V29.1331ZM233.391 22.8025C232.32 22.8025 231.744 23.369 231.664 24.5021H234.788C234.768 23.9719 234.633 23.5561 234.383 23.2547C234.132 22.9532 233.802 22.8025 233.391 22.8025Z" fill="white"/>
<path d="M238.354 29.5229V21.2744H239.841L240.157 22.4906C240.828 21.5551 241.699 21.0873 242.771 21.0873C243.862 21.0873 244.618 21.5291 245.039 22.4127C245.349 21.9969 245.73 21.6746 246.18 21.4459C246.641 21.2069 247.132 21.0873 247.653 21.0873C248.524 21.0873 249.19 21.3784 249.65 21.9605C250.111 22.5322 250.341 23.3638 250.341 24.4553V29.5229H248.058V24.5333C248.058 23.5249 247.683 23.0208 246.931 23.0208C246.591 23.0208 246.296 23.1299 246.045 23.3482C245.795 23.5665 245.605 23.8732 245.474 24.2682V29.5229H243.221V24.5333C243.221 23.5249 242.851 23.0208 242.11 23.0208C241.769 23.0208 241.469 23.1299 241.208 23.3482C240.958 23.5665 240.768 23.8732 240.638 24.2682V29.5229H238.354Z" fill="white"/>
<path d="M255.791 29.71C254.549 29.71 253.578 29.3306 252.877 28.5717C252.186 27.8129 251.841 26.7526 251.841 25.3909C251.841 24.0291 252.186 22.974 252.877 22.2256C253.578 21.4667 254.549 21.0873 255.791 21.0873C257.043 21.0873 258.014 21.4667 258.705 22.2256C259.396 22.974 259.742 24.0291 259.742 25.3909C259.742 26.7526 259.396 27.8129 258.705 28.5717C258.014 29.3306 257.043 29.71 255.791 29.71ZM255.791 27.9168C256.893 27.9168 257.444 27.0748 257.444 25.3909C257.444 23.7173 256.893 22.8805 255.791 22.8805C254.69 22.8805 254.139 23.7173 254.139 25.3909C254.139 27.0748 254.69 27.9168 255.791 27.9168Z" fill="white"/>
<path d="M263.595 29.5229H261.312V21.2744H262.799L263.114 22.4906C263.375 22.0956 263.7 21.789 264.091 21.5707C264.481 21.342 264.932 21.2277 265.443 21.2277C265.663 21.2277 265.853 21.2432 266.013 21.2744V23.4106H265.533C265.022 23.4106 264.596 23.5509 264.256 23.8316C263.915 24.1019 263.695 24.4657 263.595 24.9231V29.5229Z" fill="white"/>
<path d="M269.452 29.3514L266.793 21.2744H269.137L271.165 27.8545L272.712 21.2744H274.965L272.982 28.868C272.752 29.7308 272.456 30.4428 272.096 31.0042C271.745 31.5655 271.3 32.0021 270.759 32.3139C270.218 32.6258 269.542 32.8545 268.731 33L268.266 31.0665C269.037 30.8794 269.592 30.6559 269.933 30.396C270.273 30.1466 270.509 29.7983 270.639 29.3514H269.452Z" fill="white"/>
<path d="M279.885 29.5229V18.1871H286.855V20.2453H282.228V23.0988H286.329V25.157H282.228V29.5229H279.885Z" fill="white"/>
<path d="M291.731 29.71C290.489 29.71 289.518 29.3306 288.817 28.5717C288.126 27.8129 287.78 26.7526 287.78 25.3909C287.78 24.0291 288.126 22.974 288.817 22.2256C289.518 21.4667 290.489 21.0873 291.731 21.0873C292.983 21.0873 293.954 21.4667 294.645 22.2256C295.336 22.974 295.682 24.0291 295.682 25.3909C295.682 26.7526 295.336 27.8129 294.645 28.5717C293.954 29.3306 292.983 29.71 291.731 29.71ZM291.731 27.9168C292.833 27.9168 293.383 27.0748 293.383 25.3909C293.383 23.7173 292.833 22.8805 291.731 22.8805C290.629 22.8805 290.079 23.7173 290.079 25.3909C290.079 27.0748 290.629 27.9168 291.731 27.9168Z" fill="white"/>
<path d="M300.797 29.71C299.555 29.71 298.584 29.3306 297.883 28.5717C297.192 27.8129 296.846 26.7526 296.846 25.3909C296.846 24.0291 297.192 22.974 297.883 22.2256C298.584 21.4667 299.555 21.0873 300.797 21.0873C302.048 21.0873 303.02 21.4667 303.711 22.2256C304.402 22.974 304.747 24.0291 304.747 25.3909C304.747 26.7526 304.402 27.8129 303.711 28.5717C303.02 29.3306 302.048 29.71 300.797 29.71ZM300.797 27.9168C301.898 27.9168 302.449 27.0748 302.449 25.3909C302.449 23.7173 301.898 22.8805 300.797 22.8805C299.695 22.8805 299.144 23.7173 299.144 25.3909C299.144 27.0748 299.695 27.9168 300.797 27.9168Z" fill="white"/>
<path d="M306.723 26.685V23.052H305.326V21.8669L306.828 21.2277L307.504 18.9044H309.006V21.2744H310.703V23.052H309.006V26.5603C309.006 26.9657 309.101 27.2568 309.291 27.4335C309.492 27.5998 309.777 27.683 310.148 27.683C310.248 27.683 310.358 27.683 310.478 27.683C310.598 27.6726 310.703 27.6622 310.794 27.6518V29.5385C310.553 29.58 310.333 29.606 310.133 29.6164C309.942 29.6268 309.727 29.632 309.487 29.632C308.575 29.632 307.884 29.3929 307.414 28.9148C306.953 28.4366 306.723 27.6933 306.723 26.685Z" fill="white"/>
<path d="M312.244 32.657V21.2744H313.731L314.046 22.4906C314.687 21.5551 315.518 21.0873 316.54 21.0873C317.581 21.0873 318.402 21.4719 319.003 22.2412C319.604 23 319.905 24.0499 319.905 25.3909C319.905 26.7526 319.609 27.8129 319.018 28.5717C318.437 29.3306 317.616 29.71 316.555 29.71C315.764 29.71 315.088 29.4345 314.527 28.8836V32.657H312.244ZM316.059 22.8181C315.749 22.8181 315.453 22.9012 315.173 23.0676C314.902 23.2235 314.677 23.4366 314.497 23.7069V27.2308C314.897 27.7297 315.413 27.9792 316.044 27.9792C316.545 27.9792 316.93 27.7609 317.201 27.3243C317.471 26.8773 317.606 26.238 317.606 25.4064C317.606 24.5748 317.471 23.9356 317.201 23.4886C316.94 23.0416 316.56 22.8181 316.059 22.8181ZM314.196 24.3773L314.287 24.1279C314.247 24.211 314.216 24.2942 314.196 24.3773Z" fill="white"/>
<path d="M323.769 29.5229H321.485V21.2744H322.972L323.288 22.4906C323.548 22.0956 323.874 21.789 324.264 21.5707C324.655 21.342 325.105 21.2277 325.616 21.2277C325.837 21.2277 326.027 21.2432 326.187 21.2744V23.4106H325.706C325.196 23.4106 324.77 23.5509 324.43 23.8316C324.089 24.1019 323.869 24.4657 323.769 24.9231V29.5229Z" fill="white"/>
<path d="M327.658 19.8243V18H330.182V19.8243H327.658ZM327.898 29.5229V22.9428L327.072 22.2256V21.2744H330.182V29.5229H327.898Z" fill="white"/>
<path d="M332.165 29.5229V21.2744H333.652L333.967 22.5374C334.698 21.5707 335.645 21.0873 336.806 21.0873C337.718 21.0873 338.413 21.3784 338.894 21.9605C339.375 22.5322 339.615 23.3638 339.615 24.4553V29.5229H337.332V24.5333C337.332 23.5249 336.926 23.0208 336.115 23.0208C335.755 23.0208 335.424 23.1299 335.124 23.3482C334.833 23.5665 334.608 23.8732 334.448 24.2682V29.5229H332.165Z" fill="white"/>
<path d="M341.929 26.685V23.052H340.532V21.8669L342.034 21.2277L342.71 18.9044H344.212V21.2744H345.91V23.052H344.212V26.5603C344.212 26.9657 344.308 27.2568 344.498 27.4335C344.698 27.5998 344.984 27.683 345.354 27.683C345.454 27.683 345.564 27.683 345.685 27.683C345.805 27.6726 345.91 27.6622 346 27.6518V29.5385C345.76 29.58 345.539 29.606 345.339 29.6164C345.149 29.6268 344.933 29.632 344.693 29.632C343.782 29.632 343.091 29.3929 342.62 28.9148C342.16 28.4366 341.929 27.6933 341.929 26.685Z" fill="white"/>
<path d="M252.291 186.895H251.184V180.182H249V179.145H254.471V180.182H252.291V186.895Z" fill="white"/>
<path d="M254.787 189C254.698 189 254.431 188.989 254.352 188.973V188.033C254.431 188.055 254.609 188.055 254.698 188.055C255.192 188.055 255.459 187.829 255.622 187.249C255.622 187.238 255.716 186.905 255.716 186.9L253.838 181.245H254.994L256.309 185.842H256.329L257.643 181.245H258.77L256.823 187.19C256.378 188.56 255.864 189 254.787 189Z" fill="white"/>
<path d="M262.106 181.154C263.425 181.154 264.295 182.281 264.295 184.07C264.295 185.858 263.43 186.991 262.126 186.991C261.379 186.991 260.786 186.594 260.49 185.966H260.465V188.764H259.398V181.245H260.43V182.217H260.45C260.757 181.567 261.355 181.154 262.106 181.154ZM261.824 186.009C262.669 186.009 263.198 185.257 263.198 184.07C263.198 182.888 262.669 182.131 261.824 182.131C261.009 182.131 260.46 182.904 260.46 184.07C260.46 185.246 261.004 186.009 261.824 186.009Z" fill="white"/>
<path d="M265.689 180.332C265.348 180.332 265.071 180.031 265.071 179.666C265.071 179.295 265.348 179 265.689 179C266.03 179 266.301 179.295 266.301 179.666C266.301 180.031 266.03 180.332 265.689 180.332ZM265.155 186.895V181.245H266.222V186.895H265.155Z" fill="white"/>
<path d="M271.777 183.189H270.759C270.65 182.588 270.235 182.11 269.538 182.11C268.713 182.11 268.169 182.856 268.169 184.07C268.169 185.31 268.718 186.03 269.548 186.03C270.205 186.03 270.635 185.638 270.759 184.983H271.787C271.673 186.186 270.789 187.002 269.538 187.002C268.051 187.002 267.082 185.896 267.082 184.07C267.082 182.276 268.051 181.143 269.528 181.143C270.868 181.143 271.683 182.077 271.777 183.189Z" fill="white"/>
<path d="M274.065 186.991C273.047 186.991 272.335 186.304 272.335 185.289C272.335 184.301 273.032 183.694 274.268 183.619L275.691 183.527V183.092C275.691 182.464 275.3 182.088 274.648 182.088C274.03 182.088 273.645 182.41 273.551 182.915H272.543C272.602 181.895 273.403 181.143 274.688 181.143C275.948 181.143 276.753 181.868 276.753 183.001V186.895H275.73V185.966H275.706C275.404 186.594 274.747 186.991 274.065 186.991ZM274.362 186.073C275.108 186.073 275.691 185.515 275.691 184.779V184.333L274.411 184.419C273.773 184.467 273.413 184.773 273.413 185.257C273.413 185.751 273.788 186.073 274.362 186.073Z" fill="white"/>
<path d="M277.831 186.895V179.145H278.898V186.895H277.831Z" fill="white"/>
<path d="M281.858 184.768H282.936C283.034 185.536 283.707 185.998 284.655 185.998C285.56 185.998 286.207 185.493 286.207 184.8C286.207 184.199 285.832 183.823 284.878 183.597L284.102 183.42C282.674 183.092 282.026 182.373 282.026 181.256C282.026 179.929 283.099 179.016 284.616 179.016C286.128 179.016 287.161 179.945 287.195 181.299H286.123C286.054 180.52 285.466 180.042 284.601 180.042C283.766 180.042 283.153 180.482 283.153 181.191C283.153 181.755 283.519 182.131 284.443 182.346L285.224 182.523C286.716 182.867 287.329 183.517 287.329 184.644C287.329 186.105 286.271 187.024 284.611 187.024C283 187.024 281.927 186.148 281.858 184.768Z" fill="white"/>
<path d="M288.718 189C288.629 189 288.362 188.989 288.283 188.973V188.033C288.362 188.055 288.54 188.055 288.629 188.055C289.123 188.055 289.39 187.829 289.553 187.249C289.553 187.238 289.647 186.905 289.647 186.9L287.769 181.245H288.925L290.24 185.842H290.259L291.574 181.245H292.701L290.754 187.19C290.309 188.56 289.795 189 288.718 189Z" fill="white"/>
<path d="M293.225 182.845C293.225 181.836 294.035 181.143 295.231 181.143C296.442 181.143 297.227 181.873 297.262 182.915H296.259C296.199 182.367 295.829 182.024 295.231 182.024C294.653 182.024 294.267 182.33 294.267 182.781C294.267 183.135 294.504 183.377 295.068 183.517L295.913 183.726C296.975 183.995 297.381 184.446 297.381 185.262C297.381 186.293 296.496 187.002 295.27 187.002C293.971 187.002 293.19 186.309 293.091 185.235H294.149C294.247 185.826 294.618 186.116 295.27 186.116C295.913 186.116 296.308 185.826 296.308 185.364C296.308 184.999 296.115 184.784 295.547 184.644L294.702 184.43C293.714 184.183 293.225 183.667 293.225 182.845Z" fill="white"/>
<path d="M298.522 179.908H299.595V181.245H300.583V182.163H299.595V185.278C299.595 185.767 299.792 185.987 300.227 185.987C300.336 185.987 300.509 185.976 300.578 185.96V186.879C300.459 186.911 300.222 186.932 299.985 186.932C298.932 186.932 298.522 186.497 298.522 185.407V182.163H297.766V181.245H298.522V179.908Z" fill="white"/>
<path d="M304.779 185.235H305.792C305.643 186.266 304.744 187.002 303.553 187.002C302.026 187.002 301.102 185.88 301.102 184.097C301.102 182.324 302.041 181.143 303.508 181.143C304.951 181.143 305.851 182.249 305.851 183.962V184.36H302.179V184.43C302.179 185.412 302.723 186.062 303.578 186.062C304.186 186.062 304.635 185.729 304.779 185.235ZM303.508 182.077C302.762 182.077 302.238 182.695 302.184 183.549H304.783C304.759 182.684 304.255 182.077 303.508 182.077Z" fill="white"/>
<path d="M306.681 186.895V181.245H307.699V182.195H307.724C307.956 181.567 308.5 181.148 309.201 181.148C309.923 181.148 310.447 181.551 310.654 182.255H310.679C310.946 181.567 311.559 181.148 312.3 181.148C313.328 181.148 314 181.889 314 183.012V186.895H312.928V183.291C312.928 182.561 312.567 182.142 311.934 182.142C311.302 182.142 310.862 182.652 310.862 183.366V186.895H309.814V183.205C309.814 182.555 309.434 182.142 308.831 182.142C308.198 182.142 307.749 182.679 307.749 183.404V186.895H306.681Z" fill="white"/>
<path d="M346.37 183.652C346.37 185.75 345.234 187 343.31 187C341.279 187 340 185.449 340 182.965C340 180.524 341.274 179 343.296 179C344.875 179 346.07 180.019 346.316 181.565H345.185C344.919 180.604 344.225 180.052 343.301 180.052C341.943 180.052 341.126 181.135 341.126 182.954C341.126 184.805 341.968 185.948 343.32 185.948C344.471 185.948 345.268 185.144 345.283 183.968V183.834H343.448V182.863H346.37V183.652Z" fill="white"/>
<path d="M347.319 186.871V181.227H348.333V182.187H348.357C348.529 181.527 348.992 181.135 349.602 181.135C349.754 181.135 349.887 181.162 349.966 181.178V182.257C349.882 182.219 349.695 182.192 349.489 182.192C348.805 182.192 348.382 182.691 348.382 183.491V186.871H347.319Z" fill="white"/>
<path d="M352.032 186.968C351.018 186.968 350.31 186.281 350.31 185.267C350.31 184.28 351.004 183.673 352.233 183.598L353.65 183.507V183.072C353.65 182.445 353.261 182.069 352.612 182.069C351.997 182.069 351.614 182.391 351.52 182.895H350.517C350.576 181.876 351.373 181.125 352.651 181.125C353.906 181.125 354.708 181.849 354.708 182.981V186.871H353.689V185.943H353.665C353.365 186.571 352.71 186.968 352.032 186.968ZM352.327 186.05C353.07 186.05 353.65 185.492 353.65 184.757V184.312L352.376 184.398C351.741 184.446 351.382 184.752 351.382 185.235C351.382 185.728 351.756 186.05 352.327 186.05Z" fill="white"/>
<path d="M357.256 186.968C356.242 186.968 355.534 186.281 355.534 185.267C355.534 184.28 356.227 183.673 357.457 183.598L358.874 183.507V183.072C358.874 182.445 358.485 182.069 357.836 182.069C357.221 182.069 356.837 182.391 356.744 182.895H355.74C355.8 181.876 356.596 181.125 357.875 181.125C359.13 181.125 359.931 181.849 359.931 182.981V186.871H358.913V185.943H358.889C358.589 186.571 357.934 186.968 357.256 186.968ZM357.551 186.05C358.293 186.05 358.874 185.492 358.874 184.757V184.312L357.6 184.398C356.965 184.446 356.606 184.752 356.606 185.235C356.606 185.728 356.98 186.05 357.551 186.05Z" fill="white"/>
<path d="M361.004 186.871V179.129H362.066V186.871H361.004Z" fill="white"/>
<path d="M366.498 186.871H365.293L362.76 179.129H363.955L365.888 185.519H365.918L367.856 179.129H369.031L366.498 186.871Z" fill="white"/>
<path d="M377 186.871H375.992V181.173H375.957L373.817 186.871H373.001L370.856 181.173H370.822V186.871H369.818V179.129H371.092L373.39 185.299H373.429L375.721 179.129H377V186.871Z" fill="white"/>
<rect x="201" y="44" width="234" height="0.7" fill="#D9D9D9"/>
<path d="M390 15H416V35H390V15Z" fill="white"/>
<path fill-rule="evenodd" clip-rule="evenodd" d="M396.429 10C392.878 10 390 12.8782 390 16.4286V33.5714C390 37.1218 392.878 40 396.429 40H413.571C417.122 40 420 37.1218 420 33.5714V16.4286C420 12.8782 417.122 10 413.571 10H396.429ZM396.964 15.3571C396.077 15.3571 395.357 16.0767 395.357 16.9643V19.1071C395.357 19.9948 396.077 20.7143 396.964 20.7143H409.821C410.709 20.7143 411.429 19.9948 411.429 19.1071V18.3036H414.107V24.7321H411.429V23.9286C411.429 23.0409 410.709 22.3214 409.821 22.3214H396.964C396.077 22.3214 395.357 23.0409 395.357 23.9286V26.0714C395.357 26.9591 396.077 27.6786 396.964 27.6786H409.821C410.709 27.6786 411.429 26.9591 411.429 26.0714V25.2679H414.107V31.6964H411.429V30.8929C411.429 30.0052 410.709 29.2857 409.821 29.2857H396.964C396.077 29.2857 395.357 30.0052 395.357 30.8929V33.0357C395.357 33.9233 396.077 34.6429 396.964 34.6429H409.821C410.709 34.6429 411.429 33.9233 411.429 33.0357V32.2321H414.107H414.375C414.523 32.2321 414.643 32.1122 414.643 31.9643V18.0357C414.643 17.8878 414.523 17.7679 414.375 17.7679H414.107H411.429V16.9643C411.429 16.0767 410.709 15.3571 409.821 15.3571H396.964ZM403.929 17.5C403.633 17.5 403.393 17.7398 403.393 18.0357C403.393 18.3316 403.633 18.5714 403.929 18.5714H409.286C409.582 18.5714 409.821 18.3316 409.821 18.0357C409.821 17.7398 409.582 17.5 409.286 17.5H403.929ZM397.5 18.0357C397.5 17.7398 397.74 17.5 398.036 17.5C398.332 17.5 398.571 17.7398 398.571 18.0357C398.571 18.3316 398.332 18.5714 398.036 18.5714C397.74 18.5714 397.5 18.3316 397.5 18.0357ZM403.393 25C403.393 24.7041 403.633 24.4643 403.929 24.4643H409.286C409.582 24.4643 409.821 24.7041 409.821 25C409.821 25.2959 409.582 25.5357 409.286 25.5357H403.929C403.633 25.5357 403.393 25.2959 403.393 25ZM398.036 24.4643C397.74 24.4643 397.5 24.7041 397.5 25C397.5 25.2959 397.74 25.5357 398.036 25.5357C398.332 25.5357 398.571 25.2959 398.571 25C398.571 24.7041 398.332 24.4643 398.036 24.4643ZM403.393 31.9643C403.393 31.6684 403.633 31.4286 403.929 31.4286H409.286C409.582 31.4286 409.821 31.6684 409.821 31.9643C409.821 32.2602 409.582 32.5 409.286 32.5H403.929C403.633 32.5 403.393 32.2602 403.393 31.9643ZM398.036 31.4286C397.74 31.4286 397.5 31.6684 397.5 31.9643C397.5 32.2602 397.74 32.5 398.036 32.5C398.332 32.5 398.571 32.2602 398.571 31.9643C398.571 31.6684 398.332 31.4286 398.036 31.4286Z" fill="#0F1418"/>
<path d="M270 76.9125V76.2059L271.193 74.86C271.425 74.5998 271.604 74.389 271.731 74.2275C271.862 74.0615 271.953 73.9224 272.006 73.8102C272.058 73.6936 272.085 73.5859 272.085 73.4872C272.085 73.079 271.833 72.8748 271.331 72.8748C270.977 72.8748 270.575 72.9982 270.125 73.245V72.3432C270.33 72.2355 270.551 72.1525 270.787 72.0942C271.027 72.0314 271.261 72 271.488 72C271.995 72 272.388 72.1189 272.668 72.3567C272.948 72.5944 273.088 72.9332 273.088 73.3728C273.088 73.5523 273.053 73.7317 272.983 73.9112C272.913 74.0906 272.797 74.2925 272.635 74.5168C272.478 74.7367 272.264 75.0013 271.993 75.3109L271.331 76.0579H273.101V76.9125H270Z" fill="white"/>
<path d="M275.456 77C274.858 77 274.403 76.7847 274.093 76.354C273.783 75.9233 273.627 75.2952 273.627 74.4697C273.627 72.8232 274.237 72 275.456 72C276.676 72 277.285 72.8232 277.285 74.4697C277.285 75.2952 277.13 75.9233 276.82 76.354C276.51 76.7847 276.055 77 275.456 77ZM275.456 76.1454C275.732 76.1454 275.935 76.0085 276.066 75.7349C276.197 75.4612 276.263 75.0395 276.263 74.4697C276.263 73.9089 276.197 73.5007 276.066 73.245C275.939 72.9847 275.736 72.8546 275.456 72.8546C275.177 72.8546 274.971 72.9847 274.84 73.245C274.713 73.5007 274.65 73.9089 274.65 74.4697C274.65 75.0395 274.716 75.4612 274.847 75.7349C274.978 76.0085 275.181 76.1454 275.456 76.1454Z" fill="white"/>
<path d="M279.694 77C279.096 77 278.641 76.7847 278.331 76.354C278.02 75.9233 277.865 75.2952 277.865 74.4697C277.865 72.8232 278.475 72 279.694 72C280.914 72 281.523 72.8232 281.523 74.4697C281.523 75.2952 281.368 75.9233 281.058 76.354C280.747 76.7847 280.293 77 279.694 77ZM279.694 76.1454C279.97 76.1454 280.173 76.0085 280.304 75.7349C280.435 75.4612 280.501 75.0395 280.501 74.4697C280.501 73.9089 280.435 73.5007 280.304 73.245C280.177 72.9847 279.974 72.8546 279.694 72.8546C279.415 72.8546 279.209 72.9847 279.078 73.245C278.951 73.5007 278.888 73.9089 278.888 74.4697C278.888 75.0395 278.953 75.4612 279.085 75.7349C279.216 76.0085 279.419 76.1454 279.694 76.1454Z" fill="white"/>
<path d="M282.28 76.9125V72.0202H283.349L284.863 75.2436L286.358 72.0202H287.426V76.9125H286.417V73.7429L285.158 76.4415H284.529L283.27 73.7833V76.9125H282.28Z" fill="white"/>
<path d="M288.355 76.9125V72.0202H290.027C290.634 72.0202 291.08 72.1256 291.364 72.3365C291.653 72.5473 291.797 72.8748 291.797 73.319C291.797 73.5388 291.74 73.7362 291.626 73.9112C291.513 74.0861 291.355 74.2252 291.154 74.3284C291.718 74.5079 292 74.8914 292 75.4791C292 76.4347 291.355 76.9125 290.066 76.9125H288.355ZM289.339 74.0458H289.837C290.182 74.0458 290.425 74.0009 290.564 73.9112C290.709 73.817 290.781 73.6599 290.781 73.4401C290.781 73.2113 290.711 73.052 290.571 72.9623C290.431 72.8681 290.186 72.821 289.837 72.821H289.339V74.0458ZM289.339 76.105H289.988C290.324 76.105 290.571 76.0511 290.728 75.9435C290.886 75.8358 290.964 75.6676 290.964 75.4388C290.964 75.2144 290.886 75.0507 290.728 74.9475C290.571 74.8443 290.324 74.7927 289.988 74.7927H289.339V76.105Z" fill="white"/>
<path d="M347 165.993V165.182L349.289 162.068H350.214V165.115H350.88V165.993H350.214V166.912H349.229V165.993H347ZM349.256 164.858V163.466L348.071 165.115H349.236L349.256 164.858Z" fill="white"/>
<path d="M351.404 166.912V165.926H352.509V166.912H351.404Z" fill="white"/>
<path d="M353.21 166.696V165.797C353.405 165.896 353.623 165.975 353.862 166.034C354.106 166.088 354.341 166.115 354.568 166.115C354.852 166.115 355.076 166.047 355.24 165.912C355.404 165.777 355.486 165.592 355.486 165.358C355.486 165.133 355.417 164.957 355.28 164.831C355.147 164.705 354.956 164.642 354.707 164.642C354.419 164.642 354.124 164.709 353.822 164.845L353.237 164.378L353.516 162.068H356.145V162.926H354.262L354.142 163.98C354.368 163.899 354.599 163.858 354.834 163.858C355.326 163.858 355.715 163.993 355.998 164.264C356.282 164.529 356.424 164.896 356.424 165.365C356.424 165.694 356.351 165.982 356.205 166.23C356.058 166.473 355.85 166.662 355.579 166.797C355.313 166.932 355 167 354.641 167C354.366 167 354.102 166.973 353.849 166.919C353.6 166.865 353.387 166.791 353.21 166.696Z" fill="white"/>
<path d="M357.132 166.912V162H358.217L359.754 165.236L361.272 162H362.356V166.912H361.332V163.73L360.054 166.439H359.415L358.137 163.77V166.912H357.132Z" fill="white"/>
<path d="M363.3 166.912V162H364.997C365.614 162 366.066 162.106 366.354 162.318C366.647 162.529 366.794 162.858 366.794 163.304C366.794 163.525 366.736 163.723 366.621 163.899C366.505 164.074 366.346 164.214 366.142 164.318C366.714 164.498 367 164.883 367 165.473C367 166.432 366.346 166.912 365.037 166.912H363.3ZM364.298 164.034H364.804C365.154 164.034 365.401 163.989 365.543 163.899C365.689 163.804 365.762 163.646 365.762 163.426C365.762 163.196 365.691 163.036 365.549 162.946C365.407 162.851 365.159 162.804 364.804 162.804H364.298V164.034ZM364.298 166.101H364.957C365.299 166.101 365.549 166.047 365.709 165.939C365.869 165.831 365.949 165.662 365.949 165.432C365.949 165.207 365.869 165.043 365.709 164.939C365.549 164.836 365.299 164.784 364.957 164.784H364.298V166.101Z" fill="white"/>
<g filter="url(#filter1_d_1152_19197)">
<path d="M6 57.3532C6 55.5013 7.50201 54 9.35484 54H236.645C238.498 54 240 55.5013 240 57.3532V247.647C240 249.499 238.498 251 236.645 251H9.35484C7.50202 251 6 249.499 6 247.647V57.3532Z" fill="white"/>
<path d="M6 57.3532C6 55.5013 7.50201 54 9.35484 54H236.645C238.498 54 240 55.5013 240 57.3532V247.647C240 249.499 238.498 251 236.645 251H9.35484C7.50202 251 6 249.499 6 247.647V57.3532Z" fill="url(#paint1_linear_1152_19197)"/>
<path fill-rule="evenodd" clip-rule="evenodd" d="M236.645 54.8383H9.35484C7.96522 54.8383 6.83871 55.9643 6.83871 57.3532V247.647C6.83871 249.036 7.96522 250.162 9.35484 250.162H236.645C238.035 250.162 239.161 249.036 239.161 247.647V57.3532C239.161 55.9643 238.035 54.8383 236.645 54.8383ZM9.35484 54C7.50201 54 6 55.5013 6 57.3532V247.647C6 249.499 7.50202 251 9.35484 251H236.645C238.498 251 240 249.499 240 247.647V57.3532C240 55.5013 238.498 54 236.645 54H9.35484Z" fill="#C8CEDA"/>
</g>
<path d="M46 203.5C46 201.015 47.8838 199 50.2077 199H195.792C198.116 199 200 201.015 200 203.5V203.5C200 205.985 198.116 208 195.792 208H50.2077C47.8838 208 46 205.985 46 203.5V203.5Z" fill="#E1EEF3"/>
<path fill-rule="evenodd" clip-rule="evenodd" d="M195.792 199.36H50.2077C48.0697 199.36 46.3366 201.214 46.3366 203.5C46.3366 205.786 48.0697 207.64 50.2077 207.64H195.792C197.93 207.64 199.663 205.786 199.663 203.5C199.663 201.214 197.93 199.36 195.792 199.36ZM50.2077 199C47.8838 199 46 201.015 46 203.5C46 205.985 47.8838 208 50.2077 208H195.792C198.116 208 200 205.985 200 203.5C200 201.015 198.116 199 195.792 199H50.2077Z" fill="#C8CEDA"/>
<path d="M46 203.5C46 201.015 47.8655 199 50.1667 199H51.8333C54.1345 199 56 201.015 56 203.5V203.5C56 205.985 54.1345 208 51.8333 208H50.1667C47.8655 208 46 205.985 46 203.5V203.5Z" fill="#0BD3FF"/>
<path d="M49.2913 142.105H48.1843V136.063H46V135.131H51.4706V136.063H49.2913V142.105Z" fill="white"/>
<path d="M51.7869 144C51.6979 144 51.4311 143.99 51.352 143.976V143.13C51.4311 143.149 51.609 143.149 51.6979 143.149C52.1921 143.149 52.459 142.946 52.6221 142.424C52.6221 142.415 52.716 142.115 52.716 142.11L50.8381 137.02H51.9945L53.309 141.158H53.3287L54.6433 137.02H55.77L53.8229 142.371C53.3782 143.604 52.8642 144 51.7869 144Z" fill="white"/>
<path d="M59.1058 136.938C60.4252 136.938 61.295 137.953 61.295 139.563C61.295 141.172 60.4302 142.192 59.1255 142.192C58.3793 142.192 57.7863 141.835 57.4898 141.269H57.4651V143.787H56.3976V137.02H57.4305V137.895H57.4502C57.7566 137.31 58.3546 136.938 59.1058 136.938ZM58.8241 141.308C59.6691 141.308 60.1979 140.631 60.1979 139.563C60.1979 138.499 59.6691 137.818 58.8241 137.818C58.0087 137.818 57.4601 138.514 57.4601 139.563C57.4601 140.621 58.0037 141.308 58.8241 141.308Z" fill="white"/>
<path d="M62.6886 136.199C62.3476 136.199 62.0709 135.928 62.0709 135.599C62.0709 135.266 62.3476 135 62.6886 135C63.0296 135 63.3014 135.266 63.3014 135.599C63.3014 135.928 63.0296 136.199 62.6886 136.199ZM62.1549 142.105V137.02H63.2223V142.105H62.1549Z" fill="white"/>
<path d="M68.7769 138.77H67.7589C67.6502 138.229 67.2351 137.799 66.5383 137.799C65.713 137.799 65.1694 138.47 65.1694 139.563C65.1694 140.679 65.7179 141.327 66.5482 141.327C67.2054 141.327 67.6354 140.974 67.7589 140.385H68.7868C68.6732 141.467 67.7886 142.202 66.5383 142.202C65.0508 142.202 64.0822 141.206 64.0822 139.563C64.0822 137.948 65.0508 136.929 66.5284 136.929C67.8676 136.929 68.683 137.77 68.7769 138.77Z" fill="white"/>
<path d="M71.065 142.192C70.047 142.192 69.3354 141.574 69.3354 140.66C69.3354 139.771 70.0322 139.224 71.2676 139.157L72.6909 139.075V138.683C72.6909 138.118 72.3005 137.779 71.6481 137.779C71.0304 137.779 70.6449 138.069 70.5511 138.524H69.5429C69.6022 137.605 70.4028 136.929 71.6877 136.929C72.9478 136.929 73.7534 137.581 73.7534 138.601V142.105H72.7304V141.269H72.7057C72.4042 141.835 71.747 142.192 71.065 142.192ZM71.3615 141.366C72.1077 141.366 72.6909 140.863 72.6909 140.201V139.8L71.4109 139.877C70.7734 139.921 70.4127 140.196 70.4127 140.631C70.4127 141.076 70.7883 141.366 71.3615 141.366Z" fill="white"/>
<path d="M74.8307 142.105V135.131H75.8981V142.105H74.8307Z" fill="white"/>
<path d="M78.8583 140.191H79.9356C80.0344 140.882 80.7065 141.298 81.6554 141.298C82.5597 141.298 83.2071 140.844 83.2071 140.22C83.2071 139.679 82.8315 139.34 81.8777 139.137L81.1019 138.978C79.6737 138.683 79.0263 138.035 79.0263 137.03C79.0263 135.836 80.0987 135.015 81.6158 135.015C83.128 135.015 84.1609 135.851 84.1955 137.069H83.1231C83.0539 136.368 82.4658 135.938 81.601 135.938C80.7658 135.938 80.153 136.334 80.153 136.972C80.153 137.48 80.5187 137.818 81.4429 138.011L82.2237 138.171C83.7161 138.48 84.3289 139.065 84.3289 140.08C84.3289 141.395 83.2713 142.221 81.6109 142.221C79.9998 142.221 78.9275 141.433 78.8583 140.191Z" fill="white"/>
<path d="M85.7176 144C85.6286 144 85.3617 143.99 85.2827 143.976V143.13C85.3617 143.149 85.5396 143.149 85.6286 143.149C86.1228 143.149 86.3896 142.946 86.5527 142.424C86.5527 142.415 86.6466 142.115 86.6466 142.11L84.7687 137.02H85.9251L87.2396 141.158H87.2594L88.5739 137.02H89.7007L87.7536 142.371C87.3088 143.604 86.7949 144 85.7176 144Z" fill="white"/>
<path d="M90.2245 138.461C90.2245 137.552 91.035 136.929 92.2309 136.929C93.4416 136.929 94.2274 137.586 94.262 138.524H93.2588C93.1995 138.031 92.8289 137.721 92.2309 137.721C91.6527 137.721 91.2672 137.997 91.2672 138.403C91.2672 138.722 91.5044 138.939 92.0678 139.065L92.9129 139.253C93.9754 139.495 94.3806 139.901 94.3806 140.636C94.3806 141.564 93.496 142.202 92.2704 142.202C90.9707 142.202 90.1899 141.578 90.0911 140.612H91.1486C91.2475 141.143 91.6181 141.404 92.2704 141.404C92.9129 141.404 93.3082 141.143 93.3082 140.728C93.3082 140.399 93.1155 140.206 92.5472 140.08L91.7021 139.887C90.7138 139.664 90.2245 139.2 90.2245 138.461Z" fill="white"/>
<path d="M95.5222 135.817H96.5945V137.02H97.5829V137.847H96.5945V140.65C96.5945 141.09 96.7922 141.288 97.2271 141.288C97.3358 141.288 97.5088 141.279 97.578 141.264V142.091C97.4594 142.12 97.2222 142.139 96.9849 142.139C95.9323 142.139 95.5222 141.748 95.5222 140.766V137.847H94.7661V137.02H95.5222V135.817Z" fill="white"/>
<path d="M101.779 140.612H102.792C102.643 141.54 101.744 142.202 100.553 142.202C99.0259 142.202 98.1018 141.192 98.1018 139.587C98.1018 137.992 99.0408 136.929 100.508 136.929C101.951 136.929 102.851 137.924 102.851 139.466V139.824H99.1791V139.887C99.1791 140.771 99.7227 141.356 100.578 141.356C101.186 141.356 101.635 141.056 101.779 140.612ZM100.508 137.77C99.7623 137.77 99.2384 138.325 99.1841 139.094H101.783C101.759 138.316 101.255 137.77 100.508 137.77Z" fill="white"/>
<path d="M103.681 142.105V137.02H104.699V137.876H104.724C104.956 137.31 105.5 136.933 106.201 136.933C106.923 136.933 107.447 137.296 107.654 137.929H107.679C107.946 137.31 108.559 136.933 109.3 136.933C110.328 136.933 111 137.6 111 138.611V142.105H109.928V138.862C109.928 138.205 109.567 137.828 108.934 137.828C108.302 137.828 107.862 138.287 107.862 138.93V142.105H106.814V138.785C106.814 138.2 106.434 137.828 105.831 137.828C105.198 137.828 104.749 138.311 104.749 138.963V142.105H103.681Z" fill="white"/>
<path d="M186.893 144V138.077H186.868L185 139.338V138.31L186.883 137H187.979V144H186.893Z" fill="#CFD7DF"/>
<path d="M191.651 142.123H191.626L190.471 144H189.312L191.031 141.453L189.336 138.897H190.536L191.676 140.745H191.695L192.82 138.897H194L192.29 141.419L193.98 144H192.801L191.651 142.123Z" fill="#CFD7DF"/>
<path d="M46 158.5C46 156.015 47.8838 154 50.2077 154H195.792C198.116 154 200 156.015 200 158.5V158.5C200 160.985 198.116 163 195.792 163H50.2077C47.8838 163 46 160.985 46 158.5V158.5Z" fill="#E1EEF3"/>
<path fill-rule="evenodd" clip-rule="evenodd" d="M195.792 154.36H50.2077C48.0697 154.36 46.3366 156.214 46.3366 158.5C46.3366 160.786 48.0697 162.64 50.2077 162.64H195.792C197.93 162.64 199.663 160.786 199.663 158.5C199.663 156.214 197.93 154.36 195.792 154.36ZM50.2077 154C47.8838 154 46 156.015 46 158.5C46 160.985 47.8838 163 50.2077 163H195.792C198.116 163 200 160.985 200 158.5C200 156.015 198.116 154 195.792 154H50.2077Z" fill="#C8CEDA"/>
<path d="M46 158.5C46 156.015 47.8942 154 50.2308 154H195.769C198.106 154 200 156.015 200 158.5V158.5C200 160.985 198.106 163 195.769 163H50.2308C47.8942 163 46 160.985 46 158.5V158.5Z" fill="#F29111"/>
<path d="M53.37 184.652C53.37 186.75 52.2337 188 50.3104 188C48.2789 188 47 186.449 47 183.965C47 181.524 48.274 180 50.2957 180C51.8746 180 53.0699 181.019 53.3159 182.565H52.1845C51.9189 181.604 51.2253 181.052 50.3006 181.052C48.943 181.052 48.1264 182.135 48.1264 183.954C48.1264 185.805 48.9676 186.948 50.3203 186.948C51.4713 186.948 52.2681 186.144 52.2829 184.968V184.834H50.4482V183.863H53.37V184.652Z" fill="white"/>
<path d="M54.3193 187.871V182.227H55.3326V183.187H55.3572C55.5294 182.527 55.9918 182.135 56.6017 182.135C56.7542 182.135 56.887 182.162 56.9657 182.178V183.257C56.8821 183.219 56.6952 183.192 56.4886 183.192C55.8048 183.192 55.3818 183.691 55.3818 184.491V187.871H54.3193Z" fill="white"/>
<path d="M59.0316 187.968C58.0183 187.968 57.31 187.281 57.31 186.267C57.31 185.28 58.0036 184.673 59.2333 184.598L60.65 184.507V184.072C60.65 183.445 60.2614 183.069 59.6121 183.069C58.9972 183.069 58.6135 183.391 58.5201 183.895H57.5166C57.5756 182.876 58.3725 182.125 59.6514 182.125C60.9057 182.125 61.7075 182.849 61.7075 183.981V187.871H60.6893V186.943H60.6647C60.3647 187.571 59.7104 187.968 59.0316 187.968ZM59.3268 187.05C60.0695 187.05 60.65 186.492 60.65 185.757V185.312L59.376 185.398C58.7414 185.446 58.3823 185.752 58.3823 186.235C58.3823 186.728 58.7562 187.05 59.3268 187.05Z" fill="white"/>
<path d="M64.2555 187.968C63.2422 187.968 62.5339 187.281 62.5339 186.267C62.5339 185.28 63.2275 184.673 64.4572 184.598L65.8738 184.507V184.072C65.8738 183.445 65.4852 183.069 64.8359 183.069C64.2211 183.069 63.8374 183.391 63.744 183.895H62.7405C62.7995 182.876 63.5964 182.125 64.8753 182.125C66.1296 182.125 66.9314 182.849 66.9314 183.981V187.871H65.9132V186.943H65.8886C65.5885 187.571 64.9343 187.968 64.2555 187.968ZM64.5507 187.05C65.2934 187.05 65.8738 186.492 65.8738 185.757V185.312L64.5998 185.398C63.9653 185.446 63.6062 185.752 63.6062 186.235C63.6062 186.728 63.9801 187.05 64.5507 187.05Z" fill="white"/>
<path d="M68.0037 187.871V180.129H69.0662V187.871H68.0037Z" fill="white"/>
<path d="M73.4981 187.871H72.293L69.7598 180.129H70.9551L72.8882 186.519H72.9177L74.8558 180.129H76.0314L73.4981 187.871Z" fill="white"/>
<path d="M84 187.871H82.9916V182.173H82.9572L80.8175 187.871H80.0009L77.8563 182.173H77.8219V187.871H76.8184V180.129H78.0924L80.3895 186.299H80.4289L82.7211 180.129H84V187.871Z" fill="white"/>
<path d="M178.835 188.874V183.164H178.811L177 184.38V183.389L178.825 182.126H179.887V188.874H178.835Z" fill="#CFD7DF"/>
<path d="M184.114 189C182.442 189 181.457 187.644 181.457 185.493C181.457 183.356 182.457 182 184.114 182C185.771 182 186.76 183.351 186.76 185.488C186.76 187.639 185.78 189 184.114 189ZM184.114 188.121C185.113 188.121 185.675 187.13 185.675 185.493C185.675 183.88 185.103 182.879 184.114 182.879C183.124 182.879 182.548 183.884 182.548 185.493C182.548 187.125 183.11 188.121 184.114 188.121Z" fill="#CFD7DF"/>
<path d="M190.252 189C188.581 189 187.596 187.644 187.596 185.493C187.596 183.356 188.595 182 190.252 182C191.909 182 192.899 183.351 192.899 185.488C192.899 187.639 191.919 189 190.252 189ZM190.252 188.121C191.251 188.121 191.813 187.13 191.813 185.493C191.813 183.88 191.242 182.879 190.252 182.879C189.263 182.879 188.686 183.884 188.686 185.493C188.686 187.125 189.248 188.121 190.252 188.121Z" fill="#CFD7DF"/>
<path d="M195.723 187.064H195.699L194.58 188.874H193.456L195.123 186.419L193.48 183.955H194.642L195.747 185.736H195.766L196.857 183.955H198L196.343 186.386L197.981 188.874H196.838L195.723 187.064Z" fill="#CFD7DF"/>
<path d="M20.1514 78.6263V76.5605C21.3125 76.9866 22.4282 77.1996 23.4984 77.1996C24.1345 77.1996 24.6342 77.0955 24.9977 76.8875C25.3612 76.6794 25.5429 76.3921 25.5429 76.0255C25.5429 75.7679 25.4268 75.5548 25.1946 75.3864C24.9624 75.2081 24.5131 75.0099 23.8467 74.7919L22.6957 74.4055C21.7568 74.0885 21.0702 73.6822 20.6361 73.1868C20.212 72.6815 20 72.0375 20 71.2548C20 70.581 20.1716 70.0014 20.5149 69.5159C20.8683 69.0304 21.363 68.6589 21.9991 68.4013C22.6352 68.1338 23.3924 68 24.2708 68C24.8261 68 25.3713 68.0545 25.9064 68.1635C26.4516 68.2626 26.9261 68.4013 27.33 68.5796V70.6454C26.8151 70.4473 26.29 70.2987 25.7549 70.1996C25.2198 70.0906 24.7251 70.0361 24.2708 70.0361C23.0188 70.0361 22.3928 70.3977 22.3928 71.121C22.3928 71.3984 22.509 71.6263 22.7412 71.8047C22.9835 71.9731 23.4328 72.1663 24.089 72.3843L25.24 72.7707C26.2295 73.1076 26.9312 73.5188 27.3451 74.0042C27.7591 74.4798 27.966 75.1288 27.966 75.9512C27.966 76.9618 27.5975 77.7594 26.8605 78.3439C26.1336 78.9285 25.1037 79.2208 23.771 79.2208C23.3369 79.2208 22.8825 79.196 22.408 79.1465C21.9436 79.097 21.5094 79.0276 21.1056 78.9384C20.7118 78.8493 20.3938 78.7452 20.1514 78.6263Z" fill="white"/>
<path d="M29.6919 76.3079V72.845H28.2835V71.7155L29.7979 71.1062L30.4795 68.8917H31.9939V71.1507H33.7052V72.845H31.9939V76.189C31.9939 76.5754 32.0898 76.8528 32.2817 77.0212C32.4836 77.1798 32.7713 77.259 33.1449 77.259C33.2459 77.259 33.3569 77.259 33.4781 77.259C33.5992 77.2491 33.7052 77.2392 33.7961 77.2293V79.0276C33.5538 79.0672 33.3317 79.092 33.1298 79.1019C32.9379 79.1118 32.7208 79.1168 32.4785 79.1168C31.5598 79.1168 30.8631 78.8889 30.3886 78.4331C29.9242 77.9774 29.6919 77.2689 29.6919 76.3079Z" fill="white"/>
<path d="M40.4339 79.0127L40.131 77.913C39.8584 78.3093 39.5 78.6214 39.0558 78.8493C38.6216 79.0771 38.137 79.1911 37.6019 79.1911C36.774 79.1911 36.1177 78.9682 35.6331 78.5223C35.1586 78.0764 34.9213 77.4621 34.9213 76.6794C34.9213 75.857 35.2393 75.2081 35.8754 74.7325C36.5115 74.2569 37.3697 74.0191 38.45 74.0191H39.7676V73.7367C39.7676 73.3008 39.6565 73.0184 39.4344 72.8896C39.2123 72.7608 38.8639 72.6964 38.3894 72.6964C37.5413 72.6964 36.6276 72.8846 35.6482 73.2611V71.552C36.0521 71.3836 36.5216 71.2449 37.0567 71.1359C37.6019 71.0269 38.1522 70.9724 38.7075 70.9724C39.7575 70.9724 40.5551 71.2102 41.1003 71.6858C41.6556 72.1515 41.9332 72.8252 41.9332 73.707V79.0127H40.4339ZM38.1925 77.5414C38.5257 77.5414 38.8337 77.4572 39.1164 77.2887C39.3991 77.1203 39.6313 76.8924 39.813 76.6051V75.327H38.7377C38.2127 75.327 37.8038 75.426 37.511 75.6242C37.2283 75.8224 37.087 76.1047 37.087 76.4713C37.087 77.1847 37.4555 77.5414 38.1925 77.5414Z" fill="white"/>
<path d="M46.1528 79.0127H43.8508V71.1507H45.3501L45.6682 72.31C45.9307 71.9335 46.2588 71.6412 46.6526 71.4331C47.0463 71.2151 47.5007 71.1062 48.0156 71.1062C48.2377 71.1062 48.4295 71.121 48.5911 71.1507V73.1868H48.1064C47.5915 73.1868 47.1624 73.3206 46.8191 73.5881C46.4759 73.8457 46.2537 74.1925 46.1528 74.6285V79.0127Z" fill="white"/>
<path d="M50.9298 76.3079V72.845H49.5214V71.7155L51.0358 71.1062L51.7174 68.8917H53.2318V71.1507H54.9431V72.845H53.2318V76.189C53.2318 76.5754 53.3277 76.8528 53.5196 77.0212C53.7215 77.1798 54.0092 77.259 54.3828 77.259C54.4838 77.259 54.5948 77.259 54.716 77.259C54.8371 77.2491 54.9431 77.2392 55.034 77.2293V79.0276C54.7917 79.0672 54.5696 79.092 54.3677 79.1019C54.1758 79.1118 53.9587 79.1168 53.7164 79.1168C52.7977 79.1168 52.101 78.8889 51.6265 78.4331C51.162 77.9774 50.9298 77.2689 50.9298 76.3079Z" fill="white"/>
<path d="M56.4202 75.9809V71.1507H58.7222V75.9066C58.7222 76.8677 59.1058 77.3482 59.8732 77.3482C60.2165 77.3482 60.5294 77.2442 60.8121 77.0361C61.1049 76.8181 61.3321 76.5258 61.4936 76.1592V71.1507H63.7956V79.0127H62.2963L61.9783 77.8089C61.2412 78.7304 60.3073 79.1911 59.1765 79.1911C58.288 79.1911 57.6065 78.9137 57.132 78.3588C56.6575 77.804 56.4202 77.0113 56.4202 75.9809Z" fill="white"/>
<path d="M65.7986 82V71.1507H67.2979L67.616 72.31C68.2621 71.4183 69.1001 70.9724 70.13 70.9724C71.18 70.9724 72.0079 71.339 72.6137 72.0722C73.2195 72.7955 73.5223 73.7962 73.5223 75.0743C73.5223 76.3723 73.2245 77.3829 72.6288 78.1062C72.0432 78.8294 71.2153 79.1911 70.1451 79.1911C69.3475 79.1911 68.666 78.9285 68.1006 78.4034V82H65.7986ZM69.6453 72.6221C69.3323 72.6221 69.0345 72.7013 68.7518 72.8599C68.4792 73.0085 68.252 73.2116 68.0703 73.4692V76.828C68.4742 77.3036 68.9941 77.5414 69.6302 77.5414C70.135 77.5414 70.5237 77.3333 70.7963 76.9172C71.0689 76.4912 71.2052 75.8818 71.2052 75.0892C71.2052 74.2965 71.0689 73.6872 70.7963 73.2611C70.5338 72.8351 70.1502 72.6221 69.6453 72.6221ZM67.7674 74.1083L67.8583 73.8705C67.8179 73.9498 67.7876 74.029 67.7674 74.1083Z" fill="white"/>
<path d="M81.5846 79.0127V70.1699H78.3285V68.2081H87.2032V70.1699H83.9471V79.0127H81.5846Z" fill="white"/>
<path d="M88.4235 69.7686V68.0297H90.9678V69.7686H88.4235ZM88.6659 79.0127V72.741L87.8329 72.0573V71.1507H90.9678V79.0127H88.6659Z" fill="white"/>
<path d="M92.9671 79.0127V71.1507H94.4665L94.7845 72.31C95.461 71.4183 96.3393 70.9724 97.4197 70.9724C98.5202 70.9724 99.2824 71.3935 99.7065 72.2357C100.019 71.8393 100.403 71.5322 100.857 71.3142C101.322 71.0863 101.817 70.9724 102.342 70.9724C103.22 70.9724 103.891 71.2498 104.356 71.8047C104.82 72.3496 105.053 73.1423 105.053 74.1826V79.0127H102.751V74.2569C102.751 73.2958 102.372 72.8153 101.615 72.8153C101.271 72.8153 100.974 72.9193 100.721 73.1274C100.469 73.3355 100.277 73.6277 100.146 74.0042V79.0127H97.874V74.2569C97.874 73.2958 97.5004 72.8153 96.7533 72.8153C96.41 72.8153 96.1071 72.9193 95.8446 73.1274C95.5922 73.3355 95.4004 73.6277 95.2691 74.0042V79.0127H92.9671Z" fill="white"/>
<path d="M113.621 78.6412C112.844 79.0078 111.915 79.1911 110.835 79.1911C109.462 79.1911 108.407 78.8393 107.67 78.1359C106.933 77.4225 106.564 76.397 106.564 75.0594C106.564 73.7813 106.917 72.7806 107.624 72.0573C108.341 71.334 109.325 70.9724 110.577 70.9724C111.688 70.9724 112.536 71.2895 113.122 71.9236C113.707 72.5577 114 73.4345 114 74.5541V75.6985H108.851C108.942 76.3128 109.164 76.7587 109.517 77.0361C109.881 77.3135 110.401 77.4522 111.077 77.4522C111.501 77.4522 111.905 77.4176 112.289 77.3482C112.682 77.2689 113.127 77.1352 113.621 76.9469V78.6412ZM110.547 72.6072C109.467 72.6072 108.886 73.1472 108.805 74.2272H111.955C111.935 73.7219 111.799 73.3255 111.547 73.0382C111.294 72.7509 110.961 72.6072 110.547 72.6072Z" fill="white"/>
<path d="M196 65H222V85H196V65Z" fill="white"/>
<path fill-rule="evenodd" clip-rule="evenodd" d="M201.429 60C197.878 60 195 62.8782 195 66.4286V83.5714C195 87.1218 197.878 90 201.429 90H218.571C222.122 90 225 87.1218 225 83.5714V66.4286C225 62.8782 222.122 60 218.571 60H201.429ZM199.821 78.7448C199.821 77.036 200.252 75.3547 201.072 73.856C201.893 72.3572 203.078 71.0892 204.518 70.1688C205.957 69.2485 207.606 68.7054 209.311 68.5896C211.015 68.4739 213.003 68.9203 214.554 69.6376L213.151 71.9322C212.007 71.4032 210.749 71.1707 209.492 71.2561C208.234 71.3414 207.019 71.7419 205.957 72.4206C204.895 73.0993 204.022 74.0344 203.416 75.1397C202.811 76.2449 202.494 77.4847 202.494 78.7448H199.821ZM218.571 73.3876C219.433 74.9189 220.183 77.0124 220.179 78.7694L217.506 78.763C217.509 77.4672 217.177 76.1928 216.541 75.0636L218.571 73.3876ZM209.464 76.0657C209.845 76.0657 210.207 76.1451 210.535 76.2882L216.399 70.891L217.175 71.6304L211.97 77.7951C212.082 78.0901 212.143 78.41 212.143 78.7443C212.143 80.2236 210.944 81.4228 209.464 81.4228C207.985 81.4228 206.786 80.2236 206.786 78.7443C206.786 77.2649 207.985 76.0657 209.464 76.0657Z" fill="#0F1418"/>
<rect x="6" y="92" width="234" height="0.7" fill="#D9D9D9"/>
<defs>
<filter id="filter0_d_1152_19197" x="195" y="0" width="250" height="213" filterUnits="userSpaceOnUse" color-interpolation-filters="sRGB">
<feFlood flood-opacity="0" result="BackgroundImageFix"/>
<feColorMatrix in="SourceAlpha" type="matrix" values="0 0 0 0 0 0 0 0 0 0 0 0 0 0 0 0 0 0 127 0" result="hardAlpha"/>
<feOffset dx="2" dy="4"/>
<feGaussianBlur stdDeviation="4"/>
<feColorMatrix type="matrix" values="0 0 0 0 0.113725 0 0 0 0 0.282353 0 0 0 0 0.360784 0 0 0 0.25 0"/>
<feBlend mode="normal" in2="BackgroundImageFix" result="effect1_dropShadow_1152_19197"/>
<feBlend mode="normal" in="SourceGraphic" in2="effect1_dropShadow_1152_19197" result="shape"/>
</filter>
<filter id="filter1_d_1152_19197" x="0" y="50" width="250" height="213" filterUnits="userSpaceOnUse" color-interpolation-filters="sRGB">
<feFlood flood-opacity="0" result="BackgroundImageFix"/>
<feColorMatrix in="SourceAlpha" type="matrix" values="0 0 0 0 0 0 0 0 0 0 0 0 0 0 0 0 0 0 127 0" result="hardAlpha"/>
<feOffset dx="2" dy="4"/>
<feGaussianBlur stdDeviation="4"/>
<feColorMatrix type="matrix" values="0 0 0 0 0.113725 0 0 0 0 0.282353 0 0 0 0 0.360784 0 0 0 0.25 0"/>
<feBlend mode="normal" in2="BackgroundImageFix" result="effect1_dropShadow_1152_19197"/>
<feBlend mode="normal" in="SourceGraphic" in2="effect1_dropShadow_1152_19197" result="shape"/>
</filter>
<linearGradient id="paint0_linear_1152_19197" x1="318" y1="4" x2="318" y2="201" gradientUnits="userSpaceOnUse">
<stop stop-color="#0F1418"/>
<stop offset="1" stop-color="#17232D"/>
</linearGradient>
<linearGradient id="paint1_linear_1152_19197" x1="123" y1="54" x2="123" y2="251" gradientUnits="userSpaceOnUse">
<stop stop-color="#0F1418"/>
<stop offset="1" stop-color="#16222C"/>
</linearGradient>
</defs>
</svg>
