<svg width="709" height="244" viewBox="0 0 709 244" fill="none" xmlns="http://www.w3.org/2000/svg">
<g filter="url(#filter0_d_1146_18570)">
<rect x="6" y="24" width="170" height="196" rx="4" fill="white"/>
<rect x="6.5" y="24.5" width="169" height="195" rx="3.5" fill="url(#paint0_linear_1146_18570)" stroke="#C8CEDA"/>
</g>
<rect x="6" y="71" width="169" height="1" fill="#C8CEDA"/>
<path d="M38.7458 55V41.914H47.0978V44.29H41.5538V47.584H46.4678V49.96H41.5538V55H38.7458ZM51.341 55H48.605V45.478H50.387L50.765 46.882C51.077 46.426 51.467 46.072 51.935 45.82C52.403 45.556 52.943 45.424 53.555 45.424C53.819 45.424 54.047 45.442 54.239 45.478V47.944H53.663C53.051 47.944 52.541 48.106 52.133 48.43C51.725 48.742 51.461 49.162 51.341 49.69V55ZM61.6122 55L61.2522 53.668C60.9282 54.148 60.5022 54.526 59.9742 54.802C59.4582 55.078 58.8822 55.216 58.2462 55.216C57.2622 55.216 56.4822 54.946 55.9062 54.406C55.3422 53.866 55.0602 53.122 55.0602 52.174C55.0602 51.178 55.4382 50.392 56.1942 49.816C56.9502 49.24 57.9702 48.952 59.2542 48.952H60.8202V48.61C60.8202 48.082 60.6882 47.74 60.4242 47.584C60.1602 47.428 59.7462 47.35 59.1822 47.35C58.1742 47.35 57.0882 47.578 55.9242 48.034V45.964C56.4042 45.76 56.9622 45.592 57.5982 45.46C58.2462 45.328 58.9002 45.262 59.5602 45.262C60.8082 45.262 61.7562 45.55 62.4042 46.126C63.0642 46.69 63.3942 47.506 63.3942 48.574V55H61.6122ZM58.9482 53.218C59.3442 53.218 59.7102 53.116 60.0462 52.912C60.3822 52.708 60.6582 52.432 60.8742 52.084V50.536H59.5962C58.9722 50.536 58.4862 50.656 58.1382 50.896C57.8022 51.136 57.6342 51.478 57.6342 51.922C57.6342 52.786 58.0722 53.218 58.9482 53.218ZM65.6734 55V45.478H67.4554L67.8334 46.882C68.6374 45.802 69.6814 45.262 70.9654 45.262C72.2734 45.262 73.1794 45.772 73.6834 46.792C74.0554 46.312 74.5114 45.94 75.0514 45.676C75.6034 45.4 76.1914 45.262 76.8154 45.262C77.8594 45.262 78.6574 45.598 79.2094 46.27C79.7614 46.93 80.0374 47.89 80.0374 49.15V55H77.3014V49.24C77.3014 48.076 76.8514 47.494 75.9514 47.494C75.5434 47.494 75.1894 47.62 74.8894 47.872C74.5894 48.124 74.3614 48.478 74.2054 48.934V55H71.5054V49.24C71.5054 48.076 71.0614 47.494 70.1734 47.494C69.7654 47.494 69.4054 47.62 69.0934 47.872C68.7934 48.124 68.5654 48.478 68.4094 48.934V55H65.6734ZM90.2218 54.55C89.2978 54.994 88.1938 55.216 86.9098 55.216C85.2778 55.216 84.0238 54.79 83.1478 53.938C82.2718 53.074 81.8338 51.832 81.8338 50.212C81.8338 48.664 82.2538 47.452 83.0938 46.576C83.9458 45.7 85.1158 45.262 86.6038 45.262C87.9238 45.262 88.9318 45.646 89.6278 46.414C90.3238 47.182 90.6718 48.244 90.6718 49.6V50.986H84.5518C84.6598 51.73 84.9238 52.27 85.3438 52.606C85.7758 52.942 86.3938 53.11 87.1978 53.11C87.7018 53.11 88.1818 53.068 88.6378 52.984C89.1058 52.888 89.6338 52.726 90.2218 52.498V54.55ZM86.5678 47.242C85.2838 47.242 84.5938 47.896 84.4978 49.204H88.2418C88.2178 48.592 88.0558 48.112 87.7558 47.764C87.4558 47.416 87.0598 47.242 86.5678 47.242ZM94.2431 55L91.5611 45.478H94.2971L95.6831 50.95L97.2311 45.784H99.4451L101.011 51.112L102.451 45.478H105.115L102.433 55H100.273L98.2931 48.826L96.4031 55H94.2431ZM110.615 55.216C109.127 55.216 107.963 54.778 107.123 53.902C106.295 53.026 105.881 51.802 105.881 50.23C105.881 48.658 106.295 47.44 107.123 46.576C107.963 45.7 109.127 45.262 110.615 45.262C112.115 45.262 113.279 45.7 114.107 46.576C114.935 47.44 115.349 48.658 115.349 50.23C115.349 51.802 114.935 53.026 114.107 53.902C113.279 54.778 112.115 55.216 110.615 55.216ZM110.615 53.146C111.935 53.146 112.595 52.174 112.595 50.23C112.595 48.298 111.935 47.332 110.615 47.332C109.295 47.332 108.635 48.298 108.635 50.23C108.635 52.174 109.295 53.146 110.615 53.146ZM119.966 55H117.23V45.478H119.012L119.39 46.882C119.702 46.426 120.092 46.072 120.56 45.82C121.028 45.556 121.568 45.424 122.18 45.424C122.444 45.424 122.672 45.442 122.864 45.478V47.944H122.288C121.676 47.944 121.166 48.106 120.758 48.43C120.35 48.742 120.086 49.162 119.966 49.69V55ZM124.613 55V41.482H127.349V49.24L130.607 45.478H133.595L130.175 49.42L133.757 55H130.697L128.087 50.824H127.349V55H124.613ZM134.605 54.586V52.426C135.217 52.654 135.775 52.822 136.279 52.93C136.783 53.026 137.305 53.074 137.845 53.074C138.877 53.074 139.393 52.81 139.393 52.282C139.393 52.078 139.291 51.91 139.087 51.778C138.895 51.646 138.571 51.514 138.115 51.382L136.783 51.004C135.979 50.764 135.373 50.428 134.965 49.996C134.557 49.564 134.353 49 134.353 48.304C134.353 47.356 134.713 46.612 135.433 46.072C136.153 45.532 137.143 45.262 138.403 45.262C138.943 45.262 139.489 45.31 140.041 45.406C140.593 45.502 141.067 45.634 141.463 45.802V47.926C140.479 47.554 139.477 47.368 138.457 47.368C137.497 47.368 137.017 47.614 137.017 48.106C137.017 48.274 137.113 48.424 137.305 48.556C137.497 48.688 137.815 48.82 138.259 48.952L139.591 49.33C140.503 49.594 141.139 49.93 141.499 50.338C141.871 50.746 142.057 51.34 142.057 52.12C142.057 53.14 141.703 53.914 140.995 54.442C140.287 54.958 139.255 55.216 137.899 55.216C137.287 55.216 136.675 55.156 136.063 55.036C135.451 54.928 134.965 54.778 134.605 54.586Z" fill="white"/>
<path d="M53.216 114V102.368H55.296L59.328 110.688L63.296 102.368H65.36V114H63.408V105.824L59.984 112.88H58.576L55.168 105.936V114H53.216ZM67.5381 103.888V102.288H69.7621V103.888H67.5381ZM67.8261 114V107.008L66.9781 106.384V105.584H69.7781V114H67.8261ZM78.1226 112.096V113.68C77.792 113.84 77.4026 113.963 76.9546 114.048C76.5066 114.144 76.0373 114.192 75.5466 114.192C72.8693 114.192 71.5306 112.693 71.5306 109.696C71.5306 108.331 71.888 107.275 72.6026 106.528C73.328 105.781 74.3466 105.408 75.6586 105.408C76.5013 105.408 77.2426 105.552 77.8826 105.84V107.408C77.2746 107.099 76.656 106.944 76.0266 106.944C74.3413 106.944 73.4986 107.861 73.4986 109.696C73.4986 110.699 73.6906 111.44 74.0746 111.92C74.4693 112.4 75.0666 112.64 75.8666 112.64C76.5066 112.64 77.2586 112.459 78.1226 112.096ZM79.7919 114V105.584H81.0879L81.3919 106.976C81.6585 106.528 81.9945 106.181 82.3999 105.936C82.8052 105.68 83.2799 105.552 83.8239 105.552C84.0265 105.552 84.2132 105.568 84.3839 105.6V107.344H83.9199C83.3332 107.344 82.8532 107.509 82.4799 107.84C82.1065 108.16 81.8612 108.587 81.7439 109.12V114H79.7919ZM89.3923 114.176C88.1016 114.176 87.0936 113.792 86.3683 113.024C85.6536 112.256 85.2963 111.179 85.2963 109.792C85.2963 108.405 85.6536 107.328 86.3683 106.56C87.0936 105.792 88.1016 105.408 89.3923 105.408C90.6936 105.408 91.7016 105.792 92.4163 106.56C93.1309 107.328 93.4883 108.405 93.4883 109.792C93.4883 111.179 93.1309 112.256 92.4163 113.024C91.7016 113.792 90.6936 114.176 89.3923 114.176ZM89.3923 112.656C90.8109 112.656 91.5203 111.701 91.5203 109.792C91.5203 107.883 90.8109 106.928 89.3923 106.928C87.9736 106.928 87.2643 107.883 87.2643 109.792C87.2643 111.701 87.9736 112.656 89.3923 112.656ZM95.245 114V105.584H96.541L96.829 106.944C97.2023 106.453 97.6397 106.075 98.141 105.808C98.653 105.541 99.2237 105.408 99.853 105.408C100.824 105.408 101.565 105.701 102.077 106.288C102.589 106.864 102.845 107.707 102.845 108.816V114H100.893V108.88C100.893 107.643 100.365 107.024 99.309 107.024C98.8503 107.024 98.429 107.163 98.045 107.44C97.6717 107.717 97.389 108.091 97.197 108.56V114H95.245ZM110.29 114L110.018 112.752C109.709 113.211 109.32 113.568 108.85 113.824C108.381 114.069 107.864 114.192 107.298 114.192C106.434 114.192 105.746 113.952 105.234 113.472C104.733 112.992 104.482 112.341 104.482 111.52C104.482 110.645 104.802 109.957 105.442 109.456C106.082 108.955 106.957 108.704 108.066 108.704H109.65V108.304C109.65 107.771 109.538 107.408 109.314 107.216C109.09 107.024 108.696 106.928 108.13 106.928C107.288 106.928 106.328 107.125 105.25 107.52V106C105.677 105.819 106.162 105.675 106.706 105.568C107.25 105.461 107.784 105.408 108.306 105.408C110.493 105.408 111.586 106.368 111.586 108.288V114H110.29ZM107.698 112.72C108.093 112.72 108.466 112.619 108.818 112.416C109.17 112.203 109.458 111.909 109.682 111.536V109.952H108.29C107 109.952 106.354 110.421 106.354 111.36C106.354 111.787 106.472 112.123 106.706 112.368C106.941 112.603 107.272 112.72 107.698 112.72ZM113.697 110.768V105.584H115.649V110.704C115.649 111.941 116.139 112.56 117.121 112.56C117.558 112.56 117.963 112.421 118.337 112.144C118.721 111.867 119.009 111.493 119.201 111.024V105.584H121.153V114H119.857L119.553 112.64C119.201 113.131 118.769 113.509 118.257 113.776C117.755 114.043 117.206 114.176 116.609 114.176C115.67 114.176 114.95 113.883 114.449 113.296C113.947 112.709 113.697 111.867 113.697 110.768ZM123.722 111.264V107.104H122.266V106.128L123.77 105.552L124.426 103.216H125.674V105.584H127.482V107.104H125.674V111.248C125.674 111.696 125.775 112.021 125.978 112.224C126.18 112.416 126.479 112.512 126.874 112.512C126.991 112.512 127.114 112.512 127.242 112.512C127.38 112.501 127.492 112.491 127.578 112.48V114.016C127.364 114.048 127.167 114.069 126.986 114.08C126.815 114.091 126.623 114.096 126.41 114.096C125.503 114.096 124.826 113.867 124.378 113.408C123.94 112.949 123.722 112.235 123.722 111.264Z" fill="white"/>
<path d="M42.816 147.536V145.76C44.0107 146.229 45.1627 146.464 46.272 146.464C47.0507 146.464 47.6587 146.32 48.096 146.032C48.544 145.744 48.768 145.349 48.768 144.848C48.768 144.475 48.6293 144.171 48.352 143.936C48.0747 143.691 47.5573 143.435 46.8 143.168L45.584 142.72C44.5493 142.336 43.808 141.888 43.36 141.376C42.9227 140.853 42.704 140.219 42.704 139.472C42.704 138.448 43.088 137.643 43.856 137.056C44.624 136.459 45.6693 136.16 46.992 136.16C47.5467 136.16 48.1013 136.219 48.656 136.336C49.2213 136.453 49.712 136.613 50.128 136.816V138.592C49.0293 138.133 47.9893 137.904 47.008 137.904C45.4827 137.904 44.72 138.395 44.72 139.376C44.72 139.728 44.8587 140.016 45.136 140.24C45.4133 140.464 45.92 140.715 46.656 140.992L47.888 141.44C48.9653 141.835 49.7173 142.288 50.144 142.8C50.5813 143.312 50.8 143.973 50.8 144.784C50.8 145.851 50.4213 146.688 49.664 147.296C48.9067 147.904 47.8453 148.208 46.48 148.208C46.0427 148.208 45.5893 148.176 45.12 148.112C44.6613 148.059 44.2293 147.984 43.824 147.888C43.4187 147.781 43.0827 147.664 42.816 147.536ZM52.4638 151.216V139.584H53.7598L54.0478 140.88C54.3784 140.411 54.7784 140.048 55.2478 139.792C55.7278 139.536 56.2398 139.408 56.7838 139.408C57.8931 139.408 58.7624 139.797 59.3918 140.576C60.0211 141.344 60.3358 142.421 60.3358 143.808C60.3358 145.195 60.0211 146.272 59.3918 147.04C58.7731 147.797 57.9038 148.176 56.7838 148.176C55.8664 148.176 55.0771 147.861 54.4158 147.232V151.216H52.4638ZM56.4158 140.976C56.0104 140.976 55.6264 141.088 55.2638 141.312C54.9118 141.525 54.6238 141.813 54.3998 142.176V145.68C54.9331 146.309 55.6051 146.624 56.4158 146.624C57.0451 146.624 57.5251 146.384 57.8558 145.904C58.1971 145.413 58.3678 144.709 58.3678 143.792C58.3678 142.875 58.1971 142.176 57.8558 141.696C57.5251 141.216 57.0451 140.976 56.4158 140.976ZM62.0888 148V139.584H63.3848L63.6888 140.976C63.9554 140.528 64.2914 140.181 64.6968 139.936C65.1021 139.68 65.5768 139.552 66.1208 139.552C66.3234 139.552 66.5101 139.568 66.6808 139.6V141.344H66.2168C65.6301 141.344 65.1501 141.509 64.7768 141.84C64.4034 142.16 64.1581 142.587 64.0408 143.12V148H62.0888ZM68.3194 137.888V136.288H70.5434V137.888H68.3194ZM68.6074 148V141.008L67.7594 140.384V139.584H70.5594V148H68.6074ZM72.7919 148V139.584H74.0879L74.3759 140.944C74.7492 140.453 75.1865 140.075 75.6879 139.808C76.1999 139.541 76.7705 139.408 77.3999 139.408C78.3705 139.408 79.1119 139.701 79.6239 140.288C80.1359 140.864 80.3919 141.707 80.3919 142.816V148H78.4399V142.88C78.4399 141.643 77.9119 141.024 76.8559 141.024C76.3972 141.024 75.9759 141.163 75.5919 141.44C75.2185 141.717 74.9359 142.091 74.7439 142.56V148H72.7919ZM82.4451 147.072L82.1571 146.096L83.4851 144.144C82.9625 143.653 82.7011 143.019 82.7011 142.24C82.7011 141.355 83.0105 140.661 83.6291 140.16C84.2585 139.659 85.1331 139.408 86.2531 139.408C86.8185 139.408 87.3411 139.488 87.8211 139.648L90.6371 139.632V140.608L89.6451 140.96C89.9865 141.333 90.1571 141.808 90.1571 142.384C90.1571 143.227 89.8265 143.888 89.1651 144.368C88.5038 144.848 87.5918 145.088 86.4291 145.088C85.7891 145.088 85.2185 145.008 84.7171 144.848L84.0611 145.824L87.9971 146.336C88.9038 146.443 89.5705 146.693 89.9971 147.088C90.4345 147.472 90.6531 148.011 90.6531 148.704C90.6531 149.536 90.2745 150.192 89.5171 150.672C88.7598 151.163 87.7305 151.408 86.4291 151.408C85.0958 151.408 84.0718 151.2 83.3571 150.784C82.6531 150.379 82.3011 149.792 82.3011 149.024C82.3011 148.331 82.6211 147.723 83.2611 147.2L82.4451 147.072ZM84.5091 142.24C84.5091 143.221 85.1491 143.712 86.4291 143.712C87.7091 143.712 88.3491 143.221 88.3491 142.24C88.3491 141.269 87.7091 140.784 86.4291 140.784C85.1491 140.784 84.5091 141.269 84.5091 142.24ZM84.1571 148.64C84.1571 149.504 84.9145 149.936 86.4291 149.936C87.1651 149.936 87.7358 149.835 88.1411 149.632C88.5571 149.429 88.7651 149.147 88.7651 148.784C88.7651 148.507 88.6798 148.299 88.5091 148.16C88.3491 148.032 88.0558 147.936 87.6291 147.872L84.7011 147.424C84.3385 147.776 84.1571 148.181 84.1571 148.64ZM96.1379 148V136.368H100.042C101.482 136.368 102.538 136.619 103.21 137.12C103.893 137.621 104.234 138.411 104.234 139.488C104.234 140.011 104.09 140.48 103.802 140.896C103.525 141.301 103.135 141.621 102.634 141.856C104.031 142.272 104.73 143.2 104.73 144.64C104.73 146.88 103.21 148 100.17 148H96.1379ZM98.0579 141.296H99.6739C100.602 141.296 101.263 141.168 101.658 140.912C102.053 140.656 102.25 140.224 102.25 139.616C102.25 138.987 102.058 138.549 101.674 138.304C101.29 138.048 100.623 137.92 99.6739 137.92H98.0579V141.296ZM98.0579 146.432H99.9779C100.949 146.432 101.647 146.288 102.074 146C102.501 145.712 102.714 145.248 102.714 144.608C102.714 143.979 102.495 143.52 102.058 143.232C101.631 142.944 100.938 142.8 99.9779 142.8H98.0579V146.432ZM110.08 148.176C108.789 148.176 107.781 147.792 107.056 147.024C106.341 146.256 105.984 145.179 105.984 143.792C105.984 142.405 106.341 141.328 107.056 140.56C107.781 139.792 108.789 139.408 110.08 139.408C111.381 139.408 112.389 139.792 113.104 140.56C113.818 141.328 114.176 142.405 114.176 143.792C114.176 145.179 113.818 146.256 113.104 147.024C112.389 147.792 111.381 148.176 110.08 148.176ZM110.08 146.656C111.498 146.656 112.208 145.701 112.208 143.792C112.208 141.883 111.498 140.928 110.08 140.928C108.661 140.928 107.952 141.883 107.952 143.792C107.952 145.701 108.661 146.656 110.08 146.656ZM119.549 148.176C118.258 148.176 117.25 147.792 116.525 147.024C115.81 146.256 115.453 145.179 115.453 143.792C115.453 142.405 115.81 141.328 116.525 140.56C117.25 139.792 118.258 139.408 119.549 139.408C120.85 139.408 121.858 139.792 122.573 140.56C123.287 141.328 123.645 142.405 123.645 143.792C123.645 145.179 123.287 146.256 122.573 147.024C121.858 147.792 120.85 148.176 119.549 148.176ZM119.549 146.656C120.967 146.656 121.677 145.701 121.677 143.792C121.677 141.883 120.967 140.928 119.549 140.928C118.13 140.928 117.421 141.883 117.421 143.792C117.421 145.701 118.13 146.656 119.549 146.656ZM125.737 145.264V141.104H124.281V140.128L125.785 139.552L126.441 137.216H127.689V139.584H129.497V141.104H127.689V145.248C127.689 145.696 127.791 146.021 127.993 146.224C128.196 146.416 128.495 146.512 128.889 146.512C129.007 146.512 129.129 146.512 129.257 146.512C129.396 146.501 129.508 146.491 129.593 146.48V148.016C129.38 148.048 129.183 148.069 129.001 148.08C128.831 148.091 128.639 148.096 128.425 148.096C127.519 148.096 126.841 147.867 126.393 147.408C125.956 146.949 125.737 146.235 125.737 145.264ZM131.691 142.064L130.875 140.64L133.211 139.296L130.875 138.48L131.691 137.072L134.027 138.416L133.563 135.984H135.195V138.704L137.067 137.072L137.883 138.496L135.563 139.84L137.883 140.656L137.067 142.064L134.731 140.72L135.195 143.152H133.563V140.448L131.691 142.064Z" fill="white"/>
<circle cx="67" cy="180" r="4" fill="white"/>
<circle cx="91" cy="180" r="4" fill="white"/>
<circle cx="115" cy="180" r="4" fill="white"/>
<g filter="url(#filter1_d_1146_18570)">
<rect x="465.5" y="24.5" width="233" height="195" rx="3.5" fill="url(#paint1_linear_1146_18570)" stroke="#C8CEDA"/>
</g>
<rect x="465" y="71.3447" width="234" height="0.655738" fill="#C8CEDA"/>
<path d="M530.205 53.138V55.478C529.737 55.694 529.191 55.874 528.567 56.018C527.955 56.174 527.277 56.252 526.533 56.252C524.433 56.252 522.843 55.658 521.763 54.47C520.683 53.27 520.143 51.548 520.143 49.304C520.143 47.924 520.407 46.742 520.935 45.758C521.463 44.762 522.213 44 523.185 43.472C524.157 42.932 525.315 42.662 526.659 42.662C527.295 42.662 527.883 42.728 528.423 42.86C528.963 42.992 529.437 43.16 529.845 43.364V45.74C529.209 45.5 528.657 45.332 528.189 45.236C527.733 45.14 527.289 45.092 526.857 45.092C525.621 45.092 524.673 45.458 524.013 46.19C523.353 46.922 523.023 47.96 523.023 49.304C523.023 50.756 523.347 51.878 523.995 52.67C524.643 53.45 525.597 53.84 526.857 53.84C527.361 53.84 527.871 53.786 528.387 53.678C528.915 53.558 529.521 53.378 530.205 53.138ZM532.249 56V44.408L531.259 43.58V42.482H534.985V56H532.249ZM541.609 56.216C540.121 56.216 538.957 55.778 538.117 54.902C537.289 54.026 536.875 52.802 536.875 51.23C536.875 49.658 537.289 48.44 538.117 47.576C538.957 46.7 540.121 46.262 541.609 46.262C543.109 46.262 544.273 46.7 545.101 47.576C545.929 48.44 546.343 49.658 546.343 51.23C546.343 52.802 545.929 54.026 545.101 54.902C544.273 55.778 543.109 56.216 541.609 56.216ZM541.609 54.146C542.929 54.146 543.589 53.174 543.589 51.23C543.589 49.298 542.929 48.332 541.609 48.332C540.289 48.332 539.629 49.298 539.629 51.23C539.629 53.174 540.289 54.146 541.609 54.146ZM548.134 52.328V46.478H550.87V52.238C550.87 53.402 551.326 53.984 552.238 53.984C552.646 53.984 553.018 53.858 553.354 53.606C553.702 53.342 553.972 52.988 554.164 52.544V46.478H556.9V56H555.118L554.74 54.542C553.864 55.658 552.754 56.216 551.41 56.216C550.354 56.216 549.544 55.88 548.98 55.208C548.416 54.536 548.134 53.576 548.134 52.328ZM566.193 56L565.815 54.596C565.047 55.676 564.051 56.216 562.827 56.216C561.579 56.216 560.595 55.778 559.875 54.902C559.155 54.014 558.795 52.796 558.795 51.248C558.795 49.676 559.143 48.452 559.839 47.576C560.547 46.7 561.537 46.262 562.809 46.262C563.757 46.262 564.567 46.58 565.239 47.216V42.482H567.975V56H566.193ZM561.549 51.23C561.549 52.19 561.711 52.928 562.035 53.444C562.359 53.96 562.815 54.218 563.403 54.218C563.775 54.218 564.123 54.128 564.447 53.948C564.783 53.756 565.059 53.504 565.275 53.192V49.124C564.795 48.548 564.177 48.26 563.421 48.26C562.821 48.26 562.359 48.518 562.035 49.034C561.711 49.538 561.549 50.27 561.549 51.23ZM565.635 52.418L565.527 52.706C565.575 52.61 565.611 52.514 565.635 52.418ZM574.443 55.532V53.03C575.823 53.546 577.149 53.804 578.421 53.804C579.177 53.804 579.771 53.678 580.203 53.426C580.635 53.174 580.851 52.826 580.851 52.382C580.851 52.07 580.713 51.812 580.437 51.608C580.161 51.392 579.627 51.152 578.835 50.888L577.467 50.42C576.351 50.036 575.535 49.544 575.019 48.944C574.515 48.332 574.263 47.552 574.263 46.604C574.263 45.788 574.467 45.086 574.875 44.498C575.295 43.91 575.883 43.46 576.639 43.148C577.395 42.824 578.295 42.662 579.339 42.662C579.999 42.662 580.647 42.728 581.283 42.86C581.931 42.98 582.495 43.148 582.975 43.364V45.866C582.363 45.626 581.739 45.446 581.103 45.326C580.467 45.194 579.879 45.128 579.339 45.128C577.851 45.128 577.107 45.566 577.107 46.442C577.107 46.778 577.245 47.054 577.521 47.27C577.809 47.474 578.343 47.708 579.123 47.972L580.491 48.44C581.667 48.848 582.501 49.346 582.993 49.934C583.485 50.51 583.731 51.296 583.731 52.292C583.731 53.516 583.293 54.482 582.417 55.19C581.553 55.898 580.329 56.252 578.745 56.252C578.229 56.252 577.689 56.222 577.125 56.162C576.573 56.102 576.057 56.018 575.577 55.91C575.109 55.802 574.731 55.676 574.443 55.532ZM593.374 55.55C592.45 55.994 591.346 56.216 590.062 56.216C588.43 56.216 587.176 55.79 586.3 54.938C585.424 54.074 584.986 52.832 584.986 51.212C584.986 49.664 585.406 48.452 586.246 47.576C587.098 46.7 588.268 46.262 589.756 46.262C591.076 46.262 592.084 46.646 592.78 47.414C593.476 48.182 593.824 49.244 593.824 50.6V51.986H587.704C587.812 52.73 588.076 53.27 588.496 53.606C588.928 53.942 589.546 54.11 590.35 54.11C590.854 54.11 591.334 54.068 591.79 53.984C592.258 53.888 592.786 53.726 593.374 53.498V55.55ZM589.72 48.242C588.436 48.242 587.746 48.896 587.65 50.204H591.394C591.37 49.592 591.208 49.112 590.908 48.764C590.608 48.416 590.212 48.242 589.72 48.242ZM598.403 56H595.667V46.478H597.449L597.827 47.882C598.139 47.426 598.529 47.072 598.997 46.82C599.465 46.556 600.005 46.424 600.617 46.424C600.881 46.424 601.109 46.442 601.301 46.478V48.944H600.725C600.113 48.944 599.603 49.106 599.195 49.43C598.787 49.742 598.523 50.162 598.403 50.69V56ZM605.962 56L602.236 46.478H605.134L607.132 52.562L609.13 46.478H611.92L608.194 56H605.962ZM613.488 44.804V42.698H616.512V44.804H613.488ZM613.776 56V48.404L612.786 47.576V46.478H616.512V56H613.776ZM625.998 53.57V55.712C625.626 55.856 625.188 55.976 624.684 56.072C624.18 56.168 623.664 56.216 623.136 56.216C619.98 56.216 618.402 54.524 618.402 51.14C618.402 49.628 618.834 48.44 619.698 47.576C620.574 46.7 621.774 46.262 623.298 46.262C624.126 46.262 624.936 46.4 625.728 46.676V48.782C625.14 48.482 624.492 48.332 623.784 48.332C622.944 48.332 622.296 48.566 621.84 49.034C621.384 49.49 621.156 50.192 621.156 51.14C621.156 52.052 621.354 52.778 621.75 53.318C622.158 53.846 622.752 54.11 623.532 54.11C623.916 54.11 624.312 54.062 624.72 53.966C625.128 53.87 625.554 53.738 625.998 53.57ZM635.685 55.55C634.761 55.994 633.657 56.216 632.373 56.216C630.741 56.216 629.487 55.79 628.611 54.938C627.735 54.074 627.297 52.832 627.297 51.212C627.297 49.664 627.717 48.452 628.557 47.576C629.409 46.7 630.579 46.262 632.067 46.262C633.387 46.262 634.395 46.646 635.091 47.414C635.787 48.182 636.135 49.244 636.135 50.6V51.986H630.015C630.123 52.73 630.387 53.27 630.807 53.606C631.239 53.942 631.857 54.11 632.661 54.11C633.165 54.11 633.645 54.068 634.101 53.984C634.569 53.888 635.097 53.726 635.685 53.498V55.55ZM632.031 48.242C630.747 48.242 630.057 48.896 629.961 50.204H633.705C633.681 49.592 633.519 49.112 633.219 48.764C632.919 48.416 632.523 48.242 632.031 48.242ZM637.758 55.586V53.426C638.37 53.654 638.928 53.822 639.432 53.93C639.936 54.026 640.458 54.074 640.998 54.074C642.03 54.074 642.546 53.81 642.546 53.282C642.546 53.078 642.444 52.91 642.24 52.778C642.048 52.646 641.724 52.514 641.268 52.382L639.936 52.004C639.132 51.764 638.526 51.428 638.118 50.996C637.71 50.564 637.506 50 637.506 49.304C637.506 48.356 637.866 47.612 638.586 47.072C639.306 46.532 640.296 46.262 641.556 46.262C642.096 46.262 642.642 46.31 643.194 46.406C643.746 46.502 644.22 46.634 644.616 46.802V48.926C643.632 48.554 642.63 48.368 641.61 48.368C640.65 48.368 640.17 48.614 640.17 49.106C640.17 49.274 640.266 49.424 640.458 49.556C640.65 49.688 640.968 49.82 641.412 49.952L642.744 50.33C643.656 50.594 644.292 50.93 644.652 51.338C645.024 51.746 645.21 52.34 645.21 53.12C645.21 54.14 644.856 54.914 644.148 55.442C643.44 55.958 642.408 56.216 641.052 56.216C640.44 56.216 639.828 56.156 639.216 56.036C638.604 55.928 638.118 55.778 637.758 55.586Z" fill="white"/>
<path d="M487.096 106.208C485.389 106.208 484.077 105.685 483.16 104.64C482.243 103.595 481.784 102.107 481.784 100.176C481.784 98.256 482.243 96.7733 483.16 95.728C484.088 94.6827 485.4 94.16 487.096 94.16C488.792 94.16 490.099 94.6827 491.016 95.728C491.944 96.7733 492.408 98.256 492.408 100.176C492.408 102.107 491.949 103.595 491.032 104.64C490.115 105.685 488.803 106.208 487.096 106.208ZM487.096 104.496C489.283 104.496 490.376 103.056 490.376 100.176C490.376 98.7573 490.099 97.6853 489.544 96.96C488.989 96.2347 488.173 95.872 487.096 95.872C486.019 95.872 485.203 96.2347 484.648 96.96C484.093 97.6853 483.816 98.7573 483.816 100.176C483.816 103.056 484.909 104.496 487.096 104.496ZM494.308 106V97.584H495.604L495.908 98.976C496.174 98.528 496.51 98.1813 496.916 97.936C497.321 97.68 497.796 97.552 498.34 97.552C498.542 97.552 498.729 97.568 498.9 97.6V99.344H498.436C497.849 99.344 497.369 99.5093 496.996 99.84C496.622 100.16 496.377 100.587 496.26 101.12V106H494.308ZM505.493 106L505.221 104.752C504.912 105.211 504.523 105.568 504.053 105.824C503.584 106.069 503.067 106.192 502.501 106.192C501.637 106.192 500.949 105.952 500.437 105.472C499.936 104.992 499.685 104.341 499.685 103.52C499.685 102.645 500.005 101.957 500.645 101.456C501.285 100.955 502.16 100.704 503.269 100.704H504.853V100.304C504.853 99.7707 504.741 99.408 504.517 99.216C504.293 99.024 503.899 98.928 503.333 98.928C502.491 98.928 501.531 99.1253 500.453 99.52V98C500.88 97.8187 501.365 97.6747 501.909 97.568C502.453 97.4613 502.987 97.408 503.509 97.408C505.696 97.408 506.789 98.368 506.789 100.288V106H505.493ZM502.901 104.72C503.296 104.72 503.669 104.619 504.021 104.416C504.373 104.203 504.661 103.909 504.885 103.536V101.952H503.493C502.203 101.952 501.557 102.421 501.557 103.36C501.557 103.787 501.675 104.123 501.909 104.368C502.144 104.603 502.475 104.72 502.901 104.72ZM515.076 104.096V105.68C514.745 105.84 514.356 105.963 513.908 106.048C513.46 106.144 512.99 106.192 512.5 106.192C509.822 106.192 508.484 104.693 508.484 101.696C508.484 100.331 508.841 99.2747 509.556 98.528C510.281 97.7813 511.3 97.408 512.612 97.408C513.454 97.408 514.196 97.552 514.836 97.84V99.408C514.228 99.0987 513.609 98.944 512.98 98.944C511.294 98.944 510.452 99.8613 510.452 101.696C510.452 102.699 510.644 103.44 511.028 103.92C511.422 104.4 512.02 104.64 512.82 104.64C513.46 104.64 514.212 104.459 515.076 104.096ZM516.745 106V95.408L515.897 94.784V93.984H518.697V106H516.745ZM527.605 105.6C527.253 105.781 526.826 105.925 526.325 106.032C525.823 106.139 525.29 106.192 524.725 106.192C523.338 106.192 522.277 105.813 521.541 105.056C520.815 104.299 520.453 103.195 520.453 101.744C520.453 100.357 520.799 99.2907 521.493 98.544C522.197 97.7867 523.183 97.408 524.453 97.408C525.626 97.408 526.511 97.744 527.109 98.416C527.706 99.0773 528.005 100.027 528.005 101.264V102.352H522.389C522.463 103.152 522.703 103.733 523.109 104.096C523.525 104.459 524.127 104.64 524.917 104.64C525.386 104.64 525.829 104.597 526.245 104.512C526.661 104.416 527.114 104.267 527.605 104.064V105.6ZM524.437 98.88C523.157 98.88 522.469 99.5787 522.373 100.976H526.213C526.202 99.5787 525.61 98.88 524.437 98.88ZM542.132 103.792V105.488C541.684 105.723 541.182 105.899 540.628 106.016C540.073 106.144 539.481 106.208 538.852 106.208C537.06 106.208 535.684 105.68 534.724 104.624C533.774 103.568 533.3 102.043 533.3 100.048C533.3 98.8213 533.524 97.7707 533.972 96.896C534.43 96.0213 535.081 95.3493 535.924 94.88C536.777 94.4 537.785 94.16 538.948 94.16C539.46 94.16 539.966 94.2187 540.468 94.336C540.969 94.4533 541.401 94.6187 541.764 94.832V96.512C541.209 96.288 540.724 96.128 540.308 96.032C539.892 95.936 539.481 95.888 539.076 95.888C537.881 95.888 536.958 96.256 536.308 96.992C535.657 97.7173 535.332 98.736 535.332 100.048C535.332 101.467 535.652 102.56 536.292 103.328C536.942 104.085 537.87 104.464 539.076 104.464C539.545 104.464 540.02 104.411 540.5 104.304C540.99 104.197 541.534 104.027 542.132 103.792ZM543.933 106V95.408L543.085 94.784V93.984H545.885V106H543.933ZM551.736 106.176C550.445 106.176 549.437 105.792 548.712 105.024C547.997 104.256 547.64 103.179 547.64 101.792C547.64 100.405 547.997 99.328 548.712 98.56C549.437 97.792 550.445 97.408 551.736 97.408C553.037 97.408 554.045 97.792 554.76 98.56C555.475 99.328 555.832 100.405 555.832 101.792C555.832 103.179 555.475 104.256 554.76 105.024C554.045 105.792 553.037 106.176 551.736 106.176ZM551.736 104.656C553.155 104.656 553.864 103.701 553.864 101.792C553.864 99.8827 553.155 98.928 551.736 98.928C550.317 98.928 549.608 99.8827 549.608 101.792C549.608 103.701 550.317 104.656 551.736 104.656ZM557.525 102.768V97.584H559.477V102.704C559.477 103.941 559.967 104.56 560.949 104.56C561.386 104.56 561.791 104.421 562.165 104.144C562.549 103.867 562.837 103.493 563.029 103.024V97.584H564.981V106H563.685L563.381 104.64C563.029 105.131 562.597 105.509 562.085 105.776C561.583 106.043 561.034 106.176 560.437 106.176C559.498 106.176 558.778 105.883 558.277 105.296C557.775 104.709 557.525 103.867 557.525 102.768ZM573.31 106L573.022 104.704C572.691 105.173 572.286 105.536 571.806 105.792C571.336 106.048 570.83 106.176 570.286 106.176C569.176 106.176 568.307 105.792 567.678 105.024C567.048 104.245 566.734 103.163 566.734 101.776C566.734 100.389 567.043 99.3173 567.662 98.56C568.291 97.792 569.166 97.408 570.286 97.408C571.203 97.408 571.992 97.7227 572.654 98.352V93.984H574.606V106H573.31ZM568.702 101.792C568.702 102.699 568.867 103.397 569.198 103.888C569.539 104.368 570.024 104.608 570.654 104.608C571.059 104.608 571.438 104.501 571.79 104.288C572.152 104.064 572.446 103.771 572.67 103.408V99.904C572.136 99.2747 571.464 98.96 570.654 98.96C570.024 98.96 569.539 99.2053 569.198 99.696C568.867 100.176 568.702 100.875 568.702 101.792ZM580.857 106V94.368H582.857V106H580.857ZM585.198 106V97.584H586.494L586.782 98.944C587.155 98.4533 587.593 98.0747 588.094 97.808C588.606 97.5413 589.177 97.408 589.806 97.408C590.777 97.408 591.518 97.7013 592.03 98.288C592.542 98.864 592.798 99.7067 592.798 100.816V106H590.846V100.88C590.846 99.6427 590.318 99.024 589.262 99.024C588.803 99.024 588.382 99.1627 587.998 99.44C587.625 99.7173 587.342 100.091 587.15 100.56V106H585.198ZM595.555 106V99.104H594.083V98.128L595.555 97.568V96.88C595.555 94.864 596.526 93.856 598.467 93.856C598.766 93.856 599.038 93.8827 599.283 93.936V95.44C599.209 95.4293 599.129 95.424 599.043 95.424C598.969 95.4133 598.889 95.408 598.803 95.408C598.334 95.408 597.998 95.52 597.795 95.744C597.603 95.968 597.507 96.336 597.507 96.848V97.584H599.347V99.104H597.507V106H595.555ZM600.979 106V97.584H602.275L602.579 98.976C602.846 98.528 603.182 98.1813 603.587 97.936C603.993 97.68 604.467 97.552 605.011 97.552C605.214 97.552 605.401 97.568 605.571 97.6V99.344H605.107C604.521 99.344 604.041 99.5093 603.667 99.84C603.294 100.16 603.049 100.587 602.931 101.12V106H600.979ZM612.165 106L611.893 104.752C611.584 105.211 611.195 105.568 610.725 105.824C610.256 106.069 609.739 106.192 609.173 106.192C608.309 106.192 607.621 105.952 607.109 105.472C606.608 104.992 606.357 104.341 606.357 103.52C606.357 102.645 606.677 101.957 607.317 101.456C607.957 100.955 608.832 100.704 609.941 100.704H611.525V100.304C611.525 99.7707 611.413 99.408 611.189 99.216C610.965 99.024 610.571 98.928 610.005 98.928C609.163 98.928 608.203 99.1253 607.125 99.52V98C607.552 97.8187 608.037 97.6747 608.581 97.568C609.125 97.4613 609.659 97.408 610.181 97.408C612.368 97.408 613.461 98.368 613.461 100.288V106H612.165ZM609.573 104.72C609.968 104.72 610.341 104.619 610.693 104.416C611.045 104.203 611.333 103.909 611.557 103.536V101.952H610.165C608.875 101.952 608.229 102.421 608.229 103.36C608.229 103.787 608.347 104.123 608.581 104.368C608.816 104.603 609.147 104.72 609.573 104.72ZM615.252 105.616V104.032C615.785 104.245 616.265 104.4 616.692 104.496C617.118 104.581 617.566 104.624 618.036 104.624C619.177 104.624 619.748 104.299 619.748 103.648C619.748 103.403 619.652 103.205 619.46 103.056C619.278 102.896 618.958 102.752 618.5 102.624L617.252 102.288C616.494 102.075 615.94 101.781 615.588 101.408C615.236 101.024 615.06 100.533 615.06 99.936C615.06 99.1467 615.364 98.528 615.972 98.08C616.58 97.632 617.406 97.408 618.452 97.408C618.953 97.408 619.438 97.4507 619.908 97.536C620.377 97.6213 620.777 97.7387 621.108 97.888V99.44C620.244 99.1093 619.385 98.944 618.532 98.944C617.497 98.944 616.98 99.232 616.98 99.808C616.98 100.032 617.07 100.219 617.252 100.368C617.433 100.507 617.737 100.635 618.164 100.752L619.412 101.104C620.233 101.339 620.814 101.643 621.156 102.016C621.497 102.379 621.668 102.891 621.668 103.552C621.668 104.395 621.358 105.045 620.74 105.504C620.121 105.963 619.241 106.192 618.1 106.192C617.577 106.192 617.054 106.139 616.532 106.032C616.009 105.925 615.582 105.787 615.252 105.616ZM623.722 103.264V99.104H622.266V98.128L623.77 97.552L624.426 95.216H625.674V97.584H627.482V99.104H625.674V103.248C625.674 103.696 625.775 104.021 625.978 104.224C626.18 104.416 626.479 104.512 626.874 104.512C626.991 104.512 627.114 104.512 627.242 104.512C627.38 104.501 627.492 104.491 627.578 104.48V106.016C627.364 106.048 627.167 106.069 626.986 106.08C626.815 106.091 626.623 106.096 626.41 106.096C625.503 106.096 624.826 105.867 624.378 105.408C623.94 104.949 623.722 104.235 623.722 103.264ZM629.308 106V97.584H630.604L630.908 98.976C631.174 98.528 631.51 98.1813 631.916 97.936C632.321 97.68 632.796 97.552 633.34 97.552C633.542 97.552 633.729 97.568 633.9 97.6V99.344H633.436C632.849 99.344 632.369 99.5093 631.996 99.84C631.622 100.16 631.377 100.587 631.26 101.12V106H629.308ZM635.478 102.768V97.584H637.43V102.704C637.43 103.941 637.921 104.56 638.902 104.56C639.339 104.56 639.745 104.421 640.118 104.144C640.502 103.867 640.79 103.493 640.982 103.024V97.584H642.934V106H641.638L641.334 104.64C640.982 105.131 640.55 105.509 640.038 105.776C639.537 106.043 638.987 106.176 638.39 106.176C637.451 106.176 636.731 105.883 636.23 105.296C635.729 104.709 635.478 103.867 635.478 102.768ZM651.279 104.096V105.68C650.948 105.84 650.559 105.963 650.111 106.048C649.663 106.144 649.194 106.192 648.703 106.192C646.026 106.192 644.687 104.693 644.687 101.696C644.687 100.331 645.044 99.2747 645.759 98.528C646.484 97.7813 647.503 97.408 648.815 97.408C649.658 97.408 650.399 97.552 651.039 97.84V99.408C650.431 99.0987 649.812 98.944 649.183 98.944C647.498 98.944 646.655 99.8613 646.655 101.696C646.655 102.699 646.847 103.44 647.231 103.92C647.626 104.4 648.223 104.64 649.023 104.64C649.663 104.64 650.415 104.459 651.279 104.096ZM653.597 103.264V99.104H652.141V98.128L653.645 97.552L654.301 95.216H655.549V97.584H657.357V99.104H655.549V103.248C655.549 103.696 655.65 104.021 655.853 104.224C656.055 104.416 656.354 104.512 656.749 104.512C656.866 104.512 656.989 104.512 657.117 104.512C657.255 104.501 657.367 104.491 657.453 104.48V106.016C657.239 106.048 657.042 106.069 656.861 106.08C656.69 106.091 656.498 106.096 656.285 106.096C655.378 106.096 654.701 105.867 654.253 105.408C653.815 104.949 653.597 104.235 653.597 103.264ZM659.118 102.768V97.584H661.071V102.704C661.071 103.941 661.561 104.56 662.543 104.56C662.98 104.56 663.385 104.421 663.759 104.144C664.143 103.867 664.431 103.493 664.623 103.024V97.584H666.575V106H665.279L664.975 104.64C664.623 105.131 664.191 105.509 663.679 105.776C663.177 106.043 662.628 106.176 662.031 106.176C661.092 106.176 660.372 105.883 659.871 105.296C659.369 104.709 659.118 103.867 659.118 102.768ZM668.808 106V97.584H670.104L670.408 98.976C670.674 98.528 671.01 98.1813 671.416 97.936C671.821 97.68 672.296 97.552 672.84 97.552C673.042 97.552 673.229 97.568 673.4 97.6V99.344H672.936C672.349 99.344 671.869 99.5093 671.496 99.84C671.122 100.16 670.877 100.587 670.76 101.12V106H668.808ZM681.464 105.6C681.112 105.781 680.685 105.925 680.184 106.032C679.683 106.139 679.149 106.192 678.584 106.192C677.197 106.192 676.136 105.813 675.4 105.056C674.675 104.299 674.312 103.195 674.312 101.744C674.312 100.357 674.659 99.2907 675.352 98.544C676.056 97.7867 677.043 97.408 678.312 97.408C679.485 97.408 680.371 97.744 680.968 98.416C681.565 99.0773 681.864 100.027 681.864 101.264V102.352H676.248C676.323 103.152 676.563 103.733 676.968 104.096C677.384 104.459 677.987 104.64 678.776 104.64C679.245 104.64 679.688 104.597 680.104 104.512C680.52 104.416 680.973 104.267 681.464 104.064V105.6ZM678.296 98.88C677.016 98.88 676.328 99.5787 676.232 100.976H680.072C680.061 99.5787 679.469 98.88 678.296 98.88Z" fill="white"/>
<path d="M520.216 136V124.368H522.296L526.328 132.688L530.296 124.368H532.36V136H530.408V127.824L526.984 134.88H525.576L522.168 127.936V136H520.216ZM534.538 125.888V124.288H536.762V125.888H534.538ZM534.826 136V129.008L533.978 128.384V127.584H536.778V136H534.826ZM545.123 134.096V135.68C544.792 135.84 544.403 135.963 543.955 136.048C543.507 136.144 543.037 136.192 542.547 136.192C539.869 136.192 538.531 134.693 538.531 131.696C538.531 130.331 538.888 129.275 539.603 128.528C540.328 127.781 541.347 127.408 542.659 127.408C543.501 127.408 544.243 127.552 544.883 127.84V129.408C544.275 129.099 543.656 128.944 543.027 128.944C541.341 128.944 540.499 129.861 540.499 131.696C540.499 132.699 540.691 133.44 541.075 133.92C541.469 134.4 542.067 134.64 542.867 134.64C543.507 134.64 544.259 134.459 545.123 134.096ZM546.792 136V127.584H548.088L548.392 128.976C548.659 128.528 548.995 128.181 549.4 127.936C549.805 127.68 550.28 127.552 550.824 127.552C551.027 127.552 551.213 127.568 551.384 127.6V129.344H550.92C550.333 129.344 549.853 129.509 549.48 129.84C549.107 130.16 548.861 130.587 548.744 131.12V136H546.792ZM556.392 136.176C555.102 136.176 554.094 135.792 553.368 135.024C552.654 134.256 552.296 133.179 552.296 131.792C552.296 130.405 552.654 129.328 553.368 128.56C554.094 127.792 555.102 127.408 556.392 127.408C557.694 127.408 558.702 127.792 559.416 128.56C560.131 129.328 560.488 130.405 560.488 131.792C560.488 133.179 560.131 134.256 559.416 135.024C558.702 135.792 557.694 136.176 556.392 136.176ZM556.392 134.656C557.811 134.656 558.52 133.701 558.52 131.792C558.52 129.883 557.811 128.928 556.392 128.928C554.974 128.928 554.264 129.883 554.264 131.792C554.264 133.701 554.974 134.656 556.392 134.656ZM561.861 135.616V134.032C562.394 134.245 562.874 134.4 563.301 134.496C563.728 134.581 564.176 134.624 564.645 134.624C565.786 134.624 566.357 134.299 566.357 133.648C566.357 133.403 566.261 133.205 566.069 133.056C565.888 132.896 565.568 132.752 565.109 132.624L563.861 132.288C563.104 132.075 562.549 131.781 562.197 131.408C561.845 131.024 561.669 130.533 561.669 129.936C561.669 129.147 561.973 128.528 562.581 128.08C563.189 127.632 564.016 127.408 565.061 127.408C565.562 127.408 566.048 127.451 566.517 127.536C566.986 127.621 567.386 127.739 567.717 127.888V129.44C566.853 129.109 565.994 128.944 565.141 128.944C564.106 128.944 563.589 129.232 563.589 129.808C563.589 130.032 563.68 130.219 563.861 130.368C564.042 130.507 564.346 130.635 564.773 130.752L566.021 131.104C566.842 131.339 567.424 131.643 567.765 132.016C568.106 132.379 568.277 132.891 568.277 133.552C568.277 134.395 567.968 135.045 567.349 135.504C566.73 135.963 565.85 136.192 564.709 136.192C564.186 136.192 563.664 136.139 563.141 136.032C562.618 135.925 562.192 135.787 561.861 135.616ZM573.455 136.176C572.164 136.176 571.156 135.792 570.431 135.024C569.716 134.256 569.359 133.179 569.359 131.792C569.359 130.405 569.716 129.328 570.431 128.56C571.156 127.792 572.164 127.408 573.455 127.408C574.756 127.408 575.764 127.792 576.479 128.56C577.193 129.328 577.551 130.405 577.551 131.792C577.551 133.179 577.193 134.256 576.479 135.024C575.764 135.792 574.756 136.176 573.455 136.176ZM573.455 134.656C574.873 134.656 575.583 133.701 575.583 131.792C575.583 129.883 574.873 128.928 573.455 128.928C572.036 128.928 571.327 129.883 571.327 131.792C571.327 133.701 572.036 134.656 573.455 134.656ZM579.884 136V129.104H578.412V128.128L579.884 127.568V126.88C579.884 124.864 580.854 123.856 582.796 123.856C583.094 123.856 583.366 123.883 583.612 123.936V125.44C583.537 125.429 583.457 125.424 583.372 125.424C583.297 125.413 583.217 125.408 583.132 125.408C582.662 125.408 582.326 125.52 582.124 125.744C581.932 125.968 581.836 126.336 581.836 126.848V127.584H583.676V129.104H581.836V136H579.884ZM585.644 133.264V129.104H584.188V128.128L585.692 127.552L586.348 125.216H587.596V127.584H589.404V129.104H587.596V133.248C587.596 133.696 587.697 134.021 587.9 134.224C588.102 134.416 588.401 134.512 588.796 134.512C588.913 134.512 589.036 134.512 589.164 134.512C589.302 134.501 589.414 134.491 589.5 134.48V136.016C589.286 136.048 589.089 136.069 588.908 136.08C588.737 136.091 588.545 136.096 588.332 136.096C587.425 136.096 586.748 135.867 586.299 135.408C585.862 134.949 585.644 134.235 585.644 133.264ZM594.159 136L598.607 124.368H600.575L605.055 136H602.831L601.935 133.376H597.199L596.303 136H594.159ZM597.775 131.68H601.359L599.551 126.416L597.775 131.68ZM605.748 136V134.8L609.94 129.088H605.876V127.584H612.244V128.784L608.052 134.496H612.372V136H605.748ZM613.993 132.768V127.584H615.946V132.704C615.946 133.941 616.436 134.56 617.418 134.56C617.855 134.56 618.26 134.421 618.634 134.144C619.018 133.867 619.306 133.493 619.498 133.024V127.584H621.45V136H620.154L619.85 134.64C619.498 135.131 619.066 135.509 618.554 135.776C618.052 136.043 617.503 136.176 616.906 136.176C615.967 136.176 615.247 135.883 614.746 135.296C614.244 134.709 613.993 133.867 613.993 132.768ZM623.683 136V127.584H624.979L625.283 128.976C625.549 128.528 625.885 128.181 626.291 127.936C626.696 127.68 627.171 127.552 627.715 127.552C627.917 127.552 628.104 127.568 628.275 127.6V129.344H627.811C627.224 129.344 626.744 129.509 626.371 129.84C625.997 130.16 625.752 130.587 625.635 131.12V136H623.683ZM636.339 135.6C635.987 135.781 635.56 135.925 635.059 136.032C634.558 136.139 634.024 136.192 633.459 136.192C632.072 136.192 631.011 135.813 630.275 135.056C629.55 134.299 629.187 133.195 629.187 131.744C629.187 130.357 629.534 129.291 630.227 128.544C630.931 127.787 631.918 127.408 633.187 127.408C634.36 127.408 635.246 127.744 635.843 128.416C636.44 129.077 636.739 130.027 636.739 131.264V132.352H631.123C631.198 133.152 631.438 133.733 631.843 134.096C632.259 134.459 632.862 134.64 633.651 134.64C634.12 134.64 634.563 134.597 634.979 134.512C635.395 134.416 635.848 134.267 636.339 134.064V135.6ZM633.171 128.88C631.891 128.88 631.203 129.579 631.107 130.976H634.947C634.936 129.579 634.344 128.88 633.171 128.88Z" fill="white"/>
<path d="M561.128 166L565.576 154.368H567.544L572.024 166H569.8L568.904 163.376H564.168L563.272 166H561.128ZM564.744 161.68H568.328L566.52 156.416L564.744 161.68ZM574.492 166L571.804 154.368H573.82L575.74 162.88L578.028 155.008H579.74L582.108 162.928L584.028 154.368H585.98L583.292 166H581.372L578.86 157.696L576.412 166H574.492ZM587.082 165.536V163.76C588.276 164.229 589.428 164.464 590.538 164.464C591.316 164.464 591.924 164.32 592.362 164.032C592.81 163.744 593.034 163.349 593.034 162.848C593.034 162.475 592.895 162.171 592.618 161.936C592.34 161.691 591.823 161.435 591.066 161.168L589.85 160.72C588.815 160.336 588.074 159.888 587.626 159.376C587.188 158.853 586.97 158.219 586.97 157.472C586.97 156.448 587.354 155.643 588.122 155.056C588.89 154.459 589.935 154.16 591.258 154.16C591.812 154.16 592.367 154.219 592.922 154.336C593.487 154.453 593.978 154.613 594.394 154.816V156.592C593.295 156.133 592.255 155.904 591.274 155.904C589.748 155.904 588.986 156.395 588.986 157.376C588.986 157.728 589.124 158.016 589.402 158.24C589.679 158.464 590.186 158.715 590.922 158.992L592.154 159.44C593.231 159.835 593.983 160.288 594.41 160.8C594.847 161.312 595.066 161.973 595.066 162.784C595.066 163.851 594.687 164.688 593.93 165.296C593.172 165.904 592.111 166.208 590.746 166.208C590.308 166.208 589.855 166.176 589.386 166.112C588.927 166.059 588.495 165.984 588.09 165.888C587.684 165.781 587.348 165.664 587.082 165.536Z" fill="white"/>
<path d="M534.32 191.008V189.856H538.416V195.424C537.893 195.68 537.301 195.872 536.64 196C535.979 196.139 535.301 196.208 534.608 196.208C532.699 196.208 531.248 195.691 530.256 194.656C529.275 193.611 528.784 192.075 528.784 190.048C528.784 188.811 529.024 187.755 529.504 186.88C529.984 186.005 530.672 185.333 531.568 184.864C532.475 184.395 533.563 184.16 534.832 184.16C535.355 184.16 535.856 184.208 536.336 184.304C536.827 184.389 537.275 184.523 537.68 184.704V186.4C537.147 186.219 536.661 186.091 536.224 186.016C535.787 185.931 535.349 185.888 534.912 185.888C533.6 185.888 532.587 186.251 531.872 186.976C531.168 187.691 530.816 188.715 530.816 190.048C530.816 192.992 532.096 194.464 534.656 194.464C535.275 194.464 535.899 194.4 536.528 194.272V191.6L534.32 191.008ZM544.095 196.176C542.805 196.176 541.797 195.792 541.071 195.024C540.357 194.256 539.999 193.179 539.999 191.792C539.999 190.405 540.357 189.328 541.071 188.56C541.797 187.792 542.805 187.408 544.095 187.408C545.397 187.408 546.405 187.792 547.119 188.56C547.834 189.328 548.191 190.405 548.191 191.792C548.191 193.179 547.834 194.256 547.119 195.024C546.405 195.792 545.397 196.176 544.095 196.176ZM544.095 194.656C545.514 194.656 546.223 193.701 546.223 191.792C546.223 189.883 545.514 188.928 544.095 188.928C542.677 188.928 541.967 189.883 541.967 191.792C541.967 193.701 542.677 194.656 544.095 194.656ZM553.564 196.176C552.273 196.176 551.265 195.792 550.54 195.024C549.825 194.256 549.468 193.179 549.468 191.792C549.468 190.405 549.825 189.328 550.54 188.56C551.265 187.792 552.273 187.408 553.564 187.408C554.865 187.408 555.873 187.792 556.588 188.56C557.303 189.328 557.66 190.405 557.66 191.792C557.66 193.179 557.303 194.256 556.588 195.024C555.873 195.792 554.865 196.176 553.564 196.176ZM553.564 194.656C554.983 194.656 555.692 193.701 555.692 191.792C555.692 189.883 554.983 188.928 553.564 188.928C552.145 188.928 551.436 189.883 551.436 191.792C551.436 193.701 552.145 194.656 553.564 194.656ZM559.133 195.072L558.845 194.096L560.173 192.144C559.65 191.653 559.389 191.019 559.389 190.24C559.389 189.355 559.698 188.661 560.317 188.16C560.946 187.659 561.821 187.408 562.941 187.408C563.506 187.408 564.029 187.488 564.509 187.648L567.325 187.632V188.608L566.333 188.96C566.674 189.333 566.845 189.808 566.845 190.384C566.845 191.227 566.514 191.888 565.853 192.368C565.191 192.848 564.279 193.088 563.117 193.088C562.477 193.088 561.906 193.008 561.405 192.848L560.749 193.824L564.685 194.336C565.591 194.443 566.258 194.693 566.685 195.088C567.122 195.472 567.341 196.011 567.341 196.704C567.341 197.536 566.962 198.192 566.205 198.672C565.447 199.163 564.418 199.408 563.117 199.408C561.783 199.408 560.759 199.2 560.045 198.784C559.341 198.379 558.989 197.792 558.989 197.024C558.989 196.331 559.309 195.723 559.949 195.2L559.133 195.072ZM561.197 190.24C561.197 191.221 561.837 191.712 563.117 191.712C564.397 191.712 565.037 191.221 565.037 190.24C565.037 189.269 564.397 188.784 563.117 188.784C561.837 188.784 561.197 189.269 561.197 190.24ZM560.845 196.64C560.845 197.504 561.602 197.936 563.117 197.936C563.853 197.936 564.423 197.835 564.829 197.632C565.245 197.429 565.453 197.147 565.453 196.784C565.453 196.507 565.367 196.299 565.197 196.16C565.037 196.032 564.743 195.936 564.317 195.872L561.389 195.424C561.026 195.776 560.845 196.181 560.845 196.64ZM568.808 196V185.408L567.96 184.784V183.984H570.76V196H568.808ZM579.667 195.6C579.315 195.781 578.888 195.925 578.387 196.032C577.886 196.139 577.352 196.192 576.787 196.192C575.4 196.192 574.339 195.813 573.603 195.056C572.878 194.299 572.515 193.195 572.515 191.744C572.515 190.357 572.862 189.291 573.555 188.544C574.259 187.787 575.246 187.408 576.515 187.408C577.688 187.408 578.574 187.744 579.171 188.416C579.768 189.077 580.067 190.027 580.067 191.264V192.352H574.451C574.526 193.152 574.766 193.733 575.171 194.096C575.587 194.459 576.19 194.64 576.979 194.64C577.448 194.64 577.891 194.597 578.307 194.512C578.723 194.416 579.176 194.267 579.667 194.064V195.6ZM576.499 188.88C575.219 188.88 574.531 189.579 574.435 190.976H578.275C578.264 189.579 577.672 188.88 576.499 188.88ZM594.194 193.792V195.488C593.746 195.723 593.245 195.899 592.69 196.016C592.135 196.144 591.543 196.208 590.914 196.208C589.122 196.208 587.746 195.68 586.786 194.624C585.837 193.568 585.362 192.043 585.362 190.048C585.362 188.821 585.586 187.771 586.034 186.896C586.493 186.021 587.143 185.349 587.986 184.88C588.839 184.4 589.847 184.16 591.01 184.16C591.522 184.16 592.029 184.219 592.53 184.336C593.031 184.453 593.463 184.619 593.826 184.832V186.512C593.271 186.288 592.786 186.128 592.37 186.032C591.954 185.936 591.543 185.888 591.138 185.888C589.943 185.888 589.021 186.256 588.37 186.992C587.719 187.717 587.394 188.736 587.394 190.048C587.394 191.467 587.714 192.56 588.354 193.328C589.005 194.085 589.933 194.464 591.138 194.464C591.607 194.464 592.082 194.411 592.562 194.304C593.053 194.197 593.597 194.027 594.194 193.792ZM595.995 196V185.408L595.147 184.784V183.984H597.947V196H595.995ZM603.799 196.176C602.508 196.176 601.5 195.792 600.775 195.024C600.06 194.256 599.703 193.179 599.703 191.792C599.703 190.405 600.06 189.328 600.775 188.56C601.5 187.792 602.508 187.408 603.799 187.408C605.1 187.408 606.108 187.792 606.823 188.56C607.537 189.328 607.895 190.405 607.895 191.792C607.895 193.179 607.537 194.256 606.823 195.024C606.108 195.792 605.1 196.176 603.799 196.176ZM603.799 194.656C605.217 194.656 605.927 193.701 605.927 191.792C605.927 189.883 605.217 188.928 603.799 188.928C602.38 188.928 601.671 189.883 601.671 191.792C601.671 193.701 602.38 194.656 603.799 194.656ZM609.587 192.768V187.584H611.539V192.704C611.539 193.941 612.03 194.56 613.011 194.56C613.449 194.56 613.854 194.421 614.227 194.144C614.611 193.867 614.899 193.493 615.091 193.024V187.584H617.043V196H615.747L615.443 194.64C615.091 195.131 614.659 195.509 614.147 195.776C613.646 196.043 613.097 196.176 612.499 196.176C611.561 196.176 610.841 195.883 610.339 195.296C609.838 194.709 609.587 193.867 609.587 192.768ZM625.372 196L625.084 194.704C624.754 195.173 624.348 195.536 623.868 195.792C623.399 196.048 622.892 196.176 622.348 196.176C621.239 196.176 620.37 195.792 619.74 195.024C619.111 194.245 618.796 193.163 618.796 191.776C618.796 190.389 619.106 189.317 619.724 188.56C620.354 187.792 621.228 187.408 622.348 187.408C623.266 187.408 624.055 187.723 624.716 188.352V183.984H626.668V196H625.372ZM620.764 191.792C620.764 192.699 620.93 193.397 621.26 193.888C621.602 194.368 622.087 194.608 622.716 194.608C623.122 194.608 623.5 194.501 623.852 194.288C624.215 194.064 624.508 193.771 624.732 193.408V189.904C624.199 189.275 623.527 188.96 622.716 188.96C622.087 188.96 621.602 189.205 621.26 189.696C620.93 190.176 620.764 190.875 620.764 191.792Z" fill="white"/>
<g filter="url(#filter2_d_1146_18570)">
<rect x="241.25" y="24.25" width="158.5" height="31.5" rx="3.75" fill="#131B22" stroke="#C8CEDA" stroke-width="0.5"/>
<path d="M271.096 46.208C269.389 46.208 268.077 45.6853 267.16 44.64C266.243 43.5947 265.784 42.1067 265.784 40.176C265.784 38.256 266.243 36.7733 267.16 35.728C268.088 34.6827 269.4 34.16 271.096 34.16C272.792 34.16 274.099 34.6827 275.016 35.728C275.944 36.7733 276.408 38.256 276.408 40.176C276.408 42.1067 275.949 43.5947 275.032 44.64C274.115 45.6853 272.803 46.208 271.096 46.208ZM271.096 44.496C273.283 44.496 274.376 43.056 274.376 40.176C274.376 38.7573 274.099 37.6853 273.544 36.96C272.989 36.2347 272.173 35.872 271.096 35.872C270.019 35.872 269.203 36.2347 268.648 36.96C268.093 37.6853 267.816 38.7573 267.816 40.176C267.816 43.056 268.909 44.496 271.096 44.496ZM278.26 45.6V33.984H280.212V38.336C280.862 37.7173 281.63 37.408 282.516 37.408C283.625 37.408 284.473 37.776 285.06 38.512C285.657 39.248 285.956 40.304 285.956 41.68C285.956 43.0773 285.556 44.1813 284.756 44.992C283.966 45.792 282.873 46.192 281.476 46.192C280.942 46.192 280.372 46.1333 279.764 46.016C279.166 45.9093 278.665 45.7707 278.26 45.6ZM282.068 38.864C281.353 38.864 280.729 39.184 280.196 39.824V44.496C280.569 44.6133 280.985 44.672 281.444 44.672C283.14 44.672 283.988 43.6693 283.988 41.664C283.988 40.7573 283.822 40.064 283.492 39.584C283.161 39.104 282.686 38.864 282.068 38.864ZM287.554 35.888V34.288H289.778V35.888H287.554ZM286.722 48.32L287.058 47.952C287.58 47.3547 287.842 46.5493 287.842 45.536V39.008L286.994 38.384V37.584H289.794V45.552C289.794 46.0533 289.751 46.4907 289.666 46.864C289.591 47.248 289.452 47.6107 289.25 47.952C289.058 48.2933 288.775 48.6613 288.402 49.056L287.97 49.52L286.722 48.32ZM298.698 45.6C298.346 45.7813 297.92 45.9253 297.418 46.032C296.917 46.1387 296.384 46.192 295.818 46.192C294.432 46.192 293.37 45.8133 292.634 45.056C291.909 44.2987 291.546 43.1947 291.546 41.744C291.546 40.3573 291.893 39.2907 292.586 38.544C293.29 37.7867 294.277 37.408 295.546 37.408C296.72 37.408 297.605 37.744 298.202 38.416C298.8 39.0773 299.098 40.0267 299.098 41.264V42.352H293.482C293.557 43.152 293.797 43.7333 294.202 44.096C294.618 44.4587 295.221 44.64 296.01 44.64C296.48 44.64 296.922 44.5973 297.338 44.512C297.754 44.416 298.208 44.2667 298.698 44.064V45.6ZM295.53 38.88C294.25 38.88 293.562 39.5787 293.466 40.976H297.306C297.296 39.5787 296.704 38.88 295.53 38.88ZM307.076 44.096V45.68C306.745 45.84 306.356 45.9627 305.908 46.048C305.46 46.144 304.99 46.192 304.5 46.192C301.822 46.192 300.484 44.6933 300.484 41.696C300.484 40.3307 300.841 39.2747 301.556 38.528C302.281 37.7813 303.3 37.408 304.612 37.408C305.454 37.408 306.196 37.552 306.836 37.84V39.408C306.228 39.0987 305.609 38.944 304.98 38.944C303.294 38.944 302.452 39.8613 302.452 41.696C302.452 42.6987 302.644 43.44 303.028 43.92C303.422 44.4 304.02 44.64 304.82 44.64C305.46 44.64 306.212 44.4587 307.076 44.096ZM309.394 43.264V39.104H307.938V38.128L309.442 37.552L310.098 35.216H311.346V37.584H313.154V39.104H311.346V43.248C311.346 43.696 311.447 44.0213 311.65 44.224C311.852 44.416 312.151 44.512 312.546 44.512C312.663 44.512 312.786 44.512 312.914 44.512C313.052 44.5013 313.164 44.4907 313.25 44.48V46.016C313.036 46.048 312.839 46.0693 312.658 46.08C312.487 46.0907 312.295 46.096 312.082 46.096C311.175 46.096 310.498 45.8667 310.049 45.408C309.612 44.9493 309.394 44.2347 309.394 43.264ZM318.597 45.536V43.76C319.792 44.2293 320.944 44.464 322.053 44.464C322.832 44.464 323.44 44.32 323.877 44.032C324.325 43.744 324.549 43.3493 324.549 42.848C324.549 42.4747 324.411 42.1707 324.133 41.936C323.856 41.6907 323.339 41.4347 322.581 41.168L321.365 40.72C320.331 40.336 319.589 39.888 319.141 39.376C318.704 38.8533 318.485 38.2187 318.485 37.472C318.485 36.448 318.869 35.6427 319.637 35.056C320.405 34.4587 321.451 34.16 322.773 34.16C323.328 34.16 323.883 34.2187 324.437 34.336C325.003 34.4533 325.493 34.6133 325.909 34.816V36.592C324.811 36.1333 323.771 35.904 322.789 35.904C321.264 35.904 320.501 36.3947 320.501 37.376C320.501 37.728 320.64 38.016 320.917 38.24C321.195 38.464 321.701 38.7147 322.437 38.992L323.669 39.44C324.747 39.8347 325.499 40.288 325.925 40.8C326.363 41.312 326.581 41.9733 326.581 42.784C326.581 43.8507 326.203 44.688 325.445 45.296C324.688 45.904 323.627 46.208 322.261 46.208C321.824 46.208 321.371 46.176 320.901 46.112C320.443 46.0587 320.011 45.984 319.605 45.888C319.2 45.7813 318.864 45.664 318.597 45.536ZM328.425 43.264V39.104H326.969V38.128L328.473 37.552L329.129 35.216H330.377V37.584H332.185V39.104H330.377V43.248C330.377 43.696 330.478 44.0213 330.681 44.224C330.883 44.416 331.182 44.512 331.577 44.512C331.694 44.512 331.817 44.512 331.945 44.512C332.083 44.5013 332.195 44.4907 332.281 44.48V46.016C332.067 46.048 331.87 46.0693 331.689 46.08C331.518 46.0907 331.326 46.096 331.113 46.096C330.206 46.096 329.529 45.8667 329.081 45.408C328.643 44.9493 328.425 44.2347 328.425 43.264ZM337.47 46.176C336.18 46.176 335.172 45.792 334.446 45.024C333.732 44.256 333.374 43.1787 333.374 41.792C333.374 40.4053 333.732 39.328 334.446 38.56C335.172 37.792 336.18 37.408 337.47 37.408C338.772 37.408 339.78 37.792 340.494 38.56C341.209 39.328 341.566 40.4053 341.566 41.792C341.566 43.1787 341.209 44.256 340.494 45.024C339.78 45.792 338.772 46.176 337.47 46.176ZM337.47 44.656C338.889 44.656 339.598 43.7013 339.598 41.792C339.598 39.8827 338.889 38.928 337.47 38.928C336.052 38.928 335.342 39.8827 335.342 41.792C335.342 43.7013 336.052 44.656 337.47 44.656ZM343.323 46V37.584H344.619L344.923 38.976C345.19 38.528 345.526 38.1813 345.931 37.936C346.336 37.68 346.811 37.552 347.355 37.552C347.558 37.552 347.744 37.568 347.915 37.6V39.344H347.451C346.864 39.344 346.384 39.5093 346.011 39.84C345.638 40.16 345.392 40.5867 345.275 41.12V46H343.323ZM354.509 46L354.237 44.752C353.928 45.2107 353.538 45.568 353.069 45.824C352.6 46.0693 352.082 46.192 351.517 46.192C350.653 46.192 349.965 45.952 349.453 45.472C348.952 44.992 348.701 44.3413 348.701 43.52C348.701 42.6453 349.021 41.9573 349.661 41.456C350.301 40.9547 351.176 40.704 352.285 40.704H353.869V40.304C353.869 39.7707 353.757 39.408 353.533 39.216C353.309 39.024 352.914 38.928 352.349 38.928C351.506 38.928 350.546 39.1253 349.469 39.52V38C349.896 37.8187 350.381 37.6747 350.925 37.568C351.469 37.4613 352.002 37.408 352.525 37.408C354.712 37.408 355.805 38.368 355.805 40.288V46H354.509ZM351.917 44.72C352.312 44.72 352.685 44.6187 353.037 44.416C353.389 44.2027 353.677 43.9093 353.901 43.536V41.952H352.509C351.218 41.952 350.573 42.4213 350.573 43.36C350.573 43.7867 350.69 44.1227 350.925 44.368C351.16 44.6027 351.49 44.72 351.917 44.72ZM357.851 45.072L357.563 44.096L358.891 42.144C358.369 41.6533 358.107 41.0187 358.107 40.24C358.107 39.3547 358.417 38.6613 359.035 38.16C359.665 37.6587 360.539 37.408 361.659 37.408C362.225 37.408 362.747 37.488 363.227 37.648L366.043 37.632V38.608L365.051 38.96C365.393 39.3333 365.563 39.808 365.563 40.384C365.563 41.2267 365.233 41.888 364.571 42.368C363.91 42.848 362.998 43.088 361.835 43.088C361.195 43.088 360.625 43.008 360.123 42.848L359.467 43.824L363.403 44.336C364.31 44.4427 364.977 44.6933 365.403 45.088C365.841 45.472 366.059 46.0107 366.059 46.704C366.059 47.536 365.681 48.192 364.923 48.672C364.166 49.1627 363.137 49.408 361.835 49.408C360.502 49.408 359.478 49.2 358.763 48.784C358.059 48.3787 357.707 47.792 357.707 47.024C357.707 46.3307 358.027 45.7227 358.667 45.2L357.851 45.072ZM359.915 40.24C359.915 41.2213 360.555 41.712 361.835 41.712C363.115 41.712 363.755 41.2213 363.755 40.24C363.755 39.2693 363.115 38.784 361.835 38.784C360.555 38.784 359.915 39.2693 359.915 40.24ZM359.563 46.64C359.563 47.504 360.321 47.936 361.835 47.936C362.571 47.936 363.142 47.8347 363.547 47.632C363.963 47.4293 364.171 47.1467 364.171 46.784C364.171 46.5067 364.086 46.2987 363.915 46.16C363.755 46.032 363.462 45.936 363.035 45.872L360.107 45.424C359.745 45.776 359.563 46.1813 359.563 46.64ZM374.198 45.6C373.846 45.7813 373.42 45.9253 372.918 46.032C372.417 46.1387 371.884 46.192 371.318 46.192C369.932 46.192 368.87 45.8133 368.134 45.056C367.409 44.2987 367.046 43.1947 367.046 41.744C367.046 40.3573 367.393 39.2907 368.086 38.544C368.79 37.7867 369.777 37.408 371.046 37.408C372.22 37.408 373.105 37.744 373.702 38.416C374.3 39.0773 374.598 40.0267 374.598 41.264V42.352H368.982C369.057 43.152 369.297 43.7333 369.702 44.096C370.118 44.4587 370.721 44.64 371.51 44.64C371.98 44.64 372.422 44.5973 372.838 44.512C373.254 44.416 373.708 44.2667 374.198 44.064V45.6ZM371.03 38.88C369.75 38.88 369.062 39.5787 368.966 40.976H372.806C372.796 39.5787 372.204 38.88 371.03 38.88Z" fill="white"/>
<rect x="241.25" y="60.25" width="158.5" height="31.5" rx="3.75" fill="#131B22" stroke="#C8CEDA" stroke-width="0.5"/>
<path d="M299.921 79.792V81.488C299.473 81.7227 298.971 81.8987 298.417 82.016C297.862 82.144 297.27 82.208 296.641 82.208C294.849 82.208 293.473 81.68 292.513 80.624C291.563 79.568 291.089 78.0427 291.089 76.048C291.089 74.8213 291.313 73.7707 291.761 72.896C292.219 72.0213 292.87 71.3493 293.713 70.88C294.566 70.4 295.574 70.16 296.737 70.16C297.249 70.16 297.755 70.2187 298.257 70.336C298.758 70.4533 299.19 70.6187 299.553 70.832V72.512C298.998 72.288 298.513 72.128 298.097 72.032C297.681 71.936 297.27 71.888 296.865 71.888C295.67 71.888 294.747 72.256 294.097 72.992C293.446 73.7173 293.121 74.736 293.121 76.048C293.121 77.4667 293.441 78.56 294.081 79.328C294.731 80.0853 295.659 80.464 296.865 80.464C297.334 80.464 297.809 80.4107 298.289 80.304C298.779 80.1973 299.323 80.0267 299.921 79.792ZM307.142 82L306.87 80.752C306.56 81.2107 306.171 81.568 305.702 81.824C305.232 82.0693 304.715 82.192 304.15 82.192C303.286 82.192 302.598 81.952 302.086 81.472C301.584 80.992 301.334 80.3413 301.334 79.52C301.334 78.6453 301.654 77.9573 302.294 77.456C302.934 76.9547 303.808 76.704 304.918 76.704H306.502V76.304C306.502 75.7707 306.39 75.408 306.166 75.216C305.942 75.024 305.547 74.928 304.982 74.928C304.139 74.928 303.179 75.1253 302.102 75.52V74C302.528 73.8187 303.014 73.6747 303.558 73.568C304.102 73.4613 304.635 73.408 305.158 73.408C307.344 73.408 308.438 74.368 308.438 76.288V82H307.142ZM304.55 80.72C304.944 80.72 305.318 80.6187 305.67 80.416C306.022 80.2027 306.31 79.9093 306.534 79.536V77.952H305.142C303.851 77.952 303.206 78.4213 303.206 79.36C303.206 79.7867 303.323 80.1227 303.558 80.368C303.792 80.6027 304.123 80.72 304.55 80.72ZM316.724 80.096V81.68C316.394 81.84 316.004 81.9627 315.556 82.048C315.108 82.144 314.639 82.192 314.148 82.192C311.471 82.192 310.132 80.6933 310.132 77.696C310.132 76.3307 310.49 75.2747 311.204 74.528C311.93 73.7813 312.948 73.408 314.26 73.408C315.103 73.408 315.844 73.552 316.484 73.84V75.408C315.876 75.0987 315.258 74.944 314.628 74.944C312.943 74.944 312.1 75.8613 312.1 77.696C312.1 78.6987 312.292 79.44 312.676 79.92C313.071 80.4 313.668 80.64 314.468 80.64C315.108 80.64 315.86 80.4587 316.724 80.096ZM318.393 82V69.984H320.345V74.64C320.676 74.2453 321.06 73.9413 321.497 73.728C321.945 73.5147 322.447 73.408 323.001 73.408C323.972 73.408 324.713 73.7013 325.225 74.288C325.737 74.864 325.993 75.7067 325.993 76.816V82H324.041V76.88C324.041 75.6427 323.513 75.024 322.457 75.024C321.999 75.024 321.577 75.1627 321.193 75.44C320.82 75.7173 320.537 76.0907 320.345 76.56V82H318.393ZM328.015 71.888V70.288H330.239V71.888H328.015ZM328.303 82V75.008L327.455 74.384V73.584H330.255V82H328.303ZM332.487 82V73.584H333.783L334.071 74.944C334.445 74.4533 334.882 74.0747 335.383 73.808C335.895 73.5413 336.466 73.408 337.095 73.408C338.066 73.408 338.807 73.7013 339.319 74.288C339.831 74.864 340.087 75.7067 340.087 76.816V82H338.135V76.88C338.135 75.6427 337.607 75.024 336.551 75.024C336.093 75.024 335.671 75.1627 335.287 75.44C334.914 75.7173 334.631 76.0907 334.439 76.56V82H332.487ZM342.14 81.072L341.852 80.096L343.18 78.144C342.658 77.6533 342.396 77.0187 342.396 76.24C342.396 75.3547 342.706 74.6613 343.324 74.16C343.954 73.6587 344.828 73.408 345.948 73.408C346.514 73.408 347.036 73.488 347.516 73.648L350.332 73.632V74.608L349.34 74.96C349.682 75.3333 349.852 75.808 349.852 76.384C349.852 77.2267 349.522 77.888 348.86 78.368C348.199 78.848 347.287 79.088 346.124 79.088C345.484 79.088 344.914 79.008 344.412 78.848L343.756 79.824L347.692 80.336C348.599 80.4427 349.266 80.6933 349.692 81.088C350.13 81.472 350.348 82.0107 350.348 82.704C350.348 83.536 349.97 84.192 349.212 84.672C348.455 85.1627 347.426 85.408 346.124 85.408C344.791 85.408 343.767 85.2 343.052 84.784C342.348 84.3787 341.996 83.792 341.996 83.024C341.996 82.3307 342.316 81.7227 342.956 81.2L342.14 81.072ZM344.204 76.24C344.204 77.2213 344.844 77.712 346.124 77.712C347.404 77.712 348.044 77.2213 348.044 76.24C348.044 75.2693 347.404 74.784 346.124 74.784C344.844 74.784 344.204 75.2693 344.204 76.24ZM343.852 82.64C343.852 83.504 344.61 83.936 346.124 83.936C346.86 83.936 347.431 83.8347 347.836 83.632C348.252 83.4293 348.46 83.1467 348.46 82.784C348.46 82.5067 348.375 82.2987 348.204 82.16C348.044 82.032 347.751 81.936 347.324 81.872L344.396 81.424C344.034 81.776 343.852 82.1813 343.852 82.64Z" fill="white"/>
<rect x="241.25" y="96.25" width="158.5" height="31.5" rx="3.75" fill="#131B22" stroke="#C8CEDA" stroke-width="0.5"/>
<path d="M297.104 118V108.064H293.552V106.368H302.656V108.064H299.104V118H297.104ZM303.034 118V109.584H304.33L304.634 110.976C304.901 110.528 305.237 110.181 305.642 109.936C306.047 109.68 306.522 109.552 307.066 109.552C307.269 109.552 307.455 109.568 307.626 109.6V111.344H307.162C306.575 111.344 306.095 111.509 305.722 111.84C305.349 112.16 305.103 112.587 304.986 113.12V118H303.034ZM314.22 118L313.948 116.752C313.639 117.211 313.249 117.568 312.78 117.824C312.311 118.069 311.793 118.192 311.228 118.192C310.364 118.192 309.676 117.952 309.164 117.472C308.663 116.992 308.412 116.341 308.412 115.52C308.412 114.645 308.732 113.957 309.372 113.456C310.012 112.955 310.887 112.704 311.996 112.704H313.58V112.304C313.58 111.771 313.468 111.408 313.244 111.216C313.02 111.024 312.625 110.928 312.06 110.928C311.217 110.928 310.257 111.125 309.18 111.52V110C309.607 109.819 310.092 109.675 310.636 109.568C311.18 109.461 311.713 109.408 312.236 109.408C314.423 109.408 315.516 110.368 315.516 112.288V118H314.22ZM311.628 116.72C312.023 116.72 312.396 116.619 312.748 116.416C313.1 116.203 313.388 115.909 313.612 115.536V113.952H312.22C310.929 113.952 310.284 114.421 310.284 115.36C310.284 115.787 310.401 116.123 310.636 116.368C310.871 116.603 311.201 116.72 311.628 116.72ZM323.802 116.096V117.68C323.472 117.84 323.082 117.963 322.634 118.048C322.186 118.144 321.717 118.192 321.226 118.192C318.549 118.192 317.21 116.693 317.21 113.696C317.21 112.331 317.568 111.275 318.282 110.528C319.008 109.781 320.026 109.408 321.338 109.408C322.181 109.408 322.922 109.552 323.562 109.84V111.408C322.954 111.099 322.336 110.944 321.706 110.944C320.021 110.944 319.178 111.861 319.178 113.696C319.178 114.699 319.37 115.44 319.754 115.92C320.149 116.4 320.746 116.64 321.546 116.64C322.186 116.64 322.938 116.459 323.802 116.096ZM325.312 107.888V106.288H327.536V107.888H325.312ZM325.6 118V111.008L324.752 110.384V109.584H327.552V118H325.6ZM329.784 118V109.584H331.08L331.368 110.944C331.741 110.453 332.179 110.075 332.68 109.808C333.192 109.541 333.763 109.408 334.392 109.408C335.363 109.408 336.104 109.701 336.616 110.288C337.128 110.864 337.384 111.707 337.384 112.816V118H335.432V112.88C335.432 111.643 334.904 111.024 333.848 111.024C333.389 111.024 332.968 111.163 332.584 111.44C332.211 111.717 331.928 112.091 331.736 112.56V118H329.784ZM339.437 117.072L339.149 116.096L340.477 114.144C339.955 113.653 339.693 113.019 339.693 112.24C339.693 111.355 340.003 110.661 340.621 110.16C341.251 109.659 342.125 109.408 343.245 109.408C343.811 109.408 344.333 109.488 344.813 109.648L347.629 109.632V110.608L346.637 110.96C346.979 111.333 347.149 111.808 347.149 112.384C347.149 113.227 346.819 113.888 346.157 114.368C345.496 114.848 344.584 115.088 343.421 115.088C342.781 115.088 342.211 115.008 341.709 114.848L341.053 115.824L344.989 116.336C345.896 116.443 346.563 116.693 346.989 117.088C347.427 117.472 347.645 118.011 347.645 118.704C347.645 119.536 347.267 120.192 346.509 120.672C345.752 121.163 344.723 121.408 343.421 121.408C342.088 121.408 341.064 121.2 340.349 120.784C339.645 120.379 339.293 119.792 339.293 119.024C339.293 118.331 339.613 117.723 340.253 117.2L339.437 117.072ZM341.501 112.24C341.501 113.221 342.141 113.712 343.421 113.712C344.701 113.712 345.341 113.221 345.341 112.24C345.341 111.269 344.701 110.784 343.421 110.784C342.141 110.784 341.501 111.269 341.501 112.24ZM341.149 118.64C341.149 119.504 341.907 119.936 343.421 119.936C344.157 119.936 344.728 119.835 345.133 119.632C345.549 119.429 345.757 119.147 345.757 118.784C345.757 118.507 345.672 118.299 345.501 118.16C345.341 118.032 345.048 117.936 344.621 117.872L341.693 117.424C341.331 117.776 341.149 118.181 341.149 118.64Z" fill="white"/>
<rect x="241.25" y="132.25" width="158.5" height="31.5" rx="3.75" fill="#131B22" stroke="#C8CEDA" stroke-width="0.5"/>
<path d="M293.458 154V142.368H295.538L299.57 150.688L303.538 142.368H305.602V154H303.65V145.824L300.226 152.88H298.818L295.41 145.936V154H293.458ZM314.612 153.6C314.26 153.781 313.834 153.925 313.332 154.032C312.831 154.139 312.298 154.192 311.732 154.192C310.346 154.192 309.284 153.813 308.548 153.056C307.823 152.299 307.46 151.195 307.46 149.744C307.46 148.357 307.807 147.291 308.5 146.544C309.204 145.787 310.191 145.408 311.46 145.408C312.634 145.408 313.519 145.744 314.116 146.416C314.714 147.077 315.012 148.027 315.012 149.264V150.352H309.396C309.471 151.152 309.711 151.733 310.116 152.096C310.532 152.459 311.135 152.64 311.924 152.64C312.394 152.64 312.836 152.597 313.252 152.512C313.668 152.416 314.122 152.267 314.612 152.064V153.6ZM311.444 146.88C310.164 146.88 309.476 147.579 309.38 148.976H313.22C313.21 147.579 312.618 146.88 311.444 146.88ZM317.214 151.264V147.104H315.758V146.128L317.262 145.552L317.918 143.216H319.166V145.584H320.974V147.104H319.166V151.248C319.166 151.696 319.267 152.021 319.47 152.224C319.672 152.416 319.971 152.512 320.366 152.512C320.483 152.512 320.606 152.512 320.734 152.512C320.872 152.501 320.984 152.491 321.07 152.48V154.016C320.856 154.048 320.659 154.069 320.478 154.08C320.307 154.091 320.115 154.096 319.902 154.096C318.995 154.096 318.318 153.867 317.87 153.408C317.432 152.949 317.214 152.235 317.214 151.264ZM322.8 154V145.584H324.096L324.4 146.976C324.666 146.528 325.002 146.181 325.408 145.936C325.813 145.68 326.288 145.552 326.832 145.552C327.034 145.552 327.221 145.568 327.392 145.6V147.344H326.928C326.341 147.344 325.861 147.509 325.488 147.84C325.114 148.16 324.869 148.587 324.752 149.12V154H322.8ZM329.03 143.888V142.288H331.254V143.888H329.03ZM329.318 154V147.008L328.47 146.384V145.584H331.27V154H329.318ZM339.615 152.096V153.68C339.284 153.84 338.895 153.963 338.447 154.048C337.999 154.144 337.529 154.192 337.039 154.192C334.361 154.192 333.023 152.693 333.023 149.696C333.023 148.331 333.38 147.275 334.095 146.528C334.82 145.781 335.839 145.408 337.151 145.408C337.993 145.408 338.735 145.552 339.375 145.84V147.408C338.767 147.099 338.148 146.944 337.519 146.944C335.833 146.944 334.991 147.861 334.991 149.696C334.991 150.699 335.183 151.44 335.567 151.92C335.961 152.4 336.559 152.64 337.359 152.64C337.999 152.64 338.751 152.459 339.615 152.096ZM340.9 153.616V152.032C341.433 152.245 341.913 152.4 342.34 152.496C342.767 152.581 343.215 152.624 343.684 152.624C344.825 152.624 345.396 152.299 345.396 151.648C345.396 151.403 345.3 151.205 345.108 151.056C344.927 150.896 344.607 150.752 344.148 150.624L342.9 150.288C342.143 150.075 341.588 149.781 341.236 149.408C340.884 149.024 340.708 148.533 340.708 147.936C340.708 147.147 341.012 146.528 341.62 146.08C342.228 145.632 343.055 145.408 344.1 145.408C344.601 145.408 345.087 145.451 345.556 145.536C346.025 145.621 346.425 145.739 346.756 145.888V147.44C345.892 147.109 345.033 146.944 344.18 146.944C343.145 146.944 342.628 147.232 342.628 147.808C342.628 148.032 342.719 148.219 342.9 148.368C343.081 148.507 343.385 148.635 343.812 148.752L345.06 149.104C345.881 149.339 346.463 149.643 346.804 150.016C347.145 150.379 347.316 150.891 347.316 151.552C347.316 152.395 347.007 153.045 346.388 153.504C345.769 153.963 344.889 154.192 343.748 154.192C343.225 154.192 342.703 154.139 342.18 154.032C341.657 153.925 341.231 153.787 340.9 153.616Z" fill="white"/>
<rect x="241.25" y="188.25" width="158.5" height="31.5" rx="3.75" fill="#131B22" stroke="#C8CEDA" stroke-width="0.5"/>
<path d="M286.521 210V198.368H290.217C292.105 198.368 293.529 198.859 294.489 199.84C295.459 200.821 295.945 202.272 295.945 204.192C295.945 206.101 295.459 207.547 294.489 208.528C293.529 209.509 292.105 210 290.217 210H286.521ZM290.185 200.016H288.521V208.352H290.185C291.422 208.352 292.345 208.011 292.953 207.328C293.571 206.645 293.881 205.6 293.881 204.192C293.881 202.784 293.577 201.739 292.969 201.056C292.361 200.363 291.433 200.016 290.185 200.016ZM303.017 210L302.745 208.752C302.435 209.211 302.046 209.568 301.577 209.824C301.107 210.069 300.59 210.192 300.025 210.192C299.161 210.192 298.473 209.952 297.961 209.472C297.459 208.992 297.209 208.341 297.209 207.52C297.209 206.645 297.529 205.957 298.169 205.456C298.809 204.955 299.683 204.704 300.793 204.704H302.377V204.304C302.377 203.771 302.265 203.408 302.041 203.216C301.817 203.024 301.422 202.928 300.857 202.928C300.014 202.928 299.054 203.125 297.977 203.52V202C298.403 201.819 298.889 201.675 299.433 201.568C299.977 201.461 300.51 201.408 301.033 201.408C303.219 201.408 304.313 202.368 304.313 204.288V210H303.017ZM300.425 208.72C300.819 208.72 301.193 208.619 301.545 208.416C301.897 208.203 302.185 207.909 302.409 207.536V205.952H301.017C299.726 205.952 299.081 206.421 299.081 207.36C299.081 207.787 299.198 208.123 299.433 208.368C299.667 208.603 299.998 208.72 300.425 208.72ZM306.823 207.264V203.104H305.367V202.128L306.871 201.552L307.527 199.216H308.775V201.584H310.583V203.104H308.775V207.248C308.775 207.696 308.877 208.021 309.079 208.224C309.282 208.416 309.581 208.512 309.975 208.512C310.093 208.512 310.215 208.512 310.343 208.512C310.482 208.501 310.594 208.491 310.679 208.48V210.016C310.466 210.048 310.269 210.069 310.087 210.08C309.917 210.091 309.725 210.096 309.511 210.096C308.605 210.096 307.927 209.867 307.479 209.408C307.042 208.949 306.823 208.235 306.823 207.264ZM317.829 210L317.557 208.752C317.248 209.211 316.859 209.568 316.389 209.824C315.92 210.069 315.403 210.192 314.837 210.192C313.973 210.192 313.285 209.952 312.773 209.472C312.272 208.992 312.021 208.341 312.021 207.52C312.021 206.645 312.341 205.957 312.981 205.456C313.621 204.955 314.496 204.704 315.605 204.704H317.189V204.304C317.189 203.771 317.077 203.408 316.853 203.216C316.629 203.024 316.235 202.928 315.669 202.928C314.827 202.928 313.867 203.125 312.789 203.52V202C313.216 201.819 313.701 201.675 314.245 201.568C314.789 201.461 315.323 201.408 315.845 201.408C318.032 201.408 319.125 202.368 319.125 204.288V210H317.829ZM315.237 208.72C315.632 208.72 316.005 208.619 316.357 208.416C316.709 208.203 316.997 207.909 317.221 207.536V205.952H315.829C314.539 205.952 313.893 206.421 313.893 207.36C313.893 207.787 314.011 208.123 314.245 208.368C314.48 208.603 314.811 208.72 315.237 208.72ZM321.252 209.6V197.984H323.204V202.336C323.854 201.717 324.622 201.408 325.508 201.408C326.617 201.408 327.465 201.776 328.052 202.512C328.649 203.248 328.948 204.304 328.948 205.68C328.948 207.077 328.548 208.181 327.748 208.992C326.958 209.792 325.865 210.192 324.468 210.192C323.934 210.192 323.364 210.133 322.756 210.016C322.158 209.909 321.657 209.771 321.252 209.6ZM325.06 202.864C324.345 202.864 323.721 203.184 323.188 203.824V208.496C323.561 208.613 323.977 208.672 324.436 208.672C326.132 208.672 326.98 207.669 326.98 205.664C326.98 204.757 326.814 204.064 326.484 203.584C326.153 203.104 325.678 202.864 325.06 202.864ZM335.97 210L335.698 208.752C335.389 209.211 334.999 209.568 334.53 209.824C334.061 210.069 333.543 210.192 332.978 210.192C332.114 210.192 331.426 209.952 330.914 209.472C330.413 208.992 330.162 208.341 330.162 207.52C330.162 206.645 330.482 205.957 331.122 205.456C331.762 204.955 332.637 204.704 333.746 204.704H335.33V204.304C335.33 203.771 335.218 203.408 334.994 203.216C334.77 203.024 334.375 202.928 333.81 202.928C332.967 202.928 332.007 203.125 330.93 203.52V202C331.357 201.819 331.842 201.675 332.386 201.568C332.93 201.461 333.463 201.408 333.986 201.408C336.173 201.408 337.266 202.368 337.266 204.288V210H335.97ZM333.378 208.72C333.773 208.72 334.146 208.619 334.498 208.416C334.85 208.203 335.138 207.909 335.362 207.536V205.952H333.97C332.679 205.952 332.034 206.421 332.034 207.36C332.034 207.787 332.151 208.123 332.386 208.368C332.621 208.603 332.951 208.72 333.378 208.72ZM339.056 209.616V208.032C339.59 208.245 340.07 208.4 340.496 208.496C340.923 208.581 341.371 208.624 341.84 208.624C342.982 208.624 343.552 208.299 343.552 207.648C343.552 207.403 343.456 207.205 343.264 207.056C343.083 206.896 342.763 206.752 342.304 206.624L341.056 206.288C340.299 206.075 339.744 205.781 339.392 205.408C339.04 205.024 338.864 204.533 338.864 203.936C338.864 203.147 339.168 202.528 339.776 202.08C340.384 201.632 341.211 201.408 342.256 201.408C342.758 201.408 343.243 201.451 343.712 201.536C344.182 201.621 344.582 201.739 344.912 201.888V203.44C344.048 203.109 343.19 202.944 342.336 202.944C341.302 202.944 340.784 203.232 340.784 203.808C340.784 204.032 340.875 204.219 341.056 204.368C341.238 204.507 341.542 204.635 341.968 204.752L343.216 205.104C344.038 205.339 344.619 205.643 344.96 206.016C345.302 206.379 345.472 206.891 345.472 207.552C345.472 208.395 345.163 209.045 344.544 209.504C343.926 209.963 343.046 210.192 341.904 210.192C341.382 210.192 340.859 210.139 340.336 210.032C339.814 209.925 339.387 209.787 339.056 209.616ZM353.706 209.6C353.354 209.781 352.927 209.925 352.426 210.032C351.925 210.139 351.391 210.192 350.826 210.192C349.439 210.192 348.378 209.813 347.642 209.056C346.917 208.299 346.554 207.195 346.554 205.744C346.554 204.357 346.901 203.291 347.594 202.544C348.298 201.787 349.285 201.408 350.554 201.408C351.727 201.408 352.613 201.744 353.21 202.416C353.807 203.077 354.106 204.027 354.106 205.264V206.352H348.49C348.565 207.152 348.805 207.733 349.21 208.096C349.626 208.459 350.229 208.64 351.018 208.64C351.487 208.64 351.93 208.597 352.346 208.512C352.762 208.416 353.215 208.267 353.706 208.064V209.6ZM350.538 202.88C349.258 202.88 348.57 203.579 348.474 204.976H352.314C352.303 203.579 351.711 202.88 350.538 202.88Z" fill="white"/>
<circle cx="296" cy="176" r="4" fill="white"/>
<circle cx="320" cy="176" r="4" fill="white"/>
<circle cx="344" cy="176" r="4" fill="white"/>
</g>
<path fill-rule="evenodd" clip-rule="evenodd" d="M201 39H240C240.552 39 241 39.4477 241 40V40C241 40.5523 240.552 41 240 41H203C201.895 41 201 41.8954 201 43V73C201 74.1046 201.895 75 203 75H240C240.552 75 241 75.4477 241 76V76C241 76.5523 240.552 77 240 77H203C201.895 77 201 77.8954 201 79V109C201 110.105 201.895 111 203 111H240C240.552 111 241 111.448 241 112V112C241 112.552 240.552 113 240 113H203C201.895 113 201 113.895 201 115V145C201 146.105 201.895 147 203 147H240C240.552 147 241 147.448 241 148V148C241 148.552 240.552 149 240 149H203C201.895 149 201 149.895 201 151V201C201 202.105 201.895 203 203 203H240C240.552 203 241 203.448 241 204V204C241 204.552 240.552 205 240 205H201V205C199.895 205 199 204.105 199 203L199 127C199 125.895 198.105 125 197 125H177C176.448 125 176 124.552 176 124V124C176 123.448 176.448 123 177 123H197C198.105 123 199 122.105 199 121L199 41C199 39.8954 199.895 39 201 39V39Z" fill="#FF9142"/>
<path fill-rule="evenodd" clip-rule="evenodd" d="M440 39H401C400.448 39 400 39.4477 400 40V40C400 40.5523 400.448 41 401 41H438C439.105 41 440 41.8954 440 43V73C440 74.1046 439.105 75 438 75H401C400.448 75 400 75.4477 400 76V76C400 76.5523 400.448 77 401 77H438C439.105 77 440 77.8954 440 79V109C440 110.105 439.105 111 438 111H401C400.448 111 400 111.448 400 112V112C400 112.552 400.448 113 401 113H438C439.105 113 440 113.895 440 115V145C440 146.105 439.105 147 438 147H401C400.448 147 400 147.448 400 148V148C400 148.552 400.448 149 401 149H438C439.105 149 440 149.895 440 151V201C440 202.105 439.105 203 438 203H401C400.448 203 400 203.448 400 204V204C400 204.552 400.448 205 401 205H440V205C441.105 205 442 204.105 442 203L442 127C442 125.895 442.895 125 444 125H464C464.552 125 465 124.552 465 124V124C465 123.448 464.552 123 464 123H444C442.895 123 442 122.105 442 121L442 41C442 39.8954 441.105 39 440 39V39Z" fill="#FF9142"/>
<defs>
<filter id="filter0_d_1146_18570" x="0" y="20" width="186" height="212" filterUnits="userSpaceOnUse" color-interpolation-filters="sRGB">
<feFlood flood-opacity="0" result="BackgroundImageFix"/>
<feColorMatrix in="SourceAlpha" type="matrix" values="0 0 0 0 0 0 0 0 0 0 0 0 0 0 0 0 0 0 127 0" result="hardAlpha"/>
<feOffset dx="2" dy="4"/>
<feGaussianBlur stdDeviation="4"/>
<feColorMatrix type="matrix" values="0 0 0 0 0.113725 0 0 0 0 0.282353 0 0 0 0 0.360784 0 0 0 0.25 0"/>
<feBlend mode="normal" in2="BackgroundImageFix" result="effect1_dropShadow_1146_18570"/>
<feBlend mode="normal" in="SourceGraphic" in2="effect1_dropShadow_1146_18570" result="shape"/>
</filter>
<filter id="filter1_d_1146_18570" x="459" y="20" width="250" height="212" filterUnits="userSpaceOnUse" color-interpolation-filters="sRGB">
<feFlood flood-opacity="0" result="BackgroundImageFix"/>
<feColorMatrix in="SourceAlpha" type="matrix" values="0 0 0 0 0 0 0 0 0 0 0 0 0 0 0 0 0 0 127 0" result="hardAlpha"/>
<feOffset dx="2" dy="4"/>
<feGaussianBlur stdDeviation="4"/>
<feColorMatrix type="matrix" values="0 0 0 0 0.113725 0 0 0 0 0.282353 0 0 0 0 0.360784 0 0 0 0.25 0"/>
<feBlend mode="normal" in2="BackgroundImageFix" result="effect1_dropShadow_1146_18570"/>
<feBlend mode="normal" in="SourceGraphic" in2="effect1_dropShadow_1146_18570" result="shape"/>
</filter>
<filter id="filter2_d_1146_18570" x="217" y="0" width="207" height="244" filterUnits="userSpaceOnUse" color-interpolation-filters="sRGB">
<feFlood flood-opacity="0" result="BackgroundImageFix"/>
<feColorMatrix in="SourceAlpha" type="matrix" values="0 0 0 0 0 0 0 0 0 0 0 0 0 0 0 0 0 0 127 0" result="hardAlpha"/>
<feOffset/>
<feGaussianBlur stdDeviation="12"/>
<feComposite in2="hardAlpha" operator="out"/>
<feColorMatrix type="matrix" values="0 0 0 0 0.478431 0 0 0 0 0.67451 0 0 0 0 0.776471 0 0 0 0.35 0"/>
<feBlend mode="normal" in2="BackgroundImageFix" result="effect1_dropShadow_1146_18570"/>
<feBlend mode="normal" in="SourceGraphic" in2="effect1_dropShadow_1146_18570" result="shape"/>
</filter>
<linearGradient id="paint0_linear_1146_18570" x1="91" y1="24" x2="91" y2="220" gradientUnits="userSpaceOnUse">
<stop stop-color="#0F1418"/>
<stop offset="1" stop-color="#16222C"/>
</linearGradient>
<linearGradient id="paint1_linear_1146_18570" x1="582" y1="24" x2="582" y2="220" gradientUnits="userSpaceOnUse">
<stop stop-color="#0F1418"/>
<stop offset="1" stop-color="#16222C"/>
</linearGradient>
</defs>
</svg>
