<svg width="130" height="26" viewBox="0 0 130 26" fill="none" xmlns="http://www.w3.org/2000/svg">
<g clip-path="url(#clip0_1166_806)">
<path d="M8.66678 25.9982C3.22168 25.9982 0 22.1228 0 13.807C0 5.27648 4.17457 0.869996 9.61967 0.869996C10.9008 0.889742 12.1608 1.19899 13.3044 1.77442C14.4481 2.34984 15.4457 3.17642 16.2218 4.1918L14.5203 5.85271C13.2045 4.71543 11.5415 4.05447 9.80117 3.97713C6.31858 3.97713 4.06113 7.05037 4.06113 13.1178C4.06113 20.1342 6.13708 22.8459 9.32473 22.8459C10.5025 22.879 11.6559 22.5081 12.5918 21.7951V14.8916H9.41548V11.9992H16.4941V23.1284C14.3362 25.0247 11.5441 26.0485 8.66678 25.9982ZM29.948 11.0275C29.4502 10.8787 28.9358 10.7914 28.4166 10.7676C27.3616 10.7676 26.386 11.5698 24.605 13.7731V25.6367H20.8729V7.6266H23.9584L24.276 10.6998C26.2386 8.16894 27.475 7.31024 28.8136 7.31024C29.3716 7.31749 29.9199 7.45692 30.4131 7.71699L29.948 11.0275ZM43.1183 25.6367L42.8234 23.682C41.3163 25.1103 39.3224 25.9176 37.2422 25.9417C33.6802 25.9417 31.7971 24.134 31.7971 20.9477C31.7971 17.2644 34.6671 14.8013 41.0084 14.8013H42.3129V13.2307C42.3129 11.0614 41.1785 10.0106 38.5694 10.0106C36.7565 10.0592 34.9651 10.4145 33.2718 11.0614L32.7273 8.80166C34.8676 7.84099 37.1861 7.33682 39.5337 7.32154C44.0712 7.32154 45.9997 9.49088 45.9997 12.7788V25.6593L43.1183 25.6367ZM42.3129 17.2418H40.7588C36.641 17.2418 35.5066 18.6089 35.5066 20.4958C35.4677 20.8708 35.5131 21.2498 35.6394 21.6052C35.7658 21.9606 35.9699 22.2836 36.237 22.5507C36.5041 22.8178 36.8276 23.0225 37.1839 23.1497C37.5402 23.277 37.9205 23.3237 38.2972 23.2866C39.8055 23.1653 41.2249 22.5263 42.3129 21.4788V17.2418ZM60.7468 25.6367L60.4632 23.682C58.9508 25.1091 56.9539 25.916 54.8707 25.9417C51.3087 25.9417 49.4256 24.134 49.4256 20.9477C49.4256 17.2644 52.2956 14.8013 58.6482 14.8013H59.9528V13.2307C59.9528 11.0614 58.8184 10.0106 56.2093 10.0106C54.3964 10.0592 52.6049 10.4145 50.9116 11.0614L50.3671 8.80166C52.508 7.84257 54.8261 7.33848 57.1735 7.32154C61.7111 7.32154 63.6282 9.49088 63.6282 12.7788V25.6593L60.7468 25.6367ZM59.9528 17.2418H58.3987C54.2241 17.2418 53.1351 18.6202 53.1351 20.4958C53.0983 20.8704 53.1451 21.2484 53.2722 21.6029C53.3993 21.9573 53.6035 22.2794 53.8701 22.5461C54.1368 22.8128 54.4593 23.0175 54.8147 23.1455C55.1701 23.2735 55.5494 23.3216 55.9257 23.2866C57.4388 23.1707 58.8634 22.5311 59.9528 21.4788V17.2418ZM71.2967 25.8852C69.0279 25.8852 67.9956 25.2299 67.9956 22.3036V0H71.8072V20.8686C71.8072 22.9702 72.0681 23.2979 73.1117 23.2979C73.4407 23.2979 73.8378 23.2979 74.0987 23.2979L74.2802 25.5576C73.3308 25.8141 72.3477 25.9246 71.3648 25.8852H71.2967Z" fill="white"/>
<path d="M87.3362 25.637H82.6852C79.8059 17.6635 77.4527 9.51109 75.6406 1.23193H79.9286C81.1992 7.73996 83.2638 14.6434 85.3397 21.5695C87.372 14.895 88.9934 8.10319 90.1949 1.23193H94.0859C92.4875 9.53196 90.2306 17.6926 87.3362 25.637V25.637ZM117.284 25.637C117.137 18.5415 116.626 11.2087 116.15 6.18075L109.979 25.637H106.746L100.507 6.18075C100.041 11.5702 99.7125 18.5415 99.5991 25.637H95.8669C96.0824 17.728 96.661 9.18619 97.6365 1.23193H102.798L108.674 19.1629L114.562 1.23193H119.451C120.393 9.141 121.119 17.7167 121.334 25.637H117.284ZM124.181 23.1513H123.297V22.6542H125.713V23.1287H124.828V25.6144H124.181V23.1513ZM126.348 22.6542H127.392L128.027 24.8235L128.708 22.6542H129.729V25.637H129.082V23.1287L128.277 25.6822H127.743L126.949 23.1287V25.6822H126.348V22.6542Z" fill="#F29111"/>
</g>
<defs>
<clipPath id="clip0_1166_806">
<rect width="129.729" height="26" fill="white"/>
</clipPath>
</defs>
</svg>
