<svg width="54" height="18" viewBox="0 0 54 18" fill="none" xmlns="http://www.w3.org/2000/svg">
<path d="M7.958 10.097V8.441H13.846V16.445C13.0947 16.813 12.2437 17.089 11.293 17.273C10.3423 17.4723 9.36867 17.572 8.372 17.572C5.62733 17.572 3.542 16.8283 2.116 15.341C0.705333 13.8383 0 11.6303 0 8.717C0 6.93833 0.345 5.42033 1.035 4.163C1.725 2.90567 2.714 1.93967 4.002 1.265C5.30533 0.590334 6.86933 0.253001 8.694 0.253001C9.44533 0.253001 10.166 0.322001 10.856 0.460001C11.5613 0.582667 12.2053 0.774333 12.788 1.035V3.473C12.0213 3.21233 11.3237 3.02833 10.695 2.921C10.0663 2.79833 9.43767 2.737 8.809 2.737C6.923 2.737 5.46633 3.25833 4.439 4.301C3.427 5.32833 2.921 6.80033 2.921 8.717C2.921 12.949 4.761 15.065 8.441 15.065C9.33033 15.065 10.2273 14.973 11.132 14.789V10.948L7.958 10.097Z" fill="white"/>
<path d="M16.5875 17.273V5.175H18.4505L18.8875 7.176C19.2708 6.532 19.7538 6.03367 20.3365 5.681C20.9192 5.313 21.6015 5.129 22.3835 5.129C22.6748 5.129 22.9432 5.152 23.1885 5.198V7.705H22.5215C21.6782 7.705 20.9882 7.94267 20.4515 8.418C19.9148 8.878 19.5622 9.49133 19.3935 10.258V17.273H16.5875Z" fill="white"/>
<path d="M32.6672 17.273L32.2762 15.479C31.8315 16.1383 31.2719 16.652 30.5972 17.02C29.9225 17.3727 29.1789 17.549 28.3662 17.549C27.1242 17.549 26.1352 17.204 25.3992 16.514C24.6785 15.824 24.3182 14.8887 24.3182 13.708C24.3182 12.4507 24.7782 11.4617 25.6982 10.741C26.6182 10.0203 27.8755 9.66 29.4702 9.66H31.7472V9.085C31.7472 8.31833 31.5862 7.797 31.2642 7.521C30.9422 7.245 30.3749 7.107 29.5622 7.107C28.3509 7.107 26.9709 7.39067 25.4222 7.958V5.773C26.0355 5.51233 26.7332 5.30533 27.5152 5.152C28.2972 4.99867 29.0639 4.922 29.8152 4.922C32.9585 4.922 34.5302 6.302 34.5302 9.062V17.273H32.6672ZM28.9412 15.433C29.5085 15.433 30.0452 15.2873 30.5512 14.996C31.0572 14.6893 31.4712 14.2677 31.7932 13.731V11.454H29.7922C27.9369 11.454 27.0092 12.1287 27.0092 13.478C27.0092 14.0913 27.1779 14.5743 27.5152 14.927C27.8525 15.2643 28.3279 15.433 28.9412 15.433Z" fill="white"/>
<path d="M45.2229 17.273L44.8319 15.479C44.3872 16.1383 43.8275 16.652 43.1529 17.02C42.4782 17.3727 41.7345 17.549 40.9219 17.549C39.6799 17.549 38.6909 17.204 37.9549 16.514C37.2342 15.824 36.8739 14.8887 36.8739 13.708C36.8739 12.4507 37.3339 11.4617 38.2539 10.741C39.1739 10.0203 40.4312 9.66 42.0259 9.66H44.3029V9.085C44.3029 8.31833 44.1419 7.797 43.8199 7.521C43.4979 7.245 42.9305 7.107 42.1179 7.107C40.9065 7.107 39.5265 7.39067 37.9779 7.958V5.773C38.5912 5.51233 39.2889 5.30533 40.0709 5.152C40.8529 4.99867 41.6195 4.922 42.3709 4.922C45.5142 4.922 47.0859 6.302 47.0859 9.062V17.273H45.2229ZM41.4969 15.433C42.0642 15.433 42.6009 15.2873 43.1069 14.996C43.6129 14.6893 44.0269 14.2677 44.3489 13.731V11.454H42.3479C40.4925 11.454 39.5649 12.1287 39.5649 13.478C39.5649 14.0913 39.7335 14.5743 40.0709 14.927C40.4082 15.2643 40.8835 15.433 41.4969 15.433Z" fill="white"/>
<path d="M50.2115 17.273V2.047L48.9925 1.15V0H53.0175V17.273H50.2115Z" fill="white"/>
</svg>
