<svg width="84" height="84" viewBox="0 0 84 84" fill="none" xmlns="http://www.w3.org/2000/svg">
<g clip-path="url(#clip0_1123_13389)">
<g filter="url(#filter0_d_1123_13389)">
<path d="M64.8545 33.5516C64.9278 33.5082 64.9891 33.4459 65.0315 33.371C65.0739 33.2962 65.0959 33.2113 65.0959 33.125C65.0959 33.0387 65.0739 32.9538 65.0315 32.879C64.9891 32.8041 64.9278 32.7419 64.8545 32.6983L46.2513 21.74C45.061 21.0404 43.7096 20.672 42.3338 20.672C40.958 20.672 39.6066 21.0404 38.4162 21.74L19.8169 32.6983C19.7433 32.7419 19.6823 32.8041 19.6399 32.879C19.5975 32.9538 19.5752 33.0387 19.5752 33.125C19.5752 33.2113 19.5975 33.2962 19.6399 33.371C19.6823 33.4459 19.7433 33.5082 19.8169 33.5516L42.0908 46.8366C42.1657 46.8813 42.2511 46.9049 42.3381 46.9049C42.425 46.9049 42.5104 46.8813 42.5853 46.8366L64.8545 33.5516Z" fill="url(#paint0_linear_1123_13389)"/>
<path fill-rule="evenodd" clip-rule="evenodd" d="M64.5862 33.1251L42.3381 46.3975L20.0851 33.125L38.6663 22.1773C38.6662 22.1774 38.6664 22.1773 38.6663 22.1773C39.7806 21.5225 41.0459 21.1776 42.3338 21.1776C43.6216 21.1776 44.887 21.5226 46.0013 22.1773M38.4162 21.74C39.6066 21.0404 40.958 20.672 42.3338 20.672C43.7096 20.672 45.061 21.0404 46.2513 21.74L64.8545 32.6983C64.9278 32.7419 64.9891 32.8041 65.0315 32.879C65.0739 32.9538 65.0959 33.0387 65.0959 33.125C65.0959 33.2113 65.0739 33.2962 65.0315 33.371C64.9891 33.4459 64.9278 33.5082 64.8545 33.5516L42.5853 46.8366C42.5104 46.8813 42.425 46.9049 42.3381 46.9049C42.2511 46.9049 42.1657 46.8813 42.0908 46.8366L19.8169 33.5516C19.7433 33.5082 19.6823 33.4459 19.6399 33.371C19.5975 33.2962 19.5752 33.2113 19.5752 33.125C19.5752 33.0387 19.5975 32.9538 19.6399 32.879C19.6823 32.8041 19.7433 32.7419 19.8169 32.6983L38.4162 21.74Z" fill="#C5ECFF" fill-opacity="0.56"/>
<path d="M17.7308 36.9113C17.6565 36.8678 17.5722 36.8449 17.4864 36.8451C17.4006 36.8452 17.3164 36.8683 17.2422 36.9121C17.1681 36.9558 17.1066 37.0186 17.0641 37.0941C17.0216 37.1697 16.9995 37.2553 17 37.3422V58.8156C17.0019 59.8505 17.2709 60.8667 17.7803 61.7636C18.2896 62.66 19.0217 63.4062 19.9036 63.9269L39.654 75.9338C39.728 75.9772 39.812 76 39.8975 76C39.9829 76 40.0669 75.9772 40.141 75.9338C40.215 75.8908 40.2765 75.8281 40.3193 75.7533C40.3621 75.6784 40.3847 75.593 40.3847 75.5065V50.5926C40.3847 50.5059 40.3621 50.4209 40.3194 50.3459C40.2766 50.2709 40.2152 50.2086 40.1412 50.1653L17.7308 36.9113Z" fill="url(#paint1_linear_1123_13389)"/>
<path fill-rule="evenodd" clip-rule="evenodd" d="M19.9036 63.9269L39.654 75.9338C39.728 75.9772 39.812 76 39.8975 76C39.9829 76 40.0669 75.9772 40.141 75.9338C40.215 75.8908 40.2765 75.8281 40.3193 75.7533C40.3621 75.6784 40.3847 75.593 40.3847 75.5065V50.5926C40.3847 50.5059 40.3621 50.4209 40.3194 50.3459C40.2766 50.2709 40.2152 50.2086 40.1412 50.1653L17.7308 36.9113C17.6565 36.8678 17.5722 36.8449 17.4864 36.8451C17.4006 36.8452 17.3164 36.8683 17.2422 36.9121C17.1681 36.9558 17.1066 37.0186 17.0641 37.0941C17.0216 37.1697 16.9995 37.2553 17 37.3422V58.8156C17.0019 59.8505 17.2709 60.8667 17.7803 61.7636C18.2896 62.66 19.0217 63.4062 19.9036 63.9269ZM17.4986 58.8151C17.5004 59.7615 17.7465 60.6913 18.2124 61.5113C18.6783 62.3314 19.3479 63.0134 20.1546 63.4901L20.1601 63.4932L39.8861 75.4853V50.5998L17.4986 37.3593V58.8151Z" fill="#C5ECFF" fill-opacity="0.56"/>
<path d="M44.2812 50.6791V75.5006C44.2813 75.587 44.3039 75.672 44.3467 75.7473C44.3895 75.8221 44.451 75.8843 44.525 75.9278C44.5991 75.9713 44.6831 75.994 44.7686 75.994C44.854 75.994 44.938 75.9708 45.012 75.9278L64.7614 63.921C65.6424 63.4007 66.374 62.656 66.8836 61.7602C67.3932 60.8648 67.6629 59.8496 67.6659 58.8157V37.3423C67.6654 37.2558 67.643 37.1708 67.6001 37.096C67.5572 37.0211 67.4959 36.959 67.4216 36.9159C67.3478 36.8727 67.2635 36.85 67.1783 36.8501C67.093 36.8502 67.0092 36.873 66.9354 36.9163L44.5248 50.2531C44.451 50.2963 44.3897 50.3584 44.347 50.4331C44.3042 50.5079 44.2815 50.5927 44.2812 50.6791Z" fill="url(#paint2_linear_1123_13389)"/>
<path fill-rule="evenodd" clip-rule="evenodd" d="M64.51 63.4837C65.3163 63.0079 65.9855 62.3269 66.4517 61.5079C66.918 60.6889 67.1643 59.7606 67.1673 58.8147V37.3644L44.7799 50.6875V75.4793L64.51 63.4837ZM45.012 75.9278L64.7614 63.921C65.6424 63.4007 66.374 62.656 66.8836 61.7602C67.3932 60.8648 67.6629 59.8496 67.6659 58.8157V37.3423C67.6654 37.2558 67.643 37.1708 67.6001 37.096C67.5572 37.0211 67.4959 36.959 67.4216 36.9159C67.3478 36.8727 67.2635 36.85 67.1783 36.8501C67.093 36.8502 67.0092 36.873 66.9354 36.9163L44.5248 50.2531C44.451 50.2963 44.3897 50.3584 44.347 50.4331C44.3042 50.5079 44.2815 50.5927 44.2812 50.6791V75.5006C44.2813 75.587 44.3039 75.672 44.3467 75.7473C44.3895 75.8221 44.451 75.8843 44.525 75.9278C44.5991 75.9713 44.6831 75.994 44.7686 75.994C44.854 75.994 44.938 75.9708 45.012 75.9278Z" fill="#C5ECFF" fill-opacity="0.56"/>
<path d="M20.1611 0L33.0711 7.5368L40.1573 11.6102C40.7005 11.9225 41.3567 11.9588 41.9302 11.7083L50.5009 7.96448L65.0386 1.27432L64.4064 33.4508L42.2839 46.5126L20.1611 33.4508V0Z" fill="url(#paint3_linear_1123_13389)"/>
<path opacity="0.5" d="M20.1611 0L33.0711 7.5368L40.1573 11.6102C40.7005 11.9225 41.3567 11.9588 41.9302 11.7083L50.5009 7.96448L65.0386 1.27432L64.4064 33.4508L42.2839 46.5126L20.1611 33.4508V0Z" fill="url(#paint4_linear_1123_13389)"/>
</g>
</g>
<defs>
<filter id="filter0_d_1123_13389" x="9" y="-2" width="66.666" height="92" filterUnits="userSpaceOnUse" color-interpolation-filters="sRGB">
<feFlood flood-opacity="0" result="BackgroundImageFix"/>
<feColorMatrix in="SourceAlpha" type="matrix" values="0 0 0 0 0 0 0 0 0 0 0 0 0 0 0 0 0 0 127 0" result="hardAlpha"/>
<feOffset dy="6"/>
<feGaussianBlur stdDeviation="4"/>
<feComposite in2="hardAlpha" operator="out"/>
<feColorMatrix type="matrix" values="0 0 0 0 0.572549 0 0 0 0 0.827451 0 0 0 0 0.980392 0 0 0 0.2 0"/>
<feBlend mode="normal" in2="BackgroundImageFix" result="effect1_dropShadow_1123_13389"/>
<feBlend mode="normal" in="SourceGraphic" in2="effect1_dropShadow_1123_13389" result="shape"/>
</filter>
<linearGradient id="paint0_linear_1123_13389" x1="42.3356" y1="20.672" x2="42.3356" y2="46.9049" gradientUnits="userSpaceOnUse">
<stop stop-color="#10151A"/>
<stop offset="1" stop-color="#17222C"/>
</linearGradient>
<linearGradient id="paint1_linear_1123_13389" x1="28.6924" y1="36.8451" x2="28.6924" y2="76" gradientUnits="userSpaceOnUse">
<stop stop-color="#10151A"/>
<stop offset="1" stop-color="#17222C"/>
</linearGradient>
<linearGradient id="paint2_linear_1123_13389" x1="55.9736" y1="36.8501" x2="55.9736" y2="75.994" gradientUnits="userSpaceOnUse">
<stop stop-color="#10151A"/>
<stop offset="1" stop-color="#17222C"/>
</linearGradient>
<linearGradient id="paint3_linear_1123_13389" x1="52.7131" y1="-1.26098e-06" x2="30.2818" y2="56.5848" gradientUnits="userSpaceOnUse">
<stop offset="0.268899" stop-color="#8EC9E6" stop-opacity="0"/>
<stop offset="1" stop-color="#8EC9E6"/>
</linearGradient>
<linearGradient id="paint4_linear_1123_13389" x1="52.7131" y1="-1.26098e-06" x2="30.2818" y2="56.5848" gradientUnits="userSpaceOnUse">
<stop offset="0.268899" stop-color="#8EC9E6" stop-opacity="0"/>
<stop offset="1" stop-color="#8EC9E6"/>
</linearGradient>
<clipPath id="clip0_1123_13389">
<rect width="84" height="84" fill="white"/>
</clipPath>
</defs>
</svg>
