<svg width="24" height="24" viewBox="0 0 24 24" fill="none" xmlns="http://www.w3.org/2000/svg">
<path fill-rule="evenodd" clip-rule="evenodd" d="M18.7424 4H5.25849C2.3498 4 0 6.37625 0 9.31675V15.6733C0 18.6142 2.3498 20.99 5.25849 20.99H18.7424C21.6502 20.99 24 18.6138 24 15.6733V9.31675C24 6.3758 21.6502 4 18.7424 4ZM15.8046 13.2383L10.5461 15.4066C10.1351 15.555 9.72325 15.5254 9.34185 15.3179C8.98958 15.0794 8.78431 14.7231 8.78431 14.3077V10.6841C8.78431 10.2678 8.98958 9.91059 9.34185 9.70398C9.69501 9.46644 10.106 9.43597 10.5165 9.58521L15.8046 11.6043C16.1569 11.7526 16.3926 12.0493 16.3926 12.4065C16.3926 12.7924 16.1569 13.0891 15.8046 13.2383Z" fill="#F29111"/>
</svg>
