<svg width="24" height="24" viewBox="0 0 24 24" fill="none" xmlns="http://www.w3.org/2000/svg">
<path d="M4.27653 23.0387H19.6782C21.4019 23.0387 22.4584 21.2039 21.6799 19.7026L15.9285 9.13254C15.6526 8.62549 15.5081 8.05741 15.5081 7.48015V4.38431C15.5081 4.18471 15.6699 4.0229 15.8695 4.0229V4.0229C16.0691 4.0229 16.2309 3.86109 16.2309 3.66149V2.46604C16.2309 1.60621 15.5339 0.90918 14.6741 0.90918H9.33633C8.4765 0.90918 7.77947 1.60621 7.77947 2.46604V3.66149C7.77947 3.86109 7.94128 4.0229 8.14088 4.0229V4.0229C8.34048 4.0229 8.50229 4.18471 8.50229 4.38431V7.48015C8.50229 8.05741 8.35775 8.62549 8.08185 9.13254L2.33048 19.7026C1.49648 21.2039 2.60853 23.0387 4.27653 23.0387Z" fill="#F29111"/>
<path d="M15.8433 13.919C15.8433 13.919 14.1753 12.807 12.0068 13.919C10.0051 14.9198 8.17024 13.919 8.17024 13.919L4.6673 20.3133C4.6673 20.3689 4.61168 20.4245 4.6673 20.5357C4.72292 20.6469 4.8341 20.6469 4.88972 20.6469H19.1238C19.1794 20.6469 19.2349 20.6469 19.3462 20.5357C19.4018 20.4245 19.3462 20.3133 19.3462 20.3133L15.8433 13.919Z" fill="#1E2631"/>
<path d="M15.0644 19.7587C15.5864 19.7587 16.0096 19.3355 16.0096 18.8134C16.0096 18.2914 15.5864 17.8682 15.0644 17.8682C14.5423 17.8682 14.1191 18.2914 14.1191 18.8134C14.1191 19.3355 14.5423 19.7587 15.0644 19.7587Z" fill="#F29111"/>
<path d="M10.2271 18.2013C10.9027 18.2013 11.4504 17.6537 11.4504 16.9781C11.4504 16.3025 10.9027 15.7549 10.2271 15.7549C9.55156 15.7549 9.00391 16.3025 9.00391 16.9781C9.00391 17.6537 9.55156 18.2013 10.2271 18.2013Z" fill="#F29111"/>
<path d="M11.9498 11.8068C12.6254 11.8068 13.173 11.2591 13.173 10.5836C13.173 9.90801 12.6254 9.36035 11.9498 9.36035C11.2742 9.36035 10.7266 9.90801 10.7266 10.5836C10.7266 11.2591 11.2742 11.8068 11.9498 11.8068Z" fill="#1E2631"/>
<path d="M12.0611 5.91324C12.7367 5.91324 13.2843 5.36559 13.2843 4.69002C13.2843 4.01445 12.7367 3.4668 12.0611 3.4668C11.3855 3.4668 10.8379 4.01445 10.8379 4.69002C10.8379 5.36559 11.3855 5.91324 12.0611 5.91324Z" fill="#1E2631"/>
</svg>
