<svg width="84" height="84" viewBox="0 0 84 84" fill="none" xmlns="http://www.w3.org/2000/svg">
<g clip-path="url(#clip0_1123_13390)">
<g filter="url(#filter0_d_1123_13390)">
<path d="M64.8531 34.0358C64.9269 33.9928 64.9877 33.9312 65.0301 33.8572C65.0725 33.7832 65.0949 33.6993 65.0949 33.614C65.0949 33.5287 65.0725 33.4448 65.0301 33.3708C64.9877 33.2968 64.9269 33.2352 64.8531 33.1922L46.2503 22.3589C45.06 21.6674 43.7086 21.3032 42.3327 21.3032C40.9569 21.3032 39.6055 21.6674 38.4152 22.3589L19.8159 33.1922C19.7424 33.2352 19.6813 33.2968 19.6389 33.3708C19.5965 33.4448 19.5742 33.5287 19.5742 33.614C19.5742 33.6993 19.5965 33.7832 19.6389 33.8572C19.6813 33.9312 19.7424 33.9928 19.8159 34.0358L42.0897 47.169C42.1647 47.2132 42.2501 47.2366 42.337 47.2366C42.424 47.2366 42.5093 47.2132 42.5842 47.169L64.8531 34.0358Z" fill="url(#paint0_linear_1123_13390)"/>
<path fill-rule="evenodd" clip-rule="evenodd" d="M64.5848 33.6141L42.337 46.7349L20.0841 33.6141L38.6652 22.7914C38.6651 22.7914 38.6653 22.7913 38.6652 22.7914C39.7795 22.1441 41.0448 21.803 42.3327 21.803C43.6206 21.803 44.886 22.1441 46.0002 22.7914M38.4152 22.3589C39.6055 21.6674 40.9569 21.3032 42.3327 21.3032C43.7086 21.3032 45.06 21.6674 46.2503 22.3589L64.8531 33.1922C64.9269 33.2352 64.9877 33.2968 65.0301 33.3708C65.0725 33.4448 65.0949 33.5287 65.0949 33.614C65.0949 33.6993 65.0725 33.7832 65.0301 33.8572C64.9877 33.9312 64.9269 33.9928 64.8531 34.0358L42.5842 47.169C42.5093 47.2132 42.424 47.2366 42.337 47.2366C42.2501 47.2366 42.1647 47.2132 42.0897 47.169L19.8159 34.0358C19.7424 33.9928 19.6813 33.9312 19.6389 33.8572C19.5965 33.7832 19.5742 33.6993 19.5742 33.614C19.5742 33.5287 19.5965 33.4448 19.6389 33.3708C19.6813 33.2968 19.7424 33.2352 19.8159 33.1922L38.4152 22.3589Z" fill="#C5ECFF" fill-opacity="0.56"/>
<path d="M17.25 37.7837H17.25L17.25 37.7821C17.2497 37.74 17.2606 37.6986 17.2813 37.6622C17.3021 37.6258 17.332 37.5955 17.3682 37.5744C17.4042 37.5534 17.4452 37.5423 17.4869 37.5422C17.5283 37.5422 17.5691 37.553 17.6052 37.5738C17.6054 37.5739 17.6055 37.574 17.6056 37.5741L40.0149 50.6761L40.0155 50.6765C40.0518 50.6976 40.0818 50.7276 40.1027 50.7636C40.1238 50.8005 40.1346 50.8415 40.1347 50.8828V75.512C40.1346 75.5538 40.1235 75.5951 40.1028 75.6309C40.0815 75.6677 40.0514 75.6976 40.0165 75.7177L40.0154 75.7183C39.9796 75.7391 39.939 75.75 39.8974 75.75C39.8563 75.75 39.8162 75.7393 39.7808 75.7191C39.7804 75.7189 39.7799 75.7186 39.7795 75.7183L20.0324 63.8505L20.0324 63.8505L20.0297 63.8489C19.1855 63.3561 18.4847 62.6504 17.9971 61.8016L17.7806 61.926L17.997 61.8016C17.5094 60.9528 17.2518 59.9911 17.25 59.0116V37.7837Z" fill="url(#paint1_linear_1123_13390)" stroke="#7892A0" stroke-width="0.5"/>
<path d="M44.2812 50.9681V75.5062C44.2813 75.5917 44.3039 75.6762 44.3467 75.7501C44.3895 75.8241 44.451 75.8861 44.525 75.9286C44.5991 75.9716 44.6831 75.994 44.7686 75.994C44.854 75.994 44.938 75.9716 45.012 75.9286L64.761 64.0589C65.6421 63.5446 66.3741 62.8084 66.8837 61.9232C67.3933 61.0376 67.6631 60.034 67.666 59.0119V37.7838C67.6655 37.6983 67.6431 37.6143 67.6002 37.5403C67.5573 37.4663 67.4955 37.4049 67.4217 37.3622C67.3474 37.3196 67.2636 37.2971 67.1784 37.2972C67.0931 37.2973 67.0088 37.3199 66.935 37.3627L44.5248 50.5473C44.451 50.5898 44.3897 50.6513 44.347 50.7252C44.3042 50.7992 44.2815 50.8827 44.2812 50.9681Z" fill="url(#paint2_linear_1123_13390)"/>
<path fill-rule="evenodd" clip-rule="evenodd" d="M44.5248 50.5473C44.451 50.5898 44.3897 50.6513 44.347 50.7252C44.3042 50.7992 44.2815 50.8827 44.2812 50.9681V75.5062C44.2813 75.5917 44.3039 75.6762 44.3467 75.7501C44.3895 75.8241 44.451 75.8861 44.525 75.9286C44.5991 75.9716 44.6831 75.994 44.7686 75.994C44.854 75.994 44.938 75.9716 45.012 75.9286L64.761 64.0589C65.6421 63.5446 66.3741 62.8084 66.8837 61.9232C67.3933 61.0376 67.6631 60.034 67.666 59.0119V37.7838C67.6655 37.6983 67.6431 37.6143 67.6002 37.5403C67.5573 37.4663 67.4955 37.4049 67.4217 37.3622C67.3474 37.3196 67.2636 37.2971 67.1784 37.2972C67.0931 37.2973 67.0088 37.3199 66.935 37.3627L44.5248 50.5473ZM67.1674 37.8056L44.7799 50.9766V75.4853L64.5102 63.627C65.3165 63.1567 65.9856 62.483 66.4519 61.6733C66.9176 60.8636 67.1644 59.946 67.1674 59.0114V59.0104V37.8056Z" fill="#C5ECFF" fill-opacity="0.56"/>
<path d="M20.0244 0L33.0778 7.61269L40.106 11.6487C40.7411 12.0135 41.5092 12.0558 42.1799 11.7631L50.7012 8.04472L65.4004 1.28715L64.7611 33.7877L42.3929 46.9811L20.0244 33.7877V0Z" fill="url(#paint3_linear_1123_13390)"/>
<path opacity="0.5" d="M20.0244 0L33.0778 7.61269L40.106 11.6487C40.7411 12.0135 41.5092 12.0558 42.1799 11.7631L50.7012 8.04472L65.4004 1.28715L64.7611 33.7877L42.3929 46.9811L20.0244 33.7877V0Z" fill="url(#paint4_linear_1123_13390)"/>
</g>
</g>
<defs>
<filter id="filter0_d_1123_13390" x="9" y="-2" width="66.666" height="92" filterUnits="userSpaceOnUse" color-interpolation-filters="sRGB">
<feFlood flood-opacity="0" result="BackgroundImageFix"/>
<feColorMatrix in="SourceAlpha" type="matrix" values="0 0 0 0 0 0 0 0 0 0 0 0 0 0 0 0 0 0 127 0" result="hardAlpha"/>
<feOffset dy="6"/>
<feGaussianBlur stdDeviation="4"/>
<feComposite in2="hardAlpha" operator="out"/>
<feColorMatrix type="matrix" values="0 0 0 0 0.572549 0 0 0 0 0.827451 0 0 0 0 0.980392 0 0 0 0.2 0"/>
<feBlend mode="normal" in2="BackgroundImageFix" result="effect1_dropShadow_1123_13390"/>
<feBlend mode="normal" in="SourceGraphic" in2="effect1_dropShadow_1123_13390" result="shape"/>
</filter>
<linearGradient id="paint0_linear_1123_13390" x1="59.872" y1="37.5394" x2="27.1012" y2="29.8823" gradientUnits="userSpaceOnUse">
<stop stop-color="#17222C"/>
<stop offset="1" stop-color="#11161C"/>
</linearGradient>
<linearGradient id="paint1_linear_1123_13390" x1="28.6924" y1="37.2922" x2="34.0147" y2="79.1041" gradientUnits="userSpaceOnUse">
<stop offset="0.2958" stop-color="#17222C"/>
<stop offset="1" stop-color="#11161C"/>
</linearGradient>
<linearGradient id="paint2_linear_1123_13390" x1="55.9735" y1="37.2972" x2="55.9735" y2="75.994" gradientUnits="userSpaceOnUse">
<stop stop-color="#17222C"/>
<stop offset="1" stop-color="#11161C"/>
</linearGradient>
<linearGradient id="paint3_linear_1123_13390" x1="52.938" y1="1.235e-06" x2="30.2976" y2="57.1706" gradientUnits="userSpaceOnUse">
<stop offset="0.268899" stop-color="#F29111" stop-opacity="0"/>
<stop offset="1" stop-color="#F29111"/>
</linearGradient>
<linearGradient id="paint4_linear_1123_13390" x1="52.938" y1="1.235e-06" x2="30.2976" y2="57.1706" gradientUnits="userSpaceOnUse">
<stop offset="0.268899" stop-color="#F29111" stop-opacity="0"/>
<stop offset="1" stop-color="#F29111"/>
</linearGradient>
<clipPath id="clip0_1123_13390">
<rect width="84" height="84" fill="white"/>
</clipPath>
</defs>
</svg>
