<svg width="367" height="514" viewBox="0 0 367 514" fill="none" xmlns="http://www.w3.org/2000/svg">
<path opacity="0.4" fill-rule="evenodd" clip-rule="evenodd" d="M140.075 322.035L105.998 381.113L37.8435 381.113L3.76642 322.035L37.8435 262.957L105.998 262.957L140.075 322.035ZM143.336 320.15C144.009 321.316 144.009 322.753 143.336 323.92L109.259 382.998C108.587 384.165 107.343 384.883 105.998 384.883L37.8435 384.883C36.4979 384.883 35.2545 384.165 34.5817 382.998L0.504611 323.92C-0.168185 322.753 -0.168185 321.316 0.50461 320.15L34.5817 261.072C35.2545 259.905 36.4979 259.187 37.8435 259.187L105.998 259.187C107.343 259.187 108.587 259.905 109.259 261.072L143.336 320.15ZM105.998 251.684L140.075 192.606L105.998 133.528L37.8435 133.528L3.76643 192.606L37.8435 251.684L105.998 251.684ZM143.336 194.491C144.009 193.325 144.009 191.888 143.336 190.721L109.259 131.643C108.587 130.477 107.343 129.758 105.998 129.758L37.8435 129.758C36.4979 129.758 35.2545 130.477 34.5817 131.643L0.50462 190.721C-0.168175 191.888 -0.168175 193.325 0.50462 194.491L34.5817 253.569C35.2545 254.736 36.4979 255.454 37.8435 255.454L105.998 255.454C107.343 255.454 108.587 254.736 109.259 253.569L143.336 194.491ZM218.048 316.074L252.125 256.996L218.048 197.918L149.894 197.918L115.817 256.996L149.894 316.074L218.048 316.074ZM255.387 258.881C256.06 257.714 256.06 256.277 255.387 255.111L221.31 196.033C220.637 194.866 219.394 194.148 218.048 194.148L149.894 194.148C148.549 194.148 147.305 194.866 146.632 196.033L112.555 255.111C111.883 256.277 111.883 257.714 112.555 258.881L146.632 317.959C147.305 319.125 148.549 319.844 149.894 319.844L218.048 319.844C219.394 319.844 220.637 319.125 221.31 317.959L255.387 258.881ZM252.125 127.584L218.048 186.662L149.894 186.662L115.817 127.584L149.894 68.5055L218.048 68.5055L252.125 127.584ZM255.387 125.699C256.06 126.865 256.06 128.302 255.387 129.469L221.31 188.547C220.637 189.713 219.394 190.432 218.048 190.432L149.894 190.432C148.549 190.432 147.305 189.713 146.632 188.547L112.555 129.469C111.883 128.302 111.883 126.865 112.555 125.699L146.632 66.6205C147.305 65.4541 148.549 64.7356 149.894 64.7356L218.048 64.7356C219.394 64.7356 220.637 65.4541 221.31 66.6205L255.387 125.699ZM329.158 510.23L363.235 451.152L329.158 392.074L261.004 392.074L226.927 451.152L261.004 510.23L329.158 510.23ZM366.497 453.037C367.169 451.87 367.169 450.433 366.497 449.267L332.42 390.189C331.747 389.022 330.503 388.304 329.158 388.304L261.004 388.304C259.658 388.304 258.415 389.022 257.742 390.189L223.665 449.267C222.992 450.433 222.992 451.87 223.665 453.037L257.742 512.115C258.415 513.281 259.658 514 261.004 514L329.158 514C330.503 514 331.747 513.281 332.42 512.115L366.497 453.037ZM329.158 121.926L363.235 62.8481L329.158 3.7699L261.004 3.7699L226.927 62.8482L261.004 121.926L329.158 121.926ZM366.497 64.7331C367.169 63.5667 367.169 62.1296 366.497 60.9632L332.42 1.88494C331.747 0.718527 330.503 -1.44468e-05 329.158 -1.43879e-05L261.004 -1.14088e-05C259.658 -1.135e-05 258.415 0.71853 257.742 1.88494L223.665 60.9632C222.992 62.1296 222.992 63.5667 223.665 64.7331L257.742 123.811C258.415 124.978 259.658 125.696 261.004 125.696L329.158 125.696C330.503 125.696 331.747 124.978 332.42 123.811L366.497 64.7331ZM329.158 251.043L363.235 191.965L329.158 132.887L261.004 132.887L226.927 191.965L261.004 251.043L329.158 251.043ZM366.497 193.85C367.169 192.684 367.169 191.246 366.497 190.08L332.42 131.002C331.747 129.835 330.503 129.117 329.158 129.117L261.004 129.117C259.658 129.117 258.415 129.835 257.742 131.002L223.665 190.08C222.992 191.246 222.992 192.684 223.665 193.85L257.742 252.928C258.415 254.095 259.658 254.813 261.004 254.813L329.158 254.813C330.503 254.813 331.747 254.095 332.42 252.928L366.497 193.85ZM363.235 322.031L329.158 381.109L261.004 381.109L226.927 322.031L261.004 262.952L329.158 262.952L363.235 322.031ZM366.497 320.146C367.169 321.312 367.169 322.749 366.497 323.915L332.42 382.994C331.747 384.16 330.503 384.879 329.158 384.879L261.004 384.879C259.658 384.879 258.415 384.16 257.742 382.994L223.665 323.915C222.992 322.749 222.992 321.312 223.665 320.146L257.742 261.067C258.415 259.901 259.658 259.182 261.004 259.182L329.158 259.182C330.503 259.182 331.747 259.901 332.42 261.067L366.497 320.146ZM252.125 387.057L218.048 446.136L149.894 446.136L115.817 387.057L149.894 327.979L218.048 327.979L252.125 387.057ZM255.387 385.172C256.06 386.339 256.06 387.776 255.387 388.942L221.31 448.021C220.637 449.187 219.394 449.906 218.048 449.906L149.894 449.906C148.549 449.906 147.305 449.187 146.632 448.021L112.555 388.942C111.883 387.776 111.883 386.339 112.555 385.172L146.632 326.094C147.305 324.928 148.549 324.209 149.894 324.209L218.048 324.209C219.394 324.209 220.637 324.928 221.31 326.094L255.387 385.172Z" fill="url(#paint0_linear_606_3276)"/>
<defs>
<linearGradient id="paint0_linear_606_3276" x1="4.70803" y1="409.038" x2="367.524" y2="87.0452" gradientUnits="userSpaceOnUse">
<stop stop-color="#3E4253" stop-opacity="0"/>
<stop offset="0.53125" stop-color="#3E4253"/>
<stop offset="0.96875" stop-color="#3E4253" stop-opacity="0"/>
</linearGradient>
</defs>
</svg>
