<svg width="531" height="209" viewBox="0 0 531 209" fill="none" xmlns="http://www.w3.org/2000/svg">
<g clip-path="url(#clip0_1232_12532)">
<rect width="531" height="209" fill="#171923"/>
<line x1="3.5" y1="49.5" x2="3.5" y2="168.5" stroke="white" stroke-opacity="0.4" stroke-linecap="round" stroke-dasharray="4 4"/>
<rect x="3" y="161" width="1" height="8" fill="#D9D9D9"/>
<line x1="103.5" y1="49.5" x2="103.5" y2="168.5" stroke="white" stroke-opacity="0.4" stroke-linecap="round" stroke-dasharray="4 4"/>
<line x1="203.5" y1="49.5" x2="203.5" y2="168.5" stroke="white" stroke-opacity="0.4" stroke-linecap="round" stroke-dasharray="4 4"/>
<line x1="303.5" y1="49.5" x2="303.5" y2="168.5" stroke="white" stroke-opacity="0.4" stroke-linecap="round" stroke-dasharray="4 4"/>
<line x1="403.5" y1="49.5" x2="403.5" y2="168.5" stroke="white" stroke-opacity="0.4" stroke-linecap="round" stroke-dasharray="4 4"/>
<line x1="503.5" y1="49.5" x2="503.5" y2="168.5" stroke="white" stroke-opacity="0.4" stroke-linecap="round" stroke-dasharray="4 4"/>
<path d="M495 56.5C499.142 56.5 502.5 59.8579 502.5 64V80C502.5 84.1421 499.142 87.5 495 87.5H3.5V56.5H495Z" fill="white" stroke="white"/>
<path d="M27.464 77.616V75.424C27.9333 75.6267 28.3493 75.776 28.712 75.872C29.0853 75.968 29.4373 76.016 29.768 76.016C30.9307 76.016 31.512 75.456 31.512 74.336V68.448L29.384 67.76V66.368H34.008V74.56C34.008 75.7227 33.6667 76.624 32.984 77.264C32.312 77.904 31.368 78.224 30.152 78.224C29.6613 78.224 29.176 78.1707 28.696 78.064C28.2267 77.968 27.816 77.8187 27.464 77.616ZM36.1048 78V66.368H38.6008V78H36.1048ZM43.7024 78V68.48H40.2624V66.368H49.6384V68.48H46.1984V78H43.7024Z" fill="#1E2631"/>
<g filter="url(#filter0_d_1232_12532)">
<path d="M145 104.5C149.142 104.5 152.5 107.858 152.5 112V128C152.5 132.142 149.142 135.5 145 135.5H3.5V104.5H145Z" fill="#F29111" stroke="white"/>
<path d="M95.85 185V179.7L94.19 180.26V179.34L96.31 177.83H97.42V185H95.85ZM101.351 185.13C100.438 185.13 99.7444 184.81 99.2711 184.17C98.7978 183.53 98.5611 182.597 98.5611 181.37C98.5611 178.923 99.4911 177.7 101.351 177.7C103.211 177.7 104.141 178.923 104.141 181.37C104.141 182.597 103.904 183.53 103.431 184.17C102.958 184.81 102.264 185.13 101.351 185.13ZM101.351 183.86C101.771 183.86 102.081 183.657 102.281 183.25C102.481 182.843 102.581 182.217 102.581 181.37C102.581 180.537 102.481 179.93 102.281 179.55C102.088 179.163 101.778 178.97 101.351 178.97C100.924 178.97 100.611 179.163 100.411 179.55C100.218 179.93 100.121 180.537 100.121 181.37C100.121 182.217 100.221 182.843 100.421 183.25C100.621 183.657 100.931 183.86 101.351 183.86ZM107.816 185.13C106.903 185.13 106.209 184.81 105.736 184.17C105.263 183.53 105.026 182.597 105.026 181.37C105.026 178.923 105.956 177.7 107.816 177.7C109.676 177.7 110.606 178.923 110.606 181.37C110.606 182.597 110.369 183.53 109.896 184.17C109.423 184.81 108.729 185.13 107.816 185.13ZM107.816 183.86C108.236 183.86 108.546 183.657 108.746 183.25C108.946 182.843 109.046 182.217 109.046 181.37C109.046 180.537 108.946 179.93 108.746 179.55C108.553 179.163 108.243 178.97 107.816 178.97C107.389 178.97 107.076 179.163 106.876 179.55C106.683 179.93 106.586 180.537 106.586 181.37C106.586 182.217 106.686 182.843 106.886 183.25C107.086 183.657 107.396 183.86 107.816 183.86Z" fill="white"/>
<path d="M3.23 185.13C2.31667 185.13 1.62333 184.81 1.15 184.17C0.676667 183.53 0.44 182.597 0.44 181.37C0.44 178.923 1.37 177.7 3.23 177.7C5.09 177.7 6.02 178.923 6.02 181.37C6.02 182.597 5.78333 183.53 5.31 184.17C4.83667 184.81 4.14333 185.13 3.23 185.13ZM3.23 183.86C3.65 183.86 3.96 183.657 4.16 183.25C4.36 182.843 4.46 182.217 4.46 181.37C4.46 180.537 4.36 179.93 4.16 179.55C3.96667 179.163 3.65667 178.97 3.23 178.97C2.80333 178.97 2.49 179.163 2.29 179.55C2.09667 179.93 2 180.537 2 181.37C2 182.217 2.1 182.843 2.3 183.25C2.5 183.657 2.81 183.86 3.23 183.86Z" fill="white"/>
<path d="M193.17 185V183.95L194.99 181.95C195.343 181.563 195.617 181.25 195.81 181.01C196.01 180.763 196.15 180.557 196.23 180.39C196.31 180.217 196.35 180.057 196.35 179.91C196.35 179.303 195.967 179 195.2 179C194.66 179 194.047 179.183 193.36 179.55V178.21C193.673 178.05 194.01 177.927 194.37 177.84C194.737 177.747 195.093 177.7 195.44 177.7C196.213 177.7 196.813 177.877 197.24 178.23C197.667 178.583 197.88 179.087 197.88 179.74C197.88 180.007 197.827 180.273 197.72 180.54C197.613 180.807 197.437 181.107 197.19 181.44C196.95 181.767 196.623 182.16 196.21 182.62L195.2 183.73H197.9V185H193.17ZM201.494 185.13C200.58 185.13 199.887 184.81 199.414 184.17C198.94 183.53 198.704 182.597 198.704 181.37C198.704 178.923 199.634 177.7 201.494 177.7C203.354 177.7 204.284 178.923 204.284 181.37C204.284 182.597 204.047 183.53 203.574 184.17C203.1 184.81 202.407 185.13 201.494 185.13ZM201.494 183.86C201.914 183.86 202.224 183.657 202.424 183.25C202.624 182.843 202.724 182.217 202.724 181.37C202.724 180.537 202.624 179.93 202.424 179.55C202.23 179.163 201.92 178.97 201.494 178.97C201.067 178.97 200.754 179.163 200.554 179.55C200.36 179.93 200.264 180.537 200.264 181.37C200.264 182.217 200.364 182.843 200.564 183.25C200.764 183.657 201.074 183.86 201.494 183.86ZM207.959 185.13C207.045 185.13 206.352 184.81 205.879 184.17C205.405 183.53 205.169 182.597 205.169 181.37C205.169 178.923 206.099 177.7 207.959 177.7C209.819 177.7 210.749 178.923 210.749 181.37C210.749 182.597 210.512 183.53 210.039 184.17C209.565 184.81 208.872 185.13 207.959 185.13ZM207.959 183.86C208.379 183.86 208.689 183.657 208.889 183.25C209.089 182.843 209.189 182.217 209.189 181.37C209.189 180.537 209.089 179.93 208.889 179.55C208.695 179.163 208.385 178.97 207.959 178.97C207.532 178.97 207.219 179.163 207.019 179.55C206.825 179.93 206.729 180.537 206.729 181.37C206.729 182.217 206.829 182.843 207.029 183.25C207.229 183.657 207.539 183.86 207.959 183.86Z" fill="white"/>
<path d="M292.23 184.68V183.35C292.503 183.497 292.82 183.613 293.18 183.7C293.54 183.78 293.883 183.82 294.21 183.82C294.683 183.82 295.047 183.723 295.3 183.53C295.553 183.337 295.68 183.06 295.68 182.7C295.68 182.36 295.58 182.097 295.38 181.91C295.187 181.723 294.9 181.63 294.52 181.63C294.173 181.63 293.833 181.693 293.5 181.82L293.01 181L294.81 179.1H292.36V177.83H296.79V178.86L295.07 180.62C295.717 180.693 296.213 180.92 296.56 181.3C296.913 181.673 297.09 182.143 297.09 182.71C297.09 183.21 296.977 183.643 296.75 184.01C296.523 184.37 296.197 184.647 295.77 184.84C295.35 185.033 294.85 185.13 294.27 185.13C293.89 185.13 293.523 185.09 293.17 185.01C292.817 184.937 292.503 184.827 292.23 184.68ZM300.582 185.13C299.668 185.13 298.975 184.81 298.502 184.17C298.028 183.53 297.792 182.597 297.792 181.37C297.792 178.923 298.722 177.7 300.582 177.7C302.442 177.7 303.372 178.923 303.372 181.37C303.372 182.597 303.135 183.53 302.662 184.17C302.188 184.81 301.495 185.13 300.582 185.13ZM300.582 183.86C301.002 183.86 301.312 183.657 301.512 183.25C301.712 182.843 301.812 182.217 301.812 181.37C301.812 180.537 301.712 179.93 301.512 179.55C301.318 179.163 301.008 178.97 300.582 178.97C300.155 178.97 299.842 179.163 299.642 179.55C299.448 179.93 299.352 180.537 299.352 181.37C299.352 182.217 299.452 182.843 299.652 183.25C299.852 183.657 300.162 183.86 300.582 183.86ZM307.046 185.13C306.133 185.13 305.44 184.81 304.966 184.17C304.493 183.53 304.256 182.597 304.256 181.37C304.256 178.923 305.186 177.7 307.046 177.7C308.906 177.7 309.836 178.923 309.836 181.37C309.836 182.597 309.6 183.53 309.126 184.17C308.653 184.81 307.96 185.13 307.046 185.13ZM307.046 183.86C307.466 183.86 307.776 183.657 307.976 183.25C308.176 182.843 308.276 182.217 308.276 181.37C308.276 180.537 308.176 179.93 307.976 179.55C307.783 179.163 307.473 178.97 307.046 178.97C306.62 178.97 306.306 179.163 306.106 179.55C305.913 179.93 305.816 180.537 305.816 181.37C305.816 182.217 305.916 182.843 306.116 183.25C306.316 183.657 306.626 183.86 307.046 183.86Z" fill="white"/>
<path d="M393.28 183.64V182.44L396.72 177.83H398.11V182.34H399.11V183.64H398.11V185H396.63V183.64H393.28ZM396.67 181.96V179.9L394.89 182.34H396.64L396.67 181.96ZM402.578 185.13C401.664 185.13 400.971 184.81 400.498 184.17C400.024 183.53 399.788 182.597 399.788 181.37C399.788 178.923 400.718 177.7 402.578 177.7C404.438 177.7 405.368 178.923 405.368 181.37C405.368 182.597 405.131 183.53 404.658 184.17C404.184 184.81 403.491 185.13 402.578 185.13ZM402.578 183.86C402.998 183.86 403.308 183.657 403.508 183.25C403.708 182.843 403.808 182.217 403.808 181.37C403.808 180.537 403.708 179.93 403.508 179.55C403.314 179.163 403.004 178.97 402.578 178.97C402.151 178.97 401.838 179.163 401.638 179.55C401.444 179.93 401.348 180.537 401.348 181.37C401.348 182.217 401.448 182.843 401.648 183.25C401.848 183.657 402.158 183.86 402.578 183.86ZM409.043 185.13C408.129 185.13 407.436 184.81 406.963 184.17C406.489 183.53 406.253 182.597 406.253 181.37C406.253 178.923 407.183 177.7 409.043 177.7C410.903 177.7 411.833 178.923 411.833 181.37C411.833 182.597 411.596 183.53 411.123 184.17C410.649 184.81 409.956 185.13 409.043 185.13ZM409.043 183.86C409.463 183.86 409.773 183.657 409.973 183.25C410.173 182.843 410.273 182.217 410.273 181.37C410.273 180.537 410.173 179.93 409.973 179.55C409.779 179.163 409.469 178.97 409.043 178.97C408.616 178.97 408.303 179.163 408.103 179.55C407.909 179.93 407.813 180.537 407.813 181.37C407.813 182.217 407.913 182.843 408.113 183.25C408.313 183.657 408.623 183.86 409.043 183.86Z" fill="white"/>
<path d="M493.5 184.68V183.35C493.793 183.497 494.12 183.613 494.48 183.7C494.847 183.78 495.2 183.82 495.54 183.82C495.967 183.82 496.303 183.72 496.55 183.52C496.797 183.32 496.92 183.047 496.92 182.7C496.92 182.367 496.817 182.107 496.61 181.92C496.41 181.733 496.123 181.64 495.75 181.64C495.317 181.64 494.873 181.74 494.42 181.94L493.54 181.25L493.96 177.83H497.91V179.1H495.08L494.9 180.66C495.24 180.54 495.587 180.48 495.94 180.48C496.68 180.48 497.263 180.68 497.69 181.08C498.117 181.473 498.33 182.017 498.33 182.71C498.33 183.197 498.22 183.623 498 183.99C497.78 184.35 497.467 184.63 497.06 184.83C496.66 185.03 496.19 185.13 495.65 185.13C495.237 185.13 494.84 185.09 494.46 185.01C494.087 184.93 493.767 184.82 493.5 184.68ZM501.914 185.13C501 185.13 500.307 184.81 499.834 184.17C499.36 183.53 499.124 182.597 499.124 181.37C499.124 178.923 500.054 177.7 501.914 177.7C503.774 177.7 504.704 178.923 504.704 181.37C504.704 182.597 504.467 183.53 503.994 184.17C503.52 184.81 502.827 185.13 501.914 185.13ZM501.914 183.86C502.334 183.86 502.644 183.657 502.844 183.25C503.044 182.843 503.144 182.217 503.144 181.37C503.144 180.537 503.044 179.93 502.844 179.55C502.65 179.163 502.34 178.97 501.914 178.97C501.487 178.97 501.174 179.163 500.974 179.55C500.78 179.93 500.684 180.537 500.684 181.37C500.684 182.217 500.784 182.843 500.984 183.25C501.184 183.657 501.494 183.86 501.914 183.86ZM508.378 185.13C507.465 185.13 506.772 184.81 506.298 184.17C505.825 183.53 505.588 182.597 505.588 181.37C505.588 178.923 506.518 177.7 508.378 177.7C510.238 177.7 511.168 178.923 511.168 181.37C511.168 182.597 510.932 183.53 510.458 184.17C509.985 184.81 509.292 185.13 508.378 185.13ZM508.378 183.86C508.798 183.86 509.108 183.657 509.308 183.25C509.508 182.843 509.608 182.217 509.608 181.37C509.608 180.537 509.508 179.93 509.308 179.55C509.115 179.163 508.805 178.97 508.378 178.97C507.952 178.97 507.638 179.163 507.438 179.55C507.245 179.93 507.148 180.537 507.148 181.37C507.148 182.217 507.248 182.843 507.448 183.25C507.648 183.657 507.958 183.86 508.378 183.86Z" fill="white"/>
<path d="M28.136 126V114.368H30.44L35.464 121.936V114.368H37.928V126H35.624L30.6 118.416V126H28.136ZM39.1745 126L43.5905 114.368H46.0065L50.4545 126H47.6705L46.9025 123.616H42.6145L41.8465 126H39.1745ZM43.2865 121.504H46.2145L44.7425 116.928L43.2865 121.504ZM52.7649 126V116.48H49.3249V114.368H58.7009V116.48H55.2609V126H52.7649ZM60.3704 126V114.368H62.8664V126H60.3704ZM68.4 126L64.112 114.368H66.928L69.648 122.928L72.4 114.368H75.104L70.816 126H68.4ZM76.3548 126V114.368H83.9228V116.48H78.8508V119.072H83.4588V121.184H78.8508V123.888H84.0828V126H76.3548Z" fill="white"/>
<path d="M106.59 125V117.58L104.266 118.364V117.076L107.234 114.962H108.788V125H106.59ZM110.092 124.552V122.69C110.474 122.895 110.918 123.059 111.422 123.18C111.926 123.292 112.406 123.348 112.864 123.348C113.526 123.348 114.035 123.213 114.39 122.942C114.744 122.671 114.922 122.284 114.922 121.78C114.922 121.304 114.782 120.935 114.502 120.674C114.231 120.413 113.83 120.282 113.298 120.282C112.812 120.282 112.336 120.371 111.87 120.548L111.184 119.4L113.704 116.74H110.274V114.962H116.476V116.404L114.068 118.868C114.973 118.971 115.668 119.288 116.154 119.82C116.648 120.343 116.896 121.001 116.896 121.794C116.896 122.494 116.737 123.101 116.42 123.614C116.102 124.118 115.645 124.505 115.048 124.776C114.46 125.047 113.76 125.182 112.948 125.182C112.416 125.182 111.902 125.126 111.408 125.014C110.913 124.911 110.474 124.757 110.092 124.552ZM117.962 124.552V122.69C118.372 122.895 118.83 123.059 119.334 123.18C119.847 123.292 120.342 123.348 120.818 123.348C121.415 123.348 121.886 123.208 122.232 122.928C122.577 122.648 122.75 122.265 122.75 121.78C122.75 121.313 122.605 120.949 122.316 120.688C122.036 120.427 121.634 120.296 121.112 120.296C120.505 120.296 119.884 120.436 119.25 120.716L118.018 119.75L118.606 114.962H124.136V116.74H120.174L119.922 118.924C120.398 118.756 120.883 118.672 121.378 118.672C122.414 118.672 123.23 118.952 123.828 119.512C124.425 120.063 124.724 120.823 124.724 121.794C124.724 122.475 124.57 123.073 124.262 123.586C123.954 124.09 123.515 124.482 122.946 124.762C122.386 125.042 121.728 125.182 120.972 125.182C120.393 125.182 119.838 125.126 119.306 125.014C118.783 124.902 118.335 124.748 117.962 124.552ZM126 125V117.003H127.793L130.334 122.272L132.842 117.003H134.635V125H132.941V119.819L130.829 124.23H129.773L127.661 119.885V125H126ZM136.194 125V117.003H138.999C140.018 117.003 140.766 117.175 141.243 117.52C141.727 117.865 141.969 118.4 141.969 119.126C141.969 119.485 141.874 119.808 141.683 120.094C141.492 120.38 141.228 120.607 140.891 120.776C141.837 121.069 142.31 121.696 142.31 122.657C142.31 124.219 141.228 125 139.065 125H136.194ZM137.844 120.314H138.68C139.259 120.314 139.666 120.241 139.901 120.094C140.143 119.94 140.264 119.683 140.264 119.324C140.264 118.95 140.147 118.69 139.912 118.543C139.677 118.389 139.267 118.312 138.68 118.312H137.844V120.314ZM137.844 123.68H138.933C139.498 123.68 139.912 123.592 140.176 123.416C140.44 123.24 140.572 122.965 140.572 122.591C140.572 122.224 140.44 121.957 140.176 121.788C139.912 121.619 139.498 121.535 138.933 121.535H137.844V123.68Z" fill="white"/>
</g>
<path d="M4.62 35V20.46H6.52L12 31.66L17.36 20.46H19.26V35H17.46V23.84L12.72 33.6H11.16L6.42 23.96V35H4.62ZM30.2511 34.48C29.8778 34.7067 29.3778 34.8867 28.7511 35.02C28.1378 35.1533 27.4644 35.22 26.7311 35.22C25.0778 35.22 23.8244 34.7533 22.9711 33.82C22.1311 32.8733 21.7111 31.4933 21.7111 29.68C21.7111 27.9333 22.1111 26.6067 22.9111 25.7C23.7244 24.7933 24.8844 24.34 26.3911 24.34C29.2978 24.34 30.7511 25.9467 30.7511 29.16V30.32H23.5311C23.6111 31.4933 23.9244 32.3533 24.4711 32.9C25.0178 33.4333 25.8311 33.7 26.9111 33.7C27.5111 33.7 28.0778 33.64 28.6111 33.52C29.1444 33.4 29.6911 33.2133 30.2511 32.96V34.48ZM26.3911 25.82C25.5111 25.82 24.8244 26.0867 24.3311 26.62C23.8511 27.14 23.5844 27.9 23.5311 28.9H29.0111C29.0111 27.8067 28.8044 27.02 28.3911 26.54C27.9911 26.06 27.3244 25.82 26.3911 25.82ZM33.0352 35V24.56H34.2552L34.5752 26.3C34.9618 25.7 35.4485 25.2267 36.0352 24.88C36.6352 24.52 37.2885 24.34 37.9952 24.34C39.5418 24.34 40.5885 25.0067 41.1352 26.34C41.5085 25.74 42.0085 25.26 42.6352 24.9C43.2618 24.5267 43.9485 24.34 44.6952 24.34C45.8285 24.34 46.6952 24.7 47.2952 25.42C47.8952 26.1267 48.1952 27.1667 48.1952 28.54V35H46.3952V28.58C46.3952 26.78 45.6952 25.88 44.2952 25.88C43.6152 25.88 43.0285 26.0733 42.5352 26.46C42.0552 26.8333 41.7152 27.3533 41.5152 28.02V35H39.7352V28.58C39.7352 26.78 39.0152 25.88 37.5752 25.88C36.9218 25.88 36.3485 26.0867 35.8552 26.5C35.3618 26.9 35.0218 27.4467 34.8352 28.14V35H33.0352ZM55.4016 35.22C53.8282 35.22 52.6082 34.74 51.7416 33.78C50.8749 32.8067 50.4416 31.4733 50.4416 29.78C50.4416 28.0733 50.8749 26.74 51.7416 25.78C52.6082 24.82 53.8282 24.34 55.4016 24.34C56.9882 24.34 58.2149 24.82 59.0816 25.78C59.9482 26.74 60.3816 28.0733 60.3816 29.78C60.3816 31.4733 59.9482 32.8067 59.0816 33.78C58.2149 34.74 56.9882 35.22 55.4016 35.22ZM55.4016 33.74C56.4282 33.74 57.2082 33.4067 57.7416 32.74C58.2749 32.06 58.5416 31.0733 58.5416 29.78C58.5416 28.4867 58.2749 27.5067 57.7416 26.84C57.2082 26.16 56.4282 25.82 55.4016 25.82C54.3882 25.82 53.6149 26.16 53.0816 26.84C52.5482 27.5067 52.2816 28.4867 52.2816 29.78C52.2816 31.0733 52.5482 32.06 53.0816 32.74C53.6149 33.4067 54.3882 33.74 55.4016 33.74ZM62.7227 35V24.56H63.9427L64.3027 26.52C64.9827 25.2 65.956 24.54 67.2227 24.54C67.4893 24.54 67.7227 24.56 67.9227 24.6V26.18H67.4627C66.7027 26.18 66.0693 26.3933 65.5627 26.82C65.056 27.2467 64.7093 27.8667 64.5227 28.68V35H62.7227ZM72.8803 34.9L69.1003 24.56H70.9803L74.2603 33.9L77.1203 24.56H78.9403L75.6003 34.78C75.2803 35.7667 74.927 36.5667 74.5403 37.18C74.167 37.7933 73.7136 38.2667 73.1803 38.6C72.647 38.9333 71.9803 39.1933 71.1803 39.38L70.7403 37.88C71.2736 37.7333 71.727 37.5467 72.1003 37.32C72.4736 37.1067 72.7936 36.82 73.0603 36.46C73.3403 36.1 73.587 35.6267 73.8003 35.04L73.8603 34.9H72.8803ZM85.7333 35V20.46H94.5133V22.06H87.5933V27.14H93.8133V28.74H87.5933V35H85.7333ZM100.792 35.22C99.2189 35.22 97.9989 34.74 97.1322 33.78C96.2655 32.8067 95.8322 31.4733 95.8322 29.78C95.8322 28.0733 96.2655 26.74 97.1322 25.78C97.9989 24.82 99.2189 24.34 100.792 24.34C102.379 24.34 103.606 24.82 104.472 25.78C105.339 26.74 105.772 28.0733 105.772 29.78C105.772 31.4733 105.339 32.8067 104.472 33.78C103.606 34.74 102.379 35.22 100.792 35.22ZM100.792 33.74C101.819 33.74 102.599 33.4067 103.132 32.74C103.666 32.06 103.932 31.0733 103.932 29.78C103.932 28.4867 103.666 27.5067 103.132 26.84C102.599 26.16 101.819 25.82 100.792 25.82C99.7789 25.82 99.0055 26.16 98.4722 26.84C97.9389 27.5067 97.6722 28.4867 97.6722 29.78C97.6722 31.0733 97.9389 32.06 98.4722 32.74C99.0055 33.4067 99.7789 33.74 100.792 33.74ZM112.413 35.22C110.84 35.22 109.62 34.74 108.753 33.78C107.887 32.8067 107.453 31.4733 107.453 29.78C107.453 28.0733 107.887 26.74 108.753 25.78C109.62 24.82 110.84 24.34 112.413 24.34C114 24.34 115.227 24.82 116.093 25.78C116.96 26.74 117.393 28.0733 117.393 29.78C117.393 31.4733 116.96 32.8067 116.093 33.78C115.227 34.74 114 35.22 112.413 35.22ZM112.413 33.74C113.44 33.74 114.22 33.4067 114.753 32.74C115.287 32.06 115.553 31.0733 115.553 29.78C115.553 28.4867 115.287 27.5067 114.753 26.84C114.22 26.16 113.44 25.82 112.413 25.82C111.4 25.82 110.627 26.16 110.093 26.84C109.56 27.5067 109.293 28.4867 109.293 29.78C109.293 31.0733 109.56 32.06 110.093 32.74C110.627 33.4067 111.4 33.74 112.413 33.74ZM120.074 31.82V26.04H118.274V25.12L120.074 24.52L120.794 21.68H121.874V24.56H124.134V26.04H121.874V31.8C121.874 32.9467 122.368 33.52 123.354 33.52C123.514 33.52 123.668 33.5133 123.814 33.5C123.974 33.4733 124.121 33.4533 124.254 33.44V35C124.068 35.04 123.874 35.0667 123.674 35.08C123.488 35.0933 123.288 35.1 123.074 35.1C122.048 35.1 121.288 34.8333 120.794 34.3C120.314 33.7667 120.074 32.94 120.074 31.82ZM126.492 39.02V24.56H127.712L128.012 26.24C128.412 25.64 128.919 25.1733 129.532 24.84C130.159 24.5067 130.832 24.34 131.552 24.34C132.939 24.34 134.019 24.82 134.792 25.78C135.566 26.7267 135.952 28.0533 135.952 29.76C135.952 31.48 135.559 32.82 134.772 33.78C133.999 34.74 132.912 35.22 131.512 35.22C130.926 35.22 130.352 35.1067 129.792 34.88C129.232 34.6533 128.732 34.3333 128.292 33.92V39.02H126.492ZM131.272 25.8C130.646 25.8 130.066 25.9733 129.532 26.32C129.012 26.6533 128.599 27.1133 128.292 27.7V32.34C129.106 33.2867 130.072 33.76 131.192 33.76C132.139 33.76 132.859 33.42 133.352 32.74C133.859 32.06 134.112 31.0733 134.112 29.78C134.112 28.5133 133.866 27.5333 133.372 26.84C132.879 26.1467 132.179 25.8 131.272 25.8ZM138.289 35V24.56H139.509L139.869 26.52C140.549 25.2 141.522 24.54 142.789 24.54C143.056 24.54 143.289 24.56 143.489 24.6V26.18H143.029C142.269 26.18 141.636 26.3933 141.129 26.82C140.622 27.2467 140.276 27.8667 140.089 28.68V35H138.289ZM145.627 22.14V20.52H147.827V22.14H145.627ZM146.047 35V25.96L145.007 25.3V24.56H147.847V35H146.047ZM150.848 35V24.56H152.068L152.388 26.34C152.828 25.7 153.368 25.2067 154.008 24.86C154.648 24.5133 155.368 24.34 156.168 24.34C157.368 24.34 158.288 24.7 158.928 25.42C159.568 26.14 159.888 27.18 159.888 28.54V35H158.088V28.6C158.088 26.7867 157.301 25.88 155.728 25.88C155.061 25.88 154.448 26.0867 153.888 26.5C153.341 26.9 152.928 27.4467 152.648 28.14V35H150.848ZM163.121 31.82V26.04H161.321V25.12L163.121 24.52L163.841 21.68H164.921V24.56H167.181V26.04H164.921V31.8C164.921 32.9467 165.415 33.52 166.401 33.52C166.561 33.52 166.715 33.5133 166.861 33.5C167.021 33.4733 167.168 33.4533 167.301 33.44V35C167.115 35.04 166.921 35.0667 166.721 35.08C166.535 35.0933 166.335 35.1 166.121 35.1C165.095 35.1 164.335 34.8333 163.841 34.3C163.361 33.7667 163.121 32.94 163.121 31.82Z" fill="white"/>
<rect x="3" y="164" width="520" height="1" rx="0.5" fill="#D9D9D9"/>
<rect x="103" y="161" width="1" height="8" fill="#D9D9D9"/>
<rect x="203" y="161" width="1" height="8" fill="#D9D9D9"/>
<rect x="303" y="161" width="1" height="8" fill="#D9D9D9"/>
<rect x="403" y="161" width="1" height="8" fill="#D9D9D9"/>
<rect x="503" y="161" width="1" height="8" fill="#D9D9D9"/>
<path d="M449.7 76.552V74.69C450.111 74.8953 450.568 75.0587 451.072 75.18C451.585 75.292 452.08 75.348 452.556 75.348C453.153 75.348 453.625 75.208 453.97 74.928C454.315 74.648 454.488 74.2653 454.488 73.78C454.488 73.3133 454.343 72.9493 454.054 72.688C453.774 72.4267 453.373 72.296 452.85 72.296C452.243 72.296 451.623 72.436 450.988 72.716L449.756 71.75L450.344 66.962H455.874V68.74H451.912L451.66 70.924C452.136 70.756 452.621 70.672 453.116 70.672C454.152 70.672 454.969 70.952 455.566 71.512C456.163 72.0627 456.462 72.8233 456.462 73.794C456.462 74.4753 456.308 75.0727 456 75.586C455.692 76.09 455.253 76.482 454.684 76.762C454.124 77.042 453.466 77.182 452.71 77.182C452.131 77.182 451.576 77.126 451.044 77.014C450.521 76.902 450.073 76.748 449.7 76.552ZM461.479 77.182C460.2 77.182 459.23 76.734 458.567 75.838C457.904 74.942 457.573 73.6353 457.573 71.918C457.573 68.4927 458.875 66.78 461.479 66.78C464.083 66.78 465.385 68.4927 465.385 71.918C465.385 73.6353 465.054 74.942 464.391 75.838C463.728 76.734 462.758 77.182 461.479 77.182ZM461.479 75.404C462.067 75.404 462.501 75.1193 462.781 74.55C463.061 73.9807 463.201 73.1033 463.201 71.918C463.201 70.7513 463.061 69.902 462.781 69.37C462.51 68.8287 462.076 68.558 461.479 68.558C460.882 68.558 460.443 68.8287 460.163 69.37C459.892 69.902 459.757 70.7513 459.757 71.918C459.757 73.1033 459.897 73.9807 460.177 74.55C460.457 75.1193 460.891 75.404 461.479 75.404ZM470.53 77.182C469.251 77.182 468.28 76.734 467.618 75.838C466.955 74.942 466.624 73.6353 466.624 71.918C466.624 68.4927 467.926 66.78 470.53 66.78C473.134 66.78 474.436 68.4927 474.436 71.918C474.436 73.6353 474.104 74.942 473.442 75.838C472.779 76.734 471.808 77.182 470.53 77.182ZM470.53 75.404C471.118 75.404 471.552 75.1193 471.832 74.55C472.112 73.9807 472.252 73.1033 472.252 71.918C472.252 70.7513 472.112 69.902 471.832 69.37C471.561 68.8287 471.127 68.558 470.53 68.558C469.932 68.558 469.494 68.8287 469.214 69.37C468.943 69.902 468.808 70.7513 468.808 71.918C468.808 73.1033 468.948 73.9807 469.228 74.55C469.508 75.1193 469.942 75.404 470.53 75.404ZM475.84 77V69.003H477.633L480.174 74.272L482.682 69.003H484.475V77H482.781V71.819L480.669 76.23H479.613L477.501 71.885V77H475.84ZM486.034 77V69.003H488.839C489.858 69.003 490.606 69.1753 491.083 69.52C491.567 69.8647 491.809 70.4 491.809 71.126C491.809 71.4853 491.714 71.808 491.523 72.094C491.332 72.38 491.068 72.6073 490.731 72.776C491.677 73.0693 492.15 73.6963 492.15 74.657C492.15 76.219 491.068 77 488.905 77H486.034ZM487.684 72.314H488.52C489.099 72.314 489.506 72.2407 489.741 72.094C489.983 71.94 490.104 71.6833 490.104 71.324C490.104 70.95 489.987 70.6897 489.752 70.543C489.517 70.389 489.107 70.312 488.52 70.312H487.684V72.314ZM487.684 75.68H488.773C489.338 75.68 489.752 75.592 490.016 75.416C490.28 75.24 490.412 74.965 490.412 74.591C490.412 74.2243 490.28 73.9567 490.016 73.788C489.752 73.6193 489.338 73.535 488.773 73.535H487.684V75.68Z" fill="#1E2631"/>
</g>
<defs>
<filter id="filter0_d_1232_12532" x="-13.5586" y="90" width="542.727" height="113.13" filterUnits="userSpaceOnUse" color-interpolation-filters="sRGB">
<feFlood flood-opacity="0" result="BackgroundImageFix"/>
<feColorMatrix in="SourceAlpha" type="matrix" values="0 0 0 0 0 0 0 0 0 0 0 0 0 0 0 0 0 0 127 0" result="hardAlpha"/>
<feOffset dx="2" dy="2"/>
<feGaussianBlur stdDeviation="8"/>
<feComposite in2="hardAlpha" operator="out"/>
<feColorMatrix type="matrix" values="0 0 0 0 0.0901961 0 0 0 0 0.415686 0 0 0 0 1 0 0 0 0.55 0"/>
<feBlend mode="normal" in2="BackgroundImageFix" result="effect1_dropShadow_1232_12532"/>
<feBlend mode="normal" in="SourceGraphic" in2="effect1_dropShadow_1232_12532" result="shape"/>
</filter>
<clipPath id="clip0_1232_12532">
<rect width="531" height="209" fill="white"/>
</clipPath>
</defs>
</svg>
