<svg width="373" height="163" viewBox="0 0 373 163" fill="none" xmlns="http://www.w3.org/2000/svg">
<path fill-rule="evenodd" clip-rule="evenodd" d="M191 83C192.105 83 193 83.8954 193 85L193 97V99V129V129C193 130.105 193.895 131 195 131V131H236C236.552 131 237 130.552 237 130V130C237 129.448 236.552 129 236 129H197C195.895 129 195 128.105 195 127L195 101C195 99.8954 195.895 99 197 99H236C236.552 99 237 98.5523 237 98V98C237 97.4477 236.552 97 236 97H197C195.895 97 195 96.1046 195 95L195 83V81V69C195 67.8954 195.895 67 197 67H236C236.552 67 237 66.5523 237 66V66C237 65.4477 236.552 65 236 65H197C195.895 65 195 64.1046 195 63V37C195 35.8954 195.895 35 197 35H236C236.552 35 237 34.5523 237 34V34C237 33.4477 236.552 33 236 33H195V33C193.895 33 193 33.8954 193 35V35V65V67L193 79C193 80.1046 192.105 81 191 81H169C168.448 81 168 81.4477 168 82V82C168 82.5523 168.448 83 169 83H191Z" fill="#FF9142"/>
<g filter="url(#filter0_di_1116_12478)">
<path d="M160 20H28C23.5817 20 20 23.5817 20 28V135C20 139.418 23.5817 143 28 143H160C164.418 143 168 139.418 168 135V28C168 23.5817 164.418 20 160 20Z" fill="#1E2631"/>
<path d="M160 20.5H28C23.8579 20.5 20.5 23.8579 20.5 28V135C20.5 139.142 23.8579 142.5 28 142.5H160C164.142 142.5 167.5 139.142 167.5 135V28C167.5 23.8579 164.142 20.5 160 20.5Z" stroke="white"/>
</g>
<path d="M168 85C169.657 85 171 83.6569 171 82C171 80.3431 169.657 79 168 79C166.343 79 165 80.3431 165 82C165 83.6569 166.343 85 168 85Z" fill="white"/>
<path d="M20 28C20 23.5817 23.5817 20 28 20H160C164.418 20 168 23.5817 168 28V52H20V28Z" fill="white"/>
<path d="M71.4297 81.8516C71.5234 83.9141 73.25 85.1875 75.8594 85.1875C78.5703 85.1875 80.2656 83.8281 80.2656 81.6719C80.2656 80 79.2734 79.0469 76.8984 78.5547L75.6797 78.3047C74.2734 78.0078 73.7109 77.5156 73.7109 76.75C73.7109 75.8047 74.6016 75.2109 75.8516 75.2109C77.1406 75.2109 78.0312 75.8516 78.125 76.9141H80.0547C80.0078 74.8984 78.3594 73.5391 75.8672 73.5391C73.4219 73.5391 71.6797 74.8828 71.6797 76.8672C71.6797 78.5156 72.7344 79.5781 74.9922 80.0391L76.2031 80.2891C77.6719 80.5938 78.2344 81.0938 78.2344 81.9062C78.2344 82.8438 77.2891 83.5156 75.9297 83.5156C74.5234 83.5156 73.5078 82.8906 73.3594 81.8516H71.4297ZM87.0625 82.5234C86.8516 83.2109 86.1641 83.6641 85.2578 83.6641C83.9844 83.6641 83.1719 82.7734 83.1719 81.4453V81.3281H88.9609V80.6953C88.9609 78.1797 87.4922 76.5469 85.1406 76.5469C82.75 76.5469 81.2344 78.2734 81.2344 80.8906C81.2344 83.5312 82.7344 85.1641 85.2188 85.1641C87.1797 85.1641 88.6328 84.0859 88.8828 82.5234H87.0625ZM85.1484 78.0547C86.2656 78.0547 87.0156 78.875 87.0547 80.0469H83.1875C83.2656 78.8906 84.0547 78.0547 85.1484 78.0547ZM97.5156 79.6719C97.3828 77.9297 96.0312 76.5469 93.8438 76.5469C91.4375 76.5469 89.875 78.2109 89.875 80.8594C89.875 83.5469 91.4375 85.1641 93.8594 85.1641C95.9375 85.1641 97.3672 83.9453 97.5234 82.0938H95.6875C95.5078 83.0312 94.8672 83.5938 93.8828 83.5938C92.6484 83.5938 91.8516 82.5938 91.8516 80.8594C91.8516 79.1562 92.6406 78.125 93.8672 78.125C94.9062 78.125 95.5234 78.7891 95.6797 79.6719H97.5156ZM98.6875 85H100.633V80.1797C100.633 79.0156 101.297 78.3047 102.398 78.3047C102.727 78.3047 103.023 78.3516 103.188 78.4141V76.6562C103.047 76.625 102.828 76.5781 102.578 76.5781C101.602 76.5781 100.875 77.1562 100.594 78.1641H100.555V76.7188H98.6875V85ZM109.359 82.5234C109.148 83.2109 108.461 83.6641 107.555 83.6641C106.281 83.6641 105.469 82.7734 105.469 81.4453V81.3281H111.258V80.6953C111.258 78.1797 109.789 76.5469 107.438 76.5469C105.047 76.5469 103.531 78.2734 103.531 80.8906C103.531 83.5312 105.031 85.1641 107.516 85.1641C109.477 85.1641 110.93 84.0859 111.18 82.5234H109.359ZM107.445 78.0547C108.562 78.0547 109.312 78.875 109.352 80.0469H105.484C105.562 78.8906 106.352 78.0547 107.445 78.0547ZM113.055 74.7812V76.7188H111.867V78.2188H113.055V82.7969C113.055 84.4062 113.758 85.0391 115.547 85.0391C115.961 85.0391 116.344 85.0078 116.555 84.9609V83.4766C116.43 83.5 116.18 83.5156 116 83.5156C115.312 83.5156 115 83.2031 115 82.5234V78.2188H116.562V76.7188H115V74.7812H113.055ZM59.7969 109V97.7266H57.4688L54.0156 106.328H53.9531L50.5 97.7266H48.1641V109H49.9844V101H50.0391L53.2969 109H54.6719L57.9297 101H57.9844V109H59.7969ZM63.8281 109.133C64.8906 109.133 65.9297 108.578 66.4062 107.68H66.4453V109H68.3203V103.297C68.3203 101.633 66.9844 100.547 64.9297 100.547C62.8203 100.547 61.5 101.656 61.4141 103.203H63.2188C63.3438 102.516 63.9297 102.07 64.8516 102.07C65.8125 102.07 66.3984 102.57 66.3984 103.438V104.031L64.2109 104.156C62.1953 104.281 61.0625 105.164 61.0625 106.633C61.0625 108.125 62.2266 109.133 63.8281 109.133ZM64.4141 107.664C63.5703 107.664 63.0078 107.234 63.0078 106.555C63.0078 105.898 63.5469 105.477 64.4844 105.414L66.3984 105.297V105.93C66.3984 106.93 65.5156 107.664 64.4141 107.664ZM69.8906 109H71.8359V104.203C71.8359 103.016 72.5469 102.211 73.6641 102.211C74.7734 102.211 75.3203 102.867 75.3203 104.039V109H77.2656V103.648C77.2656 101.734 76.2266 100.562 74.3984 100.562C73.125 100.562 72.2422 101.156 71.7969 102.141H71.7578V100.719H69.8906V109ZM81.2656 109.133C82.3281 109.133 83.3672 108.578 83.8438 107.68H83.8828V109H85.7578V103.297C85.7578 101.633 84.4219 100.547 82.3672 100.547C80.2578 100.547 78.9375 101.656 78.8516 103.203H80.6562C80.7812 102.516 81.3672 102.07 82.2891 102.07C83.25 102.07 83.8359 102.57 83.8359 103.438V104.031L81.6484 104.156C79.6328 104.281 78.5 105.164 78.5 106.633C78.5 108.125 79.6641 109.133 81.2656 109.133ZM81.8516 107.664C81.0078 107.664 80.4453 107.234 80.4453 106.555C80.4453 105.898 80.9844 105.477 81.9219 105.414L83.8359 105.297V105.93C83.8359 106.93 82.9531 107.664 81.8516 107.664ZM90.9766 112.125C93.3906 112.125 94.9766 110.844 94.9766 108.867V100.719H93.0703V102.141H93.0391C92.5625 101.188 91.6094 100.578 90.4297 100.578C88.3125 100.578 86.9844 102.211 86.9844 104.828C86.9844 107.406 88.3438 109.008 90.3906 109.008C91.5781 109.008 92.5547 108.414 92.9844 107.523H93.0312V108.922C93.0312 109.977 92.3047 110.688 91.0391 110.688C90.1172 110.688 89.4062 110.258 89.1953 109.625H87.2656C87.4609 111.078 88.9297 112.125 90.9766 112.125ZM90.9844 107.461C89.7578 107.461 88.9766 106.477 88.9766 104.836C88.9766 103.211 89.7578 102.18 90.9844 102.18C92.2266 102.18 93.0312 103.227 93.0312 104.836C93.0312 106.453 92.2266 107.461 90.9844 107.461ZM102.047 106.523C101.836 107.211 101.148 107.664 100.242 107.664C98.9688 107.664 98.1562 106.773 98.1562 105.445V105.328H103.945V104.695C103.945 102.18 102.477 100.547 100.125 100.547C97.7344 100.547 96.2188 102.273 96.2188 104.891C96.2188 107.531 97.7188 109.164 100.203 109.164C102.164 109.164 103.617 108.086 103.867 106.523H102.047ZM100.133 102.055C101.25 102.055 102 102.875 102.039 104.047H98.1719C98.25 102.891 99.0391 102.055 100.133 102.055ZM105.203 109H107.148V103.93C107.148 102.93 107.805 102.203 108.742 102.203C109.648 102.203 110.211 102.773 110.211 103.695V109H112.102V103.883C112.102 102.891 112.742 102.203 113.68 102.203C114.633 102.203 115.164 102.781 115.164 103.797V109H117.109V103.32C117.109 101.664 116.039 100.562 114.406 100.562C113.211 100.562 112.227 101.203 111.828 102.227H111.781C111.477 101.164 110.641 100.562 109.469 100.562C108.344 100.562 107.469 101.195 107.109 102.156H107.07V100.719H105.203V109ZM124.156 106.523C123.945 107.211 123.258 107.664 122.352 107.664C121.078 107.664 120.266 106.773 120.266 105.445V105.328H126.055V104.695C126.055 102.18 124.586 100.547 122.234 100.547C119.844 100.547 118.328 102.273 118.328 104.891C118.328 107.531 119.828 109.164 122.312 109.164C124.273 109.164 125.727 108.086 125.977 106.523H124.156ZM122.242 102.055C123.359 102.055 124.109 102.875 124.148 104.047H120.281C120.359 102.891 121.148 102.055 122.242 102.055ZM127.312 109H129.258V104.203C129.258 103.016 129.969 102.211 131.086 102.211C132.195 102.211 132.742 102.867 132.742 104.039V109H134.688V103.648C134.688 101.734 133.648 100.562 131.82 100.562C130.547 100.562 129.664 101.156 129.219 102.141H129.18V100.719H127.312V109ZM136.789 98.7812V100.719H135.602V102.219H136.789V106.797C136.789 108.406 137.492 109.039 139.281 109.039C139.695 109.039 140.078 109.008 140.289 108.961V107.477C140.164 107.5 139.914 107.516 139.734 107.516C139.047 107.516 138.734 107.203 138.734 106.523V102.219H140.297V100.719H138.734V98.7812H136.789Z" fill="white"/>
<path d="M120.625 30.2891H125.328C127.648 30.2891 129.234 31.8359 129.234 34.1641C129.234 36.4609 127.586 38.0078 125.211 38.0078H122.984V41.5625H120.625V30.2891ZM122.984 32.1641V36.1562H124.695C126.047 36.1562 126.836 35.4531 126.836 34.1719C126.836 32.8594 126.062 32.1641 124.703 32.1641H122.984Z" fill="#1E2631"/>
<path d="M109.844 30.2891H114.547C116.867 30.2891 118.453 31.8359 118.453 34.1641C118.453 36.4609 116.805 38.0078 114.43 38.0078H112.203V41.5625H109.844V30.2891ZM112.203 32.1641V36.1562H113.914C115.266 36.1562 116.055 35.4531 116.055 34.1719C116.055 32.8594 115.281 32.1641 113.922 32.1641H112.203Z" fill="#1E2631"/>
<path d="M105.367 41.5625L104.516 38.8281H100.555L99.6875 41.5625H97.3203L101.234 30.2891H104.008L107.922 41.5625H105.367ZM102.477 32.5781L101.062 37.0625H104.016L102.617 32.5781H102.477Z" fill="#1E2631"/>
<path d="M85 41.5625H82.6406V30.2891H85V35.3516H85.1406L89.3047 30.2891H91.9297L87.8203 35.2266L92.2188 41.5625H89.3906L86.1172 36.7734L85 38.1172V41.5625Z" fill="#1E2631"/>
<path d="M70.6719 30.2891H75.1094C78.4609 30.2891 80.3984 32.3125 80.3984 35.8516C80.3984 39.5 78.4844 41.5625 75.1094 41.5625H70.6719V30.2891ZM73.0312 32.2344V39.6172H74.7344C76.8203 39.6172 77.9922 38.3047 77.9922 35.8906C77.9922 33.5625 76.7812 32.2344 74.7344 32.2344H73.0312Z" fill="#1E2631"/>
<path d="M68.4062 36.9844C68.4062 39.9766 66.4844 41.8516 63.4062 41.8516C60.0547 41.8516 58 39.5938 58 35.9141C58 32.2891 60.0703 30 63.3516 30C66.0156 30 67.9766 31.5234 68.3047 33.8594H65.9609C65.6094 32.6797 64.6641 32.0078 63.3516 32.0078C61.5312 32.0078 60.4141 33.4844 60.4141 35.8906C60.4141 38.3438 61.5859 39.8359 63.4453 39.8359C64.9922 39.8359 66.0625 38.8906 66.1094 37.4844L66.1172 37.2734H63.6719V35.5547H68.4062V36.9844Z" fill="#1E2631"/>
<g filter="url(#filter1_di_1116_12478)">
<path d="M343 116H240C237.791 116 236 117.791 236 120V140C236 142.209 237.791 144 240 144H343C345.209 144 347 142.209 347 140V120C347 117.791 345.209 116 343 116Z" fill="#1E2631"/>
<path d="M343 116.5H240C238.067 116.5 236.5 118.067 236.5 120V140C236.5 141.933 238.067 143.5 240 143.5H343C344.933 143.5 346.5 141.933 346.5 140V120C346.5 118.067 344.933 116.5 343 116.5Z" stroke="white"/>
</g>
<g filter="url(#filter2_di_1116_12478)">
<path d="M343 52H240C237.791 52 236 53.7909 236 56V76C236 78.2091 237.791 80 240 80H343C345.209 80 347 78.2091 347 76V56C347 53.7909 345.209 52 343 52Z" fill="#1E2631"/>
<path d="M343 52.5H240C238.067 52.5 236.5 54.067 236.5 56V76C236.5 77.933 238.067 79.5 240 79.5H343C344.933 79.5 346.5 77.933 346.5 76V56C346.5 54.067 344.933 52.5 343 52.5Z" stroke="white"/>
</g>
<g filter="url(#filter3_di_1116_12478)">
<path d="M343 84H240C237.791 84 236 85.7909 236 88V108C236 110.209 237.791 112 240 112H343C345.209 112 347 110.209 347 108V88C347 85.7909 345.209 84 343 84Z" fill="#1E2631"/>
<path d="M343 84.5H240C238.067 84.5 236.5 86.067 236.5 88V108C236.5 109.933 238.067 111.5 240 111.5H343C344.933 111.5 346.5 109.933 346.5 108V88C346.5 86.067 344.933 84.5 343 84.5Z" stroke="white"/>
</g>
<g filter="url(#filter4_di_1116_12478)">
<path d="M343 20H240C237.791 20 236 21.7909 236 24V44C236 46.2091 237.791 48 240 48H343C345.209 48 347 46.2091 347 44V24C347 21.7909 345.209 20 343 20Z" fill="#1E2631"/>
<path d="M343 20.5H240C238.067 20.5 236.5 22.067 236.5 24V44C236.5 45.933 238.067 47.5 240 47.5H343C344.933 47.5 346.5 45.933 346.5 44V24C346.5 22.067 344.933 20.5 343 20.5Z" stroke="white"/>
</g>
<path d="M269.961 28.5391C273.242 28.5391 275.305 30.7812 275.305 34.3672C275.305 37.9531 273.242 40.1875 269.961 40.1875C266.672 40.1875 264.609 37.9531 264.609 34.3672C264.609 30.7812 266.672 28.5391 269.961 28.5391ZM269.961 30.2578C267.945 30.2578 266.672 31.8516 266.672 34.3672C266.672 36.875 267.945 38.4688 269.961 38.4688C271.969 38.4688 273.25 36.875 273.25 34.3672C273.25 31.8516 271.969 30.2578 269.961 30.2578ZM281.773 40.1875C278.555 40.1875 276.531 37.9766 276.531 34.3594C276.531 30.7656 278.57 28.5391 281.773 28.5391C284.391 28.5391 286.383 30.1719 286.633 32.5938H284.648C284.383 31.1797 283.234 30.25 281.773 30.25C279.836 30.25 278.594 31.8438 278.594 34.3594C278.594 36.8906 279.828 38.4766 281.781 38.4766C283.273 38.4766 284.344 37.6719 284.656 36.3125H286.633C286.281 38.7266 284.438 40.1875 281.773 40.1875ZM290.18 40H288.164V28.7266H290.18V40ZM302.734 40L301.773 37.0859H297.625L296.664 40H294.586L298.586 28.7266H300.859L304.859 40H302.734ZM299.672 30.7188L298.094 35.5312H301.297L299.727 30.7188H299.672ZM306.07 28.7266H310.453C312.695 28.7266 314.25 30.25 314.25 32.5C314.25 34.75 312.648 36.2734 310.367 36.2734H308.086V40H306.07V28.7266ZM308.086 30.375V34.6484H309.914C311.359 34.6484 312.203 33.8672 312.203 32.5C312.203 31.1484 311.367 30.375 309.922 30.375H308.086ZM317.742 40H315.727V28.7266H317.742V40Z" fill="white"/>
<path d="M268.359 72L267.398 69.0859H263.25L262.289 72H260.211L264.211 60.7266H266.484L270.484 72H268.359ZM265.297 62.7188L263.719 67.5312H266.922L265.352 62.7188H265.297ZM277.219 63.8438L274.914 72H273.016L269.992 60.7266H272.086L274.039 69.2656H274.102L276.367 60.7266H278.148L280.414 69.2656H280.477L282.43 60.7266H284.523L281.5 72H279.602L277.297 63.8438H277.219ZM285.305 68.8516H287.234C287.383 69.8906 288.398 70.5156 289.805 70.5156C291.164 70.5156 292.109 69.8438 292.109 68.9062C292.109 68.0938 291.547 67.5938 290.078 67.2891L288.867 67.0391C286.609 66.5781 285.555 65.5156 285.555 63.8672C285.555 61.8828 287.297 60.5391 289.742 60.5391C292.234 60.5391 293.883 61.8984 293.93 63.9141H292C291.906 62.8516 291.016 62.2109 289.727 62.2109C288.477 62.2109 287.586 62.8047 287.586 63.75C287.586 64.5156 288.148 65.0078 289.555 65.3047L290.773 65.5547C293.148 66.0469 294.141 67 294.141 68.6719C294.141 70.8281 292.445 72.1875 289.734 72.1875C287.125 72.1875 285.398 70.9141 285.305 68.8516ZM306.219 72L305.258 69.0859H301.109L300.148 72H298.07L302.07 60.7266H304.344L308.344 72H306.219ZM303.156 62.7188L301.578 67.5312H304.781L303.211 62.7188H303.156ZM309.555 60.7266H313.938C316.18 60.7266 317.734 62.25 317.734 64.5C317.734 66.75 316.133 68.2734 313.852 68.2734H311.57V72H309.555V60.7266ZM311.57 62.375V66.6484H313.398C314.844 66.6484 315.688 65.8672 315.688 64.5C315.688 63.1484 314.852 62.375 313.406 62.375H311.57ZM321.227 72H319.211V60.7266H321.227V72Z" fill="white"/>
<path d="M271.859 99.2969C271.859 102.352 270.031 104.188 266.945 104.188C263.656 104.188 261.609 101.953 261.609 98.3203C261.609 94.7422 263.648 92.5391 266.906 92.5391C269.469 92.5391 271.406 94.0547 271.773 96.3125H269.727C269.344 95.0156 268.297 94.25 266.914 94.25C264.883 94.25 263.672 95.7578 263.672 98.2969C263.672 100.891 264.938 102.477 266.969 102.477C268.672 102.477 269.852 101.398 269.883 99.8203L269.891 99.6328H267.172V98.0938H271.859V99.2969ZM278.367 104.188C275.148 104.188 273.125 101.977 273.125 98.3594C273.125 94.7656 275.164 92.5391 278.367 92.5391C280.984 92.5391 282.977 94.1719 283.227 96.5938H281.242C280.977 95.1797 279.828 94.25 278.367 94.25C276.43 94.25 275.188 95.8438 275.188 98.3594C275.188 100.891 276.422 102.477 278.375 102.477C279.867 102.477 280.938 101.672 281.25 100.312H283.227C282.875 102.727 281.031 104.188 278.367 104.188ZM284.758 92.7266H289.141C291.383 92.7266 292.938 94.25 292.938 96.5C292.938 98.75 291.336 100.273 289.055 100.273H286.773V104H284.758V92.7266ZM286.773 94.375V98.6484H288.602C290.047 98.6484 290.891 97.8672 290.891 96.5C290.891 95.1484 290.055 94.375 288.609 94.375H286.773ZM304.984 104L304.023 101.086H299.875L298.914 104H296.836L300.836 92.7266H303.109L307.109 104H304.984ZM301.922 94.7188L300.344 99.5312H303.547L301.977 94.7188H301.922ZM308.32 92.7266H312.703C314.945 92.7266 316.5 94.25 316.5 96.5C316.5 98.75 314.898 100.273 312.617 100.273H310.336V104H308.32V92.7266ZM310.336 94.375V98.6484H312.164C313.609 98.6484 314.453 97.8672 314.453 96.5C314.453 95.1484 313.617 94.375 312.172 94.375H310.336ZM319.992 104H317.977V92.7266H319.992V104Z" fill="white"/>
<path d="M265.359 136L264.398 133.086H260.25L259.289 136H257.211L261.211 124.727H263.484L267.484 136H265.359ZM262.297 126.719L260.719 131.531H263.922L262.352 126.719H262.297ZM268.336 136V134.82L272.625 129.266V129.234H268.375V127.719H274.867V129L270.75 134.445V134.484H274.938V136H268.336ZM283.719 127.719V136H281.844V134.562H281.805C281.367 135.57 280.531 136.148 279.273 136.148C277.477 136.148 276.336 134.984 276.336 133.07V127.719H278.281V132.68C278.281 133.867 278.859 134.508 279.953 134.508C281.078 134.508 281.773 133.711 281.773 132.508V127.719H283.719ZM285.312 136V127.719H287.18V129.164H287.219C287.5 128.156 288.227 127.578 289.203 127.578C289.453 127.578 289.672 127.625 289.812 127.656V129.414C289.648 129.352 289.352 129.305 289.023 129.305C287.922 129.305 287.258 130.016 287.258 131.18V136H285.312ZM295.984 133.523H297.805C297.555 135.086 296.102 136.164 294.141 136.164C291.656 136.164 290.156 134.531 290.156 131.891C290.156 129.273 291.672 127.547 294.062 127.547C296.414 127.547 297.883 129.18 297.883 131.695V132.328H292.094V132.445C292.094 133.773 292.906 134.664 294.18 134.664C295.086 134.664 295.773 134.211 295.984 133.523ZM294.07 129.055C292.977 129.055 292.188 129.891 292.109 131.047H295.977C295.938 129.875 295.188 129.055 294.07 129.055ZM309.906 136L308.945 133.086H304.797L303.836 136H301.758L305.758 124.727H308.031L312.031 136H309.906ZM306.844 126.719L305.266 131.531H308.469L306.898 126.719H306.844ZM313.242 124.727H317.625C319.867 124.727 321.422 126.25 321.422 128.5C321.422 130.75 319.82 132.273 317.539 132.273H315.258V136H313.242V124.727ZM315.258 126.375V130.648H317.086C318.531 130.648 319.375 129.867 319.375 128.5C319.375 127.148 318.539 126.375 317.094 126.375H315.258ZM324.914 136H322.898V124.727H324.914V136Z" fill="white"/>
<path d="M236 101C237.657 101 239 99.6569 239 98C239 96.3431 237.657 95 236 95C234.343 95 233 96.3431 233 98C233 99.6569 234.343 101 236 101Z" fill="white"/>
<path d="M236 133C237.657 133 239 131.657 239 130C239 128.343 237.657 127 236 127C234.343 127 233 128.343 233 130C233 131.657 234.343 133 236 133Z" fill="white"/>
<path d="M236 37C237.657 37 239 35.6569 239 34C239 32.3431 237.657 31 236 31C234.343 31 233 32.3431 233 34C233 35.6569 234.343 37 236 37Z" fill="white"/>
<path d="M236 69C237.657 69 239 67.6569 239 66C239 64.3431 237.657 63 236 63C234.343 63 233 64.3431 233 66C233 67.6569 234.343 69 236 69Z" fill="white"/>
<path d="M354.5 7H221.5C217.358 7 214 11.101 214 16.1598V146.84C214 151.899 217.358 156 221.5 156H354.5C358.642 156 362 151.899 362 146.84V16.1598C362 11.101 358.642 7 354.5 7Z" stroke="white" stroke-opacity="0.8" stroke-linecap="round" stroke-linejoin="round" stroke-dasharray="12 12"/>
<defs>
<filter id="filter0_di_1116_12478" x="0" y="0" width="180" height="155" filterUnits="userSpaceOnUse" color-interpolation-filters="sRGB">
<feFlood flood-opacity="0" result="BackgroundImageFix"/>
<feColorMatrix in="SourceAlpha" type="matrix" values="0 0 0 0 0 0 0 0 0 0 0 0 0 0 0 0 0 0 127 0" result="hardAlpha"/>
<feOffset dx="-4" dy="-4"/>
<feGaussianBlur stdDeviation="8"/>
<feComposite in2="hardAlpha" operator="out"/>
<feColorMatrix type="matrix" values="0 0 0 0 0.0901961 0 0 0 0 0.415686 0 0 0 0 1 0 0 0 0.05 0"/>
<feBlend mode="normal" in2="BackgroundImageFix" result="effect1_dropShadow_1116_12478"/>
<feBlend mode="normal" in="SourceGraphic" in2="effect1_dropShadow_1116_12478" result="shape"/>
<feColorMatrix in="SourceAlpha" type="matrix" values="0 0 0 0 0 0 0 0 0 0 0 0 0 0 0 0 0 0 127 0" result="hardAlpha"/>
<feOffset dx="8" dy="12"/>
<feGaussianBlur stdDeviation="9"/>
<feComposite in2="hardAlpha" operator="arithmetic" k2="-1" k3="1"/>
<feColorMatrix type="matrix" values="0 0 0 0 0.239216 0 0 0 0 0.513726 0 0 0 0 1 0 0 0 0.1 0"/>
<feBlend mode="normal" in2="shape" result="effect2_innerShadow_1116_12478"/>
</filter>
<filter id="filter1_di_1116_12478" x="216" y="96" width="143" height="60" filterUnits="userSpaceOnUse" color-interpolation-filters="sRGB">
<feFlood flood-opacity="0" result="BackgroundImageFix"/>
<feColorMatrix in="SourceAlpha" type="matrix" values="0 0 0 0 0 0 0 0 0 0 0 0 0 0 0 0 0 0 127 0" result="hardAlpha"/>
<feOffset dx="-4" dy="-4"/>
<feGaussianBlur stdDeviation="8"/>
<feComposite in2="hardAlpha" operator="out"/>
<feColorMatrix type="matrix" values="0 0 0 0 0.0901961 0 0 0 0 0.415686 0 0 0 0 1 0 0 0 0.05 0"/>
<feBlend mode="normal" in2="BackgroundImageFix" result="effect1_dropShadow_1116_12478"/>
<feBlend mode="normal" in="SourceGraphic" in2="effect1_dropShadow_1116_12478" result="shape"/>
<feColorMatrix in="SourceAlpha" type="matrix" values="0 0 0 0 0 0 0 0 0 0 0 0 0 0 0 0 0 0 127 0" result="hardAlpha"/>
<feOffset dx="8" dy="12"/>
<feGaussianBlur stdDeviation="9"/>
<feComposite in2="hardAlpha" operator="arithmetic" k2="-1" k3="1"/>
<feColorMatrix type="matrix" values="0 0 0 0 0.239216 0 0 0 0 0.513726 0 0 0 0 1 0 0 0 0.1 0"/>
<feBlend mode="normal" in2="shape" result="effect2_innerShadow_1116_12478"/>
</filter>
<filter id="filter2_di_1116_12478" x="216" y="32" width="143" height="60" filterUnits="userSpaceOnUse" color-interpolation-filters="sRGB">
<feFlood flood-opacity="0" result="BackgroundImageFix"/>
<feColorMatrix in="SourceAlpha" type="matrix" values="0 0 0 0 0 0 0 0 0 0 0 0 0 0 0 0 0 0 127 0" result="hardAlpha"/>
<feOffset dx="-4" dy="-4"/>
<feGaussianBlur stdDeviation="8"/>
<feComposite in2="hardAlpha" operator="out"/>
<feColorMatrix type="matrix" values="0 0 0 0 0.0901961 0 0 0 0 0.415686 0 0 0 0 1 0 0 0 0.05 0"/>
<feBlend mode="normal" in2="BackgroundImageFix" result="effect1_dropShadow_1116_12478"/>
<feBlend mode="normal" in="SourceGraphic" in2="effect1_dropShadow_1116_12478" result="shape"/>
<feColorMatrix in="SourceAlpha" type="matrix" values="0 0 0 0 0 0 0 0 0 0 0 0 0 0 0 0 0 0 127 0" result="hardAlpha"/>
<feOffset dx="8" dy="12"/>
<feGaussianBlur stdDeviation="9"/>
<feComposite in2="hardAlpha" operator="arithmetic" k2="-1" k3="1"/>
<feColorMatrix type="matrix" values="0 0 0 0 0.239216 0 0 0 0 0.513726 0 0 0 0 1 0 0 0 0.1 0"/>
<feBlend mode="normal" in2="shape" result="effect2_innerShadow_1116_12478"/>
</filter>
<filter id="filter3_di_1116_12478" x="216" y="64" width="143" height="60" filterUnits="userSpaceOnUse" color-interpolation-filters="sRGB">
<feFlood flood-opacity="0" result="BackgroundImageFix"/>
<feColorMatrix in="SourceAlpha" type="matrix" values="0 0 0 0 0 0 0 0 0 0 0 0 0 0 0 0 0 0 127 0" result="hardAlpha"/>
<feOffset dx="-4" dy="-4"/>
<feGaussianBlur stdDeviation="8"/>
<feComposite in2="hardAlpha" operator="out"/>
<feColorMatrix type="matrix" values="0 0 0 0 0.0901961 0 0 0 0 0.415686 0 0 0 0 1 0 0 0 0.05 0"/>
<feBlend mode="normal" in2="BackgroundImageFix" result="effect1_dropShadow_1116_12478"/>
<feBlend mode="normal" in="SourceGraphic" in2="effect1_dropShadow_1116_12478" result="shape"/>
<feColorMatrix in="SourceAlpha" type="matrix" values="0 0 0 0 0 0 0 0 0 0 0 0 0 0 0 0 0 0 127 0" result="hardAlpha"/>
<feOffset dx="8" dy="12"/>
<feGaussianBlur stdDeviation="9"/>
<feComposite in2="hardAlpha" operator="arithmetic" k2="-1" k3="1"/>
<feColorMatrix type="matrix" values="0 0 0 0 0.239216 0 0 0 0 0.513726 0 0 0 0 1 0 0 0 0.1 0"/>
<feBlend mode="normal" in2="shape" result="effect2_innerShadow_1116_12478"/>
</filter>
<filter id="filter4_di_1116_12478" x="216" y="0" width="143" height="60" filterUnits="userSpaceOnUse" color-interpolation-filters="sRGB">
<feFlood flood-opacity="0" result="BackgroundImageFix"/>
<feColorMatrix in="SourceAlpha" type="matrix" values="0 0 0 0 0 0 0 0 0 0 0 0 0 0 0 0 0 0 127 0" result="hardAlpha"/>
<feOffset dx="-4" dy="-4"/>
<feGaussianBlur stdDeviation="8"/>
<feComposite in2="hardAlpha" operator="out"/>
<feColorMatrix type="matrix" values="0 0 0 0 0.0901961 0 0 0 0 0.415686 0 0 0 0 1 0 0 0 0.05 0"/>
<feBlend mode="normal" in2="BackgroundImageFix" result="effect1_dropShadow_1116_12478"/>
<feBlend mode="normal" in="SourceGraphic" in2="effect1_dropShadow_1116_12478" result="shape"/>
<feColorMatrix in="SourceAlpha" type="matrix" values="0 0 0 0 0 0 0 0 0 0 0 0 0 0 0 0 0 0 127 0" result="hardAlpha"/>
<feOffset dx="8" dy="12"/>
<feGaussianBlur stdDeviation="9"/>
<feComposite in2="hardAlpha" operator="arithmetic" k2="-1" k3="1"/>
<feColorMatrix type="matrix" values="0 0 0 0 0.239216 0 0 0 0 0.513726 0 0 0 0 1 0 0 0 0.1 0"/>
<feBlend mode="normal" in2="shape" result="effect2_innerShadow_1116_12478"/>
</filter>
</defs>
</svg>
