<svg width="1260" height="283" viewBox="0 0 1260 283" fill="none" xmlns="http://www.w3.org/2000/svg">
<rect width="1260" height="283" fill="#171923"/>
<line x1="22.5" y1="114.5" x2="22.5" y2="233.5" stroke="white" stroke-opacity="0.4" stroke-linecap="round" stroke-dasharray="4 4"/>
<rect x="22" y="226" width="1" height="8" fill="#D9D9D9"/>
<line x1="122.5" y1="114.5" x2="122.5" y2="233.5" stroke="white" stroke-opacity="0.4" stroke-linecap="round" stroke-dasharray="4 4"/>
<line x1="222.5" y1="114.5" x2="222.5" y2="233.5" stroke="white" stroke-opacity="0.4" stroke-linecap="round" stroke-dasharray="4 4"/>
<line x1="322.5" y1="114.5" x2="322.5" y2="233.5" stroke="white" stroke-opacity="0.4" stroke-linecap="round" stroke-dasharray="4 4"/>
<line x1="422.5" y1="114.5" x2="422.5" y2="233.5" stroke="white" stroke-opacity="0.4" stroke-linecap="round" stroke-dasharray="4 4"/>
<line x1="821.5" y1="114.5" x2="821.5" y2="233.5" stroke="white" stroke-opacity="0.4" stroke-linecap="round" stroke-dasharray="4 4"/>
<line x1="921.5" y1="114.5" x2="921.5" y2="233.5" stroke="white" stroke-opacity="0.4" stroke-linecap="round" stroke-dasharray="4 4"/>
<rect x="721" y="229" width="520" height="1" rx="0.5" fill="#D9D9D9"/>
<rect x="821" y="226" width="1" height="8" fill="#D9D9D9"/>
<line x1="721.5" y1="114.5" x2="721.5" y2="233.5" stroke="white" stroke-opacity="0.4" stroke-linecap="round" stroke-dasharray="4 4"/>
<rect x="721" y="226" width="1" height="8" fill="#D9D9D9"/>
<rect x="921" y="226" width="1" height="8" fill="#D9D9D9"/>
<line x1="1021.5" y1="114.5" x2="1021.5" y2="233.5" stroke="white" stroke-opacity="0.4" stroke-linecap="round" stroke-dasharray="4 4"/>
<rect x="1021" y="226" width="1" height="8" fill="#D9D9D9"/>
<line x1="1121.5" y1="114.5" x2="1121.5" y2="233.5" stroke="white" stroke-opacity="0.4" stroke-linecap="round" stroke-dasharray="4 4"/>
<rect x="1121" y="226" width="1" height="8" fill="#D9D9D9"/>
<line x1="1221.5" y1="114.5" x2="1221.5" y2="233.5" stroke="white" stroke-opacity="0.4" stroke-linecap="round" stroke-dasharray="4 4"/>
<rect x="1221" y="226" width="1" height="8" fill="#D9D9D9"/>
<line x1="522.5" y1="114.5" x2="522.5" y2="233.5" stroke="white" stroke-opacity="0.4" stroke-linecap="round" stroke-dasharray="4 4"/>
<path d="M434 121.5C438.142 121.5 441.5 124.858 441.5 129V145C441.5 149.142 438.142 152.5 434 152.5H22.5V121.5H434Z" fill="white" stroke="white"/>
<path d="M38.464 142.616V140.424C38.9333 140.627 39.3493 140.776 39.712 140.872C40.0853 140.968 40.4373 141.016 40.768 141.016C41.9307 141.016 42.512 140.456 42.512 139.336V133.448L40.384 132.76V131.368H45.008V139.56C45.008 140.723 44.6667 141.624 43.984 142.264C43.312 142.904 42.368 143.224 41.152 143.224C40.6613 143.224 40.176 143.171 39.696 143.064C39.2267 142.968 38.816 142.819 38.464 142.616ZM47.1048 143V131.368H49.6008V143H47.1048ZM54.7024 143V133.48H51.2624V131.368H60.6384V133.48H57.1984V143H54.7024Z" fill="#1E2631"/>
<path d="M390.392 140.096V138.416L395.208 131.962H397.154V138.276H398.554V140.096H397.154V142H395.082V140.096H390.392ZM395.138 137.744V134.86L392.646 138.276H395.096L395.138 137.744ZM399.549 142V140.53L402.097 137.73C402.591 137.189 402.974 136.75 403.245 136.414C403.525 136.069 403.721 135.779 403.833 135.546C403.945 135.303 404.001 135.079 404.001 134.874C404.001 134.025 403.464 133.6 402.391 133.6C401.635 133.6 400.776 133.857 399.815 134.37V132.494C400.253 132.27 400.725 132.097 401.229 131.976C401.742 131.845 402.241 131.78 402.727 131.78C403.809 131.78 404.649 132.027 405.247 132.522C405.844 133.017 406.143 133.721 406.143 134.636C406.143 135.009 406.068 135.383 405.919 135.756C405.769 136.129 405.522 136.549 405.177 137.016C404.841 137.473 404.383 138.024 403.805 138.668L402.391 140.222H406.171V142H399.549ZM411.202 142.182C409.923 142.182 408.952 141.734 408.29 140.838C407.627 139.942 407.296 138.635 407.296 136.918C407.296 133.493 408.598 131.78 411.202 131.78C413.806 131.78 415.108 133.493 415.108 136.918C415.108 138.635 414.776 139.942 414.114 140.838C413.451 141.734 412.48 142.182 411.202 142.182ZM411.202 140.404C411.79 140.404 412.224 140.119 412.504 139.55C412.784 138.981 412.924 138.103 412.924 136.918C412.924 135.751 412.784 134.902 412.504 134.37C412.233 133.829 411.799 133.558 411.202 133.558C410.604 133.558 410.166 133.829 409.886 134.37C409.615 134.902 409.48 135.751 409.48 136.918C409.48 138.103 409.62 138.981 409.9 139.55C410.18 140.119 410.614 140.404 411.202 140.404ZM416.511 142V134.003H418.304L420.845 139.272L423.353 134.003H425.146V142H423.452V136.819L421.34 141.23H420.284L418.172 136.885V142H416.511ZM426.706 142V134.003H429.511C430.53 134.003 431.278 134.175 431.755 134.52C432.239 134.865 432.481 135.4 432.481 136.126C432.481 136.485 432.385 136.808 432.195 137.094C432.004 137.38 431.74 137.607 431.403 137.776C432.349 138.069 432.822 138.696 432.822 139.657C432.822 141.219 431.74 142 429.577 142H426.706ZM428.356 137.314H429.192C429.771 137.314 430.178 137.241 430.413 137.094C430.655 136.94 430.776 136.683 430.776 136.324C430.776 135.95 430.658 135.69 430.424 135.543C430.189 135.389 429.778 135.312 429.192 135.312H428.356V137.314ZM428.356 140.68H429.445C430.009 140.68 430.424 140.592 430.688 140.416C430.952 140.24 431.084 139.965 431.084 139.591C431.084 139.224 430.952 138.957 430.688 138.788C430.424 138.619 430.009 138.535 429.445 138.535H428.356V140.68Z" fill="#1E2631"/>
<g filter="url(#filter0_d_1208_12546)">
<path d="M149 169.5C153.142 169.5 156.5 172.858 156.5 177V193C156.5 197.142 153.142 200.5 149 200.5H22.5V169.5H149Z" fill="#F29111" stroke="white"/>
<path d="M112.59 190V182.58L110.266 183.364V182.076L113.234 179.962H114.788V190H112.59ZM116.092 189.552V187.69C116.474 187.895 116.918 188.059 117.422 188.18C117.926 188.292 118.406 188.348 118.864 188.348C119.526 188.348 120.035 188.213 120.39 187.942C120.744 187.671 120.922 187.284 120.922 186.78C120.922 186.304 120.782 185.935 120.502 185.674C120.231 185.413 119.83 185.282 119.298 185.282C118.812 185.282 118.336 185.371 117.87 185.548L117.184 184.4L119.704 181.74H116.274V179.962H122.476V181.404L120.068 183.868C120.973 183.971 121.668 184.288 122.154 184.82C122.648 185.343 122.896 186.001 122.896 186.794C122.896 187.494 122.737 188.101 122.42 188.614C122.102 189.118 121.645 189.505 121.048 189.776C120.46 190.047 119.76 190.182 118.948 190.182C118.416 190.182 117.902 190.126 117.408 190.014C116.913 189.911 116.474 189.757 116.092 189.552ZM123.962 189.552V187.69C124.372 187.895 124.83 188.059 125.334 188.18C125.847 188.292 126.342 188.348 126.818 188.348C127.415 188.348 127.886 188.208 128.232 187.928C128.577 187.648 128.75 187.265 128.75 186.78C128.75 186.313 128.605 185.949 128.316 185.688C128.036 185.427 127.634 185.296 127.112 185.296C126.505 185.296 125.884 185.436 125.25 185.716L124.018 184.75L124.606 179.962H130.136V181.74H126.174L125.922 183.924C126.398 183.756 126.883 183.672 127.378 183.672C128.414 183.672 129.23 183.952 129.828 184.512C130.425 185.063 130.724 185.823 130.724 186.794C130.724 187.475 130.57 188.073 130.262 188.586C129.954 189.09 129.515 189.482 128.946 189.762C128.386 190.042 127.728 190.182 126.972 190.182C126.393 190.182 125.838 190.126 125.306 190.014C124.783 189.902 124.335 189.748 123.962 189.552ZM132 190V182.003H133.793L136.334 187.272L138.842 182.003H140.635V190H138.941V184.819L136.829 189.23H135.773L133.661 184.885V190H132ZM142.194 190V182.003H144.999C146.018 182.003 146.766 182.175 147.243 182.52C147.727 182.865 147.969 183.4 147.969 184.126C147.969 184.485 147.874 184.808 147.683 185.094C147.492 185.38 147.228 185.607 146.891 185.776C147.837 186.069 148.31 186.696 148.31 187.657C148.31 189.219 147.228 190 145.065 190H142.194ZM143.844 185.314H144.68C145.259 185.314 145.666 185.241 145.901 185.094C146.143 184.94 146.264 184.683 146.264 184.324C146.264 183.95 146.147 183.69 145.912 183.543C145.677 183.389 145.267 183.312 144.68 183.312H143.844V185.314ZM143.844 188.68H144.933C145.498 188.68 145.912 188.592 146.176 188.416C146.44 188.24 146.572 187.965 146.572 187.591C146.572 187.224 146.44 186.957 146.176 186.788C145.912 186.619 145.498 186.535 144.933 186.535H143.844V188.68Z" fill="white"/>
<path d="M114.85 250V244.7L113.19 245.26V244.34L115.31 242.83H116.42V250H114.85ZM120.351 250.13C119.438 250.13 118.744 249.81 118.271 249.17C117.798 248.53 117.561 247.597 117.561 246.37C117.561 243.923 118.491 242.7 120.351 242.7C122.211 242.7 123.141 243.923 123.141 246.37C123.141 247.597 122.904 248.53 122.431 249.17C121.958 249.81 121.264 250.13 120.351 250.13ZM120.351 248.86C120.771 248.86 121.081 248.657 121.281 248.25C121.481 247.843 121.581 247.217 121.581 246.37C121.581 245.537 121.481 244.93 121.281 244.55C121.088 244.163 120.778 243.97 120.351 243.97C119.924 243.97 119.611 244.163 119.411 244.55C119.218 244.93 119.121 245.537 119.121 246.37C119.121 247.217 119.221 247.843 119.421 248.25C119.621 248.657 119.931 248.86 120.351 248.86ZM126.816 250.13C125.903 250.13 125.209 249.81 124.736 249.17C124.263 248.53 124.026 247.597 124.026 246.37C124.026 243.923 124.956 242.7 126.816 242.7C128.676 242.7 129.606 243.923 129.606 246.37C129.606 247.597 129.369 248.53 128.896 249.17C128.423 249.81 127.729 250.13 126.816 250.13ZM126.816 248.86C127.236 248.86 127.546 248.657 127.746 248.25C127.946 247.843 128.046 247.217 128.046 246.37C128.046 245.537 127.946 244.93 127.746 244.55C127.553 244.163 127.243 243.97 126.816 243.97C126.389 243.97 126.076 244.163 125.876 244.55C125.683 244.93 125.586 245.537 125.586 246.37C125.586 247.217 125.686 247.843 125.886 248.25C126.086 248.657 126.396 248.86 126.816 248.86Z" fill="white"/>
<path d="M915.85 250V244.7L914.19 245.26V244.34L916.31 242.83H917.42V250H915.85ZM918.581 251.64L919.261 250H918.671V248.54H920.331V249.99L919.341 251.64H918.581ZM923.919 250.13C923.006 250.13 922.313 249.81 921.839 249.17C921.366 248.53 921.129 247.597 921.129 246.37C921.129 243.923 922.059 242.7 923.919 242.7C925.779 242.7 926.709 243.923 926.709 246.37C926.709 247.597 926.473 248.53 925.999 249.17C925.526 249.81 924.833 250.13 923.919 250.13ZM923.919 248.86C924.339 248.86 924.649 248.657 924.849 248.25C925.049 247.843 925.149 247.217 925.149 246.37C925.149 245.537 925.049 244.93 924.849 244.55C924.656 244.163 924.346 243.97 923.919 243.97C923.493 243.97 923.179 244.163 922.979 244.55C922.786 244.93 922.689 245.537 922.689 246.37C922.689 247.217 922.789 247.843 922.989 248.25C923.189 248.657 923.499 248.86 923.919 248.86Z" fill="white"/>
<path d="M817.23 250.13C816.317 250.13 815.623 249.81 815.15 249.17C814.677 248.53 814.44 247.597 814.44 246.37C814.44 243.923 815.37 242.7 817.23 242.7C819.09 242.7 820.02 243.923 820.02 246.37C820.02 247.597 819.783 248.53 819.31 249.17C818.837 249.81 818.143 250.13 817.23 250.13ZM817.23 248.86C817.65 248.86 817.96 248.657 818.16 248.25C818.36 247.843 818.46 247.217 818.46 246.37C818.46 245.537 818.36 244.93 818.16 244.55C817.967 244.163 817.657 243.97 817.23 243.97C816.803 243.97 816.49 244.163 816.29 244.55C816.097 244.93 816 245.537 816 246.37C816 247.217 816.1 247.843 816.3 248.25C816.5 248.657 816.81 248.86 817.23 248.86ZM820.73 251.64L821.41 250H820.82V248.54H822.48V249.99L821.49 251.64H820.73ZM823.533 249.68V248.35C823.827 248.497 824.153 248.613 824.513 248.7C824.88 248.78 825.233 248.82 825.573 248.82C826 248.82 826.337 248.72 826.583 248.52C826.83 248.32 826.953 248.047 826.953 247.7C826.953 247.367 826.85 247.107 826.643 246.92C826.443 246.733 826.157 246.64 825.783 246.64C825.35 246.64 824.907 246.74 824.453 246.94L823.573 246.25L823.993 242.83H827.943V244.1H825.113L824.933 245.66C825.273 245.54 825.62 245.48 825.973 245.48C826.713 245.48 827.297 245.68 827.723 246.08C828.15 246.473 828.363 247.017 828.363 247.71C828.363 248.197 828.253 248.623 828.033 248.99C827.813 249.35 827.5 249.63 827.093 249.83C826.693 250.03 826.223 250.13 825.683 250.13C825.27 250.13 824.873 250.09 824.493 250.01C824.12 249.93 823.8 249.82 823.533 249.68Z" fill="white"/>
<path d="M721.23 250.13C720.317 250.13 719.623 249.81 719.15 249.17C718.677 248.53 718.44 247.597 718.44 246.37C718.44 243.923 719.37 242.7 721.23 242.7C723.09 242.7 724.02 243.923 724.02 246.37C724.02 247.597 723.783 248.53 723.31 249.17C722.837 249.81 722.143 250.13 721.23 250.13ZM721.23 248.86C721.65 248.86 721.96 248.657 722.16 248.25C722.36 247.843 722.46 247.217 722.46 246.37C722.46 245.537 722.36 244.93 722.16 244.55C721.967 244.163 721.657 243.97 721.23 243.97C720.803 243.97 720.49 244.163 720.29 244.55C720.097 244.93 720 245.537 720 246.37C720 247.217 720.1 247.843 720.3 248.25C720.5 248.657 720.81 248.86 721.23 248.86Z" fill="white"/>
<path d="M1016.85 250V244.7L1015.19 245.26V244.34L1017.31 242.83H1018.42V250H1016.85ZM1019.58 251.64L1020.26 250H1019.67V248.54H1021.33V249.99L1020.34 251.64H1019.58ZM1022.38 249.68V248.35C1022.68 248.497 1023 248.613 1023.36 248.7C1023.73 248.78 1024.08 248.82 1024.42 248.82C1024.85 248.82 1025.19 248.72 1025.43 248.52C1025.68 248.32 1025.8 248.047 1025.8 247.7C1025.8 247.367 1025.7 247.107 1025.49 246.92C1025.29 246.733 1025.01 246.64 1024.63 246.64C1024.2 246.64 1023.76 246.74 1023.3 246.94L1022.42 246.25L1022.84 242.83H1026.79V244.1H1023.96L1023.78 245.66C1024.12 245.54 1024.47 245.48 1024.82 245.48C1025.56 245.48 1026.15 245.68 1026.57 246.08C1027 246.473 1027.21 247.017 1027.21 247.71C1027.21 248.197 1027.1 248.623 1026.88 248.99C1026.66 249.35 1026.35 249.63 1025.94 249.83C1025.54 250.03 1025.07 250.13 1024.53 250.13C1024.12 250.13 1023.72 250.09 1023.34 250.01C1022.97 249.93 1022.65 249.82 1022.38 249.68Z" fill="white"/>
<path d="M1114.17 250V248.95L1115.99 246.95C1116.34 246.563 1116.62 246.25 1116.81 246.01C1117.01 245.763 1117.15 245.557 1117.23 245.39C1117.31 245.217 1117.35 245.057 1117.35 244.91C1117.35 244.303 1116.97 244 1116.2 244C1115.66 244 1115.05 244.183 1114.36 244.55V243.21C1114.67 243.05 1115.01 242.927 1115.37 242.84C1115.74 242.747 1116.09 242.7 1116.44 242.7C1117.21 242.7 1117.81 242.877 1118.24 243.23C1118.67 243.583 1118.88 244.087 1118.88 244.74C1118.88 245.007 1118.83 245.273 1118.72 245.54C1118.61 245.807 1118.44 246.107 1118.19 246.44C1117.95 246.767 1117.62 247.16 1117.21 247.62L1116.2 248.73H1118.9V250H1114.17ZM1119.72 251.64L1120.4 250H1119.81V248.54H1121.47V249.99L1120.48 251.64H1119.72ZM1125.06 250.13C1124.15 250.13 1123.46 249.81 1122.98 249.17C1122.51 248.53 1122.27 247.597 1122.27 246.37C1122.27 243.923 1123.2 242.7 1125.06 242.7C1126.92 242.7 1127.85 243.923 1127.85 246.37C1127.85 247.597 1127.62 248.53 1127.14 249.17C1126.67 249.81 1125.98 250.13 1125.06 250.13ZM1125.06 248.86C1125.48 248.86 1125.79 248.657 1125.99 248.25C1126.19 247.843 1126.29 247.217 1126.29 246.37C1126.29 245.537 1126.19 244.93 1125.99 244.55C1125.8 244.163 1125.49 243.97 1125.06 243.97C1124.64 243.97 1124.32 244.163 1124.12 244.55C1123.93 244.93 1123.83 245.537 1123.83 246.37C1123.83 247.217 1123.93 247.843 1124.13 248.25C1124.33 248.657 1124.64 248.86 1125.06 248.86Z" fill="white"/>
<path d="M1215.17 250V248.95L1216.99 246.95C1217.34 246.563 1217.62 246.25 1217.81 246.01C1218.01 245.763 1218.15 245.557 1218.23 245.39C1218.31 245.217 1218.35 245.057 1218.35 244.91C1218.35 244.303 1217.97 244 1217.2 244C1216.66 244 1216.05 244.183 1215.36 244.55V243.21C1215.67 243.05 1216.01 242.927 1216.37 242.84C1216.74 242.747 1217.09 242.7 1217.44 242.7C1218.21 242.7 1218.81 242.877 1219.24 243.23C1219.67 243.583 1219.88 244.087 1219.88 244.74C1219.88 245.007 1219.83 245.273 1219.72 245.54C1219.61 245.807 1219.44 246.107 1219.19 246.44C1218.95 246.767 1218.62 247.16 1218.21 247.62L1217.2 248.73H1219.9V250H1215.17ZM1220.72 251.64L1221.4 250H1220.81V248.54H1222.47V249.99L1221.48 251.64H1220.72ZM1223.53 249.68V248.35C1223.82 248.497 1224.15 248.613 1224.51 248.7C1224.87 248.78 1225.23 248.82 1225.57 248.82C1225.99 248.82 1226.33 248.72 1226.58 248.52C1226.82 248.32 1226.95 248.047 1226.95 247.7C1226.95 247.367 1226.84 247.107 1226.64 246.92C1226.44 246.733 1226.15 246.64 1225.78 246.64C1225.34 246.64 1224.9 246.74 1224.45 246.94L1223.57 246.25L1223.99 242.83H1227.94V244.1H1225.11L1224.93 245.66C1225.27 245.54 1225.61 245.48 1225.97 245.48C1226.71 245.48 1227.29 245.68 1227.72 246.08C1228.14 246.473 1228.36 247.017 1228.36 247.71C1228.36 248.197 1228.25 248.623 1228.03 248.99C1227.81 249.35 1227.49 249.63 1227.09 249.83C1226.69 250.03 1226.22 250.13 1225.68 250.13C1225.26 250.13 1224.87 250.09 1224.49 250.01C1224.11 249.93 1223.79 249.82 1223.53 249.68Z" fill="white"/>
<path d="M22.23 250.13C21.3167 250.13 20.6233 249.81 20.15 249.17C19.6767 248.53 19.44 247.597 19.44 246.37C19.44 243.923 20.37 242.7 22.23 242.7C24.09 242.7 25.02 243.923 25.02 246.37C25.02 247.597 24.7833 248.53 24.31 249.17C23.8367 249.81 23.1433 250.13 22.23 250.13ZM22.23 248.86C22.65 248.86 22.96 248.657 23.16 248.25C23.36 247.843 23.46 247.217 23.46 246.37C23.46 245.537 23.36 244.93 23.16 244.55C22.9667 244.163 22.6567 243.97 22.23 243.97C21.8033 243.97 21.49 244.163 21.29 244.55C21.0967 244.93 21 245.537 21 246.37C21 247.217 21.1 247.843 21.3 248.25C21.5 248.657 21.81 248.86 22.23 248.86Z" fill="white"/>
<path d="M212.17 250V248.95L213.99 246.95C214.343 246.563 214.617 246.25 214.81 246.01C215.01 245.763 215.15 245.557 215.23 245.39C215.31 245.217 215.35 245.057 215.35 244.91C215.35 244.303 214.967 244 214.2 244C213.66 244 213.047 244.183 212.36 244.55V243.21C212.673 243.05 213.01 242.927 213.37 242.84C213.737 242.747 214.093 242.7 214.44 242.7C215.213 242.7 215.813 242.877 216.24 243.23C216.667 243.583 216.88 244.087 216.88 244.74C216.88 245.007 216.827 245.273 216.72 245.54C216.613 245.807 216.437 246.107 216.19 246.44C215.95 246.767 215.623 247.16 215.21 247.62L214.2 248.73H216.9V250H212.17ZM220.494 250.13C219.58 250.13 218.887 249.81 218.414 249.17C217.94 248.53 217.704 247.597 217.704 246.37C217.704 243.923 218.634 242.7 220.494 242.7C222.354 242.7 223.284 243.923 223.284 246.37C223.284 247.597 223.047 248.53 222.574 249.17C222.1 249.81 221.407 250.13 220.494 250.13ZM220.494 248.86C220.914 248.86 221.224 248.657 221.424 248.25C221.624 247.843 221.724 247.217 221.724 246.37C221.724 245.537 221.624 244.93 221.424 244.55C221.23 244.163 220.92 243.97 220.494 243.97C220.067 243.97 219.754 244.163 219.554 244.55C219.36 244.93 219.264 245.537 219.264 246.37C219.264 247.217 219.364 247.843 219.564 248.25C219.764 248.657 220.074 248.86 220.494 248.86ZM226.959 250.13C226.045 250.13 225.352 249.81 224.879 249.17C224.405 248.53 224.169 247.597 224.169 246.37C224.169 243.923 225.099 242.7 226.959 242.7C228.819 242.7 229.749 243.923 229.749 246.37C229.749 247.597 229.512 248.53 229.039 249.17C228.565 249.81 227.872 250.13 226.959 250.13ZM226.959 248.86C227.379 248.86 227.689 248.657 227.889 248.25C228.089 247.843 228.189 247.217 228.189 246.37C228.189 245.537 228.089 244.93 227.889 244.55C227.695 244.163 227.385 243.97 226.959 243.97C226.532 243.97 226.219 244.163 226.019 244.55C225.825 244.93 225.729 245.537 225.729 246.37C225.729 247.217 225.829 247.843 226.029 248.25C226.229 248.657 226.539 248.86 226.959 248.86Z" fill="white"/>
<path d="M311.23 249.68V248.35C311.503 248.497 311.82 248.613 312.18 248.7C312.54 248.78 312.883 248.82 313.21 248.82C313.683 248.82 314.047 248.723 314.3 248.53C314.553 248.337 314.68 248.06 314.68 247.7C314.68 247.36 314.58 247.097 314.38 246.91C314.187 246.723 313.9 246.63 313.52 246.63C313.173 246.63 312.833 246.693 312.5 246.82L312.01 246L313.81 244.1H311.36V242.83H315.79V243.86L314.07 245.62C314.717 245.693 315.213 245.92 315.56 246.3C315.913 246.673 316.09 247.143 316.09 247.71C316.09 248.21 315.977 248.643 315.75 249.01C315.523 249.37 315.197 249.647 314.77 249.84C314.35 250.033 313.85 250.13 313.27 250.13C312.89 250.13 312.523 250.09 312.17 250.01C311.817 249.937 311.503 249.827 311.23 249.68ZM319.582 250.13C318.668 250.13 317.975 249.81 317.502 249.17C317.028 248.53 316.792 247.597 316.792 246.37C316.792 243.923 317.722 242.7 319.582 242.7C321.442 242.7 322.372 243.923 322.372 246.37C322.372 247.597 322.135 248.53 321.662 249.17C321.188 249.81 320.495 250.13 319.582 250.13ZM319.582 248.86C320.002 248.86 320.312 248.657 320.512 248.25C320.712 247.843 320.812 247.217 320.812 246.37C320.812 245.537 320.712 244.93 320.512 244.55C320.318 244.163 320.008 243.97 319.582 243.97C319.155 243.97 318.842 244.163 318.642 244.55C318.448 244.93 318.352 245.537 318.352 246.37C318.352 247.217 318.452 247.843 318.652 248.25C318.852 248.657 319.162 248.86 319.582 248.86ZM326.046 250.13C325.133 250.13 324.44 249.81 323.966 249.17C323.493 248.53 323.256 247.597 323.256 246.37C323.256 243.923 324.186 242.7 326.046 242.7C327.906 242.7 328.836 243.923 328.836 246.37C328.836 247.597 328.6 248.53 328.126 249.17C327.653 249.81 326.96 250.13 326.046 250.13ZM326.046 248.86C326.466 248.86 326.776 248.657 326.976 248.25C327.176 247.843 327.276 247.217 327.276 246.37C327.276 245.537 327.176 244.93 326.976 244.55C326.783 244.163 326.473 243.97 326.046 243.97C325.62 243.97 325.306 244.163 325.106 244.55C324.913 244.93 324.816 245.537 324.816 246.37C324.816 247.217 324.916 247.843 325.116 248.25C325.316 248.657 325.626 248.86 326.046 248.86Z" fill="white"/>
<path d="M412.28 248.64V247.44L415.72 242.83H417.11V247.34H418.11V248.64H417.11V250H415.63V248.64H412.28ZM415.67 246.96V244.9L413.89 247.34H415.64L415.67 246.96ZM421.578 250.13C420.664 250.13 419.971 249.81 419.498 249.17C419.024 248.53 418.788 247.597 418.788 246.37C418.788 243.923 419.718 242.7 421.578 242.7C423.438 242.7 424.368 243.923 424.368 246.37C424.368 247.597 424.131 248.53 423.658 249.17C423.184 249.81 422.491 250.13 421.578 250.13ZM421.578 248.86C421.998 248.86 422.308 248.657 422.508 248.25C422.708 247.843 422.808 247.217 422.808 246.37C422.808 245.537 422.708 244.93 422.508 244.55C422.314 244.163 422.004 243.97 421.578 243.97C421.151 243.97 420.838 244.163 420.638 244.55C420.444 244.93 420.348 245.537 420.348 246.37C420.348 247.217 420.448 247.843 420.648 248.25C420.848 248.657 421.158 248.86 421.578 248.86ZM428.043 250.13C427.129 250.13 426.436 249.81 425.963 249.17C425.489 248.53 425.253 247.597 425.253 246.37C425.253 243.923 426.183 242.7 428.043 242.7C429.903 242.7 430.833 243.923 430.833 246.37C430.833 247.597 430.596 248.53 430.123 249.17C429.649 249.81 428.956 250.13 428.043 250.13ZM428.043 248.86C428.463 248.86 428.773 248.657 428.973 248.25C429.173 247.843 429.273 247.217 429.273 246.37C429.273 245.537 429.173 244.93 428.973 244.55C428.779 244.163 428.469 243.97 428.043 243.97C427.616 243.97 427.303 244.163 427.103 244.55C426.909 244.93 426.813 245.537 426.813 246.37C426.813 247.217 426.913 247.843 427.113 248.25C427.313 248.657 427.623 248.86 428.043 248.86Z" fill="white"/>
<path d="M512.5 249.68V248.35C512.793 248.497 513.12 248.613 513.48 248.7C513.847 248.78 514.2 248.82 514.54 248.82C514.967 248.82 515.303 248.72 515.55 248.52C515.797 248.32 515.92 248.047 515.92 247.7C515.92 247.367 515.817 247.107 515.61 246.92C515.41 246.733 515.123 246.64 514.75 246.64C514.317 246.64 513.873 246.74 513.42 246.94L512.54 246.25L512.96 242.83H516.91V244.1H514.08L513.9 245.66C514.24 245.54 514.587 245.48 514.94 245.48C515.68 245.48 516.263 245.68 516.69 246.08C517.117 246.473 517.33 247.017 517.33 247.71C517.33 248.197 517.22 248.623 517 248.99C516.78 249.35 516.467 249.63 516.06 249.83C515.66 250.03 515.19 250.13 514.65 250.13C514.237 250.13 513.84 250.09 513.46 250.01C513.087 249.93 512.767 249.82 512.5 249.68ZM520.914 250.13C520 250.13 519.307 249.81 518.834 249.17C518.36 248.53 518.124 247.597 518.124 246.37C518.124 243.923 519.054 242.7 520.914 242.7C522.774 242.7 523.704 243.923 523.704 246.37C523.704 247.597 523.467 248.53 522.994 249.17C522.52 249.81 521.827 250.13 520.914 250.13ZM520.914 248.86C521.334 248.86 521.644 248.657 521.844 248.25C522.044 247.843 522.144 247.217 522.144 246.37C522.144 245.537 522.044 244.93 521.844 244.55C521.65 244.163 521.34 243.97 520.914 243.97C520.487 243.97 520.174 244.163 519.974 244.55C519.78 244.93 519.684 245.537 519.684 246.37C519.684 247.217 519.784 247.843 519.984 248.25C520.184 248.657 520.494 248.86 520.914 248.86ZM527.378 250.13C526.465 250.13 525.772 249.81 525.298 249.17C524.825 248.53 524.588 247.597 524.588 246.37C524.588 243.923 525.518 242.7 527.378 242.7C529.238 242.7 530.168 243.923 530.168 246.37C530.168 247.597 529.932 248.53 529.458 249.17C528.985 249.81 528.292 250.13 527.378 250.13ZM527.378 248.86C527.798 248.86 528.108 248.657 528.308 248.25C528.508 247.843 528.608 247.217 528.608 246.37C528.608 245.537 528.508 244.93 528.308 244.55C528.115 244.163 527.805 243.97 527.378 243.97C526.952 243.97 526.638 244.163 526.438 244.55C526.245 244.93 526.148 245.537 526.148 246.37C526.148 247.217 526.248 247.843 526.448 248.25C526.648 248.657 526.958 248.86 527.378 248.86Z" fill="white"/>
<path d="M39.136 191V179.368H41.44L46.464 186.936V179.368H48.928V191H46.624L41.6 183.416V191H39.136ZM50.1745 191L54.5905 179.368H57.0065L61.4545 191H58.6705L57.9025 188.616H53.6145L52.8465 191H50.1745ZM54.2865 186.504H57.2145L55.7425 181.928L54.2865 186.504ZM63.7649 191V181.48H60.3249V179.368H69.7009V181.48H66.2609V191H63.7649ZM71.3704 191V179.368H73.8664V191H71.3704ZM79.4 191L75.112 179.368H77.928L80.648 187.928L83.4 179.368H86.104L81.816 191H79.4ZM87.3548 191V179.368H94.9228V181.48H89.8508V184.072H94.4588V186.184H89.8508V188.888H95.0828V191H87.3548Z" fill="white"/>
</g>
<rect x="721.5" y="121.5" width="499" height="31" rx="7.5" fill="#3E4253" stroke="white"/>
<path d="M931 121.5C935.142 121.5 938.5 124.858 938.5 129V145C938.5 149.142 935.142 152.5 931 152.5H721.5V121.5H931Z" fill="white" stroke="white"/>
<path d="M681.464 142.616V140.424C681.933 140.627 682.349 140.776 682.712 140.872C683.085 140.968 683.437 141.016 683.768 141.016C684.931 141.016 685.512 140.456 685.512 139.336V133.448L683.384 132.76V131.368H688.008V139.56C688.008 140.723 687.667 141.624 686.984 142.264C686.312 142.904 685.368 143.224 684.152 143.224C683.661 143.224 683.176 143.171 682.696 143.064C682.227 142.968 681.816 142.819 681.464 142.616ZM690.105 143V131.368H692.601V143H690.105ZM697.702 143V133.48H694.262V131.368H703.638V133.48H700.198V143H697.702Z" fill="white"/>
<path d="M1167.59 142V134.58L1165.27 135.364V134.076L1168.23 131.962H1169.79V142H1167.59ZM1171.54 142V139.956H1173.86V142H1171.54ZM1175.83 142V134.58L1173.51 135.364V134.076L1176.48 131.962H1178.03V142H1175.83ZM1187.06 139.172C1187.06 140.115 1186.73 140.852 1186.06 141.384C1185.39 141.916 1184.46 142.182 1183.27 142.182C1182.08 142.182 1181.16 141.916 1180.48 141.384C1179.81 140.852 1179.48 140.115 1179.48 139.172C1179.48 138.612 1179.63 138.113 1179.94 137.674C1180.26 137.235 1180.68 136.904 1181.21 136.68C1180.23 136.157 1179.74 135.429 1179.74 134.496C1179.74 133.637 1180.05 132.97 1180.67 132.494C1181.28 132.018 1182.15 131.78 1183.27 131.78C1184.39 131.78 1185.26 132.018 1185.87 132.494C1186.49 132.97 1186.8 133.637 1186.8 134.496C1186.8 135.429 1186.31 136.157 1185.33 136.68C1185.86 136.904 1186.28 137.235 1186.59 137.674C1186.91 138.113 1187.06 138.612 1187.06 139.172ZM1183.27 136.008C1184.26 135.793 1184.75 135.331 1184.75 134.622C1184.75 133.847 1184.26 133.46 1183.27 133.46C1182.28 133.46 1181.79 133.847 1181.79 134.622C1181.79 135.331 1182.28 135.793 1183.27 136.008ZM1183.27 137.366C1182.11 137.581 1181.53 138.136 1181.53 139.032C1181.53 139.489 1181.69 139.849 1182 140.11C1182.3 140.371 1182.73 140.502 1183.27 140.502C1183.82 140.502 1184.25 140.371 1184.54 140.11C1184.85 139.849 1185.01 139.489 1185.01 139.032C1185.01 138.136 1184.43 137.581 1183.27 137.366ZM1191.58 141.678V139.998C1192.05 140.175 1192.49 140.306 1192.88 140.39C1193.27 140.465 1193.68 140.502 1194.1 140.502C1194.9 140.502 1195.3 140.297 1195.3 139.886C1195.3 139.727 1195.22 139.597 1195.06 139.494C1194.92 139.391 1194.66 139.289 1194.31 139.186L1193.27 138.892C1192.65 138.705 1192.18 138.444 1191.86 138.108C1191.54 137.772 1191.38 137.333 1191.38 136.792C1191.38 136.055 1191.66 135.476 1192.22 135.056C1192.78 134.636 1193.55 134.426 1194.53 134.426C1194.95 134.426 1195.38 134.463 1195.81 134.538C1196.24 134.613 1196.6 134.715 1196.91 134.846V136.498C1196.15 136.209 1195.37 136.064 1194.57 136.064C1193.83 136.064 1193.45 136.255 1193.45 136.638C1193.45 136.769 1193.53 136.885 1193.68 136.988C1193.83 137.091 1194.08 137.193 1194.42 137.296L1195.46 137.59C1196.17 137.795 1196.66 138.057 1196.94 138.374C1197.23 138.691 1197.37 139.153 1197.37 139.76C1197.37 140.553 1197.1 141.155 1196.55 141.566C1196 141.967 1195.2 142.168 1194.14 142.168C1193.66 142.168 1193.19 142.121 1192.71 142.028C1192.24 141.944 1191.86 141.827 1191.58 141.678ZM1204.81 141.65C1204.1 141.995 1203.24 142.168 1202.24 142.168C1200.97 142.168 1199.99 141.837 1199.31 141.174C1198.63 140.502 1198.29 139.536 1198.29 138.276C1198.29 137.072 1198.62 136.129 1199.27 135.448C1199.93 134.767 1200.84 134.426 1202 134.426C1203.03 134.426 1203.81 134.725 1204.35 135.322C1204.89 135.919 1205.16 136.745 1205.16 137.8V138.878H1200.4C1200.49 139.457 1200.69 139.877 1201.02 140.138C1201.36 140.399 1201.84 140.53 1202.46 140.53C1202.85 140.53 1203.23 140.497 1203.58 140.432C1203.95 140.357 1204.36 140.231 1204.81 140.054V141.65ZM1201.97 135.966C1200.97 135.966 1200.44 136.475 1200.36 137.492H1203.27C1203.26 137.016 1203.13 136.643 1202.9 136.372C1202.66 136.101 1202.35 135.966 1201.97 135.966ZM1212.26 140.11V141.776C1211.98 141.888 1211.63 141.981 1211.24 142.056C1210.85 142.131 1210.45 142.168 1210.04 142.168C1207.58 142.168 1206.36 140.852 1206.36 138.22C1206.36 137.044 1206.69 136.12 1207.36 135.448C1208.05 134.767 1208.98 134.426 1210.16 134.426C1210.81 134.426 1211.44 134.533 1212.05 134.748V136.386C1211.6 136.153 1211.09 136.036 1210.54 136.036C1209.89 136.036 1209.39 136.218 1209.03 136.582C1208.68 136.937 1208.5 137.483 1208.5 138.22C1208.5 138.929 1208.65 139.494 1208.96 139.914C1209.28 140.325 1209.74 140.53 1210.35 140.53C1210.65 140.53 1210.95 140.493 1211.27 140.418C1211.59 140.343 1211.92 140.241 1212.26 140.11Z" fill="white"/>
<rect x="721.5" y="169.5" width="499" height="31" rx="7.5" fill="#3E4253" stroke="white"/>
<g filter="url(#filter1_d_1208_12546)">
<path d="M721 169H725C729.418 169 733 172.582 733 177V193C733 197.418 729.418 201 725 201H721V169Z" fill="#F29111"/>
<path d="M725 169.5C729.142 169.5 732.5 172.858 732.5 177V193C732.5 197.142 729.142 200.5 725 200.5H721.5V169.5H725Z" stroke="white"/>
</g>
<path d="M1167.52 190.182C1166.24 190.182 1165.27 189.734 1164.61 188.838C1163.95 187.942 1163.62 186.635 1163.62 184.918C1163.62 181.493 1164.92 179.78 1167.52 179.78C1170.13 179.78 1171.43 181.493 1171.43 184.918C1171.43 186.635 1171.1 187.942 1170.43 188.838C1169.77 189.734 1168.8 190.182 1167.52 190.182ZM1167.52 188.404C1168.11 188.404 1168.54 188.119 1168.82 187.55C1169.1 186.981 1169.24 186.103 1169.24 184.918C1169.24 183.751 1169.1 182.902 1168.82 182.37C1168.55 181.829 1168.12 181.558 1167.52 181.558C1166.92 181.558 1166.49 181.829 1166.21 182.37C1165.94 182.902 1165.8 183.751 1165.8 184.918C1165.8 186.103 1165.94 186.981 1166.22 187.55C1166.5 188.119 1166.93 188.404 1167.52 188.404ZM1172.55 190V187.956H1174.87V190H1172.55ZM1176.84 190V182.58L1174.52 183.364V182.076L1177.49 179.962H1179.04V190H1176.84ZM1180.26 190V188.53L1182.81 185.73C1183.3 185.189 1183.68 184.75 1183.96 184.414C1184.24 184.069 1184.43 183.779 1184.54 183.546C1184.66 183.303 1184.71 183.079 1184.71 182.874C1184.71 182.025 1184.17 181.6 1183.1 181.6C1182.35 181.6 1181.49 181.857 1180.53 182.37V180.494C1180.96 180.27 1181.44 180.097 1181.94 179.976C1182.45 179.845 1182.95 179.78 1183.44 179.78C1184.52 179.78 1185.36 180.027 1185.96 180.522C1186.55 181.017 1186.85 181.721 1186.85 182.636C1186.85 183.009 1186.78 183.383 1186.63 183.756C1186.48 184.129 1186.23 184.549 1185.89 185.016C1185.55 185.473 1185.09 186.024 1184.52 186.668L1183.1 188.222H1186.88V190H1180.26ZM1191.44 189.678V187.998C1191.91 188.175 1192.35 188.306 1192.74 188.39C1193.13 188.465 1193.54 188.502 1193.96 188.502C1194.76 188.502 1195.16 188.297 1195.16 187.886C1195.16 187.727 1195.08 187.597 1194.92 187.494C1194.77 187.391 1194.52 187.289 1194.17 187.186L1193.13 186.892C1192.51 186.705 1192.04 186.444 1191.72 186.108C1191.4 185.772 1191.24 185.333 1191.24 184.792C1191.24 184.055 1191.52 183.476 1192.08 183.056C1192.64 182.636 1193.41 182.426 1194.39 182.426C1194.81 182.426 1195.24 182.463 1195.67 182.538C1196.1 182.613 1196.46 182.715 1196.77 182.846V184.498C1196.01 184.209 1195.23 184.064 1194.43 184.064C1193.69 184.064 1193.31 184.255 1193.31 184.638C1193.31 184.769 1193.39 184.885 1193.54 184.988C1193.69 185.091 1193.93 185.193 1194.28 185.296L1195.32 185.59C1196.03 185.795 1196.52 186.057 1196.8 186.374C1197.09 186.691 1197.23 187.153 1197.23 187.76C1197.23 188.553 1196.96 189.155 1196.41 189.566C1195.86 189.967 1195.05 190.168 1194 190.168C1193.52 190.168 1193.05 190.121 1192.57 190.028C1192.1 189.944 1191.72 189.827 1191.44 189.678ZM1204.67 189.65C1203.95 189.995 1203.1 190.168 1202.1 190.168C1200.83 190.168 1199.85 189.837 1199.17 189.174C1198.49 188.502 1198.15 187.536 1198.15 186.276C1198.15 185.072 1198.48 184.129 1199.13 183.448C1199.79 182.767 1200.7 182.426 1201.86 182.426C1202.89 182.426 1203.67 182.725 1204.21 183.322C1204.75 183.919 1205.02 184.745 1205.02 185.8V186.878H1200.26C1200.35 187.457 1200.55 187.877 1200.88 188.138C1201.22 188.399 1201.7 188.53 1202.32 188.53C1202.71 188.53 1203.09 188.497 1203.44 188.432C1203.81 188.357 1204.22 188.231 1204.67 188.054V189.65ZM1201.83 183.966C1200.83 183.966 1200.3 184.475 1200.22 185.492H1203.13C1203.11 185.016 1202.99 184.643 1202.76 184.372C1202.52 184.101 1202.21 183.966 1201.83 183.966ZM1212.12 188.11V189.776C1211.83 189.888 1211.49 189.981 1211.1 190.056C1210.71 190.131 1210.31 190.168 1209.9 190.168C1207.44 190.168 1206.22 188.852 1206.22 186.22C1206.22 185.044 1206.55 184.12 1207.22 183.448C1207.91 182.767 1208.84 182.426 1210.02 182.426C1210.67 182.426 1211.3 182.533 1211.91 182.748V184.386C1211.46 184.153 1210.95 184.036 1210.4 184.036C1209.75 184.036 1209.24 184.218 1208.89 184.582C1208.54 184.937 1208.36 185.483 1208.36 186.22C1208.36 186.929 1208.51 187.494 1208.82 187.914C1209.14 188.325 1209.6 188.53 1210.21 188.53C1210.5 188.53 1210.81 188.493 1211.13 188.418C1211.45 188.343 1211.78 188.241 1212.12 188.11Z" fill="white"/>
<path d="M648.136 191V179.368H650.44L655.464 186.936V179.368H657.928V191H655.624L650.6 183.416V191H648.136ZM659.175 191L663.591 179.368H666.007L670.455 191H667.671L666.903 188.616H662.615L661.847 191H659.175ZM663.286 186.504H666.215L664.743 181.928L663.286 186.504ZM672.765 191V181.48H669.325V179.368H678.701V181.48H675.261V191H672.765ZM680.37 191V179.368H682.866V191H680.37ZM688.4 191L684.112 179.368H686.928L689.648 187.928L692.4 179.368H695.104L690.816 191H688.4ZM696.355 191V179.368H703.923V181.48H698.851V184.072H703.459V186.184H698.851V188.888H704.083V191H696.355Z" fill="white"/>
<path d="M23.52 100V85.46H26.12L31.16 95.86L36.12 85.46H38.7V100H36.26V89.78L31.98 98.6H30.22L25.96 89.92V100H23.52ZM49.9627 99.5C49.5227 99.7267 48.9893 99.9067 48.3627 100.04C47.736 100.173 47.0693 100.24 46.3627 100.24C44.6293 100.24 43.3027 99.7667 42.3827 98.82C41.476 97.8733 41.0227 96.4933 41.0227 94.68C41.0227 92.9467 41.456 91.6133 42.3227 90.68C43.2027 89.7333 44.436 89.26 46.0227 89.26C47.4893 89.26 48.596 89.68 49.3427 90.52C50.0893 91.3467 50.4627 92.5333 50.4627 94.08V95.44H43.4427C43.536 96.44 43.836 97.1667 44.3427 97.62C44.8627 98.0733 45.616 98.3 46.6027 98.3C47.1893 98.3 47.7427 98.2467 48.2627 98.14C48.7827 98.02 49.3493 97.8333 49.9627 97.58V99.5ZM46.0027 91.1C44.4027 91.1 43.5427 91.9733 43.4227 93.72H48.2227C48.2093 91.9733 47.4693 91.1 46.0027 91.1ZM52.5992 100V89.48H54.2192L54.5792 91.12C54.9926 90.5333 55.4992 90.08 56.0992 89.76C56.6992 89.4267 57.3459 89.26 58.0392 89.26C59.5326 89.26 60.5592 89.8733 61.1192 91.1C61.5192 90.5267 62.0259 90.08 62.6392 89.76C63.2526 89.4267 63.9192 89.26 64.6392 89.26C65.7859 89.26 66.6592 89.6267 67.2592 90.36C67.8726 91.08 68.1792 92.1333 68.1792 93.52V100H65.7392V93.6C65.7392 92.0533 65.1392 91.28 63.9392 91.28C63.3792 91.28 62.8926 91.4467 62.4792 91.78C62.0792 92.1 61.7859 92.5533 61.5992 93.14V100H59.1992V93.6C59.1992 92.0533 58.5926 91.28 57.3792 91.28C56.8326 91.28 56.3526 91.4533 55.9392 91.8C55.5259 92.1467 55.2259 92.6133 55.0392 93.2V100H52.5992ZM75.42 100.22C73.8067 100.22 72.5467 99.74 71.64 98.78C70.7467 97.82 70.3 96.4733 70.3 94.74C70.3 93.0067 70.7467 91.66 71.64 90.7C72.5467 89.74 73.8067 89.26 75.42 89.26C77.0467 89.26 78.3067 89.74 79.2 90.7C80.0933 91.66 80.54 93.0067 80.54 94.74C80.54 96.4733 80.0933 97.82 79.2 98.78C78.3067 99.74 77.0467 100.22 75.42 100.22ZM75.42 98.32C77.1933 98.32 78.08 97.1267 78.08 94.74C78.08 92.3533 77.1933 91.16 75.42 91.16C73.6467 91.16 72.76 92.3533 72.76 94.74C72.76 97.1267 73.6467 98.32 75.42 98.32ZM82.7359 100V89.48H84.3559L84.7359 91.22C85.0693 90.66 85.4893 90.2267 85.9959 89.92C86.5026 89.6 87.0959 89.44 87.7759 89.44C88.0293 89.44 88.2626 89.46 88.4759 89.5V91.68H87.8959C87.1626 91.68 86.5626 91.8867 86.0959 92.3C85.6293 92.7 85.3226 93.2333 85.1759 93.9V100H82.7359ZM93.2442 99.9L89.5642 89.48H92.0842L95.0642 98.36L97.5242 89.48H99.9442L96.9642 99.46C96.6442 100.513 96.2709 101.373 95.8442 102.04C95.4176 102.707 94.8909 103.22 94.2642 103.58C93.6376 103.953 92.8509 104.233 91.9042 104.42L91.3842 102.42C92.2909 102.193 92.9709 101.9 93.4242 101.54C93.8776 101.18 94.2309 100.633 94.4842 99.9H93.2442ZM106.606 100V85.46H115.646V87.58H109.106V91.94H114.946V94.06H109.106V100H106.606ZM122.041 100.22C120.428 100.22 119.168 99.74 118.261 98.78C117.368 97.82 116.921 96.4733 116.921 94.74C116.921 93.0067 117.368 91.66 118.261 90.7C119.168 89.74 120.428 89.26 122.041 89.26C123.668 89.26 124.928 89.74 125.821 90.7C126.714 91.66 127.161 93.0067 127.161 94.74C127.161 96.4733 126.714 97.82 125.821 98.78C124.928 99.74 123.668 100.22 122.041 100.22ZM122.041 98.32C123.814 98.32 124.701 97.1267 124.701 94.74C124.701 92.3533 123.814 91.16 122.041 91.16C120.268 91.16 119.381 92.3533 119.381 94.74C119.381 97.1267 120.268 98.32 122.041 98.32ZM133.877 100.22C132.264 100.22 131.004 99.74 130.097 98.78C129.204 97.82 128.757 96.4733 128.757 94.74C128.757 93.0067 129.204 91.66 130.097 90.7C131.004 89.74 132.264 89.26 133.877 89.26C135.504 89.26 136.764 89.74 137.657 90.7C138.55 91.66 138.997 93.0067 138.997 94.74C138.997 96.4733 138.55 97.82 137.657 98.78C136.764 99.74 135.504 100.22 133.877 100.22ZM133.877 98.32C135.65 98.32 136.537 97.1267 136.537 94.74C136.537 92.3533 135.65 91.16 133.877 91.16C132.104 91.16 131.217 92.3533 131.217 94.74C131.217 97.1267 132.104 98.32 133.877 98.32ZM141.613 96.58V91.38H139.793V90.16L141.673 89.44L142.493 86.52H144.053V89.48H146.313V91.38H144.053V96.56C144.053 97.12 144.18 97.5267 144.433 97.78C144.686 98.02 145.06 98.14 145.553 98.14C145.7 98.14 145.853 98.14 146.013 98.14C146.186 98.1267 146.326 98.1133 146.433 98.1V100.02C146.166 100.06 145.92 100.087 145.693 100.1C145.48 100.113 145.24 100.12 144.973 100.12C143.84 100.12 142.993 99.8333 142.433 99.26C141.886 98.6867 141.613 97.7933 141.613 96.58ZM148.595 104.02V89.48H150.215L150.575 91.1C150.989 90.5133 151.489 90.06 152.075 89.74C152.675 89.42 153.315 89.26 153.995 89.26C155.382 89.26 156.469 89.7467 157.255 90.72C158.042 91.68 158.435 93.0267 158.435 94.76C158.435 96.4933 158.042 97.84 157.255 98.8C156.482 99.7467 155.395 100.22 153.995 100.22C152.849 100.22 151.862 99.8267 151.035 99.04V104.02H148.595ZM153.535 91.22C153.029 91.22 152.549 91.36 152.095 91.64C151.655 91.9067 151.295 92.2667 151.015 92.72V97.1C151.682 97.8867 152.522 98.28 153.535 98.28C154.322 98.28 154.922 97.98 155.335 97.38C155.762 96.7667 155.975 95.8867 155.975 94.74C155.975 93.5933 155.762 92.72 155.335 92.12C154.922 91.52 154.322 91.22 153.535 91.22ZM160.627 100V89.48H162.247L162.627 91.22C162.96 90.66 163.38 90.2267 163.887 89.92C164.393 89.6 164.987 89.44 165.667 89.44C165.92 89.44 166.153 89.46 166.367 89.5V91.68H165.787C165.053 91.68 164.453 91.8867 163.987 92.3C163.52 92.7 163.213 93.2333 163.067 93.9V100H160.627ZM168.415 87.36V85.36H171.195V87.36H168.415ZM168.775 100V91.26L167.715 90.48V89.48H171.215V100H168.775ZM174.005 100V89.48H175.625L175.985 91.18C176.452 90.5667 176.999 90.0933 177.625 89.76C178.265 89.4267 178.979 89.26 179.765 89.26C180.979 89.26 181.905 89.6267 182.545 90.36C183.185 91.08 183.505 92.1333 183.505 93.52V100H181.065V93.6C181.065 92.0533 180.405 91.28 179.085 91.28C178.512 91.28 177.985 91.4533 177.505 91.8C177.039 92.1467 176.685 92.6133 176.445 93.2V100H174.005ZM186.652 96.58V91.38H184.832V90.16L186.712 89.44L187.532 86.52H189.092V89.48H191.352V91.38H189.092V96.56C189.092 97.12 189.219 97.5267 189.472 97.78C189.725 98.02 190.099 98.14 190.592 98.14C190.739 98.14 190.892 98.14 191.052 98.14C191.225 98.1267 191.365 98.1133 191.472 98.1V100.02C191.205 100.06 190.959 100.087 190.732 100.1C190.519 100.113 190.279 100.12 190.012 100.12C188.879 100.12 188.032 99.8333 187.472 99.26C186.925 98.6867 186.652 97.7933 186.652 96.58Z" fill="white"/>
<path d="M726.12 100V87.58H721.68V85.46H733.06V87.58H728.62V100H726.12ZM734.739 87.36V85.36H737.519V87.36H734.739ZM735.099 100V91.26L734.039 90.48V89.48H737.539V100H735.099ZM740.33 100V89.48H741.95L742.31 91.12C742.723 90.5333 743.23 90.08 743.83 89.76C744.43 89.4267 745.076 89.26 745.77 89.26C747.263 89.26 748.29 89.8733 748.85 91.1C749.25 90.5267 749.756 90.08 750.37 89.76C750.983 89.4267 751.65 89.26 752.37 89.26C753.516 89.26 754.39 89.6267 754.99 90.36C755.603 91.08 755.91 92.1333 755.91 93.52V100H753.47V93.6C753.47 92.0533 752.87 91.28 751.67 91.28C751.11 91.28 750.623 91.4467 750.21 91.78C749.81 92.1 749.516 92.5533 749.33 93.14V100H746.93V93.6C746.93 92.0533 746.323 91.28 745.11 91.28C744.563 91.28 744.083 91.4533 743.67 91.8C743.256 92.1467 742.956 92.6133 742.77 93.2V100H740.33ZM766.97 99.5C766.53 99.7267 765.997 99.9067 765.37 100.04C764.744 100.173 764.077 100.24 763.37 100.24C761.637 100.24 760.31 99.7667 759.39 98.82C758.484 97.8733 758.03 96.4933 758.03 94.68C758.03 92.9467 758.464 91.6133 759.33 90.68C760.21 89.7333 761.444 89.26 763.03 89.26C764.497 89.26 765.604 89.68 766.35 90.52C767.097 91.3467 767.47 92.5333 767.47 94.08V95.44H760.45C760.544 96.44 760.844 97.1667 761.35 97.62C761.87 98.0733 762.624 98.3 763.61 98.3C764.197 98.3 764.75 98.2467 765.27 98.14C765.79 98.02 766.357 97.8333 766.97 97.58V99.5ZM763.01 91.1C761.41 91.1 760.55 91.9733 760.43 93.72H765.23C765.217 91.9733 764.477 91.1 763.01 91.1ZM774.929 96.58V91.38H773.109V90.16L774.989 89.44L775.809 86.52H777.369V89.48H779.629V91.38H777.369V96.56C777.369 97.12 777.496 97.5267 777.749 97.78C778.003 98.02 778.376 98.14 778.869 98.14C779.016 98.14 779.169 98.14 779.329 98.14C779.503 98.1267 779.643 98.1133 779.749 98.1V100.02C779.483 100.06 779.236 100.087 779.009 100.1C778.796 100.113 778.556 100.12 778.289 100.12C777.156 100.12 776.309 99.8333 775.749 99.26C775.203 98.6867 774.929 97.7933 774.929 96.58ZM786.236 100.22C784.623 100.22 783.363 99.74 782.456 98.78C781.563 97.82 781.116 96.4733 781.116 94.74C781.116 93.0067 781.563 91.66 782.456 90.7C783.363 89.74 784.623 89.26 786.236 89.26C787.863 89.26 789.123 89.74 790.016 90.7C790.91 91.66 791.356 93.0067 791.356 94.74C791.356 96.4733 790.91 97.82 790.016 98.78C789.123 99.74 787.863 100.22 786.236 100.22ZM786.236 98.32C788.01 98.32 788.896 97.1267 788.896 94.74C788.896 92.3533 788.01 91.16 786.236 91.16C784.463 91.16 783.576 92.3533 783.576 94.74C783.576 97.1267 784.463 98.32 786.236 98.32ZM799.175 100V91.38H797.335V90.16L799.175 89.46V88.6C799.175 86.08 800.388 84.82 802.815 84.82C803.188 84.82 803.528 84.8533 803.835 84.92V86.8C803.741 86.7867 803.641 86.78 803.535 86.78C803.441 86.7667 803.341 86.76 803.235 86.76C802.648 86.76 802.228 86.9 801.975 87.18C801.735 87.46 801.615 87.92 801.615 88.56V89.48H803.715V91.38H801.615V100H799.175ZM805.595 87.36V85.36H808.375V87.36H805.595ZM805.955 100V91.26L804.895 90.48V89.48H808.395V100H805.955ZM811.189 100V89.48H812.809L813.189 91.22C813.522 90.66 813.942 90.2267 814.449 89.92C814.956 89.6 815.549 89.44 816.229 89.44C816.482 89.44 816.716 89.46 816.929 89.5V91.68H816.349C815.616 91.68 815.016 91.8867 814.549 92.3C814.082 92.7 813.776 93.2333 813.629 93.9V100H811.189ZM818.502 99.52V97.54C819.169 97.8067 819.769 98 820.302 98.12C820.835 98.2267 821.395 98.28 821.982 98.28C823.409 98.28 824.122 97.8733 824.122 97.06C824.122 96.7533 824.002 96.5067 823.762 96.32C823.535 96.12 823.135 95.94 822.562 95.78L821.002 95.36C820.055 95.0933 819.362 94.7267 818.922 94.26C818.482 93.78 818.262 93.1667 818.262 92.42C818.262 91.4333 818.642 90.66 819.402 90.1C820.162 89.54 821.195 89.26 822.502 89.26C823.129 89.26 823.735 89.3133 824.322 89.42C824.909 89.5267 825.409 89.6733 825.822 89.86V91.8C824.742 91.3867 823.669 91.18 822.602 91.18C821.309 91.18 820.662 91.54 820.662 92.26C820.662 92.54 820.775 92.7733 821.002 92.96C821.229 93.1333 821.609 93.2933 822.142 93.44L823.702 93.88C824.729 94.1733 825.455 94.5533 825.882 95.02C826.309 95.4733 826.522 96.1133 826.522 96.94C826.522 97.9933 826.135 98.8067 825.362 99.38C824.589 99.9533 823.489 100.24 822.062 100.24C821.409 100.24 820.755 100.173 820.102 100.04C819.449 99.9067 818.915 99.7333 818.502 99.52ZM829.09 96.58V91.38H827.27V90.16L829.15 89.44L829.97 86.52H831.53V89.48H833.79V91.38H831.53V96.56C831.53 97.12 831.656 97.5267 831.91 97.78C832.163 98.02 832.536 98.14 833.03 98.14C833.176 98.14 833.33 98.14 833.49 98.14C833.663 98.1267 833.803 98.1133 833.91 98.1V100.02C833.643 100.06 833.396 100.087 833.17 100.1C832.956 100.113 832.716 100.12 832.45 100.12C831.316 100.12 830.47 99.8333 829.91 99.26C829.363 98.6867 829.09 97.7933 829.09 96.58ZM840.974 100V89.48H842.594L842.974 91.22C843.308 90.66 843.728 90.2267 844.234 89.92C844.741 89.6 845.334 89.44 846.014 89.44C846.268 89.44 846.501 89.46 846.714 89.5V91.68H846.134C845.401 91.68 844.801 91.8867 844.334 92.3C843.868 92.7 843.561 93.2333 843.414 93.9V100H840.974ZM856.795 99.5C856.355 99.7267 855.821 99.9067 855.195 100.04C854.568 100.173 853.901 100.24 853.195 100.24C851.461 100.24 850.135 99.7667 849.215 98.82C848.308 97.8733 847.855 96.4933 847.855 94.68C847.855 92.9467 848.288 91.6133 849.155 90.68C850.035 89.7333 851.268 89.26 852.855 89.26C854.321 89.26 855.428 89.68 856.175 90.52C856.921 91.3467 857.295 92.5333 857.295 94.08V95.44H850.275C850.368 96.44 850.668 97.1667 851.175 97.62C851.695 98.0733 852.448 98.3 853.435 98.3C854.021 98.3 854.575 98.2467 855.095 98.14C855.615 98.02 856.181 97.8333 856.795 97.58V99.5ZM852.835 91.1C851.235 91.1 850.375 91.9733 850.255 93.72H855.055C855.041 91.9733 854.301 91.1 852.835 91.1ZM859.147 99.52V97.54C859.813 97.8067 860.413 98 860.947 98.12C861.48 98.2267 862.04 98.28 862.627 98.28C864.053 98.28 864.767 97.8733 864.767 97.06C864.767 96.7533 864.647 96.5067 864.407 96.32C864.18 96.12 863.78 95.94 863.207 95.78L861.647 95.36C860.7 95.0933 860.007 94.7267 859.567 94.26C859.127 93.78 858.907 93.1667 858.907 92.42C858.907 91.4333 859.287 90.66 860.047 90.1C860.807 89.54 861.84 89.26 863.147 89.26C863.773 89.26 864.38 89.3133 864.967 89.42C865.553 89.5267 866.053 89.6733 866.467 89.86V91.8C865.387 91.3867 864.313 91.18 863.247 91.18C861.953 91.18 861.307 91.54 861.307 92.26C861.307 92.54 861.42 92.7733 861.647 92.96C861.873 93.1333 862.253 93.2933 862.787 93.44L864.347 93.88C865.373 94.1733 866.1 94.5533 866.527 95.02C866.953 95.4733 867.167 96.1133 867.167 96.94C867.167 97.9933 866.78 98.8067 866.007 99.38C865.233 99.9533 864.133 100.24 862.707 100.24C862.053 100.24 861.4 100.173 860.747 100.04C860.093 99.9067 859.56 99.7333 859.147 99.52ZM869.119 104.02V89.48H870.739L871.099 91.1C871.512 90.5133 872.012 90.06 872.599 89.74C873.199 89.42 873.839 89.26 874.519 89.26C875.905 89.26 876.992 89.7467 877.779 90.72C878.565 91.68 878.959 93.0267 878.959 94.76C878.959 96.4933 878.565 97.84 877.779 98.8C877.005 99.7467 875.919 100.22 874.519 100.22C873.372 100.22 872.385 99.8267 871.559 99.04V104.02H869.119ZM874.059 91.22C873.552 91.22 873.072 91.36 872.619 91.64C872.179 91.9067 871.819 92.2667 871.539 92.72V97.1C872.205 97.8867 873.045 98.28 874.059 98.28C874.845 98.28 875.445 97.98 875.859 97.38C876.285 96.7667 876.499 95.8867 876.499 94.74C876.499 93.5933 876.285 92.72 875.859 92.12C875.445 91.52 874.845 91.22 874.059 91.22ZM885.67 100.22C884.057 100.22 882.797 99.74 881.89 98.78C880.997 97.82 880.55 96.4733 880.55 94.74C880.55 93.0067 880.997 91.66 881.89 90.7C882.797 89.74 884.057 89.26 885.67 89.26C887.297 89.26 888.557 89.74 889.45 90.7C890.343 91.66 890.79 93.0067 890.79 94.74C890.79 96.4733 890.343 97.82 889.45 98.78C888.557 99.74 887.297 100.22 885.67 100.22ZM885.67 98.32C887.443 98.32 888.33 97.1267 888.33 94.74C888.33 92.3533 887.443 91.16 885.67 91.16C883.897 91.16 883.01 92.3533 883.01 94.74C883.01 97.1267 883.897 98.32 885.67 98.32ZM892.986 100V89.48H894.606L894.966 91.18C895.433 90.5667 895.979 90.0933 896.606 89.76C897.246 89.4267 897.959 89.26 898.746 89.26C899.959 89.26 900.886 89.6267 901.526 90.36C902.166 91.08 902.486 92.1333 902.486 93.52V100H900.046V93.6C900.046 92.0533 899.386 91.28 898.066 91.28C897.493 91.28 896.966 91.4533 896.486 91.8C896.019 92.1467 895.666 92.6133 895.426 93.2V100H892.986ZM904.733 99.52V97.54C905.399 97.8067 905.999 98 906.533 98.12C907.066 98.2267 907.626 98.28 908.213 98.28C909.639 98.28 910.353 97.8733 910.353 97.06C910.353 96.7533 910.233 96.5067 909.993 96.32C909.766 96.12 909.366 95.94 908.793 95.78L907.233 95.36C906.286 95.0933 905.593 94.7267 905.153 94.26C904.713 93.78 904.493 93.1667 904.493 92.42C904.493 91.4333 904.873 90.66 905.633 90.1C906.393 89.54 907.426 89.26 908.733 89.26C909.359 89.26 909.966 89.3133 910.553 89.42C911.139 89.5267 911.639 89.6733 912.053 89.86V91.8C910.973 91.3867 909.899 91.18 908.833 91.18C907.539 91.18 906.893 91.54 906.893 92.26C906.893 92.54 907.006 92.7733 907.233 92.96C907.459 93.1333 907.839 93.2933 908.373 93.44L909.933 93.88C910.959 94.1733 911.686 94.5533 912.113 95.02C912.539 95.4733 912.753 96.1133 912.753 96.94C912.753 97.9933 912.366 98.8067 911.593 99.38C910.819 99.9533 909.719 100.24 908.293 100.24C907.639 100.24 906.986 100.173 906.333 100.04C905.679 99.9067 905.146 99.7333 904.733 99.52ZM923.045 99.5C922.605 99.7267 922.071 99.9067 921.445 100.04C920.818 100.173 920.151 100.24 919.445 100.24C917.711 100.24 916.385 99.7667 915.465 98.82C914.558 97.8733 914.105 96.4933 914.105 94.68C914.105 92.9467 914.538 91.6133 915.405 90.68C916.285 89.7333 917.518 89.26 919.105 89.26C920.571 89.26 921.678 89.68 922.425 90.52C923.171 91.3467 923.545 92.5333 923.545 94.08V95.44H916.525C916.618 96.44 916.918 97.1667 917.425 97.62C917.945 98.0733 918.698 98.3 919.685 98.3C920.271 98.3 920.825 98.2467 921.345 98.14C921.865 98.02 922.431 97.8333 923.045 97.58V99.5ZM919.085 91.1C917.485 91.1 916.625 91.9733 916.505 93.72H921.305C921.291 91.9733 920.551 91.1 919.085 91.1Z" fill="white"/>
<path d="M23.344 46.272V42.38C25.4907 43.1827 27.5533 43.584 29.532 43.584C30.708 43.584 31.632 43.388 32.304 42.996C32.976 42.604 33.312 42.0627 33.312 41.372C33.312 40.8867 33.0973 40.4853 32.668 40.168C32.2387 39.832 31.408 39.4587 30.176 39.048L28.048 38.32C26.312 37.7227 25.0427 36.9573 24.24 36.024C23.456 35.072 23.064 33.8587 23.064 32.384C23.064 31.1147 23.3813 30.0227 24.016 29.108C24.6693 28.1933 25.584 27.4933 26.76 27.008C27.936 26.504 29.336 26.252 30.96 26.252C31.9867 26.252 32.9947 26.3547 33.984 26.56C34.992 26.7467 35.8693 27.008 36.616 27.344V31.236C35.664 30.8627 34.6933 30.5827 33.704 30.396C32.7147 30.1907 31.8 30.088 30.96 30.088C28.6453 30.088 27.488 30.7693 27.488 32.132C27.488 32.6547 27.7027 33.084 28.132 33.42C28.58 33.7373 29.4107 34.1013 30.624 34.512L32.752 35.24C34.5813 35.8747 35.8787 36.6493 36.644 37.564C37.4093 38.46 37.792 39.6827 37.792 41.232C37.792 43.136 37.1107 44.6387 35.748 45.74C34.404 46.8413 32.5 47.392 30.036 47.392C29.2333 47.392 28.3933 47.3453 27.516 47.252C26.6573 47.1587 25.8547 47.028 25.108 46.86C24.38 46.692 23.792 46.496 23.344 46.272ZM40.2483 29.584V26.308H44.9523V29.584H40.2483ZM40.6963 47V35.184L39.1563 33.896V32.188H44.9523V47H40.6963ZM48.6488 47V32.188H51.4208L52.0088 34.372C53.2594 32.692 54.8834 31.852 56.8808 31.852C58.9154 31.852 60.3248 32.6453 61.1088 34.232C61.6874 33.4853 62.3968 32.9067 63.2368 32.496C64.0954 32.0667 65.0101 31.852 65.9808 31.852C67.6048 31.852 68.8461 32.3747 69.7048 33.42C70.5634 34.4467 70.9928 35.94 70.9928 37.9V47H66.7368V38.04C66.7368 36.2293 66.0368 35.324 64.6368 35.324C64.0021 35.324 63.4514 35.52 62.9848 35.912C62.5181 36.304 62.1634 36.8547 61.9208 37.564V47H57.7208V38.04C57.7208 36.2293 57.0301 35.324 55.6488 35.324C55.0141 35.324 54.4541 35.52 53.9688 35.912C53.5021 36.304 53.1474 36.8547 52.9048 37.564V47H48.6488ZM74.5433 52.628V32.188H77.3153L77.9033 34.372C79.098 32.692 80.6473 31.852 82.5513 31.852C84.4926 31.852 86.0233 32.5427 87.1433 33.924C88.2633 35.2867 88.8233 37.172 88.8233 39.58C88.8233 42.0253 88.2726 43.9293 87.1713 45.292C86.0886 46.6547 84.558 47.336 82.5793 47.336C81.1046 47.336 79.8446 46.8413 78.7993 45.852V52.628H74.5433ZM81.6553 34.96C81.0766 34.96 80.526 35.1093 80.0033 35.408C79.4993 35.688 79.0793 36.0707 78.7433 36.556V42.884C79.49 43.78 80.4513 44.228 81.6273 44.228C82.5606 44.228 83.2793 43.836 83.7833 43.052C84.2873 42.2493 84.5393 41.1013 84.5393 39.608C84.5393 38.1147 84.2873 36.9667 83.7833 36.164C83.298 35.3613 82.5886 34.96 81.6553 34.96ZM78.1833 37.76L78.3513 37.312C78.2766 37.4613 78.2206 37.6107 78.1833 37.76ZM91.6924 47V28.968L90.1524 27.68V25.972H95.9484V47H91.6924ZM111.937 46.3C110.5 46.9907 108.782 47.336 106.785 47.336C104.246 47.336 102.296 46.6733 100.933 45.348C99.5702 44.004 98.8889 42.072 98.8889 39.552C98.8889 37.144 99.5422 35.2587 100.849 33.896C102.174 32.5333 103.994 31.852 106.309 31.852C108.362 31.852 109.93 32.4493 111.013 33.644C112.096 34.8387 112.637 36.4907 112.637 38.6V40.756H103.117C103.285 41.9133 103.696 42.7533 104.349 43.276C105.021 43.7987 105.982 44.06 107.233 44.06C108.017 44.06 108.764 43.9947 109.473 43.864C110.201 43.7147 111.022 43.4627 111.937 43.108V46.3ZM106.253 34.932C104.256 34.932 103.182 35.9493 103.033 37.984H108.857C108.82 37.032 108.568 36.2853 108.101 35.744C107.634 35.2027 107.018 34.932 106.253 34.932ZM122.508 47V26.644H126.876V34.848H135.22V26.644H139.588V47H135.22V38.544H126.876V47H122.508ZM155.714 46.3C154.277 46.9907 152.56 47.336 150.562 47.336C148.024 47.336 146.073 46.6733 144.71 45.348C143.348 44.004 142.666 42.072 142.666 39.552C142.666 37.144 143.32 35.2587 144.626 33.896C145.952 32.5333 147.772 31.852 150.086 31.852C152.14 31.852 153.708 32.4493 154.79 33.644C155.873 34.8387 156.414 36.4907 156.414 38.6V40.756H146.894C147.062 41.9133 147.473 42.7533 148.126 43.276C148.798 43.7987 149.76 44.06 151.01 44.06C151.794 44.06 152.541 43.9947 153.25 43.864C153.978 43.7147 154.8 43.4627 155.714 43.108V46.3ZM150.03 34.932C148.033 34.932 146.96 35.9493 146.81 37.984H152.634C152.597 37.032 152.345 36.2853 151.878 35.744C151.412 35.2027 150.796 34.932 150.03 34.932ZM159.478 47V28.968L157.938 27.68V25.972H163.734V47H159.478ZM167.626 47V28.968L166.086 27.68V25.972H171.882V47H167.626ZM182.186 47.336C179.872 47.336 178.061 46.6547 176.754 45.292C175.466 43.9293 174.822 42.0253 174.822 39.58C174.822 37.1347 175.466 35.24 176.754 33.896C178.061 32.5333 179.872 31.852 182.186 31.852C184.52 31.852 186.33 32.5333 187.618 33.896C188.906 35.24 189.55 37.1347 189.55 39.58C189.55 42.0253 188.906 43.9293 187.618 45.292C186.33 46.6547 184.52 47.336 182.186 47.336ZM182.186 44.116C184.24 44.116 185.266 42.604 185.266 39.58C185.266 36.5747 184.24 35.072 182.186 35.072C180.133 35.072 179.106 36.5747 179.106 39.58C179.106 42.604 180.133 44.116 182.186 44.116ZM195.613 47L191.105 26.644H195.529L198.413 40.364L202.053 27.764H205.665L209.473 40.196L212.329 26.644H216.641L212.133 47H207.933L203.761 33.308L199.813 47H195.613ZM224.597 47.336C222.282 47.336 220.471 46.6547 219.165 45.292C217.877 43.9293 217.233 42.0253 217.233 39.58C217.233 37.1347 217.877 35.24 219.165 33.896C220.471 32.5333 222.282 31.852 224.597 31.852C226.93 31.852 228.741 32.5333 230.029 33.896C231.317 35.24 231.961 37.1347 231.961 39.58C231.961 42.0253 231.317 43.9293 230.029 45.292C228.741 46.6547 226.93 47.336 224.597 47.336ZM224.597 44.116C226.65 44.116 227.677 42.604 227.677 39.58C227.677 36.5747 226.65 35.072 224.597 35.072C222.543 35.072 221.517 36.5747 221.517 39.58C221.517 42.604 222.543 44.116 224.597 44.116ZM239.143 47H234.887V32.188H237.659L238.247 34.372C238.732 33.6627 239.339 33.112 240.067 32.72C240.795 32.3093 241.635 32.104 242.587 32.104C242.998 32.104 243.352 32.132 243.651 32.188V36.024H242.755C241.803 36.024 241.01 36.276 240.375 36.78C239.74 37.2653 239.33 37.9187 239.143 38.74V47ZM246.567 47V28.968L245.027 27.68V25.972H250.823V47H246.567ZM265.272 47L264.684 44.816C263.489 46.496 261.94 47.336 260.036 47.336C258.095 47.336 256.564 46.6547 255.444 45.292C254.324 43.9107 253.764 42.016 253.764 39.608C253.764 37.1627 254.305 35.2587 255.388 33.896C256.489 32.5333 258.029 31.852 260.008 31.852C261.483 31.852 262.743 32.3467 263.788 33.336V25.972H268.044V47H265.272ZM258.048 39.58C258.048 41.0733 258.3 42.2213 258.804 43.024C259.308 43.8267 260.017 44.228 260.932 44.228C261.511 44.228 262.052 44.088 262.556 43.808C263.079 43.5093 263.508 43.1173 263.844 42.632V36.304C263.097 35.408 262.136 34.96 260.96 34.96C260.027 34.96 259.308 35.3613 258.804 36.164C258.3 36.948 258.048 38.0867 258.048 39.58ZM264.404 41.428L264.236 41.876C264.311 41.7267 264.367 41.5773 264.404 41.428ZM278.75 47V26.644H286.562C288.988 26.644 290.855 27.204 292.162 28.324C293.468 29.444 294.122 31.0307 294.122 33.084C294.122 34.5213 293.748 35.744 293.002 36.752C292.274 37.76 291.238 38.4787 289.894 38.908L294.99 47H290.174L285.862 39.692L283.09 38.992V47H278.75ZM283.09 36.136H285.218C286.916 36.136 288.092 35.9213 288.746 35.492C289.418 35.044 289.754 34.2693 289.754 33.168C289.754 32.0667 289.418 31.3013 288.746 30.872C288.092 30.424 286.916 30.2 285.218 30.2H283.09V36.136ZM297.207 47V26.644H310.451V30.34H301.575V34.876H309.639V38.572H301.575V43.304H310.731V47H297.207ZM313.242 46.272V42.38C315.389 43.1827 317.452 43.584 319.43 43.584C320.606 43.584 321.53 43.388 322.202 42.996C322.874 42.604 323.21 42.0627 323.21 41.372C323.21 40.8867 322.996 40.4853 322.566 40.168C322.137 39.832 321.306 39.4587 320.074 39.048L317.946 38.32C316.21 37.7227 314.941 36.9573 314.138 36.024C313.354 35.072 312.962 33.8587 312.962 32.384C312.962 31.1147 313.28 30.0227 313.914 29.108C314.568 28.1933 315.482 27.4933 316.658 27.008C317.834 26.504 319.234 26.252 320.858 26.252C321.885 26.252 322.893 26.3547 323.882 26.56C324.89 26.7467 325.768 27.008 326.514 27.344V31.236C325.562 30.8627 324.592 30.5827 323.602 30.396C322.613 30.1907 321.698 30.088 320.858 30.088C318.544 30.088 317.386 30.7693 317.386 32.132C317.386 32.6547 317.601 33.084 318.03 33.42C318.478 33.7373 319.309 34.1013 320.522 34.512L322.65 35.24C324.48 35.8747 325.777 36.6493 326.542 37.564C327.308 38.46 327.69 39.6827 327.69 41.232C327.69 43.136 327.009 44.6387 325.646 45.74C324.302 46.8413 322.398 47.392 319.934 47.392C319.132 47.392 318.292 47.3453 317.414 47.252C316.556 47.1587 315.753 47.028 315.006 46.86C314.278 46.692 313.69 46.496 313.242 46.272ZM335.495 47V30.34H329.475V26.644H345.883V30.34H339.863V47H335.495ZM355.024 46.272V42.38C357.17 43.1827 359.233 43.584 361.212 43.584C362.388 43.584 363.312 43.388 363.984 42.996C364.656 42.604 364.992 42.0627 364.992 41.372C364.992 40.8867 364.777 40.4853 364.348 40.168C363.918 39.832 363.088 39.4587 361.856 39.048L359.728 38.32C357.992 37.7227 356.722 36.9573 355.92 36.024C355.136 35.072 354.744 33.8587 354.744 32.384C354.744 31.1147 355.061 30.0227 355.696 29.108C356.349 28.1933 357.264 27.4933 358.44 27.008C359.616 26.504 361.016 26.252 362.64 26.252C363.666 26.252 364.674 26.3547 365.664 26.56C366.672 26.7467 367.549 27.008 368.296 27.344V31.236C367.344 30.8627 366.373 30.5827 365.384 30.396C364.394 30.1907 363.48 30.088 362.64 30.088C360.325 30.088 359.168 30.7693 359.168 32.132C359.168 32.6547 359.382 33.084 359.812 33.42C360.26 33.7373 361.09 34.1013 362.304 34.512L364.432 35.24C366.261 35.8747 367.558 36.6493 368.324 37.564C369.089 38.46 369.472 39.6827 369.472 41.232C369.472 43.136 368.79 44.6387 367.428 45.74C366.084 46.8413 364.18 47.392 361.716 47.392C360.913 47.392 360.073 47.3453 359.196 47.252C358.337 47.1587 357.534 47.028 356.788 46.86C356.06 46.692 355.472 46.496 355.024 46.272ZM384.472 46.3C383.035 46.9907 381.317 47.336 379.32 47.336C376.781 47.336 374.831 46.6733 373.468 45.348C372.105 44.004 371.424 42.072 371.424 39.552C371.424 37.144 372.077 35.2587 373.384 33.896C374.709 32.5333 376.529 31.852 378.844 31.852C380.897 31.852 382.465 32.4493 383.548 33.644C384.631 34.8387 385.172 36.4907 385.172 38.6V40.756H375.652C375.82 41.9133 376.231 42.7533 376.884 43.276C377.556 43.7987 378.517 44.06 379.768 44.06C380.552 44.06 381.299 43.9947 382.008 43.864C382.736 43.7147 383.557 43.4627 384.472 43.108V46.3ZM378.788 34.932C376.791 34.932 375.717 35.9493 375.568 37.984H381.392C381.355 37.032 381.103 36.2853 380.636 35.744C380.169 35.2027 379.553 34.932 378.788 34.932ZM392.295 47H388.039V32.188H390.811L391.399 34.372C391.885 33.6627 392.491 33.112 393.219 32.72C393.947 32.3093 394.787 32.104 395.739 32.104C396.15 32.104 396.505 32.132 396.803 32.188V36.024H395.907C394.955 36.024 394.162 36.276 393.527 36.78C392.893 37.2653 392.482 37.9187 392.295 38.74V47ZM404.053 47L398.257 32.188H402.765L405.873 41.652L408.981 32.188H413.321L407.525 47H404.053ZM415.76 29.584V26.308H420.464V29.584H415.76ZM416.208 47V35.184L414.668 33.896V32.188H420.464V47H416.208ZM435.221 43.22V46.552C434.642 46.776 433.961 46.9627 433.177 47.112C432.393 47.2613 431.59 47.336 430.769 47.336C425.859 47.336 423.405 44.704 423.405 39.44C423.405 37.088 424.077 35.24 425.421 33.896C426.783 32.5333 428.65 31.852 431.021 31.852C432.309 31.852 433.569 32.0667 434.801 32.496V35.772C433.886 35.3053 432.878 35.072 431.777 35.072C430.47 35.072 429.462 35.436 428.753 36.164C428.043 36.8733 427.689 37.9653 427.689 39.44C427.689 40.8587 427.997 41.988 428.613 42.828C429.247 43.6493 430.171 44.06 431.385 44.06C431.982 44.06 432.598 43.9853 433.233 43.836C433.867 43.6867 434.53 43.4813 435.221 43.22ZM450.288 46.3C448.851 46.9907 447.134 47.336 445.136 47.336C442.598 47.336 440.647 46.6733 439.284 45.348C437.922 44.004 437.24 42.072 437.24 39.552C437.24 37.144 437.894 35.2587 439.2 33.896C440.526 32.5333 442.346 31.852 444.66 31.852C446.714 31.852 448.282 32.4493 449.364 33.644C450.447 34.8387 450.988 36.4907 450.988 38.6V40.756H441.468C441.636 41.9133 442.047 42.7533 442.7 43.276C443.372 43.7987 444.334 44.06 445.584 44.06C446.368 44.06 447.115 43.9947 447.824 43.864C448.552 43.7147 449.374 43.4627 450.288 43.108V46.3ZM444.604 34.932C442.607 34.932 441.534 35.9493 441.384 37.984H447.208C447.171 37.032 446.919 36.2853 446.452 35.744C445.986 35.2027 445.37 34.932 444.604 34.932Z" fill="white"/>
<rect x="22" y="229" width="520" height="1" rx="0.5" fill="#D9D9D9"/>
<rect x="122" y="226" width="1" height="8" fill="#D9D9D9"/>
<rect x="222" y="226" width="1" height="8" fill="#D9D9D9"/>
<rect x="322" y="226" width="1" height="8" fill="#D9D9D9"/>
<rect x="422" y="226" width="1" height="8" fill="#D9D9D9"/>
<rect x="522" y="226" width="1" height="8" fill="#D9D9D9"/>
<defs>
<filter id="filter0_d_1208_12546" x="5.44141" y="155" width="1240.91" height="114.64" filterUnits="userSpaceOnUse" color-interpolation-filters="sRGB">
<feFlood flood-opacity="0" result="BackgroundImageFix"/>
<feColorMatrix in="SourceAlpha" type="matrix" values="0 0 0 0 0 0 0 0 0 0 0 0 0 0 0 0 0 0 127 0" result="hardAlpha"/>
<feOffset dx="2" dy="2"/>
<feGaussianBlur stdDeviation="8"/>
<feComposite in2="hardAlpha" operator="out"/>
<feColorMatrix type="matrix" values="0 0 0 0 0.0901961 0 0 0 0 0.415686 0 0 0 0 1 0 0 0 0.55 0"/>
<feBlend mode="normal" in2="BackgroundImageFix" result="effect1_dropShadow_1208_12546"/>
<feBlend mode="normal" in="SourceGraphic" in2="effect1_dropShadow_1208_12546" result="shape"/>
</filter>
<filter id="filter1_d_1208_12546" x="707" y="155" width="44" height="64" filterUnits="userSpaceOnUse" color-interpolation-filters="sRGB">
<feFlood flood-opacity="0" result="BackgroundImageFix"/>
<feColorMatrix in="SourceAlpha" type="matrix" values="0 0 0 0 0 0 0 0 0 0 0 0 0 0 0 0 0 0 127 0" result="hardAlpha"/>
<feOffset dx="2" dy="2"/>
<feGaussianBlur stdDeviation="8"/>
<feComposite in2="hardAlpha" operator="out"/>
<feColorMatrix type="matrix" values="0 0 0 0 0.0901961 0 0 0 0 0.415686 0 0 0 0 1 0 0 0 0.55 0"/>
<feBlend mode="normal" in2="BackgroundImageFix" result="effect1_dropShadow_1208_12546"/>
<feBlend mode="normal" in="SourceGraphic" in2="effect1_dropShadow_1208_12546" result="shape"/>
</filter>
</defs>
</svg>
