<svg width="848" height="299" viewBox="0 0 848 299" fill="none" xmlns="http://www.w3.org/2000/svg">
<g clip-path="url(#clip0_1196_12584)">
<rect width="848" height="299" fill="#1E2631"/>
<rect x="0.5" y="0.5" width="847" height="298" fill="#1E2631" stroke="white"/>
<line x1="231.5" y1="2.18557e-08" x2="231.5" y2="299" stroke="white" stroke-opacity="0.6"/>
<line x1="287.5" y1="2.18557e-08" x2="287.5" y2="299" stroke="white" stroke-opacity="0.6"/>
<line x1="343.5" y1="2.18557e-08" x2="343.5" y2="299" stroke="white" stroke-opacity="0.6"/>
<line x1="399.5" y1="2.18557e-08" x2="399.5" y2="299" stroke="white" stroke-opacity="0.6"/>
<line x1="455.5" y1="2.18557e-08" x2="455.5" y2="299" stroke="white" stroke-opacity="0.6"/>
<line x1="511.5" y1="2.18557e-08" x2="511.5" y2="299" stroke="white" stroke-opacity="0.6"/>
<line x1="567.5" y1="2.18557e-08" x2="567.5" y2="299" stroke="white" stroke-opacity="0.6"/>
<line x1="623.5" y1="2.18557e-08" x2="623.5" y2="299" stroke="white" stroke-opacity="0.6"/>
<line x1="679.5" y1="2.18557e-08" x2="679.5" y2="299" stroke="white" stroke-opacity="0.6"/>
<line x1="735.5" y1="2.18557e-08" x2="735.5" y2="299" stroke="white" stroke-opacity="0.6"/>
<line x1="791.5" y1="2.18557e-08" x2="791.5" y2="299" stroke="white" stroke-opacity="0.6"/>
<rect x="231" y="52" width="56" height="32" fill="url(#paint0_linear_1196_12584)" fill-opacity="0.8"/>
<rect x="287" y="84" width="392" height="32" fill="url(#paint1_linear_1196_12584)"/>
<g clip-path="url(#clip1_1196_12584)">
<g clip-path="url(#clip2_1196_12584)">
<path d="M652.211 101.001H663.381L658.501 105.881C658.111 106.271 658.111 106.911 658.501 107.301C658.891 107.691 659.521 107.691 659.911 107.301L666.501 100.711C666.891 100.321 666.891 99.6907 666.501 99.3007L659.921 92.7007C659.734 92.5134 659.48 92.4082 659.216 92.4082C658.951 92.4082 658.698 92.5134 658.511 92.7007C658.121 93.0907 658.121 93.7207 658.511 94.1107L663.381 99.0007H652.211C651.661 99.0007 651.211 99.4507 651.211 100.001C651.211 100.551 651.661 101.001 652.211 101.001Z" fill="white"/>
<path d="M668 93C668 92.4477 668.448 92 669 92V92C669.552 92 670 92.4477 670 93V107C670 107.552 669.552 108 669 108V108C668.448 108 668 107.552 668 107V93Z" fill="white"/>
</g>
</g>
<path d="M21.136 74V62.368H23.744L27.44 70.032L31.088 62.368H33.696V74H31.232V66.464L28.16 72.88H26.624L23.552 66.56V74H21.136ZM35.7401 64.048V62.176H38.4281V64.048H35.7401ZM35.9961 74V67.248L35.1161 66.512V65.536H38.4281V74H35.9961ZM46.8604 71.84V73.744C46.5297 73.872 46.1404 73.9787 45.6924 74.064C45.2444 74.1493 44.7857 74.192 44.3164 74.192C41.511 74.192 40.1084 72.688 40.1084 69.68C40.1084 68.336 40.4924 67.28 41.2604 66.512C42.039 65.7333 43.1057 65.344 44.4604 65.344C45.1964 65.344 45.9164 65.4667 46.6204 65.712V67.584C46.0977 67.3173 45.5217 67.184 44.8924 67.184C44.1457 67.184 43.5697 67.392 43.1644 67.808C42.759 68.2133 42.5564 68.8373 42.5564 69.68C42.5564 70.4907 42.7324 71.136 43.0844 71.616C43.447 72.0853 43.975 72.32 44.6684 72.32C45.0097 72.32 45.3617 72.2773 45.7244 72.192C46.087 72.1067 46.4657 71.9893 46.8604 71.84ZM50.8786 74H48.4466V65.536H50.0306L50.3666 66.784C50.644 66.3787 50.9906 66.064 51.4066 65.84C51.8226 65.6053 52.3026 65.488 52.8466 65.488C53.0813 65.488 53.284 65.504 53.4546 65.536V67.728H52.9426C52.3986 67.728 51.9453 67.872 51.5826 68.16C51.22 68.4373 50.9853 68.8107 50.8786 69.28V74ZM58.5351 74.192C57.2125 74.192 56.1778 73.8027 55.4311 73.024C54.6951 72.2453 54.3271 71.1573 54.3271 69.76C54.3271 68.3627 54.6951 67.28 55.4311 66.512C56.1778 65.7333 57.2125 65.344 58.5351 65.344C59.8685 65.344 60.9031 65.7333 61.6391 66.512C62.3751 67.28 62.7431 68.3627 62.7431 69.76C62.7431 71.1573 62.3751 72.2453 61.6391 73.024C60.9031 73.8027 59.8685 74.192 58.5351 74.192ZM58.5351 72.352C59.7085 72.352 60.2951 71.488 60.2951 69.76C60.2951 68.0427 59.7085 67.184 58.5351 67.184C57.3618 67.184 56.7751 68.0427 56.7751 69.76C56.7751 71.488 57.3618 72.352 58.5351 72.352ZM64.4154 74V65.536H65.9994L66.3354 66.832C67.114 65.84 68.122 65.344 69.3594 65.344C70.33 65.344 71.0714 65.6427 71.5834 66.24C72.0954 66.8267 72.3514 67.68 72.3514 68.8V74H69.9194V68.88C69.9194 67.8453 69.4874 67.328 68.6234 67.328C68.2394 67.328 67.8874 67.44 67.5674 67.664C67.258 67.888 67.018 68.2027 66.8474 68.608V74H64.4154ZM79.6961 74L79.3761 72.816C79.0881 73.2427 78.7095 73.5787 78.2401 73.824C77.7815 74.0693 77.2695 74.192 76.7041 74.192C75.8295 74.192 75.1361 73.952 74.6241 73.472C74.1228 72.992 73.8721 72.3307 73.8721 71.488C73.8721 70.6027 74.2081 69.904 74.8801 69.392C75.5521 68.88 76.4588 68.624 77.6001 68.624H78.9921V68.32C78.9921 67.8507 78.8748 67.5467 78.6401 67.408C78.4055 67.2693 78.0375 67.2 77.5361 67.2C76.6401 67.2 75.6748 67.4027 74.6401 67.808V65.968C75.0668 65.7867 75.5628 65.6373 76.1281 65.52C76.7041 65.4027 77.2855 65.344 77.8721 65.344C78.9815 65.344 79.8241 65.6 80.4001 66.112C80.9868 66.6133 81.2801 67.3387 81.2801 68.288V74H79.6961ZM77.3281 72.416C77.6801 72.416 78.0055 72.3253 78.3041 72.144C78.6028 71.9627 78.8481 71.7173 79.0401 71.408V70.032H77.9041C77.3495 70.032 76.9175 70.1387 76.6081 70.352C76.3095 70.5653 76.1601 70.8693 76.1601 71.264C76.1601 72.032 76.5495 72.416 77.3281 72.416ZM83.226 70.736V65.536H85.658V70.656C85.658 71.6907 86.0633 72.208 86.874 72.208C87.2367 72.208 87.5673 72.096 87.866 71.872C88.1753 71.6373 88.4153 71.3227 88.586 70.928V65.536H91.018V74H89.434L89.098 72.704C88.3193 73.696 87.3327 74.192 86.138 74.192C85.1993 74.192 84.4793 73.8933 83.978 73.296C83.4767 72.6987 83.226 71.8453 83.226 70.736ZM93.5661 71.088V67.36H92.0781V66.144L93.6781 65.488L94.3981 63.104H95.9981V65.536H97.8061V67.36H95.9981V70.96C95.9981 71.376 96.0995 71.6747 96.3021 71.856C96.5155 72.0267 96.8195 72.112 97.2141 72.112C97.3208 72.112 97.4381 72.112 97.5661 72.112C97.6941 72.1013 97.8061 72.0907 97.9021 72.08V74.016C97.6461 74.0587 97.4115 74.0853 97.1981 74.096C96.9955 74.1067 96.7661 74.112 96.5101 74.112C95.5395 74.112 94.8035 73.8667 94.3021 73.376C93.8115 72.8853 93.5661 72.1227 93.5661 71.088ZM102.761 71.824V69.904L108.265 62.528H110.489V69.744H112.089V71.824H110.489V74H108.121V71.824H102.761ZM108.185 69.136V65.84L105.337 69.744H108.137L108.185 69.136ZM113.349 74V71.664H116.005V74H113.349ZM117.766 74L121.894 64.608H118.422L117.734 66.4H116.262V62.528H124.502V64.192L120.486 74H117.766ZM124.13 74V71.664H126.786V74H124.13ZM128.352 73.488V71.36C128.79 71.5947 129.296 71.7813 129.872 71.92C130.448 72.048 130.998 72.112 131.52 72.112C132.278 72.112 132.859 71.9573 133.264 71.648C133.67 71.3387 133.872 70.896 133.872 70.32C133.872 69.776 133.712 69.3547 133.392 69.056C133.083 68.7573 132.624 68.608 132.016 68.608C131.462 68.608 130.918 68.7093 130.384 68.912L129.6 67.6L132.48 64.56H128.56V62.528H135.648V64.176L132.896 66.992C133.931 67.1093 134.726 67.472 135.28 68.08C135.846 68.6773 136.128 69.4293 136.128 70.336C136.128 71.136 135.947 71.8293 135.584 72.416C135.222 72.992 134.699 73.4347 134.016 73.744C133.344 74.0533 132.544 74.208 131.616 74.208C131.008 74.208 130.422 74.144 129.856 74.016C129.291 73.8987 128.79 73.7227 128.352 73.488Z" fill="white"/>
<path d="M26.272 101.056V99.712H30.576V105.424C29.424 105.957 28.1333 106.224 26.704 106.224C24.7413 106.224 23.2533 105.701 22.24 104.656C21.2373 103.611 20.736 102.075 20.736 100.048C20.736 98.8 20.9813 97.7387 21.472 96.864C21.9733 95.9787 22.688 95.3067 23.616 94.848C24.5547 94.3787 25.6853 94.144 27.008 94.144C27.4987 94.144 27.984 94.1867 28.464 94.272C28.9547 94.3573 29.4133 94.4853 29.84 94.656V96.768C29.296 96.5973 28.8107 96.48 28.384 96.416C27.9573 96.3413 27.5307 96.304 27.104 96.304C25.8773 96.304 24.9333 96.6293 24.272 97.28C23.6213 97.92 23.296 98.8427 23.296 100.048C23.296 101.392 23.5787 102.4 24.144 103.072C24.72 103.733 25.5947 104.064 26.768 104.064C27.2693 104.064 27.76 104.032 28.24 103.968V101.712L26.272 101.056ZM32.4641 106V94.368H36.3681C38.2668 94.368 39.7015 94.8587 40.6721 95.84C41.6428 96.8213 42.1281 98.272 42.1281 100.192C42.1281 102.091 41.6428 103.536 40.6721 104.528C39.7121 105.509 38.2775 106 36.3681 106H32.4641ZM36.3361 96.4H34.9601V103.968H36.3361C37.4135 103.968 38.2135 103.664 38.7361 103.056C39.2695 102.437 39.5361 101.483 39.5361 100.192C39.5361 98.9013 39.2748 97.9467 38.7521 97.328C38.2295 96.7093 37.4241 96.4 36.3361 96.4ZM43.9016 106V94.368H46.3976V99.264L50.4136 94.368H53.3576L48.9416 99.52L53.8216 106H50.7176L47.1176 101.12H46.3976V106H43.9016ZM59.4933 106V99.36H58.0053V98.144L59.4933 97.536V97.056C59.4933 94.9227 60.5386 93.856 62.6293 93.856C62.8533 93.856 63.0399 93.8613 63.1893 93.872C63.3493 93.8827 63.4986 93.904 63.6373 93.936V95.808C63.5733 95.7973 63.5039 95.792 63.4293 95.792C63.3653 95.7813 63.2906 95.776 63.2053 95.776C62.7466 95.776 62.4159 95.872 62.2133 96.064C62.0213 96.256 61.9253 96.576 61.9253 97.024V97.536H63.7013V99.36H61.9253V106H59.4933ZM68.7226 106.192C67.4 106.192 66.3653 105.803 65.6186 105.024C64.8826 104.245 64.5146 103.157 64.5146 101.76C64.5146 100.363 64.8826 99.28 65.6186 98.512C66.3653 97.7333 67.4 97.344 68.7226 97.344C70.056 97.344 71.0906 97.7333 71.8266 98.512C72.5626 99.28 72.9306 100.363 72.9306 101.76C72.9306 103.157 72.5626 104.245 71.8266 105.024C71.0906 105.803 70.056 106.192 68.7226 106.192ZM68.7226 104.352C69.896 104.352 70.4826 103.488 70.4826 101.76C70.4826 100.043 69.896 99.184 68.7226 99.184C67.5493 99.184 66.9626 100.043 66.9626 101.76C66.9626 103.488 67.5493 104.352 68.7226 104.352ZM77.0349 106H74.6029V97.536H76.1869L76.5229 98.784C76.8002 98.3787 77.1469 98.064 77.5629 97.84C77.9789 97.6053 78.4589 97.488 79.0029 97.488C79.2375 97.488 79.4402 97.504 79.6109 97.536V99.728H79.0989C78.5549 99.728 78.1015 99.872 77.7389 100.16C77.3762 100.437 77.1415 100.811 77.0349 101.28V106ZM85.1673 106V94.368H87.7753L91.4713 102.032L95.1193 94.368H97.7273V106H95.2633V98.464L92.1913 104.88H90.6553L87.5833 98.56V106H85.1673ZM99.7714 96.048V94.176H102.459V96.048H99.7714ZM100.027 106V99.248L99.1474 98.512V97.536H102.459V106H100.027ZM110.892 103.84V105.744C110.561 105.872 110.172 105.979 109.724 106.064C109.276 106.149 108.817 106.192 108.348 106.192C105.542 106.192 104.14 104.688 104.14 101.68C104.14 100.336 104.524 99.28 105.292 98.512C106.07 97.7333 107.137 97.344 108.492 97.344C109.228 97.344 109.948 97.4667 110.652 97.712V99.584C110.129 99.3173 109.553 99.184 108.924 99.184C108.177 99.184 107.601 99.392 107.196 99.808C106.79 100.213 106.588 100.837 106.588 101.68C106.588 102.491 106.764 103.136 107.116 103.616C107.478 104.085 108.006 104.32 108.7 104.32C109.041 104.32 109.393 104.277 109.756 104.192C110.118 104.107 110.497 103.989 110.892 103.84ZM114.91 106H112.478V97.536H114.062L114.398 98.784C114.675 98.3787 115.022 98.064 115.438 97.84C115.854 97.6053 116.334 97.488 116.878 97.488C117.113 97.488 117.315 97.504 117.486 97.536V99.728H116.974C116.43 99.728 115.977 99.872 115.614 100.16C115.251 100.437 115.017 100.811 114.91 101.28V106ZM122.566 106.192C121.244 106.192 120.209 105.803 119.462 105.024C118.726 104.245 118.358 103.157 118.358 101.76C118.358 100.363 118.726 99.28 119.462 98.512C120.209 97.7333 121.244 97.344 122.566 97.344C123.9 97.344 124.934 97.7333 125.67 98.512C126.406 99.28 126.774 100.363 126.774 101.76C126.774 103.157 126.406 104.245 125.67 105.024C124.934 105.803 123.9 106.192 122.566 106.192ZM122.566 104.352C123.74 104.352 124.326 103.488 124.326 101.76C124.326 100.043 123.74 99.184 122.566 99.184C121.393 99.184 120.806 100.043 120.806 101.76C120.806 103.488 121.393 104.352 122.566 104.352ZM128.447 106V97.536H130.031L130.367 98.832C131.145 97.84 132.153 97.344 133.391 97.344C134.361 97.344 135.103 97.6427 135.615 98.24C136.127 98.8267 136.383 99.68 136.383 100.8V106H133.951V100.88C133.951 99.8453 133.519 99.328 132.655 99.328C132.271 99.328 131.919 99.44 131.599 99.664C131.289 99.888 131.049 100.203 130.879 100.608V106H128.447ZM143.727 106L143.407 104.816C143.119 105.243 142.741 105.579 142.271 105.824C141.813 106.069 141.301 106.192 140.735 106.192C139.861 106.192 139.167 105.952 138.655 105.472C138.154 104.992 137.903 104.331 137.903 103.488C137.903 102.603 138.239 101.904 138.911 101.392C139.583 100.88 140.49 100.624 141.631 100.624H143.023V100.32C143.023 99.8507 142.906 99.5467 142.671 99.408C142.437 99.2693 142.069 99.2 141.567 99.2C140.671 99.2 139.706 99.4027 138.671 99.808V97.968C139.098 97.7867 139.594 97.6373 140.159 97.52C140.735 97.4027 141.317 97.344 141.903 97.344C143.013 97.344 143.855 97.6 144.431 98.112C145.018 98.6133 145.311 99.3387 145.311 100.288V106H143.727ZM141.359 104.416C141.711 104.416 142.037 104.325 142.335 104.144C142.634 103.963 142.879 103.717 143.071 103.408V102.032H141.935C141.381 102.032 140.949 102.139 140.639 102.352C140.341 102.565 140.191 102.869 140.191 103.264C140.191 104.032 140.581 104.416 141.359 104.416ZM147.257 102.736V97.536H149.689V102.656C149.689 103.691 150.095 104.208 150.905 104.208C151.268 104.208 151.599 104.096 151.897 103.872C152.207 103.637 152.447 103.323 152.617 102.928V97.536H155.049V106H153.465L153.129 104.704C152.351 105.696 151.364 106.192 150.169 106.192C149.231 106.192 148.511 105.893 148.009 105.296C147.508 104.699 147.257 103.845 147.257 102.736ZM157.597 103.088V99.36H156.109V98.144L157.709 97.488L158.429 95.104H160.029V97.536H161.837V99.36H160.029V102.96C160.029 103.376 160.131 103.675 160.333 103.856C160.547 104.027 160.851 104.112 161.245 104.112C161.352 104.112 161.469 104.112 161.597 104.112C161.725 104.101 161.837 104.091 161.933 104.08V106.016C161.677 106.059 161.443 106.085 161.229 106.096C161.027 106.107 160.797 106.112 160.541 106.112C159.571 106.112 158.835 105.867 158.333 105.376C157.843 104.885 157.597 104.123 157.597 103.088ZM166.792 103.824V101.904L172.296 94.528H174.52V101.744H176.12V103.824H174.52V106H172.152V103.824H166.792ZM172.216 101.136V97.84L169.368 101.744H172.168L172.216 101.136ZM177.38 106V103.664H180.036V106H177.38ZM181.797 106L185.925 96.608H182.453L181.765 98.4H180.293V94.528H188.533V96.192L184.517 106H181.797ZM188.161 106V103.664H190.817V106H188.161ZM192.384 105.488V103.36C192.821 103.595 193.328 103.781 193.904 103.92C194.48 104.048 195.029 104.112 195.552 104.112C196.309 104.112 196.89 103.957 197.296 103.648C197.701 103.339 197.904 102.896 197.904 102.32C197.904 101.776 197.744 101.355 197.424 101.056C197.114 100.757 196.656 100.608 196.048 100.608C195.493 100.608 194.949 100.709 194.416 100.912L193.632 99.6L196.512 96.56H192.592V94.528H199.68V96.176L196.928 98.992C197.962 99.1093 198.757 99.472 199.312 100.08C199.877 100.677 200.16 101.429 200.16 102.336C200.16 103.136 199.978 103.829 199.616 104.416C199.253 104.992 198.73 105.435 198.048 105.744C197.376 106.053 196.576 106.208 195.648 106.208C195.04 106.208 194.453 106.144 193.888 106.016C193.322 105.899 192.821 105.723 192.384 105.488Z" fill="white"/>
<rect x="399" y="136" width="56" height="32" fill="url(#paint2_linear_1196_12584)" fill-opacity="0.8"/>
<rect x="455" y="168" width="336" height="32" fill="url(#paint3_linear_1196_12584)"/>
<g clip-path="url(#clip3_1196_12584)">
<g clip-path="url(#clip4_1196_12584)">
<path d="M764.211 185.001H775.381L770.501 189.881C770.111 190.271 770.111 190.911 770.501 191.301C770.891 191.691 771.521 191.691 771.911 191.301L778.501 184.711C778.891 184.321 778.891 183.691 778.501 183.301L771.921 176.701C771.734 176.513 771.48 176.408 771.216 176.408C770.951 176.408 770.698 176.513 770.511 176.701C770.121 177.091 770.121 177.721 770.511 178.111L775.381 183.001H764.211C763.661 183.001 763.211 183.451 763.211 184.001C763.211 184.551 763.661 185.001 764.211 185.001Z" fill="white"/>
<path d="M780 177C780 176.448 780.448 176 781 176V176C781.552 176 782 176.448 782 177V191C782 191.552 781.552 192 781 192V192C780.448 192 780 191.552 780 191V177Z" fill="white"/>
</g>
</g>
<path d="M21.136 158V146.368H23.744L27.44 154.032L31.088 146.368H33.696V158H31.232V150.464L28.16 156.88H26.624L23.552 150.56V158H21.136ZM35.7401 148.048V146.176H38.4281V148.048H35.7401ZM35.9961 158V151.248L35.1161 150.512V149.536H38.4281V158H35.9961ZM46.8604 155.84V157.744C46.5297 157.872 46.1404 157.979 45.6924 158.064C45.2444 158.149 44.7857 158.192 44.3164 158.192C41.511 158.192 40.1084 156.688 40.1084 153.68C40.1084 152.336 40.4924 151.28 41.2604 150.512C42.039 149.733 43.1057 149.344 44.4604 149.344C45.1964 149.344 45.9164 149.467 46.6204 149.712V151.584C46.0977 151.317 45.5217 151.184 44.8924 151.184C44.1457 151.184 43.5697 151.392 43.1644 151.808C42.759 152.213 42.5564 152.837 42.5564 153.68C42.5564 154.491 42.7324 155.136 43.0844 155.616C43.447 156.085 43.975 156.32 44.6684 156.32C45.0097 156.32 45.3617 156.277 45.7244 156.192C46.087 156.107 46.4657 155.989 46.8604 155.84ZM50.8786 158H48.4466V149.536H50.0306L50.3666 150.784C50.644 150.379 50.9906 150.064 51.4066 149.84C51.8226 149.605 52.3026 149.488 52.8466 149.488C53.0813 149.488 53.284 149.504 53.4546 149.536V151.728H52.9426C52.3986 151.728 51.9453 151.872 51.5826 152.16C51.22 152.437 50.9853 152.811 50.8786 153.28V158ZM58.5351 158.192C57.2125 158.192 56.1778 157.803 55.4311 157.024C54.6951 156.245 54.3271 155.157 54.3271 153.76C54.3271 152.363 54.6951 151.28 55.4311 150.512C56.1778 149.733 57.2125 149.344 58.5351 149.344C59.8685 149.344 60.9031 149.733 61.6391 150.512C62.3751 151.28 62.7431 152.363 62.7431 153.76C62.7431 155.157 62.3751 156.245 61.6391 157.024C60.9031 157.803 59.8685 158.192 58.5351 158.192ZM58.5351 156.352C59.7085 156.352 60.2951 155.488 60.2951 153.76C60.2951 152.043 59.7085 151.184 58.5351 151.184C57.3618 151.184 56.7751 152.043 56.7751 153.76C56.7751 155.488 57.3618 156.352 58.5351 156.352ZM64.4154 158V149.536H65.9994L66.3354 150.832C67.114 149.84 68.122 149.344 69.3594 149.344C70.33 149.344 71.0714 149.643 71.5834 150.24C72.0954 150.827 72.3514 151.68 72.3514 152.8V158H69.9194V152.88C69.9194 151.845 69.4874 151.328 68.6234 151.328C68.2394 151.328 67.8874 151.44 67.5674 151.664C67.258 151.888 67.018 152.203 66.8474 152.608V158H64.4154ZM79.6961 158L79.3761 156.816C79.0881 157.243 78.7095 157.579 78.2401 157.824C77.7815 158.069 77.2695 158.192 76.7041 158.192C75.8295 158.192 75.1361 157.952 74.6241 157.472C74.1228 156.992 73.8721 156.331 73.8721 155.488C73.8721 154.603 74.2081 153.904 74.8801 153.392C75.5521 152.88 76.4588 152.624 77.6001 152.624H78.9921V152.32C78.9921 151.851 78.8748 151.547 78.6401 151.408C78.4055 151.269 78.0375 151.2 77.5361 151.2C76.6401 151.2 75.6748 151.403 74.6401 151.808V149.968C75.0668 149.787 75.5628 149.637 76.1281 149.52C76.7041 149.403 77.2855 149.344 77.8721 149.344C78.9815 149.344 79.8241 149.6 80.4001 150.112C80.9868 150.613 81.2801 151.339 81.2801 152.288V158H79.6961ZM77.3281 156.416C77.6801 156.416 78.0055 156.325 78.3041 156.144C78.6028 155.963 78.8481 155.717 79.0401 155.408V154.032H77.9041C77.3495 154.032 76.9175 154.139 76.6081 154.352C76.3095 154.565 76.1601 154.869 76.1601 155.264C76.1601 156.032 76.5495 156.416 77.3281 156.416ZM83.226 154.736V149.536H85.658V154.656C85.658 155.691 86.0633 156.208 86.874 156.208C87.2367 156.208 87.5673 156.096 87.866 155.872C88.1753 155.637 88.4153 155.323 88.586 154.928V149.536H91.018V158H89.434L89.098 156.704C88.3193 157.696 87.3327 158.192 86.138 158.192C85.1993 158.192 84.4793 157.893 83.978 157.296C83.4767 156.699 83.226 155.845 83.226 154.736ZM93.5661 155.088V151.36H92.0781V150.144L93.6781 149.488L94.3981 147.104H95.9981V149.536H97.8061V151.36H95.9981V154.96C95.9981 155.376 96.0995 155.675 96.3021 155.856C96.5155 156.027 96.8195 156.112 97.2141 156.112C97.3208 156.112 97.4381 156.112 97.5661 156.112C97.6941 156.101 97.8061 156.091 97.9021 156.08V158.016C97.6461 158.059 97.4115 158.085 97.1981 158.096C96.9955 158.107 96.7661 158.112 96.5101 158.112C95.5395 158.112 94.8035 157.867 94.3021 157.376C93.8115 156.885 93.5661 156.123 93.5661 155.088ZM102.761 155.824V153.904L108.265 146.528H110.489V153.744H112.089V155.824H110.489V158H108.121V155.824H102.761ZM108.185 153.136V149.84L105.337 153.744H108.137L108.185 153.136ZM113.349 158V155.664H116.005V158H113.349ZM118.237 158L120.301 155.136C120.621 154.699 120.893 154.293 121.117 153.92C120.68 154.165 120.194 154.288 119.661 154.288C118.573 154.288 117.714 153.947 117.085 153.264C116.456 152.581 116.141 151.653 116.141 150.48C116.141 149.637 116.312 148.907 116.653 148.288C117.005 147.659 117.501 147.173 118.141 146.832C118.781 146.491 119.528 146.32 120.381 146.32C121.714 146.32 122.754 146.693 123.501 147.44C124.248 148.176 124.621 149.211 124.621 150.544C124.621 151.259 124.461 152.043 124.141 152.896C123.821 153.739 123.362 154.571 122.765 155.392L120.893 158H118.237ZM118.509 150.432C118.509 151.051 118.664 151.547 118.973 151.92C119.282 152.283 119.698 152.464 120.221 152.464C121.096 152.464 121.752 152.059 122.189 151.248C122.232 150.971 122.253 150.688 122.253 150.4C122.253 149.739 122.088 149.221 121.757 148.848C121.426 148.475 120.968 148.288 120.381 148.288C119.805 148.288 119.346 148.48 119.005 148.864C118.674 149.248 118.509 149.771 118.509 150.432ZM124.989 158V155.664H127.645V158H124.989ZM128.988 158L131.932 153.664L129.116 149.536H131.852L133.42 152.064L135.02 149.536H137.5L134.684 153.68L137.628 158H134.892L133.212 155.232L131.452 158H128.988Z" fill="white"/>
<path d="M26.272 185.056V183.712H30.576V189.424C29.424 189.957 28.1333 190.224 26.704 190.224C24.7413 190.224 23.2533 189.701 22.24 188.656C21.2373 187.611 20.736 186.075 20.736 184.048C20.736 182.8 20.9813 181.739 21.472 180.864C21.9733 179.979 22.688 179.307 23.616 178.848C24.5547 178.379 25.6853 178.144 27.008 178.144C27.4987 178.144 27.984 178.187 28.464 178.272C28.9547 178.357 29.4133 178.485 29.84 178.656V180.768C29.296 180.597 28.8107 180.48 28.384 180.416C27.9573 180.341 27.5307 180.304 27.104 180.304C25.8773 180.304 24.9333 180.629 24.272 181.28C23.6213 181.92 23.296 182.843 23.296 184.048C23.296 185.392 23.5787 186.4 24.144 187.072C24.72 187.733 25.5947 188.064 26.768 188.064C27.2693 188.064 27.76 188.032 28.24 187.968V185.712L26.272 185.056ZM32.4641 190V178.368H36.3681C38.2668 178.368 39.7015 178.859 40.6721 179.84C41.6428 180.821 42.1281 182.272 42.1281 184.192C42.1281 186.091 41.6428 187.536 40.6721 188.528C39.7121 189.509 38.2775 190 36.3681 190H32.4641ZM36.3361 180.4H34.9601V187.968H36.3361C37.4135 187.968 38.2135 187.664 38.7361 187.056C39.2695 186.437 39.5361 185.483 39.5361 184.192C39.5361 182.901 39.2748 181.947 38.7521 181.328C38.2295 180.709 37.4241 180.4 36.3361 180.4ZM43.9016 190V178.368H46.3976V183.264L50.4136 178.368H53.3576L48.9416 183.52L53.8216 190H50.7176L47.1176 185.12H46.3976V190H43.9016ZM59.4933 190V183.36H58.0053V182.144L59.4933 181.536V181.056C59.4933 178.923 60.5386 177.856 62.6293 177.856C62.8533 177.856 63.0399 177.861 63.1893 177.872C63.3493 177.883 63.4986 177.904 63.6373 177.936V179.808C63.5733 179.797 63.5039 179.792 63.4293 179.792C63.3653 179.781 63.2906 179.776 63.2053 179.776C62.7466 179.776 62.4159 179.872 62.2133 180.064C62.0213 180.256 61.9253 180.576 61.9253 181.024V181.536H63.7013V183.36H61.9253V190H59.4933ZM68.7226 190.192C67.4 190.192 66.3653 189.803 65.6186 189.024C64.8826 188.245 64.5146 187.157 64.5146 185.76C64.5146 184.363 64.8826 183.28 65.6186 182.512C66.3653 181.733 67.4 181.344 68.7226 181.344C70.056 181.344 71.0906 181.733 71.8266 182.512C72.5626 183.28 72.9306 184.363 72.9306 185.76C72.9306 187.157 72.5626 188.245 71.8266 189.024C71.0906 189.803 70.056 190.192 68.7226 190.192ZM68.7226 188.352C69.896 188.352 70.4826 187.488 70.4826 185.76C70.4826 184.043 69.896 183.184 68.7226 183.184C67.5493 183.184 66.9626 184.043 66.9626 185.76C66.9626 187.488 67.5493 188.352 68.7226 188.352ZM77.0349 190H74.6029V181.536H76.1869L76.5229 182.784C76.8002 182.379 77.1469 182.064 77.5629 181.84C77.9789 181.605 78.4589 181.488 79.0029 181.488C79.2375 181.488 79.4402 181.504 79.6109 181.536V183.728H79.0989C78.5549 183.728 78.1015 183.872 77.7389 184.16C77.3762 184.437 77.1415 184.811 77.0349 185.28V190ZM85.1673 190V178.368H87.7753L91.4713 186.032L95.1193 178.368H97.7273V190H95.2633V182.464L92.1913 188.88H90.6553L87.5833 182.56V190H85.1673ZM99.7714 180.048V178.176H102.459V180.048H99.7714ZM100.027 190V183.248L99.1474 182.512V181.536H102.459V190H100.027ZM110.892 187.84V189.744C110.561 189.872 110.172 189.979 109.724 190.064C109.276 190.149 108.817 190.192 108.348 190.192C105.542 190.192 104.14 188.688 104.14 185.68C104.14 184.336 104.524 183.28 105.292 182.512C106.07 181.733 107.137 181.344 108.492 181.344C109.228 181.344 109.948 181.467 110.652 181.712V183.584C110.129 183.317 109.553 183.184 108.924 183.184C108.177 183.184 107.601 183.392 107.196 183.808C106.79 184.213 106.588 184.837 106.588 185.68C106.588 186.491 106.764 187.136 107.116 187.616C107.478 188.085 108.006 188.32 108.7 188.32C109.041 188.32 109.393 188.277 109.756 188.192C110.118 188.107 110.497 187.989 110.892 187.84ZM114.91 190H112.478V181.536H114.062L114.398 182.784C114.675 182.379 115.022 182.064 115.438 181.84C115.854 181.605 116.334 181.488 116.878 181.488C117.113 181.488 117.315 181.504 117.486 181.536V183.728H116.974C116.43 183.728 115.977 183.872 115.614 184.16C115.251 184.437 115.017 184.811 114.91 185.28V190ZM122.566 190.192C121.244 190.192 120.209 189.803 119.462 189.024C118.726 188.245 118.358 187.157 118.358 185.76C118.358 184.363 118.726 183.28 119.462 182.512C120.209 181.733 121.244 181.344 122.566 181.344C123.9 181.344 124.934 181.733 125.67 182.512C126.406 183.28 126.774 184.363 126.774 185.76C126.774 187.157 126.406 188.245 125.67 189.024C124.934 189.803 123.9 190.192 122.566 190.192ZM122.566 188.352C123.74 188.352 124.326 187.488 124.326 185.76C124.326 184.043 123.74 183.184 122.566 183.184C121.393 183.184 120.806 184.043 120.806 185.76C120.806 187.488 121.393 188.352 122.566 188.352ZM128.447 190V181.536H130.031L130.367 182.832C131.145 181.84 132.153 181.344 133.391 181.344C134.361 181.344 135.103 181.643 135.615 182.24C136.127 182.827 136.383 183.68 136.383 184.8V190H133.951V184.88C133.951 183.845 133.519 183.328 132.655 183.328C132.271 183.328 131.919 183.44 131.599 183.664C131.289 183.888 131.049 184.203 130.879 184.608V190H128.447ZM143.727 190L143.407 188.816C143.119 189.243 142.741 189.579 142.271 189.824C141.813 190.069 141.301 190.192 140.735 190.192C139.861 190.192 139.167 189.952 138.655 189.472C138.154 188.992 137.903 188.331 137.903 187.488C137.903 186.603 138.239 185.904 138.911 185.392C139.583 184.88 140.49 184.624 141.631 184.624H143.023V184.32C143.023 183.851 142.906 183.547 142.671 183.408C142.437 183.269 142.069 183.2 141.567 183.2C140.671 183.2 139.706 183.403 138.671 183.808V181.968C139.098 181.787 139.594 181.637 140.159 181.52C140.735 181.403 141.317 181.344 141.903 181.344C143.013 181.344 143.855 181.6 144.431 182.112C145.018 182.613 145.311 183.339 145.311 184.288V190H143.727ZM141.359 188.416C141.711 188.416 142.037 188.325 142.335 188.144C142.634 187.963 142.879 187.717 143.071 187.408V186.032H141.935C141.381 186.032 140.949 186.139 140.639 186.352C140.341 186.565 140.191 186.869 140.191 187.264C140.191 188.032 140.581 188.416 141.359 188.416ZM147.257 186.736V181.536H149.689V186.656C149.689 187.691 150.095 188.208 150.905 188.208C151.268 188.208 151.599 188.096 151.897 187.872C152.207 187.637 152.447 187.323 152.617 186.928V181.536H155.049V190H153.465L153.129 188.704C152.351 189.696 151.364 190.192 150.169 190.192C149.231 190.192 148.511 189.893 148.009 189.296C147.508 188.699 147.257 187.845 147.257 186.736ZM157.597 187.088V183.36H156.109V182.144L157.709 181.488L158.429 179.104H160.029V181.536H161.837V183.36H160.029V186.96C160.029 187.376 160.131 187.675 160.333 187.856C160.547 188.027 160.851 188.112 161.245 188.112C161.352 188.112 161.469 188.112 161.597 188.112C161.725 188.101 161.837 188.091 161.933 188.08V190.016C161.677 190.059 161.443 190.085 161.229 190.096C161.027 190.107 160.797 190.112 160.541 190.112C159.571 190.112 158.835 189.867 158.333 189.376C157.843 188.885 157.597 188.123 157.597 187.088ZM166.792 187.824V185.904L172.296 178.528H174.52V185.744H176.12V187.824H174.52V190H172.152V187.824H166.792ZM172.216 185.136V181.84L169.368 185.744H172.168L172.216 185.136ZM177.38 190V187.664H180.036V190H177.38ZM182.268 190L184.332 187.136C184.652 186.699 184.924 186.293 185.148 185.92C184.711 186.165 184.226 186.288 183.692 186.288C182.604 186.288 181.746 185.947 181.116 185.264C180.487 184.581 180.172 183.653 180.172 182.48C180.172 181.637 180.343 180.907 180.684 180.288C181.036 179.659 181.532 179.173 182.172 178.832C182.812 178.491 183.559 178.32 184.412 178.32C185.746 178.32 186.786 178.693 187.532 179.44C188.279 180.176 188.652 181.211 188.652 182.544C188.652 183.259 188.492 184.043 188.172 184.896C187.852 185.739 187.394 186.571 186.796 187.392L184.924 190H182.268ZM182.54 182.432C182.54 183.051 182.695 183.547 183.004 183.92C183.314 184.283 183.73 184.464 184.252 184.464C185.127 184.464 185.783 184.059 186.22 183.248C186.263 182.971 186.284 182.688 186.284 182.4C186.284 181.739 186.119 181.221 185.788 180.848C185.458 180.475 184.999 180.288 184.412 180.288C183.836 180.288 183.378 180.48 183.036 180.864C182.706 181.248 182.54 181.771 182.54 182.432ZM189.021 190V187.664H191.677V190H189.021ZM193.019 190L195.963 185.664L193.147 181.536H195.883L197.451 184.064L199.051 181.536H201.531L198.715 185.68L201.659 190H198.923L197.243 187.232L195.483 190H193.019Z" fill="white"/>
<rect x="511" y="220" width="56" height="32" fill="url(#paint4_linear_1196_12584)" fill-opacity="0.8"/>
<rect x="567" y="252" width="280" height="32" fill="url(#paint5_linear_1196_12584)"/>
<g clip-path="url(#clip5_1196_12584)">
<g clip-path="url(#clip6_1196_12584)">
<path d="M820.211 269.001H831.381L826.501 273.881C826.111 274.271 826.111 274.911 826.501 275.301C826.891 275.691 827.521 275.691 827.911 275.301L834.501 268.711C834.891 268.321 834.891 267.691 834.501 267.301L827.921 260.701C827.734 260.513 827.48 260.408 827.216 260.408C826.951 260.408 826.698 260.513 826.511 260.701C826.121 261.091 826.121 261.721 826.511 262.111L831.381 267.001H820.211C819.661 267.001 819.211 267.451 819.211 268.001C819.211 268.551 819.661 269.001 820.211 269.001Z" fill="white"/>
<path d="M836 261C836 260.448 836.448 260 837 260V260C837.552 260 838 260.448 838 261V275C838 275.552 837.552 276 837 276V276C836.448 276 836 275.552 836 275V261Z" fill="white"/>
</g>
</g>
<path d="M21.136 242V230.368H23.744L27.44 238.032L31.088 230.368H33.696V242H31.232V234.464L28.16 240.88H26.624L23.552 234.56V242H21.136ZM35.7401 232.048V230.176H38.4281V232.048H35.7401ZM35.9961 242V235.248L35.1161 234.512V233.536H38.4281V242H35.9961ZM46.8604 239.84V241.744C46.5297 241.872 46.1404 241.979 45.6924 242.064C45.2444 242.149 44.7857 242.192 44.3164 242.192C41.511 242.192 40.1084 240.688 40.1084 237.68C40.1084 236.336 40.4924 235.28 41.2604 234.512C42.039 233.733 43.1057 233.344 44.4604 233.344C45.1964 233.344 45.9164 233.467 46.6204 233.712V235.584C46.0977 235.317 45.5217 235.184 44.8924 235.184C44.1457 235.184 43.5697 235.392 43.1644 235.808C42.759 236.213 42.5564 236.837 42.5564 237.68C42.5564 238.491 42.7324 239.136 43.0844 239.616C43.447 240.085 43.975 240.32 44.6684 240.32C45.0097 240.32 45.3617 240.277 45.7244 240.192C46.087 240.107 46.4657 239.989 46.8604 239.84ZM50.8786 242H48.4466V233.536H50.0306L50.3666 234.784C50.644 234.379 50.9906 234.064 51.4066 233.84C51.8226 233.605 52.3026 233.488 52.8466 233.488C53.0813 233.488 53.284 233.504 53.4546 233.536V235.728H52.9426C52.3986 235.728 51.9453 235.872 51.5826 236.16C51.22 236.437 50.9853 236.811 50.8786 237.28V242ZM58.5351 242.192C57.2125 242.192 56.1778 241.803 55.4311 241.024C54.6951 240.245 54.3271 239.157 54.3271 237.76C54.3271 236.363 54.6951 235.28 55.4311 234.512C56.1778 233.733 57.2125 233.344 58.5351 233.344C59.8685 233.344 60.9031 233.733 61.6391 234.512C62.3751 235.28 62.7431 236.363 62.7431 237.76C62.7431 239.157 62.3751 240.245 61.6391 241.024C60.9031 241.803 59.8685 242.192 58.5351 242.192ZM58.5351 240.352C59.7085 240.352 60.2951 239.488 60.2951 237.76C60.2951 236.043 59.7085 235.184 58.5351 235.184C57.3618 235.184 56.7751 236.043 56.7751 237.76C56.7751 239.488 57.3618 240.352 58.5351 240.352ZM64.4154 242V233.536H65.9994L66.3354 234.832C67.114 233.84 68.122 233.344 69.3594 233.344C70.33 233.344 71.0714 233.643 71.5834 234.24C72.0954 234.827 72.3514 235.68 72.3514 236.8V242H69.9194V236.88C69.9194 235.845 69.4874 235.328 68.6234 235.328C68.2394 235.328 67.8874 235.44 67.5674 235.664C67.258 235.888 67.018 236.203 66.8474 236.608V242H64.4154ZM79.6961 242L79.3761 240.816C79.0881 241.243 78.7095 241.579 78.2401 241.824C77.7815 242.069 77.2695 242.192 76.7041 242.192C75.8295 242.192 75.1361 241.952 74.6241 241.472C74.1228 240.992 73.8721 240.331 73.8721 239.488C73.8721 238.603 74.2081 237.904 74.8801 237.392C75.5521 236.88 76.4588 236.624 77.6001 236.624H78.9921V236.32C78.9921 235.851 78.8748 235.547 78.6401 235.408C78.4055 235.269 78.0375 235.2 77.5361 235.2C76.6401 235.2 75.6748 235.403 74.6401 235.808V233.968C75.0668 233.787 75.5628 233.637 76.1281 233.52C76.7041 233.403 77.2855 233.344 77.8721 233.344C78.9815 233.344 79.8241 233.6 80.4001 234.112C80.9868 234.613 81.2801 235.339 81.2801 236.288V242H79.6961ZM77.3281 240.416C77.6801 240.416 78.0055 240.325 78.3041 240.144C78.6028 239.963 78.8481 239.717 79.0401 239.408V238.032H77.9041C77.3495 238.032 76.9175 238.139 76.6081 238.352C76.3095 238.565 76.1601 238.869 76.1601 239.264C76.1601 240.032 76.5495 240.416 77.3281 240.416ZM83.226 238.736V233.536H85.658V238.656C85.658 239.691 86.0633 240.208 86.874 240.208C87.2367 240.208 87.5673 240.096 87.866 239.872C88.1753 239.637 88.4153 239.323 88.586 238.928V233.536H91.018V242H89.434L89.098 240.704C88.3193 241.696 87.3327 242.192 86.138 242.192C85.1993 242.192 84.4793 241.893 83.978 241.296C83.4767 240.699 83.226 239.845 83.226 238.736ZM93.5661 239.088V235.36H92.0781V234.144L93.6781 233.488L94.3981 231.104H95.9981V233.536H97.8061V235.36H95.9981V238.96C95.9981 239.376 96.0995 239.675 96.3021 239.856C96.5155 240.027 96.8195 240.112 97.2141 240.112C97.3208 240.112 97.4381 240.112 97.5661 240.112C97.6941 240.101 97.8061 240.091 97.9021 240.08V242.016C97.6461 242.059 97.4115 242.085 97.1981 242.096C96.9955 242.107 96.7661 242.112 96.5101 242.112C95.5395 242.112 94.8035 241.867 94.3021 241.376C93.8115 240.885 93.5661 240.123 93.5661 239.088ZM102.761 239.824V237.904L108.265 230.528H110.489V237.744H112.089V239.824H110.489V242H108.121V239.824H102.761ZM108.185 237.136V233.84L105.337 237.744H108.137L108.185 237.136ZM113.349 242V239.664H116.005V242H113.349ZM118.257 242V233.52L115.601 234.416V232.944L118.993 230.528H120.769V242H118.257ZM127.059 242.208C125.597 242.208 124.488 241.696 123.731 240.672C122.973 239.648 122.595 238.155 122.595 236.192C122.595 232.277 124.083 230.32 127.059 230.32C130.035 230.32 131.523 232.277 131.523 236.192C131.523 238.155 131.144 239.648 130.387 240.672C129.629 241.696 128.52 242.208 127.059 242.208ZM127.059 240.176C127.731 240.176 128.227 239.851 128.547 239.2C128.867 238.549 129.027 237.547 129.027 236.192C129.027 234.859 128.867 233.888 128.547 233.28C128.237 232.661 127.741 232.352 127.059 232.352C126.376 232.352 125.875 232.661 125.555 233.28C125.245 233.888 125.091 234.859 125.091 236.192C125.091 237.547 125.251 238.549 125.571 239.2C125.891 239.851 126.387 240.176 127.059 240.176ZM132.802 242V239.664H135.458V242H132.802ZM136.8 242L139.744 237.664L136.928 233.536H139.664L141.232 236.064L142.832 233.536H145.312L142.496 237.68L145.44 242H142.704L141.024 239.232L139.264 242H136.8Z" fill="white"/>
<path d="M26.272 269.056V267.712H30.576V273.424C29.424 273.957 28.1333 274.224 26.704 274.224C24.7413 274.224 23.2533 273.701 22.24 272.656C21.2373 271.611 20.736 270.075 20.736 268.048C20.736 266.8 20.9813 265.739 21.472 264.864C21.9733 263.979 22.688 263.307 23.616 262.848C24.5547 262.379 25.6853 262.144 27.008 262.144C27.4987 262.144 27.984 262.187 28.464 262.272C28.9547 262.357 29.4133 262.485 29.84 262.656V264.768C29.296 264.597 28.8107 264.48 28.384 264.416C27.9573 264.341 27.5307 264.304 27.104 264.304C25.8773 264.304 24.9333 264.629 24.272 265.28C23.6213 265.92 23.296 266.843 23.296 268.048C23.296 269.392 23.5787 270.4 24.144 271.072C24.72 271.733 25.5947 272.064 26.768 272.064C27.2693 272.064 27.76 272.032 28.24 271.968V269.712L26.272 269.056ZM32.4641 274V262.368H36.3681C38.2668 262.368 39.7015 262.859 40.6721 263.84C41.6428 264.821 42.1281 266.272 42.1281 268.192C42.1281 270.091 41.6428 271.536 40.6721 272.528C39.7121 273.509 38.2775 274 36.3681 274H32.4641ZM36.3361 264.4H34.9601V271.968H36.3361C37.4135 271.968 38.2135 271.664 38.7361 271.056C39.2695 270.437 39.5361 269.483 39.5361 268.192C39.5361 266.901 39.2748 265.947 38.7521 265.328C38.2295 264.709 37.4241 264.4 36.3361 264.4ZM43.9016 274V262.368H46.3976V267.264L50.4136 262.368H53.3576L48.9416 267.52L53.8216 274H50.7176L47.1176 269.12H46.3976V274H43.9016ZM59.4933 274V267.36H58.0053V266.144L59.4933 265.536V265.056C59.4933 262.923 60.5386 261.856 62.6293 261.856C62.8533 261.856 63.0399 261.861 63.1893 261.872C63.3493 261.883 63.4986 261.904 63.6373 261.936V263.808C63.5733 263.797 63.5039 263.792 63.4293 263.792C63.3653 263.781 63.2906 263.776 63.2053 263.776C62.7466 263.776 62.4159 263.872 62.2133 264.064C62.0213 264.256 61.9253 264.576 61.9253 265.024V265.536H63.7013V267.36H61.9253V274H59.4933ZM68.7226 274.192C67.4 274.192 66.3653 273.803 65.6186 273.024C64.8826 272.245 64.5146 271.157 64.5146 269.76C64.5146 268.363 64.8826 267.28 65.6186 266.512C66.3653 265.733 67.4 265.344 68.7226 265.344C70.056 265.344 71.0906 265.733 71.8266 266.512C72.5626 267.28 72.9306 268.363 72.9306 269.76C72.9306 271.157 72.5626 272.245 71.8266 273.024C71.0906 273.803 70.056 274.192 68.7226 274.192ZM68.7226 272.352C69.896 272.352 70.4826 271.488 70.4826 269.76C70.4826 268.043 69.896 267.184 68.7226 267.184C67.5493 267.184 66.9626 268.043 66.9626 269.76C66.9626 271.488 67.5493 272.352 68.7226 272.352ZM77.0349 274H74.6029V265.536H76.1869L76.5229 266.784C76.8002 266.379 77.1469 266.064 77.5629 265.84C77.9789 265.605 78.4589 265.488 79.0029 265.488C79.2375 265.488 79.4402 265.504 79.6109 265.536V267.728H79.0989C78.5549 267.728 78.1015 267.872 77.7389 268.16C77.3762 268.437 77.1415 268.811 77.0349 269.28V274ZM85.1673 274V262.368H87.7753L91.4713 270.032L95.1193 262.368H97.7273V274H95.2633V266.464L92.1913 272.88H90.6553L87.5833 266.56V274H85.1673ZM99.7714 264.048V262.176H102.459V264.048H99.7714ZM100.027 274V267.248L99.1474 266.512V265.536H102.459V274H100.027ZM110.892 271.84V273.744C110.561 273.872 110.172 273.979 109.724 274.064C109.276 274.149 108.817 274.192 108.348 274.192C105.542 274.192 104.14 272.688 104.14 269.68C104.14 268.336 104.524 267.28 105.292 266.512C106.07 265.733 107.137 265.344 108.492 265.344C109.228 265.344 109.948 265.467 110.652 265.712V267.584C110.129 267.317 109.553 267.184 108.924 267.184C108.177 267.184 107.601 267.392 107.196 267.808C106.79 268.213 106.588 268.837 106.588 269.68C106.588 270.491 106.764 271.136 107.116 271.616C107.478 272.085 108.006 272.32 108.7 272.32C109.041 272.32 109.393 272.277 109.756 272.192C110.118 272.107 110.497 271.989 110.892 271.84ZM114.91 274H112.478V265.536H114.062L114.398 266.784C114.675 266.379 115.022 266.064 115.438 265.84C115.854 265.605 116.334 265.488 116.878 265.488C117.113 265.488 117.315 265.504 117.486 265.536V267.728H116.974C116.43 267.728 115.977 267.872 115.614 268.16C115.251 268.437 115.017 268.811 114.91 269.28V274ZM122.566 274.192C121.244 274.192 120.209 273.803 119.462 273.024C118.726 272.245 118.358 271.157 118.358 269.76C118.358 268.363 118.726 267.28 119.462 266.512C120.209 265.733 121.244 265.344 122.566 265.344C123.9 265.344 124.934 265.733 125.67 266.512C126.406 267.28 126.774 268.363 126.774 269.76C126.774 271.157 126.406 272.245 125.67 273.024C124.934 273.803 123.9 274.192 122.566 274.192ZM122.566 272.352C123.74 272.352 124.326 271.488 124.326 269.76C124.326 268.043 123.74 267.184 122.566 267.184C121.393 267.184 120.806 268.043 120.806 269.76C120.806 271.488 121.393 272.352 122.566 272.352ZM128.447 274V265.536H130.031L130.367 266.832C131.145 265.84 132.153 265.344 133.391 265.344C134.361 265.344 135.103 265.643 135.615 266.24C136.127 266.827 136.383 267.68 136.383 268.8V274H133.951V268.88C133.951 267.845 133.519 267.328 132.655 267.328C132.271 267.328 131.919 267.44 131.599 267.664C131.289 267.888 131.049 268.203 130.879 268.608V274H128.447ZM143.727 274L143.407 272.816C143.119 273.243 142.741 273.579 142.271 273.824C141.813 274.069 141.301 274.192 140.735 274.192C139.861 274.192 139.167 273.952 138.655 273.472C138.154 272.992 137.903 272.331 137.903 271.488C137.903 270.603 138.239 269.904 138.911 269.392C139.583 268.88 140.49 268.624 141.631 268.624H143.023V268.32C143.023 267.851 142.906 267.547 142.671 267.408C142.437 267.269 142.069 267.2 141.567 267.2C140.671 267.2 139.706 267.403 138.671 267.808V265.968C139.098 265.787 139.594 265.637 140.159 265.52C140.735 265.403 141.317 265.344 141.903 265.344C143.013 265.344 143.855 265.6 144.431 266.112C145.018 266.613 145.311 267.339 145.311 268.288V274H143.727ZM141.359 272.416C141.711 272.416 142.037 272.325 142.335 272.144C142.634 271.963 142.879 271.717 143.071 271.408V270.032H141.935C141.381 270.032 140.949 270.139 140.639 270.352C140.341 270.565 140.191 270.869 140.191 271.264C140.191 272.032 140.581 272.416 141.359 272.416ZM147.257 270.736V265.536H149.689V270.656C149.689 271.691 150.095 272.208 150.905 272.208C151.268 272.208 151.599 272.096 151.897 271.872C152.207 271.637 152.447 271.323 152.617 270.928V265.536H155.049V274H153.465L153.129 272.704C152.351 273.696 151.364 274.192 150.169 274.192C149.231 274.192 148.511 273.893 148.009 273.296C147.508 272.699 147.257 271.845 147.257 270.736ZM157.597 271.088V267.36H156.109V266.144L157.709 265.488L158.429 263.104H160.029V265.536H161.837V267.36H160.029V270.96C160.029 271.376 160.131 271.675 160.333 271.856C160.547 272.027 160.851 272.112 161.245 272.112C161.352 272.112 161.469 272.112 161.597 272.112C161.725 272.101 161.837 272.091 161.933 272.08V274.016C161.677 274.059 161.443 274.085 161.229 274.096C161.027 274.107 160.797 274.112 160.541 274.112C159.571 274.112 158.835 273.867 158.333 273.376C157.843 272.885 157.597 272.123 157.597 271.088ZM166.792 271.824V269.904L172.296 262.528H174.52V269.744H176.12V271.824H174.52V274H172.152V271.824H166.792ZM172.216 269.136V265.84L169.368 269.744H172.168L172.216 269.136ZM177.38 274V271.664H180.036V274H177.38ZM182.288 274V265.52L179.632 266.416V264.944L183.024 262.528H184.8V274H182.288ZM191.09 274.208C189.629 274.208 188.519 273.696 187.762 272.672C187.005 271.648 186.626 270.155 186.626 268.192C186.626 264.277 188.114 262.32 191.09 262.32C194.066 262.32 195.554 264.277 195.554 268.192C195.554 270.155 195.175 271.648 194.418 272.672C193.661 273.696 192.551 274.208 191.09 274.208ZM191.09 272.176C191.762 272.176 192.258 271.851 192.578 271.2C192.898 270.549 193.058 269.547 193.058 268.192C193.058 266.859 192.898 265.888 192.578 265.28C192.269 264.661 191.773 264.352 191.09 264.352C190.407 264.352 189.906 264.661 189.586 265.28C189.277 265.888 189.122 266.859 189.122 268.192C189.122 269.547 189.282 270.549 189.602 271.2C189.922 271.851 190.418 272.176 191.09 272.176ZM196.833 274V271.664H199.489V274H196.833ZM200.832 274L203.776 269.664L200.96 265.536H203.696L205.264 268.064L206.864 265.536H209.344L206.528 269.68L209.472 274H206.736L205.056 271.232L203.296 274H200.832Z" fill="white"/>
<rect x="231" y="1" width="56" height="32" fill="white"/>
<path d="M239.053 23V13.549H241.887C243.412 13.549 244.561 13.9477 245.332 14.745C246.112 15.5423 246.502 16.721 246.502 18.281C246.502 19.841 246.112 21.0197 245.332 21.817C244.561 22.6057 243.412 23 241.887 23H239.053ZM241.861 14.576H240.262V21.973H241.861C243.005 21.973 243.859 21.6697 244.422 21.063C244.985 20.4563 245.267 19.529 245.267 18.281C245.267 15.811 244.132 14.576 241.861 14.576ZM253.212 22.662C252.97 22.8093 252.645 22.9263 252.237 23.013C251.839 23.0997 251.401 23.143 250.924 23.143C249.85 23.143 249.035 22.8397 248.48 22.233C247.934 21.6177 247.661 20.7207 247.661 19.542C247.661 18.4067 247.921 17.5443 248.441 16.955C248.97 16.3657 249.724 16.071 250.703 16.071C252.593 16.071 253.537 17.1153 253.537 19.204V19.958H248.844C248.896 20.7207 249.1 21.2797 249.455 21.635C249.811 21.9817 250.339 22.155 251.041 22.155C251.431 22.155 251.8 22.116 252.146 22.038C252.493 21.96 252.848 21.8387 253.212 21.674V22.662ZM250.703 17.033C250.131 17.033 249.685 17.2063 249.364 17.553C249.052 17.891 248.879 18.385 248.844 19.035H252.406C252.406 18.3243 252.272 17.813 252.003 17.501C251.743 17.189 251.31 17.033 250.703 17.033ZM259.933 21.7V22.662C259.395 22.9827 258.715 23.143 257.892 23.143C256.843 23.143 256.05 22.8397 255.513 22.233C254.984 21.6177 254.72 20.7163 254.72 19.529C254.72 18.4283 255.001 17.579 255.565 16.981C256.128 16.3743 256.925 16.071 257.957 16.071C258.598 16.071 259.192 16.214 259.738 16.5V17.462C259.166 17.176 258.633 17.033 258.139 17.033C256.657 17.033 255.916 17.865 255.916 19.529C255.916 20.4303 256.085 21.0977 256.423 21.531C256.769 21.9643 257.311 22.181 258.048 22.181C258.342 22.181 258.641 22.142 258.945 22.064C259.248 21.986 259.577 21.8647 259.933 21.7ZM261.227 20.101V19.1H264.945V20.101H261.227ZM266.024 23V22.181L268.611 19.373C269.114 18.827 269.517 18.359 269.82 17.969C270.132 17.579 270.357 17.2367 270.496 16.942C270.635 16.6387 270.704 16.3613 270.704 16.11C270.704 15.0613 270.097 14.537 268.884 14.537C268.078 14.537 267.229 14.784 266.336 15.278V14.264C266.674 14.0387 267.081 13.861 267.558 13.731C268.035 13.5923 268.498 13.523 268.949 13.523C269.876 13.523 270.591 13.744 271.094 14.186C271.605 14.628 271.861 15.2563 271.861 16.071C271.861 16.5737 271.675 17.124 271.302 17.722C270.929 18.3113 270.331 19.0523 269.508 19.945L267.597 21.999H271.887V23H266.024ZM272.489 20.829V19.958L277.338 13.679H278.391V19.828H279.639V20.829H278.391V23H277.221V20.829H272.489ZM273.828 19.828H277.247V15.434L273.828 19.828Z" fill="#171923"/>
<rect x="287" y="1" width="56" height="32" fill="#F68537"/>
<path d="M294.377 22.688V20.907C294.758 21.0717 295.096 21.193 295.391 21.271C295.694 21.349 295.98 21.388 296.249 21.388C297.194 21.388 297.666 20.933 297.666 20.023V15.239L295.937 14.68V13.549H299.694V20.205C299.694 21.1497 299.417 21.882 298.862 22.402C298.316 22.922 297.549 23.182 296.561 23.182C296.162 23.182 295.768 23.1387 295.378 23.052C294.997 22.974 294.663 22.8527 294.377 22.688ZM305.649 23L305.389 22.038C305.155 22.3847 304.847 22.6577 304.466 22.857C304.093 23.0563 303.677 23.156 303.218 23.156C302.507 23.156 301.944 22.961 301.528 22.571C301.12 22.181 300.917 21.6437 300.917 20.959C300.917 20.2397 301.19 19.672 301.736 19.256C302.282 18.84 303.018 18.632 303.946 18.632H305.077V18.385C305.077 18.0037 304.981 17.7567 304.791 17.644C304.6 17.5313 304.301 17.475 303.894 17.475C303.166 17.475 302.381 17.6397 301.541 17.969V16.474C301.887 16.3267 302.29 16.2053 302.75 16.11C303.218 16.0147 303.69 15.967 304.167 15.967C305.068 15.967 305.753 16.175 306.221 16.591C306.697 16.9983 306.936 17.5877 306.936 18.359V23H305.649ZM303.725 21.713C304.011 21.713 304.275 21.6393 304.518 21.492C304.76 21.3447 304.96 21.1453 305.116 20.894V19.776H304.193C303.742 19.776 303.391 19.8627 303.14 20.036C302.897 20.2093 302.776 20.4563 302.776 20.777C302.776 21.401 303.092 21.713 303.725 21.713ZM308.582 23V16.123H309.869L310.142 17.176C310.774 16.37 311.593 15.967 312.599 15.967C313.387 15.967 313.99 16.2097 314.406 16.695C314.822 17.1717 315.03 17.865 315.03 18.775V23H313.054V18.84C313.054 17.9993 312.703 17.579 312.001 17.579C311.689 17.579 311.403 17.67 311.143 17.852C310.891 18.034 310.696 18.2897 310.558 18.619V23H308.582ZM316.551 20.4V18.723H320.581V20.4H316.551ZM321.529 23V21.635L323.895 19.035C324.354 18.5323 324.709 18.125 324.961 17.813C325.221 17.4923 325.403 17.2237 325.507 17.007C325.611 16.7817 325.663 16.5737 325.663 16.383C325.663 15.5943 325.164 15.2 324.168 15.2C323.466 15.2 322.668 15.4383 321.776 15.915V14.173C322.183 13.965 322.621 13.8047 323.089 13.692C323.565 13.5707 324.029 13.51 324.48 13.51C325.485 13.51 326.265 13.7397 326.82 14.199C327.374 14.6583 327.652 15.3127 327.652 16.162C327.652 16.5087 327.582 16.8553 327.444 17.202C327.305 17.5487 327.075 17.9387 326.755 18.372C326.443 18.7967 326.018 19.308 325.481 19.906L324.168 21.349H327.678V23H321.529ZM328.8 22.584V20.855C329.182 21.0457 329.606 21.1973 330.074 21.31C330.551 21.414 331.01 21.466 331.452 21.466C332.007 21.466 332.445 21.336 332.765 21.076C333.086 20.816 333.246 20.4607 333.246 20.01C333.246 19.5767 333.112 19.2387 332.843 18.996C332.583 18.7533 332.211 18.632 331.725 18.632C331.162 18.632 330.586 18.762 329.996 19.022L328.852 18.125L329.398 13.679H334.533V15.33H330.854L330.62 17.358C331.062 17.202 331.513 17.124 331.972 17.124C332.934 17.124 333.693 17.384 334.247 17.904C334.802 18.4153 335.079 19.1217 335.079 20.023C335.079 20.6557 334.936 21.2103 334.65 21.687C334.364 22.155 333.957 22.519 333.428 22.779C332.908 23.039 332.297 23.169 331.595 23.169C331.058 23.169 330.542 23.117 330.048 23.013C329.563 22.909 329.147 22.766 328.8 22.584Z" fill="white"/>
<rect x="399" y="1" width="56" height="32" fill="white"/>
<path d="M406.442 22.649V21.557C406.771 21.713 407.118 21.8387 407.482 21.934C407.846 22.0293 408.171 22.077 408.457 22.077C409.558 22.077 410.108 21.5223 410.108 20.413V14.654L408.223 14.264V13.549H411.317V20.478C411.317 21.31 411.074 21.9643 410.589 22.441C410.112 22.9177 409.441 23.156 408.574 23.156C408.184 23.156 407.794 23.1083 407.404 23.013C407.014 22.9177 406.693 22.7963 406.442 22.649ZM413.156 20.413V16.214H414.326V20.374C414.326 20.9547 414.452 21.401 414.703 21.713C414.954 22.025 415.323 22.181 415.808 22.181C416.215 22.181 416.597 22.0423 416.952 21.765C417.316 21.479 417.589 21.102 417.771 20.634V16.214H418.941V23H418.148L417.94 21.843C417.663 22.259 417.312 22.5797 416.887 22.805C416.471 23.0303 416.016 23.143 415.522 23.143C414.768 23.143 414.183 22.909 413.767 22.441C413.36 21.973 413.156 21.297 413.156 20.413ZM420.889 23V16.214H421.682L421.89 17.371C422.176 16.955 422.527 16.6343 422.943 16.409C423.359 16.1837 423.827 16.071 424.347 16.071C425.127 16.071 425.725 16.305 426.141 16.773C426.557 17.241 426.765 17.917 426.765 18.801V23H425.595V18.84C425.595 17.6613 425.084 17.072 424.061 17.072C423.628 17.072 423.229 17.2063 422.865 17.475C422.51 17.735 422.241 18.0903 422.059 18.541V23H420.889ZM428.516 20.101V19.1H432.234V20.101H428.516ZM433.313 23V22.181L435.9 19.373C436.403 18.827 436.806 18.359 437.109 17.969C437.421 17.579 437.646 17.2367 437.785 16.942C437.924 16.6387 437.993 16.3613 437.993 16.11C437.993 15.0613 437.386 14.537 436.173 14.537C435.367 14.537 434.518 14.784 433.625 15.278V14.264C433.963 14.0387 434.37 13.861 434.847 13.731C435.324 13.5923 435.787 13.523 436.238 13.523C437.165 13.523 437.88 13.744 438.383 14.186C438.894 14.628 439.15 15.2563 439.15 16.071C439.15 16.5737 438.964 17.124 438.591 17.722C438.218 18.3113 437.62 19.0523 436.797 19.945L434.886 21.999H439.176V23H433.313ZM440.367 22.571V21.557C440.757 21.7563 441.16 21.9037 441.576 21.999C441.992 22.0943 442.421 22.142 442.863 22.142C443.582 22.142 444.137 21.9557 444.527 21.583C444.926 21.2103 445.125 20.7077 445.125 20.075C445.125 19.4597 444.947 18.9873 444.592 18.658C444.237 18.32 443.756 18.151 443.149 18.151C442.776 18.151 442.408 18.1987 442.044 18.294C441.68 18.3807 441.377 18.4977 441.134 18.645L440.419 18.086L440.965 13.679H445.71V14.68H441.81L441.446 17.605C441.715 17.4663 442.001 17.3623 442.304 17.293C442.616 17.215 442.928 17.176 443.24 17.176C443.847 17.176 444.375 17.293 444.826 17.527C445.277 17.761 445.628 18.0947 445.879 18.528C446.13 18.9613 446.256 19.477 446.256 20.075C446.256 20.7077 446.117 21.258 445.84 21.726C445.571 22.1853 445.186 22.5407 444.683 22.792C444.189 23.0347 443.6 23.156 442.915 23.156C442.438 23.156 441.983 23.1083 441.55 23.013C441.117 22.9177 440.722 22.7703 440.367 22.571Z" fill="#171923"/>
<rect x="511" y="1" width="56" height="32" fill="white"/>
<path d="M518.65 22.584V21.518C519.603 21.908 520.513 22.103 521.38 22.103C522.108 22.103 522.676 21.96 523.083 21.674C523.499 21.388 523.707 20.9937 523.707 20.491C523.707 20.1183 523.581 19.8107 523.33 19.568C523.079 19.3253 522.624 19.0783 521.965 18.827L520.964 18.437C520.123 18.1077 519.517 17.7437 519.144 17.345C518.78 16.9377 518.598 16.461 518.598 15.915C518.598 15.135 518.893 14.5197 519.482 14.069C520.071 13.6183 520.877 13.393 521.9 13.393C522.325 13.393 522.762 13.445 523.213 13.549C523.664 13.6443 524.049 13.7787 524.37 13.952V15.018C523.486 14.6367 522.671 14.446 521.926 14.446C520.513 14.446 519.807 14.927 519.807 15.889C519.807 16.2097 519.933 16.4827 520.184 16.708C520.435 16.9333 520.877 17.1717 521.51 17.423L522.511 17.813C523.378 18.151 523.993 18.5323 524.357 18.957C524.73 19.373 524.916 19.8757 524.916 20.465C524.916 21.3143 524.613 21.9773 524.006 22.454C523.408 22.922 522.567 23.156 521.484 23.156C521.155 23.156 520.808 23.13 520.444 23.078C520.089 23.026 519.755 22.9567 519.443 22.87C519.131 22.7833 518.867 22.688 518.65 22.584ZM531.511 22.662C531.268 22.8093 530.943 22.9263 530.536 23.013C530.137 23.0997 529.7 23.143 529.223 23.143C528.148 23.143 527.334 22.8397 526.779 22.233C526.233 21.6177 525.96 20.7207 525.96 19.542C525.96 18.4067 526.22 17.5443 526.74 16.955C527.269 16.3657 528.023 16.071 529.002 16.071C530.891 16.071 531.836 17.1153 531.836 19.204V19.958H527.143C527.195 20.7207 527.399 21.2797 527.754 21.635C528.109 21.9817 528.638 22.155 529.34 22.155C529.73 22.155 530.098 22.116 530.445 22.038C530.792 21.96 531.147 21.8387 531.511 21.674V22.662ZM529.002 17.033C528.43 17.033 527.984 17.2063 527.663 17.553C527.351 17.891 527.178 18.385 527.143 19.035H530.705C530.705 18.3243 530.571 17.813 530.302 17.501C530.042 17.189 529.609 17.033 529.002 17.033ZM533.321 25.613V16.214H534.114L534.309 17.306C534.569 16.916 534.898 16.6127 535.297 16.396C535.704 16.1793 536.142 16.071 536.61 16.071C537.511 16.071 538.213 16.383 538.716 17.007C539.218 17.6223 539.47 18.4847 539.47 19.594C539.47 20.712 539.214 21.583 538.703 22.207C538.2 22.831 537.494 23.143 536.584 23.143C536.202 23.143 535.83 23.0693 535.466 22.922C535.102 22.7747 534.777 22.5667 534.491 22.298V25.613H533.321ZM536.428 17.02C536.02 17.02 535.643 17.1327 535.297 17.358C534.959 17.5747 534.69 17.8737 534.491 18.255V21.271C535.019 21.8863 535.648 22.194 536.376 22.194C536.991 22.194 537.459 21.973 537.78 21.531C538.109 21.089 538.274 20.4477 538.274 19.607C538.274 18.7837 538.113 18.1467 537.793 17.696C537.472 17.2453 537.017 17.02 536.428 17.02ZM540.859 20.101V19.1H544.577V20.101H540.859ZM545.656 23V22.181L548.243 19.373C548.746 18.827 549.149 18.359 549.452 17.969C549.764 17.579 549.989 17.2367 550.128 16.942C550.267 16.6387 550.336 16.3613 550.336 16.11C550.336 15.0613 549.729 14.537 548.516 14.537C547.71 14.537 546.861 14.784 545.968 15.278V14.264C546.306 14.0387 546.713 13.861 547.19 13.731C547.667 13.5923 548.13 13.523 548.581 13.523C549.508 13.523 550.223 13.744 550.726 14.186C551.237 14.628 551.493 15.2563 551.493 16.071C551.493 16.5737 551.307 17.124 550.934 17.722C550.561 18.3113 549.963 19.0523 549.14 19.945L547.229 21.999H551.519V23H545.656ZM552.71 22.571V21.557C553.1 21.7563 553.503 21.9037 553.919 21.999C554.335 22.0943 554.764 22.142 555.206 22.142C555.925 22.142 556.48 21.9557 556.87 21.583C557.268 21.2103 557.468 20.7077 557.468 20.075C557.468 19.4597 557.29 18.9873 556.935 18.658C556.579 18.32 556.098 18.151 555.492 18.151C555.119 18.151 554.751 18.1987 554.387 18.294C554.023 18.3807 553.719 18.4977 553.477 18.645L552.762 18.086L553.308 13.679H558.053V14.68H554.153L553.789 17.605C554.057 17.4663 554.343 17.3623 554.647 17.293C554.959 17.215 555.271 17.176 555.583 17.176C556.189 17.176 556.718 17.293 557.169 17.527C557.619 17.761 557.97 18.0947 558.222 18.528C558.473 18.9613 558.599 19.477 558.599 20.075C558.599 20.7077 558.46 21.258 558.183 21.726C557.914 22.1853 557.528 22.5407 557.026 22.792C556.532 23.0347 555.942 23.156 555.258 23.156C554.781 23.156 554.326 23.1083 553.893 23.013C553.459 22.9177 553.065 22.7703 552.71 22.571Z" fill="#171923"/>
<rect x="455" y="1" width="56" height="32" fill="#F68537"/>
<path d="M464.377 22.688V20.907C464.758 21.0717 465.096 21.193 465.391 21.271C465.694 21.349 465.98 21.388 466.249 21.388C467.194 21.388 467.666 20.933 467.666 20.023V15.239L465.937 14.68V13.549H469.694V20.205C469.694 21.1497 469.417 21.882 468.862 22.402C468.316 22.922 467.549 23.182 466.561 23.182C466.162 23.182 465.768 23.1387 465.378 23.052C464.997 22.974 464.663 22.8527 464.377 22.688ZM471.268 20.348V16.123H473.244V20.283C473.244 21.1237 473.573 21.544 474.232 21.544C474.526 21.544 474.795 21.453 475.038 21.271C475.289 21.0803 475.484 20.8247 475.623 20.504V16.123H477.599V23H476.312L476.039 21.947C475.406 22.753 474.604 23.156 473.634 23.156C472.871 23.156 472.286 22.9133 471.879 22.428C471.471 21.9427 471.268 21.2493 471.268 20.348ZM479.409 23V14.628L478.694 14.03V13.237H481.385V23H479.409ZM482.971 20.4V18.723H487.001V20.4H482.971ZM487.949 23V21.635L490.315 19.035C490.774 18.5323 491.129 18.125 491.381 17.813C491.641 17.4923 491.823 17.2237 491.927 17.007C492.031 16.7817 492.083 16.5737 492.083 16.383C492.083 15.5943 491.584 15.2 490.588 15.2C489.886 15.2 489.088 15.4383 488.196 15.915V14.173C488.603 13.965 489.041 13.8047 489.509 13.692C489.985 13.5707 490.449 13.51 490.9 13.51C491.905 13.51 492.685 13.7397 493.24 14.199C493.794 14.6583 494.072 15.3127 494.072 16.162C494.072 16.5087 494.002 16.8553 493.864 17.202C493.725 17.5487 493.495 17.9387 493.175 18.372C492.863 18.7967 492.438 19.308 491.901 19.906L490.588 21.349H494.098V23H487.949ZM495.22 22.584V20.855C495.602 21.0457 496.026 21.1973 496.494 21.31C496.971 21.414 497.43 21.466 497.872 21.466C498.427 21.466 498.865 21.336 499.185 21.076C499.506 20.816 499.666 20.4607 499.666 20.01C499.666 19.5767 499.532 19.2387 499.263 18.996C499.003 18.7533 498.631 18.632 498.145 18.632C497.582 18.632 497.006 18.762 496.416 19.022L495.272 18.125L495.818 13.679H500.953V15.33H497.274L497.04 17.358C497.482 17.202 497.933 17.124 498.392 17.124C499.354 17.124 500.113 17.384 500.667 17.904C501.222 18.4153 501.499 19.1217 501.499 20.023C501.499 20.6557 501.356 21.2103 501.07 21.687C500.784 22.155 500.377 22.519 499.848 22.779C499.328 23.039 498.717 23.169 498.015 23.169C497.478 23.169 496.962 23.117 496.468 23.013C495.983 22.909 495.567 22.766 495.22 22.584Z" fill="white"/>
<rect x="567" y="1" width="56" height="32" fill="#F68537"/>
<path d="M579.018 23.182C577.605 23.182 576.513 22.7573 575.742 21.908C574.979 21.05 574.598 19.8367 574.598 18.268C574.598 16.7167 574.984 15.512 575.755 14.654C576.526 13.796 577.614 13.367 579.018 13.367C580.422 13.367 581.51 13.796 582.281 14.654C583.052 15.512 583.438 16.7167 583.438 18.268C583.438 19.8367 583.057 21.05 582.294 21.908C581.531 22.7573 580.439 23.182 579.018 23.182ZM579.018 21.453C579.807 21.453 580.392 21.18 580.773 20.634C581.163 20.088 581.358 19.2993 581.358 18.268C581.358 17.2367 581.163 16.4523 580.773 15.915C580.392 15.369 579.807 15.096 579.018 15.096C578.229 15.096 577.64 15.369 577.25 15.915C576.869 16.4523 576.678 17.2367 576.678 18.268C576.678 19.2993 576.869 20.088 577.25 20.634C577.64 21.18 578.229 21.453 579.018 21.453ZM590.035 21.245V22.792C589.766 22.896 589.45 22.9827 589.086 23.052C588.722 23.1213 588.349 23.156 587.968 23.156C585.689 23.156 584.549 21.934 584.549 19.49C584.549 18.398 584.861 17.54 585.485 16.916C586.118 16.2833 586.984 15.967 588.085 15.967C588.683 15.967 589.268 16.0667 589.84 16.266V17.787C589.415 17.5703 588.947 17.462 588.436 17.462C587.829 17.462 587.361 17.631 587.032 17.969C586.703 18.2983 586.538 18.8053 586.538 19.49C586.538 20.1487 586.681 20.673 586.967 21.063C587.262 21.4443 587.691 21.635 588.254 21.635C588.531 21.635 588.817 21.6003 589.112 21.531C589.407 21.4617 589.714 21.3663 590.035 21.245ZM591.929 20.634V17.605H590.72V16.617L592.02 16.084L592.605 14.147H593.905V16.123H595.374V17.605H593.905V20.53C593.905 20.868 593.987 21.1107 594.152 21.258C594.325 21.3967 594.572 21.466 594.893 21.466C594.979 21.466 595.075 21.466 595.179 21.466C595.283 21.4573 595.374 21.4487 595.452 21.44V23.013C595.244 23.0477 595.053 23.0693 594.88 23.078C594.715 23.0867 594.529 23.091 594.321 23.091C593.532 23.091 592.934 22.8917 592.527 22.493C592.128 22.0943 591.929 21.4747 591.929 20.634ZM596.577 20.4V18.723H600.607V20.4H596.577ZM601.554 23V21.635L603.92 19.035C604.379 18.5323 604.735 18.125 604.986 17.813C605.246 17.4923 605.428 17.2237 605.532 17.007C605.636 16.7817 605.688 16.5737 605.688 16.383C605.688 15.5943 605.19 15.2 604.193 15.2C603.491 15.2 602.694 15.4383 601.801 15.915V14.173C602.208 13.965 602.646 13.8047 603.114 13.692C603.591 13.5707 604.054 13.51 604.505 13.51C605.51 13.51 606.29 13.7397 606.845 14.199C607.4 14.6583 607.677 15.3127 607.677 16.162C607.677 16.5087 607.608 16.8553 607.469 17.202C607.33 17.5487 607.101 17.9387 606.78 18.372C606.468 18.7967 606.043 19.308 605.506 19.906L604.193 21.349H607.703V23H601.554ZM608.826 22.584V20.855C609.207 21.0457 609.632 21.1973 610.1 21.31C610.576 21.414 611.036 21.466 611.478 21.466C612.032 21.466 612.47 21.336 612.791 21.076C613.111 20.816 613.272 20.4607 613.272 20.01C613.272 19.5767 613.137 19.2387 612.869 18.996C612.609 18.7533 612.236 18.632 611.751 18.632C611.187 18.632 610.611 18.762 610.022 19.022L608.878 18.125L609.424 13.679H614.559V15.33H610.88L610.646 17.358C611.088 17.202 611.538 17.124 611.998 17.124C612.96 17.124 613.718 17.384 614.273 17.904C614.827 18.4153 615.105 19.1217 615.105 20.023C615.105 20.6557 614.962 21.2103 614.676 21.687C614.39 22.155 613.982 22.519 613.454 22.779C612.934 23.039 612.323 23.169 611.621 23.169C611.083 23.169 610.568 23.117 610.074 23.013C609.588 22.909 609.172 22.766 608.826 22.584Z" fill="white"/>
<rect x="679" y="1" width="56" height="32" fill="#F68537"/>
<path d="M685.091 23L688.679 13.549H690.642L694.256 23H691.994L691.37 21.063H687.886L687.262 23H685.091ZM688.432 19.347H690.811L689.615 15.629L688.432 19.347ZM695.202 25.613V16.123H696.489L696.762 17.137C697.316 16.357 698.036 15.967 698.92 15.967C699.821 15.967 700.532 16.2877 701.052 16.929C701.572 17.5617 701.832 18.437 701.832 19.555C701.832 20.6903 701.576 21.5743 701.065 22.207C700.562 22.8397 699.851 23.156 698.933 23.156C698.248 23.156 697.663 22.9263 697.178 22.467V25.613H695.202ZM698.504 17.41C698.235 17.41 697.979 17.4793 697.737 17.618C697.503 17.748 697.308 17.9257 697.152 18.151V21.089C697.498 21.505 697.945 21.713 698.491 21.713C698.924 21.713 699.258 21.531 699.492 21.167C699.726 20.7943 699.843 20.2613 699.843 19.568C699.843 18.8747 699.726 18.3417 699.492 17.969C699.266 17.5963 698.937 17.41 698.504 17.41ZM696.892 18.71L696.97 18.502C696.935 18.5713 696.909 18.6407 696.892 18.71ZM705.176 23H703.2V16.123H704.487L704.76 17.137C704.985 16.8077 705.267 16.552 705.605 16.37C705.943 16.1793 706.333 16.084 706.775 16.084C706.965 16.084 707.13 16.097 707.269 16.123V17.904H706.853C706.411 17.904 706.042 18.021 705.748 18.255C705.453 18.4803 705.262 18.7837 705.176 19.165V23ZM708.402 20.4V18.723H712.432V20.4H708.402ZM713.379 23V21.635L715.745 19.035C716.205 18.5323 716.56 18.125 716.811 17.813C717.071 17.4923 717.253 17.2237 717.357 17.007C717.461 16.7817 717.513 16.5737 717.513 16.383C717.513 15.5943 717.015 15.2 716.018 15.2C715.316 15.2 714.519 15.4383 713.626 15.915V14.173C714.034 13.965 714.471 13.8047 714.939 13.692C715.416 13.5707 715.88 13.51 716.33 13.51C717.336 13.51 718.116 13.7397 718.67 14.199C719.225 14.6583 719.502 15.3127 719.502 16.162C719.502 16.5087 719.433 16.8553 719.294 17.202C719.156 17.5487 718.926 17.9387 718.605 18.372C718.293 18.7967 717.869 19.308 717.331 19.906L716.018 21.349H719.528V23H713.379ZM727.385 19.789C727.385 20.4737 727.242 21.0717 726.956 21.583C726.679 22.0857 726.28 22.4757 725.76 22.753C725.249 23.0303 724.642 23.169 723.94 23.169C722.865 23.169 722.02 22.8657 721.405 22.259C720.798 21.6523 720.495 20.8117 720.495 19.737C720.495 19.1477 720.625 18.5107 720.885 17.826C721.154 17.1413 721.531 16.4653 722.016 15.798L723.55 13.679H725.708L724.018 16.006C723.767 16.3613 723.55 16.6863 723.368 16.981C723.715 16.7903 724.1 16.695 724.525 16.695C725.409 16.695 726.107 16.9723 726.618 17.527C727.129 18.0817 727.385 18.8357 727.385 19.789ZM722.419 19.854C722.419 20.3913 722.553 20.8117 722.822 21.115C723.091 21.4183 723.463 21.57 723.94 21.57C724.408 21.57 724.776 21.414 725.045 21.102C725.322 20.79 725.461 20.3653 725.461 19.828C725.461 19.3253 725.335 18.9267 725.084 18.632C724.833 18.3287 724.495 18.177 724.07 18.177C723.359 18.177 722.826 18.5063 722.471 19.165C722.436 19.3903 722.419 19.62 722.419 19.854Z" fill="white"/>
<rect x="791" y="1" width="56" height="32" fill="#F68537"/>
<path d="M802.018 23.182C800.605 23.182 799.513 22.7573 798.742 21.908C797.979 21.05 797.598 19.8367 797.598 18.268C797.598 16.7167 797.984 15.512 798.755 14.654C799.526 13.796 800.614 13.367 802.018 13.367C803.422 13.367 804.51 13.796 805.281 14.654C806.052 15.512 806.438 16.7167 806.438 18.268C806.438 19.8367 806.057 21.05 805.294 21.908C804.531 22.7573 803.439 23.182 802.018 23.182ZM802.018 21.453C802.807 21.453 803.392 21.18 803.773 20.634C804.163 20.088 804.358 19.2993 804.358 18.268C804.358 17.2367 804.163 16.4523 803.773 15.915C803.392 15.369 802.807 15.096 802.018 15.096C801.229 15.096 800.64 15.369 800.25 15.915C799.869 16.4523 799.678 17.2367 799.678 18.268C799.678 19.2993 799.869 20.088 800.25 20.634C800.64 21.18 801.229 21.453 802.018 21.453ZM813.035 21.245V22.792C812.766 22.896 812.45 22.9827 812.086 23.052C811.722 23.1213 811.349 23.156 810.968 23.156C808.689 23.156 807.549 21.934 807.549 19.49C807.549 18.398 807.861 17.54 808.485 16.916C809.118 16.2833 809.984 15.967 811.085 15.967C811.683 15.967 812.268 16.0667 812.84 16.266V17.787C812.415 17.5703 811.947 17.462 811.436 17.462C810.829 17.462 810.361 17.631 810.032 17.969C809.703 18.2983 809.538 18.8053 809.538 19.49C809.538 20.1487 809.681 20.673 809.967 21.063C810.262 21.4443 810.691 21.635 811.254 21.635C811.531 21.635 811.817 21.6003 812.112 21.531C812.407 21.4617 812.714 21.3663 813.035 21.245ZM814.929 20.634V17.605H813.72V16.617L815.02 16.084L815.605 14.147H816.905V16.123H818.374V17.605H816.905V20.53C816.905 20.868 816.987 21.1107 817.152 21.258C817.325 21.3967 817.572 21.466 817.893 21.466C817.979 21.466 818.075 21.466 818.179 21.466C818.283 21.4573 818.374 21.4487 818.452 21.44V23.013C818.244 23.0477 818.053 23.0693 817.88 23.078C817.715 23.0867 817.529 23.091 817.321 23.091C816.532 23.091 815.934 22.8917 815.527 22.493C815.128 22.0943 814.929 21.4747 814.929 20.634ZM819.577 20.4V18.723H823.607V20.4H819.577ZM824.554 23V21.635L826.92 19.035C827.379 18.5323 827.735 18.125 827.986 17.813C828.246 17.4923 828.428 17.2237 828.532 17.007C828.636 16.7817 828.688 16.5737 828.688 16.383C828.688 15.5943 828.19 15.2 827.193 15.2C826.491 15.2 825.694 15.4383 824.801 15.915V14.173C825.208 13.965 825.646 13.8047 826.114 13.692C826.591 13.5707 827.054 13.51 827.505 13.51C828.51 13.51 829.29 13.7397 829.845 14.199C830.4 14.6583 830.677 15.3127 830.677 16.162C830.677 16.5087 830.608 16.8553 830.469 17.202C830.33 17.5487 830.101 17.9387 829.78 18.372C829.468 18.7967 829.043 19.308 828.506 19.906L827.193 21.349H830.703V23H824.554ZM838.56 19.789C838.56 20.4737 838.417 21.0717 838.131 21.583C837.853 22.0857 837.455 22.4757 836.935 22.753C836.423 23.0303 835.817 23.169 835.115 23.169C834.04 23.169 833.195 22.8657 832.58 22.259C831.973 21.6523 831.67 20.8117 831.67 19.737C831.67 19.1477 831.8 18.5107 832.06 17.826C832.328 17.1413 832.705 16.4653 833.191 15.798L834.725 13.679H836.883L835.193 16.006C834.941 16.3613 834.725 16.6863 834.543 16.981C834.889 16.7903 835.275 16.695 835.7 16.695C836.584 16.695 837.281 16.9723 837.793 17.527C838.304 18.0817 838.56 18.8357 838.56 19.789ZM833.594 19.854C833.594 20.3913 833.728 20.8117 833.997 21.115C834.265 21.4183 834.638 21.57 835.115 21.57C835.583 21.57 835.951 21.414 836.22 21.102C836.497 20.79 836.636 20.3653 836.636 19.828C836.636 19.3253 836.51 18.9267 836.259 18.632C836.007 18.3287 835.669 18.177 835.245 18.177C834.534 18.177 834.001 18.5063 833.646 19.165C833.611 19.3903 833.594 19.62 833.594 19.854Z" fill="white"/>
<rect x="735" y="1" width="56" height="32" fill="url(#paint6_linear_1196_12584)"/>
<path d="M743.377 22.688V20.907C743.758 21.0717 744.096 21.193 744.391 21.271C744.694 21.349 744.98 21.388 745.249 21.388C746.194 21.388 746.666 20.933 746.666 20.023V15.239L744.937 14.68V13.549H748.694V20.205C748.694 21.1497 748.417 21.882 747.862 22.402C747.316 22.922 746.549 23.182 745.561 23.182C745.162 23.182 744.768 23.1387 744.378 23.052C743.997 22.974 743.663 22.8527 743.377 22.688ZM750.268 20.348V16.123H752.244V20.283C752.244 21.1237 752.573 21.544 753.232 21.544C753.526 21.544 753.795 21.453 754.038 21.271C754.289 21.0803 754.484 20.8247 754.623 20.504V16.123H756.599V23H755.312L755.039 21.947C754.406 22.753 753.604 23.156 752.634 23.156C751.871 23.156 751.286 22.9133 750.879 22.428C750.471 21.9427 750.268 21.2493 750.268 20.348ZM758.409 23V14.628L757.694 14.03V13.237H760.385V23H758.409ZM761.971 20.4V18.723H766.001V20.4H761.971ZM766.949 23V21.635L769.315 19.035C769.774 18.5323 770.129 18.125 770.381 17.813C770.641 17.4923 770.823 17.2237 770.927 17.007C771.031 16.7817 771.083 16.5737 771.083 16.383C771.083 15.5943 770.584 15.2 769.588 15.2C768.886 15.2 768.088 15.4383 767.196 15.915V14.173C767.603 13.965 768.041 13.8047 768.509 13.692C768.985 13.5707 769.449 13.51 769.9 13.51C770.905 13.51 771.685 13.7397 772.24 14.199C772.794 14.6583 773.072 15.3127 773.072 16.162C773.072 16.5087 773.002 16.8553 772.864 17.202C772.725 17.5487 772.495 17.9387 772.175 18.372C771.863 18.7967 771.438 19.308 770.901 19.906L769.588 21.349H773.098V23H766.949ZM780.954 19.789C780.954 20.4737 780.811 21.0717 780.525 21.583C780.248 22.0857 779.849 22.4757 779.329 22.753C778.818 23.0303 778.211 23.169 777.509 23.169C776.435 23.169 775.59 22.8657 774.974 22.259C774.368 21.6523 774.064 20.8117 774.064 19.737C774.064 19.1477 774.194 18.5107 774.454 17.826C774.723 17.1413 775.1 16.4653 775.585 15.798L777.119 13.679H779.277L777.587 16.006C777.336 16.3613 777.119 16.6863 776.937 16.981C777.284 16.7903 777.67 16.695 778.094 16.695C778.978 16.695 779.676 16.9723 780.187 17.527C780.699 18.0817 780.954 18.8357 780.954 19.789ZM775.988 19.854C775.988 20.3913 776.123 20.8117 776.391 21.115C776.66 21.4183 777.033 21.57 777.509 21.57C777.977 21.57 778.346 21.414 778.614 21.102C778.892 20.79 779.03 20.3653 779.03 19.828C779.03 19.3253 778.905 18.9267 778.653 18.632C778.402 18.3287 778.064 18.177 777.639 18.177C776.929 18.177 776.396 18.5063 776.04 19.165C776.006 19.3903 775.988 19.62 775.988 19.854Z" fill="white"/>
<rect x="623" y="1" width="56" height="32" fill="url(#paint7_linear_1196_12584)"/>
<path d="M631.377 22.688V20.907C631.758 21.0717 632.096 21.193 632.391 21.271C632.694 21.349 632.98 21.388 633.249 21.388C634.194 21.388 634.666 20.933 634.666 20.023V15.239L632.937 14.68V13.549H636.694V20.205C636.694 21.1497 636.417 21.882 635.862 22.402C635.316 22.922 634.549 23.182 633.561 23.182C633.162 23.182 632.768 23.1387 632.378 23.052C631.997 22.974 631.663 22.8527 631.377 22.688ZM642.649 23L642.389 22.038C642.155 22.3847 641.847 22.6577 641.466 22.857C641.093 23.0563 640.677 23.156 640.218 23.156C639.507 23.156 638.944 22.961 638.528 22.571C638.12 22.181 637.917 21.6437 637.917 20.959C637.917 20.2397 638.19 19.672 638.736 19.256C639.282 18.84 640.018 18.632 640.946 18.632H642.077V18.385C642.077 18.0037 641.981 17.7567 641.791 17.644C641.6 17.5313 641.301 17.475 640.894 17.475C640.166 17.475 639.381 17.6397 638.541 17.969V16.474C638.887 16.3267 639.29 16.2053 639.75 16.11C640.218 16.0147 640.69 15.967 641.167 15.967C642.068 15.967 642.753 16.175 643.221 16.591C643.697 16.9983 643.936 17.5877 643.936 18.359V23H642.649ZM640.725 21.713C641.011 21.713 641.275 21.6393 641.518 21.492C641.76 21.3447 641.96 21.1453 642.116 20.894V19.776H641.193C640.742 19.776 640.391 19.8627 640.14 20.036C639.897 20.2093 639.776 20.4563 639.776 20.777C639.776 21.401 640.092 21.713 640.725 21.713ZM645.582 23V16.123H646.869L647.142 17.176C647.774 16.37 648.593 15.967 649.599 15.967C650.387 15.967 650.99 16.2097 651.406 16.695C651.822 17.1717 652.03 17.865 652.03 18.775V23H650.054V18.84C650.054 17.9993 649.703 17.579 649.001 17.579C648.689 17.579 648.403 17.67 648.143 17.852C647.891 18.034 647.696 18.2897 647.558 18.619V23H645.582ZM653.551 20.4V18.723H657.581V20.4H653.551ZM658.529 23V21.635L660.895 19.035C661.354 18.5323 661.709 18.125 661.961 17.813C662.221 17.4923 662.403 17.2237 662.507 17.007C662.611 16.7817 662.663 16.5737 662.663 16.383C662.663 15.5943 662.164 15.2 661.168 15.2C660.466 15.2 659.668 15.4383 658.776 15.915V14.173C659.183 13.965 659.621 13.8047 660.089 13.692C660.565 13.5707 661.029 13.51 661.48 13.51C662.485 13.51 663.265 13.7397 663.82 14.199C664.374 14.6583 664.652 15.3127 664.652 16.162C664.652 16.5087 664.582 16.8553 664.444 17.202C664.305 17.5487 664.075 17.9387 663.755 18.372C663.443 18.7967 663.018 19.308 662.481 19.906L661.168 21.349H664.678V23H658.529ZM672.534 19.789C672.534 20.4737 672.391 21.0717 672.105 21.583C671.828 22.0857 671.429 22.4757 670.909 22.753C670.398 23.0303 669.791 23.169 669.089 23.169C668.015 23.169 667.17 22.8657 666.554 22.259C665.948 21.6523 665.644 20.8117 665.644 19.737C665.644 19.1477 665.774 18.5107 666.034 17.826C666.303 17.1413 666.68 16.4653 667.165 15.798L668.699 13.679H670.857L669.167 16.006C668.916 16.3613 668.699 16.6863 668.517 16.981C668.864 16.7903 669.25 16.695 669.674 16.695C670.558 16.695 671.256 16.9723 671.767 17.527C672.279 18.0817 672.534 18.8357 672.534 19.789ZM667.568 19.854C667.568 20.3913 667.703 20.8117 667.971 21.115C668.24 21.4183 668.613 21.57 669.089 21.57C669.557 21.57 669.926 21.414 670.194 21.102C670.472 20.79 670.61 20.3653 670.61 19.828C670.61 19.3253 670.485 18.9267 670.233 18.632C669.982 18.3287 669.644 18.177 669.219 18.177C668.509 18.177 667.976 18.5063 667.62 19.165C667.586 19.3903 667.568 19.62 667.568 19.854Z" fill="white"/>
<rect x="343" y="1" width="56" height="32" fill="url(#paint8_linear_1196_12584)"/>
<path d="M351.091 23L354.679 13.549H356.642L360.256 23H357.994L357.37 21.063H353.886L353.262 23H351.091ZM354.432 19.347H356.811L355.615 15.629L354.432 19.347ZM361.202 25.613V16.123H362.489L362.762 17.137C363.316 16.357 364.036 15.967 364.92 15.967C365.821 15.967 366.532 16.2877 367.052 16.929C367.572 17.5617 367.832 18.437 367.832 19.555C367.832 20.6903 367.576 21.5743 367.065 22.207C366.562 22.8397 365.851 23.156 364.933 23.156C364.248 23.156 363.663 22.9263 363.178 22.467V25.613H361.202ZM364.504 17.41C364.235 17.41 363.979 17.4793 363.737 17.618C363.503 17.748 363.308 17.9257 363.152 18.151V21.089C363.498 21.505 363.945 21.713 364.491 21.713C364.924 21.713 365.258 21.531 365.492 21.167C365.726 20.7943 365.843 20.2613 365.843 19.568C365.843 18.8747 365.726 18.3417 365.492 17.969C365.266 17.5963 364.937 17.41 364.504 17.41ZM362.892 18.71L362.97 18.502C362.935 18.5713 362.909 18.6407 362.892 18.71ZM371.176 23H369.2V16.123H370.487L370.76 17.137C370.985 16.8077 371.267 16.552 371.605 16.37C371.943 16.1793 372.333 16.084 372.775 16.084C372.965 16.084 373.13 16.097 373.269 16.123V17.904H372.853C372.411 17.904 372.042 18.021 371.748 18.255C371.453 18.4803 371.262 18.7837 371.176 19.165V23ZM374.402 20.4V18.723H378.432V20.4H374.402ZM379.379 23V21.635L381.745 19.035C382.205 18.5323 382.56 18.125 382.811 17.813C383.071 17.4923 383.253 17.2237 383.357 17.007C383.461 16.7817 383.513 16.5737 383.513 16.383C383.513 15.5943 383.015 15.2 382.018 15.2C381.316 15.2 380.519 15.4383 379.626 15.915V14.173C380.034 13.965 380.471 13.8047 380.939 13.692C381.416 13.5707 381.88 13.51 382.33 13.51C383.336 13.51 384.116 13.7397 384.67 14.199C385.225 14.6583 385.502 15.3127 385.502 16.162C385.502 16.5087 385.433 16.8553 385.294 17.202C385.156 17.5487 384.926 17.9387 384.605 18.372C384.293 18.7967 383.869 19.308 383.331 19.906L382.018 21.349H385.528V23H379.379ZM386.651 22.584V20.855C387.032 21.0457 387.457 21.1973 387.925 21.31C388.402 21.414 388.861 21.466 389.303 21.466C389.858 21.466 390.295 21.336 390.616 21.076C390.937 20.816 391.097 20.4607 391.097 20.01C391.097 19.5767 390.963 19.2387 390.694 18.996C390.434 18.7533 390.061 18.632 389.576 18.632C389.013 18.632 388.436 18.762 387.847 19.022L386.703 18.125L387.249 13.679H392.384V15.33H388.705L388.471 17.358C388.913 17.202 389.364 17.124 389.823 17.124C390.785 17.124 391.543 17.384 392.098 17.904C392.653 18.4153 392.93 19.1217 392.93 20.023C392.93 20.6557 392.787 21.2103 392.501 21.687C392.215 22.155 391.808 22.519 391.279 22.779C390.759 23.039 390.148 23.169 389.446 23.169C388.909 23.169 388.393 23.117 387.899 23.013C387.414 22.909 386.998 22.766 386.651 22.584Z" fill="white"/>
</g>
<defs>
<linearGradient id="paint0_linear_1196_12584" x1="231" y1="68" x2="287" y2="68" gradientUnits="userSpaceOnUse">
<stop stop-color="#137BFB"/>
<stop offset="1" stop-color="#03A4DE"/>
</linearGradient>
<linearGradient id="paint1_linear_1196_12584" x1="287" y1="100" x2="679" y2="100" gradientUnits="userSpaceOnUse">
<stop stop-color="#F77567"/>
<stop offset="0.261288" stop-color="#F68537"/>
</linearGradient>
<linearGradient id="paint2_linear_1196_12584" x1="399" y1="152" x2="455" y2="152" gradientUnits="userSpaceOnUse">
<stop stop-color="#137BFB"/>
<stop offset="1" stop-color="#03A4DE"/>
</linearGradient>
<linearGradient id="paint3_linear_1196_12584" x1="455" y1="184" x2="791" y2="184" gradientUnits="userSpaceOnUse">
<stop stop-color="#F77567"/>
<stop offset="0.261147" stop-color="#F68537"/>
</linearGradient>
<linearGradient id="paint4_linear_1196_12584" x1="511" y1="236" x2="567" y2="236" gradientUnits="userSpaceOnUse">
<stop stop-color="#137BFB"/>
<stop offset="1" stop-color="#03A4DE"/>
</linearGradient>
<linearGradient id="paint5_linear_1196_12584" x1="567" y1="268" x2="847" y2="268" gradientUnits="userSpaceOnUse">
<stop stop-color="#F77567"/>
<stop offset="0.247104" stop-color="#F68537"/>
</linearGradient>
<linearGradient id="paint6_linear_1196_12584" x1="735" y1="17" x2="791" y2="17" gradientUnits="userSpaceOnUse">
<stop stop-color="#5D68DB"/>
<stop offset="1" stop-color="#8B79E4"/>
</linearGradient>
<linearGradient id="paint7_linear_1196_12584" x1="623" y1="17" x2="679" y2="17" gradientUnits="userSpaceOnUse">
<stop stop-color="#5D68DB"/>
<stop offset="1" stop-color="#8B79E4"/>
</linearGradient>
<linearGradient id="paint8_linear_1196_12584" x1="343" y1="17" x2="399" y2="17" gradientUnits="userSpaceOnUse">
<stop stop-color="#5D68DB"/>
<stop offset="1" stop-color="#8B79E4"/>
</linearGradient>
<clipPath id="clip0_1196_12584">
<rect width="848" height="299" fill="white"/>
</clipPath>
<clipPath id="clip1_1196_12584">
<rect width="20" height="20" fill="white" transform="translate(651 90)"/>
</clipPath>
<clipPath id="clip2_1196_12584">
<rect width="20" height="20" fill="white" transform="translate(651 90)"/>
</clipPath>
<clipPath id="clip3_1196_12584">
<rect width="20" height="20" fill="white" transform="translate(763 174)"/>
</clipPath>
<clipPath id="clip4_1196_12584">
<rect width="20" height="20" fill="white" transform="translate(763 174)"/>
</clipPath>
<clipPath id="clip5_1196_12584">
<rect width="20" height="20" fill="white" transform="translate(819 258)"/>
</clipPath>
<clipPath id="clip6_1196_12584">
<rect width="20" height="20" fill="white" transform="translate(819 258)"/>
</clipPath>
</defs>
</svg>
