<svg width="736" height="307" viewBox="0 0 736 307" fill="none" xmlns="http://www.w3.org/2000/svg">
<g clip-path="url(#clip0_1284_12268)">
<rect width="736" height="307" rx="6" fill="#1E2631"/>
<rect x="0.5" y="0.5" width="735" height="306" rx="5.5" fill="#1E2631" stroke="white"/>
<line x1="287.5" y1="2.18557e-08" x2="287.5" y2="256" stroke="white" stroke-opacity="0.6"/>
<line x1="343.5" y1="2.18557e-08" x2="343.5" y2="256" stroke="white" stroke-opacity="0.6"/>
<line x1="399.5" y1="2.18557e-08" x2="399.5" y2="256" stroke="white" stroke-opacity="0.6"/>
<line x1="455.5" y1="2.18557e-08" x2="455.5" y2="256" stroke="white" stroke-opacity="0.6"/>
<line x1="511.5" y1="2.18557e-08" x2="511.5" y2="256" stroke="white" stroke-opacity="0.6"/>
<line x1="567.5" y1="2.18557e-08" x2="567.5" y2="256" stroke="white" stroke-opacity="0.6"/>
<line x1="623.5" y1="2.18557e-08" x2="623.5" y2="256" stroke="white" stroke-opacity="0.6"/>
<line x1="679.5" y1="2.18557e-08" x2="679.5" y2="256" stroke="white" stroke-opacity="0.6"/>
<rect x="287" y="65" width="281" height="32" fill="url(#paint0_linear_1284_12268)"/>
<rect x="21" y="275" width="31" height="12" rx="6" fill="url(#paint1_linear_1284_12268)"/>
<g clip-path="url(#clip1_1284_12268)">
<g clip-path="url(#clip2_1284_12268)">
<path d="M541.211 82.0007H552.381L547.501 86.8807C547.111 87.2707 547.111 87.9107 547.501 88.3007C547.891 88.6907 548.521 88.6907 548.911 88.3007L555.501 81.7107C555.891 81.3207 555.891 80.6907 555.501 80.3007L548.921 73.7007C548.734 73.5134 548.48 73.4082 548.216 73.4082C547.951 73.4082 547.698 73.5134 547.511 73.7007C547.121 74.0907 547.121 74.7207 547.511 75.1107L552.381 80.0007H541.211C540.661 80.0007 540.211 80.4507 540.211 81.0007C540.211 81.5507 540.661 82.0007 541.211 82.0007Z" fill="white"/>
<path d="M557 74C557 73.4477 557.448 73 558 73V73C558.552 73 559 73.4477 559 74V88C559 88.5523 558.552 89 558 89V89C557.448 89 557 88.5523 557 88V74Z" fill="white"/>
</g>
</g>
<path d="M27.272 82.056V80.712H31.576V86.424C30.424 86.9573 29.1333 87.224 27.704 87.224C25.7413 87.224 24.2533 86.7013 23.24 85.656C22.2373 84.6107 21.736 83.0747 21.736 81.048C21.736 79.8 21.9813 78.7387 22.472 77.864C22.9733 76.9787 23.688 76.3067 24.616 75.848C25.5547 75.3787 26.6853 75.144 28.008 75.144C28.4987 75.144 28.984 75.1867 29.464 75.272C29.9547 75.3573 30.4133 75.4853 30.84 75.656V77.768C30.296 77.5973 29.8107 77.48 29.384 77.416C28.9573 77.3413 28.5307 77.304 28.104 77.304C26.8773 77.304 25.9333 77.6293 25.272 78.28C24.6213 78.92 24.296 79.8427 24.296 81.048C24.296 82.392 24.5787 83.4 25.144 84.072C25.72 84.7333 26.5947 85.064 27.768 85.064C28.2693 85.064 28.76 85.032 29.24 84.968V82.712L27.272 82.056ZM33.4641 87V75.368H37.3681C39.2668 75.368 40.7015 75.8587 41.6721 76.84C42.6428 77.8213 43.1281 79.272 43.1281 81.192C43.1281 83.0907 42.6428 84.536 41.6721 85.528C40.7121 86.5093 39.2775 87 37.3681 87H33.4641ZM37.3361 77.4H35.9601V84.968H37.3361C38.4135 84.968 39.2135 84.664 39.7361 84.056C40.2695 83.4373 40.5361 82.4827 40.5361 81.192C40.5361 79.9013 40.2748 78.9467 39.7521 78.328C39.2295 77.7093 38.4241 77.4 37.3361 77.4ZM44.9016 87V75.368H47.3976V80.264L51.4136 75.368H54.3576L49.9416 80.52L54.8216 87H51.7176L48.1176 82.12H47.3976V87H44.9016ZM60.4933 87V80.36H59.0053V79.144L60.4933 78.536V78.056C60.4933 75.9227 61.5386 74.856 63.6293 74.856C63.8533 74.856 64.0399 74.8613 64.1893 74.872C64.3493 74.8827 64.4986 74.904 64.6373 74.936V76.808C64.5733 76.7973 64.5039 76.792 64.4293 76.792C64.3653 76.7813 64.2906 76.776 64.2053 76.776C63.7466 76.776 63.4159 76.872 63.2133 77.064C63.0213 77.256 62.9253 77.576 62.9253 78.024V78.536H64.7013V80.36H62.9253V87H60.4933ZM69.7226 87.192C68.4 87.192 67.3653 86.8027 66.6186 86.024C65.8826 85.2453 65.5146 84.1573 65.5146 82.76C65.5146 81.3627 65.8826 80.28 66.6186 79.512C67.3653 78.7333 68.4 78.344 69.7226 78.344C71.056 78.344 72.0906 78.7333 72.8266 79.512C73.5626 80.28 73.9306 81.3627 73.9306 82.76C73.9306 84.1573 73.5626 85.2453 72.8266 86.024C72.0906 86.8027 71.056 87.192 69.7226 87.192ZM69.7226 85.352C70.896 85.352 71.4826 84.488 71.4826 82.76C71.4826 81.0427 70.896 80.184 69.7226 80.184C68.5493 80.184 67.9626 81.0427 67.9626 82.76C67.9626 84.488 68.5493 85.352 69.7226 85.352ZM78.0349 87H75.6029V78.536H77.1869L77.5229 79.784C77.8002 79.3787 78.1469 79.064 78.5629 78.84C78.9789 78.6053 79.4589 78.488 80.0029 78.488C80.2375 78.488 80.4402 78.504 80.6109 78.536V80.728H80.0989C79.5549 80.728 79.1015 80.872 78.7389 81.16C78.3762 81.4373 78.1415 81.8107 78.0349 82.28V87ZM86.1673 87V75.368H88.7753L92.4713 83.032L96.1193 75.368H98.7273V87H96.2633V79.464L93.1913 85.88H91.6553L88.5833 79.56V87H86.1673ZM100.771 77.048V75.176H103.459V77.048H100.771ZM101.027 87V80.248L100.147 79.512V78.536H103.459V87H101.027ZM111.892 84.84V86.744C111.561 86.872 111.172 86.9787 110.724 87.064C110.276 87.1493 109.817 87.192 109.348 87.192C106.542 87.192 105.14 85.688 105.14 82.68C105.14 81.336 105.524 80.28 106.292 79.512C107.07 78.7333 108.137 78.344 109.492 78.344C110.228 78.344 110.948 78.4667 111.652 78.712V80.584C111.129 80.3173 110.553 80.184 109.924 80.184C109.177 80.184 108.601 80.392 108.196 80.808C107.79 81.2133 107.588 81.8373 107.588 82.68C107.588 83.4907 107.764 84.136 108.116 84.616C108.478 85.0853 109.006 85.32 109.7 85.32C110.041 85.32 110.393 85.2773 110.756 85.192C111.118 85.1067 111.497 84.9893 111.892 84.84ZM115.91 87H113.478V78.536H115.062L115.398 79.784C115.675 79.3787 116.022 79.064 116.438 78.84C116.854 78.6053 117.334 78.488 117.878 78.488C118.113 78.488 118.315 78.504 118.486 78.536V80.728H117.974C117.43 80.728 116.977 80.872 116.614 81.16C116.251 81.4373 116.017 81.8107 115.91 82.28V87ZM123.566 87.192C122.244 87.192 121.209 86.8027 120.462 86.024C119.726 85.2453 119.358 84.1573 119.358 82.76C119.358 81.3627 119.726 80.28 120.462 79.512C121.209 78.7333 122.244 78.344 123.566 78.344C124.9 78.344 125.934 78.7333 126.67 79.512C127.406 80.28 127.774 81.3627 127.774 82.76C127.774 84.1573 127.406 85.2453 126.67 86.024C125.934 86.8027 124.9 87.192 123.566 87.192ZM123.566 85.352C124.74 85.352 125.326 84.488 125.326 82.76C125.326 81.0427 124.74 80.184 123.566 80.184C122.393 80.184 121.806 81.0427 121.806 82.76C121.806 84.488 122.393 85.352 123.566 85.352ZM129.447 87V78.536H131.031L131.367 79.832C132.145 78.84 133.153 78.344 134.391 78.344C135.361 78.344 136.103 78.6427 136.615 79.24C137.127 79.8267 137.383 80.68 137.383 81.8V87H134.951V81.88C134.951 80.8453 134.519 80.328 133.655 80.328C133.271 80.328 132.919 80.44 132.599 80.664C132.289 80.888 132.049 81.2027 131.879 81.608V87H129.447ZM144.727 87L144.407 85.816C144.119 86.2427 143.741 86.5787 143.271 86.824C142.813 87.0693 142.301 87.192 141.735 87.192C140.861 87.192 140.167 86.952 139.655 86.472C139.154 85.992 138.903 85.3307 138.903 84.488C138.903 83.6027 139.239 82.904 139.911 82.392C140.583 81.88 141.49 81.624 142.631 81.624H144.023V81.32C144.023 80.8507 143.906 80.5467 143.671 80.408C143.437 80.2693 143.069 80.2 142.567 80.2C141.671 80.2 140.706 80.4027 139.671 80.808V78.968C140.098 78.7867 140.594 78.6373 141.159 78.52C141.735 78.4027 142.317 78.344 142.903 78.344C144.013 78.344 144.855 78.6 145.431 79.112C146.018 79.6133 146.311 80.3387 146.311 81.288V87H144.727ZM142.359 85.416C142.711 85.416 143.037 85.3253 143.335 85.144C143.634 84.9627 143.879 84.7173 144.071 84.408V83.032H142.935C142.381 83.032 141.949 83.1387 141.639 83.352C141.341 83.5653 141.191 83.8693 141.191 84.264C141.191 85.032 141.581 85.416 142.359 85.416ZM148.257 83.736V78.536H150.689V83.656C150.689 84.6907 151.095 85.208 151.905 85.208C152.268 85.208 152.599 85.096 152.897 84.872C153.207 84.6373 153.447 84.3227 153.617 83.928V78.536H156.049V87H154.465L154.129 85.704C153.351 86.696 152.364 87.192 151.169 87.192C150.231 87.192 149.511 86.8933 149.009 86.296C148.508 85.6987 148.257 84.8453 148.257 83.736ZM158.597 84.088V80.36H157.109V79.144L158.709 78.488L159.429 76.104H161.029V78.536H162.837V80.36H161.029V83.96C161.029 84.376 161.131 84.6747 161.333 84.856C161.547 85.0267 161.851 85.112 162.245 85.112C162.352 85.112 162.469 85.112 162.597 85.112C162.725 85.1013 162.837 85.0907 162.933 85.08V87.016C162.677 87.0587 162.443 87.0853 162.229 87.096C162.027 87.1067 161.797 87.112 161.541 87.112C160.571 87.112 159.835 86.8667 159.333 86.376C158.843 85.8853 158.597 85.1227 158.597 84.088ZM167.792 84.824V82.904L173.296 75.528H175.52V82.744H177.12V84.824H175.52V87H173.152V84.824H167.792ZM173.216 82.136V78.84L170.368 82.744H173.168L173.216 82.136ZM178.38 87V84.664H181.036V87H178.38ZM182.797 87L186.925 77.608H183.453L182.765 79.4H181.293V75.528H189.533V77.192L185.517 87H182.797ZM189.161 87V84.664H191.817V87H189.161ZM193.384 86.488V84.36C193.821 84.5947 194.328 84.7813 194.904 84.92C195.48 85.048 196.029 85.112 196.552 85.112C197.309 85.112 197.89 84.9573 198.296 84.648C198.701 84.3387 198.904 83.896 198.904 83.32C198.904 82.776 198.744 82.3547 198.424 82.056C198.114 81.7573 197.656 81.608 197.048 81.608C196.493 81.608 195.949 81.7093 195.416 81.912L194.632 80.6L197.512 77.56H193.592V75.528H200.68V77.176L197.928 79.992C198.962 80.1093 199.757 80.472 200.312 81.08C200.877 81.6773 201.16 82.4293 201.16 83.336C201.16 84.136 200.978 84.8293 200.616 85.416C200.253 85.992 199.73 86.4347 199.048 86.744C198.376 87.0533 197.576 87.208 196.648 87.208C196.04 87.208 195.453 87.144 194.888 87.016C194.322 86.8987 193.821 86.7227 193.384 86.488ZM206.636 87V75.368H209.132V84.776H214.252V87H206.636ZM216.765 87V77.48H213.325V75.368H222.701V77.48H219.261V87H216.765ZM224.002 86.584V84.36C225.229 84.8187 226.408 85.048 227.538 85.048C228.21 85.048 228.738 84.936 229.122 84.712C229.506 84.488 229.698 84.1787 229.698 83.784C229.698 83.5067 229.576 83.2773 229.33 83.096C229.085 82.904 228.61 82.6907 227.906 82.456L226.69 82.04C225.698 81.6987 224.973 81.2613 224.514 80.728C224.066 80.184 223.842 79.4907 223.842 78.648C223.842 77.9227 224.024 77.2987 224.386 76.776C224.76 76.2533 225.282 75.8533 225.954 75.576C226.626 75.288 227.426 75.144 228.354 75.144C228.941 75.144 229.517 75.2027 230.082 75.32C230.658 75.4267 231.16 75.576 231.586 75.768V77.992C231.042 77.7787 230.488 77.6187 229.922 77.512C229.357 77.3947 228.834 77.336 228.354 77.336C227.032 77.336 226.37 77.7253 226.37 78.504C226.37 78.8027 226.493 79.048 226.738 79.24C226.994 79.4213 227.469 79.6293 228.162 79.864L229.378 80.28C230.424 80.6427 231.165 81.0853 231.602 81.608C232.04 82.12 232.258 82.8187 232.258 83.704C232.258 84.792 231.869 85.6507 231.09 86.28C230.322 86.9093 229.234 87.224 227.826 87.224C227.368 87.224 226.888 87.1973 226.386 87.144C225.896 87.0907 225.437 87.016 225.01 86.92C224.594 86.824 224.258 86.712 224.002 86.584Z" fill="white"/>
<rect x="399" y="129" width="112" height="32" fill="url(#paint2_linear_1284_12268)"/>
<g clip-path="url(#clip3_1284_12268)">
<g clip-path="url(#clip4_1284_12268)">
<path d="M485.211 146.001H496.381L491.501 150.881C491.111 151.271 491.111 151.911 491.501 152.301C491.891 152.691 492.521 152.691 492.911 152.301L499.501 145.711C499.891 145.321 499.891 144.691 499.501 144.301L492.921 137.701C492.734 137.513 492.48 137.408 492.216 137.408C491.951 137.408 491.698 137.513 491.511 137.701C491.121 138.091 491.121 138.721 491.511 139.111L496.381 144.001H485.211C484.661 144.001 484.211 144.451 484.211 145.001C484.211 145.551 484.661 146.001 485.211 146.001Z" fill="white"/>
<path d="M501 138C501 137.448 501.448 137 502 137V137C502.552 137 503 137.448 503 138V152C503 152.552 502.552 153 502 153V153C501.448 153 501 152.552 501 152V138Z" fill="white"/>
</g>
</g>
<path d="M26.272 146.056V144.712H30.576V150.424C29.424 150.957 28.1333 151.224 26.704 151.224C24.7413 151.224 23.2533 150.701 22.24 149.656C21.2373 148.611 20.736 147.075 20.736 145.048C20.736 143.8 20.9813 142.739 21.472 141.864C21.9733 140.979 22.688 140.307 23.616 139.848C24.5547 139.379 25.6853 139.144 27.008 139.144C27.4987 139.144 27.984 139.187 28.464 139.272C28.9547 139.357 29.4133 139.485 29.84 139.656V141.768C29.296 141.597 28.8107 141.48 28.384 141.416C27.9573 141.341 27.5307 141.304 27.104 141.304C25.8773 141.304 24.9333 141.629 24.272 142.28C23.6213 142.92 23.296 143.843 23.296 145.048C23.296 146.392 23.5787 147.4 24.144 148.072C24.72 148.733 25.5947 149.064 26.768 149.064C27.2693 149.064 27.76 149.032 28.24 148.968V146.712L26.272 146.056ZM32.4641 151V139.368H36.3681C38.2668 139.368 39.7015 139.859 40.6721 140.84C41.6428 141.821 42.1281 143.272 42.1281 145.192C42.1281 147.091 41.6428 148.536 40.6721 149.528C39.7121 150.509 38.2775 151 36.3681 151H32.4641ZM36.3361 141.4H34.9601V148.968H36.3361C37.4135 148.968 38.2135 148.664 38.7361 148.056C39.2695 147.437 39.5361 146.483 39.5361 145.192C39.5361 143.901 39.2748 142.947 38.7521 142.328C38.2295 141.709 37.4241 141.4 36.3361 141.4ZM43.9016 151V139.368H46.3976V144.264L50.4136 139.368H53.3576L48.9416 144.52L53.8216 151H50.7176L47.1176 146.12H46.3976V151H43.9016ZM59.4933 151V144.36H58.0053V143.144L59.4933 142.536V142.056C59.4933 139.923 60.5386 138.856 62.6293 138.856C62.8533 138.856 63.0399 138.861 63.1893 138.872C63.3493 138.883 63.4986 138.904 63.6373 138.936V140.808C63.5733 140.797 63.5039 140.792 63.4293 140.792C63.3653 140.781 63.2906 140.776 63.2053 140.776C62.7466 140.776 62.4159 140.872 62.2133 141.064C62.0213 141.256 61.9253 141.576 61.9253 142.024V142.536H63.7013V144.36H61.9253V151H59.4933ZM68.7226 151.192C67.4 151.192 66.3653 150.803 65.6186 150.024C64.8826 149.245 64.5146 148.157 64.5146 146.76C64.5146 145.363 64.8826 144.28 65.6186 143.512C66.3653 142.733 67.4 142.344 68.7226 142.344C70.056 142.344 71.0906 142.733 71.8266 143.512C72.5626 144.28 72.9306 145.363 72.9306 146.76C72.9306 148.157 72.5626 149.245 71.8266 150.024C71.0906 150.803 70.056 151.192 68.7226 151.192ZM68.7226 149.352C69.896 149.352 70.4826 148.488 70.4826 146.76C70.4826 145.043 69.896 144.184 68.7226 144.184C67.5493 144.184 66.9626 145.043 66.9626 146.76C66.9626 148.488 67.5493 149.352 68.7226 149.352ZM77.0349 151H74.6029V142.536H76.1869L76.5229 143.784C76.8002 143.379 77.1469 143.064 77.5629 142.84C77.9789 142.605 78.4589 142.488 79.0029 142.488C79.2375 142.488 79.4402 142.504 79.6109 142.536V144.728H79.0989C78.5549 144.728 78.1015 144.872 77.7389 145.16C77.3762 145.437 77.1415 145.811 77.0349 146.28V151ZM85.1673 151V139.368H87.7753L91.4713 147.032L95.1193 139.368H97.7273V151H95.2633V143.464L92.1913 149.88H90.6553L87.5833 143.56V151H85.1673ZM99.7714 141.048V139.176H102.459V141.048H99.7714ZM100.027 151V144.248L99.1474 143.512V142.536H102.459V151H100.027ZM110.892 148.84V150.744C110.561 150.872 110.172 150.979 109.724 151.064C109.276 151.149 108.817 151.192 108.348 151.192C105.542 151.192 104.14 149.688 104.14 146.68C104.14 145.336 104.524 144.28 105.292 143.512C106.07 142.733 107.137 142.344 108.492 142.344C109.228 142.344 109.948 142.467 110.652 142.712V144.584C110.129 144.317 109.553 144.184 108.924 144.184C108.177 144.184 107.601 144.392 107.196 144.808C106.79 145.213 106.588 145.837 106.588 146.68C106.588 147.491 106.764 148.136 107.116 148.616C107.478 149.085 108.006 149.32 108.7 149.32C109.041 149.32 109.393 149.277 109.756 149.192C110.118 149.107 110.497 148.989 110.892 148.84ZM114.91 151H112.478V142.536H114.062L114.398 143.784C114.675 143.379 115.022 143.064 115.438 142.84C115.854 142.605 116.334 142.488 116.878 142.488C117.113 142.488 117.315 142.504 117.486 142.536V144.728H116.974C116.43 144.728 115.977 144.872 115.614 145.16C115.251 145.437 115.017 145.811 114.91 146.28V151ZM122.566 151.192C121.244 151.192 120.209 150.803 119.462 150.024C118.726 149.245 118.358 148.157 118.358 146.76C118.358 145.363 118.726 144.28 119.462 143.512C120.209 142.733 121.244 142.344 122.566 142.344C123.9 142.344 124.934 142.733 125.67 143.512C126.406 144.28 126.774 145.363 126.774 146.76C126.774 148.157 126.406 149.245 125.67 150.024C124.934 150.803 123.9 151.192 122.566 151.192ZM122.566 149.352C123.74 149.352 124.326 148.488 124.326 146.76C124.326 145.043 123.74 144.184 122.566 144.184C121.393 144.184 120.806 145.043 120.806 146.76C120.806 148.488 121.393 149.352 122.566 149.352ZM128.447 151V142.536H130.031L130.367 143.832C131.145 142.84 132.153 142.344 133.391 142.344C134.361 142.344 135.103 142.643 135.615 143.24C136.127 143.827 136.383 144.68 136.383 145.8V151H133.951V145.88C133.951 144.845 133.519 144.328 132.655 144.328C132.271 144.328 131.919 144.44 131.599 144.664C131.289 144.888 131.049 145.203 130.879 145.608V151H128.447ZM143.727 151L143.407 149.816C143.119 150.243 142.741 150.579 142.271 150.824C141.813 151.069 141.301 151.192 140.735 151.192C139.861 151.192 139.167 150.952 138.655 150.472C138.154 149.992 137.903 149.331 137.903 148.488C137.903 147.603 138.239 146.904 138.911 146.392C139.583 145.88 140.49 145.624 141.631 145.624H143.023V145.32C143.023 144.851 142.906 144.547 142.671 144.408C142.437 144.269 142.069 144.2 141.567 144.2C140.671 144.2 139.706 144.403 138.671 144.808V142.968C139.098 142.787 139.594 142.637 140.159 142.52C140.735 142.403 141.317 142.344 141.903 142.344C143.013 142.344 143.855 142.6 144.431 143.112C145.018 143.613 145.311 144.339 145.311 145.288V151H143.727ZM141.359 149.416C141.711 149.416 142.037 149.325 142.335 149.144C142.634 148.963 142.879 148.717 143.071 148.408V147.032H141.935C141.381 147.032 140.949 147.139 140.639 147.352C140.341 147.565 140.191 147.869 140.191 148.264C140.191 149.032 140.581 149.416 141.359 149.416ZM147.257 147.736V142.536H149.689V147.656C149.689 148.691 150.095 149.208 150.905 149.208C151.268 149.208 151.599 149.096 151.897 148.872C152.207 148.637 152.447 148.323 152.617 147.928V142.536H155.049V151H153.465L153.129 149.704C152.351 150.696 151.364 151.192 150.169 151.192C149.231 151.192 148.511 150.893 148.009 150.296C147.508 149.699 147.257 148.845 147.257 147.736ZM157.597 148.088V144.36H156.109V143.144L157.709 142.488L158.429 140.104H160.029V142.536H161.837V144.36H160.029V147.96C160.029 148.376 160.131 148.675 160.333 148.856C160.547 149.027 160.851 149.112 161.245 149.112C161.352 149.112 161.469 149.112 161.597 149.112C161.725 149.101 161.837 149.091 161.933 149.08V151.016C161.677 151.059 161.443 151.085 161.229 151.096C161.027 151.107 160.797 151.112 160.541 151.112C159.571 151.112 158.835 150.867 158.333 150.376C157.843 149.885 157.597 149.123 157.597 148.088ZM166.792 148.824V146.904L172.296 139.528H174.52V146.744H176.12V148.824H174.52V151H172.152V148.824H166.792ZM172.216 146.136V142.84L169.368 146.744H172.168L172.216 146.136ZM177.38 151V148.664H180.036V151H177.38ZM182.268 151L184.332 148.136C184.652 147.699 184.924 147.293 185.148 146.92C184.711 147.165 184.226 147.288 183.692 147.288C182.604 147.288 181.746 146.947 181.116 146.264C180.487 145.581 180.172 144.653 180.172 143.48C180.172 142.637 180.343 141.907 180.684 141.288C181.036 140.659 181.532 140.173 182.172 139.832C182.812 139.491 183.559 139.32 184.412 139.32C185.746 139.32 186.786 139.693 187.532 140.44C188.279 141.176 188.652 142.211 188.652 143.544C188.652 144.259 188.492 145.043 188.172 145.896C187.852 146.739 187.394 147.571 186.796 148.392L184.924 151H182.268ZM182.54 143.432C182.54 144.051 182.695 144.547 183.004 144.92C183.314 145.283 183.73 145.464 184.252 145.464C185.127 145.464 185.783 145.059 186.22 144.248C186.263 143.971 186.284 143.688 186.284 143.4C186.284 142.739 186.119 142.221 185.788 141.848C185.458 141.475 184.999 141.288 184.412 141.288C183.836 141.288 183.378 141.48 183.036 141.864C182.706 142.248 182.54 142.771 182.54 143.432ZM189.021 151V148.664H191.677V151H189.021ZM193.929 151V142.52L191.273 143.416V141.944L194.665 139.528H196.441V151H193.929ZM202.62 151V139.368H204.924L209.948 146.936V139.368H212.412V151H210.108L205.084 143.416V151H202.62ZM218.379 151.192C217.056 151.192 216.022 150.803 215.275 150.024C214.539 149.245 214.171 148.157 214.171 146.76C214.171 145.363 214.539 144.28 215.275 143.512C216.022 142.733 217.056 142.344 218.379 142.344C219.712 142.344 220.747 142.733 221.483 143.512C222.219 144.28 222.587 145.363 222.587 146.76C222.587 148.157 222.219 149.245 221.483 150.024C220.747 150.803 219.712 151.192 218.379 151.192ZM218.379 149.352C219.552 149.352 220.139 148.488 220.139 146.76C220.139 145.043 219.552 144.184 218.379 144.184C217.206 144.184 216.619 145.043 216.619 146.76C216.619 148.488 217.206 149.352 218.379 149.352ZM224.259 151V142.536H225.843L226.179 143.832C226.958 142.84 227.966 142.344 229.203 142.344C230.174 142.344 230.915 142.643 231.427 143.24C231.939 143.827 232.195 144.68 232.195 145.8V151H229.763V145.88C229.763 144.845 229.331 144.328 228.467 144.328C228.083 144.328 227.731 144.44 227.411 144.664C227.102 144.888 226.862 145.203 226.691 145.608V151H224.259ZM234.068 147.8V145.736H239.028V147.8H234.068ZM241.058 151V139.368H243.554V148.776H248.674V151H241.058ZM251.187 151V141.48H247.747V139.368H257.123V141.48H253.683V151H251.187ZM258.424 150.584V148.36C259.651 148.819 260.83 149.048 261.96 149.048C262.632 149.048 263.16 148.936 263.544 148.712C263.928 148.488 264.12 148.179 264.12 147.784C264.12 147.507 263.998 147.277 263.752 147.096C263.507 146.904 263.032 146.691 262.328 146.456L261.112 146.04C260.12 145.699 259.395 145.261 258.936 144.728C258.488 144.184 258.264 143.491 258.264 142.648C258.264 141.923 258.446 141.299 258.808 140.776C259.182 140.253 259.704 139.853 260.376 139.576C261.048 139.288 261.848 139.144 262.776 139.144C263.363 139.144 263.939 139.203 264.504 139.32C265.08 139.427 265.582 139.576 266.008 139.768V141.992C265.464 141.779 264.91 141.619 264.344 141.512C263.779 141.395 263.256 141.336 262.776 141.336C261.454 141.336 260.792 141.725 260.792 142.504C260.792 142.803 260.915 143.048 261.16 143.24C261.416 143.421 261.891 143.629 262.584 143.864L263.8 144.28C264.846 144.643 265.587 145.085 266.024 145.608C266.462 146.12 266.68 146.819 266.68 147.704C266.68 148.792 266.291 149.651 265.512 150.28C264.744 150.909 263.656 151.224 262.248 151.224C261.79 151.224 261.31 151.197 260.808 151.144C260.318 151.091 259.859 151.016 259.432 150.92C259.016 150.824 258.68 150.712 258.424 150.584Z" fill="white"/>
<rect x="456" y="193" width="279" height="32" fill="url(#paint3_linear_1284_12268)"/>
<g clip-path="url(#clip5_1284_12268)">
<g clip-path="url(#clip6_1284_12268)">
<path d="M709.211 210.001H720.381L715.501 214.881C715.111 215.271 715.111 215.911 715.501 216.301C715.891 216.691 716.521 216.691 716.911 216.301L723.501 209.711C723.891 209.321 723.891 208.691 723.501 208.301L716.921 201.701C716.734 201.513 716.48 201.408 716.216 201.408C715.951 201.408 715.698 201.513 715.511 201.701C715.121 202.091 715.121 202.721 715.511 203.111L720.381 208.001H709.211C708.661 208.001 708.211 208.451 708.211 209.001C708.211 209.551 708.661 210.001 709.211 210.001Z" fill="white"/>
<path d="M725 202C725 201.448 725.448 201 726 201V201C726.552 201 727 201.448 727 202V216C727 216.552 726.552 217 726 217V217C725.448 217 725 216.552 725 216V202Z" fill="white"/>
</g>
</g>
<path d="M26.272 210.056V208.712H30.576V214.424C29.424 214.957 28.1333 215.224 26.704 215.224C24.7413 215.224 23.2533 214.701 22.24 213.656C21.2373 212.611 20.736 211.075 20.736 209.048C20.736 207.8 20.9813 206.739 21.472 205.864C21.9733 204.979 22.688 204.307 23.616 203.848C24.5547 203.379 25.6853 203.144 27.008 203.144C27.4987 203.144 27.984 203.187 28.464 203.272C28.9547 203.357 29.4133 203.485 29.84 203.656V205.768C29.296 205.597 28.8107 205.48 28.384 205.416C27.9573 205.341 27.5307 205.304 27.104 205.304C25.8773 205.304 24.9333 205.629 24.272 206.28C23.6213 206.92 23.296 207.843 23.296 209.048C23.296 210.392 23.5787 211.4 24.144 212.072C24.72 212.733 25.5947 213.064 26.768 213.064C27.2693 213.064 27.76 213.032 28.24 212.968V210.712L26.272 210.056ZM32.4641 215V203.368H36.3681C38.2668 203.368 39.7015 203.859 40.6721 204.84C41.6428 205.821 42.1281 207.272 42.1281 209.192C42.1281 211.091 41.6428 212.536 40.6721 213.528C39.7121 214.509 38.2775 215 36.3681 215H32.4641ZM36.3361 205.4H34.9601V212.968H36.3361C37.4135 212.968 38.2135 212.664 38.7361 212.056C39.2695 211.437 39.5361 210.483 39.5361 209.192C39.5361 207.901 39.2748 206.947 38.7521 206.328C38.2295 205.709 37.4241 205.4 36.3361 205.4ZM43.9016 215V203.368H46.3976V208.264L50.4136 203.368H53.3576L48.9416 208.52L53.8216 215H50.7176L47.1176 210.12H46.3976V215H43.9016ZM59.4933 215V208.36H58.0053V207.144L59.4933 206.536V206.056C59.4933 203.923 60.5386 202.856 62.6293 202.856C62.8533 202.856 63.0399 202.861 63.1893 202.872C63.3493 202.883 63.4986 202.904 63.6373 202.936V204.808C63.5733 204.797 63.5039 204.792 63.4293 204.792C63.3653 204.781 63.2906 204.776 63.2053 204.776C62.7466 204.776 62.4159 204.872 62.2133 205.064C62.0213 205.256 61.9253 205.576 61.9253 206.024V206.536H63.7013V208.36H61.9253V215H59.4933ZM68.7226 215.192C67.4 215.192 66.3653 214.803 65.6186 214.024C64.8826 213.245 64.5146 212.157 64.5146 210.76C64.5146 209.363 64.8826 208.28 65.6186 207.512C66.3653 206.733 67.4 206.344 68.7226 206.344C70.056 206.344 71.0906 206.733 71.8266 207.512C72.5626 208.28 72.9306 209.363 72.9306 210.76C72.9306 212.157 72.5626 213.245 71.8266 214.024C71.0906 214.803 70.056 215.192 68.7226 215.192ZM68.7226 213.352C69.896 213.352 70.4826 212.488 70.4826 210.76C70.4826 209.043 69.896 208.184 68.7226 208.184C67.5493 208.184 66.9626 209.043 66.9626 210.76C66.9626 212.488 67.5493 213.352 68.7226 213.352ZM77.0349 215H74.6029V206.536H76.1869L76.5229 207.784C76.8002 207.379 77.1469 207.064 77.5629 206.84C77.9789 206.605 78.4589 206.488 79.0029 206.488C79.2375 206.488 79.4402 206.504 79.6109 206.536V208.728H79.0989C78.5549 208.728 78.1015 208.872 77.7389 209.16C77.3762 209.437 77.1415 209.811 77.0349 210.28V215ZM85.1673 215V203.368H87.7753L91.4713 211.032L95.1193 203.368H97.7273V215H95.2633V207.464L92.1913 213.88H90.6553L87.5833 207.56V215H85.1673ZM99.7714 205.048V203.176H102.459V205.048H99.7714ZM100.027 215V208.248L99.1474 207.512V206.536H102.459V215H100.027ZM110.892 212.84V214.744C110.561 214.872 110.172 214.979 109.724 215.064C109.276 215.149 108.817 215.192 108.348 215.192C105.542 215.192 104.14 213.688 104.14 210.68C104.14 209.336 104.524 208.28 105.292 207.512C106.07 206.733 107.137 206.344 108.492 206.344C109.228 206.344 109.948 206.467 110.652 206.712V208.584C110.129 208.317 109.553 208.184 108.924 208.184C108.177 208.184 107.601 208.392 107.196 208.808C106.79 209.213 106.588 209.837 106.588 210.68C106.588 211.491 106.764 212.136 107.116 212.616C107.478 213.085 108.006 213.32 108.7 213.32C109.041 213.32 109.393 213.277 109.756 213.192C110.118 213.107 110.497 212.989 110.892 212.84ZM114.91 215H112.478V206.536H114.062L114.398 207.784C114.675 207.379 115.022 207.064 115.438 206.84C115.854 206.605 116.334 206.488 116.878 206.488C117.113 206.488 117.315 206.504 117.486 206.536V208.728H116.974C116.43 208.728 115.977 208.872 115.614 209.16C115.251 209.437 115.017 209.811 114.91 210.28V215ZM122.566 215.192C121.244 215.192 120.209 214.803 119.462 214.024C118.726 213.245 118.358 212.157 118.358 210.76C118.358 209.363 118.726 208.28 119.462 207.512C120.209 206.733 121.244 206.344 122.566 206.344C123.9 206.344 124.934 206.733 125.67 207.512C126.406 208.28 126.774 209.363 126.774 210.76C126.774 212.157 126.406 213.245 125.67 214.024C124.934 214.803 123.9 215.192 122.566 215.192ZM122.566 213.352C123.74 213.352 124.326 212.488 124.326 210.76C124.326 209.043 123.74 208.184 122.566 208.184C121.393 208.184 120.806 209.043 120.806 210.76C120.806 212.488 121.393 213.352 122.566 213.352ZM128.447 215V206.536H130.031L130.367 207.832C131.145 206.84 132.153 206.344 133.391 206.344C134.361 206.344 135.103 206.643 135.615 207.24C136.127 207.827 136.383 208.68 136.383 209.8V215H133.951V209.88C133.951 208.845 133.519 208.328 132.655 208.328C132.271 208.328 131.919 208.44 131.599 208.664C131.289 208.888 131.049 209.203 130.879 209.608V215H128.447ZM143.727 215L143.407 213.816C143.119 214.243 142.741 214.579 142.271 214.824C141.813 215.069 141.301 215.192 140.735 215.192C139.861 215.192 139.167 214.952 138.655 214.472C138.154 213.992 137.903 213.331 137.903 212.488C137.903 211.603 138.239 210.904 138.911 210.392C139.583 209.88 140.49 209.624 141.631 209.624H143.023V209.32C143.023 208.851 142.906 208.547 142.671 208.408C142.437 208.269 142.069 208.2 141.567 208.2C140.671 208.2 139.706 208.403 138.671 208.808V206.968C139.098 206.787 139.594 206.637 140.159 206.52C140.735 206.403 141.317 206.344 141.903 206.344C143.013 206.344 143.855 206.6 144.431 207.112C145.018 207.613 145.311 208.339 145.311 209.288V215H143.727ZM141.359 213.416C141.711 213.416 142.037 213.325 142.335 213.144C142.634 212.963 142.879 212.717 143.071 212.408V211.032H141.935C141.381 211.032 140.949 211.139 140.639 211.352C140.341 211.565 140.191 211.869 140.191 212.264C140.191 213.032 140.581 213.416 141.359 213.416ZM147.257 211.736V206.536H149.689V211.656C149.689 212.691 150.095 213.208 150.905 213.208C151.268 213.208 151.599 213.096 151.897 212.872C152.207 212.637 152.447 212.323 152.617 211.928V206.536H155.049V215H153.465L153.129 213.704C152.351 214.696 151.364 215.192 150.169 215.192C149.231 215.192 148.511 214.893 148.009 214.296C147.508 213.699 147.257 212.845 147.257 211.736ZM157.597 212.088V208.36H156.109V207.144L157.709 206.488L158.429 204.104H160.029V206.536H161.837V208.36H160.029V211.96C160.029 212.376 160.131 212.675 160.333 212.856C160.547 213.027 160.851 213.112 161.245 213.112C161.352 213.112 161.469 213.112 161.597 213.112C161.725 213.101 161.837 213.091 161.933 213.08V215.016C161.677 215.059 161.443 215.085 161.229 215.096C161.027 215.107 160.797 215.112 160.541 215.112C159.571 215.112 158.835 214.867 158.333 214.376C157.843 213.885 157.597 213.123 157.597 212.088ZM166.792 212.824V210.904L172.296 203.528H174.52V210.744H176.12V212.824H174.52V215H172.152V212.824H166.792ZM172.216 210.136V206.84L169.368 210.744H172.168L172.216 210.136ZM177.38 215V212.664H180.036V215H177.38ZM182.288 215V206.52L179.632 207.416V205.944L183.024 203.528H184.8V215H182.288ZM191.09 215.208C189.629 215.208 188.519 214.696 187.762 213.672C187.005 212.648 186.626 211.155 186.626 209.192C186.626 205.277 188.114 203.32 191.09 203.32C194.066 203.32 195.554 205.277 195.554 209.192C195.554 211.155 195.175 212.648 194.418 213.672C193.661 214.696 192.551 215.208 191.09 215.208ZM191.09 213.176C191.762 213.176 192.258 212.851 192.578 212.2C192.898 211.549 193.058 210.547 193.058 209.192C193.058 207.859 192.898 206.888 192.578 206.28C192.269 205.661 191.773 205.352 191.09 205.352C190.407 205.352 189.906 205.661 189.586 206.28C189.277 206.888 189.122 207.859 189.122 209.192C189.122 210.547 189.282 211.549 189.602 212.2C189.922 212.851 190.418 213.176 191.09 213.176ZM196.833 215V212.664H199.489V215H196.833ZM200.832 215L203.776 210.664L200.96 206.536H203.696L205.264 209.064L206.864 206.536H209.344L206.528 210.68L209.472 215H206.736L205.056 212.232L203.296 215H200.832ZM214.667 215V203.368H217.163V212.776H222.283V215H214.667ZM224.796 215V205.48H221.356V203.368H230.732V205.48H227.292V215H224.796ZM232.034 214.584V212.36C233.26 212.819 234.439 213.048 235.57 213.048C236.242 213.048 236.77 212.936 237.154 212.712C237.538 212.488 237.73 212.179 237.73 211.784C237.73 211.507 237.607 211.277 237.362 211.096C237.116 210.904 236.642 210.691 235.938 210.456L234.722 210.04C233.73 209.699 233.004 209.261 232.546 208.728C232.098 208.184 231.874 207.491 231.874 206.648C231.874 205.923 232.055 205.299 232.418 204.776C232.791 204.253 233.314 203.853 233.986 203.576C234.658 203.288 235.458 203.144 236.386 203.144C236.972 203.144 237.548 203.203 238.114 203.32C238.69 203.427 239.191 203.576 239.618 203.768V205.992C239.074 205.779 238.519 205.619 237.954 205.512C237.388 205.395 236.866 205.336 236.386 205.336C235.063 205.336 234.402 205.725 234.402 206.504C234.402 206.803 234.524 207.048 234.77 207.24C235.026 207.421 235.5 207.629 236.194 207.864L237.41 208.28C238.455 208.643 239.196 209.085 239.634 209.608C240.071 210.12 240.29 210.819 240.29 211.704C240.29 212.792 239.9 213.651 239.122 214.28C238.354 214.909 237.266 215.224 235.858 215.224C235.399 215.224 234.919 215.197 234.418 215.144C233.927 215.091 233.468 215.016 233.042 214.92C232.626 214.824 232.29 214.712 232.034 214.584Z" fill="white"/>
<rect x="288" y="1" width="55" height="32" fill="#F68537"/>
<path d="M295.252 22.688V20.907C295.633 21.0717 295.971 21.193 296.266 21.271C296.569 21.349 296.855 21.388 297.124 21.388C298.069 21.388 298.541 20.933 298.541 20.023V15.239L296.812 14.68V13.549H300.569V20.205C300.569 21.1497 300.292 21.882 299.737 22.402C299.191 22.922 298.424 23.182 297.436 23.182C297.037 23.182 296.643 23.1387 296.253 23.052C295.872 22.974 295.538 22.8527 295.252 22.688ZM306.524 23L306.264 22.038C306.03 22.3847 305.722 22.6577 305.341 22.857C304.968 23.0563 304.552 23.156 304.093 23.156C303.382 23.156 302.819 22.961 302.403 22.571C301.995 22.181 301.792 21.6437 301.792 20.959C301.792 20.2397 302.065 19.672 302.611 19.256C303.157 18.84 303.893 18.632 304.821 18.632H305.952V18.385C305.952 18.0037 305.856 17.7567 305.666 17.644C305.475 17.5313 305.176 17.475 304.769 17.475C304.041 17.475 303.256 17.6397 302.416 17.969V16.474C302.762 16.3267 303.165 16.2053 303.625 16.11C304.093 16.0147 304.565 15.967 305.042 15.967C305.943 15.967 306.628 16.175 307.096 16.591C307.572 16.9983 307.811 17.5877 307.811 18.359V23H306.524ZM304.6 21.713C304.886 21.713 305.15 21.6393 305.393 21.492C305.635 21.3447 305.835 21.1453 305.991 20.894V19.776H305.068C304.617 19.776 304.266 19.8627 304.015 20.036C303.772 20.2093 303.651 20.4563 303.651 20.777C303.651 21.401 303.967 21.713 304.6 21.713ZM309.457 23V16.123H310.744L311.017 17.176C311.649 16.37 312.468 15.967 313.474 15.967C314.262 15.967 314.865 16.2097 315.281 16.695C315.697 17.1717 315.905 17.865 315.905 18.775V23H313.929V18.84C313.929 17.9993 313.578 17.579 312.876 17.579C312.564 17.579 312.278 17.67 312.018 17.852C311.766 18.034 311.571 18.2897 311.433 18.619V23H309.457ZM317.426 20.4V18.723H321.456V20.4H317.426ZM322.404 23V21.635L324.77 19.035C325.229 18.5323 325.584 18.125 325.836 17.813C326.096 17.4923 326.278 17.2237 326.382 17.007C326.486 16.7817 326.538 16.5737 326.538 16.383C326.538 15.5943 326.039 15.2 325.043 15.2C324.341 15.2 323.543 15.4383 322.651 15.915V14.173C323.058 13.965 323.496 13.8047 323.964 13.692C324.44 13.5707 324.904 13.51 325.355 13.51C326.36 13.51 327.14 13.7397 327.695 14.199C328.249 14.6583 328.527 15.3127 328.527 16.162C328.527 16.5087 328.457 16.8553 328.319 17.202C328.18 17.5487 327.95 17.9387 327.63 18.372C327.318 18.7967 326.893 19.308 326.356 19.906L325.043 21.349H328.553V23H322.404ZM329.675 22.584V20.855C330.057 21.0457 330.481 21.1973 330.949 21.31C331.426 21.414 331.885 21.466 332.327 21.466C332.882 21.466 333.32 21.336 333.64 21.076C333.961 20.816 334.121 20.4607 334.121 20.01C334.121 19.5767 333.987 19.2387 333.718 18.996C333.458 18.7533 333.086 18.632 332.6 18.632C332.037 18.632 331.461 18.762 330.871 19.022L329.727 18.125L330.273 13.679H335.408V15.33H331.729L331.495 17.358C331.937 17.202 332.388 17.124 332.847 17.124C333.809 17.124 334.568 17.384 335.122 17.904C335.677 18.4153 335.954 19.1217 335.954 20.023C335.954 20.6557 335.811 21.2103 335.525 21.687C335.239 22.155 334.832 22.519 334.303 22.779C333.783 23.039 333.172 23.169 332.47 23.169C331.933 23.169 331.417 23.117 330.923 23.013C330.438 22.909 330.022 22.766 329.675 22.584Z" fill="white"/>
<rect x="344" y="1" width="55" height="32" fill="url(#paint4_linear_1284_12268)"/>
<path d="M351.948 23L355.536 13.549H357.499L361.113 23H358.851L358.227 21.063H354.743L354.119 23H351.948ZM355.289 19.347H357.668L356.472 15.629L355.289 19.347ZM362.059 25.613V16.123H363.346L363.619 17.137C364.174 16.357 364.893 15.967 365.777 15.967C366.679 15.967 367.389 16.2877 367.909 16.929C368.429 17.5617 368.689 18.437 368.689 19.555C368.689 20.6903 368.434 21.5743 367.922 22.207C367.42 22.8397 366.709 23.156 365.79 23.156C365.106 23.156 364.521 22.9263 364.035 22.467V25.613H362.059ZM365.361 17.41C365.093 17.41 364.837 17.4793 364.594 17.618C364.36 17.748 364.165 17.9257 364.009 18.151V21.089C364.356 21.505 364.802 21.713 365.348 21.713C365.782 21.713 366.115 21.531 366.349 21.167C366.583 20.7943 366.7 20.2613 366.7 19.568C366.7 18.8747 366.583 18.3417 366.349 17.969C366.124 17.5963 365.795 17.41 365.361 17.41ZM363.749 18.71L363.827 18.502C363.793 18.5713 363.767 18.6407 363.749 18.71ZM372.033 23H370.057V16.123H371.344L371.617 17.137C371.843 16.8077 372.124 16.552 372.462 16.37C372.8 16.1793 373.19 16.084 373.632 16.084C373.823 16.084 373.988 16.097 374.126 16.123V17.904H373.71C373.268 17.904 372.9 18.021 372.605 18.255C372.311 18.4803 372.12 18.7837 372.033 19.165V23ZM375.259 20.4V18.723H379.289V20.4H375.259ZM380.237 23V21.635L382.603 19.035C383.062 18.5323 383.417 18.125 383.669 17.813C383.929 17.4923 384.111 17.2237 384.215 17.007C384.319 16.7817 384.371 16.5737 384.371 16.383C384.371 15.5943 383.872 15.2 382.876 15.2C382.174 15.2 381.376 15.4383 380.484 15.915V14.173C380.891 13.965 381.329 13.8047 381.797 13.692C382.273 13.5707 382.737 13.51 383.188 13.51C384.193 13.51 384.973 13.7397 385.528 14.199C386.082 14.6583 386.36 15.3127 386.36 16.162C386.36 16.5087 386.29 16.8553 386.152 17.202C386.013 17.5487 385.783 17.9387 385.463 18.372C385.151 18.7967 384.726 19.308 384.189 19.906L382.876 21.349H386.386V23H380.237ZM387.508 22.584V20.855C387.89 21.0457 388.314 21.1973 388.782 21.31C389.259 21.414 389.718 21.466 390.16 21.466C390.715 21.466 391.153 21.336 391.473 21.076C391.794 20.816 391.954 20.4607 391.954 20.01C391.954 19.5767 391.82 19.2387 391.551 18.996C391.291 18.7533 390.919 18.632 390.433 18.632C389.87 18.632 389.294 18.762 388.704 19.022L387.56 18.125L388.106 13.679H393.241V15.33H389.562L389.328 17.358C389.77 17.202 390.221 17.124 390.68 17.124C391.642 17.124 392.401 17.384 392.955 17.904C393.51 18.4153 393.787 19.1217 393.787 20.023C393.787 20.6557 393.644 21.2103 393.358 21.687C393.072 22.155 392.665 22.519 392.136 22.779C391.616 23.039 391.005 23.169 390.303 23.169C389.766 23.169 389.25 23.117 388.756 23.013C388.271 22.909 387.855 22.766 387.508 22.584Z" fill="white"/>
<rect x="456" y="1" width="55" height="32" fill="#F68537"/>
<path d="M467.893 23.182C466.48 23.182 465.388 22.7573 464.617 21.908C463.854 21.05 463.473 19.8367 463.473 18.268C463.473 16.7167 463.859 15.512 464.63 14.654C465.401 13.796 466.489 13.367 467.893 13.367C469.297 13.367 470.385 13.796 471.156 14.654C471.927 15.512 472.313 16.7167 472.313 18.268C472.313 19.8367 471.932 21.05 471.169 21.908C470.406 22.7573 469.314 23.182 467.893 23.182ZM467.893 21.453C468.682 21.453 469.267 21.18 469.648 20.634C470.038 20.088 470.233 19.2993 470.233 18.268C470.233 17.2367 470.038 16.4523 469.648 15.915C469.267 15.369 468.682 15.096 467.893 15.096C467.104 15.096 466.515 15.369 466.125 15.915C465.744 16.4523 465.553 17.2367 465.553 18.268C465.553 19.2993 465.744 20.088 466.125 20.634C466.515 21.18 467.104 21.453 467.893 21.453ZM478.91 21.245V22.792C478.641 22.896 478.325 22.9827 477.961 23.052C477.597 23.1213 477.224 23.156 476.843 23.156C474.564 23.156 473.424 21.934 473.424 19.49C473.424 18.398 473.736 17.54 474.36 16.916C474.993 16.2833 475.859 15.967 476.96 15.967C477.558 15.967 478.143 16.0667 478.715 16.266V17.787C478.29 17.5703 477.822 17.462 477.311 17.462C476.704 17.462 476.236 17.631 475.907 17.969C475.578 18.2983 475.413 18.8053 475.413 19.49C475.413 20.1487 475.556 20.673 475.842 21.063C476.137 21.4443 476.566 21.635 477.129 21.635C477.406 21.635 477.692 21.6003 477.987 21.531C478.282 21.4617 478.589 21.3663 478.91 21.245ZM480.804 20.634V17.605H479.595V16.617L480.895 16.084L481.48 14.147H482.78V16.123H484.249V17.605H482.78V20.53C482.78 20.868 482.862 21.1107 483.027 21.258C483.2 21.3967 483.447 21.466 483.768 21.466C483.854 21.466 483.95 21.466 484.054 21.466C484.158 21.4573 484.249 21.4487 484.327 21.44V23.013C484.119 23.0477 483.928 23.0693 483.755 23.078C483.59 23.0867 483.404 23.091 483.196 23.091C482.407 23.091 481.809 22.8917 481.402 22.493C481.003 22.0943 480.804 21.4747 480.804 20.634ZM485.452 20.4V18.723H489.482V20.4H485.452ZM490.429 23V21.635L492.795 19.035C493.254 18.5323 493.61 18.125 493.861 17.813C494.121 17.4923 494.303 17.2237 494.407 17.007C494.511 16.7817 494.563 16.5737 494.563 16.383C494.563 15.5943 494.065 15.2 493.068 15.2C492.366 15.2 491.569 15.4383 490.676 15.915V14.173C491.083 13.965 491.521 13.8047 491.989 13.692C492.466 13.5707 492.929 13.51 493.38 13.51C494.385 13.51 495.165 13.7397 495.72 14.199C496.275 14.6583 496.552 15.3127 496.552 16.162C496.552 16.5087 496.483 16.8553 496.344 17.202C496.205 17.5487 495.976 17.9387 495.655 18.372C495.343 18.7967 494.918 19.308 494.381 19.906L493.068 21.349H496.578V23H490.429ZM497.701 22.584V20.855C498.082 21.0457 498.507 21.1973 498.975 21.31C499.451 21.414 499.911 21.466 500.353 21.466C500.907 21.466 501.345 21.336 501.666 21.076C501.986 20.816 502.147 20.4607 502.147 20.01C502.147 19.5767 502.012 19.2387 501.744 18.996C501.484 18.7533 501.111 18.632 500.626 18.632C500.062 18.632 499.486 18.762 498.897 19.022L497.753 18.125L498.299 13.679H503.434V15.33H499.755L499.521 17.358C499.963 17.202 500.413 17.124 500.873 17.124C501.835 17.124 502.593 17.384 503.148 17.904C503.702 18.4153 503.98 19.1217 503.98 20.023C503.98 20.6557 503.837 21.2103 503.551 21.687C503.265 22.155 502.857 22.519 502.329 22.779C501.809 23.039 501.198 23.169 500.496 23.169C499.958 23.169 499.443 23.117 498.949 23.013C498.463 22.909 498.047 22.766 497.701 22.584Z" fill="white"/>
<rect x="568" y="1" width="55" height="32" fill="#F68537"/>
<path d="M573.984 23L577.572 13.549H579.535L583.149 23H580.887L580.263 21.063H576.779L576.155 23H573.984ZM577.325 19.347H579.704L578.508 15.629L577.325 19.347ZM584.094 25.613V16.123H585.381L585.654 17.137C586.209 16.357 586.928 15.967 587.812 15.967C588.714 15.967 589.424 16.2877 589.944 16.929C590.464 17.5617 590.724 18.437 590.724 19.555C590.724 20.6903 590.469 21.5743 589.957 22.207C589.455 22.8397 588.744 23.156 587.825 23.156C587.141 23.156 586.556 22.9263 586.07 22.467V25.613H584.094ZM587.396 17.41C587.128 17.41 586.872 17.4793 586.629 17.618C586.395 17.748 586.2 17.9257 586.044 18.151V21.089C586.391 21.505 586.837 21.713 587.383 21.713C587.817 21.713 588.15 21.531 588.384 21.167C588.618 20.7943 588.735 20.2613 588.735 19.568C588.735 18.8747 588.618 18.3417 588.384 17.969C588.159 17.5963 587.83 17.41 587.396 17.41ZM585.784 18.71L585.862 18.502C585.828 18.5713 585.802 18.6407 585.784 18.71ZM594.068 23H592.092V16.123H593.379L593.652 17.137C593.878 16.8077 594.159 16.552 594.497 16.37C594.835 16.1793 595.225 16.084 595.667 16.084C595.858 16.084 596.023 16.097 596.161 16.123V17.904H595.745C595.303 17.904 594.935 18.021 594.64 18.255C594.346 18.4803 594.155 18.7837 594.068 19.165V23ZM597.294 20.4V18.723H601.324V20.4H597.294ZM602.272 23V21.635L604.638 19.035C605.097 18.5323 605.452 18.125 605.704 17.813C605.964 17.4923 606.146 17.2237 606.25 17.007C606.354 16.7817 606.406 16.5737 606.406 16.383C606.406 15.5943 605.907 15.2 604.911 15.2C604.209 15.2 603.411 15.4383 602.519 15.915V14.173C602.926 13.965 603.364 13.8047 603.832 13.692C604.308 13.5707 604.772 13.51 605.223 13.51C606.228 13.51 607.008 13.7397 607.563 14.199C608.117 14.6583 608.395 15.3127 608.395 16.162C608.395 16.5087 608.325 16.8553 608.187 17.202C608.048 17.5487 607.818 17.9387 607.498 18.372C607.186 18.7967 606.761 19.308 606.224 19.906L604.911 21.349H608.421V23H602.272ZM616.278 19.789C616.278 20.4737 616.135 21.0717 615.849 21.583C615.571 22.0857 615.173 22.4757 614.653 22.753C614.141 23.0303 613.535 23.169 612.833 23.169C611.758 23.169 610.913 22.8657 610.298 22.259C609.691 21.6523 609.388 20.8117 609.388 19.737C609.388 19.1477 609.518 18.5107 609.778 17.826C610.046 17.1413 610.423 16.4653 610.909 15.798L612.443 13.679H614.601L612.911 16.006C612.659 16.3613 612.443 16.6863 612.261 16.981C612.607 16.7903 612.993 16.695 613.418 16.695C614.302 16.695 614.999 16.9723 615.511 17.527C616.022 18.0817 616.278 18.8357 616.278 19.789ZM611.312 19.854C611.312 20.3913 611.446 20.8117 611.715 21.115C611.983 21.4183 612.356 21.57 612.833 21.57C613.301 21.57 613.669 21.414 613.938 21.102C614.215 20.79 614.354 20.3653 614.354 19.828C614.354 19.3253 614.228 18.9267 613.977 18.632C613.725 18.3287 613.387 18.177 612.963 18.177C612.252 18.177 611.719 18.5063 611.364 19.165C611.329 19.3903 611.312 19.62 611.312 19.854Z" fill="white"/>
<path d="M680 1H730C732.761 1 735 3.23858 735 6V33H680V1Z" fill="#F68537"/>
<path d="M690.911 23.182C689.498 23.182 688.406 22.7573 687.635 21.908C686.872 21.05 686.491 19.8367 686.491 18.268C686.491 16.7167 686.876 15.512 687.648 14.654C688.419 13.796 689.507 13.367 690.911 13.367C692.315 13.367 693.402 13.796 694.174 14.654C694.945 15.512 695.331 16.7167 695.331 18.268C695.331 19.8367 694.949 21.05 694.187 21.908C693.424 22.7573 692.332 23.182 690.911 23.182ZM690.911 21.453C691.699 21.453 692.284 21.18 692.666 20.634C693.056 20.088 693.251 19.2993 693.251 18.268C693.251 17.2367 693.056 16.4523 692.666 15.915C692.284 15.369 691.699 15.096 690.911 15.096C690.122 15.096 689.533 15.369 689.143 15.915C688.761 16.4523 688.571 17.2367 688.571 18.268C688.571 19.2993 688.761 20.088 689.143 20.634C689.533 21.18 690.122 21.453 690.911 21.453ZM701.928 21.245V22.792C701.659 22.896 701.343 22.9827 700.979 23.052C700.615 23.1213 700.242 23.156 699.861 23.156C697.581 23.156 696.442 21.934 696.442 19.49C696.442 18.398 696.754 17.54 697.378 16.916C698.01 16.2833 698.877 15.967 699.978 15.967C700.576 15.967 701.161 16.0667 701.733 16.266V17.787C701.308 17.5703 700.84 17.462 700.329 17.462C699.722 17.462 699.254 17.631 698.925 17.969C698.595 18.2983 698.431 18.8053 698.431 19.49C698.431 20.1487 698.574 20.673 698.86 21.063C699.154 21.4443 699.583 21.635 700.147 21.635C700.424 21.635 700.71 21.6003 701.005 21.531C701.299 21.4617 701.607 21.3663 701.928 21.245ZM703.821 20.634V17.605H702.612V16.617L703.912 16.084L704.497 14.147H705.797V16.123H707.266V17.605H705.797V20.53C705.797 20.868 705.88 21.1107 706.044 21.258C706.218 21.3967 706.465 21.466 706.785 21.466C706.872 21.466 706.967 21.466 707.071 21.466C707.175 21.4573 707.266 21.4487 707.344 21.44V23.013C707.136 23.0477 706.946 23.0693 706.772 23.078C706.608 23.0867 706.421 23.091 706.213 23.091C705.425 23.091 704.827 22.8917 704.419 22.493C704.021 22.0943 703.821 21.4747 703.821 20.634ZM708.469 20.4V18.723H712.499V20.4H708.469ZM713.447 23V21.635L715.813 19.035C716.272 18.5323 716.627 18.125 716.879 17.813C717.139 17.4923 717.321 17.2237 717.425 17.007C717.529 16.7817 717.581 16.5737 717.581 16.383C717.581 15.5943 717.082 15.2 716.086 15.2C715.384 15.2 714.586 15.4383 713.694 15.915V14.173C714.101 13.965 714.539 13.8047 715.007 13.692C715.483 13.5707 715.947 13.51 716.398 13.51C717.403 13.51 718.183 13.7397 718.738 14.199C719.292 14.6583 719.57 15.3127 719.57 16.162C719.57 16.5087 719.5 16.8553 719.362 17.202C719.223 17.5487 718.993 17.9387 718.673 18.372C718.361 18.7967 717.936 19.308 717.399 19.906L716.086 21.349H719.596V23H713.447ZM727.452 19.789C727.452 20.4737 727.309 21.0717 727.023 21.583C726.746 22.0857 726.347 22.4757 725.827 22.753C725.316 23.0303 724.709 23.169 724.007 23.169C722.933 23.169 722.088 22.8657 721.472 22.259C720.866 21.6523 720.562 20.8117 720.562 19.737C720.562 19.1477 720.692 18.5107 720.952 17.826C721.221 17.1413 721.598 16.4653 722.083 15.798L723.617 13.679H725.775L724.085 16.006C723.834 16.3613 723.617 16.6863 723.435 16.981C723.782 16.7903 724.168 16.695 724.592 16.695C725.476 16.695 726.174 16.9723 726.685 17.527C727.197 18.0817 727.452 18.8357 727.452 19.789ZM722.486 19.854C722.486 20.3913 722.621 20.8117 722.889 21.115C723.158 21.4183 723.531 21.57 724.007 21.57C724.475 21.57 724.844 21.414 725.112 21.102C725.39 20.79 725.528 20.3653 725.528 19.828C725.528 19.3253 725.403 18.9267 725.151 18.632C724.9 18.3287 724.562 18.177 724.137 18.177C723.427 18.177 722.894 18.5063 722.538 19.165C722.504 19.3903 722.486 19.62 722.486 19.854Z" fill="white"/>
<rect x="624" y="1" width="55" height="32" fill="url(#paint5_linear_1284_12268)"/>
<path d="M632.234 22.688V20.907C632.616 21.0717 632.954 21.193 633.248 21.271C633.552 21.349 633.838 21.388 634.106 21.388C635.051 21.388 635.523 20.933 635.523 20.023V15.239L633.794 14.68V13.549H637.551V20.205C637.551 21.1497 637.274 21.882 636.719 22.402C636.173 22.922 635.406 23.182 634.418 23.182C634.02 23.182 633.625 23.1387 633.235 23.052C632.854 22.974 632.52 22.8527 632.234 22.688ZM639.125 20.348V16.123H641.101V20.283C641.101 21.1237 641.43 21.544 642.089 21.544C642.384 21.544 642.652 21.453 642.895 21.271C643.146 21.0803 643.341 20.8247 643.48 20.504V16.123H645.456V23H644.169L643.896 21.947C643.263 22.753 642.462 23.156 641.491 23.156C640.728 23.156 640.143 22.9133 639.736 22.428C639.329 21.9427 639.125 21.2493 639.125 20.348ZM647.266 23V14.628L646.551 14.03V13.237H649.242V23H647.266ZM650.829 20.4V18.723H654.859V20.4H650.829ZM655.806 23V21.635L658.172 19.035C658.631 18.5323 658.987 18.125 659.238 17.813C659.498 17.4923 659.68 17.2237 659.784 17.007C659.888 16.7817 659.94 16.5737 659.94 16.383C659.94 15.5943 659.442 15.2 658.445 15.2C657.743 15.2 656.946 15.4383 656.053 15.915V14.173C656.46 13.965 656.898 13.8047 657.366 13.692C657.843 13.5707 658.306 13.51 658.757 13.51C659.762 13.51 660.542 13.7397 661.097 14.199C661.652 14.6583 661.929 15.3127 661.929 16.162C661.929 16.5087 661.86 16.8553 661.721 17.202C661.582 17.5487 661.353 17.9387 661.032 18.372C660.72 18.7967 660.295 19.308 659.758 19.906L658.445 21.349H661.955V23H655.806ZM669.812 19.789C669.812 20.4737 669.669 21.0717 669.383 21.583C669.105 22.0857 668.707 22.4757 668.187 22.753C667.675 23.0303 667.069 23.169 666.367 23.169C665.292 23.169 664.447 22.8657 663.832 22.259C663.225 21.6523 662.922 20.8117 662.922 19.737C662.922 19.1477 663.052 18.5107 663.312 17.826C663.58 17.1413 663.957 16.4653 664.443 15.798L665.977 13.679H668.135L666.445 16.006C666.193 16.3613 665.977 16.6863 665.795 16.981C666.141 16.7903 666.527 16.695 666.952 16.695C667.836 16.695 668.533 16.9723 669.045 17.527C669.556 18.0817 669.812 18.8357 669.812 19.789ZM664.846 19.854C664.846 20.3913 664.98 20.8117 665.249 21.115C665.517 21.4183 665.89 21.57 666.367 21.57C666.835 21.57 667.203 21.414 667.472 21.102C667.749 20.79 667.888 20.3653 667.888 19.828C667.888 19.3253 667.762 18.9267 667.511 18.632C667.259 18.3287 666.921 18.177 666.497 18.177C665.786 18.177 665.253 18.5063 664.898 19.165C664.863 19.3903 664.846 19.62 664.846 19.854Z" fill="white"/>
<rect x="512" y="1" width="55" height="32" fill="url(#paint6_linear_1284_12268)"/>
<path d="M518.234 22.688V20.907C518.616 21.0717 518.954 21.193 519.248 21.271C519.552 21.349 519.838 21.388 520.106 21.388C521.051 21.388 521.523 20.933 521.523 20.023V15.239L519.794 14.68V13.549H523.551V20.205C523.551 21.1497 523.274 21.882 522.719 22.402C522.173 22.922 521.406 23.182 520.418 23.182C520.02 23.182 519.625 23.1387 519.235 23.052C518.854 22.974 518.52 22.8527 518.234 22.688ZM529.506 23L529.246 22.038C529.012 22.3847 528.704 22.6577 528.323 22.857C527.95 23.0563 527.534 23.156 527.075 23.156C526.364 23.156 525.801 22.961 525.385 22.571C524.978 22.181 524.774 21.6437 524.774 20.959C524.774 20.2397 525.047 19.672 525.593 19.256C526.139 18.84 526.876 18.632 527.803 18.632H528.934V18.385C528.934 18.0037 528.839 17.7567 528.648 17.644C528.457 17.5313 528.158 17.475 527.751 17.475C527.023 17.475 526.239 17.6397 525.398 17.969V16.474C525.745 16.3267 526.148 16.2053 526.607 16.11C527.075 16.0147 527.547 15.967 528.024 15.967C528.925 15.967 529.61 16.175 530.078 16.591C530.555 16.9983 530.793 17.5877 530.793 18.359V23H529.506ZM527.582 21.713C527.868 21.713 528.132 21.6393 528.375 21.492C528.618 21.3447 528.817 21.1453 528.973 20.894V19.776H528.05C527.599 19.776 527.248 19.8627 526.997 20.036C526.754 20.2093 526.633 20.4563 526.633 20.777C526.633 21.401 526.949 21.713 527.582 21.713ZM532.439 23V16.123H533.726L533.999 17.176C534.632 16.37 535.451 15.967 536.456 15.967C537.245 15.967 537.847 16.2097 538.263 16.695C538.679 17.1717 538.887 17.865 538.887 18.775V23H536.911V18.84C536.911 17.9993 536.56 17.579 535.858 17.579C535.546 17.579 535.26 17.67 535 17.852C534.749 18.034 534.554 18.2897 534.415 18.619V23H532.439ZM540.409 20.4V18.723H544.439V20.4H540.409ZM545.386 23V21.635L547.752 19.035C548.211 18.5323 548.567 18.125 548.818 17.813C549.078 17.4923 549.26 17.2237 549.364 17.007C549.468 16.7817 549.52 16.5737 549.52 16.383C549.52 15.5943 549.022 15.2 548.025 15.2C547.323 15.2 546.526 15.4383 545.633 15.915V14.173C546.04 13.965 546.478 13.8047 546.946 13.692C547.423 13.5707 547.886 13.51 548.337 13.51C549.342 13.51 550.122 13.7397 550.677 14.199C551.232 14.6583 551.509 15.3127 551.509 16.162C551.509 16.5087 551.44 16.8553 551.301 17.202C551.162 17.5487 550.933 17.9387 550.612 18.372C550.3 18.7967 549.875 19.308 549.338 19.906L548.025 21.349H551.535V23H545.386ZM559.392 19.789C559.392 20.4737 559.249 21.0717 558.963 21.583C558.685 22.0857 558.287 22.4757 557.767 22.753C557.255 23.0303 556.649 23.169 555.947 23.169C554.872 23.169 554.027 22.8657 553.412 22.259C552.805 21.6523 552.502 20.8117 552.502 19.737C552.502 19.1477 552.632 18.5107 552.892 17.826C553.16 17.1413 553.537 16.4653 554.023 15.798L555.557 13.679H557.715L556.025 16.006C555.773 16.3613 555.557 16.6863 555.375 16.981C555.721 16.7903 556.107 16.695 556.532 16.695C557.416 16.695 558.113 16.9723 558.625 17.527C559.136 18.0817 559.392 18.8357 559.392 19.789ZM554.426 19.854C554.426 20.3913 554.56 20.8117 554.829 21.115C555.097 21.4183 555.47 21.57 555.947 21.57C556.415 21.57 556.783 21.414 557.052 21.102C557.329 20.79 557.468 20.3653 557.468 19.828C557.468 19.3253 557.342 18.9267 557.091 18.632C556.839 18.3287 556.501 18.177 556.077 18.177C555.366 18.177 554.833 18.5063 554.478 19.165C554.443 19.3903 554.426 19.62 554.426 19.854Z" fill="white"/>
<rect x="400" y="1" width="55" height="32" fill="url(#paint7_linear_1284_12268)"/>
<rect x="160" y="275" width="31" height="12" rx="6" fill="url(#paint8_linear_1284_12268)"/>
<path d="M406.091 23L409.679 13.549H411.642L415.256 23H412.994L412.37 21.063H408.886L408.262 23H406.091ZM409.432 19.347H411.811L410.615 15.629L409.432 19.347ZM415.946 20.348V16.123H417.922V20.283C417.922 21.1237 418.252 21.544 418.91 21.544C419.205 21.544 419.474 21.453 419.716 21.271C419.968 21.0803 420.163 20.8247 420.301 20.504V16.123H422.277V23H420.99L420.717 21.947C420.085 22.753 419.283 23.156 418.312 23.156C417.55 23.156 416.965 22.9133 416.557 22.428C416.15 21.9427 415.946 21.2493 415.946 20.348ZM423.802 22.272L423.581 21.414L424.699 19.815C424.283 19.4163 424.075 18.9093 424.075 18.294C424.075 17.5573 424.33 16.9853 424.842 16.578C425.362 16.1707 426.081 15.967 427 15.967C427.476 15.967 427.927 16.0407 428.352 16.188L430.731 16.175V17.15L430.003 17.449C430.228 17.7263 430.341 18.0643 430.341 18.463C430.341 19.1303 430.063 19.6547 429.509 20.036C428.954 20.4173 428.187 20.608 427.208 20.608C426.731 20.608 426.302 20.556 425.921 20.452L425.427 21.154L428.495 21.518C429.994 21.7 430.744 22.3673 430.744 23.52C430.744 24.2133 430.427 24.7593 429.795 25.158C429.162 25.5653 428.3 25.769 427.208 25.769C426.081 25.769 425.223 25.6043 424.634 25.275C424.044 24.9457 423.75 24.4647 423.75 23.832C423.75 23.2947 424.001 22.818 424.504 22.402L423.802 22.272ZM425.869 18.294C425.869 18.9527 426.315 19.282 427.208 19.282C428.1 19.282 428.547 18.9527 428.547 18.294C428.547 17.6353 428.1 17.306 427.208 17.306C426.315 17.306 425.869 17.6353 425.869 18.294ZM425.596 23.442C425.596 23.7453 425.721 23.9663 425.973 24.105C426.233 24.2437 426.644 24.313 427.208 24.313C428.308 24.313 428.859 24.079 428.859 23.611C428.859 23.4377 428.807 23.3077 428.703 23.221C428.599 23.143 428.395 23.078 428.092 23.026L425.921 22.649C425.704 22.883 425.596 23.1473 425.596 23.442ZM431.75 20.4V18.723H435.78V20.4H431.75ZM436.728 23V21.635L439.094 19.035C439.553 18.5323 439.909 18.125 440.16 17.813C440.42 17.4923 440.602 17.2237 440.706 17.007C440.81 16.7817 440.862 16.5737 440.862 16.383C440.862 15.5943 440.364 15.2 439.367 15.2C438.665 15.2 437.868 15.4383 436.975 15.915V14.173C437.382 13.965 437.82 13.8047 438.288 13.692C438.765 13.5707 439.228 13.51 439.679 13.51C440.684 13.51 441.464 13.7397 442.019 14.199C442.574 14.6583 442.851 15.3127 442.851 16.162C442.851 16.5087 442.782 16.8553 442.643 17.202C442.504 17.5487 442.275 17.9387 441.954 18.372C441.642 18.7967 441.217 19.308 440.68 19.906L439.367 21.349H442.877V23H436.728ZM444 22.584V20.855C444.381 21.0457 444.806 21.1973 445.274 21.31C445.75 21.414 446.21 21.466 446.652 21.466C447.206 21.466 447.644 21.336 447.965 21.076C448.285 20.816 448.446 20.4607 448.446 20.01C448.446 19.5767 448.311 19.2387 448.043 18.996C447.783 18.7533 447.41 18.632 446.925 18.632C446.361 18.632 445.785 18.762 445.196 19.022L444.052 18.125L444.598 13.679H449.733V15.33H446.054L445.82 17.358C446.262 17.202 446.712 17.124 447.172 17.124C448.134 17.124 448.892 17.384 449.447 17.904C450.001 18.4153 450.279 19.1217 450.279 20.023C450.279 20.6557 450.136 21.2103 449.85 21.687C449.564 22.155 449.156 22.519 448.628 22.779C448.108 23.039 447.497 23.169 446.795 23.169C446.257 23.169 445.742 23.117 445.248 23.013C444.762 22.909 444.346 22.766 444 22.584Z" fill="white"/>
<path d="M65.912 285V276.276H67.412V283.656H71.468V285H65.912ZM73.4626 285V277.548H70.7986V276.276H77.6266V277.548H74.9626V285H73.4626ZM78.6433 284.652V283.32C79.5393 283.672 80.4033 283.848 81.2353 283.848C81.8193 283.848 82.2753 283.74 82.6033 283.524C82.9393 283.308 83.1073 283.012 83.1073 282.636C83.1073 282.356 83.0033 282.128 82.7953 281.952C82.5873 281.768 82.1993 281.576 81.6313 281.376L80.7193 281.04C79.9433 280.752 79.3873 280.416 79.0513 280.032C78.7233 279.64 78.5593 279.164 78.5593 278.604C78.5593 277.836 78.8473 277.232 79.4233 276.792C79.9993 276.344 80.7833 276.12 81.7753 276.12C82.1913 276.12 82.6073 276.164 83.0233 276.252C83.4473 276.34 83.8153 276.46 84.1273 276.612V277.944C83.3033 277.6 82.5233 277.428 81.7873 277.428C80.6433 277.428 80.0713 277.796 80.0713 278.532C80.0713 278.796 80.1753 279.012 80.3833 279.18C80.5913 279.348 80.9713 279.536 81.5233 279.744L82.4473 280.08C83.2553 280.376 83.8193 280.716 84.1393 281.1C84.4673 281.484 84.6313 281.98 84.6313 282.588C84.6313 283.388 84.3473 284.016 83.7793 284.472C83.2113 284.928 82.4153 285.156 81.3913 285.156C81.0633 285.156 80.7233 285.132 80.3713 285.084C80.0273 285.044 79.7033 284.988 79.3993 284.916C79.0953 284.836 78.8433 284.748 78.6433 284.652ZM88.8925 285V276.276H92.0485C93.0725 276.276 93.8525 276.504 94.3885 276.96C94.9245 277.416 95.1925 278.076 95.1925 278.94C95.1925 279.58 95.0245 280.112 94.6885 280.536C94.3605 280.96 93.8845 281.256 93.2605 281.424L95.5645 285H93.8965L91.8565 281.712L90.3805 281.412V285H88.8925ZM90.3805 280.428H91.4965C92.0485 280.428 92.4845 280.38 92.8045 280.284C93.1245 280.188 93.3525 280.036 93.4885 279.828C93.6245 279.612 93.6925 279.324 93.6925 278.964C93.6925 278.596 93.6245 278.304 93.4885 278.088C93.3525 277.872 93.1245 277.72 92.8045 277.632C92.4845 277.536 92.0485 277.488 91.4965 277.488H90.3805V280.428ZM101.36 284.7C101.096 284.836 100.776 284.944 100.4 285.024C100.024 285.104 99.6236 285.144 99.1996 285.144C98.1596 285.144 97.3636 284.86 96.8116 284.292C96.2676 283.724 95.9956 282.896 95.9956 281.808C95.9956 280.768 96.2556 279.968 96.7756 279.408C97.3036 278.84 98.0436 278.556 98.9956 278.556C99.8756 278.556 100.54 278.808 100.988 279.312C101.436 279.808 101.66 280.52 101.66 281.448V282.264H97.4476C97.5036 282.864 97.6836 283.3 97.9876 283.572C98.2996 283.844 98.7516 283.98 99.3436 283.98C99.6956 283.98 100.028 283.948 100.34 283.884C100.652 283.812 100.992 283.7 101.36 283.548V284.7ZM98.9836 279.66C98.0236 279.66 97.5076 280.184 97.4356 281.232H100.316C100.308 280.184 99.8636 279.66 98.9836 279.66ZM102.942 285V277.056L102.306 276.588V275.988H104.406V285H102.942ZM111.086 284.7C110.822 284.836 110.502 284.944 110.126 285.024C109.75 285.104 109.35 285.144 108.926 285.144C107.886 285.144 107.09 284.86 106.538 284.292C105.994 283.724 105.722 282.896 105.722 281.808C105.722 280.768 105.982 279.968 106.502 279.408C107.03 278.84 107.77 278.556 108.722 278.556C109.602 278.556 110.266 278.808 110.714 279.312C111.162 279.808 111.386 280.52 111.386 281.448V282.264H107.174C107.23 282.864 107.41 283.3 107.714 283.572C108.026 283.844 108.478 283.98 109.07 283.98C109.422 283.98 109.754 283.948 110.066 283.884C110.378 283.812 110.718 283.7 111.086 283.548V284.7ZM108.71 279.66C107.75 279.66 107.234 280.184 107.162 281.232H110.042C110.034 280.184 109.59 279.66 108.71 279.66ZM116.616 285L116.412 284.064C116.18 284.408 115.888 284.676 115.536 284.868C115.184 285.052 114.796 285.144 114.372 285.144C113.724 285.144 113.208 284.964 112.824 284.604C112.448 284.244 112.26 283.756 112.26 283.14C112.26 282.484 112.5 281.968 112.98 281.592C113.46 281.216 114.116 281.028 114.948 281.028H116.136V280.728C116.136 280.328 116.052 280.056 115.884 279.912C115.716 279.768 115.42 279.696 114.996 279.696C114.364 279.696 113.644 279.844 112.836 280.14V279C113.156 278.864 113.52 278.756 113.928 278.676C114.336 278.596 114.736 278.556 115.128 278.556C116.768 278.556 117.588 279.276 117.588 280.716V285H116.616ZM114.672 284.04C114.968 284.04 115.248 283.964 115.512 283.812C115.776 283.652 115.992 283.432 116.16 283.152V281.964H115.116C114.148 281.964 113.664 282.316 113.664 283.02C113.664 283.34 113.752 283.592 113.928 283.776C114.104 283.952 114.352 284.04 114.672 284.04ZM118.931 284.712V283.524C119.331 283.684 119.691 283.8 120.011 283.872C120.331 283.936 120.667 283.968 121.019 283.968C121.875 283.968 122.303 283.724 122.303 283.236C122.303 283.052 122.231 282.904 122.087 282.792C121.951 282.672 121.711 282.564 121.367 282.468L120.431 282.216C119.863 282.056 119.447 281.836 119.183 281.556C118.919 281.268 118.787 280.9 118.787 280.452C118.787 279.86 119.015 279.396 119.471 279.06C119.927 278.724 120.547 278.556 121.331 278.556C121.707 278.556 122.071 278.588 122.423 278.652C122.775 278.716 123.075 278.804 123.323 278.916V280.08C122.675 279.832 122.031 279.708 121.391 279.708C120.615 279.708 120.227 279.924 120.227 280.356C120.227 280.524 120.295 280.664 120.431 280.776C120.567 280.88 120.795 280.976 121.115 281.064L122.051 281.328C122.667 281.504 123.103 281.732 123.359 282.012C123.615 282.284 123.743 282.668 123.743 283.164C123.743 283.796 123.511 284.284 123.047 284.628C122.583 284.972 121.923 285.144 121.067 285.144C120.675 285.144 120.283 285.104 119.891 285.024C119.499 284.944 119.179 284.84 118.931 284.712ZM129.918 284.7C129.654 284.836 129.334 284.944 128.958 285.024C128.582 285.104 128.182 285.144 127.758 285.144C126.718 285.144 125.922 284.86 125.37 284.292C124.826 283.724 124.554 282.896 124.554 281.808C124.554 280.768 124.814 279.968 125.334 279.408C125.862 278.84 126.602 278.556 127.554 278.556C128.434 278.556 129.098 278.808 129.546 279.312C129.994 279.808 130.218 280.52 130.218 281.448V282.264H126.006C126.062 282.864 126.242 283.3 126.546 283.572C126.858 283.844 127.31 283.98 127.902 283.98C128.254 283.98 128.586 283.948 128.898 283.884C129.21 283.812 129.55 283.7 129.918 283.548V284.7ZM127.542 279.66C126.582 279.66 126.066 280.184 125.994 281.232H128.874C128.866 280.184 128.422 279.66 127.542 279.66Z" fill="white"/>
<path d="M204.912 285V276.276H206.316L210.504 282.54V276.276H211.992V285H210.588L206.4 278.748V285H204.912ZM216.458 285.132C215.49 285.132 214.734 284.844 214.19 284.268C213.654 283.692 213.386 282.884 213.386 281.844C213.386 280.804 213.654 279.996 214.19 279.42C214.734 278.844 215.49 278.556 216.458 278.556C217.434 278.556 218.19 278.844 218.726 279.42C219.262 279.996 219.53 280.804 219.53 281.844C219.53 282.884 219.262 283.692 218.726 284.268C218.19 284.844 217.434 285.132 216.458 285.132ZM216.458 283.992C217.522 283.992 218.054 283.276 218.054 281.844C218.054 280.412 217.522 279.696 216.458 279.696C215.394 279.696 214.862 280.412 214.862 281.844C214.862 283.276 215.394 283.992 216.458 283.992ZM220.848 285V278.688H221.82L222.036 279.708C222.316 279.34 222.644 279.056 223.02 278.856C223.404 278.656 223.832 278.556 224.304 278.556C225.032 278.556 225.588 278.776 225.972 279.216C226.356 279.648 226.548 280.28 226.548 281.112V285H225.084V281.16C225.084 280.232 224.688 279.768 223.896 279.768C223.552 279.768 223.236 279.872 222.948 280.08C222.668 280.288 222.456 280.568 222.312 280.92V285H220.848ZM228.076 282.468V281.22H231.652V282.468H228.076ZM233.295 285V276.276H234.795V283.656H238.851V285H233.295ZM240.845 285V277.548H238.181V276.276H245.009V277.548H242.345V285H240.845ZM246.026 284.652V283.32C246.922 283.672 247.786 283.848 248.618 283.848C249.202 283.848 249.658 283.74 249.986 283.524C250.322 283.308 250.49 283.012 250.49 282.636C250.49 282.356 250.386 282.128 250.178 281.952C249.97 281.768 249.582 281.576 249.014 281.376L248.102 281.04C247.326 280.752 246.77 280.416 246.434 280.032C246.106 279.64 245.942 279.164 245.942 278.604C245.942 277.836 246.23 277.232 246.806 276.792C247.382 276.344 248.166 276.12 249.158 276.12C249.574 276.12 249.99 276.164 250.406 276.252C250.83 276.34 251.198 276.46 251.51 276.612V277.944C250.686 277.6 249.906 277.428 249.17 277.428C248.026 277.428 247.454 277.796 247.454 278.532C247.454 278.796 247.558 279.012 247.766 279.18C247.974 279.348 248.354 279.536 248.906 279.744L249.83 280.08C250.638 280.376 251.202 280.716 251.522 281.1C251.85 281.484 252.014 281.98 252.014 282.588C252.014 283.388 251.73 284.016 251.162 284.472C250.594 284.928 249.798 285.156 248.774 285.156C248.446 285.156 248.106 285.132 247.754 285.084C247.41 285.044 247.086 284.988 246.782 284.916C246.478 284.836 246.226 284.748 246.026 284.652ZM256.275 285V276.276H259.431C260.455 276.276 261.235 276.504 261.771 276.96C262.307 277.416 262.575 278.076 262.575 278.94C262.575 279.58 262.407 280.112 262.071 280.536C261.743 280.96 261.267 281.256 260.643 281.424L262.947 285H261.279L259.239 281.712L257.763 281.412V285H256.275ZM257.763 280.428H258.879C259.431 280.428 259.867 280.38 260.187 280.284C260.507 280.188 260.735 280.036 260.871 279.828C261.007 279.612 261.075 279.324 261.075 278.964C261.075 278.596 261.007 278.304 260.871 278.088C260.735 277.872 260.507 277.72 260.187 277.632C259.867 277.536 259.431 277.488 258.879 277.488H257.763V280.428ZM268.742 284.7C268.478 284.836 268.158 284.944 267.782 285.024C267.406 285.104 267.006 285.144 266.582 285.144C265.542 285.144 264.746 284.86 264.194 284.292C263.65 283.724 263.378 282.896 263.378 281.808C263.378 280.768 263.638 279.968 264.158 279.408C264.686 278.84 265.426 278.556 266.378 278.556C267.258 278.556 267.922 278.808 268.37 279.312C268.818 279.808 269.042 280.52 269.042 281.448V282.264H264.83C264.886 282.864 265.066 283.3 265.37 283.572C265.682 283.844 266.134 283.98 266.726 283.98C267.078 283.98 267.41 283.948 267.722 283.884C268.034 283.812 268.374 283.7 268.742 283.548V284.7ZM266.366 279.66C265.406 279.66 264.89 280.184 264.818 281.232H267.698C267.69 280.184 267.246 279.66 266.366 279.66ZM270.324 285V277.056L269.688 276.588V275.988H271.788V285H270.324ZM278.469 284.7C278.205 284.836 277.885 284.944 277.509 285.024C277.133 285.104 276.733 285.144 276.309 285.144C275.269 285.144 274.473 284.86 273.921 284.292C273.377 283.724 273.105 282.896 273.105 281.808C273.105 280.768 273.365 279.968 273.885 279.408C274.413 278.84 275.153 278.556 276.105 278.556C276.985 278.556 277.649 278.808 278.097 279.312C278.545 279.808 278.769 280.52 278.769 281.448V282.264H274.557C274.613 282.864 274.793 283.3 275.097 283.572C275.409 283.844 275.861 283.98 276.453 283.98C276.805 283.98 277.137 283.948 277.449 283.884C277.761 283.812 278.101 283.7 278.469 283.548V284.7ZM276.093 279.66C275.133 279.66 274.617 280.184 274.545 281.232H277.425C277.417 280.184 276.973 279.66 276.093 279.66ZM283.999 285L283.795 284.064C283.563 284.408 283.271 284.676 282.919 284.868C282.567 285.052 282.179 285.144 281.755 285.144C281.107 285.144 280.591 284.964 280.207 284.604C279.831 284.244 279.643 283.756 279.643 283.14C279.643 282.484 279.883 281.968 280.363 281.592C280.843 281.216 281.499 281.028 282.331 281.028H283.519V280.728C283.519 280.328 283.435 280.056 283.267 279.912C283.099 279.768 282.803 279.696 282.379 279.696C281.747 279.696 281.027 279.844 280.219 280.14V279C280.539 278.864 280.903 278.756 281.311 278.676C281.719 278.596 282.119 278.556 282.511 278.556C284.151 278.556 284.971 279.276 284.971 280.716V285H283.999ZM282.055 284.04C282.351 284.04 282.631 283.964 282.895 283.812C283.159 283.652 283.375 283.432 283.543 283.152V281.964H282.499C281.531 281.964 281.047 282.316 281.047 283.02C281.047 283.34 281.135 283.592 281.311 283.776C281.487 283.952 281.735 284.04 282.055 284.04ZM286.314 284.712V283.524C286.714 283.684 287.074 283.8 287.394 283.872C287.714 283.936 288.05 283.968 288.402 283.968C289.258 283.968 289.686 283.724 289.686 283.236C289.686 283.052 289.614 282.904 289.47 282.792C289.334 282.672 289.094 282.564 288.75 282.468L287.814 282.216C287.246 282.056 286.83 281.836 286.566 281.556C286.302 281.268 286.17 280.9 286.17 280.452C286.17 279.86 286.398 279.396 286.854 279.06C287.31 278.724 287.93 278.556 288.714 278.556C289.09 278.556 289.454 278.588 289.806 278.652C290.158 278.716 290.458 278.804 290.706 278.916V280.08C290.058 279.832 289.414 279.708 288.774 279.708C287.998 279.708 287.61 279.924 287.61 280.356C287.61 280.524 287.678 280.664 287.814 280.776C287.95 280.88 288.178 280.976 288.498 281.064L289.434 281.328C290.05 281.504 290.486 281.732 290.742 282.012C290.998 282.284 291.126 282.668 291.126 283.164C291.126 283.796 290.894 284.284 290.43 284.628C289.966 284.972 289.306 285.144 288.45 285.144C288.058 285.144 287.666 285.104 287.274 285.024C286.882 284.944 286.562 284.84 286.314 284.712ZM297.301 284.7C297.037 284.836 296.717 284.944 296.341 285.024C295.965 285.104 295.565 285.144 295.141 285.144C294.101 285.144 293.305 284.86 292.753 284.292C292.209 283.724 291.937 282.896 291.937 281.808C291.937 280.768 292.197 279.968 292.717 279.408C293.245 278.84 293.985 278.556 294.937 278.556C295.817 278.556 296.481 278.808 296.929 279.312C297.377 279.808 297.601 280.52 297.601 281.448V282.264H293.389C293.445 282.864 293.625 283.3 293.929 283.572C294.241 283.844 294.693 283.98 295.285 283.98C295.637 283.98 295.969 283.948 296.281 283.884C296.593 283.812 296.933 283.7 297.301 283.548V284.7ZM294.925 279.66C293.965 279.66 293.449 280.184 293.377 281.232H296.257C296.249 280.184 295.805 279.66 294.925 279.66Z" fill="white"/>
<line x1="1" y1="256.5" x2="736" y2="256.5" stroke="white"/>
</g>
<defs>
<linearGradient id="paint0_linear_1284_12268" x1="287" y1="81.0001" x2="568" y2="81.0001" gradientUnits="userSpaceOnUse">
<stop stop-color="#F77567"/>
<stop offset="0.261288" stop-color="#F68537"/>
</linearGradient>
<linearGradient id="paint1_linear_1284_12268" x1="21" y1="281" x2="52" y2="281" gradientUnits="userSpaceOnUse">
<stop stop-color="#F77567"/>
<stop offset="0.261288" stop-color="#F68537"/>
</linearGradient>
<linearGradient id="paint2_linear_1284_12268" x1="399" y1="145" x2="511" y2="145" gradientUnits="userSpaceOnUse">
<stop stop-color="#137BFB"/>
<stop offset="1" stop-color="#03A4DE"/>
</linearGradient>
<linearGradient id="paint3_linear_1284_12268" x1="456" y1="209" x2="735" y2="209" gradientUnits="userSpaceOnUse">
<stop stop-color="#F77567"/>
<stop offset="0.247104" stop-color="#F68537"/>
</linearGradient>
<linearGradient id="paint4_linear_1284_12268" x1="344" y1="17" x2="399" y2="17" gradientUnits="userSpaceOnUse">
<stop stop-color="#5D68DB"/>
<stop offset="1" stop-color="#8B79E4"/>
</linearGradient>
<linearGradient id="paint5_linear_1284_12268" x1="624" y1="17" x2="679" y2="17" gradientUnits="userSpaceOnUse">
<stop stop-color="#5D68DB"/>
<stop offset="1" stop-color="#8B79E4"/>
</linearGradient>
<linearGradient id="paint6_linear_1284_12268" x1="512" y1="17" x2="567" y2="17" gradientUnits="userSpaceOnUse">
<stop stop-color="#5D68DB"/>
<stop offset="1" stop-color="#8B79E4"/>
</linearGradient>
<linearGradient id="paint7_linear_1284_12268" x1="400" y1="17" x2="455" y2="17" gradientUnits="userSpaceOnUse">
<stop stop-color="#137BFB"/>
<stop offset="1" stop-color="#03A4DE"/>
</linearGradient>
<linearGradient id="paint8_linear_1284_12268" x1="160" y1="281" x2="191" y2="281" gradientUnits="userSpaceOnUse">
<stop stop-color="#137BFB"/>
<stop offset="1" stop-color="#03A4DE"/>
</linearGradient>
<clipPath id="clip0_1284_12268">
<rect width="736" height="307" rx="6" fill="white"/>
</clipPath>
<clipPath id="clip1_1284_12268">
<rect width="20" height="20" fill="white" transform="translate(540 71)"/>
</clipPath>
<clipPath id="clip2_1284_12268">
<rect width="20" height="20" fill="white" transform="translate(540 71)"/>
</clipPath>
<clipPath id="clip3_1284_12268">
<rect width="20" height="20" fill="white" transform="translate(484 135)"/>
</clipPath>
<clipPath id="clip4_1284_12268">
<rect width="20" height="20" fill="white" transform="translate(484 135)"/>
</clipPath>
<clipPath id="clip5_1284_12268">
<rect width="20" height="20" fill="white" transform="translate(708 199)"/>
</clipPath>
<clipPath id="clip6_1284_12268">
<rect width="20" height="20" fill="white" transform="translate(708 199)"/>
</clipPath>
</defs>
</svg>
