<svg width="867" height="222" viewBox="0 0 867 222" fill="none" xmlns="http://www.w3.org/2000/svg">
<path d="M172 109C172 108.448 172.448 108 173 108H211C211.552 108 212 108.448 212 109V109C212 109.552 211.552 110 211 110H173C172.448 110 172 109.552 172 109V109Z" fill="#FF9142"/>
<g filter="url(#filter0_dd_593_3247)">
<rect x="20" y="65" width="150" height="88" rx="8" fill="#1E2631"/>
<rect x="20.5" y="65.5" width="149" height="87" rx="7.5" stroke="white"/>
</g>
<circle cx="170" cy="109" r="3" fill="white"/>
<g filter="url(#filter1_dd_593_3247)">
<rect x="402" y="20" width="229" height="172" rx="8" fill="#1E2631"/>
<rect x="402.5" y="20.5" width="228" height="171" rx="7.5" stroke="white"/>
</g>
<path d="M402 28C402 23.5817 405.582 20 410 20H623C627.418 20 631 23.5817 631 28V52H402V28Z" fill="white"/>
<path d="M464.016 37.2656V35.9922H459.266V37.7109H461.719L461.711 37.8906C461.664 39.2891 460.594 40.2344 459.055 40.2344C457.18 40.2344 455.992 38.7422 455.992 36.2969C455.992 33.8984 457.109 32.4844 458.969 32.4844C460.242 32.4844 461.203 33.1875 461.547 34.3672H463.914C463.578 32.0859 461.594 30.5312 458.961 30.5312C455.648 30.5312 453.586 32.7188 453.586 36.3281C453.586 39.9922 455.648 42.1875 459.016 42.1875C462.156 42.1875 464.016 40.3359 464.016 37.2656ZM465.383 42H467.664V37.3203C467.664 36.1406 468.32 35.4531 469.445 35.4531C469.773 35.4531 470.086 35.5078 470.273 35.5859V33.5781C470.117 33.5312 469.891 33.4922 469.625 33.4922C468.641 33.4922 467.93 34.0703 467.633 35.1328H467.586V33.625H465.383V42ZM473.492 42.1328C474.539 42.1328 475.578 41.6094 476.047 40.7188H476.094V42H478.297V36.2422C478.297 34.5547 476.898 33.4453 474.75 33.4453C472.531 33.4453 471.148 34.5625 471.062 36.1875H473.148C473.258 35.5703 473.797 35.1484 474.648 35.1484C475.508 35.1484 476.055 35.6016 476.055 36.3828V36.9375L473.945 37.0625C471.859 37.1875 470.688 38.0703 470.688 39.5938C470.688 41.1016 471.898 42.1328 473.492 42.1328ZM474.242 40.4844C473.469 40.4844 472.953 40.0938 472.953 39.4688C472.953 38.875 473.438 38.4922 474.289 38.4297L476.055 38.3203V38.9297C476.055 39.8359 475.234 40.4844 474.242 40.4844ZM482.258 42.1328C483.305 42.1328 484.344 41.6094 484.812 40.7188H484.859V42H487.062V36.2422C487.062 34.5547 485.664 33.4453 483.516 33.4453C481.297 33.4453 479.914 34.5625 479.828 36.1875H481.914C482.023 35.5703 482.562 35.1484 483.414 35.1484C484.273 35.1484 484.82 35.6016 484.82 36.3828V36.9375L482.711 37.0625C480.625 37.1875 479.453 38.0703 479.453 39.5938C479.453 41.1016 480.664 42.1328 482.258 42.1328ZM483.008 40.4844C482.234 40.4844 481.719 40.0938 481.719 39.4688C481.719 38.875 482.203 38.4922 483.055 38.4297L484.82 38.3203V38.9297C484.82 39.8359 484 40.4844 483.008 40.4844ZM488.594 42H490.875V30.7266H488.594V42ZM500.766 42.1875C503.531 42.1875 505.461 40.6016 505.727 38.0859H503.43C503.18 39.4219 502.172 40.2422 500.773 40.2422C498.969 40.2422 497.836 38.7578 497.836 36.3516C497.836 33.9766 498.984 32.4844 500.766 32.4844C502.141 32.4844 503.203 33.3906 503.422 34.7734H505.719C505.539 32.25 503.477 30.5312 500.766 30.5312C497.5 30.5312 495.43 32.7266 495.43 36.3594C495.43 40 497.484 42.1875 500.766 42.1875ZM507.047 42H509.328V30.7266H507.047V42ZM514.711 42.1797C517.242 42.1797 518.859 40.5625 518.859 37.8047C518.859 35.0859 517.219 33.4453 514.711 33.4453C512.203 33.4453 510.562 35.0938 510.562 37.8047C510.562 40.5547 512.18 42.1797 514.711 42.1797ZM514.711 40.4375C513.586 40.4375 512.875 39.4922 512.875 37.8125C512.875 36.1484 513.602 35.1875 514.711 35.1875C515.82 35.1875 516.539 36.1484 516.539 37.8125C516.539 39.4922 515.828 40.4375 514.711 40.4375ZM527.773 33.625H525.492V38.4219C525.492 39.5312 524.859 40.2578 523.844 40.2578C522.836 40.2578 522.281 39.6641 522.281 38.5469V33.625H520V39.0234C520 40.9766 521.203 42.1562 523.016 42.1562C524.281 42.1562 525.109 41.5469 525.523 40.4922H525.57V42H527.773V33.625ZM532.367 42.1328C533.602 42.1328 534.57 41.4844 534.977 40.5625H535.016V42H537.266V30.7266H534.984V35.0625H534.938C534.531 34.1328 533.594 33.4922 532.383 33.4922C530.281 33.4922 528.953 35.1406 528.953 37.7969C528.953 40.4766 530.273 42.1328 532.367 42.1328ZM533.141 35.3203C534.273 35.3203 535 36.2891 535 37.8125C535 39.3438 534.273 40.2969 533.141 40.2969C531.992 40.2969 531.289 39.3516 531.289 37.8125C531.289 36.2812 531.992 35.3203 533.141 35.3203ZM547.211 42V32.6719H550.477V30.7266H541.594V32.6719H544.852V42H547.211ZM553.586 42.1797C556.117 42.1797 557.734 40.5625 557.734 37.8047C557.734 35.0859 556.094 33.4453 553.586 33.4453C551.078 33.4453 549.438 35.0938 549.438 37.8047C549.438 40.5547 551.055 42.1797 553.586 42.1797ZM553.586 40.4375C552.461 40.4375 551.75 39.4922 551.75 37.8125C551.75 36.1484 552.477 35.1875 553.586 35.1875C554.695 35.1875 555.414 36.1484 555.414 37.8125C555.414 39.4922 554.703 40.4375 553.586 40.4375ZM562.758 42.1797C565.289 42.1797 566.906 40.5625 566.906 37.8047C566.906 35.0859 565.266 33.4453 562.758 33.4453C560.25 33.4453 558.609 35.0938 558.609 37.8047C558.609 40.5547 560.227 42.1797 562.758 42.1797ZM562.758 40.4375C561.633 40.4375 560.922 39.4922 560.922 37.8125C560.922 36.1484 561.648 35.1875 562.758 35.1875C563.867 35.1875 564.586 36.1484 564.586 37.8125C564.586 39.4922 563.875 40.4375 562.758 40.4375ZM568.141 42H570.422V30.7266H568.141V42ZM571.82 36.0859C571.82 37.3438 572.641 38.1562 574.258 38.5L575.688 38.7969C576.508 38.9844 576.797 39.2344 576.797 39.6797C576.797 40.2266 576.266 40.5781 575.406 40.5781C574.5 40.5781 573.977 40.1875 573.836 39.4531H571.609C571.758 41.1016 573.094 42.1797 575.406 42.1797C577.562 42.1797 579.07 41.0938 579.07 39.4453C579.07 38.2188 578.352 37.5312 576.602 37.1641L575.172 36.8594C574.328 36.6797 574.016 36.3906 574.016 35.9609C574.016 35.4062 574.539 35.0469 575.328 35.0469C576.172 35.0469 576.68 35.5078 576.75 36.1875H578.852C578.805 34.5469 577.477 33.4453 575.328 33.4453C573.195 33.4453 571.82 34.4922 571.82 36.0859Z" fill="#1E2631"/>
<path d="M459.859 81.2969V80.0938H455.172V81.6328H457.891L457.883 81.8203C457.852 83.3984 456.672 84.4766 454.969 84.4766C452.938 84.4766 451.672 82.8906 451.672 80.2969C451.672 77.7578 452.883 76.25 454.914 76.25C456.297 76.25 457.344 77.0156 457.727 78.3125H459.773C459.406 76.0547 457.469 74.5391 454.906 74.5391C451.648 74.5391 449.609 76.7422 449.609 80.3203C449.609 83.9531 451.656 86.1875 454.945 86.1875C458.031 86.1875 459.859 84.3516 459.859 81.2969ZM461.312 86H463.258V81.1797C463.258 80.0156 463.922 79.3047 465.023 79.3047C465.352 79.3047 465.648 79.3516 465.812 79.4141V77.6562C465.672 77.625 465.453 77.5781 465.203 77.5781C464.227 77.5781 463.5 78.1562 463.219 79.1641H463.18V77.7188H461.312V86ZM469.062 86.1328C470.125 86.1328 471.164 85.5781 471.641 84.6797H471.68V86H473.555V80.2969C473.555 78.6328 472.219 77.5469 470.164 77.5469C468.055 77.5469 466.734 78.6562 466.648 80.2031H468.453C468.578 79.5156 469.164 79.0703 470.086 79.0703C471.047 79.0703 471.633 79.5703 471.633 80.4375V81.0312L469.445 81.1562C467.43 81.2812 466.297 82.1641 466.297 83.6328C466.297 85.125 467.461 86.1328 469.062 86.1328ZM469.648 84.6641C468.805 84.6641 468.242 84.2344 468.242 83.5547C468.242 82.8984 468.781 82.4766 469.719 82.4141L471.633 82.2969V82.9297C471.633 83.9297 470.75 84.6641 469.648 84.6641ZM477.562 86.1328C478.625 86.1328 479.664 85.5781 480.141 84.6797H480.18V86H482.055V80.2969C482.055 78.6328 480.719 77.5469 478.664 77.5469C476.555 77.5469 475.234 78.6562 475.148 80.2031H476.953C477.078 79.5156 477.664 79.0703 478.586 79.0703C479.547 79.0703 480.133 79.5703 480.133 80.4375V81.0312L477.945 81.1562C475.93 81.2812 474.797 82.1641 474.797 83.6328C474.797 85.125 475.961 86.1328 477.562 86.1328ZM478.148 84.6641C477.305 84.6641 476.742 84.2344 476.742 83.5547C476.742 82.8984 477.281 82.4766 478.219 82.4141L480.133 82.2969V82.9297C480.133 83.9297 479.25 84.6641 478.148 84.6641ZM483.68 86H485.625V74.7266H483.68V86ZM492.93 86L496.852 74.7266H494.68L491.82 83.8359H491.773L488.914 74.7266H486.695L490.617 86H492.93ZM509.688 86V74.7266H507.359L503.906 83.3281H503.844L500.391 74.7266H498.055V86H499.875V78H499.93L503.188 86H504.562L507.82 78H507.875V86H509.688ZM520.172 83.5234C519.961 84.2109 519.273 84.6641 518.367 84.6641C517.094 84.6641 516.281 83.7734 516.281 82.4453V82.3281H522.07V81.6953C522.07 79.1797 520.602 77.5469 518.25 77.5469C515.859 77.5469 514.344 79.2734 514.344 81.8906C514.344 84.5312 515.844 86.1641 518.328 86.1641C520.289 86.1641 521.742 85.0859 521.992 83.5234H520.172ZM518.258 79.0547C519.375 79.0547 520.125 79.875 520.164 81.0469H516.297C516.375 79.8906 517.164 79.0547 518.258 79.0547ZM526.422 83.0312L528.141 86H530.266L527.633 81.8125L530.297 77.7188H528.164L526.516 80.625H526.477L524.805 77.7188H522.617L525.266 81.8672L522.594 86H524.664L526.383 83.0312H526.422ZM531.836 75.7812V77.7188H530.648V79.2188H531.836V83.7969C531.836 85.4062 532.539 86.0391 534.328 86.0391C534.742 86.0391 535.125 86.0078 535.336 85.9609V84.4766C535.211 84.5 534.961 84.5156 534.781 84.5156C534.094 84.5156 533.781 84.2031 533.781 83.5234V79.2188H535.344V77.7188H533.781V75.7812H531.836ZM542 83.5234C541.789 84.2109 541.102 84.6641 540.195 84.6641C538.922 84.6641 538.109 83.7734 538.109 82.4453V82.3281H543.898V81.6953C543.898 79.1797 542.43 77.5469 540.078 77.5469C537.688 77.5469 536.172 79.2734 536.172 81.8906C536.172 84.5312 537.672 86.1641 540.156 86.1641C542.117 86.1641 543.57 85.0859 543.82 83.5234H542ZM540.086 79.0547C541.203 79.0547 541.953 79.875 541.992 81.0469H538.125C538.203 79.8906 538.992 79.0547 540.086 79.0547ZM545.156 86H547.102V81.2031C547.102 80.0156 547.812 79.2109 548.93 79.2109C550.039 79.2109 550.586 79.8672 550.586 81.0391V86H552.531V80.6484C552.531 78.7344 551.492 77.5625 549.664 77.5625C548.391 77.5625 547.508 78.1562 547.062 79.1406H547.023V77.7188H545.156V86ZM553.945 80.0938C553.945 81.3203 554.742 82.1016 556.328 82.4531L557.703 82.7578C558.57 82.9531 558.867 83.2344 558.867 83.7344C558.867 84.3516 558.281 84.7422 557.336 84.7422C556.352 84.7422 555.797 84.3359 555.648 83.5312H553.734C553.891 85.1328 555.172 86.1641 557.336 86.1641C559.367 86.1641 560.805 85.1094 560.805 83.5469C560.805 82.3438 560.141 81.6797 558.422 81.2969L557.047 80.9922C556.18 80.7969 555.836 80.4688 555.836 79.9922C555.836 79.3828 556.406 78.9766 557.266 78.9766C558.164 78.9766 558.719 79.4531 558.797 80.2031H560.609C560.562 78.6328 559.281 77.5469 557.266 77.5469C555.266 77.5469 553.945 78.5781 553.945 80.0938ZM563.062 76.4688C563.656 76.4688 564.125 75.9922 564.125 75.4141C564.125 74.8281 563.656 74.3594 563.062 74.3594C562.469 74.3594 561.992 74.8281 561.992 75.4141C561.992 75.9922 562.469 76.4688 563.062 76.4688ZM562.094 86H564.039V77.7188H562.094V86ZM569.336 86.1641C571.766 86.1641 573.344 84.5469 573.344 81.8594C573.344 79.1797 571.75 77.5469 569.336 77.5469C566.922 77.5469 565.328 79.1875 565.328 81.8594C565.328 84.5469 566.906 86.1641 569.336 86.1641ZM569.336 84.625C568.102 84.625 567.305 83.625 567.305 81.8594C567.305 80.1016 568.109 79.0938 569.336 79.0938C570.57 79.0938 571.367 80.1016 571.367 81.8594C571.367 83.625 570.57 84.625 569.336 84.625ZM574.594 86H576.539V81.2031C576.539 80.0156 577.25 79.2109 578.367 79.2109C579.477 79.2109 580.023 79.8672 580.023 81.0391V86H581.969V80.6484C581.969 78.7344 580.93 77.5625 579.102 77.5625C577.828 77.5625 576.945 78.1562 576.5 79.1406H576.461V77.7188H574.594V86Z" fill="white"/>
<path d="M456.625 114V102.727H454.297L450.844 111.328H450.781L447.328 102.727H444.992V114H446.812V106H446.867L450.125 114H451.5L454.758 106H454.812V114H456.625ZM459.438 104.469C460.031 104.469 460.5 103.992 460.5 103.414C460.5 102.828 460.031 102.359 459.438 102.359C458.844 102.359 458.367 102.828 458.367 103.414C458.367 103.992 458.844 104.469 459.438 104.469ZM458.469 114H460.414V105.719H458.469V114ZM469.344 108.672C469.211 106.93 467.859 105.547 465.672 105.547C463.266 105.547 461.703 107.211 461.703 109.859C461.703 112.547 463.266 114.164 465.688 114.164C467.766 114.164 469.195 112.945 469.352 111.094H467.516C467.336 112.031 466.695 112.594 465.711 112.594C464.477 112.594 463.68 111.594 463.68 109.859C463.68 108.156 464.469 107.125 465.695 107.125C466.734 107.125 467.352 107.789 467.508 108.672H469.344ZM470.516 114H472.461V109.18C472.461 108.016 473.125 107.305 474.227 107.305C474.555 107.305 474.852 107.352 475.016 107.414V105.656C474.875 105.625 474.656 105.578 474.406 105.578C473.43 105.578 472.703 106.156 472.422 107.164H472.383V105.719H470.516V114ZM479.367 114.164C481.797 114.164 483.375 112.547 483.375 109.859C483.375 107.18 481.781 105.547 479.367 105.547C476.953 105.547 475.359 107.188 475.359 109.859C475.359 112.547 476.938 114.164 479.367 114.164ZM479.367 112.625C478.133 112.625 477.336 111.625 477.336 109.859C477.336 108.102 478.141 107.094 479.367 107.094C480.602 107.094 481.398 108.102 481.398 109.859C481.398 111.625 480.602 112.625 479.367 112.625ZM484.625 114H486.57V109.203C486.57 108.016 487.281 107.211 488.398 107.211C489.508 107.211 490.055 107.867 490.055 109.039V114H492V108.648C492 106.734 490.961 105.562 489.133 105.562C487.859 105.562 486.977 106.156 486.531 107.141H486.492V105.719H484.625V114ZM496 114.133C497.062 114.133 498.102 113.578 498.578 112.68H498.617V114H500.492V108.297C500.492 106.633 499.156 105.547 497.102 105.547C494.992 105.547 493.672 106.656 493.586 108.203H495.391C495.516 107.516 496.102 107.07 497.023 107.07C497.984 107.07 498.57 107.57 498.57 108.438V109.031L496.383 109.156C494.367 109.281 493.234 110.164 493.234 111.633C493.234 113.125 494.398 114.133 496 114.133ZM496.586 112.664C495.742 112.664 495.18 112.234 495.18 111.555C495.18 110.898 495.719 110.477 496.656 110.414L498.57 110.297V110.93C498.57 111.93 497.688 112.664 496.586 112.664ZM509.406 105.719H507.461V110.508C507.461 111.711 506.766 112.508 505.641 112.508C504.547 112.508 503.969 111.867 503.969 110.68V105.719H502.023V111.07C502.023 112.984 503.164 114.148 504.961 114.148C506.219 114.148 507.055 113.57 507.492 112.562H507.531V114H509.406V105.719ZM511.539 103.781V105.719H510.352V107.219H511.539V111.797C511.539 113.406 512.242 114.039 514.031 114.039C514.445 114.039 514.828 114.008 515.039 113.961V112.477C514.914 112.5 514.664 112.516 514.484 112.516C513.797 112.516 513.484 112.203 513.484 111.523V107.219H515.047V105.719H513.484V103.781H511.539ZM525.062 111.523C524.852 112.211 524.164 112.664 523.258 112.664C521.984 112.664 521.172 111.773 521.172 110.445V110.328H526.961V109.695C526.961 107.18 525.492 105.547 523.141 105.547C520.75 105.547 519.234 107.273 519.234 109.891C519.234 112.531 520.734 114.164 523.219 114.164C525.18 114.164 526.633 113.086 526.883 111.523H525.062ZM523.148 107.055C524.266 107.055 525.016 107.875 525.055 109.047H521.188C521.266 107.891 522.055 107.055 523.148 107.055ZM531.312 111.031L533.031 114H535.156L532.523 109.812L535.188 105.719H533.055L531.406 108.625H531.367L529.695 105.719H527.508L530.156 109.867L527.484 114H529.555L531.273 111.031H531.312ZM536.727 103.781V105.719H535.539V107.219H536.727V111.797C536.727 113.406 537.43 114.039 539.219 114.039C539.633 114.039 540.016 114.008 540.227 113.961V112.477C540.102 112.5 539.852 112.516 539.672 112.516C538.984 112.516 538.672 112.203 538.672 111.523V107.219H540.234V105.719H538.672V103.781H536.727ZM546.891 111.523C546.68 112.211 545.992 112.664 545.086 112.664C543.812 112.664 543 111.773 543 110.445V110.328H548.789V109.695C548.789 107.18 547.32 105.547 544.969 105.547C542.578 105.547 541.062 107.273 541.062 109.891C541.062 112.531 542.562 114.164 545.047 114.164C547.008 114.164 548.461 113.086 548.711 111.523H546.891ZM544.977 107.055C546.094 107.055 546.844 107.875 546.883 109.047H543.016C543.094 107.891 543.883 107.055 544.977 107.055ZM550.047 114H551.992V109.203C551.992 108.016 552.703 107.211 553.82 107.211C554.93 107.211 555.477 107.867 555.477 109.039V114H557.422V108.648C557.422 106.734 556.383 105.562 554.555 105.562C553.281 105.562 552.398 106.156 551.953 107.141H551.914V105.719H550.047V114ZM558.836 108.094C558.836 109.32 559.633 110.102 561.219 110.453L562.594 110.758C563.461 110.953 563.758 111.234 563.758 111.734C563.758 112.352 563.172 112.742 562.227 112.742C561.242 112.742 560.688 112.336 560.539 111.531H558.625C558.781 113.133 560.062 114.164 562.227 114.164C564.258 114.164 565.695 113.109 565.695 111.547C565.695 110.344 565.031 109.68 563.312 109.297L561.938 108.992C561.07 108.797 560.727 108.469 560.727 107.992C560.727 107.383 561.297 106.977 562.156 106.977C563.055 106.977 563.609 107.453 563.688 108.203H565.5C565.453 106.633 564.172 105.547 562.156 105.547C560.156 105.547 558.836 106.578 558.836 108.094ZM567.953 104.469C568.547 104.469 569.016 103.992 569.016 103.414C569.016 102.828 568.547 102.359 567.953 102.359C567.359 102.359 566.883 102.828 566.883 103.414C566.883 103.992 567.359 104.469 567.953 104.469ZM566.984 114H568.93V105.719H566.984V114ZM574.227 114.164C576.656 114.164 578.234 112.547 578.234 109.859C578.234 107.18 576.641 105.547 574.227 105.547C571.812 105.547 570.219 107.188 570.219 109.859C570.219 112.547 571.797 114.164 574.227 114.164ZM574.227 112.625C572.992 112.625 572.195 111.625 572.195 109.859C572.195 108.102 573 107.094 574.227 107.094C575.461 107.094 576.258 108.102 576.258 109.859C576.258 111.625 575.461 112.625 574.227 112.625ZM579.484 114H581.43V109.203C581.43 108.016 582.141 107.211 583.258 107.211C584.367 107.211 584.914 107.867 584.914 109.039V114H586.859V108.648C586.859 106.734 585.82 105.562 583.992 105.562C582.719 105.562 581.836 106.156 581.391 107.141H581.352V105.719H579.484V114Z" fill="white"/>
<path d="M453.859 137.297V136.094H449.172V137.633H451.891L451.883 137.82C451.852 139.398 450.672 140.477 448.969 140.477C446.938 140.477 445.672 138.891 445.672 136.297C445.672 133.758 446.883 132.25 448.914 132.25C450.297 132.25 451.344 133.016 451.727 134.312H453.773C453.406 132.055 451.469 130.539 448.906 130.539C445.648 130.539 443.609 132.742 443.609 136.32C443.609 139.953 445.656 142.188 448.945 142.188C452.031 142.188 453.859 140.352 453.859 137.297ZM460.367 142.188C463.031 142.188 464.875 140.727 465.227 138.312H463.25C462.938 139.672 461.867 140.477 460.375 140.477C458.422 140.477 457.188 138.891 457.188 136.359C457.188 133.844 458.43 132.25 460.367 132.25C461.828 132.25 462.977 133.18 463.242 134.594H465.227C464.977 132.172 462.984 130.539 460.367 130.539C457.164 130.539 455.125 132.766 455.125 136.359C455.125 139.977 457.148 142.188 460.367 142.188ZM468.703 142V134.094H468.773L474.375 142H476.109V130.727H474.172V138.625H474.102L468.508 130.727H466.758V142H468.703ZM488.672 142H490.797L486.797 130.727H484.523L480.523 142H482.602L483.562 139.086H487.711L488.672 142ZM485.609 132.719H485.664L487.234 137.531H484.031L485.609 132.719ZM496.359 133.578C495.156 133.578 494.219 134.188 493.75 135.148H493.711V133.719H491.812V144.727H493.758V140.625H493.797C494.25 141.555 495.188 142.133 496.391 142.133C498.469 142.133 499.797 140.5 499.797 137.859C499.797 135.211 498.461 133.578 496.359 133.578ZM495.766 140.539C494.555 140.539 493.75 139.484 493.742 137.859C493.75 136.25 494.555 135.18 495.766 135.18C497.023 135.18 497.805 136.227 497.805 137.859C497.805 139.5 497.023 140.539 495.766 140.539ZM505.594 133.578C504.391 133.578 503.453 134.188 502.984 135.148H502.945V133.719H501.047V144.727H502.992V140.625H503.031C503.484 141.555 504.422 142.133 505.625 142.133C507.703 142.133 509.031 140.5 509.031 137.859C509.031 135.211 507.695 133.578 505.594 133.578ZM505 140.539C503.789 140.539 502.984 139.484 502.977 137.859C502.984 136.25 503.789 135.18 505 135.18C506.258 135.18 507.039 136.227 507.039 137.859C507.039 139.5 506.258 140.539 505 140.539ZM517.133 145.125C519.547 145.125 521.133 143.844 521.133 141.867V133.719H519.227V135.141H519.195C518.719 134.188 517.766 133.578 516.586 133.578C514.469 133.578 513.141 135.211 513.141 137.828C513.141 140.406 514.5 142.008 516.547 142.008C517.734 142.008 518.711 141.414 519.141 140.523H519.188V141.922C519.188 142.977 518.461 143.688 517.195 143.688C516.273 143.688 515.562 143.258 515.352 142.625H513.422C513.617 144.078 515.086 145.125 517.133 145.125ZM517.141 140.461C515.914 140.461 515.133 139.477 515.133 137.836C515.133 136.211 515.914 135.18 517.141 135.18C518.383 135.18 519.188 136.227 519.188 137.836C519.188 139.453 518.383 140.461 517.141 140.461ZM528.203 139.523C527.992 140.211 527.305 140.664 526.398 140.664C525.125 140.664 524.312 139.773 524.312 138.445V138.328H530.102V137.695C530.102 135.18 528.633 133.547 526.281 133.547C523.891 133.547 522.375 135.273 522.375 137.891C522.375 140.531 523.875 142.164 526.359 142.164C528.32 142.164 529.773 141.086 530.023 139.523H528.203ZM526.289 135.055C527.406 135.055 528.156 135.875 528.195 137.047H524.328C524.406 135.891 525.195 135.055 526.289 135.055ZM531.359 142H533.305V137.203C533.305 136.016 534.016 135.211 535.133 135.211C536.242 135.211 536.789 135.867 536.789 137.039V142H538.734V136.648C538.734 134.734 537.695 133.562 535.867 133.562C534.594 133.562 533.711 134.156 533.266 135.141H533.227V133.719H531.359V142ZM545.781 139.523C545.57 140.211 544.883 140.664 543.977 140.664C542.703 140.664 541.891 139.773 541.891 138.445V138.328H547.68V137.695C547.68 135.18 546.211 133.547 543.859 133.547C541.469 133.547 539.953 135.273 539.953 137.891C539.953 140.531 541.453 142.164 543.938 142.164C545.898 142.164 547.352 141.086 547.602 139.523H545.781ZM543.867 135.055C544.984 135.055 545.734 135.875 545.773 137.047H541.906C541.984 135.891 542.773 135.055 543.867 135.055ZM548.938 142H550.883V137.18C550.883 136.016 551.547 135.305 552.648 135.305C552.977 135.305 553.273 135.352 553.438 135.414V133.656C553.297 133.625 553.078 133.578 552.828 133.578C551.852 133.578 551.125 134.156 550.844 135.164H550.805V133.719H548.938V142ZM556.688 142.133C557.75 142.133 558.789 141.578 559.266 140.68H559.305V142H561.18V136.297C561.18 134.633 559.844 133.547 557.789 133.547C555.68 133.547 554.359 134.656 554.273 136.203H556.078C556.203 135.516 556.789 135.07 557.711 135.07C558.672 135.07 559.258 135.57 559.258 136.438V137.031L557.07 137.156C555.055 137.281 553.922 138.164 553.922 139.633C553.922 141.125 555.086 142.133 556.688 142.133ZM557.273 140.664C556.43 140.664 555.867 140.234 555.867 139.555C555.867 138.898 556.406 138.477 557.344 138.414L559.258 138.297V138.93C559.258 139.93 558.375 140.664 557.273 140.664ZM563.289 131.781V133.719H562.102V135.219H563.289V139.797C563.289 141.406 563.992 142.039 565.781 142.039C566.195 142.039 566.578 142.008 566.789 141.961V140.477C566.664 140.5 566.414 140.516 566.234 140.516C565.547 140.516 565.234 140.203 565.234 139.523V135.219H566.797V133.719H565.234V131.781H563.289ZM569.141 132.469C569.734 132.469 570.203 131.992 570.203 131.414C570.203 130.828 569.734 130.359 569.141 130.359C568.547 130.359 568.07 130.828 568.07 131.414C568.07 131.992 568.547 132.469 569.141 132.469ZM568.172 142H570.117V133.719H568.172V142ZM575.414 142.164C577.844 142.164 579.422 140.547 579.422 137.859C579.422 135.18 577.828 133.547 575.414 133.547C573 133.547 571.406 135.188 571.406 137.859C571.406 140.547 572.984 142.164 575.414 142.164ZM575.414 140.625C574.18 140.625 573.383 139.625 573.383 137.859C573.383 136.102 574.188 135.094 575.414 135.094C576.648 135.094 577.445 136.102 577.445 137.859C577.445 139.625 576.648 140.625 575.414 140.625ZM580.672 142H582.617V137.203C582.617 136.016 583.328 135.211 584.445 135.211C585.555 135.211 586.102 135.867 586.102 137.039V142H588.047V136.648C588.047 134.734 587.008 133.562 585.18 133.562C583.906 133.562 583.023 134.156 582.578 135.141H582.539V133.719H580.672V142Z" fill="white"/>
<path d="M444.859 165.297V164.094H440.172V165.633H442.891L442.883 165.82C442.852 167.398 441.672 168.477 439.969 168.477C437.938 168.477 436.672 166.891 436.672 164.297C436.672 161.758 437.883 160.25 439.914 160.25C441.297 160.25 442.344 161.016 442.727 162.312H444.773C444.406 160.055 442.469 158.539 439.906 158.539C436.648 158.539 434.609 160.742 434.609 164.32C434.609 167.953 436.656 170.188 439.945 170.188C443.031 170.188 444.859 168.352 444.859 165.297ZM451.367 170.188C454.031 170.188 455.875 168.727 456.227 166.312H454.25C453.938 167.672 452.867 168.477 451.375 168.477C449.422 168.477 448.188 166.891 448.188 164.359C448.188 161.844 449.43 160.25 451.367 160.25C452.828 160.25 453.977 161.18 454.242 162.594H456.227C455.977 160.172 453.984 158.539 451.367 158.539C448.164 158.539 446.125 160.766 446.125 164.359C446.125 167.977 448.148 170.188 451.367 170.188ZM459.703 170V162.094H459.773L465.375 170H467.109V158.727H465.172V166.625H465.102L459.508 158.727H457.758V170H459.703ZM479.672 170H481.797L477.797 158.727H475.523L471.523 170H473.602L474.562 167.086H478.711L479.672 170ZM476.609 160.719H476.664L478.234 165.531H475.031L476.609 160.719ZM487.359 161.578C486.156 161.578 485.219 162.188 484.75 163.148H484.711V161.719H482.812V172.727H484.758V168.625H484.797C485.25 169.555 486.188 170.133 487.391 170.133C489.469 170.133 490.797 168.5 490.797 165.859C490.797 163.211 489.461 161.578 487.359 161.578ZM486.766 168.539C485.555 168.539 484.75 167.484 484.742 165.859C484.75 164.25 485.555 163.18 486.766 163.18C488.023 163.18 488.805 164.227 488.805 165.859C488.805 167.5 488.023 168.539 486.766 168.539ZM496.594 161.578C495.391 161.578 494.453 162.188 493.984 163.148H493.945V161.719H492.047V172.727H493.992V168.625H494.031C494.484 169.555 495.422 170.133 496.625 170.133C498.703 170.133 500.031 168.5 500.031 165.859C500.031 163.211 498.695 161.578 496.594 161.578ZM496 168.539C494.789 168.539 493.984 167.484 493.977 165.859C493.984 164.25 494.789 163.18 496 163.18C497.258 163.18 498.039 164.227 498.039 165.859C498.039 167.5 497.258 168.539 496 168.539ZM511.781 164.672C511.648 162.93 510.297 161.547 508.109 161.547C505.703 161.547 504.141 163.211 504.141 165.859C504.141 168.547 505.703 170.164 508.125 170.164C510.203 170.164 511.633 168.945 511.789 167.094H509.953C509.773 168.031 509.133 168.594 508.148 168.594C506.914 168.594 506.117 167.594 506.117 165.859C506.117 164.156 506.906 163.125 508.133 163.125C509.172 163.125 509.789 163.789 509.945 164.672H511.781ZM516.617 170.164C519.047 170.164 520.625 168.547 520.625 165.859C520.625 163.18 519.031 161.547 516.617 161.547C514.203 161.547 512.609 163.188 512.609 165.859C512.609 168.547 514.188 170.164 516.617 170.164ZM516.617 168.625C515.383 168.625 514.586 167.625 514.586 165.859C514.586 164.102 515.391 163.094 516.617 163.094C517.852 163.094 518.648 164.102 518.648 165.859C518.648 167.625 517.852 168.625 516.617 168.625ZM521.875 170H523.82V165.203C523.82 164.016 524.531 163.211 525.648 163.211C526.758 163.211 527.305 163.867 527.305 165.039V170H529.25V164.648C529.25 162.734 528.211 161.562 526.383 161.562C525.109 161.562 524.227 162.156 523.781 163.141H523.742V161.719H521.875V170ZM531.352 170H533.297V163.219H534.922V161.742H533.266V161.062C533.266 160.391 533.602 160.039 534.344 160.039C534.57 160.039 534.797 160.062 534.961 160.086V158.727C534.719 158.68 534.297 158.641 533.914 158.641C532.117 158.641 531.352 159.398 531.352 161.008V161.742H530.219V163.219H531.352V170ZM537.219 160.469C537.812 160.469 538.281 159.992 538.281 159.414C538.281 158.828 537.812 158.359 537.219 158.359C536.625 158.359 536.148 158.828 536.148 159.414C536.148 159.992 536.625 160.469 537.219 160.469ZM536.25 170H538.195V161.719H536.25V170ZM543.477 173.125C545.891 173.125 547.477 171.844 547.477 169.867V161.719H545.57V163.141H545.539C545.062 162.188 544.109 161.578 542.93 161.578C540.812 161.578 539.484 163.211 539.484 165.828C539.484 168.406 540.844 170.008 542.891 170.008C544.078 170.008 545.055 169.414 545.484 168.523H545.531V169.922C545.531 170.977 544.805 171.688 543.539 171.688C542.617 171.688 541.906 171.258 541.695 170.625H539.766C539.961 172.078 541.43 173.125 543.477 173.125ZM543.484 168.461C542.258 168.461 541.477 167.477 541.477 165.836C541.477 164.211 542.258 163.18 543.484 163.18C544.727 163.18 545.531 164.227 545.531 165.836C545.531 167.453 544.727 168.461 543.484 168.461ZM556.406 161.719H554.461V166.508C554.461 167.711 553.766 168.508 552.641 168.508C551.547 168.508 550.969 167.867 550.969 166.68V161.719H549.023V167.07C549.023 168.984 550.164 170.148 551.961 170.148C553.219 170.148 554.055 169.57 554.492 168.562H554.531V170H556.406V161.719ZM558 170H559.945V165.18C559.945 164.016 560.609 163.305 561.711 163.305C562.039 163.305 562.336 163.352 562.5 163.414V161.656C562.359 161.625 562.141 161.578 561.891 161.578C560.914 161.578 560.188 162.156 559.906 163.164H559.867V161.719H558V170ZM565.75 170.133C566.812 170.133 567.852 169.578 568.328 168.68H568.367V170H570.242V164.297C570.242 162.633 568.906 161.547 566.852 161.547C564.742 161.547 563.422 162.656 563.336 164.203H565.141C565.266 163.516 565.852 163.07 566.773 163.07C567.734 163.07 568.32 163.57 568.32 164.438V165.031L566.133 165.156C564.117 165.281 562.984 166.164 562.984 167.633C562.984 169.125 564.148 170.133 565.75 170.133ZM566.336 168.664C565.492 168.664 564.93 168.234 564.93 167.555C564.93 166.898 565.469 166.477 566.406 166.414L568.32 166.297V166.93C568.32 167.93 567.438 168.664 566.336 168.664ZM572.352 159.781V161.719H571.164V163.219H572.352V167.797C572.352 169.406 573.055 170.039 574.844 170.039C575.258 170.039 575.641 170.008 575.852 169.961V168.477C575.727 168.5 575.477 168.516 575.297 168.516C574.609 168.516 574.297 168.203 574.297 167.523V163.219H575.859V161.719H574.297V159.781H572.352ZM578.203 160.469C578.797 160.469 579.266 159.992 579.266 159.414C579.266 158.828 578.797 158.359 578.203 158.359C577.609 158.359 577.133 158.828 577.133 159.414C577.133 159.992 577.609 160.469 578.203 160.469ZM577.234 170H579.18V161.719H577.234V170ZM584.477 170.164C586.906 170.164 588.484 168.547 588.484 165.859C588.484 163.18 586.891 161.547 584.477 161.547C582.062 161.547 580.469 163.188 580.469 165.859C580.469 168.547 582.047 170.164 584.477 170.164ZM584.477 168.625C583.242 168.625 582.445 167.625 582.445 165.859C582.445 164.102 583.25 163.094 584.477 163.094C585.711 163.094 586.508 164.102 586.508 165.859C586.508 167.625 585.711 168.625 584.477 168.625ZM589.734 170H591.68V165.203C591.68 164.016 592.391 163.211 593.508 163.211C594.617 163.211 595.164 163.867 595.164 165.039V170H597.109V164.648C597.109 162.734 596.07 161.562 594.242 161.562C592.969 161.562 592.086 162.156 591.641 163.141H591.602V161.719H589.734V170Z" fill="white"/>
<g filter="url(#filter2_dd_593_3247)">
<rect x="212" y="65" width="150" height="88" rx="8" fill="#1E2631"/>
<rect x="212.5" y="65.5" width="149" height="87" rx="7.5" stroke="white"/>
</g>
<path d="M212 73C212 68.5817 215.582 65 220 65H354C358.418 65 362 68.5817 362 73V92.0769H212V73Z" fill="white"/>
<path d="M256.242 81.064C256.242 83.2202 257.75 84.6108 260.055 84.6108C262.469 84.6108 263.906 83.2515 263.906 80.853V73.1108H261.547V80.8374C261.547 81.9702 261.016 82.5796 260.031 82.5796C259.141 82.5796 258.547 81.978 258.531 81.064H256.242ZM268.164 84.5171C269.211 84.5171 270.25 83.9937 270.719 83.103H270.766V84.3843H272.969V78.6265C272.969 76.939 271.57 75.8296 269.422 75.8296C267.203 75.8296 265.82 76.9468 265.734 78.5718H267.82C267.93 77.9546 268.469 77.5327 269.32 77.5327C270.18 77.5327 270.727 77.9858 270.727 78.7671V79.3218L268.617 79.4468C266.531 79.5718 265.359 80.4546 265.359 81.978C265.359 83.4858 266.57 84.5171 268.164 84.5171ZM268.914 82.8687C268.141 82.8687 267.625 82.478 267.625 81.853C267.625 81.2593 268.109 80.8765 268.961 80.814L270.727 80.7046V81.314C270.727 82.2202 269.906 82.8687 268.914 82.8687ZM282.055 76.0093H279.672L277.938 82.3687H277.891L276.148 76.0093H273.703L276.602 84.3843H279.18L282.055 76.0093ZM285.133 84.5171C286.18 84.5171 287.219 83.9937 287.688 83.103H287.734V84.3843H289.938V78.6265C289.938 76.939 288.539 75.8296 286.391 75.8296C284.172 75.8296 282.789 76.9468 282.703 78.5718H284.789C284.898 77.9546 285.438 77.5327 286.289 77.5327C287.148 77.5327 287.695 77.9858 287.695 78.7671V79.3218L285.586 79.4468C283.5 79.5718 282.328 80.4546 282.328 81.978C282.328 83.4858 283.539 84.5171 285.133 84.5171ZM285.883 82.8687C285.109 82.8687 284.594 82.478 284.594 81.853C284.594 81.2593 285.078 80.8765 285.93 80.814L287.695 80.7046V81.314C287.695 82.2202 286.875 82.8687 285.883 82.8687ZM297.141 84.3843V73.1108H294.781V84.3843H297.141ZM299.016 73.1108V84.3843H303.32C306.703 84.3843 308.695 82.2827 308.695 78.7046C308.695 75.1265 306.703 73.1108 303.32 73.1108H299.016ZM301.375 75.0562H303.039C305.117 75.0562 306.289 76.353 306.289 78.7124C306.289 81.1499 305.148 82.4312 303.039 82.4312H301.375V75.0562ZM317.688 82.4312H312.578V79.5874H317.398V77.7749H312.578V75.0562H317.688V73.1108H310.219V84.3843H317.688V82.4312Z" fill="#1E2631"/>
<g filter="url(#filter3_dd_593_3247)">
<rect x="671" y="65" width="170" height="88" rx="8" fill="#1E2631"/>
<rect x="671.5" y="65.5" width="169" height="87" rx="7.5" stroke="white"/>
</g>
<path d="M671 73C671 68.5817 674.582 65 679 65H833C837.418 65 841 68.5817 841 73V97H671V73Z" fill="white"/>
<path d="M699.016 82.2656V80.9922H694.266V82.7109H696.719L696.711 82.8906C696.664 84.2891 695.594 85.2344 694.055 85.2344C692.18 85.2344 690.992 83.7422 690.992 81.2969C690.992 78.8984 692.109 77.4844 693.969 77.4844C695.242 77.4844 696.203 78.1875 696.547 79.3672H698.914C698.578 77.0859 696.594 75.5312 693.961 75.5312C690.648 75.5312 688.586 77.7188 688.586 81.3281C688.586 84.9922 690.648 87.1875 694.016 87.1875C697.156 87.1875 699.016 85.3359 699.016 82.2656ZM705.562 87.1875C708.328 87.1875 710.258 85.6016 710.523 83.0859H708.227C707.977 84.4219 706.969 85.2422 705.57 85.2422C703.766 85.2422 702.633 83.7578 702.633 81.3516C702.633 78.9766 703.781 77.4844 705.562 77.4844C706.938 77.4844 708 78.3906 708.219 79.7734H710.516C710.336 77.25 708.273 75.5312 705.562 75.5312C702.297 75.5312 700.227 77.7266 700.227 81.3594C700.227 85 702.281 87.1875 705.562 87.1875ZM714.242 87V79.6172H714.312L719.586 87H721.539V75.7266H719.281V83.0703H719.219L713.953 75.7266H711.984V87H714.242ZM727.008 76.6953V78.625H725.828V80.3438H727.008V84.7422C727.008 86.375 727.773 87.0312 729.742 87.0312C730.203 87.0312 730.594 86.9922 730.828 86.9375V85.2578C730.688 85.2812 730.477 85.2969 730.273 85.2969C729.602 85.2969 729.289 84.9922 729.289 84.3516V80.3438H730.836V78.625H729.289V76.6953H727.008ZM735.805 87.1797C738.336 87.1797 739.953 85.5625 739.953 82.8047C739.953 80.0859 738.312 78.4453 735.805 78.4453C733.297 78.4453 731.656 80.0938 731.656 82.8047C731.656 85.5547 733.273 87.1797 735.805 87.1797ZM735.805 85.4375C734.68 85.4375 733.969 84.4922 733.969 82.8125C733.969 81.1484 734.695 80.1875 735.805 80.1875C736.914 80.1875 737.633 81.1484 737.633 82.8125C737.633 84.4922 736.922 85.4375 735.805 85.4375ZM744.977 87.1797C747.508 87.1797 749.125 85.5625 749.125 82.8047C749.125 80.0859 747.484 78.4453 744.977 78.4453C742.469 78.4453 740.828 80.0938 740.828 82.8047C740.828 85.5547 742.445 87.1797 744.977 87.1797ZM744.977 85.4375C743.852 85.4375 743.141 84.4922 743.141 82.8125C743.141 81.1484 743.867 80.1875 744.977 80.1875C746.086 80.1875 746.805 81.1484 746.805 82.8125C746.805 84.4922 746.094 85.4375 744.977 85.4375ZM750.359 87H752.641V75.7266H750.359V87ZM754.039 81.0859C754.039 82.3438 754.859 83.1562 756.477 83.5L757.906 83.7969C758.727 83.9844 759.016 84.2344 759.016 84.6797C759.016 85.2266 758.484 85.5781 757.625 85.5781C756.719 85.5781 756.195 85.1875 756.055 84.4531H753.828C753.977 86.1016 755.312 87.1797 757.625 87.1797C759.781 87.1797 761.289 86.0938 761.289 84.4453C761.289 83.2188 760.57 82.5312 758.82 82.1641L757.391 81.8594C756.547 81.6797 756.234 81.3906 756.234 80.9609C756.234 80.4062 756.758 80.0469 757.547 80.0469C758.391 80.0469 758.898 80.5078 758.969 81.1875H761.07C761.023 79.5469 759.695 78.4453 757.547 78.4453C755.414 78.4453 754.039 79.4922 754.039 81.0859ZM765.445 81.0859C765.445 82.3438 766.266 83.1562 767.883 83.5L769.312 83.7969C770.133 83.9844 770.422 84.2344 770.422 84.6797C770.422 85.2266 769.891 85.5781 769.031 85.5781C768.125 85.5781 767.602 85.1875 767.461 84.4531H765.234C765.383 86.1016 766.719 87.1797 769.031 87.1797C771.188 87.1797 772.695 86.0938 772.695 84.4453C772.695 83.2188 771.977 82.5312 770.227 82.1641L768.797 81.8594C767.953 81.6797 767.641 81.3906 767.641 80.9609C767.641 80.4062 768.164 80.0469 768.953 80.0469C769.797 80.0469 770.305 80.5078 770.375 81.1875H772.477C772.43 79.5469 771.102 78.4453 768.953 78.4453C766.82 78.4453 765.445 79.4922 765.445 81.0859ZM781.555 78.625H779.273V83.4219C779.273 84.5312 778.641 85.2578 777.625 85.2578C776.617 85.2578 776.062 84.6641 776.062 83.5469V78.625H773.781V84.0234C773.781 85.9766 774.984 87.1562 776.797 87.1562C778.062 87.1562 778.891 86.5469 779.305 85.4922H779.352V87H781.555V78.625ZM787.93 78.4922C786.719 78.4922 785.789 79.1016 785.336 80.0859H785.289V78.625H783.039V89.7344H785.32V85.5938H785.367C785.812 86.5391 786.75 87.1328 787.969 87.1328C790.062 87.1328 791.359 85.5078 791.359 82.8125C791.359 80.1094 790.055 78.4922 787.93 78.4922ZM787.164 85.2969C786.047 85.2969 785.312 84.3281 785.312 82.8125C785.312 81.3125 786.047 80.3203 787.164 80.3203C788.305 80.3203 789.023 81.2969 789.023 82.8125C789.023 84.3359 788.305 85.2969 787.164 85.2969ZM797.43 78.4922C796.219 78.4922 795.289 79.1016 794.836 80.0859H794.789V78.625H792.539V89.7344H794.82V85.5938H794.867C795.312 86.5391 796.25 87.1328 797.469 87.1328C799.562 87.1328 800.859 85.5078 800.859 82.8125C800.859 80.1094 799.555 78.4922 797.43 78.4922ZM796.664 85.2969C795.547 85.2969 794.812 84.3281 794.812 82.8125C794.812 81.3125 795.547 80.3203 796.664 80.3203C797.805 80.3203 798.523 81.2969 798.523 82.8125C798.523 84.3359 797.805 85.2969 796.664 85.2969ZM805.883 87.1797C808.414 87.1797 810.031 85.5625 810.031 82.8047C810.031 80.0859 808.391 78.4453 805.883 78.4453C803.375 78.4453 801.734 80.0938 801.734 82.8047C801.734 85.5547 803.352 87.1797 805.883 87.1797ZM805.883 85.4375C804.758 85.4375 804.047 84.4922 804.047 82.8125C804.047 81.1484 804.773 80.1875 805.883 80.1875C806.992 80.1875 807.711 81.1484 807.711 82.8125C807.711 84.4922 807 85.4375 805.883 85.4375ZM811.211 87H813.492V82.3203C813.492 81.1406 814.148 80.4531 815.273 80.4531C815.602 80.4531 815.914 80.5078 816.102 80.5859V78.5781C815.945 78.5312 815.719 78.4922 815.453 78.4922C814.469 78.4922 813.758 79.0703 813.461 80.1328H813.414V78.625H811.211V87ZM817.93 76.6953V78.625H816.75V80.3438H817.93V84.7422C817.93 86.375 818.695 87.0312 820.664 87.0312C821.125 87.0312 821.516 86.9922 821.75 86.9375V85.2578C821.609 85.2812 821.398 85.2969 821.195 85.2969C820.523 85.2969 820.211 84.9922 820.211 84.3516V80.3438H821.758V78.625H820.211V76.6953H817.93Z" fill="#1E2631"/>
<path d="M690.961 119.539C687.672 119.539 685.609 121.781 685.609 125.367C685.609 128.953 687.672 131.188 690.961 131.188C694.242 131.188 696.305 128.953 696.305 125.367C696.305 121.781 694.242 119.539 690.961 119.539ZM690.961 121.258C692.969 121.258 694.25 122.852 694.25 125.367C694.25 127.875 692.969 129.469 690.961 129.469C688.945 129.469 687.672 127.875 687.672 125.367C687.672 122.852 688.945 121.258 690.961 121.258ZM702.773 131.188C705.438 131.188 707.281 129.727 707.633 127.312H705.656C705.344 128.672 704.273 129.477 702.781 129.477C700.828 129.477 699.594 127.891 699.594 125.359C699.594 122.844 700.836 121.25 702.773 121.25C704.234 121.25 705.383 122.18 705.648 123.594H707.633C707.383 121.172 705.391 119.539 702.773 119.539C699.57 119.539 697.531 121.766 697.531 125.359C697.531 128.977 699.555 131.188 702.773 131.188ZM711.18 131V119.727H709.164V131H711.18ZM716.367 119.727V131H720.484C723.859 131 725.844 128.906 725.844 125.336C725.844 121.766 723.852 119.727 720.484 119.727H716.367ZM718.383 121.43H720.273C722.523 121.43 723.789 122.82 723.789 125.344C723.789 127.914 722.539 129.297 720.273 129.297H718.383V121.43ZM732.734 128.523C732.523 129.211 731.836 129.664 730.93 129.664C729.656 129.664 728.844 128.773 728.844 127.445V127.328H734.633V126.695C734.633 124.18 733.164 122.547 730.812 122.547C728.422 122.547 726.906 124.273 726.906 126.891C726.906 129.531 728.406 131.164 730.891 131.164C732.852 131.164 734.305 130.086 734.555 128.523H732.734ZM730.82 124.055C731.938 124.055 732.688 124.875 732.727 126.047H728.859C728.938 124.891 729.727 124.055 730.82 124.055ZM743.102 122.719H741.07L739.148 129.195H739.109L737.188 122.719H735.109L738.047 131H740.188L743.102 122.719ZM749.164 119.539C745.875 119.539 743.812 121.781 743.812 125.367C743.812 128.953 745.875 131.188 749.164 131.188C752.445 131.188 754.508 128.953 754.508 125.367C754.508 121.781 752.445 119.539 749.164 119.539ZM749.164 121.258C751.172 121.258 752.453 122.852 752.453 125.367C752.453 127.875 751.172 129.469 749.164 129.469C747.148 129.469 745.875 127.875 745.875 125.367C745.875 122.852 747.148 121.258 749.164 121.258ZM760.469 122.578C759.266 122.578 758.328 123.188 757.859 124.148H757.82V122.719H755.922V133.727H757.867V129.625H757.906C758.359 130.555 759.297 131.133 760.5 131.133C762.578 131.133 763.906 129.5 763.906 126.859C763.906 124.211 762.57 122.578 760.469 122.578ZM759.875 129.539C758.664 129.539 757.859 128.484 757.852 126.859C757.859 125.25 758.664 124.18 759.875 124.18C761.133 124.18 761.914 125.227 761.914 126.859C761.914 128.5 761.133 129.539 759.875 129.539ZM765.008 125.094C765.008 126.32 765.805 127.102 767.391 127.453L768.766 127.758C769.633 127.953 769.93 128.234 769.93 128.734C769.93 129.352 769.344 129.742 768.398 129.742C767.414 129.742 766.859 129.336 766.711 128.531H764.797C764.953 130.133 766.234 131.164 768.398 131.164C770.43 131.164 771.867 130.109 771.867 128.547C771.867 127.344 771.203 126.68 769.484 126.297L768.109 125.992C767.242 125.797 766.898 125.469 766.898 124.992C766.898 124.383 767.469 123.977 768.328 123.977C769.227 123.977 769.781 124.453 769.859 125.203H771.672C771.625 123.633 770.344 122.547 768.328 122.547C766.328 122.547 765.008 123.578 765.008 125.094ZM776.164 125.094C776.164 126.32 776.961 127.102 778.547 127.453L779.922 127.758C780.789 127.953 781.086 128.234 781.086 128.734C781.086 129.352 780.5 129.742 779.555 129.742C778.57 129.742 778.016 129.336 777.867 128.531H775.953C776.109 130.133 777.391 131.164 779.555 131.164C781.586 131.164 783.023 130.109 783.023 128.547C783.023 127.344 782.359 126.68 780.641 126.297L779.266 125.992C778.398 125.797 778.055 125.469 778.055 124.992C778.055 124.383 778.625 123.977 779.484 123.977C780.383 123.977 780.938 124.453 781.016 125.203H782.828C782.781 123.633 781.5 122.547 779.484 122.547C777.484 122.547 776.164 123.578 776.164 125.094ZM789.75 128.523C789.539 129.211 788.852 129.664 787.945 129.664C786.672 129.664 785.859 128.773 785.859 127.445V127.328H791.648V126.695C791.648 124.18 790.18 122.547 787.828 122.547C785.438 122.547 783.922 124.273 783.922 126.891C783.922 129.531 785.422 131.164 787.906 131.164C789.867 131.164 791.32 130.086 791.57 128.523H789.75ZM787.836 124.055C788.953 124.055 789.703 124.875 789.742 126.047H785.875C785.953 124.891 786.742 124.055 787.836 124.055ZM792.906 131H794.852V126.18C794.852 125.016 795.516 124.305 796.617 124.305C796.945 124.305 797.242 124.352 797.406 124.414V122.656C797.266 122.625 797.047 122.578 796.797 122.578C795.82 122.578 795.094 123.156 794.812 124.164H794.773V122.719H792.906V131ZM805.695 122.719H803.664L801.742 129.195H801.703L799.781 122.719H797.703L800.641 131H802.781L805.695 122.719ZM807.609 121.469C808.203 121.469 808.672 120.992 808.672 120.414C808.672 119.828 808.203 119.359 807.609 119.359C807.016 119.359 806.539 119.828 806.539 120.414C806.539 120.992 807.016 121.469 807.609 121.469ZM806.641 131H808.586V122.719H806.641V131ZM817.516 125.672C817.383 123.93 816.031 122.547 813.844 122.547C811.438 122.547 809.875 124.211 809.875 126.859C809.875 129.547 811.438 131.164 813.859 131.164C815.938 131.164 817.367 129.945 817.523 128.094H815.688C815.508 129.031 814.867 129.594 813.883 129.594C812.648 129.594 811.852 128.594 811.852 126.859C811.852 125.156 812.641 124.125 813.867 124.125C814.906 124.125 815.523 124.789 815.68 125.672H817.516ZM824.172 128.523C823.961 129.211 823.273 129.664 822.367 129.664C821.094 129.664 820.281 128.773 820.281 127.445V127.328H826.07V126.695C826.07 124.18 824.602 122.547 822.25 122.547C819.859 122.547 818.344 124.273 818.344 126.891C818.344 129.531 819.844 131.164 822.328 131.164C824.289 131.164 825.742 130.086 825.992 128.523H824.172ZM822.258 124.055C823.375 124.055 824.125 124.875 824.164 126.047H820.297C820.375 124.891 821.164 124.055 822.258 124.055Z" fill="white"/>
<circle cx="212" cy="109" r="3" fill="white"/>
<path d="M402 109C402 108.448 401.552 108 401 108H363C362.448 108 362 108.448 362 109V109C362 109.552 362.448 110 363 110H401C401.552 110 402 109.552 402 109V109Z" fill="#FF9142"/>
<circle r="3" transform="matrix(-1 0 0 1 362 109)" fill="white"/>
<circle r="3" transform="matrix(-1 0 0 1 402 109)" fill="white"/>
<path d="M671 109C671 108.448 670.552 108 670 108H632C631.448 108 631 108.448 631 109V109C631 109.552 631.448 110 632 110H670C670.552 110 671 109.552 671 109V109Z" fill="#FF9142"/>
<circle r="3" transform="matrix(-1 0 0 1 631 109)" fill="white"/>
<circle r="3" transform="matrix(-1 0 0 1 671 109)" fill="white"/>
<path d="M275.445 131L279.367 119.727H277.195L274.336 128.836H274.289L271.43 119.727H269.211L273.133 131H275.445ZM279.914 127.852C280.008 129.914 281.734 131.188 284.344 131.188C287.055 131.188 288.75 129.828 288.75 127.672C288.75 126 287.758 125.047 285.383 124.555L284.164 124.305C282.758 124.008 282.195 123.516 282.195 122.75C282.195 121.805 283.086 121.211 284.336 121.211C285.625 121.211 286.516 121.852 286.609 122.914H288.539C288.492 120.898 286.844 119.539 284.352 119.539C281.906 119.539 280.164 120.883 280.164 122.867C280.164 124.516 281.219 125.578 283.477 126.039L284.688 126.289C286.156 126.594 286.719 127.094 286.719 127.906C286.719 128.844 285.773 129.516 284.414 129.516C283.008 129.516 281.992 128.891 281.844 127.852H279.914ZM298.32 131.188C300.984 131.188 302.828 129.727 303.18 127.312H301.203C300.891 128.672 299.82 129.477 298.328 129.477C296.375 129.477 295.141 127.891 295.141 125.359C295.141 122.844 296.383 121.25 298.32 121.25C299.781 121.25 300.93 122.18 301.195 123.594H303.18C302.93 121.172 300.938 119.539 298.32 119.539C295.117 119.539 293.078 121.766 293.078 125.359C293.078 128.977 295.102 131.188 298.32 131.188ZM308.18 131.164C310.609 131.164 312.188 129.547 312.188 126.859C312.188 124.18 310.594 122.547 308.18 122.547C305.766 122.547 304.172 124.188 304.172 126.859C304.172 129.547 305.75 131.164 308.18 131.164ZM308.18 129.625C306.945 129.625 306.148 128.625 306.148 126.859C306.148 125.102 306.953 124.094 308.18 124.094C309.414 124.094 310.211 125.102 310.211 126.859C310.211 128.625 309.414 129.625 308.18 129.625ZM316.531 131.133C317.742 131.133 318.695 130.516 319.148 129.586H319.18V131H321.086V119.727H319.141V124.109H319.094C318.656 123.195 317.719 122.578 316.531 122.578C314.445 122.578 313.094 124.234 313.094 126.852C313.094 129.484 314.445 131.133 316.531 131.133ZM317.117 124.18C318.344 124.18 319.148 125.234 319.148 126.859C319.148 128.5 318.344 129.539 317.117 129.539C315.859 129.539 315.086 128.508 315.086 126.859C315.086 125.219 315.867 124.18 317.117 124.18ZM328.203 128.523C327.992 129.211 327.305 129.664 326.398 129.664C325.125 129.664 324.312 128.773 324.312 127.445V127.328H330.102V126.695C330.102 124.18 328.633 122.547 326.281 122.547C323.891 122.547 322.375 124.273 322.375 126.891C322.375 129.531 323.875 131.164 326.359 131.164C328.32 131.164 329.773 130.086 330.023 128.523H328.203ZM326.289 124.055C327.406 124.055 328.156 124.875 328.195 126.047H324.328C324.406 124.891 325.195 124.055 326.289 124.055Z" fill="white"/>
<g clip-path="url(#clip0_593_3247)">
<mask id="mask0_593_3247" style="mask-type:alpha" maskUnits="userSpaceOnUse" x="243" y="115" width="18" height="18">
<path fill-rule="evenodd" clip-rule="evenodd" d="M255.764 132.877C256.048 132.987 256.371 132.98 256.657 132.843L260.363 131.06C260.752 130.872 261 130.478 261 130.046V117.954C261 117.522 260.752 117.128 260.363 116.941L256.657 115.157C256.282 114.977 255.842 115.021 255.512 115.26C255.465 115.295 255.421 115.333 255.378 115.375L248.284 121.847L245.194 119.502C244.906 119.283 244.504 119.301 244.236 119.544L243.245 120.446C242.919 120.743 242.918 121.257 243.245 121.555L245.924 124L243.245 126.445C242.918 126.743 242.919 127.257 243.245 127.554L244.236 128.456C244.504 128.699 244.906 128.717 245.194 128.498L248.284 126.153L255.378 132.625C255.491 132.737 255.622 132.822 255.764 132.877ZM256.503 119.914L251.12 124L256.503 128.086V119.914Z" fill="white"/>
</mask>
<g mask="url(#mask0_593_3247)">
<path d="M260.362 116.944L256.653 115.158C256.224 114.951 255.711 115.038 255.374 115.375L243.233 126.445C242.906 126.743 242.907 127.257 243.234 127.554L244.226 128.456C244.493 128.699 244.895 128.717 245.183 128.499L259.804 117.407C260.295 117.035 260.999 117.385 260.999 118V117.957C260.999 117.525 260.752 117.131 260.362 116.944Z" fill="#B5B5B5"/>
<g filter="url(#filter4_d_593_3247)">
<path d="M260.362 131.057L256.653 132.842C256.224 133.049 255.711 132.962 255.374 132.625L243.233 121.555C242.906 121.257 242.907 120.743 243.234 120.446L244.226 119.544C244.493 119.301 244.895 119.283 245.183 119.502L259.804 130.593C260.295 130.965 260.999 130.616 260.999 130V130.043C260.999 130.475 260.752 130.869 260.362 131.057Z" fill="#DDDDDD"/>
</g>
<g filter="url(#filter5_d_593_3247)">
<path d="M256.654 132.843C256.225 133.049 255.712 132.962 255.375 132.625C255.79 133.04 256.5 132.746 256.5 132.159V115.841C256.5 115.254 255.79 114.96 255.375 115.375C255.712 115.038 256.225 114.951 256.654 115.157L260.363 116.941C260.752 117.128 261 117.522 261 117.954V130.046C261 130.478 260.752 130.872 260.363 131.06L256.654 132.843Z" fill="white"/>
</g>
<g style="mix-blend-mode:overlay" opacity="0.25">
<path style="mix-blend-mode:overlay" fill-rule="evenodd" clip-rule="evenodd" d="M255.752 132.877C256.036 132.987 256.359 132.98 256.645 132.843L260.351 131.06C260.741 130.872 260.988 130.478 260.988 130.046V117.954C260.988 117.522 260.741 117.128 260.351 116.941L256.645 115.157C256.27 114.977 255.83 115.021 255.501 115.26C255.454 115.295 255.409 115.333 255.367 115.375L248.272 121.847L245.182 119.502C244.894 119.283 244.492 119.301 244.225 119.544L243.234 120.446C242.907 120.743 242.906 121.257 243.233 121.555L245.913 124L243.233 126.445C242.906 126.743 242.907 127.257 243.234 127.554L244.225 128.456C244.492 128.699 244.894 128.717 245.182 128.498L248.272 126.153L255.367 132.625C255.479 132.737 255.611 132.822 255.752 132.877ZM256.491 119.914L251.108 124L256.491 128.086V119.914Z" fill="url(#paint0_linear_593_3247)"/>
</g>
</g>
</g>
<path d="M85.1602 98.8984V96.9883H78.0352V99.5664H81.7148L81.7031 99.8359C81.6328 101.934 80.0273 103.352 77.7188 103.352C74.9062 103.352 73.125 101.113 73.125 97.4453C73.125 93.8477 74.8008 91.7266 77.5898 91.7266C79.5 91.7266 80.9414 92.7812 81.457 94.5508H85.0078C84.5039 91.1289 81.5273 88.7969 77.5781 88.7969C72.6094 88.7969 69.5156 92.0781 69.5156 97.4922C69.5156 102.988 72.6094 106.281 77.6602 106.281C82.3711 106.281 85.1602 103.504 85.1602 98.8984ZM94.9805 106.281C99.1289 106.281 102.023 103.902 102.422 100.129H98.9766C98.6016 102.133 97.0898 103.363 94.9922 103.363C92.2852 103.363 90.5859 101.137 90.5859 97.5273C90.5859 93.9648 92.3086 91.7266 94.9805 91.7266C97.043 91.7266 98.6367 93.0859 98.9648 95.1602H102.41C102.141 91.375 99.0469 88.7969 94.9805 88.7969C90.082 88.7969 86.9766 92.0898 86.9766 97.5391C86.9766 103 90.0586 106.281 94.9805 106.281ZM108 106V94.9258H108.105L116.016 106H118.945V89.0898H115.559V100.105H115.465L107.566 89.0898H104.613V106H108ZM67.3828 130V116.008H72.2812V113.09H58.957V116.008H63.8438V130H67.3828ZM76.9453 130.27C80.7422 130.27 83.168 127.844 83.168 123.707C83.168 119.629 80.707 117.168 76.9453 117.168C73.1836 117.168 70.7227 119.641 70.7227 123.707C70.7227 127.832 73.1484 130.27 76.9453 130.27ZM76.9453 127.656C75.2578 127.656 74.1914 126.238 74.1914 123.719C74.1914 121.223 75.2812 119.781 76.9453 119.781C78.6094 119.781 79.6875 121.223 79.6875 123.719C79.6875 126.238 78.6211 127.656 76.9453 127.656ZM90.7031 130.27C94.5 130.27 96.9258 127.844 96.9258 123.707C96.9258 119.629 94.4648 117.168 90.7031 117.168C86.9414 117.168 84.4805 119.641 84.4805 123.707C84.4805 127.832 86.9062 130.27 90.7031 130.27ZM90.7031 127.656C89.0156 127.656 87.9492 126.238 87.9492 123.719C87.9492 121.223 89.0391 119.781 90.7031 119.781C92.3672 119.781 93.4453 121.223 93.4453 123.719C93.4453 126.238 92.3789 127.656 90.7031 127.656ZM98.7773 130H102.199V113.09H98.7773V130ZM108.059 122.477H108.012V113.09H104.59V130H108.012V125.852L108.902 124.891L112.5 130H116.438L111.41 122.828L116.203 117.438H112.324L108.059 122.477ZM119.18 115.738C120.176 115.738 120.961 114.941 120.961 113.98C120.961 113.008 120.176 112.223 119.18 112.223C118.184 112.223 117.398 113.008 117.398 113.98C117.398 114.941 118.184 115.738 119.18 115.738ZM117.48 130H120.902V117.438H117.48V130ZM124.102 114.543V117.438H122.332V120.016H124.102V126.613C124.102 129.062 125.25 130.047 128.203 130.047C128.895 130.047 129.48 129.988 129.832 129.906V127.387C129.621 127.422 129.305 127.445 129 127.445C127.992 127.445 127.523 126.988 127.523 126.027V120.016H129.844V117.438H127.523V114.543H124.102Z" fill="white"/>
<defs>
<filter id="filter0_dd_593_3247" x="0" y="45" width="196" height="138" filterUnits="userSpaceOnUse" color-interpolation-filters="sRGB">
<feFlood flood-opacity="0" result="BackgroundImageFix"/>
<feColorMatrix in="SourceAlpha" type="matrix" values="0 0 0 0 0 0 0 0 0 0 0 0 0 0 0 0 0 0 127 0" result="hardAlpha"/>
<feOffset dx="8" dy="12"/>
<feGaussianBlur stdDeviation="9"/>
<feComposite in2="hardAlpha" operator="out"/>
<feColorMatrix type="matrix" values="0 0 0 0 0.239216 0 0 0 0 0.513726 0 0 0 0 1 0 0 0 0.1 0"/>
<feBlend mode="normal" in2="BackgroundImageFix" result="effect1_dropShadow_593_3247"/>
<feColorMatrix in="SourceAlpha" type="matrix" values="0 0 0 0 0 0 0 0 0 0 0 0 0 0 0 0 0 0 127 0" result="hardAlpha"/>
<feOffset dx="-4" dy="-4"/>
<feGaussianBlur stdDeviation="8"/>
<feComposite in2="hardAlpha" operator="out"/>
<feColorMatrix type="matrix" values="0 0 0 0 0.0901961 0 0 0 0 0.415686 0 0 0 0 1 0 0 0 0.05 0"/>
<feBlend mode="normal" in2="effect1_dropShadow_593_3247" result="effect2_dropShadow_593_3247"/>
<feBlend mode="normal" in="SourceGraphic" in2="effect2_dropShadow_593_3247" result="shape"/>
</filter>
<filter id="filter1_dd_593_3247" x="382" y="0" width="275" height="222" filterUnits="userSpaceOnUse" color-interpolation-filters="sRGB">
<feFlood flood-opacity="0" result="BackgroundImageFix"/>
<feColorMatrix in="SourceAlpha" type="matrix" values="0 0 0 0 0 0 0 0 0 0 0 0 0 0 0 0 0 0 127 0" result="hardAlpha"/>
<feOffset dx="8" dy="12"/>
<feGaussianBlur stdDeviation="9"/>
<feComposite in2="hardAlpha" operator="out"/>
<feColorMatrix type="matrix" values="0 0 0 0 0.239216 0 0 0 0 0.513726 0 0 0 0 1 0 0 0 0.1 0"/>
<feBlend mode="normal" in2="BackgroundImageFix" result="effect1_dropShadow_593_3247"/>
<feColorMatrix in="SourceAlpha" type="matrix" values="0 0 0 0 0 0 0 0 0 0 0 0 0 0 0 0 0 0 127 0" result="hardAlpha"/>
<feOffset dx="-4" dy="-4"/>
<feGaussianBlur stdDeviation="8"/>
<feComposite in2="hardAlpha" operator="out"/>
<feColorMatrix type="matrix" values="0 0 0 0 0.0901961 0 0 0 0 0.415686 0 0 0 0 1 0 0 0 0.05 0"/>
<feBlend mode="normal" in2="effect1_dropShadow_593_3247" result="effect2_dropShadow_593_3247"/>
<feBlend mode="normal" in="SourceGraphic" in2="effect2_dropShadow_593_3247" result="shape"/>
</filter>
<filter id="filter2_dd_593_3247" x="192" y="45" width="196" height="138" filterUnits="userSpaceOnUse" color-interpolation-filters="sRGB">
<feFlood flood-opacity="0" result="BackgroundImageFix"/>
<feColorMatrix in="SourceAlpha" type="matrix" values="0 0 0 0 0 0 0 0 0 0 0 0 0 0 0 0 0 0 127 0" result="hardAlpha"/>
<feOffset dx="8" dy="12"/>
<feGaussianBlur stdDeviation="9"/>
<feComposite in2="hardAlpha" operator="out"/>
<feColorMatrix type="matrix" values="0 0 0 0 0.239216 0 0 0 0 0.513726 0 0 0 0 1 0 0 0 0.1 0"/>
<feBlend mode="normal" in2="BackgroundImageFix" result="effect1_dropShadow_593_3247"/>
<feColorMatrix in="SourceAlpha" type="matrix" values="0 0 0 0 0 0 0 0 0 0 0 0 0 0 0 0 0 0 127 0" result="hardAlpha"/>
<feOffset dx="-4" dy="-4"/>
<feGaussianBlur stdDeviation="8"/>
<feComposite in2="hardAlpha" operator="out"/>
<feColorMatrix type="matrix" values="0 0 0 0 0.0901961 0 0 0 0 0.415686 0 0 0 0 1 0 0 0 0.05 0"/>
<feBlend mode="normal" in2="effect1_dropShadow_593_3247" result="effect2_dropShadow_593_3247"/>
<feBlend mode="normal" in="SourceGraphic" in2="effect2_dropShadow_593_3247" result="shape"/>
</filter>
<filter id="filter3_dd_593_3247" x="651" y="45" width="216" height="138" filterUnits="userSpaceOnUse" color-interpolation-filters="sRGB">
<feFlood flood-opacity="0" result="BackgroundImageFix"/>
<feColorMatrix in="SourceAlpha" type="matrix" values="0 0 0 0 0 0 0 0 0 0 0 0 0 0 0 0 0 0 127 0" result="hardAlpha"/>
<feOffset dx="8" dy="12"/>
<feGaussianBlur stdDeviation="9"/>
<feComposite in2="hardAlpha" operator="out"/>
<feColorMatrix type="matrix" values="0 0 0 0 0.239216 0 0 0 0 0.513726 0 0 0 0 1 0 0 0 0.1 0"/>
<feBlend mode="normal" in2="BackgroundImageFix" result="effect1_dropShadow_593_3247"/>
<feColorMatrix in="SourceAlpha" type="matrix" values="0 0 0 0 0 0 0 0 0 0 0 0 0 0 0 0 0 0 127 0" result="hardAlpha"/>
<feOffset dx="-4" dy="-4"/>
<feGaussianBlur stdDeviation="8"/>
<feComposite in2="hardAlpha" operator="out"/>
<feColorMatrix type="matrix" values="0 0 0 0 0.0901961 0 0 0 0 0.415686 0 0 0 0 1 0 0 0 0.05 0"/>
<feBlend mode="normal" in2="effect1_dropShadow_593_3247" result="effect2_dropShadow_593_3247"/>
<feBlend mode="normal" in="SourceGraphic" in2="effect2_dropShadow_593_3247" result="shape"/>
</filter>
<filter id="filter4_d_593_3247" x="234.655" y="111.016" width="34.6784" height="30.2707" filterUnits="userSpaceOnUse" color-interpolation-filters="sRGB">
<feFlood flood-opacity="0" result="BackgroundImageFix"/>
<feColorMatrix in="SourceAlpha" type="matrix" values="0 0 0 0 0 0 0 0 0 0 0 0 0 0 0 0 0 0 127 0" result="hardAlpha"/>
<feOffset/>
<feGaussianBlur stdDeviation="4.16667"/>
<feColorMatrix type="matrix" values="0 0 0 0 0 0 0 0 0 0 0 0 0 0 0 0 0 0 0.25 0"/>
<feBlend mode="overlay" in2="BackgroundImageFix" result="effect1_dropShadow_593_3247"/>
<feBlend mode="normal" in="SourceGraphic" in2="effect1_dropShadow_593_3247" result="shape"/>
</filter>
<filter id="filter5_d_593_3247" x="247.042" y="106.713" width="22.2917" height="34.5739" filterUnits="userSpaceOnUse" color-interpolation-filters="sRGB">
<feFlood flood-opacity="0" result="BackgroundImageFix"/>
<feColorMatrix in="SourceAlpha" type="matrix" values="0 0 0 0 0 0 0 0 0 0 0 0 0 0 0 0 0 0 127 0" result="hardAlpha"/>
<feOffset/>
<feGaussianBlur stdDeviation="4.16667"/>
<feColorMatrix type="matrix" values="0 0 0 0 0 0 0 0 0 0 0 0 0 0 0 0 0 0 0.25 0"/>
<feBlend mode="overlay" in2="BackgroundImageFix" result="effect1_dropShadow_593_3247"/>
<feBlend mode="normal" in="SourceGraphic" in2="effect1_dropShadow_593_3247" result="shape"/>
</filter>
<linearGradient id="paint0_linear_593_3247" x1="251.988" y1="115.046" x2="251.988" y2="132.954" gradientUnits="userSpaceOnUse">
<stop stop-color="white"/>
<stop offset="1" stop-color="white" stop-opacity="0"/>
</linearGradient>
<clipPath id="clip0_593_3247">
<rect width="18" height="18" fill="white" transform="translate(243 115)"/>
</clipPath>
</defs>
</svg>
