<svg width="294" height="248" viewBox="0 0 294 248" fill="none" xmlns="http://www.w3.org/2000/svg">
<g clip-path="url(#clip0_1132_14063)">
<mask id="mask0_1132_14063" style="mask-type:luminance" maskUnits="userSpaceOnUse" x="0" y="0" width="294" height="248">
<path d="M294 0H0V248H294V0Z" fill="white"/>
</mask>
<g mask="url(#mask0_1132_14063)">
<mask id="mask1_1132_14063" style="mask-type:luminance" maskUnits="userSpaceOnUse" x="-89" y="-49" width="472" height="323">
<path d="M383 -49H-89V274H383V-49Z" fill="white"/>
</mask>
<g mask="url(#mask1_1132_14063)">
<path d="M299.073 -5.18652H-8.87207V273.967H299.073V-5.18652Z" fill="url(#paint0_radial_1132_14063)" fill-opacity="0.2"/>
<mask id="mask2_1132_14063" style="mask-type:luminance" maskUnits="userSpaceOnUse" x="82" y="-49" width="126" height="191">
<path d="M207.692 -49H82.5107V141.8H207.692V-49Z" fill="white"/>
</mask>
<g mask="url(#mask2_1132_14063)">
<path d="M190.142 65.659C190.29 65.573 190.412 65.45 190.497 65.302C190.582 65.154 190.627 64.986 190.627 64.816C190.627 64.645 190.582 64.477 190.497 64.329C190.412 64.181 190.29 64.058 190.142 63.972L152.835 42.2964C150.448 40.9128 147.738 40.1841 144.978 40.1841C142.219 40.1841 139.509 40.9128 137.122 42.2964L99.8219 63.972C99.6739 64.058 99.5519 64.181 99.4669 64.329C99.3819 64.477 99.3369 64.645 99.3369 64.816C99.3369 64.986 99.3819 65.154 99.4669 65.302C99.5519 65.45 99.6739 65.573 99.8219 65.659L144.491 91.937C144.641 92.025 144.813 92.072 144.987 92.072C145.161 92.072 145.333 92.025 145.483 91.937L190.142 65.659Z" fill="url(#paint1_linear_1132_14063)"/>
<path d="M190.017 65.631C190.164 65.544 190.286 65.421 190.371 65.272C190.455 65.124 190.5 64.956 190.5 64.785C190.5 64.614 190.455 64.446 190.371 64.297C190.286 64.149 190.164 64.025 190.017 63.939L152.828 42.2169C150.448 40.8302 147.747 40.1 144.996 40.1C142.246 40.1 139.544 40.8302 137.165 42.2169L99.983 63.939C99.836 64.025 99.714 64.149 99.629 64.297C99.545 64.446 99.5 64.614 99.5 64.785C99.5 64.956 99.545 65.124 99.629 65.272C99.714 65.421 99.836 65.544 99.983 65.631L144.511 91.965C144.66 92.053 144.831 92.1 145.005 92.1C145.179 92.1 145.349 92.053 145.499 91.965L190.017 65.631Z" fill="url(#paint2_linear_1132_14063)"/>
<path d="M189.936 65.0247C189.978 64.9512 190 64.8682 190 64.785C190 64.7024 189.978 64.6194 189.936 64.5442C189.894 64.4714 189.835 64.4116 189.765 64.3707M189.936 65.0247L189.765 64.3707M189.936 65.0247C189.895 65.0971 189.835 65.1574 189.762 65.2007L145.246 91.5337C145.246 91.5338 145.246 91.534 145.245 91.5341C145.171 91.5776 145.088 91.6 145.005 91.6C144.921 91.6 144.838 91.5771 144.765 91.5345L100.238 65.2007M189.936 65.0247L152.576 42.6486M189.765 64.3707L152.576 42.6486M100.238 65.2007C100.238 65.2007 100.238 65.2007 100.238 65.2007ZM100.238 65.2007C100.165 65.1574 100.105 65.097 100.064 65.0248C100.022 64.9512 100 64.8683 100 64.785C100 64.7024 100.022 64.6195 100.064 64.5443C100.106 64.4713 100.166 64.4114 100.235 64.3706L137.417 42.6489C139.719 41.3067 142.335 40.6 144.996 40.6C147.658 40.6 150.272 41.3066 152.576 42.6486" stroke="#C5ECFF" stroke-opacity="0.56"/>
<path d="M95.6379 72.3059C95.4889 72.2199 95.3199 72.1749 95.1479 72.1749C94.9759 72.1749 94.8069 72.2209 94.6589 72.3079C94.5099 72.3939 94.3869 72.5179 94.3009 72.6679C94.2159 72.8169 94.1719 72.9859 94.1729 73.1579V115.632C94.1769 117.679 94.7159 119.689 95.7379 121.463C96.7589 123.236 98.2269 124.712 99.9959 125.742L139.604 149.491C139.753 149.576 139.921 149.622 140.093 149.622C140.264 149.622 140.433 149.577 140.581 149.491C140.73 149.405 140.853 149.282 140.939 149.134C141.025 148.985 141.07 148.817 141.07 148.646V99.3669C141.07 99.1959 141.025 99.0269 140.939 98.8789C140.853 98.7309 140.73 98.6079 140.581 98.5219L95.6379 72.3059Z" fill="url(#paint3_linear_1132_14063)"/>
<path d="M148.886 99.5379V148.633C148.886 148.805 148.931 148.973 149.017 149.122C149.103 149.27 149.226 149.393 149.375 149.479C149.523 149.564 149.692 149.609 149.863 149.609C150.034 149.609 150.203 149.564 150.351 149.479L189.957 125.73C191.725 124.701 193.192 123.227 194.214 121.456C195.236 119.685 195.777 117.677 195.783 115.632V73.1579C195.782 72.9869 195.737 72.8189 195.651 72.6709C195.565 72.5229 195.441 72.3999 195.293 72.3149C195.144 72.2299 194.976 72.1849 194.805 72.1849C194.634 72.1849 194.466 72.2299 194.317 72.3159L149.374 98.6949C149.226 98.7809 149.103 98.9039 149.018 99.0509C148.932 99.1989 148.886 99.3669 148.886 99.5379Z" fill="url(#paint4_linear_1132_14063)"/>
<path opacity="0.5" d="M101.288 -0.179443L126.856 14.6279L140.861 22.6144C141.954 23.238 143.278 23.3104 144.433 22.8099L161.375 15.4682L190.167 2.32416L188.915 65.541L145.101 91.203L101.288 65.541V-0.179443Z" fill="url(#paint5_linear_1132_14063)"/>
<path opacity="0.5" d="M101.288 -0.179443L126.856 14.6279L140.861 22.6144C141.954 23.238 143.278 23.3104 144.433 22.8099L161.375 15.4682L190.167 2.32416L188.915 65.541L145.101 91.203L101.288 65.541V-0.179443Z" fill="url(#paint6_linear_1132_14063)"/>
</g>
<mask id="mask3_1132_14063" style="mask-type:luminance" maskUnits="userSpaceOnUse" x="19" y="-7" width="127" height="190">
<path d="M145.1 -6.59985H19.9189V182.686H145.1V-6.59985Z" fill="white"/>
</mask>
<g mask="url(#mask3_1132_14063)">
<path d="M127.612 99.611C127.76 99.525 127.882 99.402 127.967 99.254C128.052 99.106 128.097 98.938 128.097 98.767C128.097 98.596 128.052 98.429 127.967 98.281C127.882 98.133 127.76 98.009 127.612 97.923L90.3046 76.248C87.9166 74.864 85.2066 74.136 82.4476 74.136C79.6886 74.136 76.9786 74.864 74.5916 76.248L37.2906 97.923C37.1436 98.009 37.0206 98.133 36.9356 98.281C36.8506 98.429 36.8066 98.596 36.8066 98.767C36.8066 98.938 36.8506 99.106 36.9356 99.254C37.0206 99.402 37.1436 99.525 37.2906 99.611L81.9606 125.888C82.1106 125.977 82.2816 126.023 82.4566 126.023C82.6306 126.023 82.8016 125.977 82.9516 125.888L127.612 99.611Z" fill="url(#paint7_linear_1132_14063)"/>
<path d="M127.517 99.531C127.664 99.444 127.786 99.321 127.871 99.173C127.955 99.024 128 98.856 128 98.685C128 98.514 127.955 98.346 127.871 98.197C127.786 98.049 127.664 97.925 127.517 97.839L90.328 76.117C87.948 74.73 85.247 74 82.496 74C79.746 74 77.044 74.73 74.665 76.117L37.483 97.839C37.336 97.925 37.214 98.049 37.129 98.197C37.045 98.346 37 98.514 37 98.685C37 98.856 37.045 99.024 37.129 99.173C37.214 99.321 37.336 99.444 37.483 99.531L82.011 125.865C82.16 125.953 82.331 126 82.505 126C82.679 126 82.849 125.953 82.999 125.865L127.517 99.531Z" fill="url(#paint8_linear_1132_14063)"/>
<path d="M127.436 98.9258C127.478 98.8506 127.5 98.7676 127.5 98.685C127.5 98.6024 127.478 98.5194 127.436 98.4442C127.394 98.3714 127.335 98.3116 127.265 98.2708M127.436 98.9258L127.265 98.2708M127.436 98.9258C127.395 98.9974 127.335 99.0576 127.262 99.1007L82.746 125.434M127.436 98.9258L90.0758 76.5487M127.265 98.2708L90.0758 76.5487M82.746 125.434C82.7458 125.434 82.7462 125.434 82.746 125.434ZM82.746 125.434C82.6715 125.478 82.5883 125.5 82.505 125.5C82.4208 125.5 82.3376 125.477 82.2654 125.435C82.2654 125.435 82.2653 125.435 82.2653 125.434L37.7377 99.1007M37.7377 99.1007C37.7376 99.1007 37.7378 99.1008 37.7377 99.1007ZM37.7377 99.1007C37.6649 99.0576 37.605 98.9973 37.5636 98.9257C37.5216 98.8505 37.5 98.7675 37.5 98.685C37.5 98.6025 37.5216 98.5195 37.5636 98.4443C37.6059 98.3713 37.6656 98.3115 37.7355 98.2706L74.9168 76.5489C77.2194 75.2065 79.8345 74.5 82.496 74.5C85.1583 74.5 87.7723 75.2064 90.0758 76.5487" stroke="#C5ECFF" stroke-opacity="0.56"/>
<path d="M33.1076 106.258C32.9586 106.172 32.7896 106.126 32.6176 106.127C32.4456 106.127 32.2766 106.173 32.1276 106.259C31.9796 106.346 31.8556 106.47 31.7706 106.619C31.6856 106.769 31.6406 106.938 31.6426 107.11V149.584C31.6456 151.631 32.1856 153.641 33.2066 155.414C34.2286 157.188 35.6966 158.663 37.4656 159.693L77.0737 183.442C77.2227 183.528 77.3906 183.573 77.5616 183.573C77.7336 183.573 77.9016 183.528 78.0506 183.443C78.1986 183.357 78.3226 183.234 78.4076 183.085C78.4936 182.937 78.5396 182.769 78.5396 182.597V133.319C78.5396 133.147 78.4936 132.979 78.4086 132.831C78.3226 132.682 78.1996 132.559 78.0506 132.474L33.1076 106.258Z" fill="url(#paint9_linear_1132_14063)"/>
<path d="M32.1426 107.11V107.107C32.1416 107.023 32.1636 106.94 32.2046 106.867C32.2466 106.794 32.3066 106.734 32.3796 106.691C32.4516 106.649 32.5346 106.627 32.6186 106.627C32.7026 106.627 32.7846 106.648 32.8566 106.69L32.8576 106.691L77.7986 132.905L77.8006 132.907C77.8736 132.948 77.9336 133.009 77.9756 133.081C78.0176 133.153 78.0396 133.236 78.0396 133.319V182.597C78.0396 182.68 78.0176 182.763 77.9756 182.835C77.9336 182.908 77.8726 182.968 77.8006 183.01C77.7276 183.051 77.6456 183.073 77.5626 183.073C77.4796 183.073 77.3986 183.052 77.3266 183.011L77.3236 183.009L37.7226 159.265L37.7166 159.261C36.0236 158.275 34.6186 156.863 33.6406 155.165C32.6626 153.467 32.1456 151.543 32.1426 149.583V107.11Z" stroke="#C5ECFF" stroke-opacity="0.56"/>
<path d="M86.3535 133.49V182.585C86.3545 182.757 86.3995 182.925 86.4855 183.073C86.5715 183.222 86.6945 183.345 86.8425 183.43C86.9915 183.516 87.1595 183.561 87.3315 183.561C87.5025 183.561 87.6715 183.516 87.8195 183.43L127.426 159.681C129.193 158.652 130.662 157.179 131.684 155.408C132.706 153.636 133.247 151.629 133.253 149.584V107.11C133.252 106.939 133.205 106.771 133.119 106.623C133.033 106.475 132.91 106.352 132.762 106.267C132.613 106.181 132.445 106.136 132.274 106.136C132.102 106.137 131.934 106.182 131.786 106.267L86.8425 132.647C86.6945 132.732 86.5715 132.855 86.4855 133.003C86.4005 133.151 86.3545 133.319 86.3535 133.49Z" fill="url(#paint10_linear_1132_14063)"/>
<path d="M38.629 34L64.339 48.7454L78.421 56.698C79.52 57.32 80.852 57.391 82.013 56.893L99.049 49.5821L128 36.4931L126.741 98.822L82.686 125L38 98.822L38.629 34Z" fill="url(#paint11_linear_1132_14063)"/>
<path opacity="0.5" d="M38.629 34L64.339 48.7454L78.421 56.698C79.52 57.32 80.852 57.391 82.013 56.893L99.049 49.5821L128 36.4931L126.741 98.822L82.686 125L38 98.822L38.629 34Z" fill="url(#paint12_linear_1132_14063)"/>
</g>
<mask id="mask4_1132_14063" style="mask-type:luminance" maskUnits="userSpaceOnUse" x="145" y="-10" width="126" height="193">
<path d="M270.27 -9.62769H145.089V182.686H270.27V-9.62769Z" fill="white"/>
</mask>
<g mask="url(#mask4_1132_14063)">
<path d="M252.904 100.099C253.052 100.013 253.174 99.89 253.259 99.742C253.344 99.594 253.389 99.426 253.389 99.255C253.389 99.085 253.344 98.917 253.259 98.769C253.174 98.621 253.052 98.497 252.904 98.411L215.597 76.736C213.209 75.352 210.499 74.624 207.74 74.624C204.981 74.624 202.271 75.352 199.884 76.736L162.583 98.411C162.436 98.497 162.313 98.621 162.228 98.769C162.143 98.917 162.099 99.085 162.099 99.255C162.099 99.426 162.143 99.594 162.228 99.742C162.313 99.89 162.436 100.013 162.583 100.099L207.253 126.376C207.403 126.465 207.574 126.511 207.749 126.511C207.923 126.511 208.094 126.465 208.244 126.376L252.904 100.099Z" fill="url(#paint13_linear_1132_14063)"/>
<path d="M253.017 100.031C253.164 99.944 253.286 99.821 253.371 99.673C253.455 99.524 253.5 99.356 253.5 99.185C253.5 99.014 253.455 98.846 253.371 98.697C253.286 98.549 253.164 98.425 253.017 98.339L215.828 76.617C213.448 75.23 210.747 74.5 207.996 74.5C205.246 74.5 202.544 75.23 200.165 76.617L162.983 98.339C162.836 98.425 162.714 98.549 162.629 98.697C162.545 98.846 162.5 99.014 162.5 99.185C162.5 99.356 162.545 99.524 162.629 99.673C162.714 99.821 162.836 99.944 162.983 100.031L207.511 126.365C207.66 126.453 207.831 126.5 208.005 126.5C208.179 126.5 208.349 126.453 208.499 126.365L253.017 100.031Z" fill="url(#paint14_linear_1132_14063)"/>
<path d="M252.936 99.4258C252.978 99.3506 253 99.2676 253 99.185C253 99.1024 252.978 99.0194 252.936 98.9442C252.894 98.8714 252.835 98.8116 252.765 98.7708M252.936 99.4258L252.765 98.7708M252.936 99.4258C252.895 99.4974 252.835 99.5576 252.762 99.6007L208.246 125.934C208.246 125.934 208.246 125.934 208.245 125.934C208.171 125.978 208.088 126 208.005 126C207.921 126 207.838 125.977 207.765 125.935L163.238 99.6007C163.165 99.5576 163.105 99.4973 163.064 99.4257C163.022 99.3505 163 99.2675 163 99.185C163 99.1025 163.022 99.0195 163.064 98.9443C163.106 98.8713 163.166 98.8115 163.235 98.7706L200.417 77.0489C202.719 75.7065 205.335 75 207.996 75C210.658 75 213.272 75.7064 215.576 77.0487M252.936 99.4258L215.576 77.0487M252.765 98.7708L215.576 77.0487" stroke="#C5ECFF" stroke-opacity="0.56"/>
<path d="M158.4 106.746C158.251 106.66 158.082 106.614 157.91 106.615C157.738 106.615 157.569 106.661 157.42 106.747C157.272 106.834 157.148 106.958 157.063 107.107C156.978 107.257 156.933 107.426 156.935 107.598V150.072C156.938 152.119 157.478 154.129 158.499 155.902C159.521 157.676 160.989 159.151 162.758 160.181L202.366 183.93C202.515 184.016 202.683 184.061 202.854 184.061C203.026 184.061 203.194 184.016 203.343 183.931C203.491 183.845 203.615 183.722 203.7 183.573C203.786 183.425 203.832 183.257 203.832 183.085V133.807C203.832 133.635 203.786 133.467 203.701 133.319C203.615 133.17 203.492 133.047 203.343 132.962L158.4 106.746Z" fill="url(#paint15_linear_1132_14063)"/>
<path d="M211.646 133.978V183.073C211.647 183.245 211.692 183.413 211.778 183.561C211.864 183.71 211.987 183.833 212.135 183.919C212.284 184.004 212.452 184.049 212.624 184.049C212.795 184.049 212.964 184.004 213.112 183.918L252.717 160.169C254.484 159.14 255.953 157.667 256.975 155.896C257.997 154.125 258.537 152.117 258.544 150.072V107.598C258.543 107.427 258.497 107.259 258.411 107.111C258.325 106.963 258.201 106.84 258.053 106.755C257.904 106.669 257.737 106.624 257.566 106.625C257.394 106.625 257.226 106.67 257.078 106.755L212.135 133.135C211.987 133.22 211.864 133.343 211.778 133.491C211.692 133.639 211.647 133.807 211.646 133.978Z" fill="url(#paint16_linear_1132_14063)"/>
<path d="M252.467 159.737L252.461 159.74L212.862 183.485L212.859 183.487C212.787 183.528 212.706 183.549 212.624 183.549C212.54 183.549 212.458 183.527 212.385 183.485C212.313 183.444 212.252 183.383 212.211 183.311C212.169 183.239 212.147 183.156 212.146 183.073V133.979C212.147 133.896 212.169 133.814 212.211 133.742C212.253 133.67 212.313 133.61 212.385 133.568L212.388 133.566L257.328 107.188C257.4 107.146 257.483 107.125 257.566 107.125C257.65 107.124 257.731 107.146 257.803 107.188C257.876 107.23 257.937 107.29 257.979 107.362C258.021 107.434 258.043 107.516 258.044 107.599V150.07C258.038 152.028 257.52 153.95 256.542 155.646C255.563 157.342 254.158 158.752 252.467 159.737Z" stroke="#C5ECFF" stroke-opacity="0.56"/>
<path d="M163 31.5L189.178 46.7316L203.273 54.807C204.547 55.537 206.087 55.621 207.432 55.036L224.521 47.5959L254 34.0753L252.718 99.103L207.859 125.5L163 99.103V31.5Z" fill="url(#paint17_linear_1132_14063)"/>
<path opacity="0.5" d="M163 31.5L189.178 46.7316L203.273 54.807C204.547 55.537 206.087 55.621 207.432 55.036L224.521 47.5959L254 34.0753L252.718 99.103L207.859 125.5L163 99.103V31.5Z" fill="url(#paint18_linear_1132_14063)"/>
</g>
<path d="M190.017 141.031C190.164 140.944 190.286 140.821 190.371 140.673C190.455 140.524 190.5 140.356 190.5 140.185C190.5 140.014 190.455 139.846 190.371 139.697C190.286 139.549 190.164 139.425 190.017 139.339L152.828 117.617C150.448 116.23 147.747 115.5 144.996 115.5C142.246 115.5 139.544 116.23 137.165 117.617L99.983 139.339C99.836 139.425 99.714 139.549 99.629 139.697C99.545 139.846 99.5 140.014 99.5 140.185C99.5 140.356 99.545 140.524 99.629 140.673C99.714 140.821 99.836 140.944 99.983 141.031L144.511 167.365C144.66 167.453 144.831 167.5 145.005 167.5C145.179 167.5 145.349 167.453 145.499 167.365L190.017 141.031Z" fill="url(#paint19_linear_1132_14063)"/>
<path d="M189.936 140.426C189.978 140.351 190 140.268 190 140.185C190 140.102 189.978 140.019 189.936 139.944C189.894 139.871 189.835 139.812 189.765 139.771M189.936 140.426L189.765 139.771M189.936 140.426C189.895 140.497 189.835 140.558 189.762 140.601L145.246 166.934C145.172 166.978 145.088 167 145.005 167C144.921 167 144.838 166.977 144.765 166.935L100.238 140.601M189.936 140.426L152.576 118.049M189.765 139.771L152.576 118.049M100.238 140.601C100.238 140.601 100.238 140.601 100.238 140.601ZM100.238 140.601C100.165 140.557 100.105 140.497 100.064 140.426C100.022 140.351 100 140.268 100 140.185C100 140.102 100.022 140.019 100.064 139.944C100.106 139.871 100.166 139.811 100.235 139.771L137.417 118.049C139.719 116.706 142.335 116 144.996 116C147.658 116 150.272 116.706 152.576 118.049" stroke="#C5ECFF" stroke-opacity="0.56"/>
<path d="M95.6379 147.78C95.4889 147.694 95.3199 147.649 95.1479 147.649C94.9759 147.65 94.8069 147.695 94.6589 147.782C94.5099 147.868 94.3869 147.993 94.3009 148.142C94.2159 148.291 94.1719 148.461 94.1729 148.633V191.106C94.1769 193.153 94.7159 195.163 95.7379 196.937C96.7589 198.711 98.2269 200.186 99.9959 201.216L139.604 224.965C139.753 225.051 139.921 225.096 140.093 225.096C140.264 225.096 140.433 225.051 140.581 224.965C140.73 224.88 140.853 224.757 140.939 224.608C141.025 224.46 141.07 224.291 141.07 224.12V174.841C141.07 174.67 141.025 174.502 140.939 174.353C140.853 174.205 140.73 174.082 140.581 173.996L95.6379 147.78Z" fill="url(#paint20_linear_1132_14063)"/>
<path d="M94.6729 148.633V148.63C94.6719 148.546 94.6939 148.463 94.7359 148.39C94.7769 148.317 94.8369 148.256 94.9099 148.214C94.9829 148.172 95.0649 148.15 95.1489 148.149C95.2329 148.149 95.3149 148.171 95.3879 148.213L140.33 174.428L140.331 174.429C140.404 174.471 140.464 174.531 140.506 174.604C140.548 174.676 140.57 174.758 140.57 174.842V224.119C140.57 224.203 140.548 224.285 140.506 224.358C140.464 224.43 140.404 224.49 140.331 224.532C140.259 224.574 140.177 224.596 140.093 224.596C140.01 224.596 139.929 224.575 139.857 224.534L139.854 224.532L100.253 200.787L100.248 200.784C98.5539 199.798 97.1489 198.385 96.1709 196.687C95.1929 194.99 94.6759 193.065 94.6729 191.106V148.633Z" stroke="#C5ECFF" stroke-opacity="0.56"/>
<path d="M148.886 175.012V224.108C148.886 224.279 148.931 224.448 149.017 224.596C149.103 224.744 149.226 224.868 149.375 224.953C149.523 225.039 149.692 225.084 149.863 225.084C150.034 225.084 150.203 225.039 150.351 224.953L189.957 201.204C191.725 200.175 193.192 198.702 194.214 196.931C195.236 195.159 195.777 193.151 195.783 191.106V148.633C195.782 148.462 195.737 148.294 195.651 148.145C195.565 147.997 195.441 147.875 195.293 147.789C195.144 147.704 194.976 147.659 194.805 147.659C194.634 147.659 194.466 147.704 194.317 147.79L149.374 174.17C149.226 174.255 149.103 174.378 149.018 174.526C148.932 174.674 148.886 174.841 148.886 175.012Z" fill="url(#paint21_linear_1132_14063)"/>
<path d="M189.706 200.772L189.7 200.775L150.101 224.52L150.098 224.522C150.027 224.562 149.945 224.584 149.863 224.584C149.779 224.584 149.697 224.562 149.624 224.52C149.552 224.478 149.492 224.418 149.45 224.346C149.408 224.273 149.386 224.191 149.386 224.107V175.013C149.386 174.93 149.408 174.849 149.45 174.777C149.492 174.704 149.552 174.644 149.624 174.603L149.627 174.601L194.567 148.223L194.568 148.222C194.641 148.181 194.722 148.159 194.805 148.159C194.889 148.159 194.971 148.181 195.044 148.223C195.116 148.264 195.176 148.324 195.218 148.397C195.26 148.469 195.282 148.55 195.283 148.634V191.105C195.277 193.063 194.759 194.985 193.781 196.681C192.803 198.376 191.398 199.787 189.706 200.772Z" stroke="#C5ECFF" stroke-opacity="0.56"/>
<path d="M101.288 74.929L126.856 89.737L140.861 97.723C141.954 98.347 143.278 98.419 144.433 97.919L161.375 90.577L190.167 77.433L188.915 140.65L145.101 166.312L101.288 140.65V74.929Z" fill="url(#paint22_linear_1132_14063)"/>
<path opacity="0.5" d="M101.288 74.929L126.856 89.737L140.861 97.723C141.954 98.347 143.278 98.419 144.433 97.919L161.375 90.577L190.167 77.433L188.915 140.65L145.101 166.312L101.288 140.65V74.929Z" fill="url(#paint23_linear_1132_14063)"/>
</g>
</g>
</g>
<defs>
<radialGradient id="paint0_radial_1132_14063" cx="0" cy="0" r="1" gradientUnits="userSpaceOnUse" gradientTransform="translate(145.101 134.39) rotate(90) scale(139.577 153.973)">
<stop offset="0.145833" stop-color="#8DC2FF"/>
<stop offset="0.911458" stop-color="#77B5FE" stop-opacity="0"/>
</radialGradient>
<linearGradient id="paint1_linear_1132_14063" x1="144.982" y1="40.1841" x2="144.982" y2="92.072" gradientUnits="userSpaceOnUse">
<stop stop-color="#17222B"/>
<stop offset="1" stop-color="#11161B"/>
</linearGradient>
<linearGradient id="paint2_linear_1132_14063" x1="145" y1="40.1" x2="145" y2="92.1" gradientUnits="userSpaceOnUse">
<stop stop-color="#10151A"/>
<stop offset="1" stop-color="#17222C"/>
</linearGradient>
<linearGradient id="paint3_linear_1132_14063" x1="117.621" y1="72.1749" x2="117.621" y2="149.622" gradientUnits="userSpaceOnUse">
<stop stop-color="#17222B"/>
<stop offset="1" stop-color="#11161B"/>
</linearGradient>
<linearGradient id="paint4_linear_1132_14063" x1="172.334" y1="72.1849" x2="172.334" y2="149.609" gradientUnits="userSpaceOnUse">
<stop stop-color="#17222B"/>
<stop offset="1" stop-color="#11161B"/>
</linearGradient>
<linearGradient id="paint5_linear_1132_14063" x1="165.756" y1="-0.179442" x2="121.943" y2="111.232" gradientUnits="userSpaceOnUse">
<stop offset="0.268899" stop-color="#8EC9E6" stop-opacity="0"/>
<stop offset="1" stop-color="#8EC9E6"/>
</linearGradient>
<linearGradient id="paint6_linear_1132_14063" x1="165.756" y1="-0.179442" x2="121.943" y2="111.232" gradientUnits="userSpaceOnUse">
<stop offset="0.268899" stop-color="#8EC9E6" stop-opacity="0"/>
<stop offset="1" stop-color="#8EC9E6"/>
</linearGradient>
<linearGradient id="paint7_linear_1132_14063" x1="82.4516" y1="74.136" x2="82.4516" y2="126.023" gradientUnits="userSpaceOnUse">
<stop stop-color="#12171D"/>
<stop offset="0.520833" stop-color="#18232D"/>
</linearGradient>
<linearGradient id="paint8_linear_1132_14063" x1="82.5" y1="74" x2="82.5" y2="126" gradientUnits="userSpaceOnUse">
<stop stop-color="#10151A"/>
<stop offset="1" stop-color="#17222C"/>
</linearGradient>
<linearGradient id="paint9_linear_1132_14063" x1="55.0906" y1="106.127" x2="55.0906" y2="183.573" gradientUnits="userSpaceOnUse">
<stop stop-color="#18232D"/>
<stop offset="1" stop-color="#12171D"/>
</linearGradient>
<linearGradient id="paint10_linear_1132_14063" x1="109.803" y1="106.136" x2="109.803" y2="183.561" gradientUnits="userSpaceOnUse">
<stop stop-color="#18232D"/>
<stop offset="1" stop-color="#12171D"/>
</linearGradient>
<linearGradient id="paint11_linear_1132_14063" x1="103.454" y1="34" x2="60.134" y2="145.232" gradientUnits="userSpaceOnUse">
<stop offset="0.268899" stop-color="#FF9100" stop-opacity="0"/>
<stop offset="1" stop-color="#FF9100"/>
</linearGradient>
<linearGradient id="paint12_linear_1132_14063" x1="103.454" y1="34" x2="60.134" y2="145.232" gradientUnits="userSpaceOnUse">
<stop offset="0.268899" stop-color="#FF9100" stop-opacity="0"/>
<stop offset="1" stop-color="#FF9100"/>
</linearGradient>
<linearGradient id="paint13_linear_1132_14063" x1="242.914" y1="107.109" x2="177.21" y2="91.721" gradientUnits="userSpaceOnUse">
<stop stop-color="#17222C"/>
<stop offset="1" stop-color="#11161C"/>
</linearGradient>
<linearGradient id="paint14_linear_1132_14063" x1="208" y1="74.5" x2="208" y2="126.5" gradientUnits="userSpaceOnUse">
<stop stop-color="#10151A"/>
<stop offset="1" stop-color="#17222C"/>
</linearGradient>
<linearGradient id="paint15_linear_1132_14063" x1="180.383" y1="106.615" x2="191.008" y2="190.279" gradientUnits="userSpaceOnUse">
<stop offset="0.2958" stop-color="#17222C"/>
<stop offset="1" stop-color="#11161C"/>
</linearGradient>
<linearGradient id="paint16_linear_1132_14063" x1="235.095" y1="106.625" x2="235.095" y2="184.049" gradientUnits="userSpaceOnUse">
<stop stop-color="#17222C"/>
<stop offset="1" stop-color="#11161C"/>
</linearGradient>
<linearGradient id="paint17_linear_1132_14063" x1="229.007" y1="31.5" x2="183.785" y2="145.959" gradientUnits="userSpaceOnUse">
<stop offset="0.268899" stop-color="#F29111" stop-opacity="0"/>
<stop offset="1" stop-color="#F29111"/>
</linearGradient>
<linearGradient id="paint18_linear_1132_14063" x1="229.007" y1="31.5" x2="183.785" y2="145.959" gradientUnits="userSpaceOnUse">
<stop offset="0.268899" stop-color="#F29111" stop-opacity="0"/>
<stop offset="1" stop-color="#F29111"/>
</linearGradient>
<linearGradient id="paint19_linear_1132_14063" x1="145" y1="115.5" x2="145" y2="167.5" gradientUnits="userSpaceOnUse">
<stop stop-color="#10151A"/>
<stop offset="1" stop-color="#17222C"/>
</linearGradient>
<linearGradient id="paint20_linear_1132_14063" x1="117.621" y1="147.649" x2="117.621" y2="225.096" gradientUnits="userSpaceOnUse">
<stop stop-color="#10151A"/>
<stop offset="1" stop-color="#17222C"/>
</linearGradient>
<linearGradient id="paint21_linear_1132_14063" x1="172.334" y1="147.659" x2="172.334" y2="225.084" gradientUnits="userSpaceOnUse">
<stop stop-color="#10151A"/>
<stop offset="1" stop-color="#17222C"/>
</linearGradient>
<linearGradient id="paint22_linear_1132_14063" x1="165.756" y1="74.929" x2="121.943" y2="186.341" gradientUnits="userSpaceOnUse">
<stop offset="0.268899" stop-color="#8EC9E6" stop-opacity="0"/>
<stop offset="1" stop-color="#8EC9E6"/>
</linearGradient>
<linearGradient id="paint23_linear_1132_14063" x1="165.756" y1="74.929" x2="121.943" y2="186.341" gradientUnits="userSpaceOnUse">
<stop offset="0.268899" stop-color="#8EC9E6" stop-opacity="0"/>
<stop offset="1" stop-color="#8EC9E6"/>
</linearGradient>
<clipPath id="clip0_1132_14063">
<rect width="294" height="248" fill="white"/>
</clipPath>
</defs>
</svg>
