<svg width="48" height="48" viewBox="0 0 48 48" fill="none" xmlns="http://www.w3.org/2000/svg">
<circle cx="24" cy="24" r="24" fill="url(#paint0_linear_183_2275)"/>
<path d="M22.84 33.264C21.656 33.264 20.512 33.096 19.408 32.76C18.32 32.424 17.44 31.96 16.768 31.368L17.944 28.584C18.664 29.112 19.424 29.512 20.224 29.784C21.024 30.04 21.848 30.168 22.696 30.168C23.688 30.168 24.432 29.984 24.928 29.616C25.424 29.248 25.672 28.704 25.672 27.984C25.672 27.312 25.432 26.808 24.952 26.472C24.488 26.12 23.792 25.944 22.864 25.944H20.032V22.992H22.528C23.328 22.992 23.968 22.808 24.448 22.44C24.928 22.056 25.168 21.536 25.168 20.88C25.168 20.24 24.944 19.752 24.496 19.416C24.048 19.08 23.4 18.912 22.552 18.912C20.936 18.912 19.496 19.448 18.232 20.52L17.032 17.784C17.752 17.16 18.624 16.68 19.648 16.344C20.688 15.992 21.776 15.816 22.912 15.816C24.736 15.816 26.16 16.224 27.184 17.04C28.224 17.84 28.744 18.96 28.744 20.4C28.744 21.392 28.464 22.248 27.904 22.968C27.344 23.672 26.576 24.144 25.6 24.384V24.072C26.752 24.264 27.648 24.736 28.288 25.488C28.928 26.24 29.248 27.184 29.248 28.32C29.248 29.856 28.672 31.064 27.52 31.944C26.384 32.824 24.824 33.264 22.84 33.264Z" fill="white"/>
<defs>
<linearGradient id="paint0_linear_183_2275" x1="-1.50201e-07" y1="24" x2="48" y2="24" gradientUnits="userSpaceOnUse">
<stop stop-color="#ED4A96"/>
<stop offset="1" stop-color="#F76D74"/>
</linearGradient>
</defs>
</svg>
