<svg width="684" height="222" viewBox="0 0 684 222" fill="none" xmlns="http://www.w3.org/2000/svg">
<path fill-rule="evenodd" clip-rule="evenodd" d="M407 33H380C379.448 33 379 33.4477 379 34V34C379 34.5523 379.448 35 380 35H405C406.105 35 407 35.8954 407 37L407 63C407 64.1046 406.105 65 405 65H380C379.448 65 379 65.4477 379 66V66C379 66.5523 379.448 67 380 67H405C406.105 67 407 67.8954 407 69V95C407 96.1046 406.105 97 405 97H380C379.448 97 379 97.4477 379 98V98C379 98.5523 379.448 99 380 99H405C406.105 99 407 99.8954 407 101L407 127C407 128.105 406.105 129 405 129H380C379.448 129 379 129.448 379 130V130C379 130.552 379.448 131 380 131H405C406.105 131 407 131.895 407 133L407 175C407 176.105 406.105 177 405 177H380C379.448 177 379 177.448 379 178V178C379 178.552 379.448 179 380 179H407V179C408.105 179 409 178.105 409 177V177V131V129V109C409 107.895 409.895 107 411 107H432C432.552 107 433 106.552 433 106V106C433 105.448 432.552 105 432 105H411C409.895 105 409 104.105 409 103V99V97V67V65V35V35C409 33.8954 408.105 33 407 33V33Z" fill="#FF9142"/>
<path fill-rule="evenodd" clip-rule="evenodd" d="M215 33H252C252.552 33 253 33.4477 253 34V34C253 34.5523 252.552 35 252 35H217C215.895 35 215 35.8954 215 37L215 63C215 64.1046 215.895 65 217 65H252C252.552 65 253 65.4477 253 66V66C253 66.5523 252.552 67 252 67H217C215.895 67 215 67.8954 215 69V95C215 96.1046 215.895 97 217 97H252C252.552 97 253 97.4477 253 98V98C253 98.5523 252.552 99 252 99H217C215.895 99 215 99.8954 215 101L215 105V107L215 127C215 128.105 215.895 129 217 129H252C252.552 129 253 129.448 253 130V130C253 130.552 252.552 131 252 131H217C215.895 131 215 131.895 215 133L215 175C215 176.105 215.895 177 217 177H252C252.552 177 253 177.448 253 178V178C253 178.552 252.552 179 252 179H215V179C213.895 179 213 178.105 213 177V177V131V129L213 109C213 107.895 212.105 107 211 107H196C195.448 107 195 106.552 195 106V106C195 105.448 195.448 105 196 105H211C212.105 105 213 104.105 213 103L213 99V97V67V65V35V35C213 33.8954 213.895 33 215 33V33Z" fill="#FF9142"/>
<g filter="url(#filter0_dd_330_73089)">
<rect x="240" y="20" width="142" height="28" rx="4" fill="#1E2631"/>
<rect x="240.5" y="20.5" width="141" height="27" rx="3.5" stroke="white"/>
</g>
<path d="M262.023 28.5312C258.68 28.5312 256.586 30.7734 256.586 34.3672C256.586 37.9531 258.68 40.1875 262.023 40.1875C265.359 40.1875 267.461 37.9531 267.461 34.3672C267.461 30.7734 265.359 28.5312 262.023 28.5312ZM262.023 30.5C263.867 30.5 265.047 32 265.047 34.3672C265.047 36.7266 263.867 38.2188 262.023 38.2188C260.172 38.2188 258.992 36.7266 258.992 34.3672C258.992 32 260.18 30.5 262.023 30.5ZM273.766 40.1328C275.875 40.1328 277.164 38.5078 277.164 35.8125C277.164 33.1094 275.867 31.4922 273.758 31.4922C272.562 31.4922 271.633 32.0859 271.172 33.0781H271.125V28.7266H268.844V40H271.094V38.5625H271.141C271.602 39.5391 272.539 40.1328 273.766 40.1328ZM272.977 33.3203C274.109 33.3203 274.828 34.2891 274.828 35.8125C274.828 37.3438 274.117 38.2969 272.977 38.2969C271.867 38.2969 271.117 37.3281 271.117 35.8125C271.117 34.3125 271.875 33.3203 272.977 33.3203ZM279.516 30.4922C280.18 30.4922 280.703 29.9609 280.703 29.3203C280.703 28.6719 280.18 28.1484 279.516 28.1484C278.859 28.1484 278.328 28.6719 278.328 29.3203C278.328 29.9609 278.859 30.4922 279.516 30.4922ZM280.672 31.625H278.391V40.3203C278.391 41.0078 278.094 41.2734 277.336 41.2734C277.266 41.2734 277.102 41.2734 277.047 41.2656V42.9453C277.148 42.9609 277.492 42.9688 277.672 42.9688C279.633 42.9688 280.672 42.0859 280.672 40.3828V31.625ZM287.742 37.4375C287.531 38.0781 286.891 38.4922 286.055 38.4922C284.891 38.4922 284.133 37.6719 284.133 36.4766V36.3359H289.906V35.6406C289.906 33.0938 288.367 31.4453 285.93 31.4453C283.453 31.4453 281.891 33.1797 281.891 35.8516C281.891 38.5312 283.438 40.1797 286.016 40.1797C288.086 40.1797 289.586 39.0781 289.836 37.4375H287.742ZM285.953 33.1328C286.969 33.1328 287.664 33.8672 287.711 34.9375H284.156C284.234 33.8906 284.953 33.1328 285.953 33.1328ZM298.695 34.7422C298.594 32.8438 297.156 31.4453 294.891 31.4453C292.383 31.4453 290.781 33.1172 290.781 35.8047C290.781 38.5391 292.383 40.1797 294.906 40.1797C297.109 40.1797 298.586 38.9062 298.703 36.9297H296.578C296.438 37.8438 295.844 38.3906 294.93 38.3906C293.797 38.3906 293.094 37.4531 293.094 35.8047C293.094 34.1875 293.797 33.2344 294.922 33.2344C295.859 33.2344 296.445 33.8594 296.578 34.7422H298.695ZM300.414 29.6953V31.625H299.234V33.3438H300.414V37.7422C300.414 39.375 301.18 40.0312 303.148 40.0312C303.609 40.0312 304 39.9922 304.234 39.9375V38.2578C304.094 38.2812 303.883 38.2969 303.68 38.2969C303.008 38.2969 302.695 37.9922 302.695 37.3516V33.3438H304.242V31.625H302.695V29.6953H300.414ZM308.43 36.7812C308.5 38.9062 310.289 40.1875 312.977 40.1875C315.797 40.1875 317.523 38.7969 317.523 36.5938C317.523 34.8828 316.484 33.9219 314.102 33.4453L312.906 33.2031C311.578 32.9375 311.031 32.5078 311.031 31.8125C311.031 30.9844 311.812 30.4375 312.977 30.4375C314.164 30.4375 315 31.0156 315.078 31.9766H317.305C317.266 29.9062 315.609 28.5312 312.977 28.5312C310.469 28.5312 308.672 29.8984 308.672 31.9609C308.672 33.6406 309.773 34.7188 312.023 35.1641L313.211 35.3984C314.625 35.6875 315.156 36.1094 315.156 36.8516C315.156 37.6797 314.297 38.2891 313.039 38.2891C311.758 38.2891 310.805 37.7266 310.656 36.7812H308.43ZM319.383 29.6953V31.625H318.203V33.3438H319.383V37.7422C319.383 39.375 320.148 40.0312 322.117 40.0312C322.578 40.0312 322.969 39.9922 323.203 39.9375V38.2578C323.062 38.2812 322.852 38.2969 322.648 38.2969C321.977 38.2969 321.664 37.9922 321.664 37.3516V33.3438H323.211V31.625H321.664V29.6953H319.383ZM328.18 40.1797C330.711 40.1797 332.328 38.5625 332.328 35.8047C332.328 33.0859 330.688 31.4453 328.18 31.4453C325.672 31.4453 324.031 33.0938 324.031 35.8047C324.031 38.5547 325.648 40.1797 328.18 40.1797ZM328.18 38.4375C327.055 38.4375 326.344 37.4922 326.344 35.8125C326.344 34.1484 327.07 33.1875 328.18 33.1875C329.289 33.1875 330.008 34.1484 330.008 35.8125C330.008 37.4922 329.297 38.4375 328.18 38.4375ZM333.508 40H335.789V35.3203C335.789 34.1406 336.445 33.4531 337.57 33.4531C337.898 33.4531 338.211 33.5078 338.398 33.5859V31.5781C338.242 31.5312 338.016 31.4922 337.75 31.4922C336.766 31.4922 336.055 32.0703 335.758 33.1328H335.711V31.625H333.508V40ZM341.617 40.1328C342.664 40.1328 343.703 39.6094 344.172 38.7188H344.219V40H346.422V34.2422C346.422 32.5547 345.023 31.4453 342.875 31.4453C340.656 31.4453 339.273 32.5625 339.188 34.1875H341.273C341.383 33.5703 341.922 33.1484 342.773 33.1484C343.633 33.1484 344.18 33.6016 344.18 34.3828V34.9375L342.07 35.0625C339.984 35.1875 338.812 36.0703 338.812 37.5938C338.812 39.1016 340.023 40.1328 341.617 40.1328ZM342.367 38.4844C341.594 38.4844 341.078 38.0938 341.078 37.4688C341.078 36.875 341.562 36.4922 342.414 36.4297L344.18 36.3203V36.9297C344.18 37.8359 343.359 38.4844 342.367 38.4844ZM351.727 43.1562C354.234 43.1562 355.906 41.875 355.906 39.8828V31.625H353.656V33.0859H353.617C353.18 32.125 352.234 31.4922 351.031 31.4922C348.906 31.4922 347.594 33.125 347.594 35.7812C347.594 38.3984 348.945 39.9766 350.992 39.9766C352.203 39.9766 353.188 39.3672 353.578 38.4766H353.625V39.9453C353.625 40.9141 352.969 41.5625 351.789 41.5625C350.922 41.5625 350.266 41.1719 350.086 40.5938H347.852C348.031 42.0859 349.523 43.1562 351.727 43.1562ZM351.766 38.2188C350.633 38.2188 349.93 37.3281 349.93 35.7969C349.93 34.2734 350.641 33.3203 351.766 33.3203C352.906 33.3203 353.633 34.2891 353.633 35.7969C353.633 37.3125 352.906 38.2188 351.766 38.2188ZM362.945 37.4375C362.734 38.0781 362.094 38.4922 361.258 38.4922C360.094 38.4922 359.336 37.6719 359.336 36.4766V36.3359H365.109V35.6406C365.109 33.0938 363.57 31.4453 361.133 31.4453C358.656 31.4453 357.094 33.1797 357.094 35.8516C357.094 38.5312 358.641 40.1797 361.219 40.1797C363.289 40.1797 364.789 39.0781 365.039 37.4375H362.945ZM361.156 33.1328C362.172 33.1328 362.867 33.8672 362.914 34.9375H359.359C359.438 33.8906 360.156 33.1328 361.156 33.1328Z" fill="white"/>
<circle cx="240" cy="34" r="3" fill="white"/>
<circle cx="382" cy="34" r="3" fill="white"/>
<g filter="url(#filter1_dd_330_73089)">
<rect x="240" y="52" width="142" height="28" rx="4" fill="#1E2631"/>
<rect x="240.5" y="52.5" width="141" height="27" rx="3.5" stroke="white"/>
</g>
<path d="M285.922 72.1875C288.688 72.1875 290.617 70.6016 290.883 68.0859H288.586C288.336 69.4219 287.328 70.2422 285.93 70.2422C284.125 70.2422 282.992 68.7578 282.992 66.3516C282.992 63.9766 284.141 62.4844 285.922 62.4844C287.297 62.4844 288.359 63.3906 288.578 64.7734H290.875C290.695 62.25 288.633 60.5312 285.922 60.5312C282.656 60.5312 280.586 62.7266 280.586 66.3594C280.586 70 282.641 72.1875 285.922 72.1875ZM294.586 72.1328C295.633 72.1328 296.672 71.6094 297.141 70.7188H297.188V72H299.391V66.2422C299.391 64.5547 297.992 63.4453 295.844 63.4453C293.625 63.4453 292.242 64.5625 292.156 66.1875H294.242C294.352 65.5703 294.891 65.1484 295.742 65.1484C296.602 65.1484 297.148 65.6016 297.148 66.3828V66.9375L295.039 67.0625C292.953 67.1875 291.781 68.0703 291.781 69.5938C291.781 71.1016 292.992 72.1328 294.586 72.1328ZM295.336 70.4844C294.562 70.4844 294.047 70.0938 294.047 69.4688C294.047 68.875 294.531 68.4922 295.383 68.4297L297.148 68.3203V68.9297C297.148 69.8359 296.328 70.4844 295.336 70.4844ZM308.477 66.7422C308.375 64.8438 306.938 63.4453 304.672 63.4453C302.164 63.4453 300.562 65.1172 300.562 67.8047C300.562 70.5391 302.164 72.1797 304.688 72.1797C306.891 72.1797 308.367 70.9062 308.484 68.9297H306.359C306.219 69.8438 305.625 70.3906 304.711 70.3906C303.578 70.3906 302.875 69.4531 302.875 67.8047C302.875 66.1875 303.578 65.2344 304.703 65.2344C305.641 65.2344 306.227 65.8594 306.359 66.7422H308.477ZM309.641 72H311.922V67.2188C311.922 66.1172 312.555 65.3594 313.633 65.3594C314.672 65.3594 315.203 66.0156 315.203 67.0938V72H317.484V66.6094C317.484 64.6719 316.422 63.4688 314.562 63.4688C313.289 63.4688 312.375 64.0625 311.93 65.1172H311.883V60.7266H309.641V72ZM320.117 62.4922C320.781 62.4922 321.305 61.9609 321.305 61.3203C321.305 60.6719 320.781 60.1484 320.117 60.1484C319.453 60.1484 318.93 60.6719 318.93 61.3203C318.93 61.9609 319.453 62.4922 320.117 62.4922ZM318.984 72H321.266V63.625H318.984V72ZM322.789 72H325.07V67.1953C325.07 66.1094 325.719 65.3594 326.742 65.3594C327.766 65.3594 328.281 65.9844 328.281 67.0781V72H330.562V66.6016C330.562 64.6406 329.516 63.4688 327.656 63.4688C326.367 63.4688 325.484 64.0781 325.039 65.1172H324.992V63.625H322.789V72ZM335.836 75.1562C338.344 75.1562 340.016 73.875 340.016 71.8828V63.625H337.766V65.0859H337.727C337.289 64.125 336.344 63.4922 335.141 63.4922C333.016 63.4922 331.703 65.125 331.703 67.7812C331.703 70.3984 333.055 71.9766 335.102 71.9766C336.312 71.9766 337.297 71.3672 337.688 70.4766H337.734V71.9453C337.734 72.9141 337.078 73.5625 335.898 73.5625C335.031 73.5625 334.375 73.1719 334.195 72.5938H331.961C332.141 74.0859 333.633 75.1562 335.836 75.1562ZM335.875 70.2188C334.742 70.2188 334.039 69.3281 334.039 67.7969C334.039 66.2734 334.75 65.3203 335.875 65.3203C337.016 65.3203 337.742 66.2891 337.742 67.7969C337.742 69.3125 337.016 70.2188 335.875 70.2188Z" fill="white"/>
<circle cx="240" cy="66" r="3" fill="white"/>
<circle cx="382" cy="66" r="3" fill="white"/>
<g filter="url(#filter2_dd_330_73089)">
<rect x="240" y="84" width="142" height="28" rx="4" fill="#1E2631"/>
<rect x="240.5" y="84.5" width="141" height="27" rx="3.5" stroke="white"/>
</g>
<path d="M289.992 104V94.6719H293.258V92.7266H284.375V94.6719H287.633V104H289.992ZM293.305 104H295.586V99.3203C295.586 98.1406 296.242 97.4531 297.367 97.4531C297.695 97.4531 298.008 97.5078 298.195 97.5859V95.5781C298.039 95.5312 297.812 95.4922 297.547 95.4922C296.562 95.4922 295.852 96.0703 295.555 97.1328H295.508V95.625H293.305V104ZM301.414 104.133C302.461 104.133 303.5 103.609 303.969 102.719H304.016V104H306.219V98.2422C306.219 96.5547 304.82 95.4453 302.672 95.4453C300.453 95.4453 299.07 96.5625 298.984 98.1875H301.07C301.18 97.5703 301.719 97.1484 302.57 97.1484C303.43 97.1484 303.977 97.6016 303.977 98.3828V98.9375L301.867 99.0625C299.781 99.1875 298.609 100.07 298.609 101.594C298.609 103.102 299.82 104.133 301.414 104.133ZM302.164 102.484C301.391 102.484 300.875 102.094 300.875 101.469C300.875 100.875 301.359 100.492 302.211 100.43L303.977 100.32V100.93C303.977 101.836 303.156 102.484 302.164 102.484ZM315.305 98.7422C315.203 96.8438 313.766 95.4453 311.5 95.4453C308.992 95.4453 307.391 97.1172 307.391 99.8047C307.391 102.539 308.992 104.18 311.516 104.18C313.719 104.18 315.195 102.906 315.312 100.93H313.188C313.047 101.844 312.453 102.391 311.539 102.391C310.406 102.391 309.703 101.453 309.703 99.8047C309.703 98.1875 310.406 97.2344 311.531 97.2344C312.469 97.2344 313.055 97.8594 313.188 98.7422H315.305ZM317.586 94.4922C318.25 94.4922 318.773 93.9609 318.773 93.3203C318.773 92.6719 318.25 92.1484 317.586 92.1484C316.922 92.1484 316.398 92.6719 316.398 93.3203C316.398 93.9609 316.922 94.4922 317.586 94.4922ZM316.453 104H318.734V95.625H316.453V104ZM320.258 104H322.539V99.1953C322.539 98.1094 323.188 97.3594 324.211 97.3594C325.234 97.3594 325.75 97.9844 325.75 99.0781V104H328.031V98.6016C328.031 96.6406 326.984 95.4688 325.125 95.4688C323.836 95.4688 322.953 96.0781 322.508 97.1172H322.461V95.625H320.258V104ZM333.305 107.156C335.812 107.156 337.484 105.875 337.484 103.883V95.625H335.234V97.0859H335.195C334.758 96.125 333.812 95.4922 332.609 95.4922C330.484 95.4922 329.172 97.125 329.172 99.7812C329.172 102.398 330.523 103.977 332.57 103.977C333.781 103.977 334.766 103.367 335.156 102.477H335.203V103.945C335.203 104.914 334.547 105.562 333.367 105.562C332.5 105.562 331.844 105.172 331.664 104.594H329.43C329.609 106.086 331.102 107.156 333.305 107.156ZM333.344 102.219C332.211 102.219 331.508 101.328 331.508 99.7969C331.508 98.2734 332.219 97.3203 333.344 97.3203C334.484 97.3203 335.211 98.2891 335.211 99.7969C335.211 101.312 334.484 102.219 333.344 102.219Z" fill="white"/>
<circle cx="240" cy="98" r="3" fill="white"/>
<circle cx="382" cy="98" r="3" fill="white"/>
<g filter="url(#filter3_dd_330_73089)">
<rect x="240" y="116" width="142" height="28" rx="4" fill="#1E2631"/>
<rect x="240.5" y="116.5" width="141" height="27" rx="3.5" stroke="white"/>
</g>
<path d="M296.875 136V124.727H294.141L290.938 132.82H290.875L287.672 124.727H284.938V136H287.039V128.391H287.102L290.164 136H291.648L294.711 128.391H294.773V136H296.875ZM304.102 133.438C303.891 134.078 303.25 134.492 302.414 134.492C301.25 134.492 300.492 133.672 300.492 132.477V132.336H306.266V131.641C306.266 129.094 304.727 127.445 302.289 127.445C299.812 127.445 298.25 129.18 298.25 131.852C298.25 134.531 299.797 136.18 302.375 136.18C304.445 136.18 305.945 135.078 306.195 133.438H304.102ZM302.312 129.133C303.328 129.133 304.023 129.867 304.07 130.938H300.516C300.594 129.891 301.312 129.133 302.312 129.133ZM308.055 125.695V127.625H306.875V129.344H308.055V133.742C308.055 135.375 308.82 136.031 310.789 136.031C311.25 136.031 311.641 135.992 311.875 135.938V134.258C311.734 134.281 311.523 134.297 311.32 134.297C310.648 134.297 310.336 133.992 310.336 133.352V129.344H311.883V127.625H310.336V125.695H308.055ZM313.133 136H315.414V131.32C315.414 130.141 316.07 129.453 317.195 129.453C317.523 129.453 317.836 129.508 318.023 129.586V127.578C317.867 127.531 317.641 127.492 317.375 127.492C316.391 127.492 315.68 128.07 315.383 129.133H315.336V127.625H313.133V136ZM320.133 126.492C320.797 126.492 321.32 125.961 321.32 125.32C321.32 124.672 320.797 124.148 320.133 124.148C319.469 124.148 318.945 124.672 318.945 125.32C318.945 125.961 319.469 126.492 320.133 126.492ZM319 136H321.281V127.625H319V136ZM330.414 130.742C330.312 128.844 328.875 127.445 326.609 127.445C324.102 127.445 322.5 129.117 322.5 131.805C322.5 134.539 324.102 136.18 326.625 136.18C328.828 136.18 330.305 134.906 330.422 132.93H328.297C328.156 133.844 327.562 134.391 326.648 134.391C325.516 134.391 324.812 133.453 324.812 131.805C324.812 130.188 325.516 129.234 326.641 129.234C327.578 129.234 328.164 129.859 328.297 130.742H330.414ZM331.383 130.086C331.383 131.344 332.203 132.156 333.82 132.5L335.25 132.797C336.07 132.984 336.359 133.234 336.359 133.68C336.359 134.227 335.828 134.578 334.969 134.578C334.062 134.578 333.539 134.188 333.398 133.453H331.172C331.32 135.102 332.656 136.18 334.969 136.18C337.125 136.18 338.633 135.094 338.633 133.445C338.633 132.219 337.914 131.531 336.164 131.164L334.734 130.859C333.891 130.68 333.578 130.391 333.578 129.961C333.578 129.406 334.102 129.047 334.891 129.047C335.734 129.047 336.242 129.508 336.312 130.188H338.414C338.367 128.547 337.039 127.445 334.891 127.445C332.758 127.445 331.383 128.492 331.383 130.086Z" fill="white"/>
<circle cx="240" cy="130" r="3" fill="white"/>
<circle cx="382" cy="130" r="3" fill="white"/>
<g filter="url(#filter4_dd_330_73089)">
<rect x="240" y="164" width="142" height="28" rx="4" fill="#1E2631"/>
<rect x="240.5" y="164.5" width="141" height="27" rx="3.5" stroke="white"/>
</g>
<path d="M276.938 172.727V184H281.242C284.625 184 286.617 181.898 286.617 178.32C286.617 174.742 284.625 172.727 281.242 172.727H276.938ZM279.297 174.672H280.961C283.039 174.672 284.211 175.969 284.211 178.328C284.211 180.766 283.07 182.047 280.961 182.047H279.297V174.672ZM290.383 184.133C291.43 184.133 292.469 183.609 292.938 182.719H292.984V184H295.188V178.242C295.188 176.555 293.789 175.445 291.641 175.445C289.422 175.445 288.039 176.562 287.953 178.188H290.039C290.148 177.57 290.688 177.148 291.539 177.148C292.398 177.148 292.945 177.602 292.945 178.383V178.938L290.836 179.062C288.75 179.188 287.578 180.07 287.578 181.594C287.578 183.102 288.789 184.133 290.383 184.133ZM291.133 182.484C290.359 182.484 289.844 182.094 289.844 181.469C289.844 180.875 290.328 180.492 291.18 180.43L292.945 180.32V180.93C292.945 181.836 292.125 182.484 291.133 182.484ZM297.273 173.695V175.625H296.094V177.344H297.273V181.742C297.273 183.375 298.039 184.031 300.008 184.031C300.469 184.031 300.859 183.992 301.094 183.938V182.258C300.953 182.281 300.742 182.297 300.539 182.297C299.867 182.297 299.555 181.992 299.555 181.352V177.344H301.102V175.625H299.555V173.695H297.273ZM304.758 184.133C305.805 184.133 306.844 183.609 307.312 182.719H307.359V184H309.562V178.242C309.562 176.555 308.164 175.445 306.016 175.445C303.797 175.445 302.414 176.562 302.328 178.188H304.414C304.523 177.57 305.062 177.148 305.914 177.148C306.773 177.148 307.32 177.602 307.32 178.383V178.938L305.211 179.062C303.125 179.188 301.953 180.07 301.953 181.594C301.953 183.102 303.164 184.133 304.758 184.133ZM305.508 182.484C304.734 182.484 304.219 182.094 304.219 181.469C304.219 180.875 304.703 180.492 305.555 180.43L307.32 180.32V180.93C307.32 181.836 306.5 182.484 305.508 182.484ZM316.016 184.133C318.125 184.133 319.414 182.508 319.414 179.812C319.414 177.109 318.117 175.492 316.008 175.492C314.812 175.492 313.883 176.086 313.422 177.078H313.375V172.727H311.094V184H313.344V182.562H313.391C313.852 183.539 314.789 184.133 316.016 184.133ZM315.227 177.32C316.359 177.32 317.078 178.289 317.078 179.812C317.078 181.344 316.367 182.297 315.227 182.297C314.117 182.297 313.367 181.328 313.367 179.812C313.367 178.312 314.125 177.32 315.227 177.32ZM323.086 184.133C324.133 184.133 325.172 183.609 325.641 182.719H325.688V184H327.891V178.242C327.891 176.555 326.492 175.445 324.344 175.445C322.125 175.445 320.742 176.562 320.656 178.188H322.742C322.852 177.57 323.391 177.148 324.242 177.148C325.102 177.148 325.648 177.602 325.648 178.383V178.938L323.539 179.062C321.453 179.188 320.281 180.07 320.281 181.594C320.281 183.102 321.492 184.133 323.086 184.133ZM323.836 182.484C323.062 182.484 322.547 182.094 322.547 181.469C322.547 180.875 323.031 180.492 323.883 180.43L325.648 180.32V180.93C325.648 181.836 324.828 182.484 323.836 182.484ZM329.227 178.086C329.227 179.344 330.047 180.156 331.664 180.5L333.094 180.797C333.914 180.984 334.203 181.234 334.203 181.68C334.203 182.227 333.672 182.578 332.812 182.578C331.906 182.578 331.383 182.188 331.242 181.453H329.016C329.164 183.102 330.5 184.18 332.812 184.18C334.969 184.18 336.477 183.094 336.477 181.445C336.477 180.219 335.758 179.531 334.008 179.164L332.578 178.859C331.734 178.68 331.422 178.391 331.422 177.961C331.422 177.406 331.945 177.047 332.734 177.047C333.578 177.047 334.086 177.508 334.156 178.188H336.258C336.211 176.547 334.883 175.445 332.734 175.445C330.602 175.445 329.227 176.492 329.227 178.086ZM343.148 181.438C342.938 182.078 342.297 182.492 341.461 182.492C340.297 182.492 339.539 181.672 339.539 180.477V180.336H345.312V179.641C345.312 177.094 343.773 175.445 341.336 175.445C338.859 175.445 337.297 177.18 337.297 179.852C337.297 182.531 338.844 184.18 341.422 184.18C343.492 184.18 344.992 183.078 345.242 181.438H343.148ZM341.359 177.133C342.375 177.133 343.07 177.867 343.117 178.938H339.562C339.641 177.891 340.359 177.133 341.359 177.133Z" fill="white"/>
<circle cx="240" cy="178" r="3" fill="white"/>
<circle cx="382" cy="178" r="3" fill="white"/>
<circle cx="287" cy="154" r="4" fill="white"/>
<circle cx="311" cy="154" r="4" fill="white"/>
<circle cx="335" cy="154" r="4" fill="white"/>
<rect x="221.5" y="4.5" width="179" height="203" rx="7.5" stroke="white" stroke-linecap="round" stroke-linejoin="round" stroke-dasharray="12 12"/>
<g filter="url(#filter5_dd_330_73089)">
<rect x="20" y="20" width="175" height="172" rx="8" fill="#1E2631"/>
<rect x="20.5" y="20.5" width="174" height="171" rx="7.5" stroke="white"/>
</g>
<circle cx="195" cy="106" r="3" fill="white"/>
<path d="M20 28C20 23.5817 23.5817 20 28 20H187C191.418 20 195 23.5817 195 28V52H20V28Z" fill="white"/>
<path d="M72.9922 42V32.6719H76.2578V30.7266H67.375V32.6719H70.6328V42H72.9922ZM81.0703 39.4375C80.8594 40.0781 80.2188 40.4922 79.3828 40.4922C78.2188 40.4922 77.4609 39.6719 77.4609 38.4766V38.3359H83.2344V37.6406C83.2344 35.0938 81.6953 33.4453 79.2578 33.4453C76.7812 33.4453 75.2188 35.1797 75.2188 37.8516C75.2188 40.5312 76.7656 42.1797 79.3438 42.1797C81.4141 42.1797 82.9141 41.0781 83.1641 39.4375H81.0703ZM79.2812 35.1328C80.2969 35.1328 80.9922 35.8672 81.0391 36.9375H77.4844C77.5625 35.8906 78.2812 35.1328 79.2812 35.1328ZM92.0234 36.7422C91.9219 34.8438 90.4844 33.4453 88.2188 33.4453C85.7109 33.4453 84.1094 35.1172 84.1094 37.8047C84.1094 40.5391 85.7109 42.1797 88.2344 42.1797C90.4375 42.1797 91.9141 40.9062 92.0312 38.9297H89.9062C89.7656 39.8438 89.1719 40.3906 88.2578 40.3906C87.125 40.3906 86.4219 39.4531 86.4219 37.8047C86.4219 36.1875 87.125 35.2344 88.25 35.2344C89.1875 35.2344 89.7734 35.8594 89.9062 36.7422H92.0234ZM93.1875 42H95.4688V37.2188C95.4688 36.1172 96.1016 35.3594 97.1797 35.3594C98.2188 35.3594 98.75 36.0156 98.75 37.0938V42H101.031V36.6094C101.031 34.6719 99.9688 33.4688 98.1094 33.4688C96.8359 33.4688 95.9219 34.0625 95.4766 35.1172H95.4297V30.7266H93.1875V42ZM102.492 42H104.773V37.1953C104.773 36.1094 105.422 35.3594 106.445 35.3594C107.469 35.3594 107.984 35.9844 107.984 37.0781V42H110.266V36.6016C110.266 34.6406 109.219 33.4688 107.359 33.4688C106.07 33.4688 105.188 34.0781 104.742 35.1172H104.695V33.625H102.492V42ZM115.555 42.1797C118.086 42.1797 119.703 40.5625 119.703 37.8047C119.703 35.0859 118.062 33.4453 115.555 33.4453C113.047 33.4453 111.406 35.0938 111.406 37.8047C111.406 40.5547 113.023 42.1797 115.555 42.1797ZM115.555 40.4375C114.43 40.4375 113.719 39.4922 113.719 37.8125C113.719 36.1484 114.445 35.1875 115.555 35.1875C116.664 35.1875 117.383 36.1484 117.383 37.8125C117.383 39.4922 116.672 40.4375 115.555 40.4375ZM120.938 42H123.219V30.7266H120.938V42ZM128.602 42.1797C131.133 42.1797 132.75 40.5625 132.75 37.8047C132.75 35.0859 131.109 33.4453 128.602 33.4453C126.094 33.4453 124.453 35.0938 124.453 37.8047C124.453 40.5547 126.07 42.1797 128.602 42.1797ZM128.602 40.4375C127.477 40.4375 126.766 39.4922 126.766 37.8125C126.766 36.1484 127.492 35.1875 128.602 35.1875C129.711 35.1875 130.43 36.1484 130.43 37.8125C130.43 39.4922 129.719 40.4375 128.602 40.4375ZM137.758 45.1562C140.266 45.1562 141.938 43.875 141.938 41.8828V33.625H139.688V35.0859H139.648C139.211 34.125 138.266 33.4922 137.062 33.4922C134.938 33.4922 133.625 35.125 133.625 37.7812C133.625 40.3984 134.977 41.9766 137.023 41.9766C138.234 41.9766 139.219 41.3672 139.609 40.4766H139.656V41.9453C139.656 42.9141 139 43.5625 137.82 43.5625C136.953 43.5625 136.297 43.1719 136.117 42.5938H133.883C134.062 44.0859 135.555 45.1562 137.758 45.1562ZM137.797 40.2188C136.664 40.2188 135.961 39.3281 135.961 37.7969C135.961 36.2734 136.672 35.3203 137.797 35.3203C138.938 35.3203 139.664 36.2891 139.664 37.7969C139.664 39.3125 138.938 40.2188 137.797 40.2188ZM144.508 45.1016C146.641 45.1016 147.695 44.3281 148.406 42.1797L151.289 33.625H148.883L147.109 40.1719H147.062L145.281 33.625H142.781L145.695 42C145.703 42.0391 145.617 42.3672 145.617 42.4062C145.461 43.0703 145.047 43.3359 144.219 43.3359C144.133 43.3359 143.719 43.3281 143.641 43.3125V45.0781C143.719 45.0938 144.422 45.1016 144.508 45.1016Z" fill="#1E2631"/>
<path d="M82.625 86V74.7266H80.2969L76.8438 83.3281H76.7812L73.3281 74.7266H70.9922V86H72.8125V78H72.8672L76.125 86H77.5L80.7578 78H80.8125V86H82.625ZM85.4375 76.4688C86.0312 76.4688 86.5 75.9922 86.5 75.4141C86.5 74.8281 86.0312 74.3594 85.4375 74.3594C84.8438 74.3594 84.3672 74.8281 84.3672 75.4141C84.3672 75.9922 84.8438 76.4688 85.4375 76.4688ZM84.4688 86H86.4141V77.7188H84.4688V86ZM95.3438 80.6719C95.2109 78.9297 93.8594 77.5469 91.6719 77.5469C89.2656 77.5469 87.7031 79.2109 87.7031 81.8594C87.7031 84.5469 89.2656 86.1641 91.6875 86.1641C93.7656 86.1641 95.1953 84.9453 95.3516 83.0938H93.5156C93.3359 84.0312 92.6953 84.5938 91.7109 84.5938C90.4766 84.5938 89.6797 83.5938 89.6797 81.8594C89.6797 80.1562 90.4688 79.125 91.6953 79.125C92.7344 79.125 93.3516 79.7891 93.5078 80.6719H95.3438ZM96.5156 86H98.4609V81.1797C98.4609 80.0156 99.125 79.3047 100.227 79.3047C100.555 79.3047 100.852 79.3516 101.016 79.4141V77.6562C100.875 77.625 100.656 77.5781 100.406 77.5781C99.4297 77.5781 98.7031 78.1562 98.4219 79.1641H98.3828V77.7188H96.5156V86ZM105.367 86.1641C107.797 86.1641 109.375 84.5469 109.375 81.8594C109.375 79.1797 107.781 77.5469 105.367 77.5469C102.953 77.5469 101.359 79.1875 101.359 81.8594C101.359 84.5469 102.938 86.1641 105.367 86.1641ZM105.367 84.625C104.133 84.625 103.336 83.625 103.336 81.8594C103.336 80.1016 104.141 79.0938 105.367 79.0938C106.602 79.0938 107.398 80.1016 107.398 81.8594C107.398 83.625 106.602 84.625 105.367 84.625ZM110.625 86H112.57V81.2031C112.57 80.0156 113.281 79.2109 114.398 79.2109C115.508 79.2109 116.055 79.8672 116.055 81.0391V86H118V80.6484C118 78.7344 116.961 77.5625 115.133 77.5625C113.859 77.5625 112.977 78.1562 112.531 79.1406H112.492V77.7188H110.625V86ZM122 86.1328C123.062 86.1328 124.102 85.5781 124.578 84.6797H124.617V86H126.492V80.2969C126.492 78.6328 125.156 77.5469 123.102 77.5469C120.992 77.5469 119.672 78.6562 119.586 80.2031H121.391C121.516 79.5156 122.102 79.0703 123.023 79.0703C123.984 79.0703 124.57 79.5703 124.57 80.4375V81.0312L122.383 81.1562C120.367 81.2812 119.234 82.1641 119.234 83.6328C119.234 85.125 120.398 86.1328 122 86.1328ZM122.586 84.6641C121.742 84.6641 121.18 84.2344 121.18 83.5547C121.18 82.8984 121.719 82.4766 122.656 82.4141L124.57 82.2969V82.9297C124.57 83.9297 123.688 84.6641 122.586 84.6641ZM135.406 77.7188H133.461V82.5078C133.461 83.7109 132.766 84.5078 131.641 84.5078C130.547 84.5078 129.969 83.8672 129.969 82.6797V77.7188H128.023V83.0703C128.023 84.9844 129.164 86.1484 130.961 86.1484C132.219 86.1484 133.055 85.5703 133.492 84.5625H133.531V86H135.406V77.7188ZM137.539 75.7812V77.7188H136.352V79.2188H137.539V83.7969C137.539 85.4062 138.242 86.0391 140.031 86.0391C140.445 86.0391 140.828 86.0078 141.039 85.9609V84.4766C140.914 84.5 140.664 84.5156 140.484 84.5156C139.797 84.5156 139.484 84.2031 139.484 83.5234V79.2188H141.047V77.7188H139.484V75.7812H137.539Z" fill="white"/>
<path d="M39.2734 119.297V118.094H34.5859V119.633H37.3047L37.2969 119.82C37.2656 121.398 36.0859 122.477 34.3828 122.477C32.3516 122.477 31.0859 120.891 31.0859 118.297C31.0859 115.758 32.2969 114.25 34.3281 114.25C35.7109 114.25 36.7578 115.016 37.1406 116.312H39.1875C38.8203 114.055 36.8828 112.539 34.3203 112.539C31.0625 112.539 29.0234 114.742 29.0234 118.32C29.0234 121.953 31.0703 124.188 34.3594 124.188C37.4453 124.188 39.2734 122.352 39.2734 119.297ZM40.7266 124H42.6719V119.18C42.6719 118.016 43.3359 117.305 44.4375 117.305C44.7656 117.305 45.0625 117.352 45.2266 117.414V115.656C45.0859 115.625 44.8672 115.578 44.6172 115.578C43.6406 115.578 42.9141 116.156 42.6328 117.164H42.5938V115.719H40.7266V124ZM48.4766 124.133C49.5391 124.133 50.5781 123.578 51.0547 122.68H51.0938V124H52.9688V118.297C52.9688 116.633 51.6328 115.547 49.5781 115.547C47.4688 115.547 46.1484 116.656 46.0625 118.203H47.8672C47.9922 117.516 48.5781 117.07 49.5 117.07C50.4609 117.07 51.0469 117.57 51.0469 118.438V119.031L48.8594 119.156C46.8438 119.281 45.7109 120.164 45.7109 121.633C45.7109 123.125 46.875 124.133 48.4766 124.133ZM49.0625 122.664C48.2188 122.664 47.6562 122.234 47.6562 121.555C47.6562 120.898 48.1953 120.477 49.1328 120.414L51.0469 120.297V120.93C51.0469 121.93 50.1641 122.664 49.0625 122.664ZM56.9766 124.133C58.0391 124.133 59.0781 123.578 59.5547 122.68H59.5938V124H61.4688V118.297C61.4688 116.633 60.1328 115.547 58.0781 115.547C55.9688 115.547 54.6484 116.656 54.5625 118.203H56.3672C56.4922 117.516 57.0781 117.07 58 117.07C58.9609 117.07 59.5469 117.57 59.5469 118.438V119.031L57.3594 119.156C55.3438 119.281 54.2109 120.164 54.2109 121.633C54.2109 123.125 55.375 124.133 56.9766 124.133ZM57.5625 122.664C56.7188 122.664 56.1562 122.234 56.1562 121.555C56.1562 120.898 56.6953 120.477 57.6328 120.414L59.5469 120.297V120.93C59.5469 121.93 58.6641 122.664 57.5625 122.664ZM63.0938 124H65.0391V112.727H63.0938V124ZM72.3438 124L76.2656 112.727H74.0938L71.2344 121.836H71.1875L68.3281 112.727H66.1094L70.0312 124H72.3438ZM89.1016 124V112.727H86.7734L83.3203 121.328H83.2578L79.8047 112.727H77.4688V124H79.2891V116H79.3438L82.6016 124H83.9766L87.2344 116H87.2891V124H89.1016ZM96.2422 124V116.094H96.3125L101.914 124H103.648V112.727H101.711V120.625H101.641L96.0469 112.727H94.2969V124H96.2422ZM107.68 124.133C108.742 124.133 109.781 123.578 110.258 122.68H110.297V124H112.172V118.297C112.172 116.633 110.836 115.547 108.781 115.547C106.672 115.547 105.352 116.656 105.266 118.203H107.07C107.195 117.516 107.781 117.07 108.703 117.07C109.664 117.07 110.25 117.57 110.25 118.438V119.031L108.062 119.156C106.047 119.281 104.914 120.164 104.914 121.633C104.914 123.125 106.078 124.133 107.68 124.133ZM108.266 122.664C107.422 122.664 106.859 122.234 106.859 121.555C106.859 120.898 107.398 120.477 108.336 120.414L110.25 120.297V120.93C110.25 121.93 109.367 122.664 108.266 122.664ZM114.281 113.781V115.719H113.094V117.219H114.281V121.797C114.281 123.406 114.984 124.039 116.773 124.039C117.188 124.039 117.57 124.008 117.781 123.961V122.477C117.656 122.5 117.406 122.516 117.227 122.516C116.539 122.516 116.227 122.203 116.227 121.523V117.219H117.789V115.719H116.227V113.781H114.281ZM120.133 114.469C120.727 114.469 121.195 113.992 121.195 113.414C121.195 112.828 120.727 112.359 120.133 112.359C119.539 112.359 119.062 112.828 119.062 113.414C119.062 113.992 119.539 114.469 120.133 114.469ZM119.164 124H121.109V115.719H119.164V124ZM130.031 115.719H128L126.078 122.195H126.039L124.117 115.719H122.039L124.977 124H127.117L130.031 115.719ZM136.18 121.523C135.969 122.211 135.281 122.664 134.375 122.664C133.102 122.664 132.289 121.773 132.289 120.445V120.328H138.078V119.695C138.078 117.18 136.609 115.547 134.258 115.547C131.867 115.547 130.352 117.273 130.352 119.891C130.352 122.531 131.852 124.164 134.336 124.164C136.297 124.164 137.75 123.086 138 121.523H136.18ZM134.266 117.055C135.383 117.055 136.133 117.875 136.172 119.047H132.305C132.383 117.891 133.172 117.055 134.266 117.055ZM144.75 124V112.727H142.734V124H144.75ZM146.539 124H148.484V118.93C148.484 117.93 149.141 117.203 150.078 117.203C150.984 117.203 151.547 117.773 151.547 118.695V124H153.438V118.883C153.438 117.891 154.078 117.203 155.016 117.203C155.969 117.203 156.5 117.781 156.5 118.797V124H158.445V118.32C158.445 116.664 157.375 115.562 155.742 115.562C154.547 115.562 153.562 116.203 153.164 117.227H153.117C152.812 116.164 151.977 115.562 150.805 115.562C149.68 115.562 148.805 116.195 148.445 117.156H148.406V115.719H146.539V124ZM162.445 124.133C163.508 124.133 164.547 123.578 165.023 122.68H165.062V124H166.938V118.297C166.938 116.633 165.602 115.547 163.547 115.547C161.438 115.547 160.117 116.656 160.031 118.203H161.836C161.961 117.516 162.547 117.07 163.469 117.07C164.43 117.07 165.016 117.57 165.016 118.438V119.031L162.828 119.156C160.812 119.281 159.68 120.164 159.68 121.633C159.68 123.125 160.844 124.133 162.445 124.133ZM163.031 122.664C162.188 122.664 161.625 122.234 161.625 121.555C161.625 120.898 162.164 120.477 163.102 120.414L165.016 120.297V120.93C165.016 121.93 164.133 122.664 163.031 122.664ZM172.156 127.125C174.57 127.125 176.156 125.844 176.156 123.867V115.719H174.25V117.141H174.219C173.742 116.188 172.789 115.578 171.609 115.578C169.492 115.578 168.164 117.211 168.164 119.828C168.164 122.406 169.523 124.008 171.57 124.008C172.758 124.008 173.734 123.414 174.164 122.523H174.211V123.922C174.211 124.977 173.484 125.688 172.219 125.688C171.297 125.688 170.586 125.258 170.375 124.625H168.445C168.641 126.078 170.109 127.125 172.156 127.125ZM172.164 122.461C170.938 122.461 170.156 121.477 170.156 119.836C170.156 118.211 170.938 117.18 172.164 117.18C173.406 117.18 174.211 118.227 174.211 119.836C174.211 121.453 173.406 122.461 172.164 122.461ZM183.227 121.523C183.016 122.211 182.328 122.664 181.422 122.664C180.148 122.664 179.336 121.773 179.336 120.445V120.328H185.125V119.695C185.125 117.18 183.656 115.547 181.305 115.547C178.914 115.547 177.398 117.273 177.398 119.891C177.398 122.531 178.898 124.164 181.383 124.164C183.344 124.164 184.797 123.086 185.047 121.523H183.227ZM181.312 117.055C182.43 117.055 183.18 117.875 183.219 119.047H179.352C179.43 117.891 180.219 117.055 181.312 117.055Z" fill="white"/>
<circle cx="85" cy="156" r="4" fill="white"/>
<circle cx="109" cy="156" r="4" fill="white"/>
<circle cx="133" cy="156" r="4" fill="white"/>
<g filter="url(#filter6_dd_330_73089)">
<rect x="429" y="20" width="229" height="172" rx="8" fill="#1E2631"/>
<rect x="429.5" y="20.5" width="228" height="171" rx="7.5" stroke="white"/>
</g>
<circle cx="429" cy="106" r="3" fill="white"/>
<path d="M429 28C429 23.5817 432.582 20 437 20H650C654.418 20 658 23.5817 658 28V52H429V28Z" fill="white"/>
<path d="M496.938 30.7266V42H499.297V38.4453H501.406C503.781 38.4453 505.43 36.8984 505.43 34.5859C505.43 32.2656 503.836 30.7266 501.523 30.7266H496.938ZM499.297 32.5938H500.898C502.25 32.5938 503.031 33.3125 503.031 34.5938C503.031 35.8828 502.242 36.6016 500.891 36.6016H499.297V32.5938ZM514.367 33.625H512.086V38.4219C512.086 39.5312 511.453 40.2578 510.438 40.2578C509.43 40.2578 508.875 39.6641 508.875 38.5469V33.625H506.594V39.0234C506.594 40.9766 507.797 42.1562 509.609 42.1562C510.875 42.1562 511.703 41.5469 512.117 40.4922H512.164V42H514.367V33.625ZM520.828 42.1328C522.938 42.1328 524.227 40.5078 524.227 37.8125C524.227 35.1094 522.93 33.4922 520.82 33.4922C519.625 33.4922 518.695 34.0859 518.234 35.0781H518.188V30.7266H515.906V42H518.156V40.5625H518.203C518.664 41.5391 519.602 42.1328 520.828 42.1328ZM520.039 35.3203C521.172 35.3203 521.891 36.2891 521.891 37.8125C521.891 39.3438 521.18 40.2969 520.039 40.2969C518.93 40.2969 518.18 39.3281 518.18 37.8125C518.18 36.3125 518.938 35.3203 520.039 35.3203ZM525.469 42H527.75V30.7266H525.469V42ZM530.461 32.4922C531.125 32.4922 531.648 31.9609 531.648 31.3203C531.648 30.6719 531.125 30.1484 530.461 30.1484C529.797 30.1484 529.273 30.6719 529.273 31.3203C529.273 31.9609 529.797 32.4922 530.461 32.4922ZM529.328 42H531.609V33.625H529.328V42ZM540.742 36.7422C540.641 34.8438 539.203 33.4453 536.938 33.4453C534.43 33.4453 532.828 35.1172 532.828 37.8047C532.828 40.5391 534.43 42.1797 536.953 42.1797C539.156 42.1797 540.633 40.9062 540.75 38.9297H538.625C538.484 39.8438 537.891 40.3906 536.977 40.3906C535.844 40.3906 535.141 39.4531 535.141 37.8047C535.141 36.1875 535.844 35.2344 536.969 35.2344C537.906 35.2344 538.492 35.8594 538.625 36.7422H540.742ZM550.203 42.1875C552.969 42.1875 554.898 40.6016 555.164 38.0859H552.867C552.617 39.4219 551.609 40.2422 550.211 40.2422C548.406 40.2422 547.273 38.7578 547.273 36.3516C547.273 33.9766 548.422 32.4844 550.203 32.4844C551.578 32.4844 552.641 33.3906 552.859 34.7734H555.156C554.977 32.25 552.914 30.5312 550.203 30.5312C546.938 30.5312 544.867 32.7266 544.867 36.3594C544.867 40 546.922 42.1875 550.203 42.1875ZM556.484 42H558.766V30.7266H556.484V42ZM564.148 42.1797C566.68 42.1797 568.297 40.5625 568.297 37.8047C568.297 35.0859 566.656 33.4453 564.148 33.4453C561.641 33.4453 560 35.0938 560 37.8047C560 40.5547 561.617 42.1797 564.148 42.1797ZM564.148 40.4375C563.023 40.4375 562.312 39.4922 562.312 37.8125C562.312 36.1484 563.039 35.1875 564.148 35.1875C565.258 35.1875 565.977 36.1484 565.977 37.8125C565.977 39.4922 565.266 40.4375 564.148 40.4375ZM577.211 33.625H574.93V38.4219C574.93 39.5312 574.297 40.2578 573.281 40.2578C572.273 40.2578 571.719 39.6641 571.719 38.5469V33.625H569.438V39.0234C569.438 40.9766 570.641 42.1562 572.453 42.1562C573.719 42.1562 574.547 41.5469 574.961 40.4922H575.008V42H577.211V33.625ZM581.805 42.1328C583.039 42.1328 584.008 41.4844 584.414 40.5625H584.453V42H586.703V30.7266H584.422V35.0625H584.375C583.969 34.1328 583.031 33.4922 581.82 33.4922C579.719 33.4922 578.391 35.1406 578.391 37.7969C578.391 40.4766 579.711 42.1328 581.805 42.1328ZM582.578 35.3203C583.711 35.3203 584.438 36.2891 584.438 37.8125C584.438 39.3438 583.711 40.2969 582.578 40.2969C581.43 40.2969 580.727 39.3516 580.727 37.8125C580.727 36.2812 581.43 35.3203 582.578 35.3203Z" fill="#1E2631"/>
<path d="M451.961 74.5391C448.672 74.5391 446.609 76.7812 446.609 80.3672C446.609 83.9531 448.672 86.1875 451.961 86.1875C455.242 86.1875 457.305 83.9531 457.305 80.3672C457.305 76.7812 455.242 74.5391 451.961 74.5391ZM451.961 76.2578C453.969 76.2578 455.25 77.8516 455.25 80.3672C455.25 82.875 453.969 84.4688 451.961 84.4688C449.945 84.4688 448.672 82.875 448.672 80.3672C448.672 77.8516 449.945 76.2578 451.961 76.2578ZM458.719 86H460.664V81.1797C460.664 80.0156 461.328 79.3047 462.43 79.3047C462.758 79.3047 463.055 79.3516 463.219 79.4141V77.6562C463.078 77.625 462.859 77.5781 462.609 77.5781C461.633 77.5781 460.906 78.1562 460.625 79.1641H460.586V77.7188H458.719V86ZM466.469 86.1328C467.531 86.1328 468.57 85.5781 469.047 84.6797H469.086V86H470.961V80.2969C470.961 78.6328 469.625 77.5469 467.57 77.5469C465.461 77.5469 464.141 78.6562 464.055 80.2031H465.859C465.984 79.5156 466.57 79.0703 467.492 79.0703C468.453 79.0703 469.039 79.5703 469.039 80.4375V81.0312L466.852 81.1562C464.836 81.2812 463.703 82.1641 463.703 83.6328C463.703 85.125 464.867 86.1328 466.469 86.1328ZM467.055 84.6641C466.211 84.6641 465.648 84.2344 465.648 83.5547C465.648 82.8984 466.188 82.4766 467.125 82.4141L469.039 82.2969V82.9297C469.039 83.9297 468.156 84.6641 467.055 84.6641ZM479.828 80.6719C479.695 78.9297 478.344 77.5469 476.156 77.5469C473.75 77.5469 472.188 79.2109 472.188 81.8594C472.188 84.5469 473.75 86.1641 476.172 86.1641C478.25 86.1641 479.68 84.9453 479.836 83.0938H478C477.82 84.0312 477.18 84.5938 476.195 84.5938C474.961 84.5938 474.164 83.5938 474.164 81.8594C474.164 80.1562 474.953 79.125 476.18 79.125C477.219 79.125 477.836 79.7891 477.992 80.6719H479.828ZM481.055 86H483V74.7266H481.055V86ZM490.141 83.5234C489.93 84.2109 489.242 84.6641 488.336 84.6641C487.062 84.6641 486.25 83.7734 486.25 82.4453V82.3281H492.039V81.6953C492.039 79.1797 490.57 77.5469 488.219 77.5469C485.828 77.5469 484.312 79.2734 484.312 81.8906C484.312 84.5312 485.812 86.1641 488.297 86.1641C490.258 86.1641 491.711 85.0859 491.961 83.5234H490.141ZM488.227 79.0547C489.344 79.0547 490.094 79.875 490.133 81.0469H486.266C486.344 79.8906 487.133 79.0547 488.227 79.0547ZM501.555 86.1875C504.219 86.1875 506.062 84.7266 506.414 82.3125H504.438C504.125 83.6719 503.055 84.4766 501.562 84.4766C499.609 84.4766 498.375 82.8906 498.375 80.3594C498.375 77.8438 499.617 76.25 501.555 76.25C503.016 76.25 504.164 77.1797 504.43 78.5938H506.414C506.164 76.1719 504.172 74.5391 501.555 74.5391C498.352 74.5391 496.312 76.7656 496.312 80.3594C496.312 83.9766 498.336 86.1875 501.555 86.1875ZM507.805 86H509.75V74.7266H507.805V86ZM515.07 86.1641C517.5 86.1641 519.078 84.5469 519.078 81.8594C519.078 79.1797 517.484 77.5469 515.07 77.5469C512.656 77.5469 511.062 79.1875 511.062 81.8594C511.062 84.5469 512.641 86.1641 515.07 86.1641ZM515.07 84.625C513.836 84.625 513.039 83.625 513.039 81.8594C513.039 80.1016 513.844 79.0938 515.07 79.0938C516.305 79.0938 517.102 80.1016 517.102 81.8594C517.102 83.625 516.305 84.625 515.07 84.625ZM527.672 77.7188H525.727V82.5078C525.727 83.7109 525.031 84.5078 523.906 84.5078C522.812 84.5078 522.234 83.8672 522.234 82.6797V77.7188H520.289V83.0703C520.289 84.9844 521.43 86.1484 523.227 86.1484C524.484 86.1484 525.32 85.5703 525.758 84.5625H525.797V86H527.672V77.7188ZM532.359 86.1328C533.57 86.1328 534.523 85.5156 534.977 84.5859H535.008V86H536.914V74.7266H534.969V79.1094H534.922C534.484 78.1953 533.547 77.5781 532.359 77.5781C530.273 77.5781 528.922 79.2344 528.922 81.8516C528.922 84.4844 530.273 86.1328 532.359 86.1328ZM532.945 79.1797C534.172 79.1797 534.977 80.2344 534.977 81.8594C534.977 83.5 534.172 84.5391 532.945 84.5391C531.688 84.5391 530.914 83.5078 530.914 81.8594C530.914 80.2188 531.695 79.1797 532.945 79.1797ZM543.961 86V74.7266H541.945V86H543.961ZM545.75 86H547.695V81.2031C547.695 80.0156 548.406 79.2109 549.523 79.2109C550.633 79.2109 551.18 79.8672 551.18 81.0391V86H553.125V80.6484C553.125 78.7344 552.086 77.5625 550.258 77.5625C548.984 77.5625 548.102 78.1562 547.656 79.1406H547.617V77.7188H545.75V86ZM555.227 86H557.172V79.2188H558.797V77.7422H557.141V77.0625C557.141 76.3906 557.477 76.0391 558.219 76.0391C558.445 76.0391 558.672 76.0625 558.836 76.0859V74.7266C558.594 74.6797 558.172 74.6406 557.789 74.6406C555.992 74.6406 555.227 75.3984 555.227 77.0078V77.7422H554.094V79.2188H555.227V86ZM560.078 86H562.023V81.1797C562.023 80.0156 562.688 79.3047 563.789 79.3047C564.117 79.3047 564.414 79.3516 564.578 79.4141V77.6562C564.438 77.625 564.219 77.5781 563.969 77.5781C562.992 77.5781 562.266 78.1562 561.984 79.1641H561.945V77.7188H560.078V86ZM567.828 86.1328C568.891 86.1328 569.93 85.5781 570.406 84.6797H570.445V86H572.32V80.2969C572.32 78.6328 570.984 77.5469 568.93 77.5469C566.82 77.5469 565.5 78.6562 565.414 80.2031H567.219C567.344 79.5156 567.93 79.0703 568.852 79.0703C569.812 79.0703 570.398 79.5703 570.398 80.4375V81.0312L568.211 81.1562C566.195 81.2812 565.062 82.1641 565.062 83.6328C565.062 85.125 566.227 86.1328 567.828 86.1328ZM568.414 84.6641C567.57 84.6641 567.008 84.2344 567.008 83.5547C567.008 82.8984 567.547 82.4766 568.484 82.4141L570.398 82.2969V82.9297C570.398 83.9297 569.516 84.6641 568.414 84.6641ZM573.742 80.0938C573.742 81.3203 574.539 82.1016 576.125 82.4531L577.5 82.7578C578.367 82.9531 578.664 83.2344 578.664 83.7344C578.664 84.3516 578.078 84.7422 577.133 84.7422C576.148 84.7422 575.594 84.3359 575.445 83.5312H573.531C573.688 85.1328 574.969 86.1641 577.133 86.1641C579.164 86.1641 580.602 85.1094 580.602 83.5469C580.602 82.3438 579.938 81.6797 578.219 81.2969L576.844 80.9922C575.977 80.7969 575.633 80.4688 575.633 79.9922C575.633 79.3828 576.203 78.9766 577.062 78.9766C577.961 78.9766 578.516 79.4531 578.594 80.2031H580.406C580.359 78.6328 579.078 77.5469 577.062 77.5469C575.062 77.5469 573.742 78.5781 573.742 80.0938ZM582.383 75.7812V77.7188H581.195V79.2188H582.383V83.7969C582.383 85.4062 583.086 86.0391 584.875 86.0391C585.289 86.0391 585.672 86.0078 585.883 85.9609V84.4766C585.758 84.5 585.508 84.5156 585.328 84.5156C584.641 84.5156 584.328 84.2031 584.328 83.5234V79.2188H585.891V77.7188H584.328V75.7812H582.383ZM587.219 86H589.164V81.1797C589.164 80.0156 589.828 79.3047 590.93 79.3047C591.258 79.3047 591.555 79.3516 591.719 79.4141V77.6562C591.578 77.625 591.359 77.5781 591.109 77.5781C590.133 77.5781 589.406 78.1562 589.125 79.1641H589.086V77.7188H587.219V86ZM600.062 77.7188H598.117V82.5078C598.117 83.7109 597.422 84.5078 596.297 84.5078C595.203 84.5078 594.625 83.8672 594.625 82.6797V77.7188H592.68V83.0703C592.68 84.9844 593.82 86.1484 595.617 86.1484C596.875 86.1484 597.711 85.5703 598.148 84.5625H598.188V86H600.062V77.7188ZM608.953 80.6719C608.82 78.9297 607.469 77.5469 605.281 77.5469C602.875 77.5469 601.312 79.2109 601.312 81.8594C601.312 84.5469 602.875 86.1641 605.297 86.1641C607.375 86.1641 608.805 84.9453 608.961 83.0938H607.125C606.945 84.0312 606.305 84.5938 605.32 84.5938C604.086 84.5938 603.289 83.5938 603.289 81.8594C603.289 80.1562 604.078 79.125 605.305 79.125C606.344 79.125 606.961 79.7891 607.117 80.6719H608.953ZM610.664 75.7812V77.7188H609.477V79.2188H610.664V83.7969C610.664 85.4062 611.367 86.0391 613.156 86.0391C613.57 86.0391 613.953 86.0078 614.164 85.9609V84.4766C614.039 84.5 613.789 84.5156 613.609 84.5156C612.922 84.5156 612.609 84.2031 612.609 83.5234V79.2188H614.172V77.7188H612.609V75.7812H610.664ZM622.844 77.7188H620.898V82.5078C620.898 83.7109 620.203 84.5078 619.078 84.5078C617.984 84.5078 617.406 83.8672 617.406 82.6797V77.7188H615.461V83.0703C615.461 84.9844 616.602 86.1484 618.398 86.1484C619.656 86.1484 620.492 85.5703 620.93 84.5625H620.969V86H622.844V77.7188ZM624.438 86H626.383V81.1797C626.383 80.0156 627.047 79.3047 628.148 79.3047C628.477 79.3047 628.773 79.3516 628.938 79.4141V77.6562C628.797 77.625 628.578 77.5781 628.328 77.5781C627.352 77.5781 626.625 78.1562 626.344 79.1641H626.305V77.7188H624.438V86ZM635.109 83.5234C634.898 84.2109 634.211 84.6641 633.305 84.6641C632.031 84.6641 631.219 83.7734 631.219 82.4453V82.3281H637.008V81.6953C637.008 79.1797 635.539 77.5469 633.188 77.5469C630.797 77.5469 629.281 79.2734 629.281 81.8906C629.281 84.5312 630.781 86.1641 633.266 86.1641C635.227 86.1641 636.68 85.0859 636.93 83.5234H635.109ZM633.195 79.0547C634.312 79.0547 635.062 79.875 635.102 81.0469H631.234C631.312 79.8906 632.102 79.0547 633.195 79.0547Z" fill="white"/>
<path d="M471.359 114H473.484L469.484 102.727H467.211L463.211 114H465.289L466.25 111.086H470.398L471.359 114ZM468.297 104.719H468.352L469.922 109.531H466.719L468.297 104.719ZM474.5 114H476.445V108.93C476.445 107.93 477.102 107.203 478.039 107.203C478.945 107.203 479.508 107.773 479.508 108.695V114H481.398V108.883C481.398 107.891 482.039 107.203 482.977 107.203C483.93 107.203 484.461 107.781 484.461 108.797V114H486.406V108.32C486.406 106.664 485.336 105.562 483.703 105.562C482.508 105.562 481.523 106.203 481.125 107.227H481.078C480.773 106.164 479.938 105.562 478.766 105.562C477.641 105.562 476.766 106.195 476.406 107.156H476.367V105.719H474.5V114ZM490.406 114.133C491.469 114.133 492.508 113.578 492.984 112.68H493.023V114H494.898V108.297C494.898 106.633 493.562 105.547 491.508 105.547C489.398 105.547 488.078 106.656 487.992 108.203H489.797C489.922 107.516 490.508 107.07 491.43 107.07C492.391 107.07 492.977 107.57 492.977 108.438V109.031L490.789 109.156C488.773 109.281 487.641 110.164 487.641 111.633C487.641 113.125 488.805 114.133 490.406 114.133ZM490.992 112.664C490.148 112.664 489.586 112.234 489.586 111.555C489.586 110.898 490.125 110.477 491.062 110.414L492.977 110.297V110.93C492.977 111.93 492.094 112.664 490.992 112.664ZM496.242 114H502.844V112.484H498.656V112.445L502.773 107V105.719H496.281V107.234H500.531V107.266L496.242 112.82V114ZM507.727 114.164C510.156 114.164 511.734 112.547 511.734 109.859C511.734 107.18 510.141 105.547 507.727 105.547C505.312 105.547 503.719 107.188 503.719 109.859C503.719 112.547 505.297 114.164 507.727 114.164ZM507.727 112.625C506.492 112.625 505.695 111.625 505.695 109.859C505.695 108.102 506.5 107.094 507.727 107.094C508.961 107.094 509.758 108.102 509.758 109.859C509.758 111.625 508.961 112.625 507.727 112.625ZM512.984 114H514.93V109.203C514.93 108.016 515.641 107.211 516.758 107.211C517.867 107.211 518.414 107.867 518.414 109.039V114H520.359V108.648C520.359 106.734 519.32 105.562 517.492 105.562C516.219 105.562 515.336 106.156 514.891 107.141H514.852V105.719H512.984V114ZM531.891 105.844H531.969L534.273 114H536.172L539.195 102.727H537.102L535.148 111.266H535.086L532.82 102.727H531.039L528.773 111.266H528.711L526.758 102.727H524.664L527.688 114H529.586L531.891 105.844ZM544.906 111.523C544.695 112.211 544.008 112.664 543.102 112.664C541.828 112.664 541.016 111.773 541.016 110.445V110.328H546.805V109.695C546.805 107.18 545.336 105.547 542.984 105.547C540.594 105.547 539.078 107.273 539.078 109.891C539.078 112.531 540.578 114.164 543.062 114.164C545.023 114.164 546.477 113.086 546.727 111.523H544.906ZM542.992 107.055C544.109 107.055 544.859 107.875 544.898 109.047H541.031C541.109 107.891 541.898 107.055 542.992 107.055ZM552.695 114.133C554.789 114.133 556.109 112.508 556.109 109.859C556.109 107.211 554.781 105.578 552.695 105.578C551.523 105.578 550.578 106.172 550.109 107.141H550.062V102.727H548.117V114H550.023V112.586H550.062C550.547 113.547 551.477 114.133 552.695 114.133ZM552.094 107.18C553.336 107.18 554.117 108.219 554.117 109.859C554.117 111.508 553.344 112.539 552.094 112.539C550.891 112.539 550.055 111.484 550.055 109.859C550.055 108.25 550.891 107.18 552.094 107.18ZM560.305 110.852C560.398 112.914 562.125 114.188 564.734 114.188C567.445 114.188 569.141 112.828 569.141 110.672C569.141 109 568.148 108.047 565.773 107.555L564.555 107.305C563.148 107.008 562.586 106.516 562.586 105.75C562.586 104.805 563.477 104.211 564.727 104.211C566.016 104.211 566.906 104.852 567 105.914H568.93C568.883 103.898 567.234 102.539 564.742 102.539C562.297 102.539 560.555 103.883 560.555 105.867C560.555 107.516 561.609 108.578 563.867 109.039L565.078 109.289C566.547 109.594 567.109 110.094 567.109 110.906C567.109 111.844 566.164 112.516 564.805 112.516C563.398 112.516 562.383 111.891 562.234 110.852H560.305ZM575.938 111.523C575.727 112.211 575.039 112.664 574.133 112.664C572.859 112.664 572.047 111.773 572.047 110.445V110.328H577.836V109.695C577.836 107.18 576.367 105.547 574.016 105.547C571.625 105.547 570.109 107.273 570.109 109.891C570.109 112.531 571.609 114.164 574.094 114.164C576.055 114.164 577.508 113.086 577.758 111.523H575.938ZM574.023 107.055C575.141 107.055 575.891 107.875 575.93 109.047H572.062C572.141 107.891 572.93 107.055 574.023 107.055ZM579.094 114H581.039V109.18C581.039 108.016 581.703 107.305 582.805 107.305C583.133 107.305 583.43 107.352 583.594 107.414V105.656C583.453 105.625 583.234 105.578 582.984 105.578C582.008 105.578 581.281 106.156 581 107.164H580.961V105.719H579.094V114ZM591.883 105.719H589.852L587.93 112.195H587.891L585.969 105.719H583.891L586.828 114H588.969L591.883 105.719ZM593.797 104.469C594.391 104.469 594.859 103.992 594.859 103.414C594.859 102.828 594.391 102.359 593.797 102.359C593.203 102.359 592.727 102.828 592.727 103.414C592.727 103.992 593.203 104.469 593.797 104.469ZM592.828 114H594.773V105.719H592.828V114ZM603.703 108.672C603.57 106.93 602.219 105.547 600.031 105.547C597.625 105.547 596.062 107.211 596.062 109.859C596.062 112.547 597.625 114.164 600.047 114.164C602.125 114.164 603.555 112.945 603.711 111.094H601.875C601.695 112.031 601.055 112.594 600.07 112.594C598.836 112.594 598.039 111.594 598.039 109.859C598.039 108.156 598.828 107.125 600.055 107.125C601.094 107.125 601.711 107.789 601.867 108.672H603.703ZM610.359 111.523C610.148 112.211 609.461 112.664 608.555 112.664C607.281 112.664 606.469 111.773 606.469 110.445V110.328H612.258V109.695C612.258 107.18 610.789 105.547 608.438 105.547C606.047 105.547 604.531 107.273 604.531 109.891C604.531 112.531 606.031 114.164 608.516 114.164C610.477 114.164 611.93 113.086 612.18 111.523H610.359ZM608.445 107.055C609.562 107.055 610.312 107.875 610.352 109.047H606.484C606.562 107.891 607.352 107.055 608.445 107.055ZM613.367 108.094C613.367 109.32 614.164 110.102 615.75 110.453L617.125 110.758C617.992 110.953 618.289 111.234 618.289 111.734C618.289 112.352 617.703 112.742 616.758 112.742C615.773 112.742 615.219 112.336 615.07 111.531H613.156C613.312 113.133 614.594 114.164 616.758 114.164C618.789 114.164 620.227 113.109 620.227 111.547C620.227 110.344 619.562 109.68 617.844 109.297L616.469 108.992C615.602 108.797 615.258 108.469 615.258 107.992C615.258 107.383 615.828 106.977 616.688 106.977C617.586 106.977 618.141 107.453 618.219 108.203H620.031C619.984 106.633 618.703 105.547 616.688 105.547C614.688 105.547 613.367 106.578 613.367 108.094Z" fill="white"/>
<path d="M469.859 137.297V136.094H465.172V137.633H467.891L467.883 137.82C467.852 139.398 466.672 140.477 464.969 140.477C462.938 140.477 461.672 138.891 461.672 136.297C461.672 133.758 462.883 132.25 464.914 132.25C466.297 132.25 467.344 133.016 467.727 134.312H469.773C469.406 132.055 467.469 130.539 464.906 130.539C461.648 130.539 459.609 132.742 459.609 136.32C459.609 139.953 461.656 142.188 464.945 142.188C468.031 142.188 469.859 140.352 469.859 137.297ZM474.977 142.164C477.406 142.164 478.984 140.547 478.984 137.859C478.984 135.18 477.391 133.547 474.977 133.547C472.562 133.547 470.969 135.188 470.969 137.859C470.969 140.547 472.547 142.164 474.977 142.164ZM474.977 140.625C473.742 140.625 472.945 139.625 472.945 137.859C472.945 136.102 473.75 135.094 474.977 135.094C476.211 135.094 477.008 136.102 477.008 137.859C477.008 139.625 476.211 140.625 474.977 140.625ZM483.898 142.164C486.328 142.164 487.906 140.547 487.906 137.859C487.906 135.18 486.312 133.547 483.898 133.547C481.484 133.547 479.891 135.188 479.891 137.859C479.891 140.547 481.469 142.164 483.898 142.164ZM483.898 140.625C482.664 140.625 481.867 139.625 481.867 137.859C481.867 136.102 482.672 135.094 483.898 135.094C485.133 135.094 485.93 136.102 485.93 137.859C485.93 139.625 485.133 140.625 483.898 140.625ZM492.805 145.125C495.219 145.125 496.805 143.844 496.805 141.867V133.719H494.898V135.141H494.867C494.391 134.188 493.438 133.578 492.258 133.578C490.141 133.578 488.812 135.211 488.812 137.828C488.812 140.406 490.172 142.008 492.219 142.008C493.406 142.008 494.383 141.414 494.812 140.523H494.859V141.922C494.859 142.977 494.133 143.688 492.867 143.688C491.945 143.688 491.234 143.258 491.023 142.625H489.094C489.289 144.078 490.758 145.125 492.805 145.125ZM492.812 140.461C491.586 140.461 490.805 139.477 490.805 137.836C490.805 136.211 491.586 135.18 492.812 135.18C494.055 135.18 494.859 136.227 494.859 137.836C494.859 139.453 494.055 140.461 492.812 140.461ZM498.445 142H500.391V130.727H498.445V142ZM507.531 139.523C507.32 140.211 506.633 140.664 505.727 140.664C504.453 140.664 503.641 139.773 503.641 138.445V138.328H509.43V137.695C509.43 135.18 507.961 133.547 505.609 133.547C503.219 133.547 501.703 135.273 501.703 137.891C501.703 140.531 503.203 142.164 505.688 142.164C507.648 142.164 509.102 141.086 509.352 139.523H507.531ZM505.617 135.055C506.734 135.055 507.484 135.875 507.523 137.047H503.656C503.734 135.891 504.523 135.055 505.617 135.055ZM518.945 142.188C521.609 142.188 523.453 140.727 523.805 138.312H521.828C521.516 139.672 520.445 140.477 518.953 140.477C517 140.477 515.766 138.891 515.766 136.359C515.766 133.844 517.008 132.25 518.945 132.25C520.406 132.25 521.555 133.18 521.82 134.594H523.805C523.555 132.172 521.562 130.539 518.945 130.539C515.742 130.539 513.703 132.766 513.703 136.359C513.703 139.977 515.727 142.188 518.945 142.188ZM525.195 142H527.141V130.727H525.195V142ZM532.461 142.164C534.891 142.164 536.469 140.547 536.469 137.859C536.469 135.18 534.875 133.547 532.461 133.547C530.047 133.547 528.453 135.188 528.453 137.859C528.453 140.547 530.031 142.164 532.461 142.164ZM532.461 140.625C531.227 140.625 530.43 139.625 530.43 137.859C530.43 136.102 531.234 135.094 532.461 135.094C533.695 135.094 534.492 136.102 534.492 137.859C534.492 139.625 533.695 140.625 532.461 140.625ZM545.062 133.719H543.117V138.508C543.117 139.711 542.422 140.508 541.297 140.508C540.203 140.508 539.625 139.867 539.625 138.68V133.719H537.68V139.07C537.68 140.984 538.82 142.148 540.617 142.148C541.875 142.148 542.711 141.57 543.148 140.562H543.188V142H545.062V133.719ZM549.75 142.133C550.961 142.133 551.914 141.516 552.367 140.586H552.398V142H554.305V130.727H552.359V135.109H552.312C551.875 134.195 550.938 133.578 549.75 133.578C547.664 133.578 546.312 135.234 546.312 137.852C546.312 140.484 547.664 142.133 549.75 142.133ZM550.336 135.18C551.562 135.18 552.367 136.234 552.367 137.859C552.367 139.5 551.562 140.539 550.336 140.539C549.078 140.539 548.305 139.508 548.305 137.859C548.305 136.219 549.086 135.18 550.336 135.18ZM559.336 130.727V142H561.352V138.273H563.633C565.914 138.273 567.516 136.75 567.516 134.5C567.516 132.25 565.961 130.727 563.719 130.727H559.336ZM561.352 132.375H563.188C564.633 132.375 565.469 133.148 565.469 134.5C565.469 135.867 564.625 136.648 563.18 136.648H561.352V132.375ZM568.852 142H570.797V130.727H568.852V142ZM574.891 142.133C575.953 142.133 576.992 141.578 577.469 140.68H577.508V142H579.383V136.297C579.383 134.633 578.047 133.547 575.992 133.547C573.883 133.547 572.562 134.656 572.477 136.203H574.281C574.406 135.516 574.992 135.07 575.914 135.07C576.875 135.07 577.461 135.57 577.461 136.438V137.031L575.273 137.156C573.258 137.281 572.125 138.164 572.125 139.633C572.125 141.125 573.289 142.133 574.891 142.133ZM575.477 140.664C574.633 140.664 574.07 140.234 574.07 139.555C574.07 138.898 574.609 138.477 575.547 138.414L577.461 138.297V138.93C577.461 139.93 576.578 140.664 575.477 140.664ZM581.492 131.781V133.719H580.305V135.219H581.492V139.797C581.492 141.406 582.195 142.039 583.984 142.039C584.398 142.039 584.781 142.008 584.992 141.961V140.477C584.867 140.5 584.617 140.516 584.438 140.516C583.75 140.516 583.438 140.203 583.438 139.523V135.219H585V133.719H583.438V131.781H581.492ZM586.867 142H588.812V135.219H590.438V133.742H588.781V133.062C588.781 132.391 589.117 132.039 589.859 132.039C590.086 132.039 590.312 132.062 590.477 132.086V130.727C590.234 130.68 589.812 130.641 589.43 130.641C587.633 130.641 586.867 131.398 586.867 133.008V133.742H585.734V135.219H586.867V142ZM595.086 142.164C597.516 142.164 599.094 140.547 599.094 137.859C599.094 135.18 597.5 133.547 595.086 133.547C592.672 133.547 591.078 135.188 591.078 137.859C591.078 140.547 592.656 142.164 595.086 142.164ZM595.086 140.625C593.852 140.625 593.055 139.625 593.055 137.859C593.055 136.102 593.859 135.094 595.086 135.094C596.32 135.094 597.117 136.102 597.117 137.859C597.117 139.625 596.32 140.625 595.086 140.625ZM600.344 142H602.289V137.18C602.289 136.016 602.953 135.305 604.055 135.305C604.383 135.305 604.68 135.352 604.844 135.414V133.656C604.703 133.625 604.484 133.578 604.234 133.578C603.258 133.578 602.531 134.156 602.25 135.164H602.211V133.719H600.344V142ZM605.844 142H607.789V136.93C607.789 135.93 608.445 135.203 609.383 135.203C610.289 135.203 610.852 135.773 610.852 136.695V142H612.742V136.883C612.742 135.891 613.383 135.203 614.32 135.203C615.273 135.203 615.805 135.781 615.805 136.797V142H617.75V136.32C617.75 134.664 616.68 133.562 615.047 133.562C613.852 133.562 612.867 134.203 612.469 135.227H612.422C612.117 134.164 611.281 133.562 610.109 133.562C608.984 133.562 608.109 134.195 607.75 135.156H607.711V133.719H605.844V142ZM624.188 135.5L624.742 134.523L623.016 133.539L624.75 132.539L624.188 131.562L622.523 132.578L622.594 130.727H621.336L621.406 132.578L619.742 131.562L619.195 132.539L620.906 133.531L619.188 134.516L619.734 135.5L621.406 134.484L621.336 136.336H622.594L622.523 134.484L624.188 135.5Z" fill="white"/>
<path d="M495.625 170V158.727H493.297L489.844 167.328H489.781L486.328 158.727H483.992V170H485.812V162H485.867L489.125 170H490.5L493.758 162H493.812V170H495.625ZM498.438 160.469C499.031 160.469 499.5 159.992 499.5 159.414C499.5 158.828 499.031 158.359 498.438 158.359C497.844 158.359 497.367 158.828 497.367 159.414C497.367 159.992 497.844 160.469 498.438 160.469ZM497.469 170H499.414V161.719H497.469V170ZM508.344 164.672C508.211 162.93 506.859 161.547 504.672 161.547C502.266 161.547 500.703 163.211 500.703 165.859C500.703 168.547 502.266 170.164 504.688 170.164C506.766 170.164 508.195 168.945 508.352 167.094H506.516C506.336 168.031 505.695 168.594 504.711 168.594C503.477 168.594 502.68 167.594 502.68 165.859C502.68 164.156 503.469 163.125 504.695 163.125C505.734 163.125 506.352 163.789 506.508 164.672H508.344ZM509.516 170H511.461V165.18C511.461 164.016 512.125 163.305 513.227 163.305C513.555 163.305 513.852 163.352 514.016 163.414V161.656C513.875 161.625 513.656 161.578 513.406 161.578C512.43 161.578 511.703 162.156 511.422 163.164H511.383V161.719H509.516V170ZM518.367 170.164C520.797 170.164 522.375 168.547 522.375 165.859C522.375 163.18 520.781 161.547 518.367 161.547C515.953 161.547 514.359 163.188 514.359 165.859C514.359 168.547 515.938 170.164 518.367 170.164ZM518.367 168.625C517.133 168.625 516.336 167.625 516.336 165.859C516.336 164.102 517.141 163.094 518.367 163.094C519.602 163.094 520.398 164.102 520.398 165.859C520.398 167.625 519.602 168.625 518.367 168.625ZM523.477 164.094C523.477 165.32 524.273 166.102 525.859 166.453L527.234 166.758C528.102 166.953 528.398 167.234 528.398 167.734C528.398 168.352 527.812 168.742 526.867 168.742C525.883 168.742 525.328 168.336 525.18 167.531H523.266C523.422 169.133 524.703 170.164 526.867 170.164C528.898 170.164 530.336 169.109 530.336 167.547C530.336 166.344 529.672 165.68 527.953 165.297L526.578 164.992C525.711 164.797 525.367 164.469 525.367 163.992C525.367 163.383 525.938 162.977 526.797 162.977C527.695 162.977 528.25 163.453 528.328 164.203H530.141C530.094 162.633 528.812 161.547 526.797 161.547C524.797 161.547 523.477 162.578 523.477 164.094ZM535.242 170.164C537.672 170.164 539.25 168.547 539.25 165.859C539.25 163.18 537.656 161.547 535.242 161.547C532.828 161.547 531.234 163.188 531.234 165.859C531.234 168.547 532.812 170.164 535.242 170.164ZM535.242 168.625C534.008 168.625 533.211 167.625 533.211 165.859C533.211 164.102 534.016 163.094 535.242 163.094C536.477 163.094 537.273 164.102 537.273 165.859C537.273 167.625 536.477 168.625 535.242 168.625ZM541.039 170H542.984V163.219H544.609V161.742H542.953V161.062C542.953 160.391 543.289 160.039 544.031 160.039C544.258 160.039 544.484 160.062 544.648 160.086V158.727C544.406 158.68 543.984 158.641 543.602 158.641C541.805 158.641 541.039 159.398 541.039 161.008V161.742H539.906V163.219H541.039V170ZM546.43 159.781V161.719H545.242V163.219H546.43V167.797C546.43 169.406 547.133 170.039 548.922 170.039C549.336 170.039 549.719 170.008 549.93 169.961V168.477C549.805 168.5 549.555 168.516 549.375 168.516C548.688 168.516 548.375 168.203 548.375 167.523V163.219H549.938V161.719H548.375V159.781H546.43ZM562.031 170H564.156L560.156 158.727H557.883L553.883 170H555.961L556.922 167.086H561.07L562.031 170ZM558.969 160.719H559.023L560.594 165.531H557.391L558.969 160.719ZM565.008 170H571.609V168.484H567.422V168.445L571.539 163V161.719H565.047V163.234H569.297V163.266L565.008 168.82V170ZM580.391 161.719H578.445V166.508C578.445 167.711 577.75 168.508 576.625 168.508C575.531 168.508 574.953 167.867 574.953 166.68V161.719H573.008V167.07C573.008 168.984 574.148 170.148 575.945 170.148C577.203 170.148 578.039 169.57 578.477 168.562H578.516V170H580.391V161.719ZM581.984 170H583.93V165.18C583.93 164.016 584.594 163.305 585.695 163.305C586.023 163.305 586.32 163.352 586.484 163.414V161.656C586.344 161.625 586.125 161.578 585.875 161.578C584.898 161.578 584.172 162.156 583.891 163.164H583.852V161.719H581.984V170ZM592.656 167.523C592.445 168.211 591.758 168.664 590.852 168.664C589.578 168.664 588.766 167.773 588.766 166.445V166.328H594.555V165.695C594.555 163.18 593.086 161.547 590.734 161.547C588.344 161.547 586.828 163.273 586.828 165.891C586.828 168.531 588.328 170.164 590.812 170.164C592.773 170.164 594.227 169.086 594.477 167.523H592.656ZM590.742 163.055C591.859 163.055 592.609 163.875 592.648 165.047H588.781C588.859 163.891 589.648 163.055 590.742 163.055ZM600.688 163.5L601.242 162.523L599.516 161.539L601.25 160.539L600.688 159.562L599.023 160.578L599.094 158.727H597.836L597.906 160.578L596.242 159.562L595.695 160.539L597.406 161.531L595.688 162.516L596.234 163.5L597.906 162.484L597.836 164.336H599.094L599.023 162.484L600.688 163.5Z" fill="white"/>
<defs>
<filter id="filter0_dd_330_73089" x="220" y="0" width="188" height="78" filterUnits="userSpaceOnUse" color-interpolation-filters="sRGB">
<feFlood flood-opacity="0" result="BackgroundImageFix"/>
<feColorMatrix in="SourceAlpha" type="matrix" values="0 0 0 0 0 0 0 0 0 0 0 0 0 0 0 0 0 0 127 0" result="hardAlpha"/>
<feOffset dx="8" dy="12"/>
<feGaussianBlur stdDeviation="9"/>
<feComposite in2="hardAlpha" operator="out"/>
<feColorMatrix type="matrix" values="0 0 0 0 0.239216 0 0 0 0 0.513726 0 0 0 0 1 0 0 0 0.1 0"/>
<feBlend mode="normal" in2="BackgroundImageFix" result="effect1_dropShadow_330_73089"/>
<feColorMatrix in="SourceAlpha" type="matrix" values="0 0 0 0 0 0 0 0 0 0 0 0 0 0 0 0 0 0 127 0" result="hardAlpha"/>
<feOffset dx="-4" dy="-4"/>
<feGaussianBlur stdDeviation="8"/>
<feComposite in2="hardAlpha" operator="out"/>
<feColorMatrix type="matrix" values="0 0 0 0 0.0901961 0 0 0 0 0.415686 0 0 0 0 1 0 0 0 0.05 0"/>
<feBlend mode="normal" in2="effect1_dropShadow_330_73089" result="effect2_dropShadow_330_73089"/>
<feBlend mode="normal" in="SourceGraphic" in2="effect2_dropShadow_330_73089" result="shape"/>
</filter>
<filter id="filter1_dd_330_73089" x="220" y="32" width="188" height="78" filterUnits="userSpaceOnUse" color-interpolation-filters="sRGB">
<feFlood flood-opacity="0" result="BackgroundImageFix"/>
<feColorMatrix in="SourceAlpha" type="matrix" values="0 0 0 0 0 0 0 0 0 0 0 0 0 0 0 0 0 0 127 0" result="hardAlpha"/>
<feOffset dx="8" dy="12"/>
<feGaussianBlur stdDeviation="9"/>
<feComposite in2="hardAlpha" operator="out"/>
<feColorMatrix type="matrix" values="0 0 0 0 0.239216 0 0 0 0 0.513726 0 0 0 0 1 0 0 0 0.1 0"/>
<feBlend mode="normal" in2="BackgroundImageFix" result="effect1_dropShadow_330_73089"/>
<feColorMatrix in="SourceAlpha" type="matrix" values="0 0 0 0 0 0 0 0 0 0 0 0 0 0 0 0 0 0 127 0" result="hardAlpha"/>
<feOffset dx="-4" dy="-4"/>
<feGaussianBlur stdDeviation="8"/>
<feComposite in2="hardAlpha" operator="out"/>
<feColorMatrix type="matrix" values="0 0 0 0 0.0901961 0 0 0 0 0.415686 0 0 0 0 1 0 0 0 0.05 0"/>
<feBlend mode="normal" in2="effect1_dropShadow_330_73089" result="effect2_dropShadow_330_73089"/>
<feBlend mode="normal" in="SourceGraphic" in2="effect2_dropShadow_330_73089" result="shape"/>
</filter>
<filter id="filter2_dd_330_73089" x="220" y="64" width="188" height="78" filterUnits="userSpaceOnUse" color-interpolation-filters="sRGB">
<feFlood flood-opacity="0" result="BackgroundImageFix"/>
<feColorMatrix in="SourceAlpha" type="matrix" values="0 0 0 0 0 0 0 0 0 0 0 0 0 0 0 0 0 0 127 0" result="hardAlpha"/>
<feOffset dx="8" dy="12"/>
<feGaussianBlur stdDeviation="9"/>
<feComposite in2="hardAlpha" operator="out"/>
<feColorMatrix type="matrix" values="0 0 0 0 0.239216 0 0 0 0 0.513726 0 0 0 0 1 0 0 0 0.1 0"/>
<feBlend mode="normal" in2="BackgroundImageFix" result="effect1_dropShadow_330_73089"/>
<feColorMatrix in="SourceAlpha" type="matrix" values="0 0 0 0 0 0 0 0 0 0 0 0 0 0 0 0 0 0 127 0" result="hardAlpha"/>
<feOffset dx="-4" dy="-4"/>
<feGaussianBlur stdDeviation="8"/>
<feComposite in2="hardAlpha" operator="out"/>
<feColorMatrix type="matrix" values="0 0 0 0 0.0901961 0 0 0 0 0.415686 0 0 0 0 1 0 0 0 0.05 0"/>
<feBlend mode="normal" in2="effect1_dropShadow_330_73089" result="effect2_dropShadow_330_73089"/>
<feBlend mode="normal" in="SourceGraphic" in2="effect2_dropShadow_330_73089" result="shape"/>
</filter>
<filter id="filter3_dd_330_73089" x="220" y="96" width="188" height="78" filterUnits="userSpaceOnUse" color-interpolation-filters="sRGB">
<feFlood flood-opacity="0" result="BackgroundImageFix"/>
<feColorMatrix in="SourceAlpha" type="matrix" values="0 0 0 0 0 0 0 0 0 0 0 0 0 0 0 0 0 0 127 0" result="hardAlpha"/>
<feOffset dx="8" dy="12"/>
<feGaussianBlur stdDeviation="9"/>
<feComposite in2="hardAlpha" operator="out"/>
<feColorMatrix type="matrix" values="0 0 0 0 0.239216 0 0 0 0 0.513726 0 0 0 0 1 0 0 0 0.1 0"/>
<feBlend mode="normal" in2="BackgroundImageFix" result="effect1_dropShadow_330_73089"/>
<feColorMatrix in="SourceAlpha" type="matrix" values="0 0 0 0 0 0 0 0 0 0 0 0 0 0 0 0 0 0 127 0" result="hardAlpha"/>
<feOffset dx="-4" dy="-4"/>
<feGaussianBlur stdDeviation="8"/>
<feComposite in2="hardAlpha" operator="out"/>
<feColorMatrix type="matrix" values="0 0 0 0 0.0901961 0 0 0 0 0.415686 0 0 0 0 1 0 0 0 0.05 0"/>
<feBlend mode="normal" in2="effect1_dropShadow_330_73089" result="effect2_dropShadow_330_73089"/>
<feBlend mode="normal" in="SourceGraphic" in2="effect2_dropShadow_330_73089" result="shape"/>
</filter>
<filter id="filter4_dd_330_73089" x="220" y="144" width="188" height="78" filterUnits="userSpaceOnUse" color-interpolation-filters="sRGB">
<feFlood flood-opacity="0" result="BackgroundImageFix"/>
<feColorMatrix in="SourceAlpha" type="matrix" values="0 0 0 0 0 0 0 0 0 0 0 0 0 0 0 0 0 0 127 0" result="hardAlpha"/>
<feOffset dx="8" dy="12"/>
<feGaussianBlur stdDeviation="9"/>
<feComposite in2="hardAlpha" operator="out"/>
<feColorMatrix type="matrix" values="0 0 0 0 0.239216 0 0 0 0 0.513726 0 0 0 0 1 0 0 0 0.1 0"/>
<feBlend mode="normal" in2="BackgroundImageFix" result="effect1_dropShadow_330_73089"/>
<feColorMatrix in="SourceAlpha" type="matrix" values="0 0 0 0 0 0 0 0 0 0 0 0 0 0 0 0 0 0 127 0" result="hardAlpha"/>
<feOffset dx="-4" dy="-4"/>
<feGaussianBlur stdDeviation="8"/>
<feComposite in2="hardAlpha" operator="out"/>
<feColorMatrix type="matrix" values="0 0 0 0 0.0901961 0 0 0 0 0.415686 0 0 0 0 1 0 0 0 0.05 0"/>
<feBlend mode="normal" in2="effect1_dropShadow_330_73089" result="effect2_dropShadow_330_73089"/>
<feBlend mode="normal" in="SourceGraphic" in2="effect2_dropShadow_330_73089" result="shape"/>
</filter>
<filter id="filter5_dd_330_73089" x="0" y="0" width="221" height="222" filterUnits="userSpaceOnUse" color-interpolation-filters="sRGB">
<feFlood flood-opacity="0" result="BackgroundImageFix"/>
<feColorMatrix in="SourceAlpha" type="matrix" values="0 0 0 0 0 0 0 0 0 0 0 0 0 0 0 0 0 0 127 0" result="hardAlpha"/>
<feOffset dx="8" dy="12"/>
<feGaussianBlur stdDeviation="9"/>
<feComposite in2="hardAlpha" operator="out"/>
<feColorMatrix type="matrix" values="0 0 0 0 0.239216 0 0 0 0 0.513726 0 0 0 0 1 0 0 0 0.1 0"/>
<feBlend mode="normal" in2="BackgroundImageFix" result="effect1_dropShadow_330_73089"/>
<feColorMatrix in="SourceAlpha" type="matrix" values="0 0 0 0 0 0 0 0 0 0 0 0 0 0 0 0 0 0 127 0" result="hardAlpha"/>
<feOffset dx="-4" dy="-4"/>
<feGaussianBlur stdDeviation="8"/>
<feComposite in2="hardAlpha" operator="out"/>
<feColorMatrix type="matrix" values="0 0 0 0 0.0901961 0 0 0 0 0.415686 0 0 0 0 1 0 0 0 0.05 0"/>
<feBlend mode="normal" in2="effect1_dropShadow_330_73089" result="effect2_dropShadow_330_73089"/>
<feBlend mode="normal" in="SourceGraphic" in2="effect2_dropShadow_330_73089" result="shape"/>
</filter>
<filter id="filter6_dd_330_73089" x="409" y="0" width="275" height="222" filterUnits="userSpaceOnUse" color-interpolation-filters="sRGB">
<feFlood flood-opacity="0" result="BackgroundImageFix"/>
<feColorMatrix in="SourceAlpha" type="matrix" values="0 0 0 0 0 0 0 0 0 0 0 0 0 0 0 0 0 0 127 0" result="hardAlpha"/>
<feOffset dx="8" dy="12"/>
<feGaussianBlur stdDeviation="9"/>
<feComposite in2="hardAlpha" operator="out"/>
<feColorMatrix type="matrix" values="0 0 0 0 0.239216 0 0 0 0 0.513726 0 0 0 0 1 0 0 0 0.1 0"/>
<feBlend mode="normal" in2="BackgroundImageFix" result="effect1_dropShadow_330_73089"/>
<feColorMatrix in="SourceAlpha" type="matrix" values="0 0 0 0 0 0 0 0 0 0 0 0 0 0 0 0 0 0 127 0" result="hardAlpha"/>
<feOffset dx="-4" dy="-4"/>
<feGaussianBlur stdDeviation="8"/>
<feComposite in2="hardAlpha" operator="out"/>
<feColorMatrix type="matrix" values="0 0 0 0 0.0901961 0 0 0 0 0.415686 0 0 0 0 1 0 0 0 0.05 0"/>
<feBlend mode="normal" in2="effect1_dropShadow_330_73089" result="effect2_dropShadow_330_73089"/>
<feBlend mode="normal" in="SourceGraphic" in2="effect2_dropShadow_330_73089" result="shape"/>
</filter>
</defs>
</svg>
