<svg width="291" height="664" viewBox="0 0 291 664" fill="none" xmlns="http://www.w3.org/2000/svg">
<path fill-rule="evenodd" clip-rule="evenodd" d="M237 228C237 227.448 237.448 227 238 227H289V227C290.105 227 291 227.895 291 229V229V267V269V307V309V347V349V407V409V550V550C291 551.105 290.105 552 289 552V552H260C259.448 552 259 551.552 259 551V551C259 550.448 259.448 550 260 550H287C288.105 550 289 549.105 289 548V411C289 409.895 288.105 409 287 409H238C237.448 409 237 408.552 237 408V408C237 407.448 237.448 407 238 407H287C288.105 407 289 406.105 289 405V351C289 349.895 288.105 349 287 349H238C237.448 349 237 348.552 237 348V348C237 347.448 237.448 347 238 347H287C288.105 347 289 346.105 289 345V311C289 309.895 288.105 309 287 309H238C237.448 309 237 308.552 237 308V308C237 307.448 237.448 307 238 307H287C288.105 307 289 306.105 289 305V271C289 269.895 288.105 269 287 269H238C237.448 269 237 268.552 237 268V268C237 267.448 237.448 267 238 267H287C288.105 267 289 266.105 289 265V231C289 229.895 288.105 229 287 229H238C237.448 229 237 228.552 237 228V228Z" fill="#E97826"/>
<path fill-rule="evenodd" clip-rule="evenodd" d="M0 113C0 112.448 0.447716 112 1 112H33C33.5523 112 34 112.448 34 113V113C34 113.552 33.5523 114 33 114H4C2.89543 114 2 114.895 2 116V225C2 226.105 2.89543 227 4 227H53C53.5523 227 54 227.448 54 228V228C54 228.552 53.5523 229 53 229H4C2.89543 229 2 229.895 2 231V265C2 266.105 2.89543 267 4 267H53C53.5523 267 54 267.448 54 268V268C54 268.552 53.5523 269 53 269H4C2.89543 269 2 269.895 2 271V305C2 306.105 2.89543 307 4 307H53C53.5523 307 54 307.448 54 308V308C54 308.552 53.5523 309 53 309H4C2.89543 309 2 309.895 2 311V345C2 346.105 2.89543 347 4 347H53C53.5523 347 54 347.448 54 348V348C54 348.552 53.5523 349 53 349H4C2.89543 349 2 349.895 2 351V405C2 406.105 2.89543 407 4 407H53C53.5523 407 54 407.448 54 408V408C54 408.552 53.5523 409 53 409H2V409C0.895431 409 0 408.105 0 407V407V349V347V309V307V269V267V229V227V114V113V113Z" fill="#E97826"/>
<g filter="url(#filter0_dd_244_3913)">
<rect x="56" y="210" width="183" height="36" rx="8" fill="#1E2631"/>
<rect x="56.5" y="210.5" width="182" height="35" rx="7.5" stroke="white"/>
</g>
<path d="M98.0234 222.531C94.6797 222.531 92.5859 224.773 92.5859 228.367C92.5859 231.953 94.6797 234.188 98.0234 234.188C101.359 234.188 103.461 231.953 103.461 228.367C103.461 224.773 101.359 222.531 98.0234 222.531ZM98.0234 224.5C99.8672 224.5 101.047 226 101.047 228.367C101.047 230.727 99.8672 232.219 98.0234 232.219C96.1719 232.219 94.9922 230.727 94.9922 228.367C94.9922 226 96.1797 224.5 98.0234 224.5ZM109.766 234.133C111.875 234.133 113.164 232.508 113.164 229.812C113.164 227.109 111.867 225.492 109.758 225.492C108.562 225.492 107.633 226.086 107.172 227.078H107.125V222.727H104.844V234H107.094V232.562H107.141C107.602 233.539 108.539 234.133 109.766 234.133ZM108.977 227.32C110.109 227.32 110.828 228.289 110.828 229.812C110.828 231.344 110.117 232.297 108.977 232.297C107.867 232.297 107.117 231.328 107.117 229.812C107.117 228.312 107.875 227.32 108.977 227.32ZM115.516 224.492C116.18 224.492 116.703 223.961 116.703 223.32C116.703 222.672 116.18 222.148 115.516 222.148C114.859 222.148 114.328 222.672 114.328 223.32C114.328 223.961 114.859 224.492 115.516 224.492ZM116.672 225.625H114.391V234.32C114.391 235.008 114.094 235.273 113.336 235.273C113.266 235.273 113.102 235.273 113.047 235.266V236.945C113.148 236.961 113.492 236.969 113.672 236.969C115.633 236.969 116.672 236.086 116.672 234.383V225.625ZM123.742 231.438C123.531 232.078 122.891 232.492 122.055 232.492C120.891 232.492 120.133 231.672 120.133 230.477V230.336H125.906V229.641C125.906 227.094 124.367 225.445 121.93 225.445C119.453 225.445 117.891 227.18 117.891 229.852C117.891 232.531 119.438 234.18 122.016 234.18C124.086 234.18 125.586 233.078 125.836 231.438H123.742ZM121.953 227.133C122.969 227.133 123.664 227.867 123.711 228.938H120.156C120.234 227.891 120.953 227.133 121.953 227.133ZM134.695 228.742C134.594 226.844 133.156 225.445 130.891 225.445C128.383 225.445 126.781 227.117 126.781 229.805C126.781 232.539 128.383 234.18 130.906 234.18C133.109 234.18 134.586 232.906 134.703 230.93H132.578C132.438 231.844 131.844 232.391 130.93 232.391C129.797 232.391 129.094 231.453 129.094 229.805C129.094 228.188 129.797 227.234 130.922 227.234C131.859 227.234 132.445 227.859 132.578 228.742H134.695ZM136.414 223.695V225.625H135.234V227.344H136.414V231.742C136.414 233.375 137.18 234.031 139.148 234.031C139.609 234.031 140 233.992 140.234 233.938V232.258C140.094 232.281 139.883 232.297 139.68 232.297C139.008 232.297 138.695 231.992 138.695 231.352V227.344H140.242V225.625H138.695V223.695H136.414ZM144.43 230.781C144.5 232.906 146.289 234.188 148.977 234.188C151.797 234.188 153.523 232.797 153.523 230.594C153.523 228.883 152.484 227.922 150.102 227.445L148.906 227.203C147.578 226.938 147.031 226.508 147.031 225.812C147.031 224.984 147.812 224.438 148.977 224.438C150.164 224.438 151 225.016 151.078 225.977H153.305C153.266 223.906 151.609 222.531 148.977 222.531C146.469 222.531 144.672 223.898 144.672 225.961C144.672 227.641 145.773 228.719 148.023 229.164L149.211 229.398C150.625 229.688 151.156 230.109 151.156 230.852C151.156 231.68 150.297 232.289 149.039 232.289C147.758 232.289 146.805 231.727 146.656 230.781H144.43ZM155.383 223.695V225.625H154.203V227.344H155.383V231.742C155.383 233.375 156.148 234.031 158.117 234.031C158.578 234.031 158.969 233.992 159.203 233.938V232.258C159.062 232.281 158.852 232.297 158.648 232.297C157.977 232.297 157.664 231.992 157.664 231.352V227.344H159.211V225.625H157.664V223.695H155.383ZM164.18 234.18C166.711 234.18 168.328 232.562 168.328 229.805C168.328 227.086 166.688 225.445 164.18 225.445C161.672 225.445 160.031 227.094 160.031 229.805C160.031 232.555 161.648 234.18 164.18 234.18ZM164.18 232.438C163.055 232.438 162.344 231.492 162.344 229.812C162.344 228.148 163.07 227.188 164.18 227.188C165.289 227.188 166.008 228.148 166.008 229.812C166.008 231.492 165.297 232.438 164.18 232.438ZM169.508 234H171.789V229.32C171.789 228.141 172.445 227.453 173.57 227.453C173.898 227.453 174.211 227.508 174.398 227.586V225.578C174.242 225.531 174.016 225.492 173.75 225.492C172.766 225.492 172.055 226.07 171.758 227.133H171.711V225.625H169.508V234ZM177.617 234.133C178.664 234.133 179.703 233.609 180.172 232.719H180.219V234H182.422V228.242C182.422 226.555 181.023 225.445 178.875 225.445C176.656 225.445 175.273 226.562 175.188 228.188H177.273C177.383 227.57 177.922 227.148 178.773 227.148C179.633 227.148 180.18 227.602 180.18 228.383V228.938L178.07 229.062C175.984 229.188 174.812 230.07 174.812 231.594C174.812 233.102 176.023 234.133 177.617 234.133ZM178.367 232.484C177.594 232.484 177.078 232.094 177.078 231.469C177.078 230.875 177.562 230.492 178.414 230.43L180.18 230.32V230.93C180.18 231.836 179.359 232.484 178.367 232.484ZM187.727 237.156C190.234 237.156 191.906 235.875 191.906 233.883V225.625H189.656V227.086H189.617C189.18 226.125 188.234 225.492 187.031 225.492C184.906 225.492 183.594 227.125 183.594 229.781C183.594 232.398 184.945 233.977 186.992 233.977C188.203 233.977 189.188 233.367 189.578 232.477H189.625V233.945C189.625 234.914 188.969 235.562 187.789 235.562C186.922 235.562 186.266 235.172 186.086 234.594H183.852C184.031 236.086 185.523 237.156 187.727 237.156ZM187.766 232.219C186.633 232.219 185.93 231.328 185.93 229.797C185.93 228.273 186.641 227.32 187.766 227.32C188.906 227.32 189.633 228.289 189.633 229.797C189.633 231.312 188.906 232.219 187.766 232.219ZM198.945 231.438C198.734 232.078 198.094 232.492 197.258 232.492C196.094 232.492 195.336 231.672 195.336 230.477V230.336H201.109V229.641C201.109 227.094 199.57 225.445 197.133 225.445C194.656 225.445 193.094 227.18 193.094 229.852C193.094 232.531 194.641 234.18 197.219 234.18C199.289 234.18 200.789 233.078 201.039 231.438H198.945ZM197.156 227.133C198.172 227.133 198.867 227.867 198.914 228.938H195.359C195.438 227.891 196.156 227.133 197.156 227.133Z" fill="white"/>
<circle cx="56" cy="228" r="3" fill="white"/>
<circle cx="239" cy="228" r="3" fill="white"/>
<g filter="url(#filter1_dd_244_3913)">
<rect x="56" y="250" width="183" height="36" rx="8" fill="#1E2631"/>
<rect x="56.5" y="250.5" width="182" height="35" rx="7.5" stroke="white"/>
</g>
<path d="M122.922 274.188C125.688 274.188 127.617 272.602 127.883 270.086H125.586C125.336 271.422 124.328 272.242 122.93 272.242C121.125 272.242 119.992 270.758 119.992 268.352C119.992 265.977 121.141 264.484 122.922 264.484C124.297 264.484 125.359 265.391 125.578 266.773H127.875C127.695 264.25 125.633 262.531 122.922 262.531C119.656 262.531 117.586 264.727 117.586 268.359C117.586 272 119.641 274.188 122.922 274.188ZM131.586 274.133C132.633 274.133 133.672 273.609 134.141 272.719H134.188V274H136.391V268.242C136.391 266.555 134.992 265.445 132.844 265.445C130.625 265.445 129.242 266.562 129.156 268.188H131.242C131.352 267.57 131.891 267.148 132.742 267.148C133.602 267.148 134.148 267.602 134.148 268.383V268.938L132.039 269.062C129.953 269.188 128.781 270.07 128.781 271.594C128.781 273.102 129.992 274.133 131.586 274.133ZM132.336 272.484C131.562 272.484 131.047 272.094 131.047 271.469C131.047 270.875 131.531 270.492 132.383 270.43L134.148 270.32V270.93C134.148 271.836 133.328 272.484 132.336 272.484ZM145.477 268.742C145.375 266.844 143.938 265.445 141.672 265.445C139.164 265.445 137.562 267.117 137.562 269.805C137.562 272.539 139.164 274.18 141.688 274.18C143.891 274.18 145.367 272.906 145.484 270.93H143.359C143.219 271.844 142.625 272.391 141.711 272.391C140.578 272.391 139.875 271.453 139.875 269.805C139.875 268.188 140.578 267.234 141.703 267.234C142.641 267.234 143.227 267.859 143.359 268.742H145.477ZM146.641 274H148.922V269.219C148.922 268.117 149.555 267.359 150.633 267.359C151.672 267.359 152.203 268.016 152.203 269.094V274H154.484V268.609C154.484 266.672 153.422 265.469 151.562 265.469C150.289 265.469 149.375 266.062 148.93 267.117H148.883V262.727H146.641V274ZM157.117 264.492C157.781 264.492 158.305 263.961 158.305 263.32C158.305 262.672 157.781 262.148 157.117 262.148C156.453 262.148 155.93 262.672 155.93 263.32C155.93 263.961 156.453 264.492 157.117 264.492ZM155.984 274H158.266V265.625H155.984V274ZM159.789 274H162.07V269.195C162.07 268.109 162.719 267.359 163.742 267.359C164.766 267.359 165.281 267.984 165.281 269.078V274H167.562V268.602C167.562 266.641 166.516 265.469 164.656 265.469C163.367 265.469 162.484 266.078 162.039 267.117H161.992V265.625H159.789V274ZM172.836 277.156C175.344 277.156 177.016 275.875 177.016 273.883V265.625H174.766V267.086H174.727C174.289 266.125 173.344 265.492 172.141 265.492C170.016 265.492 168.703 267.125 168.703 269.781C168.703 272.398 170.055 273.977 172.102 273.977C173.312 273.977 174.297 273.367 174.688 272.477H174.734V273.945C174.734 274.914 174.078 275.562 172.898 275.562C172.031 275.562 171.375 275.172 171.195 274.594H168.961C169.141 276.086 170.633 277.156 172.836 277.156ZM172.875 272.219C171.742 272.219 171.039 271.328 171.039 269.797C171.039 268.273 171.75 267.32 172.875 267.32C174.016 267.32 174.742 268.289 174.742 269.797C174.742 271.312 174.016 272.219 172.875 272.219Z" fill="white"/>
<circle cx="56" cy="268" r="3" fill="white"/>
<circle cx="239" cy="268" r="3" fill="white"/>
<g filter="url(#filter2_dd_244_3913)">
<rect x="56" y="290" width="183" height="36" rx="8" fill="#1E2631"/>
<rect x="56.5" y="290.5" width="182" height="35" rx="7.5" stroke="white"/>
</g>
<path d="M125.992 314V304.672H129.258V302.727H120.375V304.672H123.633V314H125.992ZM129.305 314H131.586V309.32C131.586 308.141 132.242 307.453 133.367 307.453C133.695 307.453 134.008 307.508 134.195 307.586V305.578C134.039 305.531 133.812 305.492 133.547 305.492C132.562 305.492 131.852 306.07 131.555 307.133H131.508V305.625H129.305V314ZM137.414 314.133C138.461 314.133 139.5 313.609 139.969 312.719H140.016V314H142.219V308.242C142.219 306.555 140.82 305.445 138.672 305.445C136.453 305.445 135.07 306.562 134.984 308.188H137.07C137.18 307.57 137.719 307.148 138.57 307.148C139.43 307.148 139.977 307.602 139.977 308.383V308.938L137.867 309.062C135.781 309.188 134.609 310.07 134.609 311.594C134.609 313.102 135.82 314.133 137.414 314.133ZM138.164 312.484C137.391 312.484 136.875 312.094 136.875 311.469C136.875 310.875 137.359 310.492 138.211 310.43L139.977 310.32V310.93C139.977 311.836 139.156 312.484 138.164 312.484ZM151.305 308.742C151.203 306.844 149.766 305.445 147.5 305.445C144.992 305.445 143.391 307.117 143.391 309.805C143.391 312.539 144.992 314.18 147.516 314.18C149.719 314.18 151.195 312.906 151.312 310.93H149.188C149.047 311.844 148.453 312.391 147.539 312.391C146.406 312.391 145.703 311.453 145.703 309.805C145.703 308.188 146.406 307.234 147.531 307.234C148.469 307.234 149.055 307.859 149.188 308.742H151.305ZM153.586 304.492C154.25 304.492 154.773 303.961 154.773 303.32C154.773 302.672 154.25 302.148 153.586 302.148C152.922 302.148 152.398 302.672 152.398 303.32C152.398 303.961 152.922 304.492 153.586 304.492ZM152.453 314H154.734V305.625H152.453V314ZM156.258 314H158.539V309.195C158.539 308.109 159.188 307.359 160.211 307.359C161.234 307.359 161.75 307.984 161.75 309.078V314H164.031V308.602C164.031 306.641 162.984 305.469 161.125 305.469C159.836 305.469 158.953 306.078 158.508 307.117H158.461V305.625H156.258V314ZM169.305 317.156C171.812 317.156 173.484 315.875 173.484 313.883V305.625H171.234V307.086H171.195C170.758 306.125 169.812 305.492 168.609 305.492C166.484 305.492 165.172 307.125 165.172 309.781C165.172 312.398 166.523 313.977 168.57 313.977C169.781 313.977 170.766 313.367 171.156 312.477H171.203V313.945C171.203 314.914 170.547 315.562 169.367 315.562C168.5 315.562 167.844 315.172 167.664 314.594H165.43C165.609 316.086 167.102 317.156 169.305 317.156ZM169.344 312.219C168.211 312.219 167.508 311.328 167.508 309.797C167.508 308.273 168.219 307.32 169.344 307.32C170.484 307.32 171.211 308.289 171.211 309.797C171.211 311.312 170.484 312.219 169.344 312.219Z" fill="white"/>
<circle cx="56" cy="308" r="3" fill="white"/>
<circle cx="239" cy="308" r="3" fill="white"/>
<g filter="url(#filter3_dd_244_3913)">
<rect x="56" y="330" width="183" height="36" rx="8" fill="#1E2631"/>
<rect x="56.5" y="330.5" width="182" height="35" rx="7.5" stroke="white"/>
</g>
<path d="M132.875 354V342.727H130.141L126.938 350.82H126.875L123.672 342.727H120.938V354H123.039V346.391H123.102L126.164 354H127.648L130.711 346.391H130.773V354H132.875ZM140.102 351.438C139.891 352.078 139.25 352.492 138.414 352.492C137.25 352.492 136.492 351.672 136.492 350.477V350.336H142.266V349.641C142.266 347.094 140.727 345.445 138.289 345.445C135.812 345.445 134.25 347.18 134.25 349.852C134.25 352.531 135.797 354.18 138.375 354.18C140.445 354.18 141.945 353.078 142.195 351.438H140.102ZM138.312 347.133C139.328 347.133 140.023 347.867 140.07 348.938H136.516C136.594 347.891 137.312 347.133 138.312 347.133ZM144.055 343.695V345.625H142.875V347.344H144.055V351.742C144.055 353.375 144.82 354.031 146.789 354.031C147.25 354.031 147.641 353.992 147.875 353.938V352.258C147.734 352.281 147.523 352.297 147.32 352.297C146.648 352.297 146.336 351.992 146.336 351.352V347.344H147.883V345.625H146.336V343.695H144.055ZM149.133 354H151.414V349.32C151.414 348.141 152.07 347.453 153.195 347.453C153.523 347.453 153.836 347.508 154.023 347.586V345.578C153.867 345.531 153.641 345.492 153.375 345.492C152.391 345.492 151.68 346.07 151.383 347.133H151.336V345.625H149.133V354ZM156.133 344.492C156.797 344.492 157.32 343.961 157.32 343.32C157.32 342.672 156.797 342.148 156.133 342.148C155.469 342.148 154.945 342.672 154.945 343.32C154.945 343.961 155.469 344.492 156.133 344.492ZM155 354H157.281V345.625H155V354ZM166.414 348.742C166.312 346.844 164.875 345.445 162.609 345.445C160.102 345.445 158.5 347.117 158.5 349.805C158.5 352.539 160.102 354.18 162.625 354.18C164.828 354.18 166.305 352.906 166.422 350.93H164.297C164.156 351.844 163.562 352.391 162.648 352.391C161.516 352.391 160.812 351.453 160.812 349.805C160.812 348.188 161.516 347.234 162.641 347.234C163.578 347.234 164.164 347.859 164.297 348.742H166.414ZM167.383 348.086C167.383 349.344 168.203 350.156 169.82 350.5L171.25 350.797C172.07 350.984 172.359 351.234 172.359 351.68C172.359 352.227 171.828 352.578 170.969 352.578C170.062 352.578 169.539 352.188 169.398 351.453H167.172C167.32 353.102 168.656 354.18 170.969 354.18C173.125 354.18 174.633 353.094 174.633 351.445C174.633 350.219 173.914 349.531 172.164 349.164L170.734 348.859C169.891 348.68 169.578 348.391 169.578 347.961C169.578 347.406 170.102 347.047 170.891 347.047C171.734 347.047 172.242 347.508 172.312 348.188H174.414C174.367 346.547 173.039 345.445 170.891 345.445C168.758 345.445 167.383 346.492 167.383 348.086Z" fill="white"/>
<circle cx="56" cy="348" r="3" fill="white"/>
<circle cx="239" cy="348" r="3" fill="white"/>
<g filter="url(#filter4_dd_244_3913)">
<rect x="56" y="390" width="183" height="36" rx="8" fill="#1E2631"/>
<rect x="56.5" y="390.5" width="182" height="35" rx="7.5" stroke="white"/>
</g>
<path d="M112.938 402.727V414H117.242C120.625 414 122.617 411.898 122.617 408.32C122.617 404.742 120.625 402.727 117.242 402.727H112.938ZM115.297 404.672H116.961C119.039 404.672 120.211 405.969 120.211 408.328C120.211 410.766 119.07 412.047 116.961 412.047H115.297V404.672ZM126.383 414.133C127.43 414.133 128.469 413.609 128.938 412.719H128.984V414H131.188V408.242C131.188 406.555 129.789 405.445 127.641 405.445C125.422 405.445 124.039 406.562 123.953 408.188H126.039C126.148 407.57 126.688 407.148 127.539 407.148C128.398 407.148 128.945 407.602 128.945 408.383V408.938L126.836 409.062C124.75 409.188 123.578 410.07 123.578 411.594C123.578 413.102 124.789 414.133 126.383 414.133ZM127.133 412.484C126.359 412.484 125.844 412.094 125.844 411.469C125.844 410.875 126.328 410.492 127.18 410.43L128.945 410.32V410.93C128.945 411.836 128.125 412.484 127.133 412.484ZM133.273 403.695V405.625H132.094V407.344H133.273V411.742C133.273 413.375 134.039 414.031 136.008 414.031C136.469 414.031 136.859 413.992 137.094 413.938V412.258C136.953 412.281 136.742 412.297 136.539 412.297C135.867 412.297 135.555 411.992 135.555 411.352V407.344H137.102V405.625H135.555V403.695H133.273ZM140.758 414.133C141.805 414.133 142.844 413.609 143.312 412.719H143.359V414H145.562V408.242C145.562 406.555 144.164 405.445 142.016 405.445C139.797 405.445 138.414 406.562 138.328 408.188H140.414C140.523 407.57 141.062 407.148 141.914 407.148C142.773 407.148 143.32 407.602 143.32 408.383V408.938L141.211 409.062C139.125 409.188 137.953 410.07 137.953 411.594C137.953 413.102 139.164 414.133 140.758 414.133ZM141.508 412.484C140.734 412.484 140.219 412.094 140.219 411.469C140.219 410.875 140.703 410.492 141.555 410.43L143.32 410.32V410.93C143.32 411.836 142.5 412.484 141.508 412.484ZM152.016 414.133C154.125 414.133 155.414 412.508 155.414 409.812C155.414 407.109 154.117 405.492 152.008 405.492C150.812 405.492 149.883 406.086 149.422 407.078H149.375V402.727H147.094V414H149.344V412.562H149.391C149.852 413.539 150.789 414.133 152.016 414.133ZM151.227 407.32C152.359 407.32 153.078 408.289 153.078 409.812C153.078 411.344 152.367 412.297 151.227 412.297C150.117 412.297 149.367 411.328 149.367 409.812C149.367 408.312 150.125 407.32 151.227 407.32ZM159.086 414.133C160.133 414.133 161.172 413.609 161.641 412.719H161.688V414H163.891V408.242C163.891 406.555 162.492 405.445 160.344 405.445C158.125 405.445 156.742 406.562 156.656 408.188H158.742C158.852 407.57 159.391 407.148 160.242 407.148C161.102 407.148 161.648 407.602 161.648 408.383V408.938L159.539 409.062C157.453 409.188 156.281 410.07 156.281 411.594C156.281 413.102 157.492 414.133 159.086 414.133ZM159.836 412.484C159.062 412.484 158.547 412.094 158.547 411.469C158.547 410.875 159.031 410.492 159.883 410.43L161.648 410.32V410.93C161.648 411.836 160.828 412.484 159.836 412.484ZM165.227 408.086C165.227 409.344 166.047 410.156 167.664 410.5L169.094 410.797C169.914 410.984 170.203 411.234 170.203 411.68C170.203 412.227 169.672 412.578 168.812 412.578C167.906 412.578 167.383 412.188 167.242 411.453H165.016C165.164 413.102 166.5 414.18 168.812 414.18C170.969 414.18 172.477 413.094 172.477 411.445C172.477 410.219 171.758 409.531 170.008 409.164L168.578 408.859C167.734 408.68 167.422 408.391 167.422 407.961C167.422 407.406 167.945 407.047 168.734 407.047C169.578 407.047 170.086 407.508 170.156 408.188H172.258C172.211 406.547 170.883 405.445 168.734 405.445C166.602 405.445 165.227 406.492 165.227 408.086ZM179.148 411.438C178.938 412.078 178.297 412.492 177.461 412.492C176.297 412.492 175.539 411.672 175.539 410.477V410.336H181.312V409.641C181.312 407.094 179.773 405.445 177.336 405.445C174.859 405.445 173.297 407.18 173.297 409.852C173.297 412.531 174.844 414.18 177.422 414.18C179.492 414.18 180.992 413.078 181.242 411.438H179.148ZM177.359 407.133C178.375 407.133 179.07 407.867 179.117 408.938H175.562C175.641 407.891 176.359 407.133 177.359 407.133Z" fill="white"/>
<circle cx="56" cy="408" r="3" fill="white"/>
<circle cx="239" cy="408" r="3" fill="white"/>
<circle cx="121" cy="378" r="4" fill="white"/>
<circle cx="147" cy="378" r="4" fill="white"/>
<circle cx="173" cy="378" r="4" fill="white"/>
<rect x="40.5" y="202.5" width="214" height="231" rx="7.5" stroke="white" stroke-linecap="round" stroke-linejoin="round" stroke-dasharray="12 12"/>
<g filter="url(#filter5_dd_244_3913)">
<rect x="34" y="20" width="227" height="158" rx="8" fill="#1E2631"/>
<rect x="34.5" y="20.5" width="226" height="157" rx="7.5" stroke="white"/>
</g>
<path d="M34 28C34 23.5817 37.5817 20 42 20H253C257.418 20 261 23.5817 261 28V56H34V28Z" fill="white"/>
<path d="M99.709 44V39.0078H104.868V36.9072H99.709V33.5059H105.36V31.3174H97.0547V44H99.709ZM106.714 44H109.28V38.7354C109.28 37.4082 110.019 36.6348 111.284 36.6348C111.653 36.6348 112.005 36.6963 112.216 36.7842V34.5254C112.04 34.4727 111.785 34.4287 111.486 34.4287C110.379 34.4287 109.579 35.0791 109.245 36.2744H109.192V34.5781H106.714V44ZM115.837 44.1494C117.015 44.1494 118.184 43.5605 118.711 42.5586H118.764V44H121.242V37.5225C121.242 35.624 119.669 34.376 117.252 34.376C114.756 34.376 113.2 35.6328 113.104 37.4609H115.45C115.573 36.7666 116.18 36.292 117.138 36.292C118.104 36.292 118.72 36.8018 118.72 37.6807V38.3047L116.347 38.4453C114 38.5859 112.682 39.5791 112.682 41.293C112.682 42.9893 114.044 44.1494 115.837 44.1494ZM116.681 42.2949C115.811 42.2949 115.23 41.8555 115.23 41.1523C115.23 40.4844 115.775 40.0537 116.733 39.9834L118.72 39.8604V40.5459C118.72 41.5654 117.797 42.2949 116.681 42.2949ZM122.903 44H125.47V38.3135C125.47 37.2588 126.129 36.5205 127.104 36.5205C128.054 36.5205 128.625 37.1182 128.625 38.1289V44H131.095V38.2783C131.095 37.2324 131.736 36.5205 132.712 36.5205C133.705 36.5205 134.25 37.1182 134.25 38.208V44H136.816V37.5664C136.816 35.668 135.577 34.4023 133.731 34.4023C132.352 34.4023 131.227 35.1494 130.805 36.3359H130.752C130.436 35.1055 129.486 34.4023 128.124 34.4023C126.841 34.4023 125.83 35.1494 125.435 36.2832H125.382V34.5781H122.903V44ZM144.683 41.1172C144.445 41.8379 143.725 42.3037 142.784 42.3037C141.475 42.3037 140.622 41.3809 140.622 40.0361V39.8779H147.117V39.0957C147.117 36.2305 145.386 34.376 142.644 34.376C139.857 34.376 138.1 36.3271 138.1 39.333C138.1 42.3477 139.84 44.2021 142.74 44.2021C145.069 44.2021 146.757 42.9629 147.038 41.1172H144.683ZM142.67 36.2744C143.812 36.2744 144.595 37.1006 144.647 38.3047H140.648C140.736 37.127 141.545 36.2744 142.67 36.2744ZM161.61 34.5781H159.079L157.646 41.5654H157.594L155.915 34.5781H153.454L151.784 41.5654H151.731L150.308 34.5781H147.724L150.229 44H152.927L154.623 37.3379H154.676L156.381 44H159.114L161.61 34.5781ZM166.796 44.2021C169.644 44.2021 171.463 42.3828 171.463 39.2803C171.463 36.2217 169.617 34.376 166.796 34.376C163.975 34.376 162.129 36.2305 162.129 39.2803C162.129 42.374 163.948 44.2021 166.796 44.2021ZM166.796 42.2422C165.53 42.2422 164.73 41.1787 164.73 39.2891C164.73 37.417 165.548 36.3359 166.796 36.3359C168.044 36.3359 168.853 37.417 168.853 39.2891C168.853 41.1787 168.053 42.2422 166.796 42.2422ZM172.79 44H175.356V38.7354C175.356 37.4082 176.095 36.6348 177.36 36.6348C177.729 36.6348 178.081 36.6963 178.292 36.7842V34.5254C178.116 34.4727 177.861 34.4287 177.562 34.4287C176.455 34.4287 175.655 35.0791 175.321 36.2744H175.269V34.5781H172.79V44ZM182.01 38.3574H181.975V31.3174H179.408V44H181.975V40.8887L182.643 40.168L185.341 44H188.294L184.523 38.6211L188.118 34.5781H185.209L182.01 38.3574ZM188.698 37.3467C188.698 38.7617 189.621 39.6758 191.44 40.0625L193.049 40.3965C193.972 40.6074 194.297 40.8887 194.297 41.3896C194.297 42.0049 193.699 42.4004 192.732 42.4004C191.713 42.4004 191.124 41.9609 190.966 41.1348H188.461C188.628 42.9893 190.131 44.2021 192.732 44.2021C195.158 44.2021 196.854 42.9805 196.854 41.126C196.854 39.7461 196.046 38.9727 194.077 38.5596L192.469 38.2168C191.52 38.0146 191.168 37.6895 191.168 37.2061C191.168 36.582 191.757 36.1777 192.645 36.1777C193.594 36.1777 194.165 36.6963 194.244 37.4609H196.608C196.556 35.6152 195.062 34.376 192.645 34.376C190.245 34.376 188.698 35.5537 188.698 37.3467Z" fill="#1E2631"/>
<path d="M121.203 94V81.3174H118.584L114.699 90.9941H114.629L110.744 81.3174H108.116V94H110.164V85H110.226L113.891 94H115.438L119.103 85H119.164V94H121.203ZM124.367 83.2773C125.035 83.2773 125.562 82.7412 125.562 82.0908C125.562 81.4316 125.035 80.9043 124.367 80.9043C123.699 80.9043 123.163 81.4316 123.163 82.0908C123.163 82.7412 123.699 83.2773 124.367 83.2773ZM123.277 94H125.466V84.6836H123.277V94ZM135.512 88.0059C135.362 86.0459 133.842 84.4902 131.381 84.4902C128.674 84.4902 126.916 86.3623 126.916 89.3418C126.916 92.3652 128.674 94.1846 131.398 94.1846C133.736 94.1846 135.345 92.8135 135.521 90.7305H133.455C133.253 91.7852 132.532 92.418 131.425 92.418C130.036 92.418 129.14 91.293 129.14 89.3418C129.14 87.4258 130.027 86.2656 131.407 86.2656C132.576 86.2656 133.271 87.0127 133.446 88.0059H135.512ZM136.83 94H139.019V88.5771C139.019 87.2676 139.766 86.4678 141.005 86.4678C141.374 86.4678 141.708 86.5205 141.893 86.5908V84.6133C141.734 84.5781 141.488 84.5254 141.207 84.5254C140.108 84.5254 139.291 85.1758 138.975 86.3096H138.931V84.6836H136.83V94ZM146.788 94.1846C149.521 94.1846 151.297 92.3652 151.297 89.3418C151.297 86.3271 149.504 84.4902 146.788 84.4902C144.072 84.4902 142.279 86.3359 142.279 89.3418C142.279 92.3652 144.055 94.1846 146.788 94.1846ZM146.788 92.4531C145.399 92.4531 144.503 91.3281 144.503 89.3418C144.503 87.3643 145.408 86.2305 146.788 86.2305C148.177 86.2305 149.073 87.3643 149.073 89.3418C149.073 91.3281 148.177 92.4531 146.788 92.4531ZM152.703 94H154.892V88.6035C154.892 87.2676 155.691 86.3623 156.948 86.3623C158.196 86.3623 158.812 87.1006 158.812 88.4189V94H161V87.9795C161 85.8262 159.831 84.5078 157.774 84.5078C156.342 84.5078 155.349 85.1758 154.848 86.2832H154.804V84.6836H152.703V94ZM165.5 94.1494C166.695 94.1494 167.864 93.5254 168.4 92.5146H168.444V94H170.554V87.584C170.554 85.7119 169.051 84.4902 166.739 84.4902C164.366 84.4902 162.881 85.7383 162.784 87.4785H164.814C164.955 86.7051 165.614 86.2041 166.651 86.2041C167.732 86.2041 168.392 86.7666 168.392 87.7422V88.4102L165.931 88.5508C163.663 88.6914 162.389 89.6846 162.389 91.3369C162.389 93.0156 163.698 94.1494 165.5 94.1494ZM166.159 92.4971C165.21 92.4971 164.577 92.0137 164.577 91.249C164.577 90.5107 165.184 90.0361 166.238 89.9658L168.392 89.834V90.5459C168.392 91.6709 167.398 92.4971 166.159 92.4971ZM180.582 84.6836H178.394V90.0713C178.394 91.4248 177.611 92.3213 176.346 92.3213C175.115 92.3213 174.465 91.6006 174.465 90.2646V84.6836H172.276V90.7041C172.276 92.8574 173.56 94.167 175.581 94.167C176.996 94.167 177.937 93.5166 178.429 92.3828H178.473V94H180.582V84.6836ZM182.981 82.5039V84.6836H181.646V86.3711H182.981V91.5215C182.981 93.332 183.772 94.0439 185.785 94.0439C186.251 94.0439 186.682 94.0088 186.919 93.9561V92.2861C186.778 92.3125 186.497 92.3301 186.295 92.3301C185.521 92.3301 185.17 91.9785 185.17 91.2139V86.3711H186.928V84.6836H185.17V82.5039H182.981Z" fill="white"/>
<path d="M101.589 122.458C101.694 124.778 103.637 126.211 106.572 126.211C109.622 126.211 111.529 124.682 111.529 122.256C111.529 120.375 110.413 119.303 107.741 118.749L106.37 118.468C104.788 118.134 104.155 117.58 104.155 116.719C104.155 115.655 105.157 114.987 106.563 114.987C108.014 114.987 109.016 115.708 109.121 116.903H111.292C111.239 114.636 109.385 113.106 106.581 113.106C103.83 113.106 101.87 114.618 101.87 116.851C101.87 118.705 103.057 119.9 105.597 120.419L106.959 120.7C108.611 121.043 109.244 121.605 109.244 122.52C109.244 123.574 108.181 124.33 106.651 124.33C105.069 124.33 103.927 123.627 103.76 122.458H101.589ZM118.121 116.525C116.768 116.525 115.713 117.211 115.186 118.292H115.142V116.684H113.006V129.067H115.194V124.453H115.238C115.748 125.499 116.803 126.149 118.156 126.149C120.494 126.149 121.988 124.312 121.988 121.342C121.988 118.362 120.485 116.525 118.121 116.525ZM117.453 124.356C116.091 124.356 115.186 123.17 115.177 121.342C115.186 119.531 116.091 118.327 117.453 118.327C118.868 118.327 119.747 119.505 119.747 121.342C119.747 123.188 118.868 124.356 117.453 124.356ZM123.395 126H125.583V120.577C125.583 119.268 126.33 118.468 127.569 118.468C127.938 118.468 128.272 118.521 128.457 118.591V116.613C128.299 116.578 128.053 116.525 127.771 116.525C126.673 116.525 125.855 117.176 125.539 118.31H125.495V116.684H123.395V126ZM130.725 115.277C131.393 115.277 131.92 114.741 131.92 114.091C131.92 113.432 131.393 112.904 130.725 112.904C130.057 112.904 129.521 113.432 129.521 114.091C129.521 114.741 130.057 115.277 130.725 115.277ZM129.635 126H131.823V116.684H129.635V126ZM133.66 126H135.849V120.604C135.849 119.268 136.648 118.362 137.905 118.362C139.153 118.362 139.769 119.101 139.769 120.419V126H141.957V119.979C141.957 117.826 140.788 116.508 138.731 116.508C137.299 116.508 136.306 117.176 135.805 118.283H135.761V116.684H133.66V126ZM147.819 129.516C150.535 129.516 152.319 128.074 152.319 125.851V116.684H150.175V118.283H150.14C149.604 117.211 148.531 116.525 147.204 116.525C144.822 116.525 143.328 118.362 143.328 121.307C143.328 124.207 144.857 126.009 147.16 126.009C148.496 126.009 149.595 125.341 150.078 124.339H150.131V125.912C150.131 127.099 149.313 127.898 147.89 127.898C146.853 127.898 146.053 127.415 145.815 126.703H143.645C143.864 128.338 145.517 129.516 147.819 129.516ZM147.828 124.269C146.448 124.269 145.569 123.161 145.569 121.315C145.569 119.487 146.448 118.327 147.828 118.327C149.226 118.327 150.131 119.505 150.131 121.315C150.131 123.135 149.226 124.269 147.828 124.269ZM163.244 126C165.951 126 167.595 124.629 167.595 122.396C167.595 120.718 166.391 119.479 164.668 119.312V119.241C165.969 119.03 166.979 117.844 166.979 116.481C166.979 114.557 165.494 113.317 163.191 113.317H157.927V126H163.244ZM160.194 115.084H162.62C163.974 115.084 164.738 115.708 164.738 116.815C164.738 117.993 163.851 118.661 162.269 118.661H160.194V115.084ZM160.194 124.233V120.27H162.629C164.369 120.27 165.283 120.946 165.283 122.238C165.283 123.539 164.396 124.233 162.726 124.233H160.194ZM173.114 126.185C175.848 126.185 177.623 124.365 177.623 121.342C177.623 118.327 175.83 116.49 173.114 116.49C170.398 116.49 168.605 118.336 168.605 121.342C168.605 124.365 170.381 126.185 173.114 126.185ZM173.114 124.453C171.726 124.453 170.829 123.328 170.829 121.342C170.829 119.364 171.734 118.23 173.114 118.23C174.503 118.23 175.399 119.364 175.399 121.342C175.399 123.328 174.503 124.453 173.114 124.453ZM183.151 126.185C185.885 126.185 187.66 124.365 187.66 121.342C187.66 118.327 185.867 116.49 183.151 116.49C180.436 116.49 178.643 118.336 178.643 121.342C178.643 124.365 180.418 126.185 183.151 126.185ZM183.151 124.453C181.763 124.453 180.866 123.328 180.866 121.342C180.866 119.364 181.771 118.23 183.151 118.23C184.54 118.23 185.437 119.364 185.437 121.342C185.437 123.328 184.54 124.453 183.151 124.453ZM189.673 114.504V116.684H188.337V118.371H189.673V123.521C189.673 125.332 190.464 126.044 192.477 126.044C192.942 126.044 193.373 126.009 193.61 125.956V124.286C193.47 124.312 193.188 124.33 192.986 124.33C192.213 124.33 191.861 123.979 191.861 123.214V118.371H193.619V116.684H191.861V114.504H189.673ZM200.598 118.688L201.222 117.589L199.279 116.481L201.23 115.356L200.598 114.258L198.726 115.4L198.805 113.317H197.39L197.469 115.4L195.597 114.258L194.981 115.356L196.906 116.473L194.973 117.58L195.588 118.688L197.469 117.545L197.39 119.628H198.805L198.726 117.545L200.598 118.688Z" fill="white"/>
<circle cx="121" cy="153" r="5" fill="white"/>
<circle cx="147" cy="153" r="5" fill="white"/>
<circle cx="173" cy="153" r="5" fill="white"/>
<circle cx="34" cy="113" r="4" fill="white"/>
<g filter="url(#filter6_dd_244_3913)">
<rect x="34" y="458" width="227" height="176" rx="8" fill="#1E2631"/>
<rect x="34.5" y="458.5" width="226" height="175" rx="7.5" stroke="white"/>
</g>
<path d="M34 466C34 461.582 37.5817 458 42 458H253C257.418 458 261 461.582 261 466V494H34V466Z" fill="white"/>
<path d="M91.6621 482.211C94.7734 482.211 96.9443 480.427 97.2432 477.597H94.6592C94.3779 479.1 93.2441 480.022 91.6709 480.022C89.6406 480.022 88.3662 478.353 88.3662 475.646C88.3662 472.974 89.6582 471.295 91.6621 471.295C93.209 471.295 94.4043 472.314 94.6504 473.87H97.2344C97.0322 471.031 94.7119 469.098 91.6621 469.098C87.9883 469.098 85.6592 471.567 85.6592 475.654C85.6592 479.75 87.9707 482.211 91.6621 482.211ZM98.7285 482H101.295V469.317H98.7285V482ZM107.351 482.202C110.198 482.202 112.018 480.383 112.018 477.28C112.018 474.222 110.172 472.376 107.351 472.376C104.529 472.376 102.684 474.23 102.684 477.28C102.684 480.374 104.503 482.202 107.351 482.202ZM107.351 480.242C106.085 480.242 105.285 479.179 105.285 477.289C105.285 475.417 106.103 474.336 107.351 474.336C108.599 474.336 109.407 475.417 109.407 477.289C109.407 479.179 108.607 480.242 107.351 480.242ZM122.046 472.578H119.479V477.975C119.479 479.223 118.768 480.04 117.625 480.04C116.491 480.04 115.867 479.372 115.867 478.115V472.578H113.301V478.651C113.301 480.849 114.654 482.176 116.693 482.176C118.117 482.176 119.049 481.49 119.515 480.304H119.567V482H122.046V472.578ZM127.214 482.149C128.603 482.149 129.692 481.42 130.149 480.383H130.193V482H132.725V469.317H130.158V474.195H130.105C129.648 473.149 128.594 472.429 127.231 472.429C124.867 472.429 123.373 474.283 123.373 477.271C123.373 480.286 124.858 482.149 127.214 482.149ZM128.084 474.485C129.358 474.485 130.176 475.575 130.176 477.289C130.176 479.012 129.358 480.084 128.084 480.084C126.792 480.084 126.001 479.021 126.001 477.289C126.001 475.566 126.792 474.485 128.084 474.485ZM137.743 478.379C137.822 480.77 139.835 482.211 142.858 482.211C146.031 482.211 147.974 480.646 147.974 478.168C147.974 476.243 146.805 475.162 144.124 474.626L142.779 474.354C141.285 474.055 140.67 473.571 140.67 472.789C140.67 471.857 141.549 471.242 142.858 471.242C144.194 471.242 145.135 471.893 145.223 472.974H147.728C147.684 470.645 145.82 469.098 142.858 469.098C140.037 469.098 138.016 470.636 138.016 472.956C138.016 474.846 139.255 476.059 141.786 476.56L143.122 476.823C144.713 477.148 145.311 477.623 145.311 478.458C145.311 479.39 144.344 480.075 142.929 480.075C141.487 480.075 140.415 479.442 140.248 478.379H137.743ZM155.62 479.117C155.383 479.838 154.662 480.304 153.722 480.304C152.412 480.304 151.56 479.381 151.56 478.036V477.878H158.055V477.096C158.055 474.23 156.323 472.376 153.581 472.376C150.795 472.376 149.037 474.327 149.037 477.333C149.037 480.348 150.777 482.202 153.678 482.202C156.007 482.202 157.694 480.963 157.976 479.117H155.62ZM153.607 474.274C154.75 474.274 155.532 475.101 155.585 476.305H151.586C151.674 475.127 152.482 474.274 153.607 474.274ZM159.382 482H161.948V476.735C161.948 475.408 162.687 474.635 163.952 474.635C164.321 474.635 164.673 474.696 164.884 474.784V472.525C164.708 472.473 164.453 472.429 164.154 472.429C163.047 472.429 162.247 473.079 161.913 474.274H161.86V472.578H159.382V482ZM174.552 472.578H171.871L169.92 479.732H169.867L167.907 472.578H165.156L168.417 482H171.317L174.552 472.578ZM176.767 471.304C177.514 471.304 178.103 470.706 178.103 469.985C178.103 469.256 177.514 468.667 176.767 468.667C176.02 468.667 175.431 469.256 175.431 469.985C175.431 470.706 176.02 471.304 176.767 471.304ZM175.492 482H178.059V472.578H175.492V482ZM188.333 476.085C188.219 473.949 186.602 472.376 184.053 472.376C181.231 472.376 179.43 474.257 179.43 477.28C179.43 480.356 181.231 482.202 184.07 482.202C186.549 482.202 188.21 480.77 188.342 478.546H185.951C185.793 479.574 185.125 480.189 184.097 480.189C182.822 480.189 182.031 479.135 182.031 477.28C182.031 475.461 182.822 474.389 184.088 474.389C185.143 474.389 185.802 475.092 185.951 476.085H188.333ZM195.821 479.117C195.584 479.838 194.863 480.304 193.923 480.304C192.613 480.304 191.761 479.381 191.761 478.036V477.878H198.256V477.096C198.256 474.23 196.524 472.376 193.782 472.376C190.996 472.376 189.238 474.327 189.238 477.333C189.238 480.348 190.979 482.202 193.879 482.202C196.208 482.202 197.896 480.963 198.177 479.117H195.821ZM193.809 474.274C194.951 474.274 195.733 475.101 195.786 476.305H191.787C191.875 475.127 192.684 474.274 193.809 474.274ZM199.425 475.347C199.425 476.762 200.348 477.676 202.167 478.062L203.775 478.396C204.698 478.607 205.023 478.889 205.023 479.39C205.023 480.005 204.426 480.4 203.459 480.4C202.439 480.4 201.851 479.961 201.692 479.135H199.188C199.354 480.989 200.857 482.202 203.459 482.202C205.885 482.202 207.581 480.98 207.581 479.126C207.581 477.746 206.772 476.973 204.804 476.56L203.195 476.217C202.246 476.015 201.895 475.689 201.895 475.206C201.895 474.582 202.483 474.178 203.371 474.178C204.32 474.178 204.892 474.696 204.971 475.461H207.335C207.282 473.615 205.788 472.376 203.371 472.376C200.972 472.376 199.425 473.554 199.425 475.347Z" fill="#1E2631"/>
<path d="M51.3335 515.823C47.8389 515.823 45.6475 518.205 45.6475 522.015C45.6475 525.825 47.8389 528.199 51.3335 528.199C54.8198 528.199 57.0112 525.825 57.0112 522.015C57.0112 518.205 54.8198 515.823 51.3335 515.823ZM51.3335 517.649C53.4668 517.649 54.8281 519.342 54.8281 522.015C54.8281 524.68 53.4668 526.373 51.3335 526.373C49.1919 526.373 47.8389 524.68 47.8389 522.015C47.8389 519.342 49.1919 517.649 51.3335 517.649ZM58.5137 528H60.5806V522.878C60.5806 521.642 61.2861 520.886 62.4565 520.886C62.8052 520.886 63.1206 520.936 63.2949 521.002V519.135C63.1455 519.102 62.9131 519.052 62.6475 519.052C61.6099 519.052 60.8379 519.666 60.5391 520.737H60.4976V519.201H58.5137V528ZM66.748 528.141C67.877 528.141 68.981 527.552 69.4873 526.597H69.5288V528H71.521V521.94C71.521 520.172 70.1016 519.019 67.9185 519.019C65.6772 519.019 64.2744 520.197 64.1831 521.841H66.1006C66.2334 521.11 66.856 520.637 67.8354 520.637C68.8564 520.637 69.479 521.168 69.479 522.09V522.721L67.1548 522.854C65.0132 522.986 63.8096 523.924 63.8096 525.485C63.8096 527.07 65.0464 528.141 66.748 528.141ZM67.3706 526.581C66.4741 526.581 65.8765 526.124 65.8765 525.402C65.8765 524.705 66.4492 524.256 67.4453 524.19L69.479 524.065V524.738C69.479 525.8 68.541 526.581 67.3706 526.581ZM80.9424 522.339C80.8013 520.488 79.3652 519.019 77.041 519.019C74.4844 519.019 72.8242 520.787 72.8242 523.601C72.8242 526.456 74.4844 528.174 77.0576 528.174C79.2656 528.174 80.7847 526.879 80.9507 524.912H79C78.8091 525.908 78.1284 526.506 77.0825 526.506C75.771 526.506 74.9243 525.443 74.9243 523.601C74.9243 521.791 75.7627 520.695 77.0659 520.695C78.1699 520.695 78.8257 521.401 78.9917 522.339H80.9424ZM82.2456 528H84.3125V516.022H82.2456V528ZM91.8994 525.369C91.6753 526.099 90.9448 526.581 89.9819 526.581C88.6289 526.581 87.7656 525.634 87.7656 524.223V524.099H93.9165V523.426C93.9165 520.753 92.356 519.019 89.8574 519.019C87.3174 519.019 85.707 520.853 85.707 523.634C85.707 526.439 87.3008 528.174 89.9404 528.174C92.0239 528.174 93.5679 527.029 93.8335 525.369H91.8994ZM89.8657 520.621C91.0527 520.621 91.8496 521.492 91.8911 522.737H87.7822C87.8652 521.509 88.7036 520.621 89.8657 520.621ZM104.027 528.199C106.857 528.199 108.816 526.647 109.19 524.082H107.09C106.758 525.526 105.621 526.381 104.035 526.381C101.96 526.381 100.648 524.696 100.648 522.007C100.648 519.334 101.968 517.641 104.027 517.641C105.579 517.641 106.799 518.628 107.082 520.131H109.19C108.924 517.558 106.808 515.823 104.027 515.823C100.624 515.823 98.457 518.188 98.457 522.007C98.457 525.85 100.607 528.199 104.027 528.199ZM110.667 528H112.734V516.022H110.667V528ZM118.387 528.174C120.969 528.174 122.646 526.456 122.646 523.601C122.646 520.753 120.952 519.019 118.387 519.019C115.822 519.019 114.129 520.762 114.129 523.601C114.129 526.456 115.806 528.174 118.387 528.174ZM118.387 526.539C117.076 526.539 116.229 525.477 116.229 523.601C116.229 521.733 117.084 520.662 118.387 520.662C119.699 520.662 120.545 521.733 120.545 523.601C120.545 525.477 119.699 526.539 118.387 526.539ZM131.776 519.201H129.709V524.29C129.709 525.568 128.971 526.415 127.775 526.415C126.613 526.415 125.999 525.734 125.999 524.472V519.201H123.932V524.887C123.932 526.921 125.144 528.158 127.053 528.158C128.39 528.158 129.278 527.543 129.743 526.473H129.784V528H131.776V519.201ZM136.757 528.141C138.043 528.141 139.056 527.485 139.538 526.498H139.571V528H141.596V516.022H139.529V520.679H139.479C139.015 519.708 138.019 519.052 136.757 519.052C134.541 519.052 133.104 520.812 133.104 523.592C133.104 526.39 134.541 528.141 136.757 528.141ZM137.379 520.753C138.683 520.753 139.538 521.874 139.538 523.601C139.538 525.344 138.683 526.448 137.379 526.448C136.043 526.448 135.221 525.352 135.221 523.601C135.221 521.857 136.051 520.753 137.379 520.753ZM149.083 528V516.022H146.942V528H149.083ZM150.984 528H153.051V522.903C153.051 521.642 153.807 520.787 154.994 520.787C156.172 520.787 156.753 521.484 156.753 522.729V528H158.82V522.314C158.82 520.28 157.716 519.035 155.774 519.035C154.421 519.035 153.483 519.666 153.01 520.712H152.968V519.201H150.984V528ZM161.053 528H163.12V520.795H164.847V519.226H163.087V518.504C163.087 517.79 163.444 517.417 164.232 517.417C164.473 517.417 164.714 517.441 164.888 517.466V516.022C164.631 515.972 164.183 515.931 163.776 515.931C161.867 515.931 161.053 516.736 161.053 518.446V519.226H159.85V520.795H161.053V528ZM166.208 528H168.275V522.878C168.275 521.642 168.98 520.886 170.151 520.886C170.5 520.886 170.815 520.936 170.989 521.002V519.135C170.84 519.102 170.607 519.052 170.342 519.052C169.304 519.052 168.532 519.666 168.233 520.737H168.192V519.201H166.208V528ZM174.442 528.141C175.571 528.141 176.675 527.552 177.182 526.597H177.223V528H179.215V521.94C179.215 520.172 177.796 519.019 175.613 519.019C173.372 519.019 171.969 520.197 171.877 521.841H173.795C173.928 521.11 174.55 520.637 175.53 520.637C176.551 520.637 177.173 521.168 177.173 522.09V522.721L174.849 522.854C172.708 522.986 171.504 523.924 171.504 525.485C171.504 527.07 172.741 528.141 174.442 528.141ZM175.065 526.581C174.168 526.581 173.571 526.124 173.571 525.402C173.571 524.705 174.144 524.256 175.14 524.19L177.173 524.065V524.738C177.173 525.8 176.235 526.581 175.065 526.581ZM180.726 521.725C180.726 523.028 181.573 523.858 183.258 524.231L184.719 524.555C185.64 524.763 185.956 525.062 185.956 525.593C185.956 526.249 185.333 526.664 184.329 526.664C183.283 526.664 182.693 526.232 182.536 525.377H180.502C180.668 527.079 182.029 528.174 184.329 528.174C186.487 528.174 188.014 527.054 188.014 525.394C188.014 524.115 187.309 523.41 185.482 523.003L184.021 522.679C183.1 522.472 182.735 522.123 182.735 521.617C182.735 520.969 183.341 520.538 184.254 520.538C185.208 520.538 185.798 521.044 185.881 521.841H187.807C187.757 520.172 186.396 519.019 184.254 519.019C182.129 519.019 180.726 520.114 180.726 521.725ZM189.907 517.143V519.201H188.645V520.795H189.907V525.659C189.907 527.369 190.654 528.042 192.555 528.042C192.995 528.042 193.401 528.008 193.625 527.958V526.381C193.493 526.406 193.227 526.423 193.036 526.423C192.306 526.423 191.974 526.091 191.974 525.369V520.795H193.634V519.201H191.974V517.143H189.907ZM195.045 528H197.112V522.878C197.112 521.642 197.817 520.886 198.988 520.886C199.336 520.886 199.652 520.936 199.826 521.002V519.135C199.677 519.102 199.444 519.052 199.179 519.052C198.141 519.052 197.369 519.666 197.07 520.737H197.029V519.201H195.045V528ZM208.691 519.201H206.625V524.29C206.625 525.568 205.886 526.415 204.69 526.415C203.528 526.415 202.914 525.734 202.914 524.472V519.201H200.847V524.887C200.847 526.921 202.059 528.158 203.968 528.158C205.305 528.158 206.193 527.543 206.658 526.473H206.699V528H208.691V519.201ZM218.138 522.339C217.997 520.488 216.561 519.019 214.236 519.019C211.68 519.019 210.02 520.787 210.02 523.601C210.02 526.456 211.68 528.174 214.253 528.174C216.461 528.174 217.98 526.879 218.146 524.912H216.195C216.004 525.908 215.324 526.506 214.278 526.506C212.966 526.506 212.12 525.443 212.12 523.601C212.12 521.791 212.958 520.695 214.261 520.695C215.365 520.695 216.021 521.401 216.187 522.339H218.138ZM219.956 517.143V519.201H218.694V520.795H219.956V525.659C219.956 527.369 220.703 528.042 222.604 528.042C223.043 528.042 223.45 528.008 223.674 527.958V526.381C223.542 526.406 223.276 526.423 223.085 526.423C222.354 526.423 222.022 526.091 222.022 525.369V520.795H223.683V519.201H222.022V517.143H219.956ZM232.896 519.201H230.83V524.29C230.83 525.568 230.091 526.415 228.896 526.415C227.733 526.415 227.119 525.734 227.119 524.472V519.201H225.052V524.887C225.052 526.921 226.264 528.158 228.173 528.158C229.51 528.158 230.398 527.543 230.863 526.473H230.904V528H232.896V519.201ZM234.59 528H236.657V522.878C236.657 521.642 237.362 520.886 238.533 520.886C238.881 520.886 239.197 520.936 239.371 521.002V519.135C239.222 519.102 238.989 519.052 238.724 519.052C237.686 519.052 236.914 519.666 236.615 520.737H236.574V519.201H234.59V528ZM245.929 525.369C245.705 526.099 244.974 526.581 244.011 526.581C242.658 526.581 241.795 525.634 241.795 524.223V524.099H247.946V523.426C247.946 520.753 246.385 519.019 243.887 519.019C241.347 519.019 239.736 520.853 239.736 523.634C239.736 526.439 241.33 528.174 243.97 528.174C246.053 528.174 247.597 527.029 247.863 525.369H245.929ZM243.895 520.621C245.082 520.621 245.879 521.492 245.92 522.737H241.812C241.895 521.509 242.733 520.621 243.895 520.621Z" fill="white"/>
<path d="M96.4141 556V544.022H93.9404L90.2715 553.161H90.2051L86.5361 544.022H84.0542V556H85.9883V547.5H86.0464L89.5078 556H90.9688L94.4302 547.5H94.4883V556H96.4141ZM99.4023 545.873C100.033 545.873 100.531 545.367 100.531 544.752C100.531 544.13 100.033 543.632 99.4023 543.632C98.7715 543.632 98.2651 544.13 98.2651 544.752C98.2651 545.367 98.7715 545.873 99.4023 545.873ZM98.373 556H100.44V547.201H98.373V556ZM109.928 550.339C109.787 548.488 108.351 547.019 106.026 547.019C103.47 547.019 101.81 548.787 101.81 551.601C101.81 554.456 103.47 556.174 106.043 556.174C108.251 556.174 109.77 554.879 109.936 552.912H107.985C107.794 553.908 107.114 554.506 106.068 554.506C104.756 554.506 103.91 553.443 103.91 551.601C103.91 549.791 104.748 548.695 106.051 548.695C107.155 548.695 107.811 549.401 107.977 550.339H109.928ZM111.173 556H113.24V550.878C113.24 549.642 113.945 548.886 115.116 548.886C115.464 548.886 115.78 548.936 115.954 549.002V547.135C115.805 547.102 115.572 547.052 115.307 547.052C114.269 547.052 113.497 547.666 113.198 548.737H113.157V547.201H111.173V556ZM120.578 556.174C123.159 556.174 124.836 554.456 124.836 551.601C124.836 548.753 123.143 547.019 120.578 547.019C118.013 547.019 116.319 548.762 116.319 551.601C116.319 554.456 117.996 556.174 120.578 556.174ZM120.578 554.539C119.266 554.539 118.419 553.477 118.419 551.601C118.419 549.733 119.274 548.662 120.578 548.662C121.889 548.662 122.736 549.733 122.736 551.601C122.736 553.477 121.889 554.539 120.578 554.539ZM126.006 549.725C126.006 551.028 126.853 551.858 128.538 552.231L129.999 552.555C130.92 552.763 131.236 553.062 131.236 553.593C131.236 554.249 130.613 554.664 129.609 554.664C128.563 554.664 127.974 554.232 127.816 553.377H125.782C125.948 555.079 127.31 556.174 129.609 556.174C131.767 556.174 133.294 555.054 133.294 553.394C133.294 552.115 132.589 551.41 130.763 551.003L129.302 550.679C128.38 550.472 128.015 550.123 128.015 549.617C128.015 548.969 128.621 548.538 129.534 548.538C130.489 548.538 131.078 549.044 131.161 549.841H133.087C133.037 548.172 131.676 547.019 129.534 547.019C127.409 547.019 126.006 548.114 126.006 549.725ZM138.507 556.174C141.089 556.174 142.766 554.456 142.766 551.601C142.766 548.753 141.072 547.019 138.507 547.019C135.942 547.019 134.249 548.762 134.249 551.601C134.249 554.456 135.926 556.174 138.507 556.174ZM138.507 554.539C137.196 554.539 136.349 553.477 136.349 551.601C136.349 549.733 137.204 548.662 138.507 548.662C139.819 548.662 140.666 549.733 140.666 551.601C140.666 553.477 139.819 554.539 138.507 554.539ZM144.667 556H146.733V548.795H148.46V547.226H146.7V546.504C146.7 545.79 147.057 545.417 147.846 545.417C148.086 545.417 148.327 545.441 148.501 545.466V544.022C148.244 543.972 147.796 543.931 147.389 543.931C145.48 543.931 144.667 544.736 144.667 546.446V547.226H143.463V548.795H144.667V556ZM150.394 545.143V547.201H149.132V548.795H150.394V553.659C150.394 555.369 151.141 556.042 153.042 556.042C153.482 556.042 153.889 556.008 154.113 555.958V554.381C153.98 554.406 153.714 554.423 153.523 554.423C152.793 554.423 152.461 554.091 152.461 553.369V548.795H154.121V547.201H152.461V545.143H150.394ZM166.971 556H169.229L164.979 544.022H162.563L158.313 556H160.521L161.542 552.904H165.95L166.971 556ZM163.717 546.139H163.775L165.443 551.252H162.04L163.717 546.139ZM170.133 556H177.147V554.39H172.698V554.348L177.073 548.562V547.201H170.175V548.812H174.69V548.845L170.133 554.747V556ZM186.478 547.201H184.411V552.29C184.411 553.568 183.672 554.415 182.477 554.415C181.314 554.415 180.7 553.734 180.7 552.472V547.201H178.633V552.887C178.633 554.921 179.845 556.158 181.754 556.158C183.091 556.158 183.979 555.543 184.444 554.473H184.485V556H186.478V547.201ZM188.171 556H190.238V550.878C190.238 549.642 190.943 548.886 192.114 548.886C192.462 548.886 192.778 548.936 192.952 549.002V547.135C192.803 547.102 192.57 547.052 192.305 547.052C191.267 547.052 190.495 547.666 190.196 548.737H190.155V547.201H188.171V556ZM199.51 553.369C199.286 554.099 198.555 554.581 197.592 554.581C196.239 554.581 195.376 553.634 195.376 552.223V552.099H201.527V551.426C201.527 548.753 199.966 547.019 197.468 547.019C194.928 547.019 193.317 548.853 193.317 551.634C193.317 554.439 194.911 556.174 197.551 556.174C199.634 556.174 201.178 555.029 201.444 553.369H199.51ZM197.476 548.621C198.663 548.621 199.46 549.492 199.501 550.737H195.393C195.476 549.509 196.314 548.621 197.476 548.621ZM208.043 549.094L208.632 548.056L206.798 547.01L208.641 545.948L208.043 544.91L206.275 545.989L206.35 544.022H205.013L205.088 545.989L203.32 544.91L202.739 545.948L204.557 547.002L202.73 548.048L203.312 549.094L205.088 548.015L205.013 549.982H206.35L206.275 548.015L208.043 549.094Z" fill="white"/>
<path d="M137.882 584H140.14L135.89 572.022H133.474L129.224 584H131.432L132.453 580.904H136.861L137.882 584ZM134.628 574.139H134.686L136.354 579.252H132.951L134.628 574.139ZM147.295 575.334H147.378L149.827 584H151.844L155.056 572.022H152.832L150.756 581.095H150.69L148.283 572.022H146.39L143.983 581.095H143.917L141.841 572.022H139.617L142.829 584H144.846L147.295 575.334ZM155.886 580.655C155.986 582.846 157.82 584.199 160.593 584.199C163.473 584.199 165.274 582.755 165.274 580.464C165.274 578.688 164.22 577.675 161.697 577.152L160.402 576.886C158.908 576.571 158.31 576.048 158.31 575.234C158.31 574.23 159.256 573.599 160.584 573.599C161.954 573.599 162.9 574.28 163 575.409H165.05C165 573.267 163.249 571.823 160.601 571.823C158.003 571.823 156.152 573.25 156.152 575.359C156.152 577.11 157.272 578.239 159.671 578.729L160.958 578.995C162.519 579.318 163.116 579.85 163.116 580.713C163.116 581.709 162.112 582.423 160.667 582.423C159.173 582.423 158.094 581.759 157.937 580.655H155.886Z" fill="white"/>
<path d="M104.538 607.003V605.725H99.5576V607.36H102.446L102.438 607.559C102.405 609.236 101.151 610.381 99.3418 610.381C97.1836 610.381 95.8389 608.696 95.8389 605.94C95.8389 603.243 97.1255 601.641 99.2837 601.641C100.753 601.641 101.865 602.454 102.272 603.832H104.447C104.057 601.433 101.998 599.823 99.2754 599.823C95.814 599.823 93.6475 602.164 93.6475 605.965C93.6475 609.825 95.8223 612.199 99.3169 612.199C102.596 612.199 104.538 610.249 104.538 607.003ZM109.975 612.174C112.557 612.174 114.233 610.456 114.233 607.601C114.233 604.753 112.54 603.019 109.975 603.019C107.41 603.019 105.717 604.762 105.717 607.601C105.717 610.456 107.394 612.174 109.975 612.174ZM109.975 610.539C108.664 610.539 107.817 609.477 107.817 607.601C107.817 605.733 108.672 604.662 109.975 604.662C111.287 604.662 112.133 605.733 112.133 607.601C112.133 609.477 111.287 610.539 109.975 610.539ZM119.455 612.174C122.036 612.174 123.713 610.456 123.713 607.601C123.713 604.753 122.02 603.019 119.455 603.019C116.89 603.019 115.196 604.762 115.196 607.601C115.196 610.456 116.873 612.174 119.455 612.174ZM119.455 610.539C118.143 610.539 117.296 609.477 117.296 607.601C117.296 605.733 118.151 604.662 119.455 604.662C120.766 604.662 121.613 605.733 121.613 607.601C121.613 609.477 120.766 610.539 119.455 610.539ZM128.917 615.32C131.482 615.32 133.167 613.959 133.167 611.859V603.201H131.142V604.712H131.109C130.603 603.699 129.59 603.052 128.336 603.052C126.087 603.052 124.676 604.787 124.676 607.567C124.676 610.307 126.12 612.008 128.295 612.008C129.557 612.008 130.594 611.377 131.051 610.431H131.101V611.917C131.101 613.038 130.329 613.793 128.984 613.793C128.004 613.793 127.249 613.336 127.025 612.664H124.975C125.182 614.208 126.743 615.32 128.917 615.32ZM128.926 610.365C127.623 610.365 126.792 609.319 126.792 607.576C126.792 605.849 127.623 604.753 128.926 604.753C130.246 604.753 131.101 605.866 131.101 607.576C131.101 609.294 130.246 610.365 128.926 610.365ZM134.911 612H136.978V600.022H134.911V612ZM144.564 609.369C144.34 610.099 143.61 610.581 142.647 610.581C141.294 610.581 140.431 609.634 140.431 608.223V608.099H146.582V607.426C146.582 604.753 145.021 603.019 142.522 603.019C139.982 603.019 138.372 604.853 138.372 607.634C138.372 610.439 139.966 612.174 142.605 612.174C144.689 612.174 146.233 611.029 146.499 609.369H144.564ZM142.531 604.621C143.718 604.621 144.515 605.492 144.556 606.737H140.447C140.53 605.509 141.369 604.621 142.531 604.621ZM156.692 612.199C159.522 612.199 161.481 610.647 161.855 608.082H159.755C159.423 609.526 158.286 610.381 156.7 610.381C154.625 610.381 153.313 608.696 153.313 606.007C153.313 603.334 154.633 601.641 156.692 601.641C158.244 601.641 159.464 602.628 159.747 604.131H161.855C161.589 601.558 159.473 599.823 156.692 599.823C153.289 599.823 151.122 602.188 151.122 606.007C151.122 609.85 153.272 612.199 156.692 612.199ZM171.061 610.19H165.624V600.022H163.482V612H171.061V610.19ZM176.116 612.174C178.697 612.174 180.374 610.456 180.374 607.601C180.374 604.753 178.681 603.019 176.116 603.019C173.551 603.019 171.857 604.762 171.857 607.601C171.857 610.456 173.534 612.174 176.116 612.174ZM176.116 610.539C174.804 610.539 173.958 609.477 173.958 607.601C173.958 605.733 174.812 604.662 176.116 604.662C177.427 604.662 178.274 605.733 178.274 607.601C178.274 609.477 177.427 610.539 176.116 610.539ZM189.505 603.201H187.438V608.29C187.438 609.568 186.699 610.415 185.504 610.415C184.342 610.415 183.728 609.734 183.728 608.472V603.201H181.661V608.887C181.661 610.921 182.873 612.158 184.782 612.158C186.118 612.158 187.006 611.543 187.471 610.473H187.513V612H189.505V603.201ZM194.485 612.141C195.772 612.141 196.785 611.485 197.266 610.498H197.299V612H199.325V600.022H197.258V604.679H197.208C196.743 603.708 195.747 603.052 194.485 603.052C192.269 603.052 190.833 604.812 190.833 607.592C190.833 610.39 192.269 612.141 194.485 612.141ZM195.108 604.753C196.411 604.753 197.266 605.874 197.266 607.601C197.266 609.344 196.411 610.448 195.108 610.448C193.771 610.448 192.95 609.352 192.95 607.601C192.95 605.857 193.78 604.753 195.108 604.753Z" fill="white"/>
<circle cx="261" cy="551" r="4" fill="white"/>
<defs>
<filter id="filter0_dd_244_3913" x="36" y="190" width="229" height="86" filterUnits="userSpaceOnUse" color-interpolation-filters="sRGB">
<feFlood flood-opacity="0" result="BackgroundImageFix"/>
<feColorMatrix in="SourceAlpha" type="matrix" values="0 0 0 0 0 0 0 0 0 0 0 0 0 0 0 0 0 0 127 0" result="hardAlpha"/>
<feOffset dx="8" dy="12"/>
<feGaussianBlur stdDeviation="9"/>
<feComposite in2="hardAlpha" operator="out"/>
<feColorMatrix type="matrix" values="0 0 0 0 0.239216 0 0 0 0 0.513726 0 0 0 0 1 0 0 0 0.1 0"/>
<feBlend mode="normal" in2="BackgroundImageFix" result="effect1_dropShadow_244_3913"/>
<feColorMatrix in="SourceAlpha" type="matrix" values="0 0 0 0 0 0 0 0 0 0 0 0 0 0 0 0 0 0 127 0" result="hardAlpha"/>
<feOffset dx="-4" dy="-4"/>
<feGaussianBlur stdDeviation="8"/>
<feComposite in2="hardAlpha" operator="out"/>
<feColorMatrix type="matrix" values="0 0 0 0 0.0901961 0 0 0 0 0.415686 0 0 0 0 1 0 0 0 0.05 0"/>
<feBlend mode="normal" in2="effect1_dropShadow_244_3913" result="effect2_dropShadow_244_3913"/>
<feBlend mode="normal" in="SourceGraphic" in2="effect2_dropShadow_244_3913" result="shape"/>
</filter>
<filter id="filter1_dd_244_3913" x="36" y="230" width="229" height="86" filterUnits="userSpaceOnUse" color-interpolation-filters="sRGB">
<feFlood flood-opacity="0" result="BackgroundImageFix"/>
<feColorMatrix in="SourceAlpha" type="matrix" values="0 0 0 0 0 0 0 0 0 0 0 0 0 0 0 0 0 0 127 0" result="hardAlpha"/>
<feOffset dx="8" dy="12"/>
<feGaussianBlur stdDeviation="9"/>
<feComposite in2="hardAlpha" operator="out"/>
<feColorMatrix type="matrix" values="0 0 0 0 0.239216 0 0 0 0 0.513726 0 0 0 0 1 0 0 0 0.1 0"/>
<feBlend mode="normal" in2="BackgroundImageFix" result="effect1_dropShadow_244_3913"/>
<feColorMatrix in="SourceAlpha" type="matrix" values="0 0 0 0 0 0 0 0 0 0 0 0 0 0 0 0 0 0 127 0" result="hardAlpha"/>
<feOffset dx="-4" dy="-4"/>
<feGaussianBlur stdDeviation="8"/>
<feComposite in2="hardAlpha" operator="out"/>
<feColorMatrix type="matrix" values="0 0 0 0 0.0901961 0 0 0 0 0.415686 0 0 0 0 1 0 0 0 0.05 0"/>
<feBlend mode="normal" in2="effect1_dropShadow_244_3913" result="effect2_dropShadow_244_3913"/>
<feBlend mode="normal" in="SourceGraphic" in2="effect2_dropShadow_244_3913" result="shape"/>
</filter>
<filter id="filter2_dd_244_3913" x="36" y="270" width="229" height="86" filterUnits="userSpaceOnUse" color-interpolation-filters="sRGB">
<feFlood flood-opacity="0" result="BackgroundImageFix"/>
<feColorMatrix in="SourceAlpha" type="matrix" values="0 0 0 0 0 0 0 0 0 0 0 0 0 0 0 0 0 0 127 0" result="hardAlpha"/>
<feOffset dx="8" dy="12"/>
<feGaussianBlur stdDeviation="9"/>
<feComposite in2="hardAlpha" operator="out"/>
<feColorMatrix type="matrix" values="0 0 0 0 0.239216 0 0 0 0 0.513726 0 0 0 0 1 0 0 0 0.1 0"/>
<feBlend mode="normal" in2="BackgroundImageFix" result="effect1_dropShadow_244_3913"/>
<feColorMatrix in="SourceAlpha" type="matrix" values="0 0 0 0 0 0 0 0 0 0 0 0 0 0 0 0 0 0 127 0" result="hardAlpha"/>
<feOffset dx="-4" dy="-4"/>
<feGaussianBlur stdDeviation="8"/>
<feComposite in2="hardAlpha" operator="out"/>
<feColorMatrix type="matrix" values="0 0 0 0 0.0901961 0 0 0 0 0.415686 0 0 0 0 1 0 0 0 0.05 0"/>
<feBlend mode="normal" in2="effect1_dropShadow_244_3913" result="effect2_dropShadow_244_3913"/>
<feBlend mode="normal" in="SourceGraphic" in2="effect2_dropShadow_244_3913" result="shape"/>
</filter>
<filter id="filter3_dd_244_3913" x="36" y="310" width="229" height="86" filterUnits="userSpaceOnUse" color-interpolation-filters="sRGB">
<feFlood flood-opacity="0" result="BackgroundImageFix"/>
<feColorMatrix in="SourceAlpha" type="matrix" values="0 0 0 0 0 0 0 0 0 0 0 0 0 0 0 0 0 0 127 0" result="hardAlpha"/>
<feOffset dx="8" dy="12"/>
<feGaussianBlur stdDeviation="9"/>
<feComposite in2="hardAlpha" operator="out"/>
<feColorMatrix type="matrix" values="0 0 0 0 0.239216 0 0 0 0 0.513726 0 0 0 0 1 0 0 0 0.1 0"/>
<feBlend mode="normal" in2="BackgroundImageFix" result="effect1_dropShadow_244_3913"/>
<feColorMatrix in="SourceAlpha" type="matrix" values="0 0 0 0 0 0 0 0 0 0 0 0 0 0 0 0 0 0 127 0" result="hardAlpha"/>
<feOffset dx="-4" dy="-4"/>
<feGaussianBlur stdDeviation="8"/>
<feComposite in2="hardAlpha" operator="out"/>
<feColorMatrix type="matrix" values="0 0 0 0 0.0901961 0 0 0 0 0.415686 0 0 0 0 1 0 0 0 0.05 0"/>
<feBlend mode="normal" in2="effect1_dropShadow_244_3913" result="effect2_dropShadow_244_3913"/>
<feBlend mode="normal" in="SourceGraphic" in2="effect2_dropShadow_244_3913" result="shape"/>
</filter>
<filter id="filter4_dd_244_3913" x="36" y="370" width="229" height="86" filterUnits="userSpaceOnUse" color-interpolation-filters="sRGB">
<feFlood flood-opacity="0" result="BackgroundImageFix"/>
<feColorMatrix in="SourceAlpha" type="matrix" values="0 0 0 0 0 0 0 0 0 0 0 0 0 0 0 0 0 0 127 0" result="hardAlpha"/>
<feOffset dx="8" dy="12"/>
<feGaussianBlur stdDeviation="9"/>
<feComposite in2="hardAlpha" operator="out"/>
<feColorMatrix type="matrix" values="0 0 0 0 0.239216 0 0 0 0 0.513726 0 0 0 0 1 0 0 0 0.1 0"/>
<feBlend mode="normal" in2="BackgroundImageFix" result="effect1_dropShadow_244_3913"/>
<feColorMatrix in="SourceAlpha" type="matrix" values="0 0 0 0 0 0 0 0 0 0 0 0 0 0 0 0 0 0 127 0" result="hardAlpha"/>
<feOffset dx="-4" dy="-4"/>
<feGaussianBlur stdDeviation="8"/>
<feComposite in2="hardAlpha" operator="out"/>
<feColorMatrix type="matrix" values="0 0 0 0 0.0901961 0 0 0 0 0.415686 0 0 0 0 1 0 0 0 0.05 0"/>
<feBlend mode="normal" in2="effect1_dropShadow_244_3913" result="effect2_dropShadow_244_3913"/>
<feBlend mode="normal" in="SourceGraphic" in2="effect2_dropShadow_244_3913" result="shape"/>
</filter>
<filter id="filter5_dd_244_3913" x="14" y="0" width="273" height="208" filterUnits="userSpaceOnUse" color-interpolation-filters="sRGB">
<feFlood flood-opacity="0" result="BackgroundImageFix"/>
<feColorMatrix in="SourceAlpha" type="matrix" values="0 0 0 0 0 0 0 0 0 0 0 0 0 0 0 0 0 0 127 0" result="hardAlpha"/>
<feOffset dx="8" dy="12"/>
<feGaussianBlur stdDeviation="9"/>
<feComposite in2="hardAlpha" operator="out"/>
<feColorMatrix type="matrix" values="0 0 0 0 0.239216 0 0 0 0 0.513726 0 0 0 0 1 0 0 0 0.1 0"/>
<feBlend mode="normal" in2="BackgroundImageFix" result="effect1_dropShadow_244_3913"/>
<feColorMatrix in="SourceAlpha" type="matrix" values="0 0 0 0 0 0 0 0 0 0 0 0 0 0 0 0 0 0 127 0" result="hardAlpha"/>
<feOffset dx="-4" dy="-4"/>
<feGaussianBlur stdDeviation="8"/>
<feComposite in2="hardAlpha" operator="out"/>
<feColorMatrix type="matrix" values="0 0 0 0 0.0901961 0 0 0 0 0.415686 0 0 0 0 1 0 0 0 0.05 0"/>
<feBlend mode="normal" in2="effect1_dropShadow_244_3913" result="effect2_dropShadow_244_3913"/>
<feBlend mode="normal" in="SourceGraphic" in2="effect2_dropShadow_244_3913" result="shape"/>
</filter>
<filter id="filter6_dd_244_3913" x="14" y="438" width="273" height="226" filterUnits="userSpaceOnUse" color-interpolation-filters="sRGB">
<feFlood flood-opacity="0" result="BackgroundImageFix"/>
<feColorMatrix in="SourceAlpha" type="matrix" values="0 0 0 0 0 0 0 0 0 0 0 0 0 0 0 0 0 0 127 0" result="hardAlpha"/>
<feOffset dx="8" dy="12"/>
<feGaussianBlur stdDeviation="9"/>
<feComposite in2="hardAlpha" operator="out"/>
<feColorMatrix type="matrix" values="0 0 0 0 0.239216 0 0 0 0 0.513726 0 0 0 0 1 0 0 0 0.1 0"/>
<feBlend mode="normal" in2="BackgroundImageFix" result="effect1_dropShadow_244_3913"/>
<feColorMatrix in="SourceAlpha" type="matrix" values="0 0 0 0 0 0 0 0 0 0 0 0 0 0 0 0 0 0 127 0" result="hardAlpha"/>
<feOffset dx="-4" dy="-4"/>
<feGaussianBlur stdDeviation="8"/>
<feComposite in2="hardAlpha" operator="out"/>
<feColorMatrix type="matrix" values="0 0 0 0 0.0901961 0 0 0 0 0.415686 0 0 0 0 1 0 0 0 0.05 0"/>
<feBlend mode="normal" in2="effect1_dropShadow_244_3913" result="effect2_dropShadow_244_3913"/>
<feBlend mode="normal" in="SourceGraphic" in2="effect2_dropShadow_244_3913" result="shape"/>
</filter>
</defs>
</svg>
