<svg width="95" height="24" viewBox="0 0 95 24" fill="none" xmlns="http://www.w3.org/2000/svg">
<path d="M12.9284 2.30322H16.0285C16.2888 2.30322 16.5255 2.30322 16.7858 2.30322C17.0461 2.30322 17.2354 2.35049 17.3537 2.46867C17.4484 2.53958 17.4957 2.65776 17.5194 2.82321C17.5431 2.96503 17.5667 3.10685 17.5904 3.24866C17.6141 3.50866 17.6614 3.76865 17.685 4.02865C17.7324 4.28865 17.7797 4.54864 17.8034 4.80864C17.969 5.80135 18.111 6.8177 18.2293 7.83405C18.3477 8.8504 18.5133 9.86674 18.679 10.8831C18.75 11.1904 18.7973 11.5213 18.821 11.8522C18.8446 12.1831 18.892 12.514 18.963 12.8212C18.9866 12.8922 18.9866 12.9867 19.0103 13.0576C19.0339 13.1285 19.0576 13.1994 19.1286 13.2467C19.1523 13.2703 19.1759 13.2703 19.1996 13.294C19.2233 13.3176 19.2706 13.294 19.3179 13.2703C19.4363 13.2467 19.5546 13.1521 19.6256 12.9867C19.6966 12.8212 19.7912 12.6794 19.8622 12.5612C20.0515 12.2067 20.2409 11.8522 20.4065 11.4976C20.5722 11.1431 20.7615 10.7649 20.9745 10.4104C21.4714 9.4413 21.9921 8.49586 22.489 7.52678C23.0097 6.5577 23.5303 5.56499 24.0273 4.59592C24.1456 4.33592 24.2876 4.09956 24.4059 3.8632C24.5479 3.6032 24.6899 3.36684 24.8082 3.10685C24.8792 2.98867 24.9502 2.84685 25.0212 2.72867C25.0922 2.61049 25.2105 2.49231 25.3525 2.4214C25.4708 2.35049 25.5891 2.30322 25.7311 2.30322C25.8968 2.30322 26.0388 2.30322 26.2044 2.30322H27.7427H29.3755C29.5175 2.30322 29.6595 2.30322 29.8015 2.30322C29.9672 2.30322 30.0618 2.32686 30.1328 2.39777C30.2985 2.49231 30.3458 2.6814 30.2748 2.94139C30.2275 3.20139 30.1802 3.46139 30.1328 3.72138L29.4229 7.26678L27.648 16.0594L27.2457 18.1157C27.222 18.2812 27.1747 18.4703 27.1274 18.6357C27.08 18.8012 27.009 18.9193 26.8907 18.9902C26.7724 19.0612 26.6541 19.1084 26.5121 19.1321C26.3701 19.1321 26.2044 19.1321 26.0388 19.1321H24.9029H24.2639C24.1456 19.1084 24.0509 19.0848 23.9563 19.0612C23.8853 19.0375 23.8143 18.9902 23.7669 18.8957C23.7196 18.8248 23.6959 18.7066 23.7196 18.5884C23.7433 18.4702 23.7906 18.3284 23.8143 18.1866L24.0509 16.9812L25.2815 10.9067C25.3052 10.694 25.3525 10.4813 25.3762 10.2922C25.4235 10.0795 25.4708 9.89038 25.4945 9.67766C25.5182 9.55948 25.5655 9.41766 25.5891 9.29948C25.6128 9.15766 25.6365 9.01585 25.6365 8.89767C25.6128 8.77949 25.6128 8.66131 25.6365 8.54313C25.6601 8.42495 25.6365 8.3304 25.5655 8.30677C25.5182 8.28313 25.4708 8.30677 25.4472 8.3304C25.4235 8.35404 25.3998 8.37768 25.3762 8.40131C25.3052 8.47222 25.2342 8.54313 25.1632 8.63767C25.1158 8.70858 25.0685 8.80312 25.0212 8.87403C24.8792 9.11039 24.7372 9.34675 24.5952 9.60675C24.4769 9.86674 24.3349 10.1031 24.1692 10.3631C24.1219 10.4576 24.0746 10.5522 24.0273 10.6467C24.0036 10.7413 23.9563 10.8358 23.8853 10.9304C23.7669 11.1431 23.6486 11.3322 23.5303 11.5449C23.4356 11.7576 23.3173 11.9467 23.199 12.1594C23.1753 12.2067 23.1517 12.254 23.128 12.3249C23.1043 12.3722 23.0807 12.4194 23.057 12.4667C22.9623 12.6085 22.8677 12.7503 22.7967 12.9158C22.7257 13.0812 22.6547 13.2231 22.5364 13.3885C22.4417 13.5303 22.347 13.6721 22.2761 13.8376C22.2051 14.003 22.1341 14.1449 22.0394 14.3103C21.7554 14.7594 21.4951 15.2321 21.2585 15.7048C21.0218 16.1539 20.7852 16.6266 20.5248 17.0757C20.4775 17.123 20.4538 17.1703 20.4302 17.2175C20.4302 17.2648 20.4065 17.3121 20.3592 17.3594C20.2409 17.5248 20.1462 17.7139 20.0515 17.903C19.9805 18.0684 19.8859 18.2575 19.7676 18.423C19.6966 18.5412 19.6492 18.6357 19.5782 18.7302C19.5072 18.8248 19.4363 18.8957 19.3653 18.9666C19.2706 19.0375 19.1759 19.0611 19.1049 19.0848C19.0339 19.0848 18.9156 19.1084 18.7973 19.1321H18.253C18.1347 19.1321 18.0164 19.1321 17.8507 19.1557C17.7087 19.1557 17.5667 19.1557 17.4011 19.1557C17.2591 19.1557 17.1171 19.1557 16.9988 19.1321C16.8804 19.1084 16.7858 19.0848 16.7384 19.0375C16.6201 18.9666 16.5491 18.8721 16.5255 18.7775C16.5018 18.6593 16.4781 18.5412 16.4308 18.3993C16.4071 18.2103 16.3835 18.0212 16.3598 17.8321C16.3361 17.6194 16.3125 17.4303 16.2651 17.2412L16.2415 17.0285C16.1942 16.8394 16.1705 16.6503 16.1468 16.4376C16.1232 16.2248 16.0995 16.0121 16.0522 15.823C16.0522 15.7757 16.0522 15.7285 16.0522 15.7048C16.0522 15.6576 16.0522 15.6103 16.0285 15.563C15.9812 15.4212 15.9575 15.2794 15.9338 15.1139C15.9102 14.9485 15.8865 14.8067 15.8628 14.6412C15.8628 14.6176 15.8628 14.5703 15.8628 14.523C15.8628 14.4758 15.8628 14.4285 15.8392 14.4049C15.8155 14.2394 15.7918 14.0976 15.7682 13.9321C15.7682 13.7667 15.7445 13.6249 15.6972 13.4594C15.6262 13.1521 15.5789 12.8212 15.5315 12.4667C15.5079 12.1122 15.4605 11.7813 15.3895 11.4504C15.3185 11.0485 15.2712 10.6467 15.2239 10.2449C15.2002 9.84311 15.1292 9.4413 15.0109 9.06312C14.9872 8.8504 14.9399 8.66131 14.8689 8.51949C14.8452 8.49586 14.7979 8.47222 14.7743 8.44858C14.7506 8.42495 14.7269 8.42495 14.6796 8.44858C14.5849 8.49586 14.5139 8.56676 14.4903 8.68494C14.4666 8.80312 14.4429 8.89767 14.3956 9.01585C14.3246 9.13403 14.301 9.25221 14.2773 9.37039C14.2536 9.48857 14.2536 9.60675 14.23 9.72493C14.2063 9.89038 14.159 10.0795 14.1116 10.2449C14.088 10.4104 14.0406 10.5995 13.9933 10.7649L12.7391 17.0521L12.5024 18.2103C12.4788 18.3284 12.4314 18.4702 12.4078 18.5884C12.3841 18.7066 12.3368 18.8248 12.2658 18.8957C12.1948 19.0139 12.0528 19.0848 11.8635 19.1084C11.7451 19.1321 11.6268 19.1557 11.5085 19.1557C11.3902 19.1321 11.2482 19.1321 11.1298 19.1321H9.89927C9.73361 19.1321 9.56796 19.1321 9.42597 19.1321C9.28398 19.1084 9.16565 19.0612 9.09466 18.9902C9.02366 18.9193 9 18.8012 9 18.6357C9.02366 18.4703 9.07099 18.2812 9.09466 18.1157L9.49696 16.0357L11.2718 7.24315L11.9345 3.93411C11.9581 3.83956 11.9581 3.72138 11.9818 3.6032C12.0055 3.46139 12.0528 3.31957 12.0764 3.20139C12.1001 3.08321 12.1474 2.96503 12.1711 2.84685C12.2184 2.72867 12.2658 2.63413 12.2894 2.56322C12.3841 2.44504 12.5261 2.37413 12.7154 2.32686C12.7627 2.30322 12.7864 2.30322 12.8101 2.32686C12.8574 2.32686 12.8811 2.32686 12.9284 2.30322Z" fill="white"/>
<path d="M41.231 18.2104C41.231 18.3759 41.2074 18.5649 41.1837 18.7304C41.16 18.8958 41.0417 19.014 40.8761 19.0849C40.7577 19.1322 40.6394 19.1558 40.5211 19.1558C40.4028 19.1558 40.2608 19.1558 40.1424 19.1558H38.8645C38.7226 19.1558 38.5806 19.1558 38.4386 19.1558C38.3202 19.1322 38.2256 19.1086 38.1546 19.0377C38.0599 18.9668 37.9889 18.8958 37.9653 18.7777C37.9416 18.6595 37.8706 18.5413 37.7996 18.4704C37.776 18.4468 37.7286 18.4231 37.6813 18.3995C37.6576 18.3759 37.5866 18.3522 37.5156 18.3759C37.421 18.3995 37.3263 18.4468 37.2553 18.494C37.1843 18.5413 37.0897 18.5886 37.0187 18.6122C36.924 18.6831 36.8294 18.7304 36.711 18.7777C36.6164 18.8249 36.5217 18.8722 36.4034 18.9195C36.1904 19.014 35.9537 19.0849 35.7171 19.1558C35.4805 19.2031 35.2438 19.2504 35.0072 19.3213C34.8888 19.3449 34.7705 19.3686 34.6522 19.3686C34.5575 19.3922 34.4629 19.3922 34.3445 19.4158C34.2972 19.4158 34.2499 19.4158 34.2025 19.4158C34.1552 19.4395 34.1079 19.4395 34.0606 19.4395H33.8002C33.6346 19.4631 33.4689 19.4631 33.3269 19.4395H33.114C32.9956 19.4158 32.901 19.3922 32.7826 19.3922C32.688 19.4158 32.5933 19.3922 32.4987 19.3686C32.3567 19.3449 32.2147 19.2977 32.0727 19.274C31.9307 19.2504 31.8124 19.2268 31.6941 19.1558C31.2681 18.9904 30.9131 18.754 30.6528 18.494C30.3925 18.2104 30.2032 17.8322 30.1085 17.3831C30.0848 17.265 30.0612 17.1468 30.0375 17.0286C30.0375 16.9104 30.0375 16.7686 30.0138 16.6268C29.9902 16.5559 29.9902 16.4613 30.0138 16.3904C30.0375 16.3195 30.0612 16.225 30.0612 16.1541C30.0612 16.1068 30.0612 16.0123 30.0848 15.8704C30.1085 15.705 30.1558 15.6104 30.1795 15.5395C30.2505 15.3741 30.2742 15.2559 30.2978 15.1377C30.3688 14.9723 30.4635 14.7832 30.5345 14.6177C30.6291 14.4286 30.7238 14.2632 30.8421 14.1214C31.1971 13.6723 31.5521 13.3177 31.9544 13.0814C32.3567 12.845 32.83 12.6323 33.4216 12.4669C33.6346 12.3959 33.8712 12.325 34.0842 12.3014C34.2972 12.2778 34.5339 12.2305 34.7705 12.1832C34.8888 12.1596 35.0308 12.1359 35.1728 12.1359C35.3385 12.1123 35.4804 12.0887 35.6224 12.065C35.7408 12.0414 35.8354 12.0178 35.9537 12.0414C36.0721 12.0414 36.1904 12.0178 36.3324 11.9941C36.4507 11.9705 36.5454 11.9469 36.6637 11.9469C36.782 11.9469 36.9003 11.9232 37.0187 11.8996C37.3736 11.8287 37.6813 11.7578 37.9653 11.7105C38.2729 11.6396 38.5569 11.4978 38.8172 11.2851C38.9829 11.1432 39.1012 10.9778 39.1958 10.8123C39.2195 10.7651 39.2195 10.7178 39.2195 10.6942C39.2195 10.6705 39.2195 10.6232 39.2432 10.5996C39.2668 10.576 39.2905 10.5287 39.2905 10.4578C39.3142 10.3869 39.3142 10.3396 39.3378 10.316C39.3378 10.2451 39.3378 10.1978 39.3378 10.1269C39.3378 10.056 39.3378 10.0087 39.3378 9.96146C39.2668 9.48874 39.0065 9.15783 38.5332 8.99238C38.4149 8.94511 38.2493 8.92147 38.0363 8.89784C37.8469 8.8742 37.6576 8.85056 37.4446 8.8742C37.2317 8.8742 37.0423 8.89784 36.8294 8.92147C36.64 8.94511 36.4744 8.99238 36.3324 9.03965C36.2141 9.06329 36.1194 9.11056 36.0247 9.18147C35.9301 9.22874 35.8354 9.27601 35.7408 9.34692C35.6461 9.41783 35.5514 9.48874 35.4331 9.60692C35.3148 9.7251 35.2438 9.81964 35.1965 9.91419C35.0781 10.0796 34.9835 10.2214 34.9125 10.3632C34.8415 10.5051 34.6995 10.5996 34.5102 10.6469C34.3919 10.6705 34.2499 10.6942 34.1079 10.6942C33.9659 10.6942 33.8239 10.6942 33.6819 10.6942H32.7826C32.7116 10.6942 32.617 10.6942 32.5223 10.7178C32.4513 10.7178 32.3803 10.7178 32.333 10.6942H32.12C32.0964 10.6705 32.049 10.6705 32.0017 10.6705C31.9544 10.6705 31.907 10.6469 31.8834 10.6232C31.765 10.5996 31.7177 10.4814 31.6941 10.316C31.6941 10.2451 31.7177 10.1505 31.7414 10.0796C31.7651 10.0087 31.8124 9.93782 31.836 9.86691C31.907 9.70146 32.0017 9.53601 32.0727 9.39419C32.1674 9.22874 32.262 9.08692 32.3567 8.96874C32.4277 8.89784 32.475 8.80329 32.546 8.73238C32.617 8.66148 32.6643 8.56693 32.7353 8.49602C32.901 8.33057 33.0903 8.16512 33.3033 7.99967C33.3506 7.97603 33.3979 7.9524 33.4689 7.88149C33.5636 7.81058 33.6346 7.76331 33.7056 7.71604C33.7766 7.66876 33.8712 7.62149 33.9659 7.57422C34.2735 7.40877 34.5812 7.26695 34.8888 7.17241C35.2201 7.05423 35.5514 6.95968 35.8828 6.86514C36.0957 6.81787 36.2851 6.79423 36.498 6.7706C36.711 6.74696 36.924 6.72332 37.137 6.67605C37.208 6.65242 37.3027 6.65242 37.421 6.67605C37.5393 6.69969 37.634 6.67605 37.6813 6.65242C38.3202 6.62878 38.9355 6.65242 39.5035 6.72332C40.0951 6.79423 40.5921 6.91241 41.0417 7.07786C41.4914 7.24332 41.87 7.47968 42.154 7.78694C42.4616 8.07058 42.6509 8.44875 42.7456 8.89784C42.7929 9.15783 42.7929 9.4651 42.7456 9.81964C42.6983 10.1742 42.6273 10.5287 42.5563 10.8832L41.4913 16.1541C41.444 16.4613 41.3967 16.7686 41.3257 17.0759C41.2547 17.3831 41.231 17.6431 41.2547 17.9031C41.2547 17.9504 41.2547 17.9977 41.231 18.0686C41.231 18.1159 41.231 18.1631 41.231 18.2104ZM38.4859 14.5705C38.5096 14.4995 38.5332 14.405 38.5569 14.3105C38.5806 14.1923 38.5806 14.0977 38.5806 14.0268C38.5806 13.9323 38.5806 13.8377 38.6042 13.7668C38.6279 13.6959 38.6042 13.625 38.5332 13.5777C38.4622 13.5068 38.3676 13.4832 38.2019 13.4832C38.1309 13.5068 38.0836 13.5068 38.0363 13.5305C37.9889 13.5305 37.9179 13.5305 37.8469 13.5541C37.7286 13.5777 37.6103 13.6014 37.492 13.625C37.3736 13.6487 37.2317 13.6723 37.0897 13.6959C37.0423 13.7196 36.9713 13.7196 36.8767 13.7196C36.6637 13.7668 36.4507 13.7905 36.2377 13.8141C36.0247 13.8377 35.8354 13.8614 35.6224 13.9323C35.5041 13.9559 35.3621 14.0032 35.2438 14.0268C35.1255 14.0505 35.0308 14.0741 34.9125 14.1214C34.5575 14.2632 34.2262 14.4759 33.9422 14.7595C33.6582 15.0432 33.4926 15.445 33.4453 15.9413C33.4216 16.2013 33.4689 16.4377 33.5873 16.6032C33.6582 16.7686 33.7766 16.9104 33.9896 17.0286C34.2025 17.1231 34.4155 17.1941 34.6758 17.2413C34.9362 17.2886 35.1965 17.3122 35.4805 17.2886C35.7881 17.265 36.0721 17.1941 36.3324 17.1231C36.782 17.005 37.137 16.7922 37.421 16.5322C37.7286 16.2486 37.9653 15.8941 38.1783 15.4923C38.2256 15.3741 38.2729 15.2795 38.2966 15.1614C38.3202 15.0432 38.3676 14.9014 38.4386 14.7832L38.4859 14.5705Z" fill="white"/>
<path d="M68.6578 12.9394C68.6578 13.0575 68.6341 13.1994 68.5631 13.3648C68.4921 13.5303 68.4211 13.6248 68.3265 13.6721C68.2555 13.743 68.1372 13.7903 67.9715 13.8139C67.8059 13.8375 67.6402 13.8375 67.4509 13.8612C67.2852 13.8612 67.0959 13.8612 66.9066 13.8612C66.7409 13.8375 66.5753 13.8375 66.4333 13.8375H60.659C60.5407 13.8375 60.4461 13.8375 60.3277 13.8375C60.2331 13.8375 60.1384 13.8612 60.0674 13.8848C59.9254 13.9557 59.8308 14.003 59.7834 14.0739C59.7598 14.0975 59.7124 14.1684 59.6414 14.263C59.5941 14.3339 59.5705 14.4284 59.5705 14.4993C59.5941 14.5939 59.5941 14.6884 59.5705 14.783C59.5705 14.8539 59.5704 14.9484 59.5941 15.043C59.6414 15.4211 59.7361 15.7284 59.8544 15.9884C59.9964 16.2248 60.2094 16.4375 60.4697 16.6266C60.588 16.6975 60.7064 16.7684 60.8247 16.792C60.9667 16.8157 61.1087 16.8393 61.227 16.8866C61.3453 16.9102 61.511 16.9338 61.724 16.9575C61.9369 16.9811 62.1499 16.9575 62.3156 16.9338H62.5286C62.6942 16.9102 62.8362 16.8629 62.9782 16.8393C63.1202 16.792 63.2622 16.7448 63.4042 16.6975C63.5698 16.6266 63.7828 16.5084 63.9958 16.3902C64.2088 16.272 64.3981 16.1302 64.5164 16.012C64.6111 15.8939 64.7057 15.7993 64.8241 15.7048C64.9424 15.5866 65.0607 15.5157 65.179 15.4684C65.3447 15.3975 65.5577 15.3502 65.7943 15.3739C66.0546 15.3739 66.2676 15.3739 66.4806 15.3739C66.5753 15.3739 66.6699 15.3739 66.7646 15.3739C66.8829 15.3502 66.9776 15.3739 67.0486 15.3975H67.2852C67.4272 15.4211 67.5219 15.4684 67.5929 15.5157C67.6402 15.5393 67.6639 15.6102 67.6402 15.7284C67.6402 15.8466 67.6165 15.9411 67.5692 16.012C67.4509 16.2248 67.3089 16.4375 67.1669 16.6029C67.0486 16.7684 66.9066 16.9575 66.7409 17.1229C66.2913 17.6429 65.818 18.0684 65.321 18.3756C64.8241 18.6829 64.2088 18.9665 63.4988 19.1793C63.3095 19.2502 63.1202 19.2738 62.9545 19.2974C62.7889 19.3211 62.5996 19.3447 62.3866 19.392C62.3156 19.4156 62.2446 19.4156 62.1736 19.392C62.1026 19.392 62.0553 19.392 61.9843 19.4156H61.724C61.6293 19.4393 61.5346 19.4629 61.44 19.4393C61.3453 19.4393 61.2507 19.4393 61.1797 19.4156C61.0613 19.392 60.943 19.392 60.8484 19.4156C60.7537 19.4393 60.659 19.4156 60.5407 19.392C60.4697 19.3683 60.3751 19.3447 60.2804 19.3447C60.1857 19.3447 60.1147 19.3211 60.0438 19.2974C59.8781 19.2738 59.6888 19.2265 59.5231 19.1793C59.3575 19.1556 59.2155 19.0847 59.0972 19.0138C58.9315 18.9429 58.7895 18.8956 58.6475 18.8484C58.5055 18.7774 58.3872 18.7065 58.2689 18.6356C57.8192 18.3284 57.4406 17.9502 57.133 17.5484C56.8253 17.1229 56.6123 16.6266 56.4703 16.0829C56.423 15.9175 56.3993 15.7284 56.3757 15.563C56.3757 15.3739 56.352 15.1848 56.3047 14.9957C56.3047 14.9248 56.3047 14.8775 56.3047 14.8302C56.3284 14.7593 56.3284 14.7121 56.3284 14.6412C56.3047 14.4521 56.3047 14.2393 56.3284 14.0266C56.352 13.8139 56.3993 13.5775 56.423 13.3648C56.4467 13.2939 56.4467 13.1994 56.4467 13.1048C56.4703 13.0103 56.494 12.9157 56.5177 12.8448L56.5887 12.5612L56.778 11.9939C56.8963 11.7339 56.991 11.4739 57.0856 11.2139C57.1803 10.9539 57.2986 10.7176 57.4406 10.5048C58.4582 8.87397 59.8308 7.7158 61.6056 7.03036C61.8423 6.93581 62.0789 6.86491 62.3156 6.84127C62.5522 6.794 62.8125 6.74673 63.0729 6.67582C63.1912 6.65218 63.3095 6.65218 63.4278 6.65218C63.5462 6.65218 63.6645 6.65218 63.7828 6.62855C64.5874 6.60491 65.25 6.69945 65.7943 6.91218C66.3386 7.10127 66.7883 7.36126 67.1906 7.66853C67.3089 7.76307 67.4272 7.88125 67.5455 7.99943C67.6639 8.11761 67.7822 8.23579 67.8532 8.35397C67.8768 8.42488 67.9478 8.49579 68.0188 8.54306C68.1135 8.70851 68.1845 8.8976 68.2555 9.08669C68.3265 9.25214 68.4211 9.44123 68.5158 9.63032C68.5631 9.77213 68.5868 9.91395 68.6105 10.0794C68.6341 10.2212 68.6815 10.3867 68.7051 10.5521C68.7288 10.7648 68.7524 10.9776 68.7524 11.1903C68.7761 11.403 68.7761 11.6394 68.7998 11.8521C68.7998 11.9703 68.7761 12.1121 68.7288 12.2775C68.7051 12.4194 68.6815 12.5612 68.7051 12.6794L68.6578 12.9394ZM65.3684 11.5448C65.5104 11.3794 65.5577 11.1903 65.5104 10.9776C65.4867 10.7412 65.463 10.5758 65.4394 10.4576C65.2974 10.0321 65.0607 9.70123 64.7531 9.4885C64.4454 9.25214 63.9485 9.13396 63.3095 9.11033C63.2622 9.13396 63.2149 9.1576 63.1439 9.13396C63.0729 9.11033 63.0255 9.11033 62.9782 9.13396C62.8835 9.1576 62.7889 9.18123 62.6942 9.20487C62.5996 9.20487 62.5049 9.22851 62.4339 9.25214C61.7003 9.46487 61.085 9.91395 60.6354 10.5521C60.588 10.623 60.5407 10.6939 60.4697 10.8121C60.3987 10.9067 60.3514 11.0012 60.3277 11.1194C60.3041 11.2139 60.2804 11.3085 60.2804 11.403C60.2804 11.4976 60.3277 11.5685 60.3987 11.6394C60.517 11.7103 60.6827 11.7576 60.8957 11.7576C61.1087 11.7576 61.3217 11.7576 61.5346 11.7576H64.1615C64.3744 11.7576 64.6111 11.7576 64.8477 11.7576C65.108 11.7339 65.2737 11.663 65.3684 11.5448Z" fill="white"/>
<path d="M78.8805 6.65234C79.8271 6.62871 80.5844 6.74689 81.1523 7.05415C81.744 7.36142 82.1463 7.78687 82.3829 8.37777C82.4539 8.54322 82.5012 8.73231 82.5249 8.94503C82.5486 9.13412 82.5722 9.32321 82.5959 9.53593C82.6196 9.65411 82.6196 9.77229 82.5959 9.89047C82.5722 10.0087 82.5722 10.1032 82.5959 10.2214C82.5722 10.3159 82.5486 10.3868 82.5722 10.4105C82.5486 10.6232 82.5249 10.8596 82.4776 11.0959C82.4302 11.3323 82.3829 11.5686 82.3356 11.7814L81.9333 13.885L81.1523 17.714C81.0813 18.0213 81.034 18.3049 80.963 18.5885C80.892 18.8485 80.75 19.0376 80.5134 19.1085C80.4187 19.1322 80.3004 19.1558 80.1821 19.1558C80.0638 19.1558 79.9218 19.1558 79.8034 19.1558H78.5255C78.3362 19.1558 78.1706 19.1558 78.0286 19.1322C77.8866 19.1085 77.7919 19.0376 77.7209 18.9194C77.6736 18.8249 77.6499 18.7067 77.6736 18.5649C77.6973 18.3994 77.7446 18.234 77.7682 18.0685L78.0996 16.414L78.8095 12.8922C78.9278 12.3013 78.9988 11.7814 79.0462 11.285C79.1172 10.7886 79.0462 10.3632 78.8805 10.0087C78.7149 9.70139 78.4545 9.46503 78.0522 9.34685C77.9812 9.32321 77.8866 9.29957 77.7919 9.29957C77.7209 9.29957 77.6263 9.27594 77.5553 9.2523C77.4843 9.22867 77.3659 9.22867 77.2476 9.2523C77.1293 9.2523 77.0583 9.2523 76.9873 9.27594C76.9163 9.29957 76.8453 9.29957 76.798 9.29957C76.7507 9.29957 76.7033 9.29957 76.656 9.32321C76.2774 9.41775 75.9697 9.53593 75.7094 9.70139C75.1178 10.0559 74.7155 10.5996 74.4788 11.285C74.2658 11.9704 74.0528 12.7504 73.8872 13.625L73.2956 16.5795L73.0116 18.0213C72.9879 18.1631 72.9406 18.3049 72.9169 18.4467C72.8933 18.5885 72.8459 18.7067 72.7749 18.8012C72.6566 18.9667 72.5146 19.0849 72.3253 19.1085C72.1596 19.1322 71.9467 19.1558 71.6863 19.1558H70.5031C70.3374 19.1558 70.1481 19.1558 69.9825 19.1322C69.8168 19.1085 69.6985 19.0612 69.6512 18.9667C69.5565 18.8249 69.5328 18.6122 69.6038 18.3522C69.6748 18.0922 69.7222 17.8322 69.7695 17.5958L70.4084 14.3813L71.4497 9.18139L71.71 7.97596C71.7337 7.81051 71.781 7.64505 71.8047 7.50324C71.8283 7.36142 71.8993 7.24324 72.0177 7.1487C72.0413 7.10143 72.1123 7.07779 72.1833 7.05415C72.2543 7.03052 72.349 7.00688 72.42 6.98325H72.5383C72.6093 6.95961 72.7039 6.95961 72.7749 6.95961C72.8696 6.95961 72.9643 6.95961 73.0353 6.95961H74.0292C74.1475 6.95961 74.2658 6.95961 74.3842 6.98325C74.5025 6.98325 74.6208 7.00688 74.7155 7.03052C74.8101 7.07779 74.8575 7.1487 74.8811 7.24324C74.9048 7.33779 74.9285 7.45597 74.9285 7.57415C74.9285 7.64505 74.9284 7.69233 74.9048 7.7396C74.8811 7.78687 74.8811 7.83414 74.9048 7.88141C74.9284 7.95232 74.9285 7.99959 74.9521 8.02323C74.9758 8.04687 75.0231 8.0705 75.0704 8.09414C75.2361 8.11777 75.3781 8.04687 75.5201 7.92869C75.6621 7.78687 75.8041 7.66869 75.946 7.59778C76.443 7.29051 76.9636 7.03052 77.5079 6.84143C77.6736 6.79416 77.8156 6.77052 77.9576 6.74689C78.1232 6.72325 78.2889 6.69961 78.4782 6.67598C78.5255 6.65234 78.5965 6.65234 78.6912 6.67598C78.7858 6.67598 78.8332 6.67598 78.8805 6.65234Z" fill="white"/>
<path d="M84.73 6.62862C84.7537 6.65225 84.7537 6.67589 84.7537 6.69952C84.7537 6.72316 84.7537 6.77043 84.73 6.8177V6.86498C84.7064 6.88861 84.7064 6.91225 84.6827 6.93588C84.659 6.95952 84.659 6.95952 84.6117 6.98316C84.588 6.98316 84.5407 6.98316 84.4934 6.98316C84.446 6.98316 84.3987 6.98316 84.3751 6.98316H84.3041C84.2804 6.98316 84.2804 6.98316 84.2567 6.98316C84.2331 6.98316 84.2331 6.98316 84.2094 6.98316C84.1857 7.00679 84.1384 7.03043 84.1147 7.0777C84.1147 7.10134 84.0911 7.10134 84.0911 7.12497C84.0911 7.14861 84.0911 7.17224 84.0911 7.19588L83.8544 8.30677C83.8544 8.33041 83.8544 8.33041 83.8544 8.35404C83.8544 8.37768 83.8544 8.37768 83.8544 8.40132V8.44859V8.47222C83.8544 8.47222 83.8544 8.49586 83.8308 8.49586C83.8071 8.5195 83.8071 8.54313 83.7598 8.54313C83.7361 8.54313 83.7361 8.54313 83.7124 8.54313C83.6888 8.54313 83.6651 8.54313 83.6414 8.54313C83.5941 8.54313 83.5468 8.54313 83.4995 8.54313C83.4521 8.54313 83.4048 8.5195 83.3811 8.49586C83.3811 8.47222 83.3575 8.44859 83.3811 8.42495C83.3811 8.40132 83.4048 8.37768 83.4048 8.33041L83.6178 7.21952C83.6178 7.19588 83.6178 7.19588 83.6178 7.17224C83.6178 7.14861 83.6178 7.14861 83.6178 7.12497V7.05406C83.6178 7.00679 83.5941 6.98316 83.5704 6.95952C83.5468 6.93588 83.4995 6.93588 83.4521 6.93588C83.4048 6.93588 83.3575 6.93588 83.3101 6.93588C83.2865 6.93588 83.2865 6.93588 83.2628 6.93588C83.2391 6.93588 83.2391 6.93588 83.2391 6.93588C83.2155 6.93588 83.2155 6.93588 83.2155 6.93588H83.1918C83.1681 6.91225 83.1445 6.88861 83.1445 6.86498C83.1445 6.84134 83.1445 6.79407 83.1681 6.7468C83.1681 6.72316 83.1681 6.69952 83.1681 6.69952C83.1681 6.67589 83.1918 6.67589 83.1918 6.65225C83.1918 6.62862 83.2155 6.62862 83.2391 6.62862C83.2628 6.62862 83.2628 6.60498 83.2865 6.60498H83.3101H83.3338H84.588C84.6117 6.60498 84.6354 6.60498 84.659 6.60498C84.7064 6.62862 84.73 6.62862 84.73 6.62862ZM87.2622 6.65225C87.2859 6.67589 87.2859 6.69952 87.2622 6.72316C87.2622 6.7468 87.2622 6.79407 87.2385 6.8177L86.9309 8.35404C86.9309 8.37768 86.9072 8.42495 86.9072 8.44859C86.9072 8.47223 86.8835 8.49586 86.8835 8.5195C86.8599 8.54313 86.8362 8.56677 86.7889 8.56677C86.7416 8.56677 86.6942 8.56677 86.6469 8.56677C86.6232 8.56677 86.5996 8.56677 86.5759 8.56677C86.5522 8.56677 86.5522 8.56677 86.5286 8.56677C86.5049 8.56677 86.4812 8.54313 86.4812 8.5195C86.4812 8.49586 86.4812 8.47223 86.4812 8.44859L86.5049 8.37768V8.35404C86.5049 8.33041 86.5049 8.33041 86.5049 8.30677L86.6232 7.71587C86.6232 7.6686 86.6469 7.64496 86.6469 7.59769C86.6469 7.55042 86.6706 7.52678 86.6706 7.50315C86.6706 7.47951 86.6706 7.47951 86.6706 7.45588C86.6706 7.43224 86.6706 7.43224 86.6469 7.43224C86.6469 7.43224 86.6469 7.43224 86.6232 7.43224L86.5996 7.45588C86.5759 7.50315 86.5286 7.52678 86.5049 7.57406C86.4812 7.62133 86.4576 7.6686 86.4339 7.71587C86.3866 7.81042 86.3156 7.90496 86.2683 8.02314C86.2209 8.11768 86.1499 8.21223 86.1026 8.30677C86.0789 8.35404 86.0553 8.40132 86.0316 8.44859C86.0079 8.49586 85.9606 8.54313 85.9369 8.56677C85.9133 8.59041 85.8896 8.5904 85.866 8.5904C85.8423 8.5904 85.8186 8.5904 85.795 8.5904H85.7003C85.6766 8.5904 85.6766 8.59041 85.653 8.56677C85.6293 8.56677 85.6293 8.54313 85.6293 8.54313C85.6293 8.54313 85.6056 8.5195 85.6056 8.49586C85.6056 8.47222 85.6056 8.47223 85.6056 8.44859C85.6056 8.42495 85.582 8.40132 85.582 8.35404C85.582 8.33041 85.582 8.28314 85.5583 8.2595C85.5346 8.16496 85.5346 8.07041 85.511 7.97587C85.4873 7.88132 85.4873 7.78678 85.4636 7.69224C85.4636 7.64496 85.44 7.57406 85.44 7.52678C85.44 7.47951 85.4163 7.43224 85.3927 7.38497C85.3927 7.38497 85.3927 7.38497 85.369 7.38497C85.3453 7.4086 85.3453 7.4086 85.3453 7.43224C85.3453 7.45588 85.3217 7.45588 85.3217 7.47951C85.3217 7.50315 85.3217 7.50315 85.3217 7.52678L85.298 7.59769C85.298 7.62133 85.298 7.62133 85.2743 7.64496C85.2507 7.6686 85.2743 7.6686 85.2743 7.6686L85.156 8.21223C85.156 8.2595 85.1323 8.30677 85.1323 8.35404C85.1323 8.40132 85.1087 8.44859 85.085 8.47222L85.0613 8.49586C85.0613 8.49586 85.0377 8.49586 85.0377 8.5195C85.014 8.5195 85.014 8.5195 84.9903 8.54313C84.9667 8.54313 84.943 8.54313 84.9194 8.54313C84.872 8.54313 84.8484 8.54313 84.801 8.54313C84.7537 8.54313 84.73 8.54313 84.7064 8.5195C84.6827 8.49586 84.6827 8.49586 84.6827 8.44859C84.6827 8.42495 84.6827 8.37768 84.7064 8.35404L85.014 6.79407C85.014 6.77043 85.0377 6.7468 85.0377 6.72316C85.0377 6.69952 85.0613 6.67589 85.0613 6.65225C85.085 6.62862 85.1087 6.60498 85.1323 6.60498H85.156H85.1797H85.4873C85.511 6.60498 85.5583 6.60498 85.582 6.60498C85.6056 6.60498 85.6293 6.60498 85.653 6.62862C85.6766 6.65225 85.7003 6.67589 85.7003 6.72316C85.7003 6.77043 85.724 6.79407 85.724 6.84134C85.7476 6.93588 85.7476 7.03043 85.7713 7.10134C85.795 7.19588 85.795 7.29042 85.8186 7.36133C85.8423 7.4086 85.8423 7.45588 85.8423 7.50315C85.8423 7.55042 85.866 7.59769 85.866 7.64496C85.866 7.6686 85.8659 7.69224 85.8896 7.71587C85.8896 7.73951 85.9133 7.73951 85.9369 7.76314C85.9606 7.76314 85.9606 7.76314 85.9843 7.76314C86.0079 7.73951 86.0079 7.73951 86.0079 7.73951C86.0316 7.71587 86.0553 7.6686 86.0789 7.62133C86.1026 7.57406 86.1263 7.55042 86.1499 7.50315C86.2209 7.4086 86.2683 7.29042 86.3393 7.19588C86.4103 7.0777 86.4576 6.98316 86.5286 6.86498C86.5522 6.8177 86.5759 6.77043 86.5996 6.72316C86.6232 6.67589 86.6706 6.62862 86.7179 6.62862C86.7416 6.62862 86.7652 6.62862 86.7889 6.62862C86.8126 6.62862 86.8362 6.62862 86.8599 6.62862H87.0729C87.0965 6.62862 87.1202 6.62862 87.1202 6.62862C87.1439 6.62862 87.1675 6.62862 87.1675 6.62862H87.1912C87.2149 6.62862 87.2149 6.62862 87.2385 6.65225C87.2385 6.62862 87.2622 6.62862 87.2622 6.65225Z" fill="white"/>
<path d="M45.2899 5.23483C45.1834 5.49527 45.1041 6.0596 45.0742 6.81381L45.9276 7.21326C45.9067 6.67389 45.9204 6.16611 45.9689 5.70431C45.9717 5.66977 45.9745 5.64961 45.9745 5.64961C45.974 5.66803 45.9694 5.68589 45.9689 5.70431C45.9537 5.85632 45.9237 6.33305 45.984 7.19242C46.3315 6.90212 46.8305 6.41116 47.2249 5.99181C46.7917 5.13553 46.2646 4.99157 46.2646 4.99157C46.2646 4.99157 45.5094 4.69841 45.2899 5.23483Z" fill="url(#paint0_linear_549_1411)"/>
<path d="M48.312 11.7036C48.273 11.7474 48.2322 11.7889 48.1914 11.8304C48.2126 11.8108 48.2345 11.7872 48.254 11.7652C48.2753 11.7456 48.2948 11.7237 48.312 11.7036Z" fill="#BE202E"/>
<path opacity="0.35" d="M48.312 11.7036C48.273 11.7474 48.2322 11.7889 48.1914 11.8304C48.2126 11.8108 48.2345 11.7872 48.254 11.7652C48.2753 11.7456 48.2948 11.7237 48.312 11.7036Z" fill="#BE202E"/>
<path d="M47.9939 11.0323C47.9916 11.034 47.9916 11.034 47.9939 11.0323C48.0008 11.0271 48.006 11.0196 48.0129 11.0144C48.0393 10.9873 48.0657 10.9602 48.0881 10.9326C48.0588 10.9654 48.0255 10.9977 47.9939 11.0323Z" fill="#BE202E"/>
<path opacity="0.35" d="M47.9939 11.0323C47.9916 11.034 47.9916 11.034 47.9939 11.0323C48.0008 11.0271 48.006 11.0196 48.0129 11.0144C48.0393 10.9873 48.0657 10.9602 48.0881 10.9326C48.0588 10.9654 48.0255 10.9977 47.9939 11.0323Z" fill="#BE202E"/>
<path d="M46.1826 9.71095C46.1398 9.42954 46.1005 9.15273 46.0647 8.88052C46.0283 8.59795 45.9994 8.32055 45.9762 8.04601C45.9745 8.02932 45.9727 8.01263 45.9727 7.99824C45.9507 7.73003 45.9339 7.46871 45.9246 7.21257L45.073 6.81543C45.072 6.86667 45.0686 6.91963 45.0671 6.9749C45.0612 7.17754 45.0577 7.39284 45.0588 7.61908C45.06 7.87409 45.0659 8.14003 45.074 8.41863C45.0833 8.67478 45.0972 8.94185 45.1146 9.21353C45.1313 9.44606 45.1497 9.68088 45.1716 9.92031C45.1722 9.93067 45.1734 9.937 45.174 9.94736L46.3136 10.5062C46.2709 10.2392 46.2259 9.97393 46.1826 9.71095Z" fill="url(#paint1_linear_549_1411)"/>
<path d="M47.9389 16.3785C48.004 16.5891 48.0702 16.806 48.1422 17.0257C48.144 17.028 48.1434 17.0321 48.1452 17.0344C48.155 17.0666 48.1632 17.0965 48.1753 17.127C48.2224 17.2754 48.2677 17.4071 48.3652 17.7086C48.5478 17.6685 48.7774 17.748 49.0175 17.8557C48.862 17.6736 48.6484 17.5531 48.3948 17.5278C49.0824 17.0571 49.531 16.4563 49.4578 15.7472C49.4502 15.6845 49.4408 15.6195 49.4274 15.5539C49.42 15.8262 49.3098 16.0245 48.9807 16.2433L48.9784 16.2451L48.9807 16.2433C49.2871 15.6883 49.3686 15.3134 49.3254 14.8305C49.3147 14.7159 49.2988 14.5945 49.276 14.4639C49.185 15.1848 48.804 15.6554 48.2416 15.9381L47.9023 16.2583C47.9151 16.2991 47.9262 16.3377 47.9389 16.3785Z" fill="url(#paint2_linear_549_1411)"/>
<path d="M47.4852 15.4185C47.4096 15.1509 47.3346 14.8794 47.2579 14.6055C47.1858 14.3426 47.116 14.078 47.0467 13.8093C46.9775 13.5406 46.9106 13.2702 46.8436 12.9998C46.7755 12.7231 46.7114 12.4469 46.6497 12.169C46.5873 11.8951 46.5296 11.6178 46.4713 11.3445C46.4503 11.2449 46.4311 11.1477 46.4124 11.0464C46.3785 10.8772 46.347 10.7063 46.3155 10.5354C46.3126 10.5268 46.312 10.5164 46.3091 10.5078L45.1758 9.94775C45.1776 9.96444 45.1811 9.98343 45.1805 10.0019C45.2065 10.2563 45.2319 10.5147 45.2654 10.7742C45.2983 11.0378 45.3353 11.3019 45.378 11.569C45.4143 11.794 45.4529 12.0172 45.4932 12.2428C45.5014 12.2871 45.5113 12.3337 45.5195 12.378C45.5749 12.6571 45.6337 12.9264 45.6972 13.1778C45.7682 13.4632 45.8438 13.7307 45.9199 13.9798C45.971 14.1431 46.0209 14.3002 46.072 14.4492C46.1161 14.5746 46.1642 14.7005 46.2107 14.8242C46.322 15.1152 46.4449 15.3976 46.577 15.6731L47.7223 16.2348C47.659 16.0265 47.6003 15.8148 47.5358 15.6002C47.5195 15.5404 47.5032 15.4806 47.4852 15.4185Z" fill="url(#paint3_linear_549_1411)"/>
<path d="M46.5937 15.7105C46.7548 16.0434 46.9319 16.3642 47.1297 16.6695C47.1367 16.6787 47.143 16.6919 47.15 16.7011C46.8339 16.5786 46.2773 16.6442 46.2813 16.6448C46.8593 16.837 47.367 17.0748 47.69 17.4408C47.5653 17.5815 47.3299 17.6902 47.0333 17.7801C47.4455 17.8195 47.6741 17.7448 47.7575 17.7072C47.5448 17.889 47.4286 18.2179 47.3274 18.5715C47.5645 18.1733 47.8013 17.9086 48.0338 17.8056C48.3898 18.9325 48.817 20.1537 49.2892 21.4346C49.365 21.3343 49.3723 21.2243 49.3386 21.1127C49.2516 20.8827 48.69 19.359 48.0447 17.2892C48.0261 17.2311 48.0098 17.1713 47.9895 17.1109C47.9837 17.0937 47.9796 17.0787 47.9738 17.0614C47.9076 16.8446 47.8402 16.6214 47.7716 16.3918C47.7565 16.3383 47.7408 16.2889 47.7257 16.2354L47.724 16.2331L46.5787 15.6714C46.5827 15.6863 46.5874 15.6972 46.5937 15.7105Z" fill="url(#paint4_linear_549_1411)"/>
<path d="M46.4434 10.5287C46.4505 10.5667 46.458 10.6007 46.465 10.6386C46.4884 10.7508 46.5094 10.8648 46.5345 10.9793C46.5601 11.1041 46.5875 11.2313 46.6143 11.3625C46.6278 11.4281 46.6412 11.4937 46.6563 11.5616C46.7 11.763 46.7472 11.969 46.7956 12.1813C46.8556 12.4425 46.9208 12.7106 46.9906 12.9897C47.0564 13.2538 47.1268 13.5288 47.2007 13.8084C47.2722 14.0754 47.3449 14.3487 47.4246 14.6312C47.4943 14.8814 47.5693 15.1386 47.6455 15.4021C47.6478 15.4147 47.6542 15.428 47.6565 15.4406C47.7332 15.7001 47.8128 15.9682 47.8959 16.2409C47.8971 16.2472 47.8983 16.2535 47.9017 16.2581L48.241 15.9379C48.2323 15.9408 48.2254 15.946 48.2145 15.9506C48.617 15.5612 48.9563 14.7868 49.0272 14.0918C49.0599 13.7717 49.0521 13.4315 49.0034 13.0609C48.9681 12.7846 48.9081 12.4946 48.8266 12.181C48.7556 11.9101 48.6685 11.6224 48.5629 11.3198C48.5015 11.4489 48.4136 11.5763 48.3056 11.7009C48.286 11.7228 48.2665 11.7447 48.247 11.7666C48.2274 11.7886 48.2061 11.8082 48.1843 11.8318C48.4788 11.3615 48.5081 10.86 48.4124 10.3409C48.3597 10.4959 48.2554 10.7258 48.0801 10.9334C48.0577 10.9611 48.0312 10.9882 48.0048 11.0153C47.9979 11.0205 47.9927 11.028 47.9835 11.0349C48.0811 10.8678 48.1527 10.7093 48.1979 10.5492C48.2088 10.5158 48.2156 10.4818 48.2224 10.4478C48.2338 10.396 48.2412 10.3436 48.2486 10.2912C48.2514 10.2567 48.2559 10.2244 48.2587 10.1899C48.2637 10.1104 48.2629 10.0281 48.254 9.94469C48.2517 9.91764 48.251 9.89289 48.2464 9.86757C48.2394 9.82959 48.2341 9.79391 48.2265 9.75996C48.1973 9.60171 48.1653 9.46362 48.1327 9.34395C48.1164 9.28412 48.1013 9.23061 48.0856 9.18114C48.0781 9.16158 48.0746 9.14259 48.067 9.12303C48.0479 9.06896 48.0322 9.01949 48.0154 8.97808C47.991 8.91711 47.969 8.8688 47.9511 8.83545C47.9459 8.85733 47.9385 8.88095 47.927 8.904C47.8583 9.07109 47.6963 9.30112 47.548 9.46319L47.8608 9.1701L47.548 9.46319C47.5457 9.46493 47.5434 9.46666 47.5428 9.47069C47.5285 9.48511 47.5118 9.50127 47.4969 9.51972C47.4974 9.51569 47.502 9.51222 47.5026 9.50819L46.4336 10.5109C46.4428 10.5184 46.444 10.5247 46.4434 10.5287Z" fill="url(#paint5_linear_549_1411)"/>
<path d="M45.9844 7.19219C46.0005 7.42876 46.0248 7.69525 46.0555 7.98936C46.0572 8.00605 46.0573 8.02044 46.0613 8.0354C46.0891 8.29209 46.1243 8.56835 46.1683 8.87049C46.2058 9.13062 46.2474 9.4057 46.2983 9.70265C46.3404 9.95931 46.3912 10.2275 46.4437 10.5123L47.5127 9.50954C47.7331 9.09862 47.7791 8.84407 47.772 8.52861C47.7695 8.44399 47.7635 8.35477 47.7558 8.26325C47.735 7.98697 47.6979 7.69403 47.6471 7.41148C47.5992 7.13755 47.5415 6.87459 47.4764 6.64963C47.4351 6.50407 47.3916 6.37464 47.3475 6.26362C47.3075 6.16757 47.2664 6.07957 47.2247 5.99561C46.8309 6.41093 46.3318 6.90189 45.9844 7.19219Z" fill="url(#paint6_linear_549_1411)"/>
<path d="M48.2579 11.7676C48.2384 11.7895 48.2171 11.8091 48.1953 11.8327C48.2148 11.8108 48.2344 11.7889 48.2579 11.7676Z" fill="#BE202E"/>
<path opacity="0.35" d="M48.2579 11.7676C48.2384 11.7895 48.2171 11.8091 48.1953 11.8327C48.2148 11.8108 48.2344 11.7889 48.2579 11.7676Z" fill="#BE202E"/>
<path d="M48.2579 11.7676C48.2384 11.7895 48.2171 11.8091 48.1953 11.8327C48.2148 11.8108 48.2344 11.7889 48.2579 11.7676Z" fill="url(#paint7_linear_549_1411)"/>
<path d="M47.9883 11.0338C47.9952 11.0286 48.0004 11.0211 48.0096 11.0142C48.0027 11.0194 47.9975 11.0269 47.9883 11.0338Z" fill="#BE202E"/>
<path opacity="0.35" d="M47.9883 11.0338C47.9952 11.0286 48.0004 11.0211 48.0096 11.0142C48.0027 11.0194 47.9975 11.0269 47.9883 11.0338Z" fill="#BE202E"/>
<path d="M47.9883 11.0338C47.9952 11.0286 48.0004 11.0211 48.0096 11.0142C48.0027 11.0194 47.9975 11.0269 47.9883 11.0338Z" fill="url(#paint8_linear_549_1411)"/>
<path d="M56.6331 5.17454C56.335 5.29743 55.811 5.68702 55.1719 6.26961L55.5327 7.28506C55.9557 6.83405 56.3809 6.43664 56.7965 6.10445C56.8269 6.07893 56.8456 6.06501 56.8456 6.06501C56.8301 6.07941 56.8119 6.09006 56.7965 6.10445C56.6603 6.21441 56.2474 6.57365 55.5951 7.31419C56.1113 7.36313 56.9132 7.37395 57.5724 7.35723C57.9222 6.31592 57.6156 5.77139 57.6156 5.77139C57.6156 5.77139 57.2471 4.92136 56.6331 5.17454Z" fill="url(#paint9_linear_549_1411)"/>
<path d="M53.7902 12.8374C53.723 12.8409 53.6564 12.8411 53.5898 12.8413C53.6228 12.8428 53.6597 12.8416 53.6932 12.8398C53.7263 12.8413 53.7599 12.8396 53.7902 12.8374Z" fill="#BE202E"/>
<path opacity="0.35" d="M53.7902 12.8374C53.723 12.8409 53.6564 12.8411 53.5898 12.8413C53.6228 12.8428 53.6597 12.8416 53.6932 12.8398C53.7263 12.8413 53.7599 12.8396 53.7902 12.8374Z" fill="#BE202E"/>
<path d="M54.0805 12.0373C54.0773 12.0369 54.0773 12.0369 54.0805 12.0373C54.0903 12.0388 54.1006 12.037 54.1104 12.0384C54.1537 12.0381 54.197 12.0378 54.2376 12.0337C54.1873 12.0363 54.1341 12.0352 54.0805 12.0373Z" fill="#BE202E"/>
<path opacity="0.35" d="M54.0805 12.0373C54.0773 12.0369 54.0773 12.0369 54.0805 12.0373C54.0903 12.0388 54.1006 12.037 54.1104 12.0384C54.1537 12.0381 54.197 12.0378 54.2376 12.0337C54.1873 12.0363 54.1341 12.0352 54.0805 12.0373Z" fill="#BE202E"/>
<path d="M53.6995 9.50073C53.8946 9.23953 54.0887 8.98485 54.2819 8.73669C54.483 8.4797 54.686 8.23298 54.8912 7.99325C54.9034 7.97838 54.9156 7.96351 54.9273 7.9519C55.1283 7.71822 55.328 7.49432 55.5294 7.28067L55.1681 6.26855C55.1255 6.30894 55.0797 6.34886 55.0333 6.39204C54.8634 6.55034 54.685 6.72072 54.5014 6.90367C54.2944 7.10984 54.0822 7.32856 53.8616 7.55938C53.6601 7.77302 53.4535 7.99923 53.246 8.23196C53.0698 8.43264 52.8931 8.63659 52.7155 8.84706C52.7075 8.85588 52.7033 8.86193 52.6953 8.87075L53.1563 10.2472C53.3397 9.99761 53.5198 9.74754 53.6995 9.50073Z" fill="url(#paint10_linear_549_1411)"/>
<path d="M49.6754 16.2945C49.556 16.5169 49.4324 16.7452 49.3111 16.9806C49.3106 16.9839 49.3069 16.9867 49.3064 16.9899C49.2881 17.0239 49.2702 17.0546 49.2552 17.089C49.172 17.2467 49.1009 17.3895 48.9336 17.7114C49.1132 17.8277 49.233 18.0784 49.3383 18.3602C49.3618 18.0872 49.2882 17.8166 49.1048 17.5899C50.0418 17.7704 50.8927 17.6519 51.4121 17.0218C51.4571 16.9651 51.5026 16.9051 51.5453 16.8414C51.3173 17.0545 51.0669 17.1245 50.6236 17.0329L50.6204 17.0324L50.6236 17.0329C51.3228 16.8355 51.6941 16.6001 52.0532 16.1763C52.138 16.0755 52.2243 15.9649 52.3125 15.8413C51.6513 16.3473 50.961 16.4161 50.2781 16.1862L49.744 16.168C49.7209 16.2112 49.6984 16.2512 49.6754 16.2945Z" fill="url(#paint11_linear_549_1411)"/>
<path d="M50.0945 15.154C50.2519 14.8773 50.413 14.5978 50.5746 14.315C50.731 14.0449 50.8906 13.7751 51.054 13.5027C51.2174 13.2302 51.3841 12.9581 51.5507 12.6861C51.7216 12.4081 51.8953 12.1337 52.0722 11.8599C52.2454 11.5888 52.4251 11.3187 52.6011 11.0514C52.6654 10.9543 52.7292 10.8603 52.7968 10.7637C52.9075 10.6 53.0215 10.4369 53.1355 10.2737C53.1402 10.2644 53.1481 10.2556 53.1529 10.2463L52.6979 8.87402C52.6857 8.88889 52.6731 8.90702 52.6576 8.92141C52.4711 9.14722 52.2808 9.37581 52.0961 9.61188C51.9076 9.85073 51.722 10.0934 51.5386 10.343C51.3843 10.5535 51.2332 10.7645 51.0816 10.9788C51.0521 11.0211 51.0221 11.0667 50.9925 11.109C50.8095 11.3786 50.6374 11.6431 50.4834 11.897C50.3078 12.1844 50.1505 12.4611 50.0085 12.7234C49.9164 12.8964 49.8285 13.0634 49.7481 13.2248C49.6813 13.3616 49.6174 13.5021 49.5539 13.6394C49.4061 13.9641 49.2747 14.2912 49.1562 14.6203L49.6196 16.0037C49.7385 15.7846 49.8638 15.5665 49.9869 15.3414C50.0226 15.28 50.0584 15.2187 50.0945 15.154Z" fill="url(#paint12_linear_549_1411)"/>
<path d="M49.1399 14.6633C48.998 15.0621 48.8788 15.4643 48.7891 15.8708C48.7872 15.8839 48.7815 15.8997 48.7796 15.9128C48.6252 15.5571 48.124 15.1573 48.1268 15.1611C48.4349 15.7857 48.6494 16.3899 48.6108 16.9471C48.3958 16.9589 48.1178 16.855 47.8059 16.6861C48.1053 17.053 48.3501 17.1787 48.4479 17.2164C48.1286 17.1896 47.7669 17.3598 47.3972 17.5621C47.9126 17.4344 48.3189 17.414 48.5899 17.5203C47.9574 18.7165 47.3052 20.0465 46.6406 21.4612C46.7834 21.4422 46.8789 21.3595 46.9428 21.2423C47.0604 20.9865 47.8511 19.3038 49.0197 17.1136C49.0521 17.0517 49.0878 16.9903 49.1207 16.9252C49.1301 16.9066 49.139 16.8913 49.1484 16.8727C49.272 16.6443 49.3998 16.4099 49.5318 16.1695C49.5633 16.1141 49.591 16.0616 49.6225 16.0062L49.6229 16.003L49.1597 14.6196C49.1508 14.6349 49.1456 14.6475 49.1399 14.6633Z" fill="url(#paint13_linear_549_1411)"/>
<path d="M53.2454 10.3727C53.2201 10.409 53.1985 10.4425 53.1731 10.4787C53.1004 10.588 53.0244 10.6968 52.9512 10.8093C52.87 10.9306 52.7883 11.0552 52.7029 11.1826C52.6602 11.2463 52.6175 11.31 52.5743 11.3769C52.4453 11.5745 52.3152 11.7787 52.181 11.9888C52.0162 12.2478 51.85 12.5166 51.6786 12.7979C51.5162 13.0639 51.3485 13.3425 51.1799 13.6275C51.0198 13.9005 50.8554 14.1795 50.6891 14.4716C50.5411 14.7297 50.3917 14.9976 50.2381 15.2716C50.2297 15.2837 50.224 15.2995 50.2156 15.3116C50.0657 15.5827 49.9111 15.8632 49.7555 16.1502C49.7513 16.1562 49.7471 16.1623 49.7461 16.1688L50.2802 16.187C50.2709 16.1823 50.2611 16.1809 50.2485 16.1757C50.8899 16.1897 51.7944 15.8425 52.4182 15.341C52.7055 15.1099 52.9767 14.8299 53.2398 14.492C53.4367 14.2411 53.6249 13.9589 53.8151 13.6403C53.979 13.3646 54.1434 13.0622 54.3052 12.7329C54.1506 12.7868 53.976 12.8179 53.7875 12.8303C53.7539 12.832 53.7203 12.8337 53.6867 12.8355C53.6531 12.8372 53.62 12.8357 53.5832 12.837C54.2037 12.698 54.6362 12.3184 54.9824 11.8228C54.8137 11.9047 54.5423 12.0048 54.232 12.0293C54.1914 12.0334 54.148 12.0337 54.1046 12.034C54.0948 12.0326 54.0845 12.0344 54.0715 12.0325C54.2863 11.9773 54.4732 11.9081 54.6401 11.816C54.6761 11.7979 54.7093 11.7762 54.7425 11.7544C54.7939 11.7219 54.8426 11.6858 54.8912 11.6496C54.9217 11.6241 54.9516 11.6018 54.982 11.5763C55.0508 11.5164 55.1173 11.4495 55.1783 11.3752C55.1984 11.3515 55.2181 11.3311 55.235 11.3069C55.2603 11.2706 55.2852 11.2376 55.3068 11.2042C55.4123 11.0531 55.4992 10.9159 55.5706 10.7931C55.6063 10.7317 55.6377 10.6764 55.6655 10.6238C55.6754 10.602 55.688 10.5838 55.6979 10.562C55.7266 10.5029 55.7543 10.4503 55.7746 10.4033C55.8047 10.3345 55.8264 10.2777 55.8391 10.2363C55.8172 10.2497 55.7919 10.2626 55.7639 10.2719C55.5723 10.3504 55.2544 10.4038 55.003 10.4136L55.4936 10.4321L55.003 10.4136C54.9997 10.4131 54.9964 10.4126 54.9927 10.4154C54.9694 10.4153 54.9428 10.4148 54.9157 10.4175C54.9195 10.4147 54.926 10.4156 54.9297 10.4129L53.252 10.3504C53.2534 10.3639 53.2491 10.37 53.2454 10.3727Z" fill="url(#paint14_linear_549_1411)"/>
<path d="M55.5959 7.31348C55.416 7.51696 55.2182 7.75114 55.003 8.01275C54.9908 8.02762 54.9791 8.03923 54.9702 8.05458C54.7831 8.28367 54.5862 8.53462 54.3752 8.81349C54.1932 9.05332 54.0023 9.3085 53.8011 9.5888C53.6257 9.82958 53.4478 10.0867 53.2578 10.3586L54.9356 10.4211C55.448 10.2696 55.6926 10.1022 55.9442 9.84264C56.0111 9.7725 56.0791 9.69585 56.1475 9.61594C56.3561 9.37667 56.5652 9.11084 56.7547 8.84215C56.9396 8.58276 57.1076 8.32424 57.2387 8.09029C57.3242 7.93959 57.3947 7.80003 57.4498 7.67486C57.4959 7.56504 57.5346 7.46078 57.5695 7.35931C56.914 7.37325 56.1121 7.36242 55.5959 7.31348Z" fill="url(#paint15_linear_549_1411)"/>
<path d="M53.6933 12.8431C53.6597 12.8449 53.6266 12.8434 53.5898 12.8446C53.6234 12.8429 53.6569 12.8412 53.6933 12.8431Z" fill="#BE202E"/>
<path opacity="0.35" d="M53.6933 12.8431C53.6597 12.8449 53.6266 12.8434 53.5898 12.8446C53.6234 12.8429 53.6569 12.8412 53.6933 12.8431Z" fill="#BE202E"/>
<path d="M53.6933 12.8431C53.6597 12.8449 53.6266 12.8434 53.5898 12.8446C53.6234 12.8429 53.6569 12.8412 53.6933 12.8431Z" fill="url(#paint16_linear_549_1411)"/>
<path d="M54.0781 12.0371C54.0879 12.0385 54.0982 12.0367 54.1112 12.0386C54.1014 12.0372 54.0912 12.039 54.0781 12.0371Z" fill="#BE202E"/>
<path opacity="0.35" d="M54.0781 12.0371C54.0879 12.0385 54.0982 12.0367 54.1112 12.0386C54.1014 12.0372 54.0912 12.039 54.0781 12.0371Z" fill="#BE202E"/>
<path d="M54.0781 12.0371C54.0879 12.0385 54.0982 12.0367 54.1112 12.0386C54.1014 12.0372 54.0912 12.039 54.0781 12.0371Z" fill="url(#paint17_linear_549_1411)"/>
<defs>
<linearGradient id="paint0_linear_549_1411" x1="45.4351" y1="6.66795" x2="47.4719" y2="4.00703" gradientUnits="userSpaceOnUse">
<stop stop-color="#F69923"/>
<stop offset="0.3123" stop-color="#F79A23"/>
<stop offset="0.8383" stop-color="#E97826"/>
</linearGradient>
<linearGradient id="paint1_linear_549_1411" x1="48.5179" y1="22.4881" x2="45.2937" y2="7.29137" gradientUnits="userSpaceOnUse">
<stop offset="0.3233" stop-color="#9E2064"/>
<stop offset="0.6302" stop-color="#C92037"/>
<stop offset="0.7514" stop-color="#CD2335"/>
<stop offset="1" stop-color="#E97826"/>
</linearGradient>
<linearGradient id="paint2_linear_549_1411" x1="49.6509" y1="20.3305" x2="47.7295" y2="11.2743" gradientUnits="userSpaceOnUse">
<stop stop-color="#282662"/>
<stop offset="0.0954839" stop-color="#662E8D"/>
<stop offset="0.7882" stop-color="#9F2064"/>
<stop offset="0.9487" stop-color="#CD2032"/>
</linearGradient>
<linearGradient id="paint3_linear_549_1411" x1="48.1921" y1="21.6645" x2="44.9679" y2="6.46795" gradientUnits="userSpaceOnUse">
<stop offset="0.3233" stop-color="#9E2064"/>
<stop offset="0.6302" stop-color="#C92037"/>
<stop offset="0.7514" stop-color="#CD2335"/>
<stop offset="1" stop-color="#E97826"/>
</linearGradient>
<linearGradient id="paint4_linear_549_1411" x1="48.1613" y1="20.5126" x2="46.4669" y2="12.5266" gradientUnits="userSpaceOnUse">
<stop stop-color="#282662"/>
<stop offset="0.0954839" stop-color="#662E8D"/>
<stop offset="0.7882" stop-color="#9F2064"/>
<stop offset="0.9487" stop-color="#CD2032"/>
</linearGradient>
<linearGradient id="paint5_linear_549_1411" x1="49.766" y1="21.3308" x2="46.5417" y2="6.13375" gradientUnits="userSpaceOnUse">
<stop offset="0.3233" stop-color="#9E2064"/>
<stop offset="0.6302" stop-color="#C92037"/>
<stop offset="0.7514" stop-color="#CD2335"/>
<stop offset="1" stop-color="#E97826"/>
</linearGradient>
<linearGradient id="paint6_linear_549_1411" x1="49.8907" y1="22.2905" x2="46.6664" y2="7.09305" gradientUnits="userSpaceOnUse">
<stop offset="0.3233" stop-color="#9E2064"/>
<stop offset="0.6302" stop-color="#C92037"/>
<stop offset="0.7514" stop-color="#CD2335"/>
<stop offset="1" stop-color="#E97826"/>
</linearGradient>
<linearGradient id="paint7_linear_549_1411" x1="50.2362" y1="21.2258" x2="47.0141" y2="6.03726" gradientUnits="userSpaceOnUse">
<stop offset="0.3233" stop-color="#9E2064"/>
<stop offset="0.6302" stop-color="#C92037"/>
<stop offset="0.7514" stop-color="#CD2335"/>
<stop offset="1" stop-color="#E97826"/>
</linearGradient>
<linearGradient id="paint8_linear_549_1411" x1="50.1763" y1="21.2357" x2="46.9524" y2="6.04992" gradientUnits="userSpaceOnUse">
<stop offset="0.3233" stop-color="#9E2064"/>
<stop offset="0.6302" stop-color="#C92037"/>
<stop offset="0.7514" stop-color="#CD2335"/>
<stop offset="1" stop-color="#E97826"/>
</linearGradient>
<linearGradient id="paint9_linear_549_1411" x1="55.5812" y1="6.44575" x2="59.3903" y2="5.96537" gradientUnits="userSpaceOnUse">
<stop stop-color="#F69923"/>
<stop offset="0.3123" stop-color="#F79A23"/>
<stop offset="0.8383" stop-color="#E97826"/>
</linearGradient>
<linearGradient id="paint10_linear_549_1411" x1="45.1584" y1="21.6809" x2="54.9311" y2="6.81358" gradientUnits="userSpaceOnUse">
<stop offset="0.3233" stop-color="#9E2064"/>
<stop offset="0.6302" stop-color="#C92037"/>
<stop offset="0.7514" stop-color="#CD2335"/>
<stop offset="1" stop-color="#E97826"/>
</linearGradient>
<linearGradient id="paint11_linear_549_1411" x1="47.8297" y1="20.8667" x2="53.6535" y2="12.0065" gradientUnits="userSpaceOnUse">
<stop stop-color="#282662"/>
<stop offset="0.0954839" stop-color="#662E8D"/>
<stop offset="0.7882" stop-color="#9F2064"/>
<stop offset="0.9487" stop-color="#CD2032"/>
</linearGradient>
<linearGradient id="paint12_linear_549_1411" x1="45.5698" y1="20.7547" x2="55.3423" y2="5.88798" gradientUnits="userSpaceOnUse">
<stop offset="0.3233" stop-color="#9E2064"/>
<stop offset="0.6302" stop-color="#C92037"/>
<stop offset="0.7514" stop-color="#CD2335"/>
<stop offset="1" stop-color="#E97826"/>
</linearGradient>
<linearGradient id="paint13_linear_549_1411" x1="46.4852" y1="19.802" x2="51.621" y2="11.9897" gradientUnits="userSpaceOnUse">
<stop stop-color="#282662"/>
<stop offset="0.0954839" stop-color="#662E8D"/>
<stop offset="0.7882" stop-color="#9F2064"/>
<stop offset="0.9487" stop-color="#CD2032"/>
</linearGradient>
<linearGradient id="paint14_linear_549_1411" x1="47.1091" y1="21.7665" x2="56.8819" y2="6.89871" gradientUnits="userSpaceOnUse">
<stop offset="0.3233" stop-color="#9E2064"/>
<stop offset="0.6302" stop-color="#C92037"/>
<stop offset="0.7514" stop-color="#CD2335"/>
<stop offset="1" stop-color="#E97826"/>
</linearGradient>
<linearGradient id="paint15_linear_549_1411" x1="46.4254" y1="22.6392" x2="56.1986" y2="7.77071" gradientUnits="userSpaceOnUse">
<stop offset="0.3233" stop-color="#9E2064"/>
<stop offset="0.6302" stop-color="#C92037"/>
<stop offset="0.7514" stop-color="#CD2335"/>
<stop offset="1" stop-color="#E97826"/>
</linearGradient>
<linearGradient id="paint16_linear_549_1411" x1="47.573" y1="22.0639" x2="57.3436" y2="7.20595" gradientUnits="userSpaceOnUse">
<stop offset="0.3233" stop-color="#9E2064"/>
<stop offset="0.6302" stop-color="#C92037"/>
<stop offset="0.7514" stop-color="#CD2335"/>
<stop offset="1" stop-color="#E97826"/>
</linearGradient>
<linearGradient id="paint17_linear_549_1411" x1="47.5225" y1="22.034" x2="57.3006" y2="7.17594" gradientUnits="userSpaceOnUse">
<stop offset="0.3233" stop-color="#9E2064"/>
<stop offset="0.6302" stop-color="#C92037"/>
<stop offset="0.7514" stop-color="#CD2335"/>
<stop offset="1" stop-color="#E97826"/>
</linearGradient>
</defs>
</svg>
