<svg width="95" height="24" viewBox="0 0 95 24" fill="none" xmlns="http://www.w3.org/2000/svg">
<path d="M12.9284 2.30322H16.0285C16.2888 2.30322 16.5255 2.30322 16.7858 2.30322C17.0461 2.30322 17.2354 2.35049 17.3537 2.46867C17.4484 2.53958 17.4957 2.65776 17.5194 2.82321C17.5431 2.96503 17.5667 3.10685 17.5904 3.24866C17.6141 3.50866 17.6614 3.76865 17.685 4.02865C17.7324 4.28865 17.7797 4.54864 17.8034 4.80864C17.969 5.80135 18.111 6.8177 18.2293 7.83405C18.3477 8.8504 18.5133 9.86674 18.679 10.8831C18.75 11.1904 18.7973 11.5213 18.821 11.8522C18.8446 12.1831 18.892 12.514 18.963 12.8212C18.9866 12.8922 18.9866 12.9867 19.0103 13.0576C19.0339 13.1285 19.0576 13.1994 19.1286 13.2467C19.1523 13.2703 19.1759 13.2703 19.1996 13.294C19.2233 13.3176 19.2706 13.294 19.3179 13.2703C19.4363 13.2467 19.5546 13.1521 19.6256 12.9867C19.6966 12.8212 19.7912 12.6794 19.8622 12.5612C20.0515 12.2067 20.2409 11.8522 20.4065 11.4976C20.5722 11.1431 20.7615 10.7649 20.9745 10.4104C21.4714 9.4413 21.9921 8.49586 22.489 7.52678C23.0097 6.5577 23.5303 5.56499 24.0273 4.59592C24.1456 4.33592 24.2876 4.09956 24.4059 3.8632C24.5479 3.6032 24.6899 3.36684 24.8082 3.10685C24.8792 2.98867 24.9502 2.84685 25.0212 2.72867C25.0922 2.61049 25.2105 2.49231 25.3525 2.4214C25.4708 2.35049 25.5891 2.30322 25.7311 2.30322C25.8968 2.30322 26.0388 2.30322 26.2044 2.30322H27.7427H29.3755C29.5175 2.30322 29.6595 2.30322 29.8015 2.30322C29.9672 2.30322 30.0618 2.32686 30.1328 2.39777C30.2985 2.49231 30.3458 2.6814 30.2748 2.94139C30.2275 3.20139 30.1802 3.46139 30.1328 3.72138L29.4229 7.26678L27.648 16.0594L27.2457 18.1157C27.222 18.2812 27.1747 18.4703 27.1274 18.6357C27.08 18.8012 27.009 18.9193 26.8907 18.9902C26.7724 19.0612 26.6541 19.1084 26.5121 19.1321C26.3701 19.1321 26.2044 19.1321 26.0388 19.1321H24.9029H24.2639C24.1456 19.1084 24.0509 19.0848 23.9563 19.0612C23.8853 19.0375 23.8143 18.9902 23.7669 18.8957C23.7196 18.8248 23.6959 18.7066 23.7196 18.5884C23.7433 18.4702 23.7906 18.3284 23.8143 18.1866L24.0509 16.9812L25.2815 10.9067C25.3052 10.694 25.3525 10.4813 25.3762 10.2922C25.4235 10.0795 25.4708 9.89038 25.4945 9.67766C25.5182 9.55948 25.5655 9.41766 25.5891 9.29948C25.6128 9.15766 25.6365 9.01585 25.6365 8.89767C25.6128 8.77949 25.6128 8.66131 25.6365 8.54313C25.6601 8.42495 25.6365 8.3304 25.5655 8.30677C25.5182 8.28313 25.4708 8.30677 25.4472 8.3304C25.4235 8.35404 25.3998 8.37768 25.3762 8.40131C25.3052 8.47222 25.2342 8.54313 25.1632 8.63767C25.1158 8.70858 25.0685 8.80312 25.0212 8.87403C24.8792 9.11039 24.7372 9.34675 24.5952 9.60675C24.4769 9.86674 24.3349 10.1031 24.1692 10.3631C24.1219 10.4576 24.0746 10.5522 24.0273 10.6467C24.0036 10.7413 23.9563 10.8358 23.8853 10.9304C23.7669 11.1431 23.6486 11.3322 23.5303 11.5449C23.4356 11.7576 23.3173 11.9467 23.199 12.1594C23.1753 12.2067 23.1517 12.254 23.128 12.3249C23.1043 12.3722 23.0807 12.4194 23.057 12.4667C22.9623 12.6085 22.8677 12.7503 22.7967 12.9158C22.7257 13.0812 22.6547 13.2231 22.5364 13.3885C22.4417 13.5303 22.347 13.6721 22.2761 13.8376C22.2051 14.003 22.1341 14.1449 22.0394 14.3103C21.7554 14.7594 21.4951 15.2321 21.2585 15.7048C21.0218 16.1539 20.7852 16.6266 20.5248 17.0757C20.4775 17.123 20.4538 17.1703 20.4302 17.2175C20.4302 17.2648 20.4065 17.3121 20.3592 17.3594C20.2409 17.5248 20.1462 17.7139 20.0515 17.903C19.9805 18.0684 19.8859 18.2575 19.7676 18.423C19.6966 18.5412 19.6492 18.6357 19.5782 18.7302C19.5072 18.8248 19.4363 18.8957 19.3653 18.9666C19.2706 19.0375 19.1759 19.0611 19.1049 19.0848C19.0339 19.0848 18.9156 19.1084 18.7973 19.1321H18.253C18.1347 19.1321 18.0164 19.1321 17.8507 19.1557C17.7087 19.1557 17.5667 19.1557 17.4011 19.1557C17.2591 19.1557 17.1171 19.1557 16.9988 19.1321C16.8804 19.1084 16.7858 19.0848 16.7384 19.0375C16.6201 18.9666 16.5491 18.8721 16.5255 18.7775C16.5018 18.6593 16.4781 18.5412 16.4308 18.3993C16.4071 18.2103 16.3835 18.0212 16.3598 17.8321C16.3361 17.6194 16.3125 17.4303 16.2651 17.2412L16.2415 17.0285C16.1942 16.8394 16.1705 16.6503 16.1468 16.4376C16.1232 16.2248 16.0995 16.0121 16.0522 15.823C16.0522 15.7757 16.0522 15.7285 16.0522 15.7048C16.0522 15.6576 16.0522 15.6103 16.0285 15.563C15.9812 15.4212 15.9575 15.2794 15.9338 15.1139C15.9102 14.9485 15.8865 14.8067 15.8628 14.6412C15.8628 14.6176 15.8628 14.5703 15.8628 14.523C15.8628 14.4758 15.8628 14.4285 15.8392 14.4049C15.8155 14.2394 15.7918 14.0976 15.7682 13.9321C15.7682 13.7667 15.7445 13.6249 15.6972 13.4594C15.6262 13.1521 15.5789 12.8212 15.5315 12.4667C15.5079 12.1122 15.4605 11.7813 15.3895 11.4504C15.3185 11.0485 15.2712 10.6467 15.2239 10.2449C15.2002 9.84311 15.1292 9.4413 15.0109 9.06312C14.9872 8.8504 14.9399 8.66131 14.8689 8.51949C14.8452 8.49586 14.7979 8.47222 14.7743 8.44858C14.7506 8.42495 14.7269 8.42495 14.6796 8.44858C14.5849 8.49586 14.5139 8.56676 14.4903 8.68494C14.4666 8.80312 14.4429 8.89767 14.3956 9.01585C14.3246 9.13403 14.301 9.25221 14.2773 9.37039C14.2536 9.48857 14.2536 9.60675 14.23 9.72493C14.2063 9.89038 14.159 10.0795 14.1116 10.2449C14.088 10.4104 14.0406 10.5995 13.9933 10.7649L12.7391 17.0521L12.5024 18.2103C12.4788 18.3284 12.4314 18.4702 12.4078 18.5884C12.3841 18.7066 12.3368 18.8248 12.2658 18.8957C12.1948 19.0139 12.0528 19.0848 11.8635 19.1084C11.7451 19.1321 11.6268 19.1557 11.5085 19.1557C11.3902 19.1321 11.2482 19.1321 11.1298 19.1321H9.89927C9.73361 19.1321 9.56796 19.1321 9.42597 19.1321C9.28398 19.1084 9.16565 19.0612 9.09466 18.9902C9.02366 18.9193 9 18.8012 9 18.6357C9.02366 18.4703 9.07099 18.2812 9.09466 18.1157L9.49696 16.0357L11.2718 7.24315L11.9345 3.93411C11.9581 3.83956 11.9581 3.72138 11.9818 3.6032C12.0055 3.46139 12.0528 3.31957 12.0764 3.20139C12.1001 3.08321 12.1474 2.96503 12.1711 2.84685C12.2184 2.72867 12.2658 2.63413 12.2894 2.56322C12.3841 2.44504 12.5261 2.37413 12.7154 2.32686C12.7627 2.30322 12.7864 2.30322 12.8101 2.32686C12.8574 2.32686 12.8811 2.32686 12.9284 2.30322Z" fill="black"/>
<path d="M41.231 18.2103C41.231 18.3758 41.2074 18.5648 41.1837 18.7303C41.16 18.8957 41.0417 19.0139 40.8761 19.0848C40.7577 19.1321 40.6394 19.1557 40.5211 19.1557C40.4028 19.1557 40.2608 19.1557 40.1424 19.1557H38.8645C38.7226 19.1557 38.5806 19.1557 38.4386 19.1557C38.3202 19.1321 38.2256 19.1085 38.1546 19.0376C38.0599 18.9667 37.9889 18.8957 37.9653 18.7776C37.9416 18.6594 37.8706 18.5412 37.7996 18.4703C37.776 18.4467 37.7286 18.423 37.6813 18.3994C37.6576 18.3758 37.5866 18.3521 37.5156 18.3758C37.421 18.3994 37.3263 18.4467 37.2553 18.4939C37.1843 18.5412 37.0897 18.5885 37.0187 18.6121C36.924 18.683 36.8294 18.7303 36.711 18.7776C36.6164 18.8248 36.5217 18.8721 36.4034 18.9194C36.1904 19.0139 35.9537 19.0848 35.7171 19.1557C35.4805 19.203 35.2438 19.2503 35.0072 19.3212C34.8888 19.3448 34.7705 19.3685 34.6522 19.3685C34.5575 19.3921 34.4629 19.3921 34.3445 19.4157C34.2972 19.4157 34.2499 19.4157 34.2025 19.4157C34.1552 19.4394 34.1079 19.4394 34.0606 19.4394H33.8002C33.6346 19.463 33.4689 19.463 33.3269 19.4394H33.114C32.9956 19.4157 32.901 19.3921 32.7826 19.3921C32.688 19.4157 32.5933 19.3921 32.4987 19.3685C32.3567 19.3448 32.2147 19.2976 32.0727 19.2739C31.9307 19.2503 31.8124 19.2267 31.6941 19.1557C31.2681 18.9903 30.9131 18.7539 30.6528 18.4939C30.3925 18.2103 30.2032 17.8321 30.1085 17.383C30.0848 17.2649 30.0612 17.1467 30.0375 17.0285C30.0375 16.9103 30.0375 16.7685 30.0138 16.6267C29.9902 16.5558 29.9902 16.4612 30.0138 16.3903C30.0375 16.3194 30.0612 16.2249 30.0612 16.154C30.0612 16.1067 30.0612 16.0122 30.0848 15.8703C30.1085 15.7049 30.1558 15.6103 30.1795 15.5394C30.2505 15.374 30.2742 15.2558 30.2978 15.1376C30.3688 14.9722 30.4635 14.7831 30.5345 14.6176C30.6291 14.4285 30.7238 14.2631 30.8421 14.1213C31.1971 13.6722 31.5521 13.3176 31.9544 13.0813C32.3567 12.8449 32.83 12.6322 33.4216 12.4668C33.6346 12.3958 33.8712 12.3249 34.0842 12.3013C34.2972 12.2777 34.5339 12.2304 34.7705 12.1831C34.8888 12.1595 35.0308 12.1358 35.1728 12.1358C35.3385 12.1122 35.4804 12.0886 35.6224 12.0649C35.7408 12.0413 35.8354 12.0177 35.9537 12.0413C36.0721 12.0413 36.1904 12.0177 36.3324 11.994C36.4507 11.9704 36.5454 11.9468 36.6637 11.9468C36.782 11.9468 36.9003 11.9231 37.0187 11.8995C37.3736 11.8286 37.6813 11.7577 37.9653 11.7104C38.2729 11.6395 38.5569 11.4977 38.8172 11.285C38.9829 11.1431 39.1012 10.9777 39.1958 10.8122C39.2195 10.765 39.2195 10.7177 39.2195 10.6941C39.2195 10.6704 39.2195 10.6231 39.2432 10.5995C39.2668 10.5759 39.2905 10.5286 39.2905 10.4577C39.3142 10.3868 39.3142 10.3395 39.3378 10.3159C39.3378 10.245 39.3378 10.1977 39.3378 10.1268C39.3378 10.0559 39.3378 10.0086 39.3378 9.96134C39.2668 9.48862 39.0065 9.15771 38.5332 8.99226C38.4149 8.94499 38.2493 8.92135 38.0363 8.89772C37.8469 8.87408 37.6576 8.85044 37.4446 8.87408C37.2317 8.87408 37.0423 8.89772 36.8294 8.92135C36.64 8.94499 36.4744 8.99226 36.3324 9.03953C36.2141 9.06317 36.1194 9.11044 36.0247 9.18135C35.9301 9.22862 35.8354 9.27589 35.7408 9.3468C35.6461 9.41771 35.5514 9.48862 35.4331 9.6068C35.3148 9.72498 35.2438 9.81952 35.1965 9.91407C35.0781 10.0795 34.9835 10.2213 34.9125 10.3631C34.8415 10.505 34.6995 10.5995 34.5102 10.6468C34.3919 10.6704 34.2499 10.6941 34.1079 10.6941C33.9659 10.6941 33.8239 10.6941 33.6819 10.6941H32.7826C32.7116 10.6941 32.617 10.6941 32.5223 10.7177C32.4513 10.7177 32.3803 10.7177 32.333 10.6941H32.12C32.0964 10.6704 32.049 10.6704 32.0017 10.6704C31.9544 10.6704 31.907 10.6468 31.8834 10.6231C31.765 10.5995 31.7177 10.4813 31.6941 10.3159C31.6941 10.245 31.7177 10.1504 31.7414 10.0795C31.7651 10.0086 31.8124 9.9377 31.836 9.86679C31.907 9.70134 32.0017 9.53589 32.0727 9.39407C32.1674 9.22862 32.262 9.0868 32.3567 8.96862C32.4277 8.89772 32.475 8.80317 32.546 8.73226C32.617 8.66136 32.6643 8.56681 32.7353 8.4959C32.901 8.33045 33.0903 8.165 33.3033 7.99955C33.3506 7.97591 33.3979 7.95228 33.4689 7.88137C33.5636 7.81046 33.6346 7.76319 33.7056 7.71592C33.7766 7.66864 33.8712 7.62137 33.9659 7.5741C34.2735 7.40865 34.5812 7.26683 34.8888 7.17229C35.2201 7.05411 35.5514 6.95956 35.8828 6.86502C36.0957 6.81775 36.2851 6.79411 36.498 6.77048C36.711 6.74684 36.924 6.7232 37.137 6.67593C37.208 6.6523 37.3027 6.6523 37.421 6.67593C37.5393 6.69957 37.634 6.67593 37.6813 6.6523C38.3202 6.62866 38.9355 6.6523 39.5035 6.7232C40.0951 6.79411 40.5921 6.91229 41.0417 7.07774C41.4914 7.2432 41.87 7.47956 42.154 7.78682C42.4616 8.07046 42.6509 8.44863 42.7456 8.89772C42.7929 9.15771 42.7929 9.46498 42.7456 9.81952C42.6983 10.1741 42.6273 10.5286 42.5563 10.8831L41.4913 16.154C41.444 16.4612 41.3967 16.7685 41.3257 17.0758C41.2547 17.383 41.231 17.643 41.2547 17.903C41.2547 17.9503 41.2547 17.9976 41.231 18.0685C41.231 18.1158 41.231 18.163 41.231 18.2103ZM38.4859 14.5704C38.5096 14.4994 38.5332 14.4049 38.5569 14.3104C38.5806 14.1922 38.5806 14.0976 38.5806 14.0267C38.5806 13.9322 38.5806 13.8376 38.6042 13.7667C38.6279 13.6958 38.6042 13.6249 38.5332 13.5776C38.4622 13.5067 38.3676 13.4831 38.2019 13.4831C38.1309 13.5067 38.0836 13.5067 38.0363 13.5304C37.9889 13.5304 37.9179 13.5304 37.8469 13.554C37.7286 13.5776 37.6103 13.6013 37.492 13.6249C37.3736 13.6486 37.2317 13.6722 37.0897 13.6958C37.0423 13.7195 36.9713 13.7195 36.8767 13.7195C36.6637 13.7667 36.4507 13.7904 36.2377 13.814C36.0247 13.8376 35.8354 13.8613 35.6224 13.9322C35.5041 13.9558 35.3621 14.0031 35.2438 14.0267C35.1255 14.0504 35.0308 14.074 34.9125 14.1213C34.5575 14.2631 34.2262 14.4758 33.9422 14.7594C33.6582 15.0431 33.4926 15.4449 33.4453 15.9412C33.4216 16.2012 33.4689 16.4376 33.5873 16.6031C33.6582 16.7685 33.7766 16.9103 33.9896 17.0285C34.2025 17.123 34.4155 17.194 34.6758 17.2412C34.9362 17.2885 35.1965 17.3121 35.4805 17.2885C35.7881 17.2649 36.0721 17.194 36.3324 17.123C36.782 17.0049 37.137 16.7921 37.421 16.5321C37.7286 16.2485 37.9653 15.894 38.1783 15.4922C38.2256 15.374 38.2729 15.2794 38.2966 15.1613C38.3202 15.0431 38.3676 14.9013 38.4386 14.7831L38.4859 14.5704Z" fill="black"/>
<path d="M68.6578 12.9394C68.6578 13.0575 68.6341 13.1994 68.5631 13.3648C68.4921 13.5303 68.4211 13.6248 68.3265 13.6721C68.2555 13.743 68.1372 13.7903 67.9715 13.8139C67.8059 13.8375 67.6402 13.8375 67.4509 13.8612C67.2852 13.8612 67.0959 13.8612 66.9066 13.8612C66.7409 13.8375 66.5753 13.8375 66.4333 13.8375H60.659C60.5407 13.8375 60.4461 13.8375 60.3277 13.8375C60.2331 13.8375 60.1384 13.8612 60.0674 13.8848C59.9254 13.9557 59.8308 14.003 59.7834 14.0739C59.7598 14.0975 59.7124 14.1684 59.6414 14.263C59.5941 14.3339 59.5705 14.4284 59.5705 14.4993C59.5941 14.5939 59.5941 14.6884 59.5705 14.783C59.5705 14.8539 59.5704 14.9484 59.5941 15.043C59.6414 15.4211 59.7361 15.7284 59.8544 15.9884C59.9964 16.2248 60.2094 16.4375 60.4697 16.6266C60.588 16.6975 60.7064 16.7684 60.8247 16.792C60.9667 16.8157 61.1087 16.8393 61.227 16.8866C61.3453 16.9102 61.511 16.9338 61.724 16.9575C61.9369 16.9811 62.1499 16.9575 62.3156 16.9338H62.5286C62.6942 16.9102 62.8362 16.8629 62.9782 16.8393C63.1202 16.792 63.2622 16.7448 63.4042 16.6975C63.5698 16.6266 63.7828 16.5084 63.9958 16.3902C64.2088 16.272 64.3981 16.1302 64.5164 16.012C64.6111 15.8939 64.7057 15.7993 64.8241 15.7048C64.9424 15.5866 65.0607 15.5157 65.179 15.4684C65.3447 15.3975 65.5577 15.3502 65.7943 15.3739C66.0546 15.3739 66.2676 15.3739 66.4806 15.3739C66.5753 15.3739 66.6699 15.3739 66.7646 15.3739C66.8829 15.3502 66.9776 15.3739 67.0486 15.3975H67.2852C67.4272 15.4211 67.5219 15.4684 67.5929 15.5157C67.6402 15.5393 67.6639 15.6102 67.6402 15.7284C67.6402 15.8466 67.6165 15.9411 67.5692 16.012C67.4509 16.2248 67.3089 16.4375 67.1669 16.6029C67.0486 16.7684 66.9066 16.9575 66.7409 17.1229C66.2913 17.6429 65.818 18.0684 65.321 18.3756C64.8241 18.6829 64.2088 18.9665 63.4988 19.1793C63.3095 19.2502 63.1202 19.2738 62.9545 19.2974C62.7889 19.3211 62.5996 19.3447 62.3866 19.392C62.3156 19.4156 62.2446 19.4156 62.1736 19.392C62.1026 19.392 62.0553 19.392 61.9843 19.4156H61.724C61.6293 19.4393 61.5346 19.4629 61.44 19.4393C61.3453 19.4393 61.2507 19.4393 61.1797 19.4156C61.0613 19.392 60.943 19.392 60.8484 19.4156C60.7537 19.4393 60.659 19.4156 60.5407 19.392C60.4697 19.3683 60.3751 19.3447 60.2804 19.3447C60.1857 19.3447 60.1147 19.3211 60.0438 19.2974C59.8781 19.2738 59.6888 19.2265 59.5231 19.1793C59.3575 19.1556 59.2155 19.0847 59.0972 19.0138C58.9315 18.9429 58.7895 18.8956 58.6475 18.8484C58.5055 18.7774 58.3872 18.7065 58.2689 18.6356C57.8192 18.3284 57.4406 17.9502 57.133 17.5484C56.8253 17.1229 56.6123 16.6266 56.4703 16.0829C56.423 15.9175 56.3993 15.7284 56.3757 15.563C56.3757 15.3739 56.352 15.1848 56.3047 14.9957C56.3047 14.9248 56.3047 14.8775 56.3047 14.8302C56.3284 14.7593 56.3284 14.7121 56.3284 14.6412C56.3047 14.4521 56.3047 14.2393 56.3284 14.0266C56.352 13.8139 56.3993 13.5775 56.423 13.3648C56.4467 13.2939 56.4467 13.1994 56.4467 13.1048C56.4703 13.0103 56.494 12.9157 56.5177 12.8448L56.5887 12.5612L56.778 11.9939C56.8963 11.7339 56.991 11.4739 57.0856 11.2139C57.1803 10.9539 57.2986 10.7176 57.4406 10.5048C58.4582 8.87397 59.8308 7.7158 61.6056 7.03036C61.8423 6.93581 62.0789 6.86491 62.3156 6.84127C62.5522 6.794 62.8125 6.74673 63.0729 6.67582C63.1912 6.65218 63.3095 6.65218 63.4278 6.65218C63.5462 6.65218 63.6645 6.65218 63.7828 6.62855C64.5874 6.60491 65.25 6.69945 65.7943 6.91218C66.3386 7.10127 66.7883 7.36126 67.1906 7.66853C67.3089 7.76307 67.4272 7.88125 67.5455 7.99943C67.6639 8.11761 67.7822 8.23579 67.8532 8.35397C67.8768 8.42488 67.9478 8.49579 68.0188 8.54306C68.1135 8.70851 68.1845 8.8976 68.2555 9.08669C68.3265 9.25214 68.4211 9.44123 68.5158 9.63032C68.5631 9.77213 68.5868 9.91395 68.6105 10.0794C68.6341 10.2212 68.6815 10.3867 68.7051 10.5521C68.7288 10.7648 68.7524 10.9776 68.7524 11.1903C68.7761 11.403 68.7761 11.6394 68.7998 11.8521C68.7998 11.9703 68.7761 12.1121 68.7288 12.2775C68.7051 12.4194 68.6815 12.5612 68.7051 12.6794L68.6578 12.9394ZM65.3684 11.5448C65.5104 11.3794 65.5577 11.1903 65.5104 10.9776C65.4867 10.7412 65.463 10.5758 65.4394 10.4576C65.2974 10.0321 65.0607 9.70123 64.7531 9.4885C64.4454 9.25214 63.9485 9.13396 63.3095 9.11033C63.2622 9.13396 63.2149 9.1576 63.1439 9.13396C63.0729 9.11033 63.0255 9.11033 62.9782 9.13396C62.8835 9.1576 62.7889 9.18123 62.6942 9.20487C62.5996 9.20487 62.5049 9.22851 62.4339 9.25214C61.7003 9.46487 61.085 9.91395 60.6354 10.5521C60.588 10.623 60.5407 10.6939 60.4697 10.8121C60.3987 10.9067 60.3514 11.0012 60.3277 11.1194C60.3041 11.2139 60.2804 11.3085 60.2804 11.403C60.2804 11.4976 60.3277 11.5685 60.3987 11.6394C60.517 11.7103 60.6827 11.7576 60.8957 11.7576C61.1087 11.7576 61.3217 11.7576 61.5346 11.7576H64.1615C64.3744 11.7576 64.6111 11.7576 64.8477 11.7576C65.108 11.7339 65.2737 11.663 65.3684 11.5448Z" fill="black"/>
<path d="M78.8824 6.65234C79.829 6.62871 80.5863 6.74689 81.1542 7.05415C81.7459 7.36142 82.1482 7.78687 82.3848 8.37777C82.4558 8.54322 82.5031 8.73231 82.5268 8.94503C82.5505 9.13412 82.5741 9.32321 82.5978 9.53593C82.6215 9.65411 82.6215 9.77229 82.5978 9.89047C82.5741 10.0087 82.5741 10.1032 82.5978 10.2214C82.5741 10.3159 82.5505 10.3868 82.5741 10.4105C82.5505 10.6232 82.5268 10.8596 82.4795 11.0959C82.4321 11.3323 82.3848 11.5686 82.3375 11.7814L81.9352 13.885L81.1542 17.714C81.0832 18.0213 81.0359 18.3049 80.9649 18.5885C80.8939 18.8485 80.7519 19.0376 80.5153 19.1085C80.4206 19.1322 80.3023 19.1558 80.184 19.1558C80.0657 19.1558 79.9237 19.1558 79.8053 19.1558H78.5274C78.3381 19.1558 78.1725 19.1558 78.0305 19.1322C77.8885 19.1085 77.7938 19.0376 77.7228 18.9194C77.6755 18.8249 77.6518 18.7067 77.6755 18.5649C77.6992 18.3994 77.7465 18.234 77.7701 18.0685L78.1015 16.414L78.8114 12.8922C78.9297 12.3013 79.0007 11.7814 79.0481 11.285C79.1191 10.7886 79.0481 10.3632 78.8824 10.0087C78.7168 9.70139 78.4564 9.46503 78.0541 9.34685C77.9831 9.32321 77.8885 9.29957 77.7938 9.29957C77.7228 9.29957 77.6282 9.27594 77.5572 9.2523C77.4862 9.22867 77.3678 9.22867 77.2495 9.2523C77.1312 9.2523 77.0602 9.2523 76.9892 9.27594C76.9182 9.29957 76.8472 9.29957 76.7999 9.29957C76.7526 9.29957 76.7052 9.29957 76.6579 9.32321C76.2793 9.41775 75.9716 9.53593 75.7113 9.70139C75.1197 10.0559 74.7174 10.5996 74.4807 11.285C74.2677 11.9704 74.0547 12.7504 73.8891 13.625L73.2975 16.5795L73.0135 18.0213C72.9898 18.1631 72.9425 18.3049 72.9188 18.4467C72.8952 18.5885 72.8478 18.7067 72.7768 18.8012C72.6585 18.9667 72.5165 19.0849 72.3272 19.1085C72.1615 19.1322 71.9486 19.1558 71.6882 19.1558H70.505C70.3393 19.1558 70.15 19.1558 69.9844 19.1322C69.8187 19.1085 69.7004 19.0612 69.6531 18.9667C69.5584 18.8249 69.5347 18.6122 69.6057 18.3522C69.6767 18.0922 69.7241 17.8322 69.7714 17.5958L70.4103 14.3813L71.4516 9.18139L71.7119 7.97596C71.7356 7.81051 71.7829 7.64505 71.8066 7.50324C71.8302 7.36142 71.9012 7.24324 72.0196 7.1487C72.0432 7.10143 72.1142 7.07779 72.1852 7.05415C72.2562 7.03052 72.3509 7.00688 72.4219 6.98325H72.5402C72.6112 6.95961 72.7058 6.95961 72.7768 6.95961C72.8715 6.95961 72.9662 6.95961 73.0372 6.95961H74.0311C74.1494 6.95961 74.2677 6.95961 74.3861 6.98325C74.5044 6.98325 74.6227 7.00688 74.7174 7.03052C74.812 7.07779 74.8594 7.1487 74.883 7.24324C74.9067 7.33779 74.9304 7.45597 74.9304 7.57415C74.9304 7.64505 74.9303 7.69233 74.9067 7.7396C74.883 7.78687 74.883 7.83414 74.9067 7.88141C74.9303 7.95232 74.9304 7.99959 74.954 8.02323C74.9777 8.04687 75.025 8.0705 75.0723 8.09414C75.238 8.11777 75.38 8.04687 75.522 7.92869C75.664 7.78687 75.806 7.66869 75.9479 7.59778C76.4449 7.29051 76.9655 7.03052 77.5098 6.84143C77.6755 6.79416 77.8175 6.77052 77.9595 6.74689C78.1251 6.72325 78.2908 6.69961 78.4801 6.67598C78.5274 6.65234 78.5984 6.65234 78.6931 6.67598C78.7877 6.67598 78.8351 6.67598 78.8824 6.65234Z" fill="black"/>
<path d="M84.7281 6.62862C84.7518 6.65225 84.7518 6.67589 84.7518 6.69952C84.7518 6.72316 84.7518 6.77043 84.7281 6.8177V6.86498C84.7045 6.88861 84.7045 6.91225 84.6808 6.93588C84.6571 6.95952 84.6571 6.95952 84.6098 6.98316C84.5861 6.98316 84.5388 6.98316 84.4915 6.98316C84.4441 6.98316 84.3968 6.98316 84.3732 6.98316H84.3022C84.2785 6.98316 84.2785 6.98316 84.2548 6.98316C84.2312 6.98316 84.2312 6.98316 84.2075 6.98316C84.1838 7.00679 84.1365 7.03043 84.1128 7.0777C84.1128 7.10134 84.0892 7.10134 84.0892 7.12497C84.0892 7.14861 84.0892 7.17224 84.0892 7.19588L83.8525 8.30677C83.8525 8.33041 83.8525 8.33041 83.8525 8.35404C83.8525 8.37768 83.8525 8.37768 83.8525 8.40132V8.44859V8.47222C83.8525 8.47222 83.8525 8.49586 83.8289 8.49586C83.8052 8.5195 83.8052 8.54313 83.7579 8.54313C83.7342 8.54313 83.7342 8.54313 83.7105 8.54313C83.6869 8.54313 83.6632 8.54313 83.6395 8.54313C83.5922 8.54313 83.5449 8.54313 83.4976 8.54313C83.4502 8.54313 83.4029 8.5195 83.3792 8.49586C83.3792 8.47222 83.3556 8.44859 83.3792 8.42495C83.3792 8.40132 83.4029 8.37768 83.4029 8.33041L83.6159 7.21952C83.6159 7.19588 83.6159 7.19588 83.6159 7.17224C83.6159 7.14861 83.6159 7.14861 83.6159 7.12497V7.05406C83.6159 7.00679 83.5922 6.98316 83.5685 6.95952C83.5449 6.93588 83.4976 6.93588 83.4502 6.93588C83.4029 6.93588 83.3556 6.93588 83.3082 6.93588C83.2846 6.93588 83.2846 6.93588 83.2609 6.93588C83.2372 6.93588 83.2372 6.93588 83.2372 6.93588C83.2136 6.93588 83.2136 6.93588 83.2136 6.93588H83.1899C83.1662 6.91225 83.1426 6.88861 83.1426 6.86498C83.1426 6.84134 83.1426 6.79407 83.1662 6.7468C83.1662 6.72316 83.1662 6.69952 83.1662 6.69952C83.1662 6.67589 83.1899 6.67589 83.1899 6.65225C83.1899 6.62862 83.2136 6.62862 83.2372 6.62862C83.2609 6.62862 83.2609 6.60498 83.2846 6.60498H83.3082H83.3319H84.5861C84.6098 6.60498 84.6335 6.60498 84.6571 6.60498C84.7045 6.62862 84.7281 6.62862 84.7281 6.62862ZM87.2603 6.65225C87.284 6.67589 87.284 6.69952 87.2603 6.72316C87.2603 6.7468 87.2603 6.79407 87.2366 6.8177L86.929 8.35404C86.929 8.37768 86.9053 8.42495 86.9053 8.44859C86.9053 8.47223 86.8816 8.49586 86.8816 8.5195C86.858 8.54313 86.8343 8.56677 86.787 8.56677C86.7397 8.56677 86.6923 8.56677 86.645 8.56677C86.6213 8.56677 86.5977 8.56677 86.574 8.56677C86.5503 8.56677 86.5503 8.56677 86.5267 8.56677C86.503 8.56677 86.4793 8.54313 86.4793 8.5195C86.4793 8.49586 86.4793 8.47223 86.4793 8.44859L86.503 8.37768V8.35404C86.503 8.33041 86.503 8.33041 86.503 8.30677L86.6213 7.71587C86.6213 7.6686 86.645 7.64496 86.645 7.59769C86.645 7.55042 86.6687 7.52678 86.6687 7.50315C86.6687 7.47951 86.6687 7.47951 86.6687 7.45588C86.6687 7.43224 86.6687 7.43224 86.645 7.43224C86.645 7.43224 86.645 7.43224 86.6213 7.43224L86.5977 7.45588C86.574 7.50315 86.5267 7.52678 86.503 7.57406C86.4793 7.62133 86.4557 7.6686 86.432 7.71587C86.3847 7.81042 86.3137 7.90496 86.2664 8.02314C86.219 8.11768 86.148 8.21223 86.1007 8.30677C86.077 8.35404 86.0534 8.40132 86.0297 8.44859C86.006 8.49586 85.9587 8.54313 85.935 8.56677C85.9114 8.59041 85.8877 8.5904 85.8641 8.5904C85.8404 8.5904 85.8167 8.5904 85.7931 8.5904H85.6984C85.6747 8.5904 85.6747 8.59041 85.6511 8.56677C85.6274 8.56677 85.6274 8.54313 85.6274 8.54313C85.6274 8.54313 85.6037 8.5195 85.6037 8.49586C85.6037 8.47222 85.6037 8.47223 85.6037 8.44859C85.6037 8.42495 85.5801 8.40132 85.5801 8.35404C85.5801 8.33041 85.5801 8.28314 85.5564 8.2595C85.5327 8.16496 85.5327 8.07041 85.5091 7.97587C85.4854 7.88132 85.4854 7.78678 85.4617 7.69224C85.4617 7.64496 85.4381 7.57406 85.4381 7.52678C85.4381 7.47951 85.4144 7.43224 85.3908 7.38497C85.3908 7.38497 85.3908 7.38497 85.3671 7.38497C85.3434 7.4086 85.3434 7.4086 85.3434 7.43224C85.3434 7.45588 85.3198 7.45588 85.3198 7.47951C85.3198 7.50315 85.3198 7.50315 85.3198 7.52678L85.2961 7.59769C85.2961 7.62133 85.2961 7.62133 85.2724 7.64496C85.2488 7.6686 85.2724 7.6686 85.2724 7.6686L85.1541 8.21223C85.1541 8.2595 85.1304 8.30677 85.1304 8.35404C85.1304 8.40132 85.1068 8.44859 85.0831 8.47222L85.0594 8.49586C85.0594 8.49586 85.0358 8.49586 85.0358 8.5195C85.0121 8.5195 85.0121 8.5195 84.9884 8.54313C84.9648 8.54313 84.9411 8.54313 84.9175 8.54313C84.8701 8.54313 84.8465 8.54313 84.7991 8.54313C84.7518 8.54313 84.7281 8.54313 84.7045 8.5195C84.6808 8.49586 84.6808 8.49586 84.6808 8.44859C84.6808 8.42495 84.6808 8.37768 84.7045 8.35404L85.0121 6.79407C85.0121 6.77043 85.0358 6.7468 85.0358 6.72316C85.0358 6.69952 85.0594 6.67589 85.0594 6.65225C85.0831 6.62862 85.1068 6.60498 85.1304 6.60498H85.1541H85.1778H85.4854C85.5091 6.60498 85.5564 6.60498 85.5801 6.60498C85.6037 6.60498 85.6274 6.60498 85.6511 6.62862C85.6747 6.65225 85.6984 6.67589 85.6984 6.72316C85.6984 6.77043 85.7221 6.79407 85.7221 6.84134C85.7457 6.93588 85.7457 7.03043 85.7694 7.10134C85.7931 7.19588 85.7931 7.29042 85.8167 7.36133C85.8404 7.4086 85.8404 7.45588 85.8404 7.50315C85.8404 7.55042 85.8641 7.59769 85.8641 7.64496C85.8641 7.6686 85.864 7.69224 85.8877 7.71587C85.8877 7.73951 85.9114 7.73951 85.935 7.76314C85.9587 7.76314 85.9587 7.76314 85.9824 7.76314C86.006 7.73951 86.006 7.73951 86.006 7.73951C86.0297 7.71587 86.0534 7.6686 86.077 7.62133C86.1007 7.57406 86.1244 7.55042 86.148 7.50315C86.219 7.4086 86.2664 7.29042 86.3374 7.19588C86.4084 7.0777 86.4557 6.98316 86.5267 6.86498C86.5503 6.8177 86.574 6.77043 86.5977 6.72316C86.6213 6.67589 86.6687 6.62862 86.716 6.62862C86.7397 6.62862 86.7633 6.62862 86.787 6.62862C86.8107 6.62862 86.8343 6.62862 86.858 6.62862H87.071C87.0946 6.62862 87.1183 6.62862 87.1183 6.62862C87.142 6.62862 87.1656 6.62862 87.1656 6.62862H87.1893C87.213 6.62862 87.213 6.62862 87.2366 6.65225C87.2366 6.62862 87.2603 6.62862 87.2603 6.65225Z" fill="black"/>
<path d="M45.2898 5.23476C45.1833 5.4952 45.104 6.05953 45.0741 6.81374L45.9275 7.21319C45.9066 6.67382 45.9203 6.16604 45.9688 5.70424C45.9716 5.6697 45.9744 5.64954 45.9744 5.64954C45.9739 5.66796 45.9693 5.68582 45.9688 5.70424C45.9536 5.85625 45.9236 6.33298 45.9839 7.19235C46.3314 6.90205 46.8304 6.41109 47.2248 5.99174C46.7916 5.13546 46.2645 4.9915 46.2645 4.9915C46.2645 4.9915 45.5093 4.69834 45.2898 5.23476Z" fill="url(#paint0_linear_479_1782)"/>
<path d="M48.3118 11.7038C48.2728 11.7476 48.232 11.7891 48.1912 11.8306C48.2124 11.811 48.2343 11.7874 48.2538 11.7654C48.2751 11.7458 48.2946 11.7239 48.3118 11.7038Z" fill="#BE202E"/>
<path opacity="0.35" d="M48.3118 11.7038C48.2728 11.7476 48.232 11.7891 48.1912 11.8306C48.2124 11.811 48.2343 11.7874 48.2538 11.7654C48.2751 11.7458 48.2946 11.7239 48.3118 11.7038Z" fill="#BE202E"/>
<path d="M47.9941 11.0321C47.9918 11.0338 47.9918 11.0338 47.9941 11.0321C48.001 11.0269 48.0062 11.0194 48.0131 11.0142C48.0395 10.9871 48.0659 10.96 48.0883 10.9324C48.059 10.9652 48.0257 10.9975 47.9941 11.0321V11.0321Z" fill="#BE202E"/>
<path opacity="0.35" d="M47.9941 11.0321C47.9918 11.0338 47.9918 11.0338 47.9941 11.0321C48.001 11.0269 48.0062 11.0194 48.0131 11.0142C48.0395 10.9871 48.0659 10.96 48.0883 10.9324C48.059 10.9652 48.0257 10.9975 47.9941 11.0321V11.0321Z" fill="#BE202E"/>
<path d="M46.1813 9.71104C46.1385 9.42963 46.0992 9.15282 46.0634 8.88061C46.027 8.59804 45.9981 8.32064 45.9749 8.0461C45.9732 8.02941 45.9714 8.01272 45.9714 7.99833C45.9494 7.73012 45.9326 7.4688 45.9233 7.21266L45.0717 6.81552C45.0707 6.86676 45.0673 6.91972 45.0658 6.97499C45.0599 7.17763 45.0564 7.39293 45.0575 7.61917C45.0587 7.87418 45.0646 8.14012 45.0727 8.41872C45.082 8.67487 45.0959 8.94194 45.1133 9.21362C45.13 9.44615 45.1484 9.68097 45.1703 9.9204C45.1709 9.93076 45.1721 9.93709 45.1727 9.94745L46.3123 10.5063C46.2696 10.2393 46.2246 9.97402 46.1813 9.71104V9.71104Z" fill="url(#paint1_linear_479_1782)"/>
<path d="M47.9381 16.3783C48.0032 16.5889 48.0694 16.8058 48.1414 17.0255C48.1432 17.0278 48.1426 17.0319 48.1444 17.0342C48.1542 17.0664 48.1624 17.0963 48.1745 17.1268C48.2216 17.2752 48.2669 17.4069 48.3644 17.7084C48.547 17.6683 48.7766 17.7478 49.0167 17.8555C48.8612 17.6734 48.6476 17.5529 48.394 17.5276C49.0816 17.0569 49.5302 16.4561 49.457 15.747C49.4494 15.6843 49.44 15.6193 49.4266 15.5537C49.4192 15.826 49.309 16.0243 48.9799 16.2431L48.9776 16.2449L48.9799 16.2431C49.2863 15.6881 49.3678 15.3132 49.3246 14.8303C49.3139 14.7157 49.298 14.5943 49.2752 14.4637C49.1842 15.1846 48.8032 15.6552 48.2408 15.9379L47.9015 16.2581C47.9143 16.2989 47.9254 16.3375 47.9381 16.3783Z" fill="url(#paint2_linear_479_1782)"/>
<path d="M47.4854 15.4187C47.4098 15.1511 47.3348 14.8796 47.2581 14.6057C47.186 14.3428 47.1162 14.0782 47.0469 13.8095C46.9777 13.5408 46.9108 13.2704 46.8438 13C46.7757 12.7233 46.7116 12.4471 46.6499 12.1692C46.5875 11.8953 46.5298 11.618 46.4715 11.3447C46.4505 11.2451 46.4313 11.1479 46.4126 11.0466C46.3787 10.8774 46.3472 10.7065 46.3157 10.5356C46.3128 10.527 46.3122 10.5166 46.3093 10.508L45.176 9.94799C45.1778 9.96468 45.1813 9.98367 45.1807 10.0021C45.2067 10.2565 45.2321 10.5149 45.2656 10.7744C45.2985 11.038 45.3355 11.3021 45.3782 11.5692C45.4145 11.7942 45.4531 12.0174 45.4934 12.243C45.5016 12.2873 45.5115 12.3339 45.5197 12.3782C45.5751 12.6573 45.6339 12.9266 45.6974 13.178C45.7684 13.4634 45.844 13.7309 45.9201 13.98C45.9712 14.1433 46.0211 14.3004 46.0722 14.4494C46.1163 14.5748 46.1644 14.7007 46.2109 14.8244C46.3222 15.1154 46.4451 15.3978 46.5772 15.6733L47.7225 16.235C47.6592 16.0267 47.6005 15.815 47.536 15.6004C47.5197 15.5406 47.5034 15.4808 47.4854 15.4187V15.4187Z" fill="url(#paint3_linear_479_1782)"/>
<path d="M46.5929 15.7107C46.754 16.0436 46.9311 16.3644 47.1289 16.6697C47.1359 16.6789 47.1422 16.6921 47.1492 16.7013C46.8331 16.5788 46.2765 16.6444 46.2805 16.645C46.8585 16.8372 47.3662 17.075 47.6892 17.441C47.5645 17.5817 47.3291 17.6904 47.0325 17.7803C47.4447 17.8197 47.6733 17.745 47.7567 17.7074C47.544 17.8892 47.4278 18.2181 47.3266 18.5717C47.5637 18.1735 47.8005 17.9088 48.033 17.8058C48.389 18.9327 48.8162 20.1539 49.2884 21.4348C49.3642 21.3345 49.3715 21.2245 49.3378 21.1129C49.2508 20.8829 48.6892 19.3592 48.0439 17.2894C48.0253 17.2313 48.009 17.1715 47.9887 17.1111C47.9829 17.0939 47.9788 17.0789 47.973 17.0616C47.9068 16.8448 47.8394 16.6216 47.7708 16.392C47.7557 16.3385 47.74 16.2891 47.7249 16.2356L47.7232 16.2333L46.5779 15.6716C46.5819 15.6865 46.5866 15.6974 46.5929 15.7107V15.7107Z" fill="url(#paint4_linear_479_1782)"/>
<path d="M46.4436 10.5286C46.4507 10.5666 46.4582 10.6006 46.4652 10.6385C46.4886 10.7507 46.5096 10.8647 46.5347 10.9792C46.5603 11.104 46.5877 11.2312 46.6145 11.3624C46.628 11.428 46.6414 11.4936 46.6565 11.5615C46.7002 11.7629 46.7474 11.9689 46.7958 12.1812C46.8558 12.4424 46.921 12.7105 46.9908 12.9896C47.0566 13.2537 47.127 13.5287 47.2009 13.8083C47.2724 14.0753 47.3451 14.3486 47.4248 14.6311C47.4945 14.8813 47.5695 15.1385 47.6457 15.402C47.648 15.4146 47.6544 15.4279 47.6567 15.4405C47.7334 15.7 47.813 15.9681 47.8961 16.2408C47.8973 16.2471 47.8985 16.2534 47.9019 16.258L48.2412 15.9378C48.2325 15.9407 48.2256 15.9459 48.2147 15.9505C48.6172 15.5611 48.9565 14.7867 49.0274 14.0917C49.0601 13.7716 49.0523 13.4314 49.0036 13.0608C48.9683 12.7845 48.9083 12.4945 48.8268 12.1809C48.7558 11.91 48.6687 11.6223 48.5631 11.3197C48.5017 11.4488 48.4138 11.5762 48.3058 11.7008C48.2862 11.7227 48.2667 11.7446 48.2472 11.7665C48.2276 11.7885 48.2063 11.8081 48.1845 11.8317C48.479 11.3614 48.5083 10.8599 48.4126 10.3408C48.3599 10.4958 48.2556 10.7257 48.0803 10.9333C48.0579 10.961 48.0314 10.9881 48.005 11.0152C47.9981 11.0204 47.9929 11.0279 47.9837 11.0348C48.0813 10.8677 48.1529 10.7092 48.1981 10.5491C48.209 10.5157 48.2158 10.4817 48.2226 10.4477C48.234 10.3959 48.2414 10.3435 48.2488 10.2911C48.2516 10.2566 48.2561 10.2243 48.2589 10.1898C48.2639 10.1103 48.2631 10.028 48.2542 9.94454C48.2519 9.91749 48.2512 9.89274 48.2466 9.86742C48.2396 9.82944 48.2343 9.79376 48.2267 9.75981C48.1975 9.60156 48.1655 9.46347 48.1329 9.3438C48.1166 9.28397 48.1015 9.23046 48.0858 9.18099C48.0783 9.16143 48.0748 9.14244 48.0672 9.12288C48.0481 9.06881 48.0324 9.01934 48.0156 8.97793C47.9912 8.91696 47.9692 8.86865 47.9513 8.8353C47.9461 8.85718 47.9387 8.8808 47.9272 8.90385C47.8585 9.07094 47.6965 9.30097 47.5482 9.46304L47.861 9.16995L47.5482 9.46304C47.5459 9.46478 47.5436 9.46651 47.543 9.47054C47.5287 9.48496 47.512 9.50112 47.4971 9.51957C47.4976 9.51554 47.5022 9.51207 47.5028 9.50804L46.4338 10.5108C46.443 10.5183 46.4442 10.5246 46.4436 10.5286V10.5286Z" fill="url(#paint5_linear_479_1782)"/>
<path d="M45.9842 7.1922C46.0003 7.42877 46.0246 7.69526 46.0553 7.98937C46.057 8.00606 46.0571 8.02045 46.0611 8.03541C46.0889 8.2921 46.1241 8.56836 46.1681 8.8705C46.2056 9.13063 46.2472 9.40571 46.2981 9.70266C46.3402 9.95932 46.391 10.2275 46.4435 10.5123L47.5125 9.50955C47.7329 9.09863 47.7789 8.84408 47.7718 8.52862C47.7693 8.444 47.7633 8.35478 47.7556 8.26326C47.7348 7.98698 47.6977 7.69404 47.6469 7.41149C47.599 7.13756 47.5413 6.8746 47.4762 6.64964C47.4349 6.50408 47.3914 6.37465 47.3473 6.26363C47.3073 6.16758 47.2662 6.07958 47.2245 5.99562C46.8307 6.41094 46.3316 6.9019 45.9842 7.1922Z" fill="url(#paint6_linear_479_1782)"/>
<path d="M48.2568 11.7678C48.2373 11.7897 48.216 11.8093 48.1942 11.8329C48.2137 11.811 48.2333 11.7891 48.2568 11.7678Z" fill="#BE202E"/>
<path opacity="0.35" d="M48.2568 11.7678C48.2373 11.7897 48.216 11.8093 48.1942 11.8329C48.2137 11.811 48.2333 11.7891 48.2568 11.7678Z" fill="#BE202E"/>
<path d="M48.2568 11.7678C48.2373 11.7897 48.216 11.8093 48.1942 11.8329C48.2137 11.811 48.2333 11.7891 48.2568 11.7678Z" fill="url(#paint7_linear_479_1782)"/>
<path d="M47.99 11.0338C47.9969 11.0286 48.0021 11.0211 48.0113 11.0142C48.0044 11.0194 47.9992 11.0269 47.99 11.0338Z" fill="#BE202E"/>
<path opacity="0.35" d="M47.99 11.0338C47.9969 11.0286 48.0021 11.0211 48.0113 11.0142C48.0044 11.0194 47.9992 11.0269 47.99 11.0338Z" fill="#BE202E"/>
<path d="M47.99 11.0338C47.9969 11.0286 48.0021 11.0211 48.0113 11.0142C48.0044 11.0194 47.9992 11.0269 47.99 11.0338Z" fill="url(#paint8_linear_479_1782)"/>
<path d="M56.6335 5.17458C56.3354 5.29747 55.8114 5.68706 55.1723 6.26965L55.5331 7.2851C55.9561 6.83409 56.3813 6.43668 56.7969 6.10449C56.8273 6.07897 56.846 6.06505 56.846 6.06505C56.8305 6.07945 56.8123 6.0901 56.7969 6.10449C56.6607 6.21445 56.2478 6.57369 55.5955 7.31423C56.1117 7.36317 56.9136 7.37399 57.5728 7.35727C57.9226 6.31596 57.616 5.77143 57.616 5.77143C57.616 5.77143 57.2475 4.9214 56.6335 5.17458Z" fill="url(#paint9_linear_479_1782)"/>
<path d="M53.7894 12.8374C53.7222 12.8409 53.6556 12.8411 53.589 12.8413C53.622 12.8428 53.6589 12.8416 53.6924 12.8398C53.7255 12.8413 53.7591 12.8396 53.7894 12.8374Z" fill="#BE202E"/>
<path opacity="0.35" d="M53.7894 12.8374C53.7222 12.8409 53.6556 12.8411 53.589 12.8413C53.622 12.8428 53.6589 12.8416 53.6924 12.8398C53.7255 12.8413 53.7591 12.8396 53.7894 12.8374Z" fill="#BE202E"/>
<path d="M54.0806 12.0375C54.0774 12.0371 54.0774 12.0371 54.0806 12.0375C54.0904 12.039 54.1007 12.0372 54.1105 12.0386C54.1538 12.0383 54.1971 12.038 54.2377 12.0339C54.1874 12.0365 54.1342 12.0354 54.0806 12.0375V12.0375Z" fill="#BE202E"/>
<path opacity="0.35" d="M54.0806 12.0375C54.0774 12.0371 54.0774 12.0371 54.0806 12.0375C54.0904 12.039 54.1007 12.0372 54.1105 12.0386C54.1538 12.0383 54.1971 12.038 54.2377 12.0339C54.1874 12.0365 54.1342 12.0354 54.0806 12.0375V12.0375Z" fill="#BE202E"/>
<path d="M53.6986 9.50066C53.8937 9.23946 54.0878 8.98478 54.281 8.73662C54.4821 8.47963 54.6851 8.23291 54.8903 7.99318C54.9025 7.97831 54.9147 7.96344 54.9264 7.95183C55.1274 7.71815 55.3271 7.49425 55.5285 7.2806L55.1672 6.26848C55.1246 6.30887 55.0788 6.34878 55.0324 6.39196C54.8625 6.55026 54.6841 6.72064 54.5005 6.90359C54.2935 7.10976 54.0813 7.32849 53.8607 7.55931C53.6592 7.77295 53.4526 7.99916 53.2451 8.23189C53.0689 8.43257 52.8922 8.63652 52.7146 8.84699C52.7066 8.85581 52.7024 8.86186 52.6944 8.87068L53.1554 10.2471C53.3388 9.99754 53.5189 9.74747 53.6986 9.50066V9.50066Z" fill="url(#paint10_linear_479_1782)"/>
<path d="M49.6768 16.2945C49.5574 16.5169 49.4338 16.7452 49.3125 16.9806C49.312 16.9839 49.3083 16.9867 49.3078 16.9899C49.2895 17.0239 49.2716 17.0546 49.2566 17.089C49.1734 17.2467 49.1023 17.3895 48.935 17.7114C49.1146 17.8277 49.2344 18.0784 49.3397 18.3602C49.3632 18.0872 49.2896 17.8166 49.1062 17.5899C50.0432 17.7704 50.8941 17.6519 51.4135 17.0218C51.4585 16.9651 51.504 16.9051 51.5467 16.8414C51.3187 17.0545 51.0683 17.1245 50.625 17.0329L50.6218 17.0324L50.625 17.0329C51.3242 16.8355 51.6955 16.6001 52.0546 16.1763C52.1394 16.0755 52.2257 15.9649 52.3139 15.8413C51.6527 16.3473 50.9624 16.4161 50.2795 16.1862L49.7454 16.168C49.7223 16.2112 49.6998 16.2512 49.6768 16.2945Z" fill="url(#paint11_linear_479_1782)"/>
<path d="M50.0951 15.1538C50.2525 14.8771 50.4136 14.5976 50.5752 14.3148C50.7316 14.0447 50.8912 13.7749 51.0546 13.5025C51.218 13.23 51.3847 12.9579 51.5513 12.6859C51.7222 12.4079 51.8959 12.1335 52.0728 11.8597C52.246 11.5886 52.4257 11.3185 52.6017 11.0512C52.666 10.9541 52.7298 10.8601 52.7974 10.7635C52.9081 10.5998 53.0221 10.4367 53.1361 10.2735C53.1408 10.2642 53.1487 10.2554 53.1535 10.2461L52.6985 8.87387C52.6863 8.88874 52.6737 8.90687 52.6582 8.92126C52.4717 9.14707 52.2814 9.37566 52.0967 9.61173C51.9082 9.85058 51.7226 10.0932 51.5392 10.3428C51.3849 10.5533 51.2339 10.7643 51.0823 10.9786C51.0528 11.0209 51.0228 11.0665 50.9932 11.1088C50.8102 11.3784 50.638 11.6429 50.484 11.8968C50.3084 12.1842 50.1511 12.4609 50.0091 12.7232C49.917 12.8962 49.8292 13.0632 49.7488 13.2246C49.682 13.3614 49.618 13.5019 49.5545 13.6392C49.4067 13.9639 49.2753 14.291 49.1569 14.6201L49.6202 16.0035C49.7391 15.7844 49.8645 15.5663 49.9876 15.3412C50.0233 15.2798 50.059 15.2185 50.0951 15.1538V15.1538Z" fill="url(#paint12_linear_479_1782)"/>
<path d="M49.1393 14.6635C48.9974 15.0623 48.8782 15.4645 48.7885 15.871C48.7866 15.8841 48.7809 15.8999 48.779 15.913C48.6246 15.5573 48.1234 15.1575 48.1262 15.1613C48.4343 15.7859 48.6488 16.3901 48.6102 16.9473C48.3952 16.9591 48.1172 16.8552 47.8053 16.6863C48.1047 17.0532 48.3495 17.1789 48.4473 17.2166C48.128 17.1898 47.7663 17.36 47.3966 17.5623C47.912 17.4346 48.3183 17.4142 48.5893 17.5205C47.9568 18.7167 47.3046 20.0467 46.64 21.4614C46.7828 21.4424 46.8783 21.3597 46.9422 21.2425C47.0598 20.9867 47.8505 19.304 49.0191 17.1138C49.0515 17.0519 49.0872 16.9905 49.1201 16.9254C49.1295 16.9068 49.1384 16.8915 49.1478 16.8729C49.2714 16.6445 49.3992 16.4101 49.5312 16.1697C49.5627 16.1143 49.5904 16.0618 49.6219 16.0064L49.6223 16.0032L49.1591 14.6198C49.1502 14.6351 49.145 14.6477 49.1393 14.6635V14.6635Z" fill="url(#paint13_linear_479_1782)"/>
<path d="M53.2435 10.3728C53.2182 10.4091 53.1966 10.4426 53.1712 10.4788C53.0985 10.5881 53.0225 10.6969 52.9493 10.8094C52.8681 10.9307 52.7864 11.0553 52.701 11.1827C52.6583 11.2464 52.6156 11.3101 52.5724 11.377C52.4434 11.5746 52.3133 11.7788 52.1791 11.9889C52.0143 12.2479 51.8481 12.5167 51.6767 12.798C51.5143 13.064 51.3466 13.3426 51.178 13.6276C51.0179 13.9006 50.8535 14.1796 50.6872 14.4717C50.5392 14.7298 50.3898 14.9977 50.2362 15.2717C50.2278 15.2838 50.2221 15.2996 50.2137 15.3117C50.0638 15.5828 49.9092 15.8633 49.7536 16.1503C49.7494 16.1563 49.7452 16.1624 49.7442 16.1689L50.2783 16.1871C50.269 16.1824 50.2592 16.181 50.2466 16.1758C50.888 16.1898 51.7925 15.8426 52.4163 15.3411C52.7036 15.11 52.9748 14.83 53.2379 14.4921C53.4348 14.2412 53.623 13.959 53.8132 13.6404C53.9771 13.3647 54.1415 13.0623 54.3033 12.733C54.1487 12.7869 53.9741 12.818 53.7856 12.8304C53.752 12.8321 53.7184 12.8338 53.6848 12.8356C53.6512 12.8373 53.6181 12.8358 53.5813 12.8371C54.2018 12.6981 54.6343 12.3185 54.9805 11.8229C54.8118 11.9048 54.5404 12.0049 54.2301 12.0294C54.1895 12.0335 54.1461 12.0338 54.1027 12.0341C54.0929 12.0327 54.0826 12.0345 54.0696 12.0326C54.2844 11.9774 54.4713 11.9082 54.6382 11.8161C54.6742 11.798 54.7074 11.7763 54.7406 11.7545C54.792 11.722 54.8407 11.6859 54.8893 11.6497C54.9198 11.6242 54.9497 11.6019 54.9801 11.5764C55.0489 11.5165 55.1154 11.4496 55.1764 11.3753C55.1965 11.3516 55.2162 11.3312 55.2331 11.307C55.2584 11.2707 55.2833 11.2377 55.3049 11.2043C55.4104 11.0532 55.4973 10.916 55.5687 10.7932C55.6044 10.7318 55.6358 10.6765 55.6636 10.6239C55.6735 10.6021 55.6861 10.5839 55.696 10.5621C55.7247 10.503 55.7524 10.4504 55.7727 10.4034C55.8028 10.3346 55.8245 10.2778 55.8372 10.2364C55.8153 10.2498 55.79 10.2627 55.762 10.272C55.5704 10.3505 55.2525 10.4039 55.0011 10.4137L55.4917 10.4322L55.0011 10.4137C54.9978 10.4132 54.9945 10.4127 54.9908 10.4155C54.9675 10.4154 54.9409 10.4149 54.9138 10.4176C54.9176 10.4148 54.9241 10.4157 54.9278 10.413L53.2501 10.3505C53.2515 10.364 53.2472 10.3701 53.2435 10.3728V10.3728Z" fill="url(#paint14_linear_479_1782)"/>
<path d="M55.5948 7.31367C55.4149 7.51715 55.2171 7.75133 55.0019 8.01294C54.9897 8.02781 54.978 8.03942 54.9691 8.05477C54.782 8.28386 54.5851 8.53481 54.3741 8.81368C54.1921 9.05351 54.0012 9.30869 53.8 9.58899C53.6246 9.82977 53.4467 10.0869 53.2567 10.3588L54.9345 10.4213C55.4469 10.2698 55.6915 10.1024 55.9431 9.84283C56.01 9.77269 56.078 9.69604 56.1464 9.61613C56.355 9.37686 56.5641 9.11103 56.7536 8.84234C56.9385 8.58295 57.1065 8.32443 57.2376 8.09048C57.3231 7.93978 57.3936 7.80022 57.4487 7.67505C57.4948 7.56523 57.5335 7.46097 57.5684 7.3595C56.9129 7.37344 56.111 7.36261 55.5948 7.31367Z" fill="url(#paint15_linear_479_1782)"/>
<path d="M53.6929 12.843C53.6593 12.8448 53.6262 12.8433 53.5894 12.8445C53.623 12.8428 53.6565 12.8411 53.6929 12.843Z" fill="#BE202E"/>
<path opacity="0.35" d="M53.6929 12.843C53.6593 12.8448 53.6262 12.8433 53.5894 12.8445C53.623 12.8428 53.6565 12.8411 53.6929 12.843Z" fill="#BE202E"/>
<path d="M53.6929 12.843C53.6593 12.8448 53.6262 12.8433 53.5894 12.8445C53.623 12.8428 53.6565 12.8411 53.6929 12.843Z" fill="url(#paint16_linear_479_1782)"/>
<path d="M54.0776 12.0371C54.0874 12.0385 54.0977 12.0367 54.1107 12.0386C54.1009 12.0372 54.0907 12.039 54.0776 12.0371Z" fill="#BE202E"/>
<path opacity="0.35" d="M54.0776 12.0371C54.0874 12.0385 54.0977 12.0367 54.1107 12.0386C54.1009 12.0372 54.0907 12.039 54.0776 12.0371Z" fill="#BE202E"/>
<path d="M54.0776 12.0371C54.0874 12.0385 54.0977 12.0367 54.1107 12.0386C54.1009 12.0372 54.0907 12.039 54.0776 12.0371Z" fill="url(#paint17_linear_479_1782)"/>
<defs>
<linearGradient id="paint0_linear_479_1782" x1="45.435" y1="6.66788" x2="47.4718" y2="4.00696" gradientUnits="userSpaceOnUse">
<stop stop-color="#F69923"/>
<stop offset="0.3123" stop-color="#F79A23"/>
<stop offset="0.8383" stop-color="#E97826"/>
</linearGradient>
<linearGradient id="paint1_linear_479_1782" x1="48.5166" y1="22.4882" x2="45.2924" y2="7.29146" gradientUnits="userSpaceOnUse">
<stop offset="0.3233" stop-color="#9E2064"/>
<stop offset="0.6302" stop-color="#C92037"/>
<stop offset="0.7514" stop-color="#CD2335"/>
<stop offset="1" stop-color="#E97826"/>
</linearGradient>
<linearGradient id="paint2_linear_479_1782" x1="49.6501" y1="20.3303" x2="47.7287" y2="11.2741" gradientUnits="userSpaceOnUse">
<stop stop-color="#282662"/>
<stop offset="0.0954839" stop-color="#662E8D"/>
<stop offset="0.7882" stop-color="#9F2064"/>
<stop offset="0.9487" stop-color="#CD2032"/>
</linearGradient>
<linearGradient id="paint3_linear_479_1782" x1="48.1923" y1="21.6647" x2="44.9681" y2="6.46819" gradientUnits="userSpaceOnUse">
<stop offset="0.3233" stop-color="#9E2064"/>
<stop offset="0.6302" stop-color="#C92037"/>
<stop offset="0.7514" stop-color="#CD2335"/>
<stop offset="1" stop-color="#E97826"/>
</linearGradient>
<linearGradient id="paint4_linear_479_1782" x1="48.1605" y1="20.5128" x2="46.4661" y2="12.5268" gradientUnits="userSpaceOnUse">
<stop stop-color="#282662"/>
<stop offset="0.0954839" stop-color="#662E8D"/>
<stop offset="0.7882" stop-color="#9F2064"/>
<stop offset="0.9487" stop-color="#CD2032"/>
</linearGradient>
<linearGradient id="paint5_linear_479_1782" x1="49.7662" y1="21.3307" x2="46.5419" y2="6.1336" gradientUnits="userSpaceOnUse">
<stop offset="0.3233" stop-color="#9E2064"/>
<stop offset="0.6302" stop-color="#C92037"/>
<stop offset="0.7514" stop-color="#CD2335"/>
<stop offset="1" stop-color="#E97826"/>
</linearGradient>
<linearGradient id="paint6_linear_479_1782" x1="49.8905" y1="22.2905" x2="46.6662" y2="7.09306" gradientUnits="userSpaceOnUse">
<stop offset="0.3233" stop-color="#9E2064"/>
<stop offset="0.6302" stop-color="#C92037"/>
<stop offset="0.7514" stop-color="#CD2335"/>
<stop offset="1" stop-color="#E97826"/>
</linearGradient>
<linearGradient id="paint7_linear_479_1782" x1="50.235" y1="21.2261" x2="47.0127" y2="6.03753" gradientUnits="userSpaceOnUse">
<stop offset="0.3233" stop-color="#9E2064"/>
<stop offset="0.6302" stop-color="#C92037"/>
<stop offset="0.7514" stop-color="#CD2335"/>
<stop offset="1" stop-color="#E97826"/>
</linearGradient>
<linearGradient id="paint8_linear_479_1782" x1="50.1783" y1="21.2358" x2="46.9547" y2="6.04979" gradientUnits="userSpaceOnUse">
<stop offset="0.3233" stop-color="#9E2064"/>
<stop offset="0.6302" stop-color="#C92037"/>
<stop offset="0.7514" stop-color="#CD2335"/>
<stop offset="1" stop-color="#E97826"/>
</linearGradient>
<linearGradient id="paint9_linear_479_1782" x1="55.5816" y1="6.44579" x2="59.3907" y2="5.96541" gradientUnits="userSpaceOnUse">
<stop stop-color="#F69923"/>
<stop offset="0.3123" stop-color="#F79A23"/>
<stop offset="0.8383" stop-color="#E97826"/>
</linearGradient>
<linearGradient id="paint10_linear_479_1782" x1="45.1575" y1="21.6808" x2="54.9302" y2="6.8135" gradientUnits="userSpaceOnUse">
<stop offset="0.3233" stop-color="#9E2064"/>
<stop offset="0.6302" stop-color="#C92037"/>
<stop offset="0.7514" stop-color="#CD2335"/>
<stop offset="1" stop-color="#E97826"/>
</linearGradient>
<linearGradient id="paint11_linear_479_1782" x1="47.8311" y1="20.8667" x2="53.6549" y2="12.0065" gradientUnits="userSpaceOnUse">
<stop stop-color="#282662"/>
<stop offset="0.0954839" stop-color="#662E8D"/>
<stop offset="0.7882" stop-color="#9F2064"/>
<stop offset="0.9487" stop-color="#CD2032"/>
</linearGradient>
<linearGradient id="paint12_linear_479_1782" x1="45.5705" y1="20.7545" x2="55.343" y2="5.88783" gradientUnits="userSpaceOnUse">
<stop offset="0.3233" stop-color="#9E2064"/>
<stop offset="0.6302" stop-color="#C92037"/>
<stop offset="0.7514" stop-color="#CD2335"/>
<stop offset="1" stop-color="#E97826"/>
</linearGradient>
<linearGradient id="paint13_linear_479_1782" x1="46.4846" y1="19.8022" x2="51.6204" y2="11.9899" gradientUnits="userSpaceOnUse">
<stop stop-color="#282662"/>
<stop offset="0.0954839" stop-color="#662E8D"/>
<stop offset="0.7882" stop-color="#9F2064"/>
<stop offset="0.9487" stop-color="#CD2032"/>
</linearGradient>
<linearGradient id="paint14_linear_479_1782" x1="47.1072" y1="21.7666" x2="56.88" y2="6.89878" gradientUnits="userSpaceOnUse">
<stop offset="0.3233" stop-color="#9E2064"/>
<stop offset="0.6302" stop-color="#C92037"/>
<stop offset="0.7514" stop-color="#CD2335"/>
<stop offset="1" stop-color="#E97826"/>
</linearGradient>
<linearGradient id="paint15_linear_479_1782" x1="46.4243" y1="22.6394" x2="56.1975" y2="7.77091" gradientUnits="userSpaceOnUse">
<stop offset="0.3233" stop-color="#9E2064"/>
<stop offset="0.6302" stop-color="#C92037"/>
<stop offset="0.7514" stop-color="#CD2335"/>
<stop offset="1" stop-color="#E97826"/>
</linearGradient>
<linearGradient id="paint16_linear_479_1782" x1="47.5726" y1="22.0663" x2="57.3469" y2="7.20676" gradientUnits="userSpaceOnUse">
<stop offset="0.3233" stop-color="#9E2064"/>
<stop offset="0.6302" stop-color="#C92037"/>
<stop offset="0.7514" stop-color="#CD2335"/>
<stop offset="1" stop-color="#E97826"/>
</linearGradient>
<linearGradient id="paint17_linear_479_1782" x1="47.522" y1="22.0331" x2="57.2989" y2="7.17561" gradientUnits="userSpaceOnUse">
<stop offset="0.3233" stop-color="#9E2064"/>
<stop offset="0.6302" stop-color="#C92037"/>
<stop offset="0.7514" stop-color="#CD2335"/>
<stop offset="1" stop-color="#E97826"/>
</linearGradient>
</defs>
</svg>
