<svg width="514" height="367" viewBox="0 0 514 367" fill="none" xmlns="http://www.w3.org/2000/svg">
<path opacity="0.4" fill-rule="evenodd" clip-rule="evenodd" d="M251.684 105.998L192.606 140.075L133.528 105.998V37.8435L192.606 3.7664L251.684 37.8435V105.998ZM194.491 143.336C193.325 144.009 191.887 144.009 190.721 143.336L131.643 109.259C130.476 108.587 129.758 107.343 129.758 105.998V37.8435C129.758 36.4979 130.476 35.2545 131.643 34.5817L190.721 0.504596C191.887 -0.168199 193.325 -0.168199 194.491 0.504596L253.569 34.5817C254.736 35.2545 255.454 36.4979 255.454 37.8435V105.998C255.454 107.343 254.736 108.587 253.569 109.259L194.491 143.336ZM127.584 252.124L186.663 218.047V149.893L127.584 115.816L68.5061 149.893V218.047L127.584 252.124ZM125.699 255.386C126.866 256.059 128.303 256.059 129.469 255.386L188.548 221.309C189.714 220.636 190.433 219.393 190.433 218.047V149.893C190.433 148.548 189.714 147.304 188.548 146.631L129.469 112.554C128.303 111.882 126.866 111.882 125.699 112.554L66.6211 146.631C65.4547 147.304 64.7362 148.548 64.7362 149.893V218.047C64.7362 219.393 65.4547 220.636 66.6211 221.309L125.699 255.386ZM121.927 329.156L62.8482 363.233L3.76992 329.156V261.002L62.8482 226.925L121.927 261.002V329.156ZM64.7332 366.495C63.5668 367.168 62.1297 367.168 60.9633 366.495L1.88496 332.418C0.718542 331.745 0 330.502 0 329.156V261.002C0 259.656 0.718542 258.413 1.88496 257.74L60.9633 223.663C62.1297 222.99 63.5668 222.99 64.7332 223.663L123.812 257.74C124.978 258.413 125.696 259.656 125.696 261.002V329.156C125.696 330.502 124.978 331.745 123.812 332.418L64.7332 366.495ZM251.043 329.156L191.965 363.233L132.886 329.156V261.002L191.965 226.925L251.043 261.002V329.156ZM193.85 366.495C192.683 367.168 191.246 367.168 190.08 366.495L131.001 332.418C129.835 331.745 129.117 330.502 129.117 329.156V261.002C129.117 259.657 129.835 258.413 131.001 257.74L190.08 223.663C191.246 222.99 192.683 222.99 193.85 223.663L252.928 257.74C254.094 258.413 254.813 259.657 254.813 261.002V329.156C254.813 330.502 254.094 331.745 252.928 332.418L193.85 366.495ZM322.031 363.233L381.11 329.156V261.002L322.031 226.925L262.953 261.002V329.156L322.031 363.233ZM320.146 366.495C321.313 367.168 322.75 367.168 323.916 366.495L382.995 332.418C384.161 331.745 384.88 330.502 384.88 329.156V261.002C384.88 259.657 384.161 258.413 382.995 257.74L323.916 223.663C322.75 222.99 321.313 222.99 320.146 223.663L261.068 257.74C259.902 258.413 259.183 259.657 259.183 261.002V329.156C259.183 330.502 259.902 331.745 261.068 332.418L320.146 366.495ZM510.23 329.156L451.152 363.233L392.073 329.156V261.002L451.152 226.925L510.23 261.002V329.156ZM453.037 366.495C451.87 367.168 450.433 367.168 449.267 366.495L390.189 332.418C389.022 331.745 388.304 330.502 388.304 329.156V261.002C388.304 259.657 389.022 258.413 390.189 257.74L449.267 223.663C450.433 222.99 451.87 222.99 453.037 223.663L512.115 257.74C513.281 258.413 514 259.657 514 261.002V329.156C514 330.502 513.281 331.745 512.115 332.418L453.037 366.495ZM316.072 218.047L256.994 252.124L197.916 218.047V149.893L256.994 115.816L316.072 149.893V218.047ZM258.879 255.386C257.713 256.059 256.276 256.059 255.109 255.386L196.031 221.309C194.864 220.636 194.146 219.393 194.146 218.047V149.893C194.146 148.548 194.864 147.304 196.031 146.631L255.109 112.554C256.276 111.882 257.713 111.882 258.879 112.554L317.957 146.631C319.124 147.304 319.842 148.548 319.842 149.893V218.047C319.842 219.393 319.124 220.636 317.957 221.309L258.879 255.386ZM387.057 252.124L446.135 218.047V149.893L387.057 115.816L327.979 149.893V218.047L387.057 252.124ZM385.172 255.386C386.338 256.059 387.775 256.059 388.942 255.386L448.02 221.309C449.187 220.636 449.905 219.393 449.905 218.047V149.893C449.905 148.548 449.187 147.304 448.02 146.631L388.942 112.554C387.775 111.882 386.338 111.882 385.172 112.554L326.094 146.631C324.927 147.304 324.209 148.548 324.209 149.893V218.047C324.209 219.393 324.927 220.636 326.094 221.309L385.172 255.386ZM322.035 140.075L381.114 105.998V37.8435L322.035 3.7664L262.957 37.8435V105.998L322.035 140.075ZM320.15 143.336C321.317 144.009 322.754 144.009 323.92 143.336L382.999 109.259C384.165 108.587 384.884 107.343 384.884 105.998V37.8435C384.884 36.4979 384.165 35.2545 382.999 34.5817L323.92 0.504596C322.754 -0.168199 321.317 -0.168199 320.15 0.504596L261.072 34.5817C259.906 35.2545 259.187 36.4979 259.187 37.8435V105.998C259.187 107.343 259.906 108.587 261.072 109.259L320.15 143.336Z" fill="url(#paint0_linear_606_3286)"/>
<defs>
<linearGradient id="paint0_linear_606_3286" x1="409.038" y1="4.708" x2="87.0464" y2="367.524" gradientUnits="userSpaceOnUse">
<stop stop-color="#3E4253" stop-opacity="0"/>
<stop offset="0.53125" stop-color="#3E4253"/>
<stop offset="0.96875" stop-color="#3E4253" stop-opacity="0"/>
</linearGradient>
</defs>
</svg>
