<svg width="1260" height="283" viewBox="0 0 1260 283" fill="none" xmlns="http://www.w3.org/2000/svg">
<rect width="1260" height="283" fill="#171923"/>
<line x1="22.5" y1="114.5" x2="22.5" y2="233.5" stroke="white" stroke-opacity="0.4" stroke-linecap="round" stroke-dasharray="4 4"/>
<rect x="22" y="226" width="1" height="8" fill="#D9D9D9"/>
<line x1="122.5" y1="114.5" x2="122.5" y2="233.5" stroke="white" stroke-opacity="0.4" stroke-linecap="round" stroke-dasharray="4 4"/>
<line x1="222.5" y1="114.5" x2="222.5" y2="233.5" stroke="white" stroke-opacity="0.4" stroke-linecap="round" stroke-dasharray="4 4"/>
<line x1="322.5" y1="114.5" x2="322.5" y2="233.5" stroke="white" stroke-opacity="0.4" stroke-linecap="round" stroke-dasharray="4 4"/>
<line x1="422.5" y1="114.5" x2="422.5" y2="233.5" stroke="white" stroke-opacity="0.4" stroke-linecap="round" stroke-dasharray="4 4"/>
<line x1="821.5" y1="114.5" x2="821.5" y2="233.5" stroke="white" stroke-opacity="0.4" stroke-linecap="round" stroke-dasharray="4 4"/>
<line x1="921.5" y1="114.5" x2="921.5" y2="233.5" stroke="white" stroke-opacity="0.4" stroke-linecap="round" stroke-dasharray="4 4"/>
<rect x="721" y="229" width="520" height="1" rx="0.5" fill="#D9D9D9"/>
<rect x="821" y="226" width="1" height="8" fill="#D9D9D9"/>
<line x1="721.5" y1="114.5" x2="721.5" y2="233.5" stroke="white" stroke-opacity="0.4" stroke-linecap="round" stroke-dasharray="4 4"/>
<rect x="721" y="226" width="1" height="8" fill="#D9D9D9"/>
<rect x="921" y="226" width="1" height="8" fill="#D9D9D9"/>
<line x1="1021.5" y1="114.5" x2="1021.5" y2="233.5" stroke="white" stroke-opacity="0.4" stroke-linecap="round" stroke-dasharray="4 4"/>
<rect x="1021" y="226" width="1" height="8" fill="#D9D9D9"/>
<line x1="1121.5" y1="114.5" x2="1121.5" y2="233.5" stroke="white" stroke-opacity="0.4" stroke-linecap="round" stroke-dasharray="4 4"/>
<rect x="1121" y="226" width="1" height="8" fill="#D9D9D9"/>
<line x1="1221.5" y1="114.5" x2="1221.5" y2="233.5" stroke="white" stroke-opacity="0.4" stroke-linecap="round" stroke-dasharray="4 4"/>
<rect x="1221" y="226" width="1" height="8" fill="#D9D9D9"/>
<line x1="522.5" y1="114.5" x2="522.5" y2="233.5" stroke="white" stroke-opacity="0.4" stroke-linecap="round" stroke-dasharray="4 4"/>
<path d="M514 121.5C518.142 121.5 521.5 124.858 521.5 129V145C521.5 149.142 518.142 152.5 514 152.5H22.5V121.5H514Z" fill="white" stroke="white"/>
<path d="M46.464 142.616V140.424C46.9333 140.627 47.3493 140.776 47.712 140.872C48.0853 140.968 48.4373 141.016 48.768 141.016C49.9307 141.016 50.512 140.456 50.512 139.336V133.448L48.384 132.76V131.368H53.008V139.56C53.008 140.723 52.6667 141.624 51.984 142.264C51.312 142.904 50.368 143.224 49.152 143.224C48.6613 143.224 48.176 143.171 47.696 143.064C47.2267 142.968 46.816 142.819 46.464 142.616ZM55.1048 143V131.368H57.6008V143H55.1048ZM62.7024 143V133.48H59.2624V131.368H68.6384V133.48H65.1984V143H62.7024Z" fill="#1E2631"/>
<g filter="url(#filter0_d_1205_12408)">
<path d="M164 169.5C168.142 169.5 171.5 172.858 171.5 177V193C171.5 197.142 168.142 200.5 164 200.5H22.5V169.5H164Z" fill="#F29111" stroke="white"/>
<path d="M114.85 250V244.7L113.19 245.26V244.34L115.31 242.83H116.42V250H114.85ZM120.351 250.13C119.438 250.13 118.744 249.81 118.271 249.17C117.798 248.53 117.561 247.597 117.561 246.37C117.561 243.923 118.491 242.7 120.351 242.7C122.211 242.7 123.141 243.923 123.141 246.37C123.141 247.597 122.904 248.53 122.431 249.17C121.958 249.81 121.264 250.13 120.351 250.13ZM120.351 248.86C120.771 248.86 121.081 248.657 121.281 248.25C121.481 247.843 121.581 247.217 121.581 246.37C121.581 245.537 121.481 244.93 121.281 244.55C121.088 244.163 120.778 243.97 120.351 243.97C119.924 243.97 119.611 244.163 119.411 244.55C119.218 244.93 119.121 245.537 119.121 246.37C119.121 247.217 119.221 247.843 119.421 248.25C119.621 248.657 119.931 248.86 120.351 248.86ZM126.816 250.13C125.903 250.13 125.209 249.81 124.736 249.17C124.263 248.53 124.026 247.597 124.026 246.37C124.026 243.923 124.956 242.7 126.816 242.7C128.676 242.7 129.606 243.923 129.606 246.37C129.606 247.597 129.369 248.53 128.896 249.17C128.423 249.81 127.729 250.13 126.816 250.13ZM126.816 248.86C127.236 248.86 127.546 248.657 127.746 248.25C127.946 247.843 128.046 247.217 128.046 246.37C128.046 245.537 127.946 244.93 127.746 244.55C127.553 244.163 127.243 243.97 126.816 243.97C126.389 243.97 126.076 244.163 125.876 244.55C125.683 244.93 125.586 245.537 125.586 246.37C125.586 247.217 125.686 247.843 125.886 248.25C126.086 248.657 126.396 248.86 126.816 248.86Z" fill="white"/>
<path d="M915.85 250V244.7L914.19 245.26V244.34L916.31 242.83H917.42V250H915.85ZM918.581 251.64L919.261 250H918.671V248.54H920.331V249.99L919.341 251.64H918.581ZM923.919 250.13C923.006 250.13 922.313 249.81 921.839 249.17C921.366 248.53 921.129 247.597 921.129 246.37C921.129 243.923 922.059 242.7 923.919 242.7C925.779 242.7 926.709 243.923 926.709 246.37C926.709 247.597 926.473 248.53 925.999 249.17C925.526 249.81 924.833 250.13 923.919 250.13ZM923.919 248.86C924.339 248.86 924.649 248.657 924.849 248.25C925.049 247.843 925.149 247.217 925.149 246.37C925.149 245.537 925.049 244.93 924.849 244.55C924.656 244.163 924.346 243.97 923.919 243.97C923.493 243.97 923.179 244.163 922.979 244.55C922.786 244.93 922.689 245.537 922.689 246.37C922.689 247.217 922.789 247.843 922.989 248.25C923.189 248.657 923.499 248.86 923.919 248.86Z" fill="white"/>
<path d="M817.23 250.13C816.317 250.13 815.623 249.81 815.15 249.17C814.677 248.53 814.44 247.597 814.44 246.37C814.44 243.923 815.37 242.7 817.23 242.7C819.09 242.7 820.02 243.923 820.02 246.37C820.02 247.597 819.783 248.53 819.31 249.17C818.837 249.81 818.143 250.13 817.23 250.13ZM817.23 248.86C817.65 248.86 817.96 248.657 818.16 248.25C818.36 247.843 818.46 247.217 818.46 246.37C818.46 245.537 818.36 244.93 818.16 244.55C817.967 244.163 817.657 243.97 817.23 243.97C816.803 243.97 816.49 244.163 816.29 244.55C816.097 244.93 816 245.537 816 246.37C816 247.217 816.1 247.843 816.3 248.25C816.5 248.657 816.81 248.86 817.23 248.86ZM820.73 251.64L821.41 250H820.82V248.54H822.48V249.99L821.49 251.64H820.73ZM823.533 249.68V248.35C823.827 248.497 824.153 248.613 824.513 248.7C824.88 248.78 825.233 248.82 825.573 248.82C826 248.82 826.337 248.72 826.583 248.52C826.83 248.32 826.953 248.047 826.953 247.7C826.953 247.367 826.85 247.107 826.643 246.92C826.443 246.733 826.157 246.64 825.783 246.64C825.35 246.64 824.907 246.74 824.453 246.94L823.573 246.25L823.993 242.83H827.943V244.1H825.113L824.933 245.66C825.273 245.54 825.62 245.48 825.973 245.48C826.713 245.48 827.297 245.68 827.723 246.08C828.15 246.473 828.363 247.017 828.363 247.71C828.363 248.197 828.253 248.623 828.033 248.99C827.813 249.35 827.5 249.63 827.093 249.83C826.693 250.03 826.223 250.13 825.683 250.13C825.27 250.13 824.873 250.09 824.493 250.01C824.12 249.93 823.8 249.82 823.533 249.68Z" fill="white"/>
<path d="M721.23 250.13C720.317 250.13 719.623 249.81 719.15 249.17C718.677 248.53 718.44 247.597 718.44 246.37C718.44 243.923 719.37 242.7 721.23 242.7C723.09 242.7 724.02 243.923 724.02 246.37C724.02 247.597 723.783 248.53 723.31 249.17C722.837 249.81 722.143 250.13 721.23 250.13ZM721.23 248.86C721.65 248.86 721.96 248.657 722.16 248.25C722.36 247.843 722.46 247.217 722.46 246.37C722.46 245.537 722.36 244.93 722.16 244.55C721.967 244.163 721.657 243.97 721.23 243.97C720.803 243.97 720.49 244.163 720.29 244.55C720.097 244.93 720 245.537 720 246.37C720 247.217 720.1 247.843 720.3 248.25C720.5 248.657 720.81 248.86 721.23 248.86Z" fill="white"/>
<path d="M1016.85 250V244.7L1015.19 245.26V244.34L1017.31 242.83H1018.42V250H1016.85ZM1019.58 251.64L1020.26 250H1019.67V248.54H1021.33V249.99L1020.34 251.64H1019.58ZM1022.38 249.68V248.35C1022.68 248.497 1023 248.613 1023.36 248.7C1023.73 248.78 1024.08 248.82 1024.42 248.82C1024.85 248.82 1025.19 248.72 1025.43 248.52C1025.68 248.32 1025.8 248.047 1025.8 247.7C1025.8 247.367 1025.7 247.107 1025.49 246.92C1025.29 246.733 1025.01 246.64 1024.63 246.64C1024.2 246.64 1023.76 246.74 1023.3 246.94L1022.42 246.25L1022.84 242.83H1026.79V244.1H1023.96L1023.78 245.66C1024.12 245.54 1024.47 245.48 1024.82 245.48C1025.56 245.48 1026.15 245.68 1026.57 246.08C1027 246.473 1027.21 247.017 1027.21 247.71C1027.21 248.197 1027.1 248.623 1026.88 248.99C1026.66 249.35 1026.35 249.63 1025.94 249.83C1025.54 250.03 1025.07 250.13 1024.53 250.13C1024.12 250.13 1023.72 250.09 1023.34 250.01C1022.97 249.93 1022.65 249.82 1022.38 249.68Z" fill="white"/>
<path d="M1114.17 250V248.95L1115.99 246.95C1116.34 246.563 1116.62 246.25 1116.81 246.01C1117.01 245.763 1117.15 245.557 1117.23 245.39C1117.31 245.217 1117.35 245.057 1117.35 244.91C1117.35 244.303 1116.97 244 1116.2 244C1115.66 244 1115.05 244.183 1114.36 244.55V243.21C1114.67 243.05 1115.01 242.927 1115.37 242.84C1115.74 242.747 1116.09 242.7 1116.44 242.7C1117.21 242.7 1117.81 242.877 1118.24 243.23C1118.67 243.583 1118.88 244.087 1118.88 244.74C1118.88 245.007 1118.83 245.273 1118.72 245.54C1118.61 245.807 1118.44 246.107 1118.19 246.44C1117.95 246.767 1117.62 247.16 1117.21 247.62L1116.2 248.73H1118.9V250H1114.17ZM1119.72 251.64L1120.4 250H1119.81V248.54H1121.47V249.99L1120.48 251.64H1119.72ZM1125.06 250.13C1124.15 250.13 1123.46 249.81 1122.98 249.17C1122.51 248.53 1122.27 247.597 1122.27 246.37C1122.27 243.923 1123.2 242.7 1125.06 242.7C1126.92 242.7 1127.85 243.923 1127.85 246.37C1127.85 247.597 1127.62 248.53 1127.14 249.17C1126.67 249.81 1125.98 250.13 1125.06 250.13ZM1125.06 248.86C1125.48 248.86 1125.79 248.657 1125.99 248.25C1126.19 247.843 1126.29 247.217 1126.29 246.37C1126.29 245.537 1126.19 244.93 1125.99 244.55C1125.8 244.163 1125.49 243.97 1125.06 243.97C1124.64 243.97 1124.32 244.163 1124.12 244.55C1123.93 244.93 1123.83 245.537 1123.83 246.37C1123.83 247.217 1123.93 247.843 1124.13 248.25C1124.33 248.657 1124.64 248.86 1125.06 248.86Z" fill="white"/>
<path d="M1215.17 250V248.95L1216.99 246.95C1217.34 246.563 1217.62 246.25 1217.81 246.01C1218.01 245.763 1218.15 245.557 1218.23 245.39C1218.31 245.217 1218.35 245.057 1218.35 244.91C1218.35 244.303 1217.97 244 1217.2 244C1216.66 244 1216.05 244.183 1215.36 244.55V243.21C1215.67 243.05 1216.01 242.927 1216.37 242.84C1216.74 242.747 1217.09 242.7 1217.44 242.7C1218.21 242.7 1218.81 242.877 1219.24 243.23C1219.67 243.583 1219.88 244.087 1219.88 244.74C1219.88 245.007 1219.83 245.273 1219.72 245.54C1219.61 245.807 1219.44 246.107 1219.19 246.44C1218.95 246.767 1218.62 247.16 1218.21 247.62L1217.2 248.73H1219.9V250H1215.17ZM1220.72 251.64L1221.4 250H1220.81V248.54H1222.47V249.99L1221.48 251.64H1220.72ZM1223.53 249.68V248.35C1223.82 248.497 1224.15 248.613 1224.51 248.7C1224.87 248.78 1225.23 248.82 1225.57 248.82C1225.99 248.82 1226.33 248.72 1226.58 248.52C1226.82 248.32 1226.95 248.047 1226.95 247.7C1226.95 247.367 1226.84 247.107 1226.64 246.92C1226.44 246.733 1226.15 246.64 1225.78 246.64C1225.34 246.64 1224.9 246.74 1224.45 246.94L1223.57 246.25L1223.99 242.83H1227.94V244.1H1225.11L1224.93 245.66C1225.27 245.54 1225.61 245.48 1225.97 245.48C1226.71 245.48 1227.29 245.68 1227.72 246.08C1228.14 246.473 1228.36 247.017 1228.36 247.71C1228.36 248.197 1228.25 248.623 1228.03 248.99C1227.81 249.35 1227.49 249.63 1227.09 249.83C1226.69 250.03 1226.22 250.13 1225.68 250.13C1225.26 250.13 1224.87 250.09 1224.49 250.01C1224.11 249.93 1223.79 249.82 1223.53 249.68Z" fill="white"/>
<path d="M22.23 250.13C21.3167 250.13 20.6233 249.81 20.15 249.17C19.6767 248.53 19.44 247.597 19.44 246.37C19.44 243.923 20.37 242.7 22.23 242.7C24.09 242.7 25.02 243.923 25.02 246.37C25.02 247.597 24.7833 248.53 24.31 249.17C23.8367 249.81 23.1433 250.13 22.23 250.13ZM22.23 248.86C22.65 248.86 22.96 248.657 23.16 248.25C23.36 247.843 23.46 247.217 23.46 246.37C23.46 245.537 23.36 244.93 23.16 244.55C22.9667 244.163 22.6567 243.97 22.23 243.97C21.8033 243.97 21.49 244.163 21.29 244.55C21.0967 244.93 21 245.537 21 246.37C21 247.217 21.1 247.843 21.3 248.25C21.5 248.657 21.81 248.86 22.23 248.86Z" fill="white"/>
<path d="M212.17 250V248.95L213.99 246.95C214.343 246.563 214.617 246.25 214.81 246.01C215.01 245.763 215.15 245.557 215.23 245.39C215.31 245.217 215.35 245.057 215.35 244.91C215.35 244.303 214.967 244 214.2 244C213.66 244 213.047 244.183 212.36 244.55V243.21C212.673 243.05 213.01 242.927 213.37 242.84C213.737 242.747 214.093 242.7 214.44 242.7C215.213 242.7 215.813 242.877 216.24 243.23C216.667 243.583 216.88 244.087 216.88 244.74C216.88 245.007 216.827 245.273 216.72 245.54C216.613 245.807 216.437 246.107 216.19 246.44C215.95 246.767 215.623 247.16 215.21 247.62L214.2 248.73H216.9V250H212.17ZM220.494 250.13C219.58 250.13 218.887 249.81 218.414 249.17C217.94 248.53 217.704 247.597 217.704 246.37C217.704 243.923 218.634 242.7 220.494 242.7C222.354 242.7 223.284 243.923 223.284 246.37C223.284 247.597 223.047 248.53 222.574 249.17C222.1 249.81 221.407 250.13 220.494 250.13ZM220.494 248.86C220.914 248.86 221.224 248.657 221.424 248.25C221.624 247.843 221.724 247.217 221.724 246.37C221.724 245.537 221.624 244.93 221.424 244.55C221.23 244.163 220.92 243.97 220.494 243.97C220.067 243.97 219.754 244.163 219.554 244.55C219.36 244.93 219.264 245.537 219.264 246.37C219.264 247.217 219.364 247.843 219.564 248.25C219.764 248.657 220.074 248.86 220.494 248.86ZM226.959 250.13C226.045 250.13 225.352 249.81 224.879 249.17C224.405 248.53 224.169 247.597 224.169 246.37C224.169 243.923 225.099 242.7 226.959 242.7C228.819 242.7 229.749 243.923 229.749 246.37C229.749 247.597 229.512 248.53 229.039 249.17C228.565 249.81 227.872 250.13 226.959 250.13ZM226.959 248.86C227.379 248.86 227.689 248.657 227.889 248.25C228.089 247.843 228.189 247.217 228.189 246.37C228.189 245.537 228.089 244.93 227.889 244.55C227.695 244.163 227.385 243.97 226.959 243.97C226.532 243.97 226.219 244.163 226.019 244.55C225.825 244.93 225.729 245.537 225.729 246.37C225.729 247.217 225.829 247.843 226.029 248.25C226.229 248.657 226.539 248.86 226.959 248.86Z" fill="white"/>
<path d="M311.23 249.68V248.35C311.503 248.497 311.82 248.613 312.18 248.7C312.54 248.78 312.883 248.82 313.21 248.82C313.683 248.82 314.047 248.723 314.3 248.53C314.553 248.337 314.68 248.06 314.68 247.7C314.68 247.36 314.58 247.097 314.38 246.91C314.187 246.723 313.9 246.63 313.52 246.63C313.173 246.63 312.833 246.693 312.5 246.82L312.01 246L313.81 244.1H311.36V242.83H315.79V243.86L314.07 245.62C314.717 245.693 315.213 245.92 315.56 246.3C315.913 246.673 316.09 247.143 316.09 247.71C316.09 248.21 315.977 248.643 315.75 249.01C315.523 249.37 315.197 249.647 314.77 249.84C314.35 250.033 313.85 250.13 313.27 250.13C312.89 250.13 312.523 250.09 312.17 250.01C311.817 249.937 311.503 249.827 311.23 249.68ZM319.582 250.13C318.668 250.13 317.975 249.81 317.502 249.17C317.028 248.53 316.792 247.597 316.792 246.37C316.792 243.923 317.722 242.7 319.582 242.7C321.442 242.7 322.372 243.923 322.372 246.37C322.372 247.597 322.135 248.53 321.662 249.17C321.188 249.81 320.495 250.13 319.582 250.13ZM319.582 248.86C320.002 248.86 320.312 248.657 320.512 248.25C320.712 247.843 320.812 247.217 320.812 246.37C320.812 245.537 320.712 244.93 320.512 244.55C320.318 244.163 320.008 243.97 319.582 243.97C319.155 243.97 318.842 244.163 318.642 244.55C318.448 244.93 318.352 245.537 318.352 246.37C318.352 247.217 318.452 247.843 318.652 248.25C318.852 248.657 319.162 248.86 319.582 248.86ZM326.046 250.13C325.133 250.13 324.44 249.81 323.966 249.17C323.493 248.53 323.256 247.597 323.256 246.37C323.256 243.923 324.186 242.7 326.046 242.7C327.906 242.7 328.836 243.923 328.836 246.37C328.836 247.597 328.6 248.53 328.126 249.17C327.653 249.81 326.96 250.13 326.046 250.13ZM326.046 248.86C326.466 248.86 326.776 248.657 326.976 248.25C327.176 247.843 327.276 247.217 327.276 246.37C327.276 245.537 327.176 244.93 326.976 244.55C326.783 244.163 326.473 243.97 326.046 243.97C325.62 243.97 325.306 244.163 325.106 244.55C324.913 244.93 324.816 245.537 324.816 246.37C324.816 247.217 324.916 247.843 325.116 248.25C325.316 248.657 325.626 248.86 326.046 248.86Z" fill="white"/>
<path d="M412.28 248.64V247.44L415.72 242.83H417.11V247.34H418.11V248.64H417.11V250H415.63V248.64H412.28ZM415.67 246.96V244.9L413.89 247.34H415.64L415.67 246.96ZM421.578 250.13C420.664 250.13 419.971 249.81 419.498 249.17C419.024 248.53 418.788 247.597 418.788 246.37C418.788 243.923 419.718 242.7 421.578 242.7C423.438 242.7 424.368 243.923 424.368 246.37C424.368 247.597 424.131 248.53 423.658 249.17C423.184 249.81 422.491 250.13 421.578 250.13ZM421.578 248.86C421.998 248.86 422.308 248.657 422.508 248.25C422.708 247.843 422.808 247.217 422.808 246.37C422.808 245.537 422.708 244.93 422.508 244.55C422.314 244.163 422.004 243.97 421.578 243.97C421.151 243.97 420.838 244.163 420.638 244.55C420.444 244.93 420.348 245.537 420.348 246.37C420.348 247.217 420.448 247.843 420.648 248.25C420.848 248.657 421.158 248.86 421.578 248.86ZM428.043 250.13C427.129 250.13 426.436 249.81 425.963 249.17C425.489 248.53 425.253 247.597 425.253 246.37C425.253 243.923 426.183 242.7 428.043 242.7C429.903 242.7 430.833 243.923 430.833 246.37C430.833 247.597 430.596 248.53 430.123 249.17C429.649 249.81 428.956 250.13 428.043 250.13ZM428.043 248.86C428.463 248.86 428.773 248.657 428.973 248.25C429.173 247.843 429.273 247.217 429.273 246.37C429.273 245.537 429.173 244.93 428.973 244.55C428.779 244.163 428.469 243.97 428.043 243.97C427.616 243.97 427.303 244.163 427.103 244.55C426.909 244.93 426.813 245.537 426.813 246.37C426.813 247.217 426.913 247.843 427.113 248.25C427.313 248.657 427.623 248.86 428.043 248.86Z" fill="white"/>
<path d="M512.5 249.68V248.35C512.793 248.497 513.12 248.613 513.48 248.7C513.847 248.78 514.2 248.82 514.54 248.82C514.967 248.82 515.303 248.72 515.55 248.52C515.797 248.32 515.92 248.047 515.92 247.7C515.92 247.367 515.817 247.107 515.61 246.92C515.41 246.733 515.123 246.64 514.75 246.64C514.317 246.64 513.873 246.74 513.42 246.94L512.54 246.25L512.96 242.83H516.91V244.1H514.08L513.9 245.66C514.24 245.54 514.587 245.48 514.94 245.48C515.68 245.48 516.263 245.68 516.69 246.08C517.117 246.473 517.33 247.017 517.33 247.71C517.33 248.197 517.22 248.623 517 248.99C516.78 249.35 516.467 249.63 516.06 249.83C515.66 250.03 515.19 250.13 514.65 250.13C514.237 250.13 513.84 250.09 513.46 250.01C513.087 249.93 512.767 249.82 512.5 249.68ZM520.914 250.13C520 250.13 519.307 249.81 518.834 249.17C518.36 248.53 518.124 247.597 518.124 246.37C518.124 243.923 519.054 242.7 520.914 242.7C522.774 242.7 523.704 243.923 523.704 246.37C523.704 247.597 523.467 248.53 522.994 249.17C522.52 249.81 521.827 250.13 520.914 250.13ZM520.914 248.86C521.334 248.86 521.644 248.657 521.844 248.25C522.044 247.843 522.144 247.217 522.144 246.37C522.144 245.537 522.044 244.93 521.844 244.55C521.65 244.163 521.34 243.97 520.914 243.97C520.487 243.97 520.174 244.163 519.974 244.55C519.78 244.93 519.684 245.537 519.684 246.37C519.684 247.217 519.784 247.843 519.984 248.25C520.184 248.657 520.494 248.86 520.914 248.86ZM527.378 250.13C526.465 250.13 525.772 249.81 525.298 249.17C524.825 248.53 524.588 247.597 524.588 246.37C524.588 243.923 525.518 242.7 527.378 242.7C529.238 242.7 530.168 243.923 530.168 246.37C530.168 247.597 529.932 248.53 529.458 249.17C528.985 249.81 528.292 250.13 527.378 250.13ZM527.378 248.86C527.798 248.86 528.108 248.657 528.308 248.25C528.508 247.843 528.608 247.217 528.608 246.37C528.608 245.537 528.508 244.93 528.308 244.55C528.115 244.163 527.805 243.97 527.378 243.97C526.952 243.97 526.638 244.163 526.438 244.55C526.245 244.93 526.148 245.537 526.148 246.37C526.148 247.217 526.248 247.843 526.448 248.25C526.648 248.657 526.958 248.86 527.378 248.86Z" fill="white"/>
<path d="M47.136 191V179.368H49.44L54.464 186.936V179.368H56.928V191H54.624L49.6 183.416V191H47.136ZM58.1745 191L62.5905 179.368H65.0065L69.4545 191H66.6705L65.9025 188.616H61.6145L60.8465 191H58.1745ZM62.2865 186.504H65.2145L63.7425 181.928L62.2865 186.504ZM71.7649 191V181.48H68.3249V179.368H77.7009V181.48H74.2609V191H71.7649ZM79.3704 191V179.368H81.8664V191H79.3704ZM87.4 191L83.112 179.368H85.928L88.648 187.928L91.4 179.368H94.104L89.816 191H87.4ZM95.3548 191V179.368H102.923V181.48H97.8508V184.072H102.459V186.184H97.8508V188.888H103.083V191H95.3548Z" fill="white"/>
<path d="M125.59 190V182.58L123.266 183.364V182.076L126.234 179.962H127.788V190H125.59ZM129.092 189.552V187.69C129.474 187.895 129.918 188.059 130.422 188.18C130.926 188.292 131.406 188.348 131.864 188.348C132.526 188.348 133.035 188.213 133.39 187.942C133.744 187.671 133.922 187.284 133.922 186.78C133.922 186.304 133.782 185.935 133.502 185.674C133.231 185.413 132.83 185.282 132.298 185.282C131.812 185.282 131.336 185.371 130.87 185.548L130.184 184.4L132.704 181.74H129.274V179.962H135.476V181.404L133.068 183.868C133.973 183.971 134.668 184.288 135.154 184.82C135.648 185.343 135.896 186.001 135.896 186.794C135.896 187.494 135.737 188.101 135.42 188.614C135.102 189.118 134.645 189.505 134.048 189.776C133.46 190.047 132.76 190.182 131.948 190.182C131.416 190.182 130.902 190.126 130.408 190.014C129.913 189.911 129.474 189.757 129.092 189.552ZM136.962 189.552V187.69C137.372 187.895 137.83 188.059 138.334 188.18C138.847 188.292 139.342 188.348 139.818 188.348C140.415 188.348 140.886 188.208 141.232 187.928C141.577 187.648 141.75 187.265 141.75 186.78C141.75 186.313 141.605 185.949 141.316 185.688C141.036 185.427 140.634 185.296 140.112 185.296C139.505 185.296 138.884 185.436 138.25 185.716L137.018 184.75L137.606 179.962H143.136V181.74H139.174L138.922 183.924C139.398 183.756 139.883 183.672 140.378 183.672C141.414 183.672 142.23 183.952 142.828 184.512C143.425 185.063 143.724 185.823 143.724 186.794C143.724 187.475 143.57 188.073 143.262 188.586C142.954 189.09 142.515 189.482 141.946 189.762C141.386 190.042 140.728 190.182 139.972 190.182C139.393 190.182 138.838 190.126 138.306 190.014C137.783 189.902 137.335 189.748 136.962 189.552ZM145 190V182.003H146.793L149.334 187.272L151.842 182.003H153.635V190H151.941V184.819L149.829 189.23H148.773L146.661 184.885V190H145ZM155.194 190V182.003H157.999C159.018 182.003 159.766 182.175 160.243 182.52C160.727 182.865 160.969 183.4 160.969 184.126C160.969 184.485 160.874 184.808 160.683 185.094C160.492 185.38 160.228 185.607 159.891 185.776C160.837 186.069 161.31 186.696 161.31 187.657C161.31 189.219 160.228 190 158.065 190H155.194ZM156.844 185.314H157.68C158.259 185.314 158.666 185.241 158.901 185.094C159.143 184.94 159.264 184.683 159.264 184.324C159.264 183.95 159.147 183.69 158.912 183.543C158.677 183.389 158.267 183.312 157.68 183.312H156.844V185.314ZM156.844 188.68H157.933C158.498 188.68 158.912 188.592 159.176 188.416C159.44 188.24 159.572 187.965 159.572 187.591C159.572 187.224 159.44 186.957 159.176 186.788C158.912 186.619 158.498 186.535 157.933 186.535H156.844V188.68Z" fill="white"/>
</g>
<rect x="721.5" y="121.5" width="499" height="31" rx="7.5" fill="#3E4253" stroke="white"/>
<path d="M1120 121.5C1124.14 121.5 1127.5 124.858 1127.5 129V145C1127.5 149.142 1124.14 152.5 1120 152.5H721.5V121.5H1120Z" fill="white" stroke="white"/>
<path d="M681.464 142.616V140.424C681.933 140.627 682.349 140.776 682.712 140.872C683.085 140.968 683.437 141.016 683.768 141.016C684.931 141.016 685.512 140.456 685.512 139.336V133.448L683.384 132.76V131.368H688.008V139.56C688.008 140.723 687.667 141.624 686.984 142.264C686.312 142.904 685.368 143.224 684.152 143.224C683.661 143.224 683.176 143.171 682.696 143.064C682.227 142.968 681.816 142.819 681.464 142.616ZM690.105 143V131.368H692.601V143H690.105ZM697.702 143V133.48H694.262V131.368H703.638V133.48H700.198V143H697.702Z" fill="white"/>
<path d="M1159.24 142V140.53L1161.79 137.73C1162.28 137.189 1162.66 136.75 1162.93 136.414C1163.21 136.069 1163.41 135.779 1163.52 135.546C1163.63 135.303 1163.69 135.079 1163.69 134.874C1163.69 134.025 1163.15 133.6 1162.08 133.6C1161.32 133.6 1160.47 133.857 1159.5 134.37V132.494C1159.94 132.27 1160.41 132.097 1160.92 131.976C1161.43 131.845 1161.93 131.78 1162.42 131.78C1163.5 131.78 1164.34 132.027 1164.94 132.522C1165.53 133.017 1165.83 133.721 1165.83 134.636C1165.83 135.009 1165.76 135.383 1165.61 135.756C1165.46 136.129 1165.21 136.549 1164.87 137.016C1164.53 137.473 1164.07 138.024 1163.49 138.668L1162.08 140.222H1165.86V142H1159.24ZM1167.14 142V139.956H1169.46V142H1167.14ZM1174.49 142.182C1173.21 142.182 1172.24 141.734 1171.57 140.838C1170.91 139.942 1170.58 138.635 1170.58 136.918C1170.58 133.493 1171.88 131.78 1174.49 131.78C1177.09 131.78 1178.39 133.493 1178.39 136.918C1178.39 138.635 1178.06 139.942 1177.4 140.838C1176.74 141.734 1175.77 142.182 1174.49 142.182ZM1174.49 140.404C1175.07 140.404 1175.51 140.119 1175.79 139.55C1176.07 138.981 1176.21 138.103 1176.21 136.918C1176.21 135.751 1176.07 134.902 1175.79 134.37C1175.52 133.829 1175.08 133.558 1174.49 133.558C1173.89 133.558 1173.45 133.829 1173.17 134.37C1172.9 134.902 1172.76 135.751 1172.76 136.918C1172.76 138.103 1172.9 138.981 1173.18 139.55C1173.46 140.119 1173.9 140.404 1174.49 140.404ZM1187.07 139.172C1187.07 140.115 1186.73 140.852 1186.06 141.384C1185.39 141.916 1184.47 142.182 1183.27 142.182C1182.09 142.182 1181.16 141.916 1180.49 141.384C1179.81 140.852 1179.48 140.115 1179.48 139.172C1179.48 138.612 1179.63 138.113 1179.94 137.674C1180.26 137.235 1180.68 136.904 1181.21 136.68C1180.23 136.157 1179.74 135.429 1179.74 134.496C1179.74 133.637 1180.05 132.97 1180.67 132.494C1181.28 132.018 1182.15 131.78 1183.27 131.78C1184.39 131.78 1185.26 132.018 1185.88 132.494C1186.49 132.97 1186.8 133.637 1186.8 134.496C1186.8 135.429 1186.31 136.157 1185.33 136.68C1185.86 136.904 1186.28 137.235 1186.59 137.674C1186.91 138.113 1187.07 138.612 1187.07 139.172ZM1183.27 136.008C1184.26 135.793 1184.76 135.331 1184.76 134.622C1184.76 133.847 1184.26 133.46 1183.27 133.46C1182.28 133.46 1181.79 133.847 1181.79 134.622C1181.79 135.331 1182.28 135.793 1183.27 136.008ZM1183.27 137.366C1182.11 137.581 1181.54 138.136 1181.54 139.032C1181.54 139.489 1181.69 139.849 1182 140.11C1182.31 140.371 1182.73 140.502 1183.27 140.502C1183.82 140.502 1184.25 140.371 1184.55 140.11C1184.85 139.849 1185.01 139.489 1185.01 139.032C1185.01 138.136 1184.43 137.581 1183.27 137.366ZM1191.58 141.678V139.998C1192.06 140.175 1192.49 140.306 1192.88 140.39C1193.27 140.465 1193.68 140.502 1194.1 140.502C1194.9 140.502 1195.3 140.297 1195.3 139.886C1195.3 139.727 1195.23 139.597 1195.07 139.494C1194.92 139.391 1194.67 139.289 1194.31 139.186L1193.27 138.892C1192.65 138.705 1192.18 138.444 1191.86 138.108C1191.54 137.772 1191.38 137.333 1191.38 136.792C1191.38 136.055 1191.66 135.476 1192.22 135.056C1192.78 134.636 1193.55 134.426 1194.53 134.426C1194.95 134.426 1195.38 134.463 1195.81 134.538C1196.24 134.613 1196.61 134.715 1196.91 134.846V136.498C1196.15 136.209 1195.37 136.064 1194.58 136.064C1193.83 136.064 1193.46 136.255 1193.46 136.638C1193.46 136.769 1193.53 136.885 1193.68 136.988C1193.83 137.091 1194.08 137.193 1194.42 137.296L1195.46 137.59C1196.17 137.795 1196.66 138.057 1196.94 138.374C1197.23 138.691 1197.38 139.153 1197.38 139.76C1197.38 140.553 1197.1 141.155 1196.55 141.566C1196 141.967 1195.2 142.168 1194.14 142.168C1193.67 142.168 1193.19 142.121 1192.71 142.028C1192.24 141.944 1191.86 141.827 1191.58 141.678ZM1204.82 141.65C1204.1 141.995 1203.24 142.168 1202.24 142.168C1200.97 142.168 1200 141.837 1199.31 141.174C1198.63 140.502 1198.29 139.536 1198.29 138.276C1198.29 137.072 1198.62 136.129 1199.27 135.448C1199.93 134.767 1200.84 134.426 1202 134.426C1203.03 134.426 1203.81 134.725 1204.35 135.322C1204.9 135.919 1205.17 136.745 1205.17 137.8V138.878H1200.41C1200.49 139.457 1200.7 139.877 1201.02 140.138C1201.36 140.399 1201.84 140.53 1202.46 140.53C1202.86 140.53 1203.23 140.497 1203.58 140.432C1203.95 140.357 1204.36 140.231 1204.82 140.054V141.65ZM1201.97 135.966C1200.98 135.966 1200.44 136.475 1200.36 137.492H1203.28C1203.26 137.016 1203.13 136.643 1202.9 136.372C1202.66 136.101 1202.36 135.966 1201.97 135.966ZM1212.27 140.11V141.776C1211.98 141.888 1211.64 141.981 1211.24 142.056C1210.85 142.131 1210.45 142.168 1210.04 142.168C1207.59 142.168 1206.36 140.852 1206.36 138.22C1206.36 137.044 1206.69 136.12 1207.37 135.448C1208.05 134.767 1208.98 134.426 1210.17 134.426C1210.81 134.426 1211.44 134.533 1212.06 134.748V136.386C1211.6 136.153 1211.1 136.036 1210.54 136.036C1209.89 136.036 1209.39 136.218 1209.03 136.582C1208.68 136.937 1208.5 137.483 1208.5 138.22C1208.5 138.929 1208.65 139.494 1208.96 139.914C1209.28 140.325 1209.74 140.53 1210.35 140.53C1210.65 140.53 1210.96 140.493 1211.27 140.418C1211.59 140.343 1211.92 140.241 1212.27 140.11Z" fill="white"/>
<rect x="721.5" y="169.5" width="499" height="31" rx="7.5" fill="#3E4253" stroke="white"/>
<g filter="url(#filter1_d_1205_12408)">
<path d="M721 169H727C731.418 169 735 172.582 735 177V193C735 197.418 731.418 201 727 201H721V169Z" fill="#F29111"/>
<path d="M727 169.5C731.142 169.5 734.5 172.858 734.5 177V193C734.5 197.142 731.142 200.5 727 200.5H721.5V169.5H727Z" stroke="white"/>
</g>
<path d="M1165.52 190.182C1164.24 190.182 1163.27 189.734 1162.61 188.838C1161.95 187.942 1161.62 186.635 1161.62 184.918C1161.62 181.493 1162.92 179.78 1165.52 179.78C1168.13 179.78 1169.43 181.493 1169.43 184.918C1169.43 186.635 1169.1 187.942 1168.43 188.838C1167.77 189.734 1166.8 190.182 1165.52 190.182ZM1165.52 188.404C1166.11 188.404 1166.54 188.119 1166.82 187.55C1167.1 186.981 1167.24 186.103 1167.24 184.918C1167.24 183.751 1167.1 182.902 1166.82 182.37C1166.55 181.829 1166.12 181.558 1165.52 181.558C1164.92 181.558 1164.49 181.829 1164.21 182.37C1163.94 182.902 1163.8 183.751 1163.8 184.918C1163.8 186.103 1163.94 186.981 1164.22 187.55C1164.5 188.119 1164.93 188.404 1165.52 188.404ZM1170.55 190V187.956H1172.87V190H1170.55ZM1174.84 190V182.58L1172.52 183.364V182.076L1175.49 179.962H1177.04V190H1174.84ZM1178.41 188.096V186.416L1183.23 179.962H1185.18V186.276H1186.58V188.096H1185.18V190H1183.1V188.096H1178.41ZM1183.16 185.744V182.86L1180.67 186.276H1183.12L1183.16 185.744ZM1190.96 189.678V187.998C1191.43 188.175 1191.87 188.306 1192.26 188.39C1192.65 188.465 1193.06 188.502 1193.48 188.502C1194.28 188.502 1194.68 188.297 1194.68 187.886C1194.68 187.727 1194.6 187.597 1194.44 187.494C1194.29 187.391 1194.04 187.289 1193.69 187.186L1192.65 186.892C1192.02 186.705 1191.55 186.444 1191.24 186.108C1190.92 185.772 1190.76 185.333 1190.76 184.792C1190.76 184.055 1191.04 183.476 1191.6 183.056C1192.16 182.636 1192.93 182.426 1193.91 182.426C1194.33 182.426 1194.75 182.463 1195.18 182.538C1195.61 182.613 1195.98 182.715 1196.29 182.846V184.498C1195.52 184.209 1194.75 184.064 1193.95 184.064C1193.21 184.064 1192.83 184.255 1192.83 184.638C1192.83 184.769 1192.91 184.885 1193.06 184.988C1193.21 185.091 1193.45 185.193 1193.8 185.296L1194.83 185.59C1195.54 185.795 1196.04 186.057 1196.32 186.374C1196.61 186.691 1196.75 187.153 1196.75 187.76C1196.75 188.553 1196.48 189.155 1195.93 189.566C1195.38 189.967 1194.57 190.168 1193.52 190.168C1193.04 190.168 1192.57 190.121 1192.09 190.028C1191.61 189.944 1191.24 189.827 1190.96 189.678ZM1204.19 189.65C1203.47 189.995 1202.61 190.168 1201.62 190.168C1200.35 190.168 1199.37 189.837 1198.69 189.174C1198.01 188.502 1197.67 187.536 1197.67 186.276C1197.67 185.072 1197.99 184.129 1198.65 183.448C1199.31 182.767 1200.22 182.426 1201.38 182.426C1202.4 182.426 1203.19 182.725 1203.73 183.322C1204.27 183.919 1204.54 184.745 1204.54 185.8V186.878H1199.78C1199.87 187.457 1200.07 187.877 1200.4 188.138C1200.73 188.399 1201.21 188.53 1201.84 188.53C1202.23 188.53 1202.6 188.497 1202.96 188.432C1203.32 188.357 1203.73 188.231 1204.19 188.054V189.65ZM1201.35 183.966C1200.35 183.966 1199.81 184.475 1199.74 185.492H1202.65C1202.63 185.016 1202.51 184.643 1202.27 184.372C1202.04 184.101 1201.73 183.966 1201.35 183.966ZM1211.64 188.11V189.776C1211.35 189.888 1211.01 189.981 1210.62 190.056C1210.23 190.131 1209.83 190.168 1209.42 190.168C1206.96 190.168 1205.73 188.852 1205.73 186.22C1205.73 185.044 1206.07 184.12 1206.74 183.448C1207.42 182.767 1208.36 182.426 1209.54 182.426C1210.19 182.426 1210.82 182.533 1211.43 182.748V184.386C1210.97 184.153 1210.47 184.036 1209.92 184.036C1209.27 184.036 1208.76 184.218 1208.41 184.582C1208.05 184.937 1207.88 185.483 1207.88 186.22C1207.88 186.929 1208.03 187.494 1208.34 187.914C1208.65 188.325 1209.12 188.53 1209.72 188.53C1210.02 188.53 1210.33 188.493 1210.65 188.418C1210.96 188.343 1211.3 188.241 1211.64 188.11Z" fill="white"/>
<path d="M648.136 191V179.368H650.44L655.464 186.936V179.368H657.928V191H655.624L650.6 183.416V191H648.136ZM659.175 191L663.591 179.368H666.007L670.455 191H667.671L666.903 188.616H662.615L661.847 191H659.175ZM663.286 186.504H666.215L664.743 181.928L663.286 186.504ZM672.765 191V181.48H669.325V179.368H678.701V181.48H675.261V191H672.765ZM680.37 191V179.368H682.866V191H680.37ZM688.4 191L684.112 179.368H686.928L689.648 187.928L692.4 179.368H695.104L690.816 191H688.4ZM696.355 191V179.368H703.923V181.48H698.851V184.072H703.459V186.184H698.851V188.888H704.083V191H696.355Z" fill="white"/>
<path d="M23.52 100V85.46H26.12L31.16 95.86L36.12 85.46H38.7V100H36.26V89.78L31.98 98.6H30.22L25.96 89.92V100H23.52ZM49.9627 99.5C49.5227 99.7267 48.9893 99.9067 48.3627 100.04C47.736 100.173 47.0693 100.24 46.3627 100.24C44.6293 100.24 43.3027 99.7667 42.3827 98.82C41.476 97.8733 41.0227 96.4933 41.0227 94.68C41.0227 92.9467 41.456 91.6133 42.3227 90.68C43.2027 89.7333 44.436 89.26 46.0227 89.26C47.4893 89.26 48.596 89.68 49.3427 90.52C50.0893 91.3467 50.4627 92.5333 50.4627 94.08V95.44H43.4427C43.536 96.44 43.836 97.1667 44.3427 97.62C44.8627 98.0733 45.616 98.3 46.6027 98.3C47.1893 98.3 47.7427 98.2467 48.2627 98.14C48.7827 98.02 49.3493 97.8333 49.9627 97.58V99.5ZM46.0027 91.1C44.4027 91.1 43.5427 91.9733 43.4227 93.72H48.2227C48.2093 91.9733 47.4693 91.1 46.0027 91.1ZM52.5992 100V89.48H54.2192L54.5792 91.12C54.9926 90.5333 55.4992 90.08 56.0992 89.76C56.6992 89.4267 57.3459 89.26 58.0392 89.26C59.5326 89.26 60.5592 89.8733 61.1192 91.1C61.5192 90.5267 62.0259 90.08 62.6392 89.76C63.2526 89.4267 63.9192 89.26 64.6392 89.26C65.7859 89.26 66.6592 89.6267 67.2592 90.36C67.8726 91.08 68.1792 92.1333 68.1792 93.52V100H65.7392V93.6C65.7392 92.0533 65.1392 91.28 63.9392 91.28C63.3792 91.28 62.8926 91.4467 62.4792 91.78C62.0792 92.1 61.7859 92.5533 61.5992 93.14V100H59.1992V93.6C59.1992 92.0533 58.5926 91.28 57.3792 91.28C56.8326 91.28 56.3526 91.4533 55.9392 91.8C55.5259 92.1467 55.2259 92.6133 55.0392 93.2V100H52.5992ZM75.42 100.22C73.8067 100.22 72.5467 99.74 71.64 98.78C70.7467 97.82 70.3 96.4733 70.3 94.74C70.3 93.0067 70.7467 91.66 71.64 90.7C72.5467 89.74 73.8067 89.26 75.42 89.26C77.0467 89.26 78.3067 89.74 79.2 90.7C80.0933 91.66 80.54 93.0067 80.54 94.74C80.54 96.4733 80.0933 97.82 79.2 98.78C78.3067 99.74 77.0467 100.22 75.42 100.22ZM75.42 98.32C77.1933 98.32 78.08 97.1267 78.08 94.74C78.08 92.3533 77.1933 91.16 75.42 91.16C73.6467 91.16 72.76 92.3533 72.76 94.74C72.76 97.1267 73.6467 98.32 75.42 98.32ZM82.7359 100V89.48H84.3559L84.7359 91.22C85.0693 90.66 85.4893 90.2267 85.9959 89.92C86.5026 89.6 87.0959 89.44 87.7759 89.44C88.0293 89.44 88.2626 89.46 88.4759 89.5V91.68H87.8959C87.1626 91.68 86.5626 91.8867 86.0959 92.3C85.6293 92.7 85.3226 93.2333 85.1759 93.9V100H82.7359ZM93.2442 99.9L89.5642 89.48H92.0842L95.0642 98.36L97.5242 89.48H99.9442L96.9642 99.46C96.6442 100.513 96.2709 101.373 95.8442 102.04C95.4176 102.707 94.8909 103.22 94.2642 103.58C93.6376 103.953 92.8509 104.233 91.9042 104.42L91.3842 102.42C92.2909 102.193 92.9709 101.9 93.4242 101.54C93.8776 101.18 94.2309 100.633 94.4842 99.9H93.2442ZM106.606 100V85.46H115.646V87.58H109.106V91.94H114.946V94.06H109.106V100H106.606ZM122.041 100.22C120.428 100.22 119.168 99.74 118.261 98.78C117.368 97.82 116.921 96.4733 116.921 94.74C116.921 93.0067 117.368 91.66 118.261 90.7C119.168 89.74 120.428 89.26 122.041 89.26C123.668 89.26 124.928 89.74 125.821 90.7C126.714 91.66 127.161 93.0067 127.161 94.74C127.161 96.4733 126.714 97.82 125.821 98.78C124.928 99.74 123.668 100.22 122.041 100.22ZM122.041 98.32C123.814 98.32 124.701 97.1267 124.701 94.74C124.701 92.3533 123.814 91.16 122.041 91.16C120.268 91.16 119.381 92.3533 119.381 94.74C119.381 97.1267 120.268 98.32 122.041 98.32ZM133.877 100.22C132.264 100.22 131.004 99.74 130.097 98.78C129.204 97.82 128.757 96.4733 128.757 94.74C128.757 93.0067 129.204 91.66 130.097 90.7C131.004 89.74 132.264 89.26 133.877 89.26C135.504 89.26 136.764 89.74 137.657 90.7C138.55 91.66 138.997 93.0067 138.997 94.74C138.997 96.4733 138.55 97.82 137.657 98.78C136.764 99.74 135.504 100.22 133.877 100.22ZM133.877 98.32C135.65 98.32 136.537 97.1267 136.537 94.74C136.537 92.3533 135.65 91.16 133.877 91.16C132.104 91.16 131.217 92.3533 131.217 94.74C131.217 97.1267 132.104 98.32 133.877 98.32ZM141.613 96.58V91.38H139.793V90.16L141.673 89.44L142.493 86.52H144.053V89.48H146.313V91.38H144.053V96.56C144.053 97.12 144.18 97.5267 144.433 97.78C144.686 98.02 145.06 98.14 145.553 98.14C145.7 98.14 145.853 98.14 146.013 98.14C146.186 98.1267 146.326 98.1133 146.433 98.1V100.02C146.166 100.06 145.92 100.087 145.693 100.1C145.48 100.113 145.24 100.12 144.973 100.12C143.84 100.12 142.993 99.8333 142.433 99.26C141.886 98.6867 141.613 97.7933 141.613 96.58ZM148.595 104.02V89.48H150.215L150.575 91.1C150.989 90.5133 151.489 90.06 152.075 89.74C152.675 89.42 153.315 89.26 153.995 89.26C155.382 89.26 156.469 89.7467 157.255 90.72C158.042 91.68 158.435 93.0267 158.435 94.76C158.435 96.4933 158.042 97.84 157.255 98.8C156.482 99.7467 155.395 100.22 153.995 100.22C152.849 100.22 151.862 99.8267 151.035 99.04V104.02H148.595ZM153.535 91.22C153.029 91.22 152.549 91.36 152.095 91.64C151.655 91.9067 151.295 92.2667 151.015 92.72V97.1C151.682 97.8867 152.522 98.28 153.535 98.28C154.322 98.28 154.922 97.98 155.335 97.38C155.762 96.7667 155.975 95.8867 155.975 94.74C155.975 93.5933 155.762 92.72 155.335 92.12C154.922 91.52 154.322 91.22 153.535 91.22ZM160.627 100V89.48H162.247L162.627 91.22C162.96 90.66 163.38 90.2267 163.887 89.92C164.393 89.6 164.987 89.44 165.667 89.44C165.92 89.44 166.153 89.46 166.367 89.5V91.68H165.787C165.053 91.68 164.453 91.8867 163.987 92.3C163.52 92.7 163.213 93.2333 163.067 93.9V100H160.627ZM168.415 87.36V85.36H171.195V87.36H168.415ZM168.775 100V91.26L167.715 90.48V89.48H171.215V100H168.775ZM174.005 100V89.48H175.625L175.985 91.18C176.452 90.5667 176.999 90.0933 177.625 89.76C178.265 89.4267 178.979 89.26 179.765 89.26C180.979 89.26 181.905 89.6267 182.545 90.36C183.185 91.08 183.505 92.1333 183.505 93.52V100H181.065V93.6C181.065 92.0533 180.405 91.28 179.085 91.28C178.512 91.28 177.985 91.4533 177.505 91.8C177.039 92.1467 176.685 92.6133 176.445 93.2V100H174.005ZM186.652 96.58V91.38H184.832V90.16L186.712 89.44L187.532 86.52H189.092V89.48H191.352V91.38H189.092V96.56C189.092 97.12 189.219 97.5267 189.472 97.78C189.725 98.02 190.099 98.14 190.592 98.14C190.739 98.14 190.892 98.14 191.052 98.14C191.225 98.1267 191.365 98.1133 191.472 98.1V100.02C191.205 100.06 190.959 100.087 190.732 100.1C190.519 100.113 190.279 100.12 190.012 100.12C188.879 100.12 188.032 99.8333 187.472 99.26C186.925 98.6867 186.652 97.7933 186.652 96.58Z" fill="white"/>
<path d="M726.12 100V87.58H721.68V85.46H733.06V87.58H728.62V100H726.12ZM734.739 87.36V85.36H737.519V87.36H734.739ZM735.099 100V91.26L734.039 90.48V89.48H737.539V100H735.099ZM740.33 100V89.48H741.95L742.31 91.12C742.723 90.5333 743.23 90.08 743.83 89.76C744.43 89.4267 745.076 89.26 745.77 89.26C747.263 89.26 748.29 89.8733 748.85 91.1C749.25 90.5267 749.756 90.08 750.37 89.76C750.983 89.4267 751.65 89.26 752.37 89.26C753.516 89.26 754.39 89.6267 754.99 90.36C755.603 91.08 755.91 92.1333 755.91 93.52V100H753.47V93.6C753.47 92.0533 752.87 91.28 751.67 91.28C751.11 91.28 750.623 91.4467 750.21 91.78C749.81 92.1 749.516 92.5533 749.33 93.14V100H746.93V93.6C746.93 92.0533 746.323 91.28 745.11 91.28C744.563 91.28 744.083 91.4533 743.67 91.8C743.256 92.1467 742.956 92.6133 742.77 93.2V100H740.33ZM766.97 99.5C766.53 99.7267 765.997 99.9067 765.37 100.04C764.744 100.173 764.077 100.24 763.37 100.24C761.637 100.24 760.31 99.7667 759.39 98.82C758.484 97.8733 758.03 96.4933 758.03 94.68C758.03 92.9467 758.464 91.6133 759.33 90.68C760.21 89.7333 761.444 89.26 763.03 89.26C764.497 89.26 765.604 89.68 766.35 90.52C767.097 91.3467 767.47 92.5333 767.47 94.08V95.44H760.45C760.544 96.44 760.844 97.1667 761.35 97.62C761.87 98.0733 762.624 98.3 763.61 98.3C764.197 98.3 764.75 98.2467 765.27 98.14C765.79 98.02 766.357 97.8333 766.97 97.58V99.5ZM763.01 91.1C761.41 91.1 760.55 91.9733 760.43 93.72H765.23C765.217 91.9733 764.477 91.1 763.01 91.1ZM774.929 96.58V91.38H773.109V90.16L774.989 89.44L775.809 86.52H777.369V89.48H779.629V91.38H777.369V96.56C777.369 97.12 777.496 97.5267 777.749 97.78C778.003 98.02 778.376 98.14 778.869 98.14C779.016 98.14 779.169 98.14 779.329 98.14C779.503 98.1267 779.643 98.1133 779.749 98.1V100.02C779.483 100.06 779.236 100.087 779.009 100.1C778.796 100.113 778.556 100.12 778.289 100.12C777.156 100.12 776.309 99.8333 775.749 99.26C775.203 98.6867 774.929 97.7933 774.929 96.58ZM786.236 100.22C784.623 100.22 783.363 99.74 782.456 98.78C781.563 97.82 781.116 96.4733 781.116 94.74C781.116 93.0067 781.563 91.66 782.456 90.7C783.363 89.74 784.623 89.26 786.236 89.26C787.863 89.26 789.123 89.74 790.016 90.7C790.91 91.66 791.356 93.0067 791.356 94.74C791.356 96.4733 790.91 97.82 790.016 98.78C789.123 99.74 787.863 100.22 786.236 100.22ZM786.236 98.32C788.01 98.32 788.896 97.1267 788.896 94.74C788.896 92.3533 788.01 91.16 786.236 91.16C784.463 91.16 783.576 92.3533 783.576 94.74C783.576 97.1267 784.463 98.32 786.236 98.32ZM799.175 100V91.38H797.335V90.16L799.175 89.46V88.6C799.175 86.08 800.388 84.82 802.815 84.82C803.188 84.82 803.528 84.8533 803.835 84.92V86.8C803.741 86.7867 803.641 86.78 803.535 86.78C803.441 86.7667 803.341 86.76 803.235 86.76C802.648 86.76 802.228 86.9 801.975 87.18C801.735 87.46 801.615 87.92 801.615 88.56V89.48H803.715V91.38H801.615V100H799.175ZM805.595 87.36V85.36H808.375V87.36H805.595ZM805.955 100V91.26L804.895 90.48V89.48H808.395V100H805.955ZM811.189 100V89.48H812.809L813.189 91.22C813.522 90.66 813.942 90.2267 814.449 89.92C814.956 89.6 815.549 89.44 816.229 89.44C816.482 89.44 816.716 89.46 816.929 89.5V91.68H816.349C815.616 91.68 815.016 91.8867 814.549 92.3C814.082 92.7 813.776 93.2333 813.629 93.9V100H811.189ZM818.502 99.52V97.54C819.169 97.8067 819.769 98 820.302 98.12C820.835 98.2267 821.395 98.28 821.982 98.28C823.409 98.28 824.122 97.8733 824.122 97.06C824.122 96.7533 824.002 96.5067 823.762 96.32C823.535 96.12 823.135 95.94 822.562 95.78L821.002 95.36C820.055 95.0933 819.362 94.7267 818.922 94.26C818.482 93.78 818.262 93.1667 818.262 92.42C818.262 91.4333 818.642 90.66 819.402 90.1C820.162 89.54 821.195 89.26 822.502 89.26C823.129 89.26 823.735 89.3133 824.322 89.42C824.909 89.5267 825.409 89.6733 825.822 89.86V91.8C824.742 91.3867 823.669 91.18 822.602 91.18C821.309 91.18 820.662 91.54 820.662 92.26C820.662 92.54 820.775 92.7733 821.002 92.96C821.229 93.1333 821.609 93.2933 822.142 93.44L823.702 93.88C824.729 94.1733 825.455 94.5533 825.882 95.02C826.309 95.4733 826.522 96.1133 826.522 96.94C826.522 97.9933 826.135 98.8067 825.362 99.38C824.589 99.9533 823.489 100.24 822.062 100.24C821.409 100.24 820.755 100.173 820.102 100.04C819.449 99.9067 818.915 99.7333 818.502 99.52ZM829.09 96.58V91.38H827.27V90.16L829.15 89.44L829.97 86.52H831.53V89.48H833.79V91.38H831.53V96.56C831.53 97.12 831.656 97.5267 831.91 97.78C832.163 98.02 832.536 98.14 833.03 98.14C833.176 98.14 833.33 98.14 833.49 98.14C833.663 98.1267 833.803 98.1133 833.91 98.1V100.02C833.643 100.06 833.396 100.087 833.17 100.1C832.956 100.113 832.716 100.12 832.45 100.12C831.316 100.12 830.47 99.8333 829.91 99.26C829.363 98.6867 829.09 97.7933 829.09 96.58ZM840.974 100V89.48H842.594L842.974 91.22C843.308 90.66 843.728 90.2267 844.234 89.92C844.741 89.6 845.334 89.44 846.014 89.44C846.268 89.44 846.501 89.46 846.714 89.5V91.68H846.134C845.401 91.68 844.801 91.8867 844.334 92.3C843.868 92.7 843.561 93.2333 843.414 93.9V100H840.974ZM856.795 99.5C856.355 99.7267 855.821 99.9067 855.195 100.04C854.568 100.173 853.901 100.24 853.195 100.24C851.461 100.24 850.135 99.7667 849.215 98.82C848.308 97.8733 847.855 96.4933 847.855 94.68C847.855 92.9467 848.288 91.6133 849.155 90.68C850.035 89.7333 851.268 89.26 852.855 89.26C854.321 89.26 855.428 89.68 856.175 90.52C856.921 91.3467 857.295 92.5333 857.295 94.08V95.44H850.275C850.368 96.44 850.668 97.1667 851.175 97.62C851.695 98.0733 852.448 98.3 853.435 98.3C854.021 98.3 854.575 98.2467 855.095 98.14C855.615 98.02 856.181 97.8333 856.795 97.58V99.5ZM852.835 91.1C851.235 91.1 850.375 91.9733 850.255 93.72H855.055C855.041 91.9733 854.301 91.1 852.835 91.1ZM859.147 99.52V97.54C859.813 97.8067 860.413 98 860.947 98.12C861.48 98.2267 862.04 98.28 862.627 98.28C864.053 98.28 864.767 97.8733 864.767 97.06C864.767 96.7533 864.647 96.5067 864.407 96.32C864.18 96.12 863.78 95.94 863.207 95.78L861.647 95.36C860.7 95.0933 860.007 94.7267 859.567 94.26C859.127 93.78 858.907 93.1667 858.907 92.42C858.907 91.4333 859.287 90.66 860.047 90.1C860.807 89.54 861.84 89.26 863.147 89.26C863.773 89.26 864.38 89.3133 864.967 89.42C865.553 89.5267 866.053 89.6733 866.467 89.86V91.8C865.387 91.3867 864.313 91.18 863.247 91.18C861.953 91.18 861.307 91.54 861.307 92.26C861.307 92.54 861.42 92.7733 861.647 92.96C861.873 93.1333 862.253 93.2933 862.787 93.44L864.347 93.88C865.373 94.1733 866.1 94.5533 866.527 95.02C866.953 95.4733 867.167 96.1133 867.167 96.94C867.167 97.9933 866.78 98.8067 866.007 99.38C865.233 99.9533 864.133 100.24 862.707 100.24C862.053 100.24 861.4 100.173 860.747 100.04C860.093 99.9067 859.56 99.7333 859.147 99.52ZM869.119 104.02V89.48H870.739L871.099 91.1C871.512 90.5133 872.012 90.06 872.599 89.74C873.199 89.42 873.839 89.26 874.519 89.26C875.905 89.26 876.992 89.7467 877.779 90.72C878.565 91.68 878.959 93.0267 878.959 94.76C878.959 96.4933 878.565 97.84 877.779 98.8C877.005 99.7467 875.919 100.22 874.519 100.22C873.372 100.22 872.385 99.8267 871.559 99.04V104.02H869.119ZM874.059 91.22C873.552 91.22 873.072 91.36 872.619 91.64C872.179 91.9067 871.819 92.2667 871.539 92.72V97.1C872.205 97.8867 873.045 98.28 874.059 98.28C874.845 98.28 875.445 97.98 875.859 97.38C876.285 96.7667 876.499 95.8867 876.499 94.74C876.499 93.5933 876.285 92.72 875.859 92.12C875.445 91.52 874.845 91.22 874.059 91.22ZM885.67 100.22C884.057 100.22 882.797 99.74 881.89 98.78C880.997 97.82 880.55 96.4733 880.55 94.74C880.55 93.0067 880.997 91.66 881.89 90.7C882.797 89.74 884.057 89.26 885.67 89.26C887.297 89.26 888.557 89.74 889.45 90.7C890.343 91.66 890.79 93.0067 890.79 94.74C890.79 96.4733 890.343 97.82 889.45 98.78C888.557 99.74 887.297 100.22 885.67 100.22ZM885.67 98.32C887.443 98.32 888.33 97.1267 888.33 94.74C888.33 92.3533 887.443 91.16 885.67 91.16C883.897 91.16 883.01 92.3533 883.01 94.74C883.01 97.1267 883.897 98.32 885.67 98.32ZM892.986 100V89.48H894.606L894.966 91.18C895.433 90.5667 895.979 90.0933 896.606 89.76C897.246 89.4267 897.959 89.26 898.746 89.26C899.959 89.26 900.886 89.6267 901.526 90.36C902.166 91.08 902.486 92.1333 902.486 93.52V100H900.046V93.6C900.046 92.0533 899.386 91.28 898.066 91.28C897.493 91.28 896.966 91.4533 896.486 91.8C896.019 92.1467 895.666 92.6133 895.426 93.2V100H892.986ZM904.733 99.52V97.54C905.399 97.8067 905.999 98 906.533 98.12C907.066 98.2267 907.626 98.28 908.213 98.28C909.639 98.28 910.353 97.8733 910.353 97.06C910.353 96.7533 910.233 96.5067 909.993 96.32C909.766 96.12 909.366 95.94 908.793 95.78L907.233 95.36C906.286 95.0933 905.593 94.7267 905.153 94.26C904.713 93.78 904.493 93.1667 904.493 92.42C904.493 91.4333 904.873 90.66 905.633 90.1C906.393 89.54 907.426 89.26 908.733 89.26C909.359 89.26 909.966 89.3133 910.553 89.42C911.139 89.5267 911.639 89.6733 912.053 89.86V91.8C910.973 91.3867 909.899 91.18 908.833 91.18C907.539 91.18 906.893 91.54 906.893 92.26C906.893 92.54 907.006 92.7733 907.233 92.96C907.459 93.1333 907.839 93.2933 908.373 93.44L909.933 93.88C910.959 94.1733 911.686 94.5533 912.113 95.02C912.539 95.4733 912.753 96.1133 912.753 96.94C912.753 97.9933 912.366 98.8067 911.593 99.38C910.819 99.9533 909.719 100.24 908.293 100.24C907.639 100.24 906.986 100.173 906.333 100.04C905.679 99.9067 905.146 99.7333 904.733 99.52ZM923.045 99.5C922.605 99.7267 922.071 99.9067 921.445 100.04C920.818 100.173 920.151 100.24 919.445 100.24C917.711 100.24 916.385 99.7667 915.465 98.82C914.558 97.8733 914.105 96.4933 914.105 94.68C914.105 92.9467 914.538 91.6133 915.405 90.68C916.285 89.7333 917.518 89.26 919.105 89.26C920.571 89.26 921.678 89.68 922.425 90.52C923.171 91.3467 923.545 92.5333 923.545 94.08V95.44H916.525C916.618 96.44 916.918 97.1667 917.425 97.62C917.945 98.0733 918.698 98.3 919.685 98.3C920.271 98.3 920.825 98.2467 921.345 98.14C921.865 98.02 922.431 97.8333 923.045 97.58V99.5ZM919.085 91.1C917.485 91.1 916.625 91.9733 916.505 93.72H921.305C921.291 91.9733 920.551 91.1 919.085 91.1Z" fill="white"/>
<path d="M23.988 47V26.644H28.552L35.02 40.056L41.404 26.644H45.968V47H41.656V33.812L36.28 45.04H33.592L28.216 33.98V47H23.988ZM49.6572 41.288V32.188H53.9132V41.148C53.9132 42.9587 54.6226 43.864 56.0412 43.864C56.6759 43.864 57.2546 43.668 57.7772 43.276C58.3186 42.8653 58.7386 42.3147 59.0372 41.624V32.188H63.2932V47H60.5212L59.9332 44.732C58.5706 46.468 56.8439 47.336 54.7532 47.336C53.1106 47.336 51.8506 46.8133 50.9732 45.768C50.0959 44.7227 49.6572 43.2293 49.6572 41.288ZM66.3804 46.356V42.996C67.3324 43.3507 68.2004 43.612 68.9844 43.78C69.7684 43.9293 70.5804 44.004 71.4204 44.004C73.0258 44.004 73.8284 43.5933 73.8284 42.772C73.8284 42.4547 73.6698 42.1933 73.3524 41.988C73.0538 41.7827 72.5498 41.5773 71.8404 41.372L69.7684 40.784C68.5178 40.4107 67.5751 39.888 66.9404 39.216C66.3058 38.544 65.9884 37.6667 65.9884 36.584C65.9884 35.1093 66.5484 33.952 67.6684 33.112C68.7884 32.272 70.3284 31.852 72.2884 31.852C73.1284 31.852 73.9778 31.9267 74.8364 32.076C75.6951 32.2253 76.4324 32.4307 77.0484 32.692V35.996C75.5178 35.4173 73.9591 35.128 72.3724 35.128C70.8791 35.128 70.1324 35.5107 70.1324 36.276C70.1324 36.5373 70.2818 36.7707 70.5804 36.976C70.8791 37.1813 71.3738 37.3867 72.0644 37.592L74.1364 38.18C75.5551 38.5907 76.5444 39.1133 77.1044 39.748C77.6831 40.3827 77.9724 41.3067 77.9724 42.52C77.9724 44.1067 77.4218 45.3107 76.3204 46.132C75.2191 46.9347 73.6138 47.336 71.5044 47.336C70.5524 47.336 69.6004 47.2427 68.6484 47.056C67.6964 46.888 66.9404 46.6547 66.3804 46.356ZM80.5589 47V25.972H84.8149V33.784C85.3749 33.1493 86.0189 32.6733 86.7469 32.356C87.4749 32.02 88.2963 31.852 89.2109 31.852C90.9096 31.852 92.2069 32.3747 93.1029 33.42C93.9989 34.4467 94.4469 35.94 94.4469 37.9V47H90.1909V38.04C90.1909 36.2293 89.4349 35.324 87.9229 35.324C87.2509 35.324 86.6349 35.52 86.0749 35.912C85.5336 36.304 85.1136 36.8547 84.8149 37.564V47H80.5589ZM104.612 47.336C102.298 47.336 100.487 46.6547 99.1803 45.292C97.8923 43.9293 97.2483 42.0253 97.2483 39.58C97.2483 37.1347 97.8923 35.24 99.1803 33.896C100.487 32.5333 102.298 31.852 104.612 31.852C106.946 31.852 108.756 32.5333 110.044 33.896C111.332 35.24 111.976 37.1347 111.976 39.58C111.976 42.0253 111.332 43.9293 110.044 45.292C108.756 46.6547 106.946 47.336 104.612 47.336ZM104.612 44.116C106.666 44.116 107.692 42.604 107.692 39.58C107.692 36.5747 106.666 35.072 104.612 35.072C102.559 35.072 101.532 36.5747 101.532 39.58C101.532 42.604 102.559 44.116 104.612 44.116ZM114.903 52.628V32.188H117.675L118.263 34.372C119.457 32.692 121.007 31.852 122.911 31.852C124.852 31.852 126.383 32.5427 127.503 33.924C128.623 35.2867 129.183 37.172 129.183 39.58C129.183 42.0253 128.632 43.9293 127.531 45.292C126.448 46.6547 124.917 47.336 122.939 47.336C121.464 47.336 120.204 46.8413 119.159 45.852V52.628H114.903ZM122.015 34.96C121.436 34.96 120.885 35.1093 120.363 35.408C119.859 35.688 119.439 36.0707 119.103 36.556V42.884C119.849 43.78 120.811 44.228 121.987 44.228C122.92 44.228 123.639 43.836 124.143 43.052C124.647 42.2493 124.899 41.1013 124.899 39.608C124.899 38.1147 124.647 36.9667 124.143 36.164C123.657 35.3613 122.948 34.96 122.015 34.96ZM118.543 37.76L118.711 37.312C118.636 37.4613 118.58 37.6107 118.543 37.76ZM154.085 42.548V46.188C153.357 46.524 152.507 46.804 151.537 47.028C150.585 47.2707 149.53 47.392 148.373 47.392C145.106 47.392 142.633 46.468 140.953 44.62C139.273 42.7533 138.433 40.0747 138.433 36.584C138.433 34.4373 138.843 32.5987 139.665 31.068C140.486 29.5187 141.653 28.3333 143.165 27.512C144.677 26.672 146.478 26.252 148.569 26.252C149.558 26.252 150.473 26.3547 151.313 26.56C152.153 26.7653 152.89 27.0267 153.525 27.344V31.04C152.535 30.6667 151.677 30.4053 150.949 30.256C150.239 30.1067 149.549 30.032 148.877 30.032C146.954 30.032 145.479 30.6013 144.453 31.74C143.426 32.8787 142.913 34.4933 142.913 36.584C142.913 38.8427 143.417 40.588 144.425 41.82C145.433 43.0333 146.917 43.64 148.877 43.64C149.661 43.64 150.454 43.556 151.257 43.388C152.078 43.2013 153.021 42.9213 154.085 42.548ZM166.636 47L166.076 44.928C165.572 45.6747 164.91 46.2627 164.088 46.692C163.286 47.1213 162.39 47.336 161.4 47.336C159.87 47.336 158.656 46.916 157.76 46.076C156.883 45.236 156.444 44.0787 156.444 42.604C156.444 41.0547 157.032 39.832 158.208 38.936C159.384 38.04 160.971 37.592 162.968 37.592H165.404V37.06C165.404 36.2387 165.199 35.7067 164.788 35.464C164.378 35.2213 163.734 35.1 162.856 35.1C161.288 35.1 159.599 35.4547 157.788 36.164V32.944C158.535 32.6267 159.403 32.3653 160.392 32.16C161.4 31.9547 162.418 31.852 163.444 31.852C165.386 31.852 166.86 32.3 167.868 33.196C168.895 34.0733 169.408 35.3427 169.408 37.004V47H166.636ZM162.492 44.228C163.108 44.228 163.678 44.0693 164.2 43.752C164.723 43.4347 165.152 43.0053 165.488 42.464V40.056H163.5C162.53 40.056 161.774 40.2427 161.232 40.616C160.71 40.9893 160.448 41.5213 160.448 42.212C160.448 43.556 161.13 44.228 162.492 44.228ZM173.709 41.904V35.38H171.105V33.252L173.905 32.104L175.165 27.932H177.965V32.188H181.129V35.38H177.965V41.68C177.965 42.408 178.143 42.9307 178.497 43.248C178.871 43.5467 179.403 43.696 180.093 43.696C180.28 43.696 180.485 43.696 180.709 43.696C180.933 43.6773 181.129 43.6587 181.297 43.64V47.028C180.849 47.1027 180.439 47.1493 180.065 47.168C179.711 47.1867 179.309 47.196 178.861 47.196C177.163 47.196 175.875 46.7667 174.997 45.908C174.139 45.0493 173.709 43.7147 173.709 41.904ZM193.57 47L193.01 44.928C192.506 45.6747 191.843 46.2627 191.022 46.692C190.219 47.1213 189.323 47.336 188.334 47.336C186.803 47.336 185.59 46.916 184.694 46.076C183.816 45.236 183.378 44.0787 183.378 42.604C183.378 41.0547 183.966 39.832 185.142 38.936C186.318 38.04 187.904 37.592 189.902 37.592H192.338V37.06C192.338 36.2387 192.132 35.7067 191.722 35.464C191.311 35.2213 190.667 35.1 189.79 35.1C188.222 35.1 186.532 35.4547 184.722 36.164V32.944C185.468 32.6267 186.336 32.3653 187.326 32.16C188.334 31.9547 189.351 31.852 190.378 31.852C192.319 31.852 193.794 32.3 194.802 33.196C195.828 34.0733 196.342 35.3427 196.342 37.004V47H193.57ZM189.426 44.228C190.042 44.228 190.611 44.0693 191.134 43.752C191.656 43.4347 192.086 43.0053 192.422 42.464V40.056H190.434C189.463 40.056 188.707 40.2427 188.166 40.616C187.643 40.9893 187.382 41.5213 187.382 42.212C187.382 43.556 188.063 44.228 189.426 44.228ZM200.083 47V28.968L198.543 27.68V25.972H204.339V47H200.083ZM214.644 47.336C212.329 47.336 210.518 46.6547 209.212 45.292C207.924 43.9293 207.28 42.0253 207.28 39.58C207.28 37.1347 207.924 35.24 209.212 33.896C210.518 32.5333 212.329 31.852 214.644 31.852C216.977 31.852 218.788 32.5333 220.076 33.896C221.364 35.24 222.007 37.1347 222.007 39.58C222.007 42.0253 221.364 43.9293 220.076 45.292C218.788 46.6547 216.977 47.336 214.644 47.336ZM214.644 44.116C216.697 44.116 217.724 42.604 217.724 39.58C217.724 36.5747 216.697 35.072 214.644 35.072C212.59 35.072 211.564 36.5747 211.564 39.58C211.564 42.604 212.59 44.116 214.644 44.116ZM224.241 45.432L223.765 43.584L226.173 40.14C225.277 39.2813 224.829 38.1893 224.829 36.864C224.829 35.2773 225.379 34.0453 226.481 33.168C227.601 32.2907 229.15 31.852 231.129 31.852C232.155 31.852 233.126 32.0107 234.041 32.328L239.165 32.3V34.4L237.596 35.044C238.082 35.6413 238.325 36.3693 238.325 37.228C238.325 38.6653 237.727 39.7947 236.533 40.616C235.338 41.4373 233.686 41.848 231.577 41.848C230.55 41.848 229.626 41.736 228.805 41.512L227.741 43.024L234.349 43.808C237.578 44.2 239.193 45.6373 239.193 48.12C239.193 49.6133 238.511 50.7893 237.149 51.648C235.786 52.5253 233.929 52.964 231.577 52.964C229.15 52.964 227.302 52.6093 226.033 51.9C224.763 51.1907 224.129 50.1547 224.129 48.792C224.129 47.6347 224.67 46.608 225.753 45.712L224.241 45.432ZM228.693 36.864C228.693 38.2827 229.654 38.992 231.577 38.992C233.499 38.992 234.461 38.2827 234.461 36.864C234.461 35.4453 233.499 34.736 231.577 34.736C229.654 34.736 228.693 35.4453 228.693 36.864ZM228.105 47.952C228.105 48.6053 228.375 49.0813 228.917 49.38C229.477 49.6787 230.363 49.828 231.577 49.828C233.947 49.828 235.133 49.324 235.133 48.316C235.133 47.9427 235.021 47.6627 234.797 47.476C234.573 47.308 234.134 47.168 233.481 47.056L228.805 46.244C228.338 46.748 228.105 47.3173 228.105 47.952ZM241.501 41.288V32.188H245.757V41.148C245.757 42.9587 246.466 43.864 247.885 43.864C248.52 43.864 249.098 43.668 249.621 43.276C250.162 42.8653 250.582 42.3147 250.881 41.624V32.188H255.137V47H252.365L251.777 44.732C250.414 46.468 248.688 47.336 246.597 47.336C244.954 47.336 243.694 46.8133 242.817 45.768C241.94 44.7227 241.501 43.2293 241.501 41.288ZM271.132 46.3C269.695 46.9907 267.978 47.336 265.98 47.336C263.442 47.336 261.491 46.6733 260.128 45.348C258.766 44.004 258.084 42.072 258.084 39.552C258.084 37.144 258.738 35.2587 260.044 33.896C261.37 32.5333 263.19 31.852 265.504 31.852C267.558 31.852 269.126 32.4493 270.208 33.644C271.291 34.8387 271.832 36.4907 271.832 38.6V40.756H262.312C262.48 41.9133 262.891 42.7533 263.544 43.276C264.216 43.7987 265.178 44.06 266.428 44.06C267.212 44.06 267.959 43.9947 268.668 43.864C269.396 43.7147 270.218 43.4627 271.132 43.108V46.3ZM265.448 34.932C263.451 34.932 262.378 35.9493 262.228 37.984H268.052C268.015 37.032 267.763 36.2853 267.296 35.744C266.83 35.2027 266.214 34.932 265.448 34.932ZM281.059 46.272V42.38C283.206 43.1827 285.268 43.584 287.247 43.584C288.423 43.584 289.347 43.388 290.019 42.996C290.691 42.604 291.027 42.0627 291.027 41.372C291.027 40.8867 290.812 40.4853 290.383 40.168C289.954 39.832 289.123 39.4587 287.891 39.048L285.763 38.32C284.027 37.7227 282.758 36.9573 281.955 36.024C281.171 35.072 280.779 33.8587 280.779 32.384C280.779 31.1147 281.096 30.0227 281.731 29.108C282.384 28.1933 283.299 27.4933 284.475 27.008C285.651 26.504 287.051 26.252 288.675 26.252C289.702 26.252 290.71 26.3547 291.699 26.56C292.707 26.7467 293.584 27.008 294.331 27.344V31.236C293.379 30.8627 292.408 30.5827 291.419 30.396C290.43 30.1907 289.515 30.088 288.675 30.088C286.36 30.088 285.203 30.7693 285.203 32.132C285.203 32.6547 285.418 33.084 285.847 33.42C286.295 33.7373 287.126 34.1013 288.339 34.512L290.467 35.24C292.296 35.8747 293.594 36.6493 294.359 37.564C295.124 38.46 295.507 39.6827 295.507 41.232C295.507 43.136 294.826 44.6387 293.463 45.74C292.119 46.8413 290.215 47.392 287.751 47.392C286.948 47.392 286.108 47.3453 285.231 47.252C284.372 47.1587 283.57 47.028 282.823 46.86C282.095 46.692 281.507 46.496 281.059 46.272ZM310.507 46.3C309.07 46.9907 307.353 47.336 305.355 47.336C302.817 47.336 300.866 46.6733 299.503 45.348C298.141 44.004 297.459 42.072 297.459 39.552C297.459 37.144 298.113 35.2587 299.419 33.896C300.745 32.5333 302.565 31.852 304.879 31.852C306.933 31.852 308.501 32.4493 309.583 33.644C310.666 34.8387 311.207 36.4907 311.207 38.6V40.756H301.687C301.855 41.9133 302.266 42.7533 302.919 43.276C303.591 43.7987 304.553 44.06 305.803 44.06C306.587 44.06 307.334 43.9947 308.043 43.864C308.771 43.7147 309.593 43.4627 310.507 43.108V46.3ZM304.823 34.932C302.826 34.932 301.753 35.9493 301.603 37.984H307.427C307.39 37.032 307.138 36.2853 306.671 35.744C306.205 35.2027 305.589 34.932 304.823 34.932ZM318.331 47H314.075V32.188H316.847L317.435 34.372C317.92 33.6627 318.527 33.112 319.255 32.72C319.983 32.3093 320.823 32.104 321.775 32.104C322.185 32.104 322.54 32.132 322.839 32.188V36.024H321.943C320.991 36.024 320.197 36.276 319.563 36.78C318.928 37.2653 318.517 37.9187 318.331 38.74V47ZM330.088 47L324.292 32.188H328.8L331.908 41.652L335.016 32.188H339.356L333.56 47H330.088ZM341.795 29.584V26.308H346.499V29.584H341.795ZM342.243 47V35.184L340.703 33.896V32.188H346.499V47H342.243ZM361.256 43.22V46.552C360.677 46.776 359.996 46.9627 359.212 47.112C358.428 47.2613 357.625 47.336 356.804 47.336C351.894 47.336 349.44 44.704 349.44 39.44C349.44 37.088 350.112 35.24 351.456 33.896C352.818 32.5333 354.685 31.852 357.056 31.852C358.344 31.852 359.604 32.0667 360.836 32.496V35.772C359.921 35.3053 358.913 35.072 357.812 35.072C356.505 35.072 355.497 35.436 354.788 36.164C354.078 36.8733 353.724 37.9653 353.724 39.44C353.724 40.8587 354.032 41.988 354.648 42.828C355.282 43.6493 356.206 44.06 357.42 44.06C358.017 44.06 358.633 43.9853 359.268 43.836C359.902 43.6867 360.565 43.4813 361.256 43.22ZM376.324 46.3C374.886 46.9907 373.169 47.336 371.172 47.336C368.633 47.336 366.682 46.6733 365.32 45.348C363.957 44.004 363.276 42.072 363.276 39.552C363.276 37.144 363.929 35.2587 365.236 33.896C366.561 32.5333 368.381 31.852 370.696 31.852C372.749 31.852 374.317 32.4493 375.4 33.644C376.482 34.8387 377.024 36.4907 377.024 38.6V40.756H367.504C367.672 41.9133 368.082 42.7533 368.736 43.276C369.408 43.7987 370.369 44.06 371.62 44.06C372.404 44.06 373.15 43.9947 373.86 43.864C374.588 43.7147 375.409 43.4627 376.324 43.108V46.3ZM370.64 34.932C368.642 34.932 367.569 35.9493 367.42 37.984H373.244C373.206 37.032 372.954 36.2853 372.488 35.744C372.021 35.2027 371.405 34.932 370.64 34.932Z" fill="white"/>
<rect x="22" y="229" width="520" height="1" rx="0.5" fill="#D9D9D9"/>
<rect x="122" y="226" width="1" height="8" fill="#D9D9D9"/>
<rect x="222" y="226" width="1" height="8" fill="#D9D9D9"/>
<rect x="322" y="226" width="1" height="8" fill="#D9D9D9"/>
<rect x="422" y="226" width="1" height="8" fill="#D9D9D9"/>
<rect x="522" y="226" width="1" height="8" fill="#D9D9D9"/>
<path d="M468.7 141.552V139.69C469.111 139.895 469.568 140.059 470.072 140.18C470.585 140.292 471.08 140.348 471.556 140.348C472.153 140.348 472.625 140.208 472.97 139.928C473.315 139.648 473.488 139.265 473.488 138.78C473.488 138.313 473.343 137.949 473.054 137.688C472.774 137.427 472.373 137.296 471.85 137.296C471.243 137.296 470.623 137.436 469.988 137.716L468.756 136.75L469.344 131.962H474.874V133.74H470.912L470.66 135.924C471.136 135.756 471.621 135.672 472.116 135.672C473.152 135.672 473.969 135.952 474.566 136.512C475.163 137.063 475.462 137.823 475.462 138.794C475.462 139.475 475.308 140.073 475 140.586C474.692 141.09 474.253 141.482 473.684 141.762C473.124 142.042 472.466 142.182 471.71 142.182C471.131 142.182 470.576 142.126 470.044 142.014C469.521 141.902 469.073 141.748 468.7 141.552ZM480.479 142.182C479.2 142.182 478.23 141.734 477.567 140.838C476.904 139.942 476.573 138.635 476.573 136.918C476.573 133.493 477.875 131.78 480.479 131.78C483.083 131.78 484.385 133.493 484.385 136.918C484.385 138.635 484.054 139.942 483.391 140.838C482.728 141.734 481.758 142.182 480.479 142.182ZM480.479 140.404C481.067 140.404 481.501 140.119 481.781 139.55C482.061 138.981 482.201 138.103 482.201 136.918C482.201 135.751 482.061 134.902 481.781 134.37C481.51 133.829 481.076 133.558 480.479 133.558C479.882 133.558 479.443 133.829 479.163 134.37C478.892 134.902 478.757 135.751 478.757 136.918C478.757 138.103 478.897 138.981 479.177 139.55C479.457 140.119 479.891 140.404 480.479 140.404ZM489.53 142.182C488.251 142.182 487.28 141.734 486.618 140.838C485.955 139.942 485.624 138.635 485.624 136.918C485.624 133.493 486.926 131.78 489.53 131.78C492.134 131.78 493.436 133.493 493.436 136.918C493.436 138.635 493.104 139.942 492.442 140.838C491.779 141.734 490.808 142.182 489.53 142.182ZM489.53 140.404C490.118 140.404 490.552 140.119 490.832 139.55C491.112 138.981 491.252 138.103 491.252 136.918C491.252 135.751 491.112 134.902 490.832 134.37C490.561 133.829 490.127 133.558 489.53 133.558C488.932 133.558 488.494 133.829 488.214 134.37C487.943 134.902 487.808 135.751 487.808 136.918C487.808 138.103 487.948 138.981 488.228 139.55C488.508 140.119 488.942 140.404 489.53 140.404ZM494.84 142V134.003H496.633L499.174 139.272L501.682 134.003H503.475V142H501.781V136.819L499.669 141.23H498.613L496.501 136.885V142H494.84ZM505.034 142V134.003H507.839C508.858 134.003 509.606 134.175 510.083 134.52C510.567 134.865 510.809 135.4 510.809 136.126C510.809 136.485 510.714 136.808 510.523 137.094C510.332 137.38 510.068 137.607 509.731 137.776C510.677 138.069 511.15 138.696 511.15 139.657C511.15 141.219 510.068 142 507.905 142H505.034ZM506.684 137.314H507.52C508.099 137.314 508.506 137.241 508.741 137.094C508.983 136.94 509.104 136.683 509.104 136.324C509.104 135.95 508.987 135.69 508.752 135.543C508.517 135.389 508.107 135.312 507.52 135.312H506.684V137.314ZM506.684 140.68H507.773C508.338 140.68 508.752 140.592 509.016 140.416C509.28 140.24 509.412 139.965 509.412 139.591C509.412 139.224 509.28 138.957 509.016 138.788C508.752 138.619 508.338 138.535 507.773 138.535H506.684V140.68Z" fill="#1E2631"/>
<defs>
<filter id="filter0_d_1205_12408" x="5.44141" y="155" width="1240.91" height="114.64" filterUnits="userSpaceOnUse" color-interpolation-filters="sRGB">
<feFlood flood-opacity="0" result="BackgroundImageFix"/>
<feColorMatrix in="SourceAlpha" type="matrix" values="0 0 0 0 0 0 0 0 0 0 0 0 0 0 0 0 0 0 127 0" result="hardAlpha"/>
<feOffset dx="2" dy="2"/>
<feGaussianBlur stdDeviation="8"/>
<feComposite in2="hardAlpha" operator="out"/>
<feColorMatrix type="matrix" values="0 0 0 0 0.0901961 0 0 0 0 0.415686 0 0 0 0 1 0 0 0 0.55 0"/>
<feBlend mode="normal" in2="BackgroundImageFix" result="effect1_dropShadow_1205_12408"/>
<feBlend mode="normal" in="SourceGraphic" in2="effect1_dropShadow_1205_12408" result="shape"/>
</filter>
<filter id="filter1_d_1205_12408" x="707" y="155" width="46" height="64" filterUnits="userSpaceOnUse" color-interpolation-filters="sRGB">
<feFlood flood-opacity="0" result="BackgroundImageFix"/>
<feColorMatrix in="SourceAlpha" type="matrix" values="0 0 0 0 0 0 0 0 0 0 0 0 0 0 0 0 0 0 127 0" result="hardAlpha"/>
<feOffset dx="2" dy="2"/>
<feGaussianBlur stdDeviation="8"/>
<feComposite in2="hardAlpha" operator="out"/>
<feColorMatrix type="matrix" values="0 0 0 0 0.0901961 0 0 0 0 0.415686 0 0 0 0 1 0 0 0 0.55 0"/>
<feBlend mode="normal" in2="BackgroundImageFix" result="effect1_dropShadow_1205_12408"/>
<feBlend mode="normal" in="SourceGraphic" in2="effect1_dropShadow_1205_12408" result="shape"/>
</filter>
</defs>
</svg>
