<svg width="373" height="173" viewBox="0 0 373 173" fill="none" xmlns="http://www.w3.org/2000/svg">
<path fill-rule="evenodd" clip-rule="evenodd" d="M194 49H233C233.552 49 234 49.4477 234 50C234 50.5523 233.552 51 233 51H196C194.895 51 194 51.8954 194 53V79C194 80.1046 194.895 81 196 81H233C233.552 81 234 81.4477 234 82C234 82.5523 233.552 83 233 83H196C194.895 83 194 83.8954 194 85V111C194 112.105 194.895 113 196 113H233C233.552 113 234 113.448 234 114C234 114.552 233.552 115 233 115H194C192.895 115 192 114.105 192 113L192 85C192 83.8954 191.105 83 190 83H170C169.448 83 169 82.5523 169 82C169 81.4477 169.448 81 170 81H190C191.105 81 192 80.1046 192 79L192 51C192 49.8954 192.895 49 194 49Z" fill="#FF9142"/>
<g filter="url(#filter0_dd_536_6729)">
<rect x="236" y="36" width="111" height="28" rx="4" fill="#1E2631"/>
<rect x="236.5" y="36.5" width="110" height="27" rx="3.5" stroke="white"/>
</g>
<path d="M268.023 44.5312C271.359 44.5312 273.461 46.7734 273.461 50.3672C273.461 53.9531 271.359 56.1875 268.023 56.1875C264.68 56.1875 262.586 53.9531 262.586 50.3672C262.586 46.7734 264.68 44.5312 268.023 44.5312ZM268.023 46.5C266.18 46.5 264.992 48 264.992 50.3672C264.992 52.7266 266.172 54.2188 268.023 54.2188C269.867 54.2188 271.047 52.7266 271.047 50.3672C271.047 48 269.867 46.5 268.023 46.5ZM279.969 56.1875C276.688 56.1875 274.633 54 274.633 50.3594C274.633 46.7266 276.703 44.5312 279.969 44.5312C282.68 44.5312 284.742 46.25 284.922 48.7734H282.625C282.406 47.3906 281.344 46.4844 279.969 46.4844C278.188 46.4844 277.039 47.9766 277.039 50.3516C277.039 52.7578 278.172 54.2422 279.977 54.2422C281.375 54.2422 282.383 53.4219 282.633 52.0859H284.93C284.664 54.6016 282.734 56.1875 279.969 56.1875ZM288.75 56H286.391V44.7266H288.75V56ZM301.18 56L300.32 53.2656H296.359L295.5 56H293.078L296.992 44.7266H299.766L303.688 56H301.18ZM298.312 46.8828L296.867 51.5H299.812L298.367 46.8828H298.312ZM304.844 44.7266H309.43C311.742 44.7266 313.336 46.2656 313.336 48.5859C313.336 50.8984 311.688 52.4453 309.312 52.4453H307.203V56H304.844V44.7266ZM307.203 46.5938V50.6016H308.797C310.148 50.6016 310.938 49.8828 310.938 48.5938C310.938 47.3125 310.156 46.5938 308.805 46.5938H307.203ZM317.094 56H314.734V44.7266H317.094V56Z" fill="white"/>
<circle cx="236" cy="50" r="3" fill="white"/>
<g filter="url(#filter1_dd_536_6729)">
<rect x="236" y="68" width="111" height="28" rx="4" fill="#1E2631"/>
<rect x="236.5" y="68.5" width="110" height="27" rx="3.5" stroke="white"/>
</g>
<path d="M266.32 88L265.461 85.2656H261.5L260.641 88H258.219L262.133 76.7266H264.906L268.828 88H266.32ZM263.453 78.8828L262.008 83.5H264.953L263.508 78.8828H263.453ZM275.672 80.2969L273.531 88H271.305L268.32 76.7266H270.766L272.539 84.8906H272.602L274.711 76.7266H276.703L278.812 84.8906H278.875L280.656 76.7266H283.102L280.109 88H277.883L275.742 80.2969H275.672ZM283.82 84.7812H286.047C286.195 85.7266 287.148 86.2891 288.43 86.2891C289.688 86.2891 290.547 85.6797 290.547 84.8516C290.547 84.1094 290.016 83.6875 288.602 83.3984L287.414 83.1641C285.164 82.7188 284.062 81.6406 284.062 79.9609C284.062 77.8984 285.859 76.5312 288.367 76.5312C291 76.5312 292.656 77.9062 292.695 79.9766H290.469C290.391 79.0156 289.555 78.4375 288.367 78.4375C287.203 78.4375 286.422 78.9844 286.422 79.8125C286.422 80.5078 286.969 80.9375 288.297 81.2031L289.492 81.4453C291.875 81.9219 292.914 82.8828 292.914 84.5938C292.914 86.7969 291.188 88.1875 288.367 88.1875C285.68 88.1875 283.891 86.9062 283.82 84.7812ZM304.914 88L304.055 85.2656H300.094L299.234 88H296.812L300.727 76.7266H303.5L307.422 88H304.914ZM302.047 78.8828L300.602 83.5H303.547L302.102 78.8828H302.047ZM308.578 76.7266H313.164C315.477 76.7266 317.07 78.2656 317.07 80.5859C317.07 82.8984 315.422 84.4453 313.047 84.4453H310.938V88H308.578V76.7266ZM310.938 78.5938V82.6016H312.531C313.883 82.6016 314.672 81.8828 314.672 80.5938C314.672 79.3125 313.891 78.5938 312.539 78.5938H310.938ZM320.828 88H318.469V76.7266H320.828V88Z" fill="white"/>
<circle cx="236" cy="82" r="3" fill="white"/>
<g filter="url(#filter2_dd_536_6729)">
<rect x="236" y="100" width="111" height="28" rx="4" fill="#1E2631"/>
<rect x="236.5" y="100.5" width="110" height="27" rx="3.5" stroke="white"/>
</g>
<path d="M270.016 115.266C270.016 118.336 268.156 120.188 265.016 120.188C261.648 120.188 259.586 117.992 259.586 114.328C259.586 110.719 261.648 108.531 264.961 108.531C267.594 108.531 269.578 110.086 269.914 112.367H267.547C267.203 111.188 266.242 110.484 264.969 110.484C263.109 110.484 261.992 111.898 261.992 114.297C261.992 116.742 263.18 118.234 265.055 118.234C266.594 118.234 267.664 117.289 267.711 115.891L267.719 115.711H265.266V113.992H270.016V115.266ZM276.562 120.188C273.281 120.188 271.227 118 271.227 114.359C271.227 110.727 273.297 108.531 276.562 108.531C279.273 108.531 281.336 110.25 281.516 112.773H279.219C279 111.391 277.938 110.484 276.562 110.484C274.781 110.484 273.633 111.977 273.633 114.352C273.633 116.758 274.766 118.242 276.57 118.242C277.969 118.242 278.977 117.422 279.227 116.086H281.523C281.258 118.602 279.328 120.188 276.562 120.188ZM282.984 108.727H287.57C289.883 108.727 291.477 110.266 291.477 112.586C291.477 114.898 289.828 116.445 287.453 116.445H285.344V120H282.984V108.727ZM285.344 110.594V114.602H286.938C288.289 114.602 289.078 113.883 289.078 112.594C289.078 111.312 288.297 110.594 286.945 110.594H285.344ZM303.43 120L302.57 117.266H298.609L297.75 120H295.328L299.242 108.727H302.016L305.938 120H303.43ZM300.562 110.883L299.117 115.5H302.062L300.617 110.883H300.562ZM307.094 108.727H311.68C313.992 108.727 315.586 110.266 315.586 112.586C315.586 114.898 313.938 116.445 311.562 116.445H309.453V120H307.094V108.727ZM309.453 110.594V114.602H311.047C312.398 114.602 313.188 113.883 313.188 112.594C313.188 111.312 312.406 110.594 311.055 110.594H309.453ZM319.344 120H316.984V108.727H319.344V120Z" fill="white"/>
<circle cx="236" cy="114" r="3" fill="white"/>
<rect x="217.5" y="20.5" width="148" height="122" rx="7.5" stroke="white" stroke-linecap="round" stroke-linejoin="round" stroke-dasharray="12 12"/>
<g filter="url(#filter3_dd_536_6729)">
<rect x="20" y="20" width="148" height="123" rx="8" fill="#1E2631"/>
<rect x="20.5" y="20.5" width="147" height="122" rx="7.5" stroke="white"/>
</g>
<circle cx="168" cy="82" r="3" fill="white"/>
<path d="M20 28C20 23.5817 23.5817 20 28 20H160C164.418 20 168 23.5817 168 28V52H20V28Z" fill="white"/>
<path d="M70.0156 37.2656C70.0156 40.3359 68.1562 42.1875 65.0156 42.1875C61.6484 42.1875 59.5859 39.9922 59.5859 36.3281C59.5859 32.7188 61.6484 30.5312 64.9609 30.5312C67.5938 30.5312 69.5781 32.0859 69.9141 34.3672H67.5469C67.2031 33.1875 66.2422 32.4844 64.9688 32.4844C63.1094 32.4844 61.9922 33.8984 61.9922 36.2969C61.9922 38.7422 63.1797 40.2344 65.0547 40.2344C66.5938 40.2344 67.6641 39.2891 67.7109 37.8906L67.7188 37.7109H65.2656V35.9922H70.0156V37.2656ZM71.5781 30.7266H75.8828C79.2656 30.7266 81.2578 32.7422 81.2578 36.3203C81.2578 39.8984 79.2656 42 75.8828 42H71.5781V30.7266ZM73.9375 32.6719V40.0469H75.6016C77.7109 40.0469 78.8516 38.7656 78.8516 36.3281C78.8516 33.9688 77.6797 32.6719 75.6016 32.6719H73.9375ZM85.1406 42H82.7812V30.7266H85.1406V35.8672H85.2109L89.4453 30.7266H92.0703L87.8984 35.7266L92.3594 42H89.5391L86.1953 37.2891L85.1406 38.5547V42ZM103.914 42L103.055 39.2656H99.0938L98.2344 42H95.8125L99.7266 30.7266H102.5L106.422 42H103.914ZM101.047 32.8828L99.6016 37.5H102.547L101.102 32.8828H101.047ZM112.273 33.4922C114.398 33.4922 115.703 35.1094 115.703 37.8125C115.703 40.5078 114.406 42.1328 112.312 42.1328C111.094 42.1328 110.156 41.5391 109.711 40.5938H109.664V44.7344H107.383V33.625H109.633V35.0859H109.68C110.133 34.1016 111.062 33.4922 112.273 33.4922ZM111.508 40.2969C112.648 40.2969 113.367 39.3359 113.367 37.8125C113.367 36.2969 112.648 35.3203 111.508 35.3203C110.391 35.3203 109.656 36.3125 109.656 37.8125C109.656 39.3281 110.391 40.2969 111.508 40.2969ZM121.773 33.4922C123.898 33.4922 125.203 35.1094 125.203 37.8125C125.203 40.5078 123.906 42.1328 121.812 42.1328C120.594 42.1328 119.656 41.5391 119.211 40.5938H119.164V44.7344H116.883V33.625H119.133V35.0859H119.18C119.633 34.1016 120.562 33.4922 121.773 33.4922ZM121.008 40.2969C122.148 40.2969 122.867 39.3359 122.867 37.8125C122.867 36.2969 122.148 35.3203 121.008 35.3203C119.891 35.3203 119.156 36.3125 119.156 37.8125C119.156 39.3281 119.891 40.2969 121.008 40.2969Z" fill="#1E2631"/>
<path d="M71.4297 81.8516C71.5234 83.9141 73.25 85.1875 75.8594 85.1875C78.5703 85.1875 80.2656 83.8281 80.2656 81.6719C80.2656 80 79.2734 79.0469 76.8984 78.5547L75.6797 78.3047C74.2734 78.0078 73.7109 77.5156 73.7109 76.75C73.7109 75.8047 74.6016 75.2109 75.8516 75.2109C77.1406 75.2109 78.0312 75.8516 78.125 76.9141H80.0547C80.0078 74.8984 78.3594 73.5391 75.8672 73.5391C73.4219 73.5391 71.6797 74.8828 71.6797 76.8672C71.6797 78.5156 72.7344 79.5781 74.9922 80.0391L76.2031 80.2891C77.6719 80.5938 78.2344 81.0938 78.2344 81.9062C78.2344 82.8438 77.2891 83.5156 75.9297 83.5156C74.5234 83.5156 73.5078 82.8906 73.3594 81.8516H71.4297ZM87.0625 82.5234C86.8516 83.2109 86.1641 83.6641 85.2578 83.6641C83.9844 83.6641 83.1719 82.7734 83.1719 81.4453V81.3281H88.9609V80.6953C88.9609 78.1797 87.4922 76.5469 85.1406 76.5469C82.75 76.5469 81.2344 78.2734 81.2344 80.8906C81.2344 83.5312 82.7344 85.1641 85.2188 85.1641C87.1797 85.1641 88.6328 84.0859 88.8828 82.5234H87.0625ZM85.1484 78.0547C86.2656 78.0547 87.0156 78.875 87.0547 80.0469H83.1875C83.2656 78.8906 84.0547 78.0547 85.1484 78.0547ZM97.5156 79.6719C97.3828 77.9297 96.0312 76.5469 93.8438 76.5469C91.4375 76.5469 89.875 78.2109 89.875 80.8594C89.875 83.5469 91.4375 85.1641 93.8594 85.1641C95.9375 85.1641 97.3672 83.9453 97.5234 82.0938H95.6875C95.5078 83.0312 94.8672 83.5938 93.8828 83.5938C92.6484 83.5938 91.8516 82.5938 91.8516 80.8594C91.8516 79.1562 92.6406 78.125 93.8672 78.125C94.9062 78.125 95.5234 78.7891 95.6797 79.6719H97.5156ZM98.6875 85H100.633V80.1797C100.633 79.0156 101.297 78.3047 102.398 78.3047C102.727 78.3047 103.023 78.3516 103.188 78.4141V76.6562C103.047 76.625 102.828 76.5781 102.578 76.5781C101.602 76.5781 100.875 77.1562 100.594 78.1641H100.555V76.7188H98.6875V85ZM109.359 82.5234C109.148 83.2109 108.461 83.6641 107.555 83.6641C106.281 83.6641 105.469 82.7734 105.469 81.4453V81.3281H111.258V80.6953C111.258 78.1797 109.789 76.5469 107.438 76.5469C105.047 76.5469 103.531 78.2734 103.531 80.8906C103.531 83.5312 105.031 85.1641 107.516 85.1641C109.477 85.1641 110.93 84.0859 111.18 82.5234H109.359ZM107.445 78.0547C108.562 78.0547 109.312 78.875 109.352 80.0469H105.484C105.562 78.8906 106.352 78.0547 107.445 78.0547ZM113.055 74.7812V76.7188H111.867V78.2188H113.055V82.7969C113.055 84.4062 113.758 85.0391 115.547 85.0391C115.961 85.0391 116.344 85.0078 116.555 84.9609V83.4766C116.43 83.5 116.18 83.5156 116 83.5156C115.312 83.5156 115 83.2031 115 82.5234V78.2188H116.562V76.7188H115V74.7812H113.055ZM59.7969 109V97.7266H57.4688L54.0156 106.328H53.9531L50.5 97.7266H48.1641V109H49.9844V101H50.0391L53.2969 109H54.6719L57.9297 101H57.9844V109H59.7969ZM63.8281 109.133C64.8906 109.133 65.9297 108.578 66.4062 107.68H66.4453V109H68.3203V103.297C68.3203 101.633 66.9844 100.547 64.9297 100.547C62.8203 100.547 61.5 101.656 61.4141 103.203H63.2188C63.3438 102.516 63.9297 102.07 64.8516 102.07C65.8125 102.07 66.3984 102.57 66.3984 103.438V104.031L64.2109 104.156C62.1953 104.281 61.0625 105.164 61.0625 106.633C61.0625 108.125 62.2266 109.133 63.8281 109.133ZM64.4141 107.664C63.5703 107.664 63.0078 107.234 63.0078 106.555C63.0078 105.898 63.5469 105.477 64.4844 105.414L66.3984 105.297V105.93C66.3984 106.93 65.5156 107.664 64.4141 107.664ZM69.8906 109H71.8359V104.203C71.8359 103.016 72.5469 102.211 73.6641 102.211C74.7734 102.211 75.3203 102.867 75.3203 104.039V109H77.2656V103.648C77.2656 101.734 76.2266 100.562 74.3984 100.562C73.125 100.562 72.2422 101.156 71.7969 102.141H71.7578V100.719H69.8906V109ZM81.2656 109.133C82.3281 109.133 83.3672 108.578 83.8438 107.68H83.8828V109H85.7578V103.297C85.7578 101.633 84.4219 100.547 82.3672 100.547C80.2578 100.547 78.9375 101.656 78.8516 103.203H80.6562C80.7812 102.516 81.3672 102.07 82.2891 102.07C83.25 102.07 83.8359 102.57 83.8359 103.438V104.031L81.6484 104.156C79.6328 104.281 78.5 105.164 78.5 106.633C78.5 108.125 79.6641 109.133 81.2656 109.133ZM81.8516 107.664C81.0078 107.664 80.4453 107.234 80.4453 106.555C80.4453 105.898 80.9844 105.477 81.9219 105.414L83.8359 105.297V105.93C83.8359 106.93 82.9531 107.664 81.8516 107.664ZM90.9766 112.125C93.3906 112.125 94.9766 110.844 94.9766 108.867V100.719H93.0703V102.141H93.0391C92.5625 101.188 91.6094 100.578 90.4297 100.578C88.3125 100.578 86.9844 102.211 86.9844 104.828C86.9844 107.406 88.3438 109.008 90.3906 109.008C91.5781 109.008 92.5547 108.414 92.9844 107.523H93.0312V108.922C93.0312 109.977 92.3047 110.688 91.0391 110.688C90.1172 110.688 89.4062 110.258 89.1953 109.625H87.2656C87.4609 111.078 88.9297 112.125 90.9766 112.125ZM90.9844 107.461C89.7578 107.461 88.9766 106.477 88.9766 104.836C88.9766 103.211 89.7578 102.18 90.9844 102.18C92.2266 102.18 93.0312 103.227 93.0312 104.836C93.0312 106.453 92.2266 107.461 90.9844 107.461ZM102.047 106.523C101.836 107.211 101.148 107.664 100.242 107.664C98.9688 107.664 98.1562 106.773 98.1562 105.445V105.328H103.945V104.695C103.945 102.18 102.477 100.547 100.125 100.547C97.7344 100.547 96.2188 102.273 96.2188 104.891C96.2188 107.531 97.7188 109.164 100.203 109.164C102.164 109.164 103.617 108.086 103.867 106.523H102.047ZM100.133 102.055C101.25 102.055 102 102.875 102.039 104.047H98.1719C98.25 102.891 99.0391 102.055 100.133 102.055ZM105.203 109H107.148V103.93C107.148 102.93 107.805 102.203 108.742 102.203C109.648 102.203 110.211 102.773 110.211 103.695V109H112.102V103.883C112.102 102.891 112.742 102.203 113.68 102.203C114.633 102.203 115.164 102.781 115.164 103.797V109H117.109V103.32C117.109 101.664 116.039 100.562 114.406 100.562C113.211 100.562 112.227 101.203 111.828 102.227H111.781C111.477 101.164 110.641 100.562 109.469 100.562C108.344 100.562 107.469 101.195 107.109 102.156H107.07V100.719H105.203V109ZM124.156 106.523C123.945 107.211 123.258 107.664 122.352 107.664C121.078 107.664 120.266 106.773 120.266 105.445V105.328H126.055V104.695C126.055 102.18 124.586 100.547 122.234 100.547C119.844 100.547 118.328 102.273 118.328 104.891C118.328 107.531 119.828 109.164 122.312 109.164C124.273 109.164 125.727 108.086 125.977 106.523H124.156ZM122.242 102.055C123.359 102.055 124.109 102.875 124.148 104.047H120.281C120.359 102.891 121.148 102.055 122.242 102.055ZM127.312 109H129.258V104.203C129.258 103.016 129.969 102.211 131.086 102.211C132.195 102.211 132.742 102.867 132.742 104.039V109H134.688V103.648C134.688 101.734 133.648 100.562 131.82 100.562C130.547 100.562 129.664 101.156 129.219 102.141H129.18V100.719H127.312V109ZM136.789 98.7812V100.719H135.602V102.219H136.789V106.797C136.789 108.406 137.492 109.039 139.281 109.039C139.695 109.039 140.078 109.008 140.289 108.961V107.477C140.164 107.5 139.914 107.516 139.734 107.516C139.047 107.516 138.734 107.203 138.734 106.523V102.219H140.297V100.719H138.734V98.7812H136.789Z" fill="white"/>
<defs>
<filter id="filter0_dd_536_6729" x="216" y="16" width="157" height="78" filterUnits="userSpaceOnUse" color-interpolation-filters="sRGB">
<feFlood flood-opacity="0" result="BackgroundImageFix"/>
<feColorMatrix in="SourceAlpha" type="matrix" values="0 0 0 0 0 0 0 0 0 0 0 0 0 0 0 0 0 0 127 0" result="hardAlpha"/>
<feOffset dx="8" dy="12"/>
<feGaussianBlur stdDeviation="9"/>
<feComposite in2="hardAlpha" operator="out"/>
<feColorMatrix type="matrix" values="0 0 0 0 0.239216 0 0 0 0 0.513726 0 0 0 0 1 0 0 0 0.1 0"/>
<feBlend mode="normal" in2="BackgroundImageFix" result="effect1_dropShadow_536_6729"/>
<feColorMatrix in="SourceAlpha" type="matrix" values="0 0 0 0 0 0 0 0 0 0 0 0 0 0 0 0 0 0 127 0" result="hardAlpha"/>
<feOffset dx="-4" dy="-4"/>
<feGaussianBlur stdDeviation="8"/>
<feComposite in2="hardAlpha" operator="out"/>
<feColorMatrix type="matrix" values="0 0 0 0 0.0901961 0 0 0 0 0.415686 0 0 0 0 1 0 0 0 0.05 0"/>
<feBlend mode="normal" in2="effect1_dropShadow_536_6729" result="effect2_dropShadow_536_6729"/>
<feBlend mode="normal" in="SourceGraphic" in2="effect2_dropShadow_536_6729" result="shape"/>
</filter>
<filter id="filter1_dd_536_6729" x="216" y="48" width="157" height="78" filterUnits="userSpaceOnUse" color-interpolation-filters="sRGB">
<feFlood flood-opacity="0" result="BackgroundImageFix"/>
<feColorMatrix in="SourceAlpha" type="matrix" values="0 0 0 0 0 0 0 0 0 0 0 0 0 0 0 0 0 0 127 0" result="hardAlpha"/>
<feOffset dx="8" dy="12"/>
<feGaussianBlur stdDeviation="9"/>
<feComposite in2="hardAlpha" operator="out"/>
<feColorMatrix type="matrix" values="0 0 0 0 0.239216 0 0 0 0 0.513726 0 0 0 0 1 0 0 0 0.1 0"/>
<feBlend mode="normal" in2="BackgroundImageFix" result="effect1_dropShadow_536_6729"/>
<feColorMatrix in="SourceAlpha" type="matrix" values="0 0 0 0 0 0 0 0 0 0 0 0 0 0 0 0 0 0 127 0" result="hardAlpha"/>
<feOffset dx="-4" dy="-4"/>
<feGaussianBlur stdDeviation="8"/>
<feComposite in2="hardAlpha" operator="out"/>
<feColorMatrix type="matrix" values="0 0 0 0 0.0901961 0 0 0 0 0.415686 0 0 0 0 1 0 0 0 0.05 0"/>
<feBlend mode="normal" in2="effect1_dropShadow_536_6729" result="effect2_dropShadow_536_6729"/>
<feBlend mode="normal" in="SourceGraphic" in2="effect2_dropShadow_536_6729" result="shape"/>
</filter>
<filter id="filter2_dd_536_6729" x="216" y="80" width="157" height="78" filterUnits="userSpaceOnUse" color-interpolation-filters="sRGB">
<feFlood flood-opacity="0" result="BackgroundImageFix"/>
<feColorMatrix in="SourceAlpha" type="matrix" values="0 0 0 0 0 0 0 0 0 0 0 0 0 0 0 0 0 0 127 0" result="hardAlpha"/>
<feOffset dx="8" dy="12"/>
<feGaussianBlur stdDeviation="9"/>
<feComposite in2="hardAlpha" operator="out"/>
<feColorMatrix type="matrix" values="0 0 0 0 0.239216 0 0 0 0 0.513726 0 0 0 0 1 0 0 0 0.1 0"/>
<feBlend mode="normal" in2="BackgroundImageFix" result="effect1_dropShadow_536_6729"/>
<feColorMatrix in="SourceAlpha" type="matrix" values="0 0 0 0 0 0 0 0 0 0 0 0 0 0 0 0 0 0 127 0" result="hardAlpha"/>
<feOffset dx="-4" dy="-4"/>
<feGaussianBlur stdDeviation="8"/>
<feComposite in2="hardAlpha" operator="out"/>
<feColorMatrix type="matrix" values="0 0 0 0 0.0901961 0 0 0 0 0.415686 0 0 0 0 1 0 0 0 0.05 0"/>
<feBlend mode="normal" in2="effect1_dropShadow_536_6729" result="effect2_dropShadow_536_6729"/>
<feBlend mode="normal" in="SourceGraphic" in2="effect2_dropShadow_536_6729" result="shape"/>
</filter>
<filter id="filter3_dd_536_6729" x="0" y="0" width="194" height="173" filterUnits="userSpaceOnUse" color-interpolation-filters="sRGB">
<feFlood flood-opacity="0" result="BackgroundImageFix"/>
<feColorMatrix in="SourceAlpha" type="matrix" values="0 0 0 0 0 0 0 0 0 0 0 0 0 0 0 0 0 0 127 0" result="hardAlpha"/>
<feOffset dx="8" dy="12"/>
<feGaussianBlur stdDeviation="9"/>
<feComposite in2="hardAlpha" operator="out"/>
<feColorMatrix type="matrix" values="0 0 0 0 0.239216 0 0 0 0 0.513726 0 0 0 0 1 0 0 0 0.1 0"/>
<feBlend mode="normal" in2="BackgroundImageFix" result="effect1_dropShadow_536_6729"/>
<feColorMatrix in="SourceAlpha" type="matrix" values="0 0 0 0 0 0 0 0 0 0 0 0 0 0 0 0 0 0 127 0" result="hardAlpha"/>
<feOffset dx="-4" dy="-4"/>
<feGaussianBlur stdDeviation="8"/>
<feComposite in2="hardAlpha" operator="out"/>
<feColorMatrix type="matrix" values="0 0 0 0 0.0901961 0 0 0 0 0.415686 0 0 0 0 1 0 0 0 0.05 0"/>
<feBlend mode="normal" in2="effect1_dropShadow_536_6729" result="effect2_dropShadow_536_6729"/>
<feBlend mode="normal" in="SourceGraphic" in2="effect2_dropShadow_536_6729" result="shape"/>
</filter>
</defs>
</svg>
