<svg width="602" height="209" viewBox="0 0 602 209" fill="none" xmlns="http://www.w3.org/2000/svg">
<rect width="602" height="209" fill="#171923"/>
<line x1="174.5" y1="49.5" x2="174.5" y2="168.5" stroke="white" stroke-opacity="0.4" stroke-linecap="round" stroke-dasharray="4 4"/>
<line x1="274.5" y1="49.5" x2="274.5" y2="168.5" stroke="white" stroke-opacity="0.4" stroke-linecap="round" stroke-dasharray="4 4"/>
<rect x="74" y="164" width="520" height="1" rx="0.5" fill="#D9D9D9"/>
<rect x="174" y="161" width="1" height="8" fill="#D9D9D9"/>
<line x1="74.5" y1="49.5" x2="74.5" y2="168.5" stroke="white" stroke-opacity="0.4" stroke-linecap="round" stroke-dasharray="4 4"/>
<rect x="74" y="161" width="1" height="8" fill="#D9D9D9"/>
<rect x="274" y="161" width="1" height="8" fill="#D9D9D9"/>
<line x1="374.5" y1="49.5" x2="374.5" y2="168.5" stroke="white" stroke-opacity="0.4" stroke-linecap="round" stroke-dasharray="4 4"/>
<rect x="374" y="161" width="1" height="8" fill="#D9D9D9"/>
<line x1="474.5" y1="49.5" x2="474.5" y2="168.5" stroke="white" stroke-opacity="0.4" stroke-linecap="round" stroke-dasharray="4 4"/>
<rect x="474" y="161" width="1" height="8" fill="#D9D9D9"/>
<line x1="574.5" y1="49.5" x2="574.5" y2="168.5" stroke="white" stroke-opacity="0.4" stroke-linecap="round" stroke-dasharray="4 4"/>
<rect x="574" y="161" width="1" height="8" fill="#D9D9D9"/>
<g filter="url(#filter0_d_1230_12470)">
<path d="M268.85 185V179.7L267.19 180.26V179.34L269.31 177.83H270.42V185H268.85ZM271.581 186.64L272.261 185H271.671V183.54H273.331V184.99L272.341 186.64H271.581ZM276.919 185.13C276.006 185.13 275.313 184.81 274.839 184.17C274.366 183.53 274.129 182.597 274.129 181.37C274.129 178.923 275.059 177.7 276.919 177.7C278.779 177.7 279.709 178.923 279.709 181.37C279.709 182.597 279.473 183.53 278.999 184.17C278.526 184.81 277.833 185.13 276.919 185.13ZM276.919 183.86C277.339 183.86 277.649 183.657 277.849 183.25C278.049 182.843 278.149 182.217 278.149 181.37C278.149 180.537 278.049 179.93 277.849 179.55C277.656 179.163 277.346 178.97 276.919 178.97C276.493 178.97 276.179 179.163 275.979 179.55C275.786 179.93 275.689 180.537 275.689 181.37C275.689 182.217 275.789 182.843 275.989 183.25C276.189 183.657 276.499 183.86 276.919 183.86Z" fill="white"/>
<path d="M170.23 185.13C169.317 185.13 168.623 184.81 168.15 184.17C167.677 183.53 167.44 182.597 167.44 181.37C167.44 178.923 168.37 177.7 170.23 177.7C172.09 177.7 173.02 178.923 173.02 181.37C173.02 182.597 172.783 183.53 172.31 184.17C171.837 184.81 171.143 185.13 170.23 185.13ZM170.23 183.86C170.65 183.86 170.96 183.657 171.16 183.25C171.36 182.843 171.46 182.217 171.46 181.37C171.46 180.537 171.36 179.93 171.16 179.55C170.967 179.163 170.657 178.97 170.23 178.97C169.803 178.97 169.49 179.163 169.29 179.55C169.097 179.93 169 180.537 169 181.37C169 182.217 169.1 182.843 169.3 183.25C169.5 183.657 169.81 183.86 170.23 183.86ZM173.73 186.64L174.41 185H173.82V183.54H175.48V184.99L174.49 186.64H173.73ZM176.533 184.68V183.35C176.827 183.497 177.153 183.613 177.513 183.7C177.88 183.78 178.233 183.82 178.573 183.82C179 183.82 179.337 183.72 179.583 183.52C179.83 183.32 179.953 183.047 179.953 182.7C179.953 182.367 179.85 182.107 179.643 181.92C179.443 181.733 179.157 181.64 178.783 181.64C178.35 181.64 177.907 181.74 177.453 181.94L176.573 181.25L176.993 177.83H180.943V179.1H178.113L177.933 180.66C178.273 180.54 178.62 180.48 178.973 180.48C179.713 180.48 180.297 180.68 180.723 181.08C181.15 181.473 181.363 182.017 181.363 182.71C181.363 183.197 181.253 183.623 181.033 183.99C180.813 184.35 180.5 184.63 180.093 184.83C179.693 185.03 179.223 185.13 178.683 185.13C178.27 185.13 177.873 185.09 177.493 185.01C177.12 184.93 176.8 184.82 176.533 184.68Z" fill="white"/>
<path d="M74.23 185.13C73.3167 185.13 72.6233 184.81 72.15 184.17C71.6767 183.53 71.44 182.597 71.44 181.37C71.44 178.923 72.37 177.7 74.23 177.7C76.09 177.7 77.02 178.923 77.02 181.37C77.02 182.597 76.7833 183.53 76.31 184.17C75.8367 184.81 75.1433 185.13 74.23 185.13ZM74.23 183.86C74.65 183.86 74.96 183.657 75.16 183.25C75.36 182.843 75.46 182.217 75.46 181.37C75.46 180.537 75.36 179.93 75.16 179.55C74.9667 179.163 74.6567 178.97 74.23 178.97C73.8033 178.97 73.49 179.163 73.29 179.55C73.0967 179.93 73 180.537 73 181.37C73 182.217 73.1 182.843 73.3 183.25C73.5 183.657 73.81 183.86 74.23 183.86Z" fill="white"/>
<path d="M369.85 185V179.7L368.19 180.26V179.34L370.31 177.83H371.42V185H369.85ZM372.581 186.64L373.261 185H372.671V183.54H374.331V184.99L373.341 186.64H372.581ZM375.385 184.68V183.35C375.678 183.497 376.005 183.613 376.365 183.7C376.731 183.78 377.085 183.82 377.425 183.82C377.851 183.82 378.188 183.72 378.435 183.52C378.681 183.32 378.805 183.047 378.805 182.7C378.805 182.367 378.701 182.107 378.495 181.92C378.295 181.733 378.008 181.64 377.635 181.64C377.201 181.64 376.758 181.74 376.305 181.94L375.425 181.25L375.845 177.83H379.795V179.1H376.965L376.785 180.66C377.125 180.54 377.471 180.48 377.825 180.48C378.565 180.48 379.148 180.68 379.575 181.08C380.001 181.473 380.215 182.017 380.215 182.71C380.215 183.197 380.105 183.623 379.885 183.99C379.665 184.35 379.351 184.63 378.945 184.83C378.545 185.03 378.075 185.13 377.535 185.13C377.121 185.13 376.725 185.09 376.345 185.01C375.971 184.93 375.651 184.82 375.385 184.68Z" fill="white"/>
<path d="M467.17 185V183.95L468.99 181.95C469.343 181.563 469.617 181.25 469.81 181.01C470.01 180.763 470.15 180.557 470.23 180.39C470.31 180.217 470.35 180.057 470.35 179.91C470.35 179.303 469.967 179 469.2 179C468.66 179 468.047 179.183 467.36 179.55V178.21C467.673 178.05 468.01 177.927 468.37 177.84C468.737 177.747 469.093 177.7 469.44 177.7C470.213 177.7 470.813 177.877 471.24 178.23C471.667 178.583 471.88 179.087 471.88 179.74C471.88 180.007 471.827 180.273 471.72 180.54C471.613 180.807 471.437 181.107 471.19 181.44C470.95 181.767 470.623 182.16 470.21 182.62L469.2 183.73H471.9V185H467.17ZM472.724 186.64L473.404 185H472.814V183.54H474.474V184.99L473.484 186.64H472.724ZM478.062 185.13C477.149 185.13 476.455 184.81 475.982 184.17C475.509 183.53 475.272 182.597 475.272 181.37C475.272 178.923 476.202 177.7 478.062 177.7C479.922 177.7 480.852 178.923 480.852 181.37C480.852 182.597 480.615 183.53 480.142 184.17C479.669 184.81 478.975 185.13 478.062 185.13ZM478.062 183.86C478.482 183.86 478.792 183.657 478.992 183.25C479.192 182.843 479.292 182.217 479.292 181.37C479.292 180.537 479.192 179.93 478.992 179.55C478.799 179.163 478.489 178.97 478.062 178.97C477.635 178.97 477.322 179.163 477.122 179.55C476.929 179.93 476.832 180.537 476.832 181.37C476.832 182.217 476.932 182.843 477.132 183.25C477.332 183.657 477.642 183.86 478.062 183.86Z" fill="white"/>
<path d="M568.17 185V183.95L569.99 181.95C570.343 181.563 570.617 181.25 570.81 181.01C571.01 180.763 571.15 180.557 571.23 180.39C571.31 180.217 571.35 180.057 571.35 179.91C571.35 179.303 570.967 179 570.2 179C569.66 179 569.047 179.183 568.36 179.55V178.21C568.673 178.05 569.01 177.927 569.37 177.84C569.737 177.747 570.093 177.7 570.44 177.7C571.213 177.7 571.813 177.877 572.24 178.23C572.667 178.583 572.88 179.087 572.88 179.74C572.88 180.007 572.827 180.273 572.72 180.54C572.613 180.807 572.437 181.107 572.19 181.44C571.95 181.767 571.623 182.16 571.21 182.62L570.2 183.73H572.9V185H568.17ZM573.724 186.64L574.404 185H573.814V183.54H575.474V184.99L574.484 186.64H573.724ZM576.527 184.68V183.35C576.821 183.497 577.147 183.613 577.507 183.7C577.874 183.78 578.227 183.82 578.567 183.82C578.994 183.82 579.331 183.72 579.577 183.52C579.824 183.32 579.947 183.047 579.947 182.7C579.947 182.367 579.844 182.107 579.637 181.92C579.437 181.733 579.151 181.64 578.777 181.64C578.344 181.64 577.901 181.74 577.447 181.94L576.567 181.25L576.987 177.83H580.937V179.1H578.107L577.927 180.66C578.267 180.54 578.614 180.48 578.967 180.48C579.707 180.48 580.291 180.68 580.717 181.08C581.144 181.473 581.357 182.017 581.357 182.71C581.357 183.197 581.247 183.623 581.027 183.99C580.807 184.35 580.494 184.63 580.087 184.83C579.687 185.03 579.217 185.13 578.677 185.13C578.264 185.13 577.867 185.09 577.487 185.01C577.114 184.93 576.794 184.82 576.527 184.68Z" fill="white"/>
</g>
<rect x="74.5" y="56.5" width="499" height="31" rx="7.5" fill="#3E4253" stroke="white"/>
<path d="M284 56.5C288.142 56.5 291.5 59.8579 291.5 64V80C291.5 84.1421 288.142 87.5 284 87.5H74.5V56.5H284Z" fill="white" stroke="white"/>
<path d="M34.464 77.616V75.424C34.9333 75.6267 35.3493 75.776 35.712 75.872C36.0853 75.968 36.4373 76.016 36.768 76.016C37.9307 76.016 38.512 75.456 38.512 74.336V68.448L36.384 67.76V66.368H41.008V74.56C41.008 75.7227 40.6667 76.624 39.984 77.264C39.312 77.904 38.368 78.224 37.152 78.224C36.6613 78.224 36.176 78.1707 35.696 78.064C35.2267 77.968 34.816 77.8187 34.464 77.616ZM43.1048 78V66.368H45.6008V78H43.1048ZM50.7024 78V68.48H47.2624V66.368H56.6384V68.48H53.1984V78H50.7024Z" fill="white"/>
<path d="M520.59 77V69.58L518.266 70.364V69.076L521.234 66.962H522.788V77H520.59ZM524.54 77V74.956H526.864V77H524.54ZM528.834 77V69.58L526.51 70.364V69.076L529.478 66.962H531.032V77H528.834ZM540.064 74.172C540.064 75.1147 539.728 75.852 539.056 76.384C538.393 76.916 537.464 77.182 536.27 77.182C535.084 77.182 534.156 76.916 533.484 76.384C532.812 75.852 532.476 75.1147 532.476 74.172C532.476 73.612 532.63 73.1127 532.938 72.674C533.255 72.2353 533.68 71.904 534.212 71.68C533.232 71.1573 532.742 70.4293 532.742 69.496C532.742 68.6373 533.05 67.97 533.666 67.494C534.282 67.018 535.15 66.78 536.27 66.78C537.39 66.78 538.258 67.018 538.874 67.494C539.49 67.97 539.798 68.6373 539.798 69.496C539.798 70.4293 539.308 71.1573 538.328 71.68C538.86 71.904 539.28 72.2353 539.588 72.674C539.905 73.1127 540.064 73.612 540.064 74.172ZM536.27 71.008C537.259 70.7933 537.754 70.3313 537.754 69.622C537.754 68.8473 537.259 68.46 536.27 68.46C535.28 68.46 534.786 68.8473 534.786 69.622C534.786 70.3313 535.28 70.7933 536.27 71.008ZM536.27 72.366C535.112 72.5807 534.534 73.136 534.534 74.032C534.534 74.4893 534.688 74.8487 534.996 75.11C535.304 75.3713 535.728 75.502 536.27 75.502C536.82 75.502 537.245 75.3713 537.544 75.11C537.852 74.8487 538.006 74.4893 538.006 74.032C538.006 73.136 537.427 72.5807 536.27 72.366ZM544.579 76.678V74.998C545.055 75.1753 545.489 75.306 545.881 75.39C546.273 75.4647 546.679 75.502 547.099 75.502C547.902 75.502 548.303 75.2967 548.303 74.886C548.303 74.7273 548.224 74.5967 548.065 74.494C547.916 74.3913 547.664 74.2887 547.309 74.186L546.273 73.892C545.648 73.7053 545.176 73.444 544.859 73.108C544.542 72.772 544.383 72.3333 544.383 71.792C544.383 71.0547 544.663 70.476 545.223 70.056C545.783 69.636 546.553 69.426 547.533 69.426C547.953 69.426 548.378 69.4633 548.807 69.538C549.236 69.6127 549.605 69.7153 549.913 69.846V71.498C549.148 71.2087 548.368 71.064 547.575 71.064C546.828 71.064 546.455 71.2553 546.455 71.638C546.455 71.7687 546.53 71.8853 546.679 71.988C546.828 72.0907 547.076 72.1933 547.421 72.296L548.457 72.59C549.166 72.7953 549.661 73.0567 549.941 73.374C550.23 73.6913 550.375 74.1533 550.375 74.76C550.375 75.5533 550.1 76.1553 549.549 76.566C548.998 76.9673 548.196 77.168 547.141 77.168C546.665 77.168 546.189 77.1213 545.713 77.028C545.237 76.944 544.859 76.8273 544.579 76.678ZM557.814 76.65C557.095 76.9953 556.237 77.168 555.238 77.168C553.969 77.168 552.993 76.8367 552.312 76.174C551.631 75.502 551.29 74.536 551.29 73.276C551.29 72.072 551.617 71.1293 552.27 70.448C552.933 69.7667 553.843 69.426 555 69.426C556.027 69.426 556.811 69.7247 557.352 70.322C557.893 70.9193 558.164 71.7453 558.164 72.8V73.878H553.404C553.488 74.4567 553.693 74.8767 554.02 75.138C554.356 75.3993 554.837 75.53 555.462 75.53C555.854 75.53 556.227 75.4973 556.582 75.432C556.946 75.3573 557.357 75.2313 557.814 75.054V76.65ZM554.972 70.966C553.973 70.966 553.437 71.4747 553.362 72.492H556.274C556.255 72.016 556.129 71.6427 555.896 71.372C555.663 71.1013 555.355 70.966 554.972 70.966ZM565.265 75.11V76.776C564.975 76.888 564.635 76.9813 564.243 77.056C563.851 77.1307 563.449 77.168 563.039 77.168C560.584 77.168 559.357 75.852 559.357 73.22C559.357 72.044 559.693 71.12 560.365 70.448C561.046 69.7667 561.979 69.426 563.165 69.426C563.809 69.426 564.439 69.5333 565.055 69.748V71.386C564.597 71.1527 564.093 71.036 563.543 71.036C562.889 71.036 562.385 71.218 562.031 71.582C561.676 71.9367 561.499 72.4827 561.499 73.22C561.499 73.9293 561.653 74.494 561.961 74.914C562.278 75.3247 562.74 75.53 563.347 75.53C563.645 75.53 563.953 75.4927 564.271 75.418C564.588 75.3433 564.919 75.2407 565.265 75.11Z" fill="white"/>
<rect x="74.5" y="104.5" width="499" height="31" rx="7.5" fill="#3E4253" stroke="white"/>
<g filter="url(#filter1_d_1230_12470)">
<path d="M74 104H78C82.4183 104 86 107.582 86 112V128C86 132.418 82.4183 136 78 136H74V104Z" fill="#F29111"/>
<path d="M78 104.5C82.1421 104.5 85.5 107.858 85.5 112V128C85.5 132.142 82.1421 135.5 78 135.5H74.5V104.5H78Z" stroke="white"/>
</g>
<path d="M520.522 125.182C519.243 125.182 518.273 124.734 517.61 123.838C516.947 122.942 516.616 121.635 516.616 119.918C516.616 116.493 517.918 114.78 520.522 114.78C523.126 114.78 524.428 116.493 524.428 119.918C524.428 121.635 524.097 122.942 523.434 123.838C522.771 124.734 521.801 125.182 520.522 125.182ZM520.522 123.404C521.11 123.404 521.544 123.119 521.824 122.55C522.104 121.981 522.244 121.103 522.244 119.918C522.244 118.751 522.104 117.902 521.824 117.37C521.553 116.829 521.119 116.558 520.522 116.558C519.925 116.558 519.486 116.829 519.206 117.37C518.935 117.902 518.8 118.751 518.8 119.918C518.8 121.103 518.94 121.981 519.22 122.55C519.5 123.119 519.934 123.404 520.522 123.404ZM525.547 125V122.956H527.871V125H525.547ZM529.842 125V117.58L527.518 118.364V117.076L530.486 114.962H532.04V125H529.842ZM533.259 125V123.53L535.807 120.73C536.302 120.189 536.685 119.75 536.955 119.414C537.235 119.069 537.431 118.779 537.543 118.546C537.655 118.303 537.711 118.079 537.711 117.874C537.711 117.025 537.175 116.6 536.101 116.6C535.345 116.6 534.487 116.857 533.525 117.37V115.494C533.964 115.27 534.435 115.097 534.939 114.976C535.453 114.845 535.952 114.78 536.437 114.78C537.52 114.78 538.36 115.027 538.957 115.522C539.555 116.017 539.853 116.721 539.853 117.636C539.853 118.009 539.779 118.383 539.629 118.756C539.48 119.129 539.233 119.549 538.887 120.016C538.551 120.473 538.094 121.024 537.515 121.668L536.101 123.222H539.881V125H533.259ZM544.438 124.678V122.998C544.914 123.175 545.348 123.306 545.74 123.39C546.132 123.465 546.538 123.502 546.958 123.502C547.761 123.502 548.162 123.297 548.162 122.886C548.162 122.727 548.083 122.597 547.924 122.494C547.775 122.391 547.523 122.289 547.168 122.186L546.132 121.892C545.507 121.705 545.036 121.444 544.718 121.108C544.401 120.772 544.242 120.333 544.242 119.792C544.242 119.055 544.522 118.476 545.082 118.056C545.642 117.636 546.412 117.426 547.392 117.426C547.812 117.426 548.237 117.463 548.666 117.538C549.096 117.613 549.464 117.715 549.772 117.846V119.498C549.007 119.209 548.228 119.064 547.434 119.064C546.688 119.064 546.314 119.255 546.314 119.638C546.314 119.769 546.389 119.885 546.538 119.988C546.688 120.091 546.935 120.193 547.28 120.296L548.316 120.59C549.026 120.795 549.52 121.057 549.8 121.374C550.09 121.691 550.234 122.153 550.234 122.76C550.234 123.553 549.959 124.155 549.408 124.566C548.858 124.967 548.055 125.168 547 125.168C546.524 125.168 546.048 125.121 545.572 125.028C545.096 124.944 544.718 124.827 544.438 124.678ZM557.674 124.65C556.955 124.995 556.096 125.168 555.098 125.168C553.828 125.168 552.853 124.837 552.172 124.174C551.49 123.502 551.15 122.536 551.15 121.276C551.15 120.072 551.476 119.129 552.13 118.448C552.792 117.767 553.702 117.426 554.86 117.426C555.886 117.426 556.67 117.725 557.212 118.322C557.753 118.919 558.024 119.745 558.024 120.8V121.878H553.264C553.348 122.457 553.553 122.877 553.88 123.138C554.216 123.399 554.696 123.53 555.322 123.53C555.714 123.53 556.087 123.497 556.442 123.432C556.806 123.357 557.216 123.231 557.674 123.054V124.65ZM554.832 118.966C553.833 118.966 553.296 119.475 553.222 120.492H556.134C556.115 120.016 555.989 119.643 555.756 119.372C555.522 119.101 555.214 118.966 554.832 118.966ZM565.124 123.11V124.776C564.835 124.888 564.494 124.981 564.102 125.056C563.71 125.131 563.309 125.168 562.898 125.168C560.443 125.168 559.216 123.852 559.216 121.22C559.216 120.044 559.552 119.12 560.224 118.448C560.905 117.767 561.839 117.426 563.024 117.426C563.668 117.426 564.298 117.533 564.914 117.748V119.386C564.457 119.153 563.953 119.036 563.402 119.036C562.749 119.036 562.245 119.218 561.89 119.582C561.535 119.937 561.358 120.483 561.358 121.22C561.358 121.929 561.512 122.494 561.82 122.914C562.137 123.325 562.599 123.53 563.206 123.53C563.505 123.53 563.813 123.493 564.13 123.418C564.447 123.343 564.779 123.241 565.124 123.11Z" fill="white"/>
<path d="M1.136 126V114.368H3.44L8.464 121.936V114.368H10.928V126H8.624L3.6 118.416V126H1.136ZM12.1745 126L16.5905 114.368H19.0065L23.4545 126H20.6705L19.9025 123.616H15.6145L14.8465 126H12.1745ZM16.2865 121.504H19.2145L17.7425 116.928L16.2865 121.504ZM25.7649 126V116.48H22.3249V114.368H31.7009V116.48H28.2609V126H25.7649ZM33.3704 126V114.368H35.8664V126H33.3704ZM41.4 126L37.112 114.368H39.928L42.648 122.928L45.4 114.368H48.104L43.816 126H41.4ZM49.3548 126V114.368H56.9228V116.48H51.8508V119.072H56.4588V121.184H51.8508V123.888H57.0828V126H49.3548Z" fill="white"/>
<path d="M79.28 35V22.06H74.68V20.46H85.74V22.06H81.14V35H79.28ZM87.4666 22.14V20.52H89.6666V22.14H87.4666ZM87.8866 35V25.96L86.8466 25.3V24.56H89.6866V35H87.8866ZM92.6875 35V24.56H93.9075L94.2275 26.3C94.6142 25.7 95.1008 25.2267 95.6875 24.88C96.2875 24.52 96.9408 24.34 97.6475 24.34C99.1942 24.34 100.241 25.0067 100.788 26.34C101.161 25.74 101.661 25.26 102.288 24.9C102.914 24.5267 103.601 24.34 104.348 24.34C105.481 24.34 106.348 24.7 106.948 25.42C107.548 26.1267 107.848 27.1667 107.848 28.54V35H106.048V28.58C106.048 26.78 105.348 25.88 103.948 25.88C103.268 25.88 102.681 26.0733 102.188 26.46C101.708 26.8333 101.368 27.3533 101.168 28.02V35H99.3875V28.58C99.3875 26.78 98.6675 25.88 97.2275 25.88C96.5742 25.88 96.0008 26.0867 95.5075 26.5C95.0142 26.9 94.6742 27.4467 94.4875 28.14V35H92.6875ZM118.634 34.48C118.261 34.7067 117.761 34.8867 117.134 35.02C116.521 35.1533 115.847 35.22 115.114 35.22C113.461 35.22 112.207 34.7533 111.354 33.82C110.514 32.8733 110.094 31.4933 110.094 29.68C110.094 27.9333 110.494 26.6067 111.294 25.7C112.107 24.7933 113.267 24.34 114.774 24.34C117.681 24.34 119.134 25.9467 119.134 29.16V30.32H111.914C111.994 31.4933 112.307 32.3533 112.854 32.9C113.401 33.4333 114.214 33.7 115.294 33.7C115.894 33.7 116.461 33.64 116.994 33.52C117.527 33.4 118.074 33.2133 118.634 32.96V34.48ZM114.774 25.82C113.894 25.82 113.207 26.0867 112.714 26.62C112.234 27.14 111.967 27.9 111.914 28.9H117.394C117.394 27.8067 117.187 27.02 116.774 26.54C116.374 26.06 115.707 25.82 114.774 25.82ZM126.66 31.82V26.04H124.86V25.12L126.66 24.52L127.38 21.68H128.46V24.56H130.72V26.04H128.46V31.8C128.46 32.9467 128.954 33.52 129.94 33.52C130.1 33.52 130.254 33.5133 130.4 33.5C130.56 33.4733 130.707 33.4533 130.84 33.44V35C130.654 35.04 130.46 35.0667 130.26 35.08C130.074 35.0933 129.874 35.1 129.66 35.1C128.634 35.1 127.874 34.8333 127.38 34.3C126.9 33.7667 126.66 32.94 126.66 31.82ZM137.183 35.22C135.609 35.22 134.389 34.74 133.523 33.78C132.656 32.8067 132.223 31.4733 132.223 29.78C132.223 28.0733 132.656 26.74 133.523 25.78C134.389 24.82 135.609 24.34 137.183 24.34C138.769 24.34 139.996 24.82 140.863 25.78C141.729 26.74 142.163 28.0733 142.163 29.78C142.163 31.4733 141.729 32.8067 140.863 33.78C139.996 34.74 138.769 35.22 137.183 35.22ZM137.183 33.74C138.209 33.74 138.989 33.4067 139.523 32.74C140.056 32.06 140.323 31.0733 140.323 29.78C140.323 28.4867 140.056 27.5067 139.523 26.84C138.989 26.16 138.209 25.82 137.183 25.82C136.169 25.82 135.396 26.16 134.863 26.84C134.329 27.5067 134.063 28.4867 134.063 29.78C134.063 31.0733 134.329 32.06 134.863 32.74C135.396 33.4067 136.169 33.74 137.183 33.74ZM149.986 35V26.04H148.186V25.12L149.986 24.52V23.36C149.986 21.0133 151.106 19.84 153.346 19.84C153.44 19.84 153.52 19.8467 153.586 19.86C153.666 19.86 153.753 19.8667 153.846 19.88V21.28H153.546C152.893 21.28 152.433 21.4467 152.166 21.78C151.913 22.1 151.786 22.62 151.786 23.34V24.56H154.106V26.04H151.786V35H149.986ZM155.706 22.14V20.52H157.906V22.14H155.706ZM156.126 35V25.96L155.186 25.3V24.56H157.926V35H156.126ZM160.93 35V24.56H162.15L162.51 26.52C163.19 25.2 164.163 24.54 165.43 24.54C165.696 24.54 165.93 24.56 166.13 24.6V26.18H165.67C164.91 26.18 164.276 26.3933 163.77 26.82C163.263 27.2467 162.916 27.8667 162.73 28.68V35H160.93ZM167.772 34.48V32.96C168.399 33.2267 168.965 33.42 169.472 33.54C169.992 33.66 170.539 33.72 171.112 33.72C172.845 33.72 173.712 33.2 173.712 32.16C173.712 31.7467 173.585 31.4267 173.332 31.2C173.079 30.96 172.632 30.7533 171.992 30.58L170.352 30.14C169.392 29.8733 168.692 29.5133 168.252 29.06C167.812 28.5933 167.592 28 167.592 27.28C167.592 26.3733 167.945 25.66 168.652 25.14C169.372 24.6067 170.339 24.34 171.552 24.34C172.219 24.34 172.825 24.3933 173.372 24.5C173.919 24.6067 174.392 24.7533 174.792 24.94V26.46C173.765 26.0467 172.725 25.84 171.672 25.84C170.152 25.84 169.392 26.28 169.392 27.16C169.392 27.5333 169.505 27.8333 169.732 28.06C169.972 28.2733 170.385 28.46 170.972 28.62L172.632 29.06C173.645 29.3267 174.379 29.7 174.832 30.18C175.285 30.6467 175.512 31.28 175.512 32.08C175.512 33.0533 175.132 33.82 174.372 34.38C173.612 34.94 172.559 35.22 171.212 35.22C170.572 35.22 169.945 35.1533 169.332 35.02C168.719 34.8867 168.199 34.7067 167.772 34.48ZM178.184 31.82V26.04H176.384V25.12L178.184 24.52L178.904 21.68H179.984V24.56H182.244V26.04H179.984V31.8C179.984 32.9467 180.477 33.52 181.464 33.52C181.624 33.52 181.777 33.5133 181.924 33.5C182.084 33.4733 182.23 33.4533 182.364 33.44V35C182.177 35.04 181.984 35.0667 181.784 35.08C181.597 35.0933 181.397 35.1 181.184 35.1C180.157 35.1 179.397 34.8333 178.904 34.3C178.424 33.7667 178.184 32.94 178.184 31.82ZM189.504 35V24.56H190.724L191.084 26.52C191.764 25.2 192.737 24.54 194.004 24.54C194.271 24.54 194.504 24.56 194.704 24.6V26.18H194.244C193.484 26.18 192.851 26.3933 192.344 26.82C191.837 27.2467 191.491 27.8667 191.304 28.68V35H189.504ZM204.396 34.48C204.022 34.7067 203.522 34.8867 202.896 35.02C202.282 35.1533 201.609 35.22 200.876 35.22C199.222 35.22 197.969 34.7533 197.116 33.82C196.276 32.8733 195.856 31.4933 195.856 29.68C195.856 27.9333 196.256 26.6067 197.056 25.7C197.869 24.7933 199.029 24.34 200.536 24.34C203.442 24.34 204.896 25.9467 204.896 29.16V30.32H197.676C197.756 31.4933 198.069 32.3533 198.616 32.9C199.162 33.4333 199.976 33.7 201.056 33.7C201.656 33.7 202.222 33.64 202.756 33.52C203.289 33.4 203.836 33.2133 204.396 32.96V34.48ZM200.536 25.82C199.656 25.82 198.969 26.0867 198.476 26.62C197.996 27.14 197.729 27.9 197.676 28.9H203.156C203.156 27.8067 202.949 27.02 202.536 26.54C202.136 26.06 201.469 25.82 200.536 25.82ZM206.815 34.48V32.96C207.442 33.2267 208.008 33.42 208.515 33.54C209.035 33.66 209.582 33.72 210.155 33.72C211.888 33.72 212.755 33.2 212.755 32.16C212.755 31.7467 212.628 31.4267 212.375 31.2C212.122 30.96 211.675 30.7533 211.035 30.58L209.395 30.14C208.435 29.8733 207.735 29.5133 207.295 29.06C206.855 28.5933 206.635 28 206.635 27.28C206.635 26.3733 206.988 25.66 207.695 25.14C208.415 24.6067 209.382 24.34 210.595 24.34C211.262 24.34 211.868 24.3933 212.415 24.5C212.962 24.6067 213.435 24.7533 213.835 24.94V26.46C212.808 26.0467 211.768 25.84 210.715 25.84C209.195 25.84 208.435 26.28 208.435 27.16C208.435 27.5333 208.548 27.8333 208.775 28.06C209.015 28.2733 209.428 28.46 210.015 28.62L211.675 29.06C212.688 29.3267 213.422 29.7 213.875 30.18C214.328 30.6467 214.555 31.28 214.555 32.08C214.555 33.0533 214.175 33.82 213.415 34.38C212.655 34.94 211.602 35.22 210.255 35.22C209.615 35.22 208.988 35.1533 208.375 35.02C207.762 34.8867 207.242 34.7067 206.815 34.48ZM216.691 39.02V24.56H217.911L218.211 26.24C218.611 25.64 219.118 25.1733 219.731 24.84C220.358 24.5067 221.031 24.34 221.751 24.34C223.138 24.34 224.218 24.82 224.991 25.78C225.765 26.7267 226.151 28.0533 226.151 29.76C226.151 31.48 225.758 32.82 224.971 33.78C224.198 34.74 223.111 35.22 221.711 35.22C221.125 35.22 220.551 35.1067 219.991 34.88C219.431 34.6533 218.931 34.3333 218.491 33.92V39.02H216.691ZM221.471 25.8C220.845 25.8 220.265 25.9733 219.731 26.32C219.211 26.6533 218.798 27.1133 218.491 27.7V32.34C219.305 33.2867 220.271 33.76 221.391 33.76C222.338 33.76 223.058 33.42 223.551 32.74C224.058 32.06 224.311 31.0733 224.311 29.78C224.311 28.5133 224.065 27.5333 223.571 26.84C223.078 26.1467 222.378 25.8 221.471 25.8ZM232.788 35.22C231.215 35.22 229.995 34.74 229.128 33.78C228.262 32.8067 227.828 31.4733 227.828 29.78C227.828 28.0733 228.262 26.74 229.128 25.78C229.995 24.82 231.215 24.34 232.788 24.34C234.375 24.34 235.602 24.82 236.468 25.78C237.335 26.74 237.768 28.0733 237.768 29.78C237.768 31.4733 237.335 32.8067 236.468 33.78C235.602 34.74 234.375 35.22 232.788 35.22ZM232.788 33.74C233.815 33.74 234.595 33.4067 235.128 32.74C235.662 32.06 235.928 31.0733 235.928 29.78C235.928 28.4867 235.662 27.5067 235.128 26.84C234.595 26.16 233.815 25.82 232.788 25.82C231.775 25.82 231.002 26.16 230.468 26.84C229.935 27.5067 229.668 28.4867 229.668 29.78C229.668 31.0733 229.935 32.06 230.468 32.74C231.002 33.4067 231.775 33.74 232.788 33.74ZM240.109 35V24.56H241.329L241.649 26.34C242.089 25.7 242.629 25.2067 243.269 24.86C243.909 24.5133 244.629 24.34 245.429 24.34C246.629 24.34 247.549 24.7 248.189 25.42C248.829 26.14 249.149 27.18 249.149 28.54V35H247.349V28.6C247.349 26.7867 246.563 25.88 244.989 25.88C244.323 25.88 243.709 26.0867 243.149 26.5C242.603 26.9 242.189 27.4467 241.909 28.14V35H240.109ZM251.483 34.48V32.96C252.11 33.2267 252.676 33.42 253.183 33.54C253.703 33.66 254.25 33.72 254.823 33.72C256.556 33.72 257.423 33.2 257.423 32.16C257.423 31.7467 257.296 31.4267 257.043 31.2C256.79 30.96 256.343 30.7533 255.703 30.58L254.063 30.14C253.103 29.8733 252.403 29.5133 251.963 29.06C251.523 28.5933 251.303 28 251.303 27.28C251.303 26.3733 251.656 25.66 252.363 25.14C253.083 24.6067 254.05 24.34 255.263 24.34C255.93 24.34 256.536 24.3933 257.083 24.5C257.63 24.6067 258.103 24.7533 258.503 24.94V26.46C257.476 26.0467 256.436 25.84 255.383 25.84C253.863 25.84 253.103 26.28 253.103 27.16C253.103 27.5333 253.216 27.8333 253.443 28.06C253.683 28.2733 254.096 28.46 254.683 28.62L256.343 29.06C257.356 29.3267 258.09 29.7 258.543 30.18C258.996 30.6467 259.223 31.28 259.223 32.08C259.223 33.0533 258.843 33.82 258.083 34.38C257.323 34.94 256.27 35.22 254.923 35.22C254.283 35.22 253.656 35.1533 253.043 35.02C252.43 34.8867 251.91 34.7067 251.483 34.48ZM269.239 34.48C268.866 34.7067 268.366 34.8867 267.739 35.02C267.126 35.1533 266.453 35.22 265.719 35.22C264.066 35.22 262.813 34.7533 261.959 33.82C261.119 32.8733 260.699 31.4933 260.699 29.68C260.699 27.9333 261.099 26.6067 261.899 25.7C262.713 24.7933 263.873 24.34 265.379 24.34C268.286 24.34 269.739 25.9467 269.739 29.16V30.32H262.519C262.599 31.4933 262.913 32.3533 263.459 32.9C264.006 33.4333 264.819 33.7 265.899 33.7C266.499 33.7 267.066 33.64 267.599 33.52C268.133 33.4 268.679 33.2133 269.239 32.96V34.48ZM265.379 25.82C264.499 25.82 263.813 26.0867 263.319 26.62C262.839 27.14 262.573 27.9 262.519 28.9H267.999C267.999 27.8067 267.793 27.02 267.379 26.54C266.979 26.06 266.313 25.82 265.379 25.82Z" fill="white"/>
<defs>
<filter id="filter0_d_1230_12470" x="57.4414" y="163.7" width="541.914" height="40.9395" filterUnits="userSpaceOnUse" color-interpolation-filters="sRGB">
<feFlood flood-opacity="0" result="BackgroundImageFix"/>
<feColorMatrix in="SourceAlpha" type="matrix" values="0 0 0 0 0 0 0 0 0 0 0 0 0 0 0 0 0 0 127 0" result="hardAlpha"/>
<feOffset dx="2" dy="2"/>
<feGaussianBlur stdDeviation="8"/>
<feComposite in2="hardAlpha" operator="out"/>
<feColorMatrix type="matrix" values="0 0 0 0 0.0901961 0 0 0 0 0.415686 0 0 0 0 1 0 0 0 0.55 0"/>
<feBlend mode="normal" in2="BackgroundImageFix" result="effect1_dropShadow_1230_12470"/>
<feBlend mode="normal" in="SourceGraphic" in2="effect1_dropShadow_1230_12470" result="shape"/>
</filter>
<filter id="filter1_d_1230_12470" x="60" y="90" width="44" height="64" filterUnits="userSpaceOnUse" color-interpolation-filters="sRGB">
<feFlood flood-opacity="0" result="BackgroundImageFix"/>
<feColorMatrix in="SourceAlpha" type="matrix" values="0 0 0 0 0 0 0 0 0 0 0 0 0 0 0 0 0 0 127 0" result="hardAlpha"/>
<feOffset dx="2" dy="2"/>
<feGaussianBlur stdDeviation="8"/>
<feComposite in2="hardAlpha" operator="out"/>
<feColorMatrix type="matrix" values="0 0 0 0 0.0901961 0 0 0 0 0.415686 0 0 0 0 1 0 0 0 0.55 0"/>
<feBlend mode="normal" in2="BackgroundImageFix" result="effect1_dropShadow_1230_12470"/>
<feBlend mode="normal" in="SourceGraphic" in2="effect1_dropShadow_1230_12470" result="shape"/>
</filter>
</defs>
</svg>
