<svg width="684" height="222" viewBox="0 0 684 222" fill="none" xmlns="http://www.w3.org/2000/svg">
<path fill-rule="evenodd" clip-rule="evenodd" d="M406 33H379C378.448 33 378 33.4477 378 34V34C378 34.5523 378.448 35 379 35H404C405.105 35 406 35.8954 406 37L406 63C406 64.1046 405.105 65 404 65H379C378.448 65 378 65.4477 378 66V66C378 66.5523 378.448 67 379 67H404C405.105 67 406 67.8954 406 69V95C406 96.1046 405.105 97 404 97H379C378.448 97 378 97.4477 378 98V98C378 98.5523 378.448 99 379 99H404C405.105 99 406 99.8954 406 101L406 127C406 128.105 405.105 129 404 129H379C378.448 129 378 129.448 378 130V130C378 130.552 378.448 131 379 131H404C405.105 131 406 131.895 406 133L406 175C406 176.105 405.105 177 404 177H379C378.448 177 378 177.448 378 178V178C378 178.552 378.448 179 379 179H406V179C407.105 179 408 178.105 408 177V177V131V129L408 109C408 107.895 408.895 107 410 107H430C430.552 107 431 106.552 431 106V106C431 105.448 430.552 105 430 105H410C408.895 105 408 104.105 408 103L408 99V97V67V65V35V35C408 33.8954 407.105 33 406 33V33Z" fill="#FF9142"/>
<path fill-rule="evenodd" clip-rule="evenodd" d="M194 33H233C233.552 33 234 33.4477 234 34V34C234 34.5523 233.552 35 233 35H196C194.895 35 194 35.8954 194 37V63C194 64.1046 194.895 65 196 65H233C233.552 65 234 65.4477 234 66V66C234 66.5523 233.552 67 233 67H196C194.895 67 194 67.8954 194 69V95C194 96.1046 194.895 97 196 97H233C233.552 97 234 97.4477 234 98V98C234 98.5523 233.552 99 233 99H196C194.895 99 194 99.8954 194 101V127C194 128.105 194.895 129 196 129H233C233.552 129 234 129.448 234 130V130C234 130.552 233.552 131 233 131H196C194.895 131 194 131.895 194 133V175C194 176.105 194.895 177 196 177H233C233.552 177 234 177.448 234 178V178C234 178.552 233.552 179 233 179H194V179C192.895 179 192 178.105 192 177L192 109C192 107.895 191.105 107 190 107H170C169.448 107 169 106.552 169 106V106C169 105.448 169.448 105 170 105H190C191.105 105 192 104.105 192 103L192 35C192 33.8954 192.895 33 194 33V33Z" fill="#FF9142"/>
<g filter="url(#filter0_dd_578_2399)">
<rect x="236" y="20" width="142" height="28" rx="4" fill="#1E2631"/>
<rect x="236.5" y="20.5" width="141" height="27" rx="3.5" stroke="white"/>
</g>
<path d="M258.023 28.5312C254.68 28.5312 252.586 30.7734 252.586 34.3672C252.586 37.9531 254.68 40.1875 258.023 40.1875C261.359 40.1875 263.461 37.9531 263.461 34.3672C263.461 30.7734 261.359 28.5312 258.023 28.5312ZM258.023 30.5C259.867 30.5 261.047 32 261.047 34.3672C261.047 36.7266 259.867 38.2188 258.023 38.2188C256.172 38.2188 254.992 36.7266 254.992 34.3672C254.992 32 256.18 30.5 258.023 30.5ZM269.766 40.1328C271.875 40.1328 273.164 38.5078 273.164 35.8125C273.164 33.1094 271.867 31.4922 269.758 31.4922C268.562 31.4922 267.633 32.0859 267.172 33.0781H267.125V28.7266H264.844V40H267.094V38.5625H267.141C267.602 39.5391 268.539 40.1328 269.766 40.1328ZM268.977 33.3203C270.109 33.3203 270.828 34.2891 270.828 35.8125C270.828 37.3438 270.117 38.2969 268.977 38.2969C267.867 38.2969 267.117 37.3281 267.117 35.8125C267.117 34.3125 267.875 33.3203 268.977 33.3203ZM275.516 30.4922C276.18 30.4922 276.703 29.9609 276.703 29.3203C276.703 28.6719 276.18 28.1484 275.516 28.1484C274.859 28.1484 274.328 28.6719 274.328 29.3203C274.328 29.9609 274.859 30.4922 275.516 30.4922ZM276.672 31.625H274.391V40.3203C274.391 41.0078 274.094 41.2734 273.336 41.2734C273.266 41.2734 273.102 41.2734 273.047 41.2656V42.9453C273.148 42.9609 273.492 42.9688 273.672 42.9688C275.633 42.9688 276.672 42.0859 276.672 40.3828V31.625ZM283.742 37.4375C283.531 38.0781 282.891 38.4922 282.055 38.4922C280.891 38.4922 280.133 37.6719 280.133 36.4766V36.3359H285.906V35.6406C285.906 33.0938 284.367 31.4453 281.93 31.4453C279.453 31.4453 277.891 33.1797 277.891 35.8516C277.891 38.5312 279.438 40.1797 282.016 40.1797C284.086 40.1797 285.586 39.0781 285.836 37.4375H283.742ZM281.953 33.1328C282.969 33.1328 283.664 33.8672 283.711 34.9375H280.156C280.234 33.8906 280.953 33.1328 281.953 33.1328ZM294.695 34.7422C294.594 32.8438 293.156 31.4453 290.891 31.4453C288.383 31.4453 286.781 33.1172 286.781 35.8047C286.781 38.5391 288.383 40.1797 290.906 40.1797C293.109 40.1797 294.586 38.9062 294.703 36.9297H292.578C292.438 37.8438 291.844 38.3906 290.93 38.3906C289.797 38.3906 289.094 37.4531 289.094 35.8047C289.094 34.1875 289.797 33.2344 290.922 33.2344C291.859 33.2344 292.445 33.8594 292.578 34.7422H294.695ZM296.414 29.6953V31.625H295.234V33.3438H296.414V37.7422C296.414 39.375 297.18 40.0312 299.148 40.0312C299.609 40.0312 300 39.9922 300.234 39.9375V38.2578C300.094 38.2812 299.883 38.2969 299.68 38.2969C299.008 38.2969 298.695 37.9922 298.695 37.3516V33.3438H300.242V31.625H298.695V29.6953H296.414ZM304.43 36.7812C304.5 38.9062 306.289 40.1875 308.977 40.1875C311.797 40.1875 313.523 38.7969 313.523 36.5938C313.523 34.8828 312.484 33.9219 310.102 33.4453L308.906 33.2031C307.578 32.9375 307.031 32.5078 307.031 31.8125C307.031 30.9844 307.812 30.4375 308.977 30.4375C310.164 30.4375 311 31.0156 311.078 31.9766H313.305C313.266 29.9062 311.609 28.5312 308.977 28.5312C306.469 28.5312 304.672 29.8984 304.672 31.9609C304.672 33.6406 305.773 34.7188 308.023 35.1641L309.211 35.3984C310.625 35.6875 311.156 36.1094 311.156 36.8516C311.156 37.6797 310.297 38.2891 309.039 38.2891C307.758 38.2891 306.805 37.7266 306.656 36.7812H304.43ZM315.383 29.6953V31.625H314.203V33.3438H315.383V37.7422C315.383 39.375 316.148 40.0312 318.117 40.0312C318.578 40.0312 318.969 39.9922 319.203 39.9375V38.2578C319.062 38.2812 318.852 38.2969 318.648 38.2969C317.977 38.2969 317.664 37.9922 317.664 37.3516V33.3438H319.211V31.625H317.664V29.6953H315.383ZM324.18 40.1797C326.711 40.1797 328.328 38.5625 328.328 35.8047C328.328 33.0859 326.688 31.4453 324.18 31.4453C321.672 31.4453 320.031 33.0938 320.031 35.8047C320.031 38.5547 321.648 40.1797 324.18 40.1797ZM324.18 38.4375C323.055 38.4375 322.344 37.4922 322.344 35.8125C322.344 34.1484 323.07 33.1875 324.18 33.1875C325.289 33.1875 326.008 34.1484 326.008 35.8125C326.008 37.4922 325.297 38.4375 324.18 38.4375ZM329.508 40H331.789V35.3203C331.789 34.1406 332.445 33.4531 333.57 33.4531C333.898 33.4531 334.211 33.5078 334.398 33.5859V31.5781C334.242 31.5312 334.016 31.4922 333.75 31.4922C332.766 31.4922 332.055 32.0703 331.758 33.1328H331.711V31.625H329.508V40ZM337.617 40.1328C338.664 40.1328 339.703 39.6094 340.172 38.7188H340.219V40H342.422V34.2422C342.422 32.5547 341.023 31.4453 338.875 31.4453C336.656 31.4453 335.273 32.5625 335.188 34.1875H337.273C337.383 33.5703 337.922 33.1484 338.773 33.1484C339.633 33.1484 340.18 33.6016 340.18 34.3828V34.9375L338.07 35.0625C335.984 35.1875 334.812 36.0703 334.812 37.5938C334.812 39.1016 336.023 40.1328 337.617 40.1328ZM338.367 38.4844C337.594 38.4844 337.078 38.0938 337.078 37.4688C337.078 36.875 337.562 36.4922 338.414 36.4297L340.18 36.3203V36.9297C340.18 37.8359 339.359 38.4844 338.367 38.4844ZM347.727 43.1562C350.234 43.1562 351.906 41.875 351.906 39.8828V31.625H349.656V33.0859H349.617C349.18 32.125 348.234 31.4922 347.031 31.4922C344.906 31.4922 343.594 33.125 343.594 35.7812C343.594 38.3984 344.945 39.9766 346.992 39.9766C348.203 39.9766 349.188 39.3672 349.578 38.4766H349.625V39.9453C349.625 40.9141 348.969 41.5625 347.789 41.5625C346.922 41.5625 346.266 41.1719 346.086 40.5938H343.852C344.031 42.0859 345.523 43.1562 347.727 43.1562ZM347.766 38.2188C346.633 38.2188 345.93 37.3281 345.93 35.7969C345.93 34.2734 346.641 33.3203 347.766 33.3203C348.906 33.3203 349.633 34.2891 349.633 35.7969C349.633 37.3125 348.906 38.2188 347.766 38.2188ZM358.945 37.4375C358.734 38.0781 358.094 38.4922 357.258 38.4922C356.094 38.4922 355.336 37.6719 355.336 36.4766V36.3359H361.109V35.6406C361.109 33.0938 359.57 31.4453 357.133 31.4453C354.656 31.4453 353.094 33.1797 353.094 35.8516C353.094 38.5312 354.641 40.1797 357.219 40.1797C359.289 40.1797 360.789 39.0781 361.039 37.4375H358.945ZM357.156 33.1328C358.172 33.1328 358.867 33.8672 358.914 34.9375H355.359C355.438 33.8906 356.156 33.1328 357.156 33.1328Z" fill="white"/>
<circle cx="236" cy="34" r="3" fill="white"/>
<circle cx="378" cy="34" r="3" fill="white"/>
<g filter="url(#filter1_dd_578_2399)">
<rect x="236" y="52" width="142" height="28" rx="4" fill="#1E2631"/>
<rect x="236.5" y="52.5" width="141" height="27" rx="3.5" stroke="white"/>
</g>
<path d="M281.922 72.1875C284.688 72.1875 286.617 70.6016 286.883 68.0859H284.586C284.336 69.4219 283.328 70.2422 281.93 70.2422C280.125 70.2422 278.992 68.7578 278.992 66.3516C278.992 63.9766 280.141 62.4844 281.922 62.4844C283.297 62.4844 284.359 63.3906 284.578 64.7734H286.875C286.695 62.25 284.633 60.5312 281.922 60.5312C278.656 60.5312 276.586 62.7266 276.586 66.3594C276.586 70 278.641 72.1875 281.922 72.1875ZM290.586 72.1328C291.633 72.1328 292.672 71.6094 293.141 70.7188H293.188V72H295.391V66.2422C295.391 64.5547 293.992 63.4453 291.844 63.4453C289.625 63.4453 288.242 64.5625 288.156 66.1875H290.242C290.352 65.5703 290.891 65.1484 291.742 65.1484C292.602 65.1484 293.148 65.6016 293.148 66.3828V66.9375L291.039 67.0625C288.953 67.1875 287.781 68.0703 287.781 69.5938C287.781 71.1016 288.992 72.1328 290.586 72.1328ZM291.336 70.4844C290.562 70.4844 290.047 70.0938 290.047 69.4688C290.047 68.875 290.531 68.4922 291.383 68.4297L293.148 68.3203V68.9297C293.148 69.8359 292.328 70.4844 291.336 70.4844ZM304.477 66.7422C304.375 64.8438 302.938 63.4453 300.672 63.4453C298.164 63.4453 296.562 65.1172 296.562 67.8047C296.562 70.5391 298.164 72.1797 300.688 72.1797C302.891 72.1797 304.367 70.9062 304.484 68.9297H302.359C302.219 69.8438 301.625 70.3906 300.711 70.3906C299.578 70.3906 298.875 69.4531 298.875 67.8047C298.875 66.1875 299.578 65.2344 300.703 65.2344C301.641 65.2344 302.227 65.8594 302.359 66.7422H304.477ZM305.641 72H307.922V67.2188C307.922 66.1172 308.555 65.3594 309.633 65.3594C310.672 65.3594 311.203 66.0156 311.203 67.0938V72H313.484V66.6094C313.484 64.6719 312.422 63.4688 310.562 63.4688C309.289 63.4688 308.375 64.0625 307.93 65.1172H307.883V60.7266H305.641V72ZM316.117 62.4922C316.781 62.4922 317.305 61.9609 317.305 61.3203C317.305 60.6719 316.781 60.1484 316.117 60.1484C315.453 60.1484 314.93 60.6719 314.93 61.3203C314.93 61.9609 315.453 62.4922 316.117 62.4922ZM314.984 72H317.266V63.625H314.984V72ZM318.789 72H321.07V67.1953C321.07 66.1094 321.719 65.3594 322.742 65.3594C323.766 65.3594 324.281 65.9844 324.281 67.0781V72H326.562V66.6016C326.562 64.6406 325.516 63.4688 323.656 63.4688C322.367 63.4688 321.484 64.0781 321.039 65.1172H320.992V63.625H318.789V72ZM331.836 75.1562C334.344 75.1562 336.016 73.875 336.016 71.8828V63.625H333.766V65.0859H333.727C333.289 64.125 332.344 63.4922 331.141 63.4922C329.016 63.4922 327.703 65.125 327.703 67.7812C327.703 70.3984 329.055 71.9766 331.102 71.9766C332.312 71.9766 333.297 71.3672 333.688 70.4766H333.734V71.9453C333.734 72.9141 333.078 73.5625 331.898 73.5625C331.031 73.5625 330.375 73.1719 330.195 72.5938H327.961C328.141 74.0859 329.633 75.1562 331.836 75.1562ZM331.875 70.2188C330.742 70.2188 330.039 69.3281 330.039 67.7969C330.039 66.2734 330.75 65.3203 331.875 65.3203C333.016 65.3203 333.742 66.2891 333.742 67.7969C333.742 69.3125 333.016 70.2188 331.875 70.2188Z" fill="white"/>
<circle cx="236" cy="66" r="3" fill="white"/>
<circle cx="378" cy="66" r="3" fill="white"/>
<g filter="url(#filter2_dd_578_2399)">
<rect x="236" y="84" width="142" height="28" rx="4" fill="#1E2631"/>
<rect x="236.5" y="84.5" width="141" height="27" rx="3.5" stroke="white"/>
</g>
<path d="M285.992 104V94.6719H289.258V92.7266H280.375V94.6719H283.633V104H285.992ZM289.305 104H291.586V99.3203C291.586 98.1406 292.242 97.4531 293.367 97.4531C293.695 97.4531 294.008 97.5078 294.195 97.5859V95.5781C294.039 95.5312 293.812 95.4922 293.547 95.4922C292.562 95.4922 291.852 96.0703 291.555 97.1328H291.508V95.625H289.305V104ZM297.414 104.133C298.461 104.133 299.5 103.609 299.969 102.719H300.016V104H302.219V98.2422C302.219 96.5547 300.82 95.4453 298.672 95.4453C296.453 95.4453 295.07 96.5625 294.984 98.1875H297.07C297.18 97.5703 297.719 97.1484 298.57 97.1484C299.43 97.1484 299.977 97.6016 299.977 98.3828V98.9375L297.867 99.0625C295.781 99.1875 294.609 100.07 294.609 101.594C294.609 103.102 295.82 104.133 297.414 104.133ZM298.164 102.484C297.391 102.484 296.875 102.094 296.875 101.469C296.875 100.875 297.359 100.492 298.211 100.43L299.977 100.32V100.93C299.977 101.836 299.156 102.484 298.164 102.484ZM311.305 98.7422C311.203 96.8438 309.766 95.4453 307.5 95.4453C304.992 95.4453 303.391 97.1172 303.391 99.8047C303.391 102.539 304.992 104.18 307.516 104.18C309.719 104.18 311.195 102.906 311.312 100.93H309.188C309.047 101.844 308.453 102.391 307.539 102.391C306.406 102.391 305.703 101.453 305.703 99.8047C305.703 98.1875 306.406 97.2344 307.531 97.2344C308.469 97.2344 309.055 97.8594 309.188 98.7422H311.305ZM313.586 94.4922C314.25 94.4922 314.773 93.9609 314.773 93.3203C314.773 92.6719 314.25 92.1484 313.586 92.1484C312.922 92.1484 312.398 92.6719 312.398 93.3203C312.398 93.9609 312.922 94.4922 313.586 94.4922ZM312.453 104H314.734V95.625H312.453V104ZM316.258 104H318.539V99.1953C318.539 98.1094 319.188 97.3594 320.211 97.3594C321.234 97.3594 321.75 97.9844 321.75 99.0781V104H324.031V98.6016C324.031 96.6406 322.984 95.4688 321.125 95.4688C319.836 95.4688 318.953 96.0781 318.508 97.1172H318.461V95.625H316.258V104ZM329.305 107.156C331.812 107.156 333.484 105.875 333.484 103.883V95.625H331.234V97.0859H331.195C330.758 96.125 329.812 95.4922 328.609 95.4922C326.484 95.4922 325.172 97.125 325.172 99.7812C325.172 102.398 326.523 103.977 328.57 103.977C329.781 103.977 330.766 103.367 331.156 102.477H331.203V103.945C331.203 104.914 330.547 105.562 329.367 105.562C328.5 105.562 327.844 105.172 327.664 104.594H325.43C325.609 106.086 327.102 107.156 329.305 107.156ZM329.344 102.219C328.211 102.219 327.508 101.328 327.508 99.7969C327.508 98.2734 328.219 97.3203 329.344 97.3203C330.484 97.3203 331.211 98.2891 331.211 99.7969C331.211 101.312 330.484 102.219 329.344 102.219Z" fill="white"/>
<circle cx="236" cy="98" r="3" fill="white"/>
<circle cx="378" cy="98" r="3" fill="white"/>
<g filter="url(#filter3_dd_578_2399)">
<rect x="236" y="116" width="142" height="28" rx="4" fill="#1E2631"/>
<rect x="236.5" y="116.5" width="141" height="27" rx="3.5" stroke="white"/>
</g>
<path d="M292.875 136V124.727H290.141L286.938 132.82H286.875L283.672 124.727H280.938V136H283.039V128.391H283.102L286.164 136H287.648L290.711 128.391H290.773V136H292.875ZM300.102 133.438C299.891 134.078 299.25 134.492 298.414 134.492C297.25 134.492 296.492 133.672 296.492 132.477V132.336H302.266V131.641C302.266 129.094 300.727 127.445 298.289 127.445C295.812 127.445 294.25 129.18 294.25 131.852C294.25 134.531 295.797 136.18 298.375 136.18C300.445 136.18 301.945 135.078 302.195 133.438H300.102ZM298.312 129.133C299.328 129.133 300.023 129.867 300.07 130.938H296.516C296.594 129.891 297.312 129.133 298.312 129.133ZM304.055 125.695V127.625H302.875V129.344H304.055V133.742C304.055 135.375 304.82 136.031 306.789 136.031C307.25 136.031 307.641 135.992 307.875 135.938V134.258C307.734 134.281 307.523 134.297 307.32 134.297C306.648 134.297 306.336 133.992 306.336 133.352V129.344H307.883V127.625H306.336V125.695H304.055ZM309.133 136H311.414V131.32C311.414 130.141 312.07 129.453 313.195 129.453C313.523 129.453 313.836 129.508 314.023 129.586V127.578C313.867 127.531 313.641 127.492 313.375 127.492C312.391 127.492 311.68 128.07 311.383 129.133H311.336V127.625H309.133V136ZM316.133 126.492C316.797 126.492 317.32 125.961 317.32 125.32C317.32 124.672 316.797 124.148 316.133 124.148C315.469 124.148 314.945 124.672 314.945 125.32C314.945 125.961 315.469 126.492 316.133 126.492ZM315 136H317.281V127.625H315V136ZM326.414 130.742C326.312 128.844 324.875 127.445 322.609 127.445C320.102 127.445 318.5 129.117 318.5 131.805C318.5 134.539 320.102 136.18 322.625 136.18C324.828 136.18 326.305 134.906 326.422 132.93H324.297C324.156 133.844 323.562 134.391 322.648 134.391C321.516 134.391 320.812 133.453 320.812 131.805C320.812 130.188 321.516 129.234 322.641 129.234C323.578 129.234 324.164 129.859 324.297 130.742H326.414ZM327.383 130.086C327.383 131.344 328.203 132.156 329.82 132.5L331.25 132.797C332.07 132.984 332.359 133.234 332.359 133.68C332.359 134.227 331.828 134.578 330.969 134.578C330.062 134.578 329.539 134.188 329.398 133.453H327.172C327.32 135.102 328.656 136.18 330.969 136.18C333.125 136.18 334.633 135.094 334.633 133.445C334.633 132.219 333.914 131.531 332.164 131.164L330.734 130.859C329.891 130.68 329.578 130.391 329.578 129.961C329.578 129.406 330.102 129.047 330.891 129.047C331.734 129.047 332.242 129.508 332.312 130.188H334.414C334.367 128.547 333.039 127.445 330.891 127.445C328.758 127.445 327.383 128.492 327.383 130.086Z" fill="white"/>
<circle cx="236" cy="130" r="3" fill="white"/>
<circle cx="378" cy="130" r="3" fill="white"/>
<g filter="url(#filter4_dd_578_2399)">
<rect x="236" y="164" width="142" height="28" rx="4" fill="#1E2631"/>
<rect x="236.5" y="164.5" width="141" height="27" rx="3.5" stroke="white"/>
</g>
<path d="M272.938 172.727V184H277.242C280.625 184 282.617 181.898 282.617 178.32C282.617 174.742 280.625 172.727 277.242 172.727H272.938ZM275.297 174.672H276.961C279.039 174.672 280.211 175.969 280.211 178.328C280.211 180.766 279.07 182.047 276.961 182.047H275.297V174.672ZM286.383 184.133C287.43 184.133 288.469 183.609 288.938 182.719H288.984V184H291.188V178.242C291.188 176.555 289.789 175.445 287.641 175.445C285.422 175.445 284.039 176.562 283.953 178.188H286.039C286.148 177.57 286.688 177.148 287.539 177.148C288.398 177.148 288.945 177.602 288.945 178.383V178.938L286.836 179.062C284.75 179.188 283.578 180.07 283.578 181.594C283.578 183.102 284.789 184.133 286.383 184.133ZM287.133 182.484C286.359 182.484 285.844 182.094 285.844 181.469C285.844 180.875 286.328 180.492 287.18 180.43L288.945 180.32V180.93C288.945 181.836 288.125 182.484 287.133 182.484ZM293.273 173.695V175.625H292.094V177.344H293.273V181.742C293.273 183.375 294.039 184.031 296.008 184.031C296.469 184.031 296.859 183.992 297.094 183.938V182.258C296.953 182.281 296.742 182.297 296.539 182.297C295.867 182.297 295.555 181.992 295.555 181.352V177.344H297.102V175.625H295.555V173.695H293.273ZM300.758 184.133C301.805 184.133 302.844 183.609 303.312 182.719H303.359V184H305.562V178.242C305.562 176.555 304.164 175.445 302.016 175.445C299.797 175.445 298.414 176.562 298.328 178.188H300.414C300.523 177.57 301.062 177.148 301.914 177.148C302.773 177.148 303.32 177.602 303.32 178.383V178.938L301.211 179.062C299.125 179.188 297.953 180.07 297.953 181.594C297.953 183.102 299.164 184.133 300.758 184.133ZM301.508 182.484C300.734 182.484 300.219 182.094 300.219 181.469C300.219 180.875 300.703 180.492 301.555 180.43L303.32 180.32V180.93C303.32 181.836 302.5 182.484 301.508 182.484ZM312.016 184.133C314.125 184.133 315.414 182.508 315.414 179.812C315.414 177.109 314.117 175.492 312.008 175.492C310.812 175.492 309.883 176.086 309.422 177.078H309.375V172.727H307.094V184H309.344V182.562H309.391C309.852 183.539 310.789 184.133 312.016 184.133ZM311.227 177.32C312.359 177.32 313.078 178.289 313.078 179.812C313.078 181.344 312.367 182.297 311.227 182.297C310.117 182.297 309.367 181.328 309.367 179.812C309.367 178.312 310.125 177.32 311.227 177.32ZM319.086 184.133C320.133 184.133 321.172 183.609 321.641 182.719H321.688V184H323.891V178.242C323.891 176.555 322.492 175.445 320.344 175.445C318.125 175.445 316.742 176.562 316.656 178.188H318.742C318.852 177.57 319.391 177.148 320.242 177.148C321.102 177.148 321.648 177.602 321.648 178.383V178.938L319.539 179.062C317.453 179.188 316.281 180.07 316.281 181.594C316.281 183.102 317.492 184.133 319.086 184.133ZM319.836 182.484C319.062 182.484 318.547 182.094 318.547 181.469C318.547 180.875 319.031 180.492 319.883 180.43L321.648 180.32V180.93C321.648 181.836 320.828 182.484 319.836 182.484ZM325.227 178.086C325.227 179.344 326.047 180.156 327.664 180.5L329.094 180.797C329.914 180.984 330.203 181.234 330.203 181.68C330.203 182.227 329.672 182.578 328.812 182.578C327.906 182.578 327.383 182.188 327.242 181.453H325.016C325.164 183.102 326.5 184.18 328.812 184.18C330.969 184.18 332.477 183.094 332.477 181.445C332.477 180.219 331.758 179.531 330.008 179.164L328.578 178.859C327.734 178.68 327.422 178.391 327.422 177.961C327.422 177.406 327.945 177.047 328.734 177.047C329.578 177.047 330.086 177.508 330.156 178.188H332.258C332.211 176.547 330.883 175.445 328.734 175.445C326.602 175.445 325.227 176.492 325.227 178.086ZM339.148 181.438C338.938 182.078 338.297 182.492 337.461 182.492C336.297 182.492 335.539 181.672 335.539 180.477V180.336H341.312V179.641C341.312 177.094 339.773 175.445 337.336 175.445C334.859 175.445 333.297 177.18 333.297 179.852C333.297 182.531 334.844 184.18 337.422 184.18C339.492 184.18 340.992 183.078 341.242 181.438H339.148ZM337.359 177.133C338.375 177.133 339.07 177.867 339.117 178.938H335.562C335.641 177.891 336.359 177.133 337.359 177.133Z" fill="white"/>
<circle cx="236" cy="178" r="3" fill="white"/>
<circle cx="378" cy="178" r="3" fill="white"/>
<circle cx="283" cy="154" r="4" fill="white"/>
<circle cx="307" cy="154" r="4" fill="white"/>
<circle cx="331" cy="154" r="4" fill="white"/>
<rect x="217.5" y="4.5" width="179" height="203" rx="7.5" stroke="white" stroke-opacity="0.2" stroke-linecap="round" stroke-linejoin="round" stroke-dasharray="12 12"/>
<g filter="url(#filter5_dd_578_2399)">
<rect x="20" y="20" width="148" height="172" rx="8" fill="#1E2631"/>
<rect x="20.5" y="20.5" width="147" height="171" rx="7.5" stroke="white"/>
</g>
<circle cx="168" cy="106" r="3" fill="white"/>
<path d="M20 28C20 23.5817 23.5817 20 28 20H160C164.418 20 168 23.5817 168 28V52H20V28Z" fill="white"/>
<path d="M51.2969 42V37.5625H55.8828V35.6953H51.2969V32.6719H56.3203V30.7266H48.9375V42H51.2969ZM57.5234 42H59.8047V37.3203C59.8047 36.1406 60.4609 35.4531 61.5859 35.4531C61.9141 35.4531 62.2266 35.5078 62.4141 35.5859V33.5781C62.2578 33.5312 62.0312 33.4922 61.7656 33.4922C60.7812 33.4922 60.0703 34.0703 59.7734 35.1328H59.7266V33.625H57.5234V42ZM65.6328 42.1328C66.6797 42.1328 67.7188 41.6094 68.1875 40.7188H68.2344V42H70.4375V36.2422C70.4375 34.5547 69.0391 33.4453 66.8906 33.4453C64.6719 33.4453 63.2891 34.5625 63.2031 36.1875H65.2891C65.3984 35.5703 65.9375 35.1484 66.7891 35.1484C67.6484 35.1484 68.1953 35.6016 68.1953 36.3828V36.9375L66.0859 37.0625C64 37.1875 62.8281 38.0703 62.8281 39.5938C62.8281 41.1016 64.0391 42.1328 65.6328 42.1328ZM66.3828 40.4844C65.6094 40.4844 65.0938 40.0938 65.0938 39.4688C65.0938 38.875 65.5781 38.4922 66.4297 38.4297L68.1953 38.3203V38.9297C68.1953 39.8359 67.375 40.4844 66.3828 40.4844ZM71.9141 42H74.1953V36.9453C74.1953 36.0078 74.7812 35.3516 75.6484 35.3516C76.4922 35.3516 77 35.8828 77 36.7812V42H79.1953V36.9141C79.1953 35.9844 79.7656 35.3516 80.6328 35.3516C81.5156 35.3516 82 35.8828 82 36.8516V42H84.2812V36.2812C84.2812 34.5938 83.1797 33.4688 81.5391 33.4688C80.3125 33.4688 79.3125 34.1328 78.9375 35.1875H78.8906C78.6094 34.0938 77.7656 33.4688 76.5547 33.4688C75.4141 33.4688 74.5156 34.1328 74.1641 35.1406H74.1172V33.625H71.9141V42ZM91.2734 39.4375C91.0625 40.0781 90.4219 40.4922 89.5859 40.4922C88.4219 40.4922 87.6641 39.6719 87.6641 38.4766V38.3359H93.4375V37.6406C93.4375 35.0938 91.8984 33.4453 89.4609 33.4453C86.9844 33.4453 85.4219 35.1797 85.4219 37.8516C85.4219 40.5312 86.9688 42.1797 89.5469 42.1797C91.6172 42.1797 93.1172 41.0781 93.3672 39.4375H91.2734ZM89.4844 35.1328C90.5 35.1328 91.1953 35.8672 91.2422 36.9375H87.6875C87.7656 35.8906 88.4844 35.1328 89.4844 35.1328ZM106.32 33.625H104.07L102.797 39.8359H102.75L101.258 33.625H99.0703L97.5859 39.8359H97.5391L96.2734 33.625H93.9766L96.2031 42H98.6016L100.109 36.0781H100.156L101.672 42H104.102L106.32 33.625ZM110.93 42.1797C113.461 42.1797 115.078 40.5625 115.078 37.8047C115.078 35.0859 113.438 33.4453 110.93 33.4453C108.422 33.4453 106.781 35.0938 106.781 37.8047C106.781 40.5547 108.398 42.1797 110.93 42.1797ZM110.93 40.4375C109.805 40.4375 109.094 39.4922 109.094 37.8125C109.094 36.1484 109.82 35.1875 110.93 35.1875C112.039 35.1875 112.758 36.1484 112.758 37.8125C112.758 39.4922 112.047 40.4375 110.93 40.4375ZM116.258 42H118.539V37.3203C118.539 36.1406 119.195 35.4531 120.32 35.4531C120.648 35.4531 120.961 35.5078 121.148 35.5859V33.5781C120.992 33.5312 120.766 33.4922 120.5 33.4922C119.516 33.4922 118.805 34.0703 118.508 35.1328H118.461V33.625H116.258V42ZM124.453 36.9844H124.422V30.7266H122.141V42H124.422V39.2344L125.016 38.5938L127.414 42H130.039L126.688 37.2188L129.883 33.625H127.297L124.453 36.9844ZM130.398 36.0859C130.398 37.3438 131.219 38.1562 132.836 38.5L134.266 38.7969C135.086 38.9844 135.375 39.2344 135.375 39.6797C135.375 40.2266 134.844 40.5781 133.984 40.5781C133.078 40.5781 132.555 40.1875 132.414 39.4531H130.188C130.336 41.1016 131.672 42.1797 133.984 42.1797C136.141 42.1797 137.648 41.0938 137.648 39.4453C137.648 38.2188 136.93 37.5312 135.18 37.1641L133.75 36.8594C132.906 36.6797 132.594 36.3906 132.594 35.9609C132.594 35.4062 133.117 35.0469 133.906 35.0469C134.75 35.0469 135.258 35.5078 135.328 36.1875H137.43C137.383 34.5469 136.055 33.4453 133.906 33.4453C131.773 33.4453 130.398 34.4922 130.398 36.0859Z" fill="#1E2631"/>
<path d="M71.625 102V90.7266H69.2969L65.8438 99.3281H65.7812L62.3281 90.7266H59.9922V102H61.8125V94H61.8672L65.125 102H66.5L69.7578 94H69.8125V102H71.625ZM74.4375 92.4688C75.0312 92.4688 75.5 91.9922 75.5 91.4141C75.5 90.8281 75.0312 90.3594 74.4375 90.3594C73.8438 90.3594 73.3672 90.8281 73.3672 91.4141C73.3672 91.9922 73.8438 92.4688 74.4375 92.4688ZM73.4688 102H75.4141V93.7188H73.4688V102ZM84.3438 96.6719C84.2109 94.9297 82.8594 93.5469 80.6719 93.5469C78.2656 93.5469 76.7031 95.2109 76.7031 97.8594C76.7031 100.547 78.2656 102.164 80.6875 102.164C82.7656 102.164 84.1953 100.945 84.3516 99.0938H82.5156C82.3359 100.031 81.6953 100.594 80.7109 100.594C79.4766 100.594 78.6797 99.5938 78.6797 97.8594C78.6797 96.1562 79.4688 95.125 80.6953 95.125C81.7344 95.125 82.3516 95.7891 82.5078 96.6719H84.3438ZM85.5156 102H87.4609V97.1797C87.4609 96.0156 88.125 95.3047 89.2266 95.3047C89.5547 95.3047 89.8516 95.3516 90.0156 95.4141V93.6562C89.875 93.625 89.6562 93.5781 89.4062 93.5781C88.4297 93.5781 87.7031 94.1562 87.4219 95.1641H87.3828V93.7188H85.5156V102ZM94.3672 102.164C96.7969 102.164 98.375 100.547 98.375 97.8594C98.375 95.1797 96.7812 93.5469 94.3672 93.5469C91.9531 93.5469 90.3594 95.1875 90.3594 97.8594C90.3594 100.547 91.9375 102.164 94.3672 102.164ZM94.3672 100.625C93.1328 100.625 92.3359 99.625 92.3359 97.8594C92.3359 96.1016 93.1406 95.0938 94.3672 95.0938C95.6016 95.0938 96.3984 96.1016 96.3984 97.8594C96.3984 99.625 95.6016 100.625 94.3672 100.625ZM99.625 102H101.57V97.2031C101.57 96.0156 102.281 95.2109 103.398 95.2109C104.508 95.2109 105.055 95.8672 105.055 97.0391V102H107V96.6484C107 94.7344 105.961 93.5625 104.133 93.5625C102.859 93.5625 101.977 94.1562 101.531 95.1406H101.492V93.7188H99.625V102ZM111 102.133C112.062 102.133 113.102 101.578 113.578 100.68H113.617V102H115.492V96.2969C115.492 94.6328 114.156 93.5469 112.102 93.5469C109.992 93.5469 108.672 94.6562 108.586 96.2031H110.391C110.516 95.5156 111.102 95.0703 112.023 95.0703C112.984 95.0703 113.57 95.5703 113.57 96.4375V97.0312L111.383 97.1562C109.367 97.2812 108.234 98.1641 108.234 99.6328C108.234 101.125 109.398 102.133 111 102.133ZM111.586 100.664C110.742 100.664 110.18 100.234 110.18 99.5547C110.18 98.8984 110.719 98.4766 111.656 98.4141L113.57 98.2969V98.9297C113.57 99.9297 112.688 100.664 111.586 100.664ZM124.406 93.7188H122.461V98.5078C122.461 99.7109 121.766 100.508 120.641 100.508C119.547 100.508 118.969 99.8672 118.969 98.6797V93.7188H117.023V99.0703C117.023 100.984 118.164 102.148 119.961 102.148C121.219 102.148 122.055 101.57 122.492 100.562H122.531V102H124.406V93.7188ZM126.539 91.7812V93.7188H125.352V95.2188H126.539V99.7969C126.539 101.406 127.242 102.039 129.031 102.039C129.445 102.039 129.828 102.008 130.039 101.961V100.477C129.914 100.5 129.664 100.516 129.484 100.516C128.797 100.516 128.484 100.203 128.484 99.5234V95.2188H130.047V93.7188H128.484V91.7812H126.539Z" fill="white"/>
<path d="M49.5234 130.852C49.6172 132.914 51.3438 134.188 53.9531 134.188C56.6641 134.188 58.3594 132.828 58.3594 130.672C58.3594 129 57.3672 128.047 54.9922 127.555L53.7734 127.305C52.3672 127.008 51.8047 126.516 51.8047 125.75C51.8047 124.805 52.6953 124.211 53.9453 124.211C55.2344 124.211 56.125 124.852 56.2188 125.914H58.1484C58.1016 123.898 56.4531 122.539 53.9609 122.539C51.5156 122.539 49.7734 123.883 49.7734 125.867C49.7734 127.516 50.8281 128.578 53.0859 129.039L54.2969 129.289C55.7656 129.594 56.3281 130.094 56.3281 130.906C56.3281 131.844 55.3828 132.516 54.0234 132.516C52.6172 132.516 51.6016 131.891 51.4531 130.852H49.5234ZM64.2188 125.578C63.0156 125.578 62.0781 126.188 61.6094 127.148H61.5703V125.719H59.6719V136.727H61.6172V132.625H61.6562C62.1094 133.555 63.0469 134.133 64.25 134.133C66.3281 134.133 67.6562 132.5 67.6562 129.859C67.6562 127.211 66.3203 125.578 64.2188 125.578ZM63.625 132.539C62.4141 132.539 61.6094 131.484 61.6016 129.859C61.6094 128.25 62.4141 127.18 63.625 127.18C64.8828 127.18 65.6641 128.227 65.6641 129.859C65.6641 131.5 64.8828 132.539 63.625 132.539ZM68.9062 134H70.8516V129.18C70.8516 128.016 71.5156 127.305 72.6172 127.305C72.9453 127.305 73.2422 127.352 73.4062 127.414V125.656C73.2656 125.625 73.0469 125.578 72.7969 125.578C71.8203 125.578 71.0938 126.156 70.8125 127.164H70.7734V125.719H68.9062V134ZM75.4219 124.469C76.0156 124.469 76.4844 123.992 76.4844 123.414C76.4844 122.828 76.0156 122.359 75.4219 122.359C74.8281 122.359 74.3516 122.828 74.3516 123.414C74.3516 123.992 74.8281 124.469 75.4219 124.469ZM74.4531 134H76.3984V125.719H74.4531V134ZM78.0312 134H79.9766V129.203C79.9766 128.016 80.6875 127.211 81.8047 127.211C82.9141 127.211 83.4609 127.867 83.4609 129.039V134H85.4062V128.648C85.4062 126.734 84.3672 125.562 82.5391 125.562C81.2656 125.562 80.3828 126.156 79.9375 127.141H79.8984V125.719H78.0312V134ZM90.6172 137.125C93.0312 137.125 94.6172 135.844 94.6172 133.867V125.719H92.7109V127.141H92.6797C92.2031 126.188 91.25 125.578 90.0703 125.578C87.9531 125.578 86.625 127.211 86.625 129.828C86.625 132.406 87.9844 134.008 90.0312 134.008C91.2188 134.008 92.1953 133.414 92.625 132.523H92.6719V133.922C92.6719 134.977 91.9453 135.688 90.6797 135.688C89.7578 135.688 89.0469 135.258 88.8359 134.625H86.9062C87.1016 136.078 88.5703 137.125 90.6172 137.125ZM90.625 132.461C89.3984 132.461 88.6172 131.477 88.6172 129.836C88.6172 128.211 89.3984 127.18 90.625 127.18C91.8672 127.18 92.6719 128.227 92.6719 129.836C92.6719 131.453 91.8672 132.461 90.625 132.461ZM104.328 134C106.734 134 108.195 132.781 108.195 130.797C108.195 129.305 107.125 128.203 105.594 128.055V127.992C106.75 127.805 107.648 126.75 107.648 125.539C107.648 123.828 106.328 122.727 104.281 122.727H99.6016V134H104.328ZM101.617 124.297H103.773C104.977 124.297 105.656 124.852 105.656 125.836C105.656 126.883 104.867 127.477 103.461 127.477H101.617V124.297ZM101.617 132.43V128.906H103.781C105.328 128.906 106.141 129.508 106.141 130.656C106.141 131.812 105.352 132.43 103.867 132.43H101.617ZM113.102 134.164C115.531 134.164 117.109 132.547 117.109 129.859C117.109 127.18 115.516 125.547 113.102 125.547C110.688 125.547 109.094 127.188 109.094 129.859C109.094 132.547 110.672 134.164 113.102 134.164ZM113.102 132.625C111.867 132.625 111.07 131.625 111.07 129.859C111.07 128.102 111.875 127.094 113.102 127.094C114.336 127.094 115.133 128.102 115.133 129.859C115.133 131.625 114.336 132.625 113.102 132.625ZM122.023 134.164C124.453 134.164 126.031 132.547 126.031 129.859C126.031 127.18 124.438 125.547 122.023 125.547C119.609 125.547 118.016 127.188 118.016 129.859C118.016 132.547 119.594 134.164 122.023 134.164ZM122.023 132.625C120.789 132.625 119.992 131.625 119.992 129.859C119.992 128.102 120.797 127.094 122.023 127.094C123.258 127.094 124.055 128.102 124.055 129.859C124.055 131.625 123.258 132.625 122.023 132.625ZM127.82 123.781V125.719H126.633V127.219H127.82V131.797C127.82 133.406 128.523 134.039 130.312 134.039C130.727 134.039 131.109 134.008 131.32 133.961V132.477C131.195 132.5 130.945 132.516 130.766 132.516C130.078 132.516 129.766 132.203 129.766 131.523V127.219H131.328V125.719H129.766V123.781H127.82ZM137.531 127.5L138.086 126.523L136.359 125.539L138.094 124.539L137.531 123.562L135.867 124.578L135.938 122.727H134.68L134.75 124.578L133.086 123.562L132.539 124.539L134.25 125.531L132.531 126.516L133.078 127.5L134.75 126.484L134.68 128.336H135.938L135.867 126.484L137.531 127.5Z" fill="white"/>
<circle cx="70" cy="156" r="4" fill="white"/>
<circle cx="94" cy="156" r="4" fill="white"/>
<circle cx="118" cy="156" r="4" fill="white"/>
<g filter="url(#filter6_dd_578_2399)">
<rect x="429" y="20" width="229" height="172" rx="8" fill="#1E2631"/>
<rect x="429.5" y="20.5" width="228" height="171" rx="7.5" stroke="white"/>
</g>
<circle cx="429" cy="106" r="3" fill="white"/>
<path d="M429 28C429 23.5817 432.582 20 437 20H650C654.418 20 658 23.5817 658 28V52H429V28Z" fill="white"/>
<path d="M494.922 42.1875C497.688 42.1875 499.617 40.6016 499.883 38.0859H497.586C497.336 39.4219 496.328 40.2422 494.93 40.2422C493.125 40.2422 491.992 38.7578 491.992 36.3516C491.992 33.9766 493.141 32.4844 494.922 32.4844C496.297 32.4844 497.359 33.3906 497.578 34.7734H499.875C499.695 32.25 497.633 30.5312 494.922 30.5312C491.656 30.5312 489.586 32.7266 489.586 36.3594C489.586 40 491.641 42.1875 494.922 42.1875ZM501.203 42H503.484V30.7266H501.203V42ZM508.867 42.1797C511.398 42.1797 513.016 40.5625 513.016 37.8047C513.016 35.0859 511.375 33.4453 508.867 33.4453C506.359 33.4453 504.719 35.0938 504.719 37.8047C504.719 40.5547 506.336 42.1797 508.867 42.1797ZM508.867 40.4375C507.742 40.4375 507.031 39.4922 507.031 37.8125C507.031 36.1484 507.758 35.1875 508.867 35.1875C509.977 35.1875 510.695 36.1484 510.695 37.8125C510.695 39.4922 509.984 40.4375 508.867 40.4375ZM521.93 33.625H519.648V38.4219C519.648 39.5312 519.016 40.2578 518 40.2578C516.992 40.2578 516.438 39.6641 516.438 38.5469V33.625H514.156V39.0234C514.156 40.9766 515.359 42.1562 517.172 42.1562C518.438 42.1562 519.266 41.5469 519.68 40.4922H519.727V42H521.93V33.625ZM526.523 42.1328C527.758 42.1328 528.727 41.4844 529.133 40.5625H529.172V42H531.422V30.7266H529.141V35.0625H529.094C528.688 34.1328 527.75 33.4922 526.539 33.4922C524.438 33.4922 523.109 35.1406 523.109 37.7969C523.109 40.4766 524.43 42.1328 526.523 42.1328ZM527.297 35.3203C528.43 35.3203 529.156 36.2891 529.156 37.8125C529.156 39.3438 528.43 40.2969 527.297 40.2969C526.148 40.2969 525.445 39.3516 525.445 37.8125C525.445 36.2812 526.148 35.3203 527.297 35.3203ZM535.883 38.7812C535.953 40.9062 537.742 42.1875 540.43 42.1875C543.25 42.1875 544.977 40.7969 544.977 38.5938C544.977 36.8828 543.938 35.9219 541.555 35.4453L540.359 35.2031C539.031 34.9375 538.484 34.5078 538.484 33.8125C538.484 32.9844 539.266 32.4375 540.43 32.4375C541.617 32.4375 542.453 33.0156 542.531 33.9766H544.758C544.719 31.9062 543.062 30.5312 540.43 30.5312C537.922 30.5312 536.125 31.8984 536.125 33.9609C536.125 35.6406 537.227 36.7188 539.477 37.1641L540.664 37.3984C542.078 37.6875 542.609 38.1094 542.609 38.8516C542.609 39.6797 541.75 40.2891 540.492 40.2891C539.211 40.2891 538.258 39.7266 538.109 38.7812H535.883ZM551.773 39.4375C551.562 40.0781 550.922 40.4922 550.086 40.4922C548.922 40.4922 548.164 39.6719 548.164 38.4766V38.3359H553.938V37.6406C553.938 35.0938 552.398 33.4453 549.961 33.4453C547.484 33.4453 545.922 35.1797 545.922 37.8516C545.922 40.5312 547.469 42.1797 550.047 42.1797C552.117 42.1797 553.617 41.0781 553.867 39.4375H551.773ZM549.984 35.1328C551 35.1328 551.695 35.8672 551.742 36.9375H548.188C548.266 35.8906 548.984 35.1328 549.984 35.1328ZM555.117 42H557.398V37.3203C557.398 36.1406 558.055 35.4531 559.18 35.4531C559.508 35.4531 559.82 35.5078 560.008 35.5859V33.5781C559.852 33.5312 559.625 33.4922 559.359 33.4922C558.375 33.4922 557.664 34.0703 557.367 35.1328H557.32V33.625H555.117V42ZM568.602 33.625H566.219L564.484 39.9844H564.438L562.695 33.625H560.25L563.148 42H565.727L568.602 33.625ZM570.57 32.4922C571.234 32.4922 571.758 31.9609 571.758 31.3203C571.758 30.6719 571.234 30.1484 570.57 30.1484C569.906 30.1484 569.383 30.6719 569.383 31.3203C569.383 31.9609 569.906 32.4922 570.57 32.4922ZM569.438 42H571.719V33.625H569.438V42ZM580.852 36.7422C580.75 34.8438 579.312 33.4453 577.047 33.4453C574.539 33.4453 572.938 35.1172 572.938 37.8047C572.938 40.5391 574.539 42.1797 577.062 42.1797C579.266 42.1797 580.742 40.9062 580.859 38.9297H578.734C578.594 39.8438 578 40.3906 577.086 40.3906C575.953 40.3906 575.25 39.4531 575.25 37.8047C575.25 36.1875 575.953 35.2344 577.078 35.2344C578.016 35.2344 578.602 35.8594 578.734 36.7422H580.852ZM587.508 39.4375C587.297 40.0781 586.656 40.4922 585.82 40.4922C584.656 40.4922 583.898 39.6719 583.898 38.4766V38.3359H589.672V37.6406C589.672 35.0938 588.133 33.4453 585.695 33.4453C583.219 33.4453 581.656 35.1797 581.656 37.8516C581.656 40.5312 583.203 42.1797 585.781 42.1797C587.852 42.1797 589.352 41.0781 589.602 39.4375H587.508ZM585.719 35.1328C586.734 35.1328 587.43 35.8672 587.477 36.9375H583.922C584 35.8906 584.719 35.1328 585.719 35.1328ZM590.711 36.0859C590.711 37.3438 591.531 38.1562 593.148 38.5L594.578 38.7969C595.398 38.9844 595.688 39.2344 595.688 39.6797C595.688 40.2266 595.156 40.5781 594.297 40.5781C593.391 40.5781 592.867 40.1875 592.727 39.4531H590.5C590.648 41.1016 591.984 42.1797 594.297 42.1797C596.453 42.1797 597.961 41.0938 597.961 39.4453C597.961 38.2188 597.242 37.5312 595.492 37.1641L594.062 36.8594C593.219 36.6797 592.906 36.3906 592.906 35.9609C592.906 35.4062 593.43 35.0469 594.219 35.0469C595.062 35.0469 595.57 35.5078 595.641 36.1875H597.742C597.695 34.5469 596.367 33.4453 594.219 33.4453C592.086 33.4453 590.711 34.4922 590.711 36.0859Z" fill="#1E2631"/>
<path d="M453.961 74.5391C450.672 74.5391 448.609 76.7812 448.609 80.3672C448.609 83.9531 450.672 86.1875 453.961 86.1875C457.242 86.1875 459.305 83.9531 459.305 80.3672C459.305 76.7812 457.242 74.5391 453.961 74.5391ZM453.961 76.2578C455.969 76.2578 457.25 77.8516 457.25 80.3672C457.25 82.875 455.969 84.4688 453.961 84.4688C451.945 84.4688 450.672 82.875 450.672 80.3672C450.672 77.8516 451.945 76.2578 453.961 76.2578ZM460.719 86H462.664V81.1797C462.664 80.0156 463.328 79.3047 464.43 79.3047C464.758 79.3047 465.055 79.3516 465.219 79.4141V77.6562C465.078 77.625 464.859 77.5781 464.609 77.5781C463.633 77.5781 462.906 78.1562 462.625 79.1641H462.586V77.7188H460.719V86ZM468.469 86.1328C469.531 86.1328 470.57 85.5781 471.047 84.6797H471.086V86H472.961V80.2969C472.961 78.6328 471.625 77.5469 469.57 77.5469C467.461 77.5469 466.141 78.6562 466.055 80.2031H467.859C467.984 79.5156 468.57 79.0703 469.492 79.0703C470.453 79.0703 471.039 79.5703 471.039 80.4375V81.0312L468.852 81.1562C466.836 81.2812 465.703 82.1641 465.703 83.6328C465.703 85.125 466.867 86.1328 468.469 86.1328ZM469.055 84.6641C468.211 84.6641 467.648 84.2344 467.648 83.5547C467.648 82.8984 468.188 82.4766 469.125 82.4141L471.039 82.2969V82.9297C471.039 83.9297 470.156 84.6641 469.055 84.6641ZM481.828 80.6719C481.695 78.9297 480.344 77.5469 478.156 77.5469C475.75 77.5469 474.188 79.2109 474.188 81.8594C474.188 84.5469 475.75 86.1641 478.172 86.1641C480.25 86.1641 481.68 84.9453 481.836 83.0938H480C479.82 84.0312 479.18 84.5938 478.195 84.5938C476.961 84.5938 476.164 83.5938 476.164 81.8594C476.164 80.1562 476.953 79.125 478.18 79.125C479.219 79.125 479.836 79.7891 479.992 80.6719H481.828ZM483.055 86H485V74.7266H483.055V86ZM492.141 83.5234C491.93 84.2109 491.242 84.6641 490.336 84.6641C489.062 84.6641 488.25 83.7734 488.25 82.4453V82.3281H494.039V81.6953C494.039 79.1797 492.57 77.5469 490.219 77.5469C487.828 77.5469 486.312 79.2734 486.312 81.8906C486.312 84.5312 487.812 86.1641 490.297 86.1641C492.258 86.1641 493.711 85.0859 493.961 83.5234H492.141ZM490.227 79.0547C491.344 79.0547 492.094 79.875 492.133 81.0469H488.266C488.344 79.8906 489.133 79.0547 490.227 79.0547ZM503.555 86.1875C506.219 86.1875 508.062 84.7266 508.414 82.3125H506.438C506.125 83.6719 505.055 84.4766 503.562 84.4766C501.609 84.4766 500.375 82.8906 500.375 80.3594C500.375 77.8438 501.617 76.25 503.555 76.25C505.016 76.25 506.164 77.1797 506.43 78.5938H508.414C508.164 76.1719 506.172 74.5391 503.555 74.5391C500.352 74.5391 498.312 76.7656 498.312 80.3594C498.312 83.9766 500.336 86.1875 503.555 86.1875ZM509.805 86H511.75V74.7266H509.805V86ZM517.07 86.1641C519.5 86.1641 521.078 84.5469 521.078 81.8594C521.078 79.1797 519.484 77.5469 517.07 77.5469C514.656 77.5469 513.062 79.1875 513.062 81.8594C513.062 84.5469 514.641 86.1641 517.07 86.1641ZM517.07 84.625C515.836 84.625 515.039 83.625 515.039 81.8594C515.039 80.1016 515.844 79.0938 517.07 79.0938C518.305 79.0938 519.102 80.1016 519.102 81.8594C519.102 83.625 518.305 84.625 517.07 84.625ZM529.672 77.7188H527.727V82.5078C527.727 83.7109 527.031 84.5078 525.906 84.5078C524.812 84.5078 524.234 83.8672 524.234 82.6797V77.7188H522.289V83.0703C522.289 84.9844 523.43 86.1484 525.227 86.1484C526.484 86.1484 527.32 85.5703 527.758 84.5625H527.797V86H529.672V77.7188ZM534.359 86.1328C535.57 86.1328 536.523 85.5156 536.977 84.5859H537.008V86H538.914V74.7266H536.969V79.1094H536.922C536.484 78.1953 535.547 77.5781 534.359 77.5781C532.273 77.5781 530.922 79.2344 530.922 81.8516C530.922 84.4844 532.273 86.1328 534.359 86.1328ZM534.945 79.1797C536.172 79.1797 536.977 80.2344 536.977 81.8594C536.977 83.5 536.172 84.5391 534.945 84.5391C533.688 84.5391 532.914 83.5078 532.914 81.8594C532.914 80.2188 533.695 79.1797 534.945 79.1797ZM545.961 86V74.7266H543.945V86H545.961ZM547.75 86H549.695V81.2031C549.695 80.0156 550.406 79.2109 551.523 79.2109C552.633 79.2109 553.18 79.8672 553.18 81.0391V86H555.125V80.6484C555.125 78.7344 554.086 77.5625 552.258 77.5625C550.984 77.5625 550.102 78.1562 549.656 79.1406H549.617V77.7188H547.75V86ZM557.227 86H559.172V79.2188H560.797V77.7422H559.141V77.0625C559.141 76.3906 559.477 76.0391 560.219 76.0391C560.445 76.0391 560.672 76.0625 560.836 76.0859V74.7266C560.594 74.6797 560.172 74.6406 559.789 74.6406C557.992 74.6406 557.227 75.3984 557.227 77.0078V77.7422H556.094V79.2188H557.227V86ZM562.078 86H564.023V81.1797C564.023 80.0156 564.688 79.3047 565.789 79.3047C566.117 79.3047 566.414 79.3516 566.578 79.4141V77.6562C566.438 77.625 566.219 77.5781 565.969 77.5781C564.992 77.5781 564.266 78.1562 563.984 79.1641H563.945V77.7188H562.078V86ZM569.828 86.1328C570.891 86.1328 571.93 85.5781 572.406 84.6797H572.445V86H574.32V80.2969C574.32 78.6328 572.984 77.5469 570.93 77.5469C568.82 77.5469 567.5 78.6562 567.414 80.2031H569.219C569.344 79.5156 569.93 79.0703 570.852 79.0703C571.812 79.0703 572.398 79.5703 572.398 80.4375V81.0312L570.211 81.1562C568.195 81.2812 567.062 82.1641 567.062 83.6328C567.062 85.125 568.227 86.1328 569.828 86.1328ZM570.414 84.6641C569.57 84.6641 569.008 84.2344 569.008 83.5547C569.008 82.8984 569.547 82.4766 570.484 82.4141L572.398 82.2969V82.9297C572.398 83.9297 571.516 84.6641 570.414 84.6641ZM575.742 80.0938C575.742 81.3203 576.539 82.1016 578.125 82.4531L579.5 82.7578C580.367 82.9531 580.664 83.2344 580.664 83.7344C580.664 84.3516 580.078 84.7422 579.133 84.7422C578.148 84.7422 577.594 84.3359 577.445 83.5312H575.531C575.688 85.1328 576.969 86.1641 579.133 86.1641C581.164 86.1641 582.602 85.1094 582.602 83.5469C582.602 82.3438 581.938 81.6797 580.219 81.2969L578.844 80.9922C577.977 80.7969 577.633 80.4688 577.633 79.9922C577.633 79.3828 578.203 78.9766 579.062 78.9766C579.961 78.9766 580.516 79.4531 580.594 80.2031H582.406C582.359 78.6328 581.078 77.5469 579.062 77.5469C577.062 77.5469 575.742 78.5781 575.742 80.0938ZM584.383 75.7812V77.7188H583.195V79.2188H584.383V83.7969C584.383 85.4062 585.086 86.0391 586.875 86.0391C587.289 86.0391 587.672 86.0078 587.883 85.9609V84.4766C587.758 84.5 587.508 84.5156 587.328 84.5156C586.641 84.5156 586.328 84.2031 586.328 83.5234V79.2188H587.891V77.7188H586.328V75.7812H584.383ZM589.219 86H591.164V81.1797C591.164 80.0156 591.828 79.3047 592.93 79.3047C593.258 79.3047 593.555 79.3516 593.719 79.4141V77.6562C593.578 77.625 593.359 77.5781 593.109 77.5781C592.133 77.5781 591.406 78.1562 591.125 79.1641H591.086V77.7188H589.219V86ZM602.062 77.7188H600.117V82.5078C600.117 83.7109 599.422 84.5078 598.297 84.5078C597.203 84.5078 596.625 83.8672 596.625 82.6797V77.7188H594.68V83.0703C594.68 84.9844 595.82 86.1484 597.617 86.1484C598.875 86.1484 599.711 85.5703 600.148 84.5625H600.188V86H602.062V77.7188ZM610.953 80.6719C610.82 78.9297 609.469 77.5469 607.281 77.5469C604.875 77.5469 603.312 79.2109 603.312 81.8594C603.312 84.5469 604.875 86.1641 607.297 86.1641C609.375 86.1641 610.805 84.9453 610.961 83.0938H609.125C608.945 84.0312 608.305 84.5938 607.32 84.5938C606.086 84.5938 605.289 83.5938 605.289 81.8594C605.289 80.1562 606.078 79.125 607.305 79.125C608.344 79.125 608.961 79.7891 609.117 80.6719H610.953ZM612.664 75.7812V77.7188H611.477V79.2188H612.664V83.7969C612.664 85.4062 613.367 86.0391 615.156 86.0391C615.57 86.0391 615.953 86.0078 616.164 85.9609V84.4766C616.039 84.5 615.789 84.5156 615.609 84.5156C614.922 84.5156 614.609 84.2031 614.609 83.5234V79.2188H616.172V77.7188H614.609V75.7812H612.664ZM624.844 77.7188H622.898V82.5078C622.898 83.7109 622.203 84.5078 621.078 84.5078C619.984 84.5078 619.406 83.8672 619.406 82.6797V77.7188H617.461V83.0703C617.461 84.9844 618.602 86.1484 620.398 86.1484C621.656 86.1484 622.492 85.5703 622.93 84.5625H622.969V86H624.844V77.7188ZM626.438 86H628.383V81.1797C628.383 80.0156 629.047 79.3047 630.148 79.3047C630.477 79.3047 630.773 79.3516 630.938 79.4141V77.6562C630.797 77.625 630.578 77.5781 630.328 77.5781C629.352 77.5781 628.625 78.1562 628.344 79.1641H628.305V77.7188H626.438V86ZM637.109 83.5234C636.898 84.2109 636.211 84.6641 635.305 84.6641C634.031 84.6641 633.219 83.7734 633.219 82.4453V82.3281H639.008V81.6953C639.008 79.1797 637.539 77.5469 635.188 77.5469C632.797 77.5469 631.281 79.2734 631.281 81.8906C631.281 84.5312 632.781 86.1641 635.266 86.1641C637.227 86.1641 638.68 85.0859 638.93 83.5234H637.109ZM635.195 79.0547C636.312 79.0547 637.062 79.875 637.102 81.0469H633.234C633.312 79.8906 634.102 79.0547 635.195 79.0547Z" fill="white"/>
<path d="M496.625 114V102.727H494.297L490.844 111.328H490.781L487.328 102.727H484.992V114H486.812V106H486.867L490.125 114H491.5L494.758 106H494.812V114H496.625ZM499.438 104.469C500.031 104.469 500.5 103.992 500.5 103.414C500.5 102.828 500.031 102.359 499.438 102.359C498.844 102.359 498.367 102.828 498.367 103.414C498.367 103.992 498.844 104.469 499.438 104.469ZM498.469 114H500.414V105.719H498.469V114ZM509.344 108.672C509.211 106.93 507.859 105.547 505.672 105.547C503.266 105.547 501.703 107.211 501.703 109.859C501.703 112.547 503.266 114.164 505.688 114.164C507.766 114.164 509.195 112.945 509.352 111.094H507.516C507.336 112.031 506.695 112.594 505.711 112.594C504.477 112.594 503.68 111.594 503.68 109.859C503.68 108.156 504.469 107.125 505.695 107.125C506.734 107.125 507.352 107.789 507.508 108.672H509.344ZM510.516 114H512.461V109.18C512.461 108.016 513.125 107.305 514.227 107.305C514.555 107.305 514.852 107.352 515.016 107.414V105.656C514.875 105.625 514.656 105.578 514.406 105.578C513.43 105.578 512.703 106.156 512.422 107.164H512.383V105.719H510.516V114ZM519.367 114.164C521.797 114.164 523.375 112.547 523.375 109.859C523.375 107.18 521.781 105.547 519.367 105.547C516.953 105.547 515.359 107.188 515.359 109.859C515.359 112.547 516.938 114.164 519.367 114.164ZM519.367 112.625C518.133 112.625 517.336 111.625 517.336 109.859C517.336 108.102 518.141 107.094 519.367 107.094C520.602 107.094 521.398 108.102 521.398 109.859C521.398 111.625 520.602 112.625 519.367 112.625ZM524.477 108.094C524.477 109.32 525.273 110.102 526.859 110.453L528.234 110.758C529.102 110.953 529.398 111.234 529.398 111.734C529.398 112.352 528.812 112.742 527.867 112.742C526.883 112.742 526.328 112.336 526.18 111.531H524.266C524.422 113.133 525.703 114.164 527.867 114.164C529.898 114.164 531.336 113.109 531.336 111.547C531.336 110.344 530.672 109.68 528.953 109.297L527.578 108.992C526.711 108.797 526.367 108.469 526.367 107.992C526.367 107.383 526.938 106.977 527.797 106.977C528.695 106.977 529.25 107.453 529.328 108.203H531.141C531.094 106.633 529.812 105.547 527.797 105.547C525.797 105.547 524.477 106.578 524.477 108.094ZM536.242 114.164C538.672 114.164 540.25 112.547 540.25 109.859C540.25 107.18 538.656 105.547 536.242 105.547C533.828 105.547 532.234 107.188 532.234 109.859C532.234 112.547 533.812 114.164 536.242 114.164ZM536.242 112.625C535.008 112.625 534.211 111.625 534.211 109.859C534.211 108.102 535.016 107.094 536.242 107.094C537.477 107.094 538.273 108.102 538.273 109.859C538.273 111.625 537.477 112.625 536.242 112.625ZM542.039 114H543.984V107.219H545.609V105.742H543.953V105.062C543.953 104.391 544.289 104.039 545.031 104.039C545.258 104.039 545.484 104.062 545.648 104.086V102.727C545.406 102.68 544.984 102.641 544.602 102.641C542.805 102.641 542.039 103.398 542.039 105.008V105.742H540.906V107.219H542.039V114ZM547.43 103.781V105.719H546.242V107.219H547.43V111.797C547.43 113.406 548.133 114.039 549.922 114.039C550.336 114.039 550.719 114.008 550.93 113.961V112.477C550.805 112.5 550.555 112.516 550.375 112.516C549.688 112.516 549.375 112.203 549.375 111.523V107.219H550.938V105.719H549.375V103.781H547.43ZM563.031 114H565.156L561.156 102.727H558.883L554.883 114H556.961L557.922 111.086H562.07L563.031 114ZM559.969 104.719H560.023L561.594 109.531H558.391L559.969 104.719ZM566.008 114H572.609V112.484H568.422V112.445L572.539 107V105.719H566.047V107.234H570.297V107.266L566.008 112.82V114ZM581.391 105.719H579.445V110.508C579.445 111.711 578.75 112.508 577.625 112.508C576.531 112.508 575.953 111.867 575.953 110.68V105.719H574.008V111.07C574.008 112.984 575.148 114.148 576.945 114.148C578.203 114.148 579.039 113.57 579.477 112.562H579.516V114H581.391V105.719ZM582.984 114H584.93V109.18C584.93 108.016 585.594 107.305 586.695 107.305C587.023 107.305 587.32 107.352 587.484 107.414V105.656C587.344 105.625 587.125 105.578 586.875 105.578C585.898 105.578 585.172 106.156 584.891 107.164H584.852V105.719H582.984V114ZM593.656 111.523C593.445 112.211 592.758 112.664 591.852 112.664C590.578 112.664 589.766 111.773 589.766 110.445V110.328H595.555V109.695C595.555 107.18 594.086 105.547 591.734 105.547C589.344 105.547 587.828 107.273 587.828 109.891C587.828 112.531 589.328 114.164 591.812 114.164C593.773 114.164 595.227 113.086 595.477 111.523H593.656ZM591.742 107.055C592.859 107.055 593.609 107.875 593.648 109.047H589.781C589.859 107.891 590.648 107.055 591.742 107.055ZM601.688 107.5L602.242 106.523L600.516 105.539L602.25 104.539L601.688 103.562L600.023 104.578L600.094 102.727H598.836L598.906 104.578L597.242 103.562L596.695 104.539L598.406 105.531L596.688 106.516L597.234 107.5L598.906 106.484L598.836 108.336H600.094L600.023 106.484L601.688 107.5Z" fill="white"/>
<path d="M534.359 142H536.484L532.484 130.727H530.211L526.211 142H528.289L529.25 139.086H533.398L534.359 142ZM531.297 132.719H531.352L532.922 137.531H529.719L531.297 132.719ZM543.219 133.844H543.297L545.602 142H547.5L550.523 130.727H548.43L546.477 139.266H546.414L544.148 130.727H542.367L540.102 139.266H540.039L538.086 130.727H535.992L539.016 142H540.914L543.219 133.844ZM551.305 138.852C551.398 140.914 553.125 142.188 555.734 142.188C558.445 142.188 560.141 140.828 560.141 138.672C560.141 137 559.148 136.047 556.773 135.555L555.555 135.305C554.148 135.008 553.586 134.516 553.586 133.75C553.586 132.805 554.477 132.211 555.727 132.211C557.016 132.211 557.906 132.852 558 133.914H559.93C559.883 131.898 558.234 130.539 555.742 130.539C553.297 130.539 551.555 131.883 551.555 133.867C551.555 135.516 552.609 136.578 554.867 137.039L556.078 137.289C557.547 137.594 558.109 138.094 558.109 138.906C558.109 139.844 557.164 140.516 555.805 140.516C554.398 140.516 553.383 139.891 553.234 138.852H551.305Z" fill="white"/>
<path d="M505.859 165.297V164.094H501.172V165.633H503.891L503.883 165.82C503.852 167.398 502.672 168.477 500.969 168.477C498.938 168.477 497.672 166.891 497.672 164.297C497.672 161.758 498.883 160.25 500.914 160.25C502.297 160.25 503.344 161.016 503.727 162.312H505.773C505.406 160.055 503.469 158.539 500.906 158.539C497.648 158.539 495.609 160.742 495.609 164.32C495.609 167.953 497.656 170.188 500.945 170.188C504.031 170.188 505.859 168.352 505.859 165.297ZM510.977 170.164C513.406 170.164 514.984 168.547 514.984 165.859C514.984 163.18 513.391 161.547 510.977 161.547C508.562 161.547 506.969 163.188 506.969 165.859C506.969 168.547 508.547 170.164 510.977 170.164ZM510.977 168.625C509.742 168.625 508.945 167.625 508.945 165.859C508.945 164.102 509.75 163.094 510.977 163.094C512.211 163.094 513.008 164.102 513.008 165.859C513.008 167.625 512.211 168.625 510.977 168.625ZM519.898 170.164C522.328 170.164 523.906 168.547 523.906 165.859C523.906 163.18 522.312 161.547 519.898 161.547C517.484 161.547 515.891 163.188 515.891 165.859C515.891 168.547 517.469 170.164 519.898 170.164ZM519.898 168.625C518.664 168.625 517.867 167.625 517.867 165.859C517.867 164.102 518.672 163.094 519.898 163.094C521.133 163.094 521.93 164.102 521.93 165.859C521.93 167.625 521.133 168.625 519.898 168.625ZM528.805 173.125C531.219 173.125 532.805 171.844 532.805 169.867V161.719H530.898V163.141H530.867C530.391 162.188 529.438 161.578 528.258 161.578C526.141 161.578 524.812 163.211 524.812 165.828C524.812 168.406 526.172 170.008 528.219 170.008C529.406 170.008 530.383 169.414 530.812 168.523H530.859V169.922C530.859 170.977 530.133 171.688 528.867 171.688C527.945 171.688 527.234 171.258 527.023 170.625H525.094C525.289 172.078 526.758 173.125 528.805 173.125ZM528.812 168.461C527.586 168.461 526.805 167.477 526.805 165.836C526.805 164.211 527.586 163.18 528.812 163.18C530.055 163.18 530.859 164.227 530.859 165.836C530.859 167.453 530.055 168.461 528.812 168.461ZM534.445 170H536.391V158.727H534.445V170ZM543.531 167.523C543.32 168.211 542.633 168.664 541.727 168.664C540.453 168.664 539.641 167.773 539.641 166.445V166.328H545.43V165.695C545.43 163.18 543.961 161.547 541.609 161.547C539.219 161.547 537.703 163.273 537.703 165.891C537.703 168.531 539.203 170.164 541.688 170.164C543.648 170.164 545.102 169.086 545.352 167.523H543.531ZM541.617 163.055C542.734 163.055 543.484 163.875 543.523 165.047H539.656C539.734 163.891 540.523 163.055 541.617 163.055ZM554.945 170.188C557.609 170.188 559.453 168.727 559.805 166.312H557.828C557.516 167.672 556.445 168.477 554.953 168.477C553 168.477 551.766 166.891 551.766 164.359C551.766 161.844 553.008 160.25 554.945 160.25C556.406 160.25 557.555 161.18 557.82 162.594H559.805C559.555 160.172 557.562 158.539 554.945 158.539C551.742 158.539 549.703 160.766 549.703 164.359C549.703 167.977 551.727 170.188 554.945 170.188ZM561.195 170H563.141V158.727H561.195V170ZM568.461 170.164C570.891 170.164 572.469 168.547 572.469 165.859C572.469 163.18 570.875 161.547 568.461 161.547C566.047 161.547 564.453 163.188 564.453 165.859C564.453 168.547 566.031 170.164 568.461 170.164ZM568.461 168.625C567.227 168.625 566.43 167.625 566.43 165.859C566.43 164.102 567.234 163.094 568.461 163.094C569.695 163.094 570.492 164.102 570.492 165.859C570.492 167.625 569.695 168.625 568.461 168.625ZM581.062 161.719H579.117V166.508C579.117 167.711 578.422 168.508 577.297 168.508C576.203 168.508 575.625 167.867 575.625 166.68V161.719H573.68V167.07C573.68 168.984 574.82 170.148 576.617 170.148C577.875 170.148 578.711 169.57 579.148 168.562H579.188V170H581.062V161.719ZM585.75 170.133C586.961 170.133 587.914 169.516 588.367 168.586H588.398V170H590.305V158.727H588.359V163.109H588.312C587.875 162.195 586.938 161.578 585.75 161.578C583.664 161.578 582.312 163.234 582.312 165.852C582.312 168.484 583.664 170.133 585.75 170.133ZM586.336 163.18C587.562 163.18 588.367 164.234 588.367 165.859C588.367 167.5 587.562 168.539 586.336 168.539C585.078 168.539 584.305 167.508 584.305 165.859C584.305 164.219 585.086 163.18 586.336 163.18Z" fill="white"/>
<defs>
<filter id="filter0_dd_578_2399" x="216" y="0" width="188" height="78" filterUnits="userSpaceOnUse" color-interpolation-filters="sRGB">
<feFlood flood-opacity="0" result="BackgroundImageFix"/>
<feColorMatrix in="SourceAlpha" type="matrix" values="0 0 0 0 0 0 0 0 0 0 0 0 0 0 0 0 0 0 127 0" result="hardAlpha"/>
<feOffset dx="8" dy="12"/>
<feGaussianBlur stdDeviation="9"/>
<feComposite in2="hardAlpha" operator="out"/>
<feColorMatrix type="matrix" values="0 0 0 0 0.239216 0 0 0 0 0.513726 0 0 0 0 1 0 0 0 0.1 0"/>
<feBlend mode="normal" in2="BackgroundImageFix" result="effect1_dropShadow_578_2399"/>
<feColorMatrix in="SourceAlpha" type="matrix" values="0 0 0 0 0 0 0 0 0 0 0 0 0 0 0 0 0 0 127 0" result="hardAlpha"/>
<feOffset dx="-4" dy="-4"/>
<feGaussianBlur stdDeviation="8"/>
<feComposite in2="hardAlpha" operator="out"/>
<feColorMatrix type="matrix" values="0 0 0 0 0.0901961 0 0 0 0 0.415686 0 0 0 0 1 0 0 0 0.05 0"/>
<feBlend mode="normal" in2="effect1_dropShadow_578_2399" result="effect2_dropShadow_578_2399"/>
<feBlend mode="normal" in="SourceGraphic" in2="effect2_dropShadow_578_2399" result="shape"/>
</filter>
<filter id="filter1_dd_578_2399" x="216" y="32" width="188" height="78" filterUnits="userSpaceOnUse" color-interpolation-filters="sRGB">
<feFlood flood-opacity="0" result="BackgroundImageFix"/>
<feColorMatrix in="SourceAlpha" type="matrix" values="0 0 0 0 0 0 0 0 0 0 0 0 0 0 0 0 0 0 127 0" result="hardAlpha"/>
<feOffset dx="8" dy="12"/>
<feGaussianBlur stdDeviation="9"/>
<feComposite in2="hardAlpha" operator="out"/>
<feColorMatrix type="matrix" values="0 0 0 0 0.239216 0 0 0 0 0.513726 0 0 0 0 1 0 0 0 0.1 0"/>
<feBlend mode="normal" in2="BackgroundImageFix" result="effect1_dropShadow_578_2399"/>
<feColorMatrix in="SourceAlpha" type="matrix" values="0 0 0 0 0 0 0 0 0 0 0 0 0 0 0 0 0 0 127 0" result="hardAlpha"/>
<feOffset dx="-4" dy="-4"/>
<feGaussianBlur stdDeviation="8"/>
<feComposite in2="hardAlpha" operator="out"/>
<feColorMatrix type="matrix" values="0 0 0 0 0.0901961 0 0 0 0 0.415686 0 0 0 0 1 0 0 0 0.05 0"/>
<feBlend mode="normal" in2="effect1_dropShadow_578_2399" result="effect2_dropShadow_578_2399"/>
<feBlend mode="normal" in="SourceGraphic" in2="effect2_dropShadow_578_2399" result="shape"/>
</filter>
<filter id="filter2_dd_578_2399" x="216" y="64" width="188" height="78" filterUnits="userSpaceOnUse" color-interpolation-filters="sRGB">
<feFlood flood-opacity="0" result="BackgroundImageFix"/>
<feColorMatrix in="SourceAlpha" type="matrix" values="0 0 0 0 0 0 0 0 0 0 0 0 0 0 0 0 0 0 127 0" result="hardAlpha"/>
<feOffset dx="8" dy="12"/>
<feGaussianBlur stdDeviation="9"/>
<feComposite in2="hardAlpha" operator="out"/>
<feColorMatrix type="matrix" values="0 0 0 0 0.239216 0 0 0 0 0.513726 0 0 0 0 1 0 0 0 0.1 0"/>
<feBlend mode="normal" in2="BackgroundImageFix" result="effect1_dropShadow_578_2399"/>
<feColorMatrix in="SourceAlpha" type="matrix" values="0 0 0 0 0 0 0 0 0 0 0 0 0 0 0 0 0 0 127 0" result="hardAlpha"/>
<feOffset dx="-4" dy="-4"/>
<feGaussianBlur stdDeviation="8"/>
<feComposite in2="hardAlpha" operator="out"/>
<feColorMatrix type="matrix" values="0 0 0 0 0.0901961 0 0 0 0 0.415686 0 0 0 0 1 0 0 0 0.05 0"/>
<feBlend mode="normal" in2="effect1_dropShadow_578_2399" result="effect2_dropShadow_578_2399"/>
<feBlend mode="normal" in="SourceGraphic" in2="effect2_dropShadow_578_2399" result="shape"/>
</filter>
<filter id="filter3_dd_578_2399" x="216" y="96" width="188" height="78" filterUnits="userSpaceOnUse" color-interpolation-filters="sRGB">
<feFlood flood-opacity="0" result="BackgroundImageFix"/>
<feColorMatrix in="SourceAlpha" type="matrix" values="0 0 0 0 0 0 0 0 0 0 0 0 0 0 0 0 0 0 127 0" result="hardAlpha"/>
<feOffset dx="8" dy="12"/>
<feGaussianBlur stdDeviation="9"/>
<feComposite in2="hardAlpha" operator="out"/>
<feColorMatrix type="matrix" values="0 0 0 0 0.239216 0 0 0 0 0.513726 0 0 0 0 1 0 0 0 0.1 0"/>
<feBlend mode="normal" in2="BackgroundImageFix" result="effect1_dropShadow_578_2399"/>
<feColorMatrix in="SourceAlpha" type="matrix" values="0 0 0 0 0 0 0 0 0 0 0 0 0 0 0 0 0 0 127 0" result="hardAlpha"/>
<feOffset dx="-4" dy="-4"/>
<feGaussianBlur stdDeviation="8"/>
<feComposite in2="hardAlpha" operator="out"/>
<feColorMatrix type="matrix" values="0 0 0 0 0.0901961 0 0 0 0 0.415686 0 0 0 0 1 0 0 0 0.05 0"/>
<feBlend mode="normal" in2="effect1_dropShadow_578_2399" result="effect2_dropShadow_578_2399"/>
<feBlend mode="normal" in="SourceGraphic" in2="effect2_dropShadow_578_2399" result="shape"/>
</filter>
<filter id="filter4_dd_578_2399" x="216" y="144" width="188" height="78" filterUnits="userSpaceOnUse" color-interpolation-filters="sRGB">
<feFlood flood-opacity="0" result="BackgroundImageFix"/>
<feColorMatrix in="SourceAlpha" type="matrix" values="0 0 0 0 0 0 0 0 0 0 0 0 0 0 0 0 0 0 127 0" result="hardAlpha"/>
<feOffset dx="8" dy="12"/>
<feGaussianBlur stdDeviation="9"/>
<feComposite in2="hardAlpha" operator="out"/>
<feColorMatrix type="matrix" values="0 0 0 0 0.239216 0 0 0 0 0.513726 0 0 0 0 1 0 0 0 0.1 0"/>
<feBlend mode="normal" in2="BackgroundImageFix" result="effect1_dropShadow_578_2399"/>
<feColorMatrix in="SourceAlpha" type="matrix" values="0 0 0 0 0 0 0 0 0 0 0 0 0 0 0 0 0 0 127 0" result="hardAlpha"/>
<feOffset dx="-4" dy="-4"/>
<feGaussianBlur stdDeviation="8"/>
<feComposite in2="hardAlpha" operator="out"/>
<feColorMatrix type="matrix" values="0 0 0 0 0.0901961 0 0 0 0 0.415686 0 0 0 0 1 0 0 0 0.05 0"/>
<feBlend mode="normal" in2="effect1_dropShadow_578_2399" result="effect2_dropShadow_578_2399"/>
<feBlend mode="normal" in="SourceGraphic" in2="effect2_dropShadow_578_2399" result="shape"/>
</filter>
<filter id="filter5_dd_578_2399" x="0" y="0" width="194" height="222" filterUnits="userSpaceOnUse" color-interpolation-filters="sRGB">
<feFlood flood-opacity="0" result="BackgroundImageFix"/>
<feColorMatrix in="SourceAlpha" type="matrix" values="0 0 0 0 0 0 0 0 0 0 0 0 0 0 0 0 0 0 127 0" result="hardAlpha"/>
<feOffset dx="8" dy="12"/>
<feGaussianBlur stdDeviation="9"/>
<feComposite in2="hardAlpha" operator="out"/>
<feColorMatrix type="matrix" values="0 0 0 0 0.239216 0 0 0 0 0.513726 0 0 0 0 1 0 0 0 0.1 0"/>
<feBlend mode="normal" in2="BackgroundImageFix" result="effect1_dropShadow_578_2399"/>
<feColorMatrix in="SourceAlpha" type="matrix" values="0 0 0 0 0 0 0 0 0 0 0 0 0 0 0 0 0 0 127 0" result="hardAlpha"/>
<feOffset dx="-4" dy="-4"/>
<feGaussianBlur stdDeviation="8"/>
<feComposite in2="hardAlpha" operator="out"/>
<feColorMatrix type="matrix" values="0 0 0 0 0.0901961 0 0 0 0 0.415686 0 0 0 0 1 0 0 0 0.05 0"/>
<feBlend mode="normal" in2="effect1_dropShadow_578_2399" result="effect2_dropShadow_578_2399"/>
<feBlend mode="normal" in="SourceGraphic" in2="effect2_dropShadow_578_2399" result="shape"/>
</filter>
<filter id="filter6_dd_578_2399" x="409" y="0" width="275" height="222" filterUnits="userSpaceOnUse" color-interpolation-filters="sRGB">
<feFlood flood-opacity="0" result="BackgroundImageFix"/>
<feColorMatrix in="SourceAlpha" type="matrix" values="0 0 0 0 0 0 0 0 0 0 0 0 0 0 0 0 0 0 127 0" result="hardAlpha"/>
<feOffset dx="8" dy="12"/>
<feGaussianBlur stdDeviation="9"/>
<feComposite in2="hardAlpha" operator="out"/>
<feColorMatrix type="matrix" values="0 0 0 0 0.239216 0 0 0 0 0.513726 0 0 0 0 1 0 0 0 0.1 0"/>
<feBlend mode="normal" in2="BackgroundImageFix" result="effect1_dropShadow_578_2399"/>
<feColorMatrix in="SourceAlpha" type="matrix" values="0 0 0 0 0 0 0 0 0 0 0 0 0 0 0 0 0 0 127 0" result="hardAlpha"/>
<feOffset dx="-4" dy="-4"/>
<feGaussianBlur stdDeviation="8"/>
<feComposite in2="hardAlpha" operator="out"/>
<feColorMatrix type="matrix" values="0 0 0 0 0.0901961 0 0 0 0 0.415686 0 0 0 0 1 0 0 0 0.05 0"/>
<feBlend mode="normal" in2="effect1_dropShadow_578_2399" result="effect2_dropShadow_578_2399"/>
<feBlend mode="normal" in="SourceGraphic" in2="effect2_dropShadow_578_2399" result="shape"/>
</filter>
</defs>
</svg>
