<svg width="24" height="24" viewBox="0 0 24 24" fill="none" xmlns="http://www.w3.org/2000/svg">
<g clip-path="url(#clip0_1416_1022)">
<path d="M13.2786 11.5045C13.5551 11.3631 13.8631 11.2883 14.1826 11.2883C14.7122 11.2883 15.2101 11.4939 15.5854 11.8673L16.3933 11.0594C18.3927 11.7603 20.7052 11.3116 22.3036 9.71331C23.6485 8.36843 24.1789 6.51805 23.8957 4.77386C23.8645 4.58178 23.7285 4.42335 23.5434 4.36358C23.3583 4.30373 23.1551 4.35237 23.0175 4.49L21.8179 5.68963C20.841 6.66657 19.2569 6.66657 18.28 5.68963C17.303 4.7127 17.303 3.12866 18.28 2.15173L19.4796 0.95209C19.6173 0.814457 19.6663 0.611243 19.6064 0.426041C19.5465 0.240758 19.3879 0.105091 19.1957 0.0738961C17.4516 -0.209228 15.6011 0.321159 14.2563 1.66604C12.6342 3.28815 12.1977 5.6455 12.9437 7.66496L11.1914 9.41725L13.2786 11.5045Z" fill="#F29111"/>
<path d="M10.0861 14.68L8.00766 12.6016L0.740003 19.8691C-0.205001 20.8141 -0.205001 22.3463 0.740003 23.2913C1.68501 24.2363 3.21714 24.2363 4.16214 23.2913L10.4273 17.0262C9.7954 16.3909 9.68151 15.4318 10.0861 14.68Z" fill="#F29111"/>
<path d="M14.7217 12.7403C14.5731 12.5917 14.3782 12.5174 14.1834 12.5174C13.9886 12.5174 13.7938 12.5917 13.6452 12.7403L13.2113 13.1742L5.48295 5.4458L5.84418 5.08456C6.17332 4.75551 6.13247 4.20965 5.75731 3.9334L2.60414 1.61117C2.30111 1.38806 1.8806 1.41975 1.61451 1.68584L0.275686 3.02475C0.00959114 3.29084 -0.0220946 3.71143 0.201015 4.01437L2.52316 7.16755C2.79941 7.54262 3.34494 7.58389 3.67433 7.25442L4.03556 6.89311L11.7639 14.6215L11.2995 15.0859C11.0022 15.3832 11.0022 15.8651 11.2995 16.1624L18.4291 23.292C19.3741 24.237 20.9063 24.237 21.8513 23.292C22.7963 22.347 22.7963 20.8148 21.8513 19.8698L14.7217 12.7403Z" fill="#F29111"/>
</g>
<defs>
<clipPath id="clip0_1416_1022">
<rect width="24" height="24" fill="white"/>
</clipPath>
</defs>
</svg>
