<svg width="86" height="24" viewBox="0 0 86 24" fill="none" xmlns="http://www.w3.org/2000/svg">
<g clip-path="url(#clip0_479_1780)">
<path d="M46.5105 17.291V22.4728C45.8845 22.9364 45.1769 23.291 44.4421 23.5092C43.6801 23.7273 42.8909 23.8364 42.0744 23.8364C41.1219 23.8637 40.1421 23.6728 39.244 23.3455C38.4276 23.0455 37.6928 22.5819 37.0668 21.9819C36.4681 21.4092 36.0054 20.7001 35.6788 19.9091C35.3523 19.0637 35.189 18.191 35.189 17.291C35.189 16.391 35.325 15.491 35.6516 14.6455C35.951 13.8819 36.3864 13.1728 36.9852 12.5728C37.5839 11.9728 38.2915 11.5364 39.0807 11.2364C39.9516 10.9092 40.9042 10.7455 41.8295 10.7455C42.3193 10.7455 42.8092 10.8001 43.2719 10.8819C43.7073 10.9637 44.1155 11.0728 44.5238 11.2092C44.9048 11.3455 45.2586 11.5364 45.5852 11.7273C45.8845 11.9182 46.1839 12.1637 46.4561 12.4091L45.7757 13.5001C45.694 13.6637 45.5307 13.7728 45.3674 13.8001C45.1769 13.8273 44.9864 13.8001 44.8231 13.6637L44.2516 13.3364C44.0339 13.2273 43.8162 13.1182 43.5985 13.0364C43.3263 12.9546 43.0542 12.8728 42.782 12.8182C42.4554 12.7637 42.1016 12.7364 41.7478 12.7364C41.1491 12.7364 40.5776 12.8455 40.0333 13.0637C39.5434 13.2546 39.0807 13.5819 38.7269 13.9637C38.3459 14.3728 38.0738 14.8637 37.9105 15.3819C37.72 15.9819 37.6111 16.6092 37.6111 17.2364C37.6111 17.891 37.72 18.5728 37.9105 19.2001C38.101 19.7455 38.4004 20.2364 38.7814 20.6728C39.1624 21.0819 39.625 21.3819 40.1693 21.5728C40.7409 21.791 41.3396 21.9001 41.9655 21.8728C42.401 21.8728 42.8092 21.8182 43.2174 21.7364C43.5985 21.6273 43.9523 21.491 44.3061 21.3273V19.0092H42.7004C42.5643 19.0092 42.4282 18.9819 42.3193 18.8728C42.2377 18.791 42.1833 18.6819 42.1833 18.5728V17.2364H46.5105V17.291ZM50.375 16.2001C50.62 15.7091 50.9738 15.2728 51.382 14.9182C51.763 14.6182 52.2529 14.4546 52.77 14.4819C53.1238 14.4546 53.4776 14.5637 53.7769 14.7546L53.6409 16.391C53.6136 16.4728 53.5864 16.5546 53.5048 16.6091C53.4504 16.6637 53.3687 16.691 53.2871 16.6637C53.151 16.6637 53.0149 16.6364 52.906 16.6091C52.7428 16.5819 52.5795 16.5546 52.389 16.5546C52.1712 16.5546 51.9535 16.5819 51.7358 16.6637C51.5453 16.7455 51.382 16.8273 51.2187 16.9637C51.0554 17.1001 50.9193 17.2637 50.8105 17.4546C50.6744 17.6728 50.5655 17.8637 50.4839 18.1091V23.7001H48.3067V14.6182H49.5858C49.8579 14.5637 50.1573 14.7273 50.2117 15.0001C50.2117 15.0546 50.239 15.1092 50.2117 15.1637L50.375 16.2001ZM54.5934 15.9001C55.6276 14.9455 56.9611 14.4546 58.3491 14.4819C58.839 14.4819 59.3288 14.5637 59.7643 14.7273C60.1725 14.891 60.5263 15.1364 60.8257 15.4637C61.125 15.791 61.3428 16.1728 61.4788 16.5819C61.6421 17.0455 61.6966 17.5091 61.6966 18.0001V23.7273H60.7168C60.5535 23.7273 60.3902 23.7001 60.2269 23.6455C60.0909 23.5637 60.0092 23.4273 59.9548 23.2637L59.7643 22.6091C59.5466 22.8001 59.3288 22.991 59.0839 23.1546C58.8662 23.3182 58.6485 23.4273 58.4035 23.5364C58.1586 23.6455 57.9136 23.7273 57.6687 23.7819C57.3693 23.8364 57.07 23.8637 56.7706 23.8637C56.4168 23.8637 56.063 23.8091 55.7092 23.7001C55.4098 23.6182 55.1105 23.4546 54.8655 23.2364C54.6206 23.0182 54.4301 22.7728 54.3212 22.4728C54.1852 22.1455 54.1307 21.7637 54.1307 21.4091C54.1307 21.1637 54.158 20.9455 54.2396 20.7273C54.3212 20.4819 54.4573 20.2637 54.6206 20.0728C54.8111 19.8546 55.056 19.6364 55.301 19.5001C55.6276 19.3091 55.9542 19.1455 56.3079 19.0364C56.7706 18.9001 57.2333 18.7637 57.7231 18.7092C58.3219 18.6273 58.9478 18.5728 59.5738 18.5455V18.0001C59.6282 17.5091 59.4921 17.0455 59.1928 16.6637C58.8934 16.3637 58.4852 16.2001 58.0769 16.2273C57.7776 16.2273 57.4782 16.2546 57.206 16.3637C56.9883 16.4455 56.7978 16.5273 56.5801 16.6364L56.0902 16.9091C55.9542 16.991 55.7636 17.0455 55.6004 17.0455C55.4643 17.0455 55.3282 17.0182 55.2193 16.9364C55.1105 16.8546 55.0288 16.7728 54.9744 16.6637L54.5934 15.9001ZM59.5738 19.8273C59.0295 19.8546 58.5124 19.9091 57.9953 19.991C57.6415 20.0455 57.2877 20.1546 56.9611 20.291C56.7434 20.3728 56.5529 20.5364 56.4168 20.7273C56.308 20.891 56.2535 21.0819 56.2535 21.2728C56.2263 21.5728 56.3624 21.9001 56.6073 22.091C56.8795 22.2546 57.1788 22.3637 57.5054 22.3364C57.9136 22.3364 58.2947 22.2546 58.6757 22.091C59.0295 21.9001 59.3561 21.6546 59.6282 21.3546V19.8273H59.5738ZM71.6301 10.5546V23.7001H70.2965C70.0516 23.7273 69.8067 23.5637 69.7522 23.291L69.5617 22.4182C69.208 22.8273 68.7725 23.1819 68.3098 23.4273C67.7928 23.7001 67.2212 23.8091 66.6497 23.8091C65.6972 23.8364 64.7991 23.3728 64.2276 22.6091C63.901 22.1728 63.6833 21.6819 63.5472 21.1637C63.3839 20.5092 63.3023 19.8546 63.3023 19.1728C63.3023 18.5455 63.3839 17.9182 63.5744 17.3182C63.7377 16.7728 64.0098 16.2819 64.3636 15.8182C64.6902 15.4091 65.1257 15.0546 65.5883 14.8364C66.0782 14.591 66.6497 14.4546 67.194 14.4546C67.6295 14.4546 68.0921 14.5364 68.5004 14.7001C68.8542 14.8637 69.1807 15.0819 69.4529 15.3546V10.5819H71.6301V10.5546ZM69.4529 16.9364C69.2352 16.6637 68.963 16.4455 68.6364 16.3091C68.3371 16.1728 68.0105 16.1182 67.6839 16.1182C67.3845 16.1182 67.0579 16.1728 66.7858 16.3091C66.5136 16.4455 66.2959 16.6364 66.1054 16.8819C65.8877 17.1819 65.7516 17.4819 65.67 17.8364C65.5611 18.2728 65.5067 18.7364 65.5339 19.2001C65.5339 19.6637 65.5611 20.1001 65.67 20.5364C65.7244 20.8637 65.8605 21.1637 66.051 21.4364C66.1871 21.6546 66.4048 21.8182 66.6225 21.9273C66.8674 22.0364 67.1396 22.091 67.3845 22.091C67.7928 22.091 68.201 22.0091 68.5548 21.8182C68.9086 21.6001 69.208 21.3273 69.4529 21.0001V16.9364ZM75.9845 10.5546V23.7001H73.8073V10.5546H75.9845ZM79.8491 19.4455C79.8763 19.8546 79.9579 20.2637 80.094 20.6455C80.2029 20.9455 80.3934 21.2455 80.6111 21.491C80.8288 21.7091 81.0738 21.8728 81.3459 21.9819C81.6453 22.091 81.9719 22.1455 82.3257 22.1455C82.625 22.1455 82.9516 22.1182 83.251 22.0092C83.4687 21.9273 83.7136 21.8455 83.9314 21.7364C84.1219 21.6273 84.3124 21.5455 84.4484 21.4637C84.5845 21.3819 84.7206 21.3546 84.8567 21.3273C85.02 21.3273 85.1833 21.3819 85.2649 21.5455L85.8909 22.3637C85.6459 22.6364 85.3738 22.8819 85.0744 23.0728C84.775 23.2637 84.4757 23.4273 84.1219 23.5364C83.7953 23.6455 83.4687 23.7273 83.1149 23.7819C82.7883 23.8364 82.4617 23.8637 82.1352 23.8637C81.5364 23.8637 80.9377 23.7546 80.3662 23.5637C79.8219 23.3728 79.3592 23.0455 78.951 22.6364C78.5428 22.2001 78.2162 21.6819 77.9985 21.1091C77.7535 20.4273 77.6446 19.7182 77.6446 18.9819C77.6446 18.3819 77.7535 17.7819 77.944 17.2364C78.1345 16.7182 78.4339 16.2273 78.8149 15.8182C79.1959 15.4091 79.6586 15.0819 80.1757 14.8637C81.2643 14.4273 82.4617 14.4001 83.5776 14.7819C84.0402 14.9455 84.4757 15.2182 84.8295 15.5728C85.1833 15.9546 85.4554 16.391 85.6459 16.8546C85.8636 17.4273 85.9453 18.0001 85.9453 18.6001C85.9725 18.8182 85.9181 19.0637 85.8364 19.2546C85.7548 19.391 85.5915 19.4455 85.4282 19.4182H79.8491V19.4455ZM84.013 18.1091C84.013 17.8364 83.9858 17.5637 83.9041 17.3182C83.8225 17.0728 83.7136 16.8546 83.5231 16.6637C83.3598 16.4728 83.1421 16.3091 82.9244 16.2273C82.1352 15.9001 81.2371 16.0637 80.5839 16.6091C80.2029 17.0182 79.9579 17.5637 79.9035 18.1364L84.013 18.1091ZM30.5896 1.47279C28.6301 -0.490851 25.5004 -0.545396 23.4864 1.33642C23.3776 1.41824 23.3231 1.55461 23.3231 1.69097C23.3231 1.82734 23.3776 1.9637 23.4592 2.04551L24.0852 2.70006C24.2485 2.86369 24.5206 2.89097 24.7111 2.75461C25.2282 2.37279 25.8269 2.15461 26.4529 2.18188C28.0586 2.18188 29.3921 3.49097 29.3921 5.10006C29.3921 5.89097 29.0928 6.62733 28.5212 7.20006C24.4662 11.2637 19.0504 -0.109031 6.77631 5.72733C5.93263 6.10915 5.57884 7.11824 5.95985 7.9637C5.98707 7.99097 5.98706 8.04552 6.01428 8.07279L8.10985 11.7273C8.57251 12.5182 9.57947 12.791 10.3687 12.3546L11.294 11.8364C12.3282 11.1819 13.308 10.4455 14.2333 9.62733C14.4238 9.46369 14.7231 9.46369 14.9136 9.62733C15.0225 9.70915 15.1042 9.84552 15.1042 10.0092C15.1042 10.1455 15.0497 10.2819 14.9409 10.391C13.9883 11.2364 12.9269 12.0273 11.8383 12.6819H11.8111L10.8858 13.2001C10.4776 13.4182 10.0421 13.5546 9.57947 13.5273C8.62694 13.5273 7.75605 13.0092 7.26618 12.191L5.27947 8.75461C1.44213 11.4546 -0.871163 16.6637 0.380736 23.291C0.435166 23.5091 0.625673 23.6728 0.843394 23.6728H3.10226C3.34719 23.6728 3.56491 23.4819 3.59213 23.2364C3.80985 21.4092 5.46998 20.1273 7.29339 20.3455C8.79023 20.5364 9.9877 21.7364 10.1782 23.2364C10.2054 23.4819 10.4231 23.6728 10.6681 23.6728H12.8725C13.1174 23.6728 13.3352 23.4819 13.3624 23.2364C13.6073 21.4092 15.2674 20.1273 17.0909 20.3728C18.5877 20.5637 19.758 21.7364 19.9485 23.2364C19.9757 23.4819 20.1934 23.6728 20.4383 23.6728H22.6155C22.8877 23.6728 23.1054 23.4546 23.1054 23.2092C23.1598 20.1273 23.9763 16.5819 26.344 14.8091C34.6447 8.67278 32.4947 3.40915 30.5896 1.47279ZM22.2345 10.7728L20.6833 9.98188C20.6833 9.43642 21.1187 9.00006 21.663 9.00006C22.2073 9.00006 22.6428 9.43642 22.6428 9.98188C22.6428 10.3092 22.4795 10.6091 22.2345 10.7728Z" fill="#02303A"/>
</g>
<defs>
<clipPath id="clip0_479_1780">
<rect width="86" height="24" fill="white"/>
</clipPath>
</defs>
</svg>
