<svg width="250" height="77" viewBox="0 0 250 77" fill="none" xmlns="http://www.w3.org/2000/svg">
<path d="M133.759 52.31V66.31C132.072 67.5643 130.181 68.5183 128.169 69.13C126.105 69.7421 123.962 70.0454 121.809 70.03C119.203 70.0661 116.612 69.6186 114.169 68.71C111.989 67.8867 110.001 66.6239 108.329 65C106.698 63.4286 105.423 61.5258 104.589 59.42C103.7 57.1666 103.255 54.7624 103.279 52.34C103.249 49.9045 103.68 47.4853 104.549 45.21C105.34 43.1204 106.559 41.2196 108.129 39.63C109.738 38.0377 111.662 36.801 113.779 36C116.157 35.1101 118.68 34.6725 121.219 34.71C122.534 34.7004 123.846 34.8142 125.139 35.05C126.293 35.2555 127.427 35.56 128.529 35.96C129.526 36.332 130.482 36.8079 131.379 37.38C132.217 37.924 133.007 38.5396 133.739 39.22L131.899 42.13C131.78 42.3407 131.62 42.5248 131.427 42.671C131.235 42.8172 131.014 42.9223 130.779 42.98C130.518 43.0237 130.252 43.0152 129.994 42.9552C129.737 42.8951 129.494 42.7846 129.279 42.63L127.709 41.72C127.162 41.4283 126.59 41.1873 125.999 41C125.292 40.759 124.566 40.5751 123.829 40.45C122.911 40.2971 121.98 40.2235 121.049 40.23C119.471 40.2083 117.904 40.5006 116.439 41.09C115.098 41.6391 113.896 42.4793 112.919 43.55C111.921 44.6655 111.159 45.9718 110.679 47.39C110.133 48.9995 109.866 50.6905 109.889 52.39C109.859 54.1863 110.147 55.9739 110.739 57.67C111.251 59.1339 112.062 60.4756 113.119 61.61C114.151 62.663 115.4 63.4786 116.779 64C119.426 64.9515 122.294 65.1079 125.029 64.45C126.041 64.1756 127.026 63.8074 127.969 63.35V57.13H123.629C123.447 57.1445 123.264 57.1209 123.092 57.0606C122.92 57.0003 122.762 56.9047 122.629 56.78C122.518 56.6706 122.431 56.5397 122.372 56.3952C122.314 56.2507 122.285 56.0958 122.289 55.94V52.31H133.759ZM144.239 49.38C144.904 48.0469 145.844 46.8708 146.999 45.93C148.06 45.0937 149.379 44.6519 150.729 44.68C151.688 44.6346 152.636 44.8936 153.439 45.42L152.999 49.83C152.952 50.0639 152.834 50.2772 152.659 50.44C152.481 50.5648 152.267 50.628 152.049 50.62C151.697 50.6069 151.346 50.5668 150.999 50.5C150.547 50.4216 150.088 50.3815 149.629 50.38C149.033 50.3716 148.441 50.4698 147.879 50.67C147.377 50.8587 146.913 51.1365 146.509 51.49C146.091 51.8686 145.73 52.3066 145.439 52.79C145.105 53.3471 144.815 53.9288 144.569 54.53V69.6H138.679V45.13H142.139C142.584 45.0877 143.029 45.2008 143.399 45.45C143.686 45.7711 143.855 46.1801 143.879 46.61L144.239 49.38ZM155.589 48.54C158.349 45.9874 161.991 44.6039 165.749 44.68C167.063 44.6567 168.368 44.8946 169.589 45.38C170.677 45.8298 171.653 46.5124 172.449 47.38C173.246 48.244 173.853 49.2662 174.229 50.38C174.648 51.6094 174.855 52.9012 174.839 54.2V69.6H172.169C171.725 69.6258 171.281 69.5399 170.879 69.35C170.525 69.1163 170.268 68.7604 170.159 68.35L169.639 66.58C169.061 67.085 168.457 67.559 167.829 68C167.257 68.427 166.644 68.7955 165.999 69.1C165.358 69.3916 164.688 69.6129 163.999 69.76C163.209 69.9185 162.405 69.9956 161.599 69.99C160.63 69.9996 159.665 69.8579 158.739 69.57C157.906 69.3099 157.134 68.8848 156.469 68.32C155.825 67.747 155.319 67.0359 154.989 66.24C154.625 65.3245 154.448 64.3451 154.469 63.36C154.463 62.0375 154.932 60.7568 155.789 59.75C156.322 59.1425 156.938 58.6139 157.619 58.18C158.478 57.6366 159.402 57.2032 160.369 56.89C161.613 56.4919 162.887 56.1943 164.179 56C165.835 55.7514 167.505 55.6111 169.179 55.58V54.15C169.247 52.8328 168.827 51.5368 167.999 50.51C167.615 50.1071 167.147 49.7928 166.629 49.589C166.111 49.3852 165.555 49.2968 164.999 49.33C164.196 49.3085 163.396 49.42 162.629 49.66C162.054 49.8636 161.499 50.118 160.969 50.42L159.669 51.17C159.272 51.3922 158.824 51.506 158.369 51.5C158.011 51.4988 157.662 51.3871 157.369 51.18C157.094 50.9759 156.86 50.7214 156.679 50.43L155.589 48.54ZM169.089 59.16C167.651 59.209 166.217 59.356 164.799 59.6C163.838 59.752 162.9 60.0276 162.009 60.42C161.412 60.6707 160.891 61.0742 160.499 61.59C160.136 62.1601 159.984 62.8395 160.07 63.5101C160.156 64.1806 160.474 64.7998 160.969 65.26C161.673 65.7356 162.511 65.9707 163.359 65.93C164.442 65.9559 165.516 65.7336 166.499 65.28C167.473 64.7695 168.349 64.0926 169.089 63.28V59.16ZM201.619 34.16V69.6H197.999C197.664 69.6326 197.329 69.5418 197.057 69.3448C196.784 69.1478 196.593 68.858 196.519 68.53L196.019 66.17C195.059 67.2796 193.907 68.2076 192.619 68.91C191.238 69.6161 189.7 69.9601 188.149 69.91C186.878 69.9237 185.621 69.6395 184.479 69.08C183.347 68.5038 182.362 67.6759 181.599 66.66C180.74 65.477 180.109 64.1442 179.739 62.73C179.279 60.9881 179.06 59.1913 179.089 57.39C179.072 55.6751 179.321 53.968 179.829 52.33C180.297 50.8733 181.033 49.5167 181.999 48.33C182.893 47.2053 184.023 46.2904 185.309 45.65C186.66 44.977 188.15 44.6343 189.659 44.65C190.858 44.6173 192.05 44.8353 193.159 45.29C194.121 45.7137 195.001 46.3026 195.759 47.03V34.16H201.619ZM195.729 51.38C195.15 50.6405 194.403 50.0507 193.549 49.66C192.745 49.3247 191.881 49.1547 191.009 49.16C190.179 49.1495 189.357 49.3201 188.599 49.66C187.869 50.0062 187.237 50.5285 186.759 51.18C186.205 51.9558 185.808 52.8322 185.589 53.76C185.302 54.965 185.167 56.2014 185.189 57.44C185.167 58.6622 185.281 59.883 185.529 61.08C185.719 61.9419 186.057 62.7642 186.529 63.51C186.918 64.1021 187.466 64.5733 188.109 64.87C188.761 65.1558 189.467 65.299 190.179 65.29C191.273 65.3236 192.356 65.0573 193.309 64.52C194.244 63.9505 195.068 63.2151 195.739 62.35L195.729 51.38ZM213.409 34.16V69.6H207.509V34.16H213.409ZM223.829 58.16C223.897 59.2696 224.123 60.3639 224.499 61.41C224.803 62.2513 225.272 63.0232 225.879 63.68C226.437 64.2712 227.12 64.7292 227.879 65.02C228.716 65.3198 229.6 65.4688 230.489 65.46C231.325 65.4791 232.159 65.3643 232.959 65.12C233.583 64.9269 234.189 64.6793 234.769 64.38C235.289 64.11 235.769 63.87 236.129 63.64C236.474 63.4326 236.867 63.3188 237.269 63.31C237.483 63.2957 237.698 63.3393 237.889 63.436C238.081 63.5327 238.243 63.6792 238.359 63.86L240.099 66C239.464 66.7416 238.723 67.3852 237.899 67.91C237.105 68.4254 236.252 68.845 235.359 69.16C234.486 69.4646 233.585 69.6823 232.669 69.81C231.785 69.9363 230.893 69.9998 229.999 70C228.378 70.0146 226.767 69.7298 225.249 69.16C223.811 68.6065 222.508 67.7506 221.429 66.65C220.303 65.4755 219.435 64.0791 218.879 62.55C218.227 60.7321 217.912 58.8108 217.949 56.88C217.938 55.2744 218.212 53.6796 218.759 52.17C219.272 50.7474 220.064 49.4418 221.089 48.33C222.13 47.22 223.39 46.3381 224.789 45.74C226.342 45.07 228.018 44.7295 229.709 44.74C231.166 44.7255 232.613 44.9762 233.979 45.48C235.244 45.9443 236.391 46.6818 237.339 47.64C238.31 48.6339 239.062 49.8191 239.549 51.12C240.103 52.6274 240.374 54.2241 240.349 55.83C240.399 56.4446 240.3 57.0622 240.059 57.63C239.936 57.7984 239.77 57.9308 239.578 58.0135C239.387 58.0961 239.176 58.126 238.969 58.1L223.829 58.16ZM235.059 54.6C235.066 53.8677 234.958 53.1388 234.739 52.44C234.529 51.7884 234.189 51.1862 233.739 50.67C233.29 50.1488 232.73 49.7353 232.099 49.46C231.371 49.1551 230.588 49.0053 229.799 49.02C229.069 48.9836 228.338 49.094 227.651 49.3448C226.964 49.5956 226.334 49.9816 225.799 50.48C224.778 51.6087 224.147 53.0355 223.999 54.55L235.059 54.6ZM90.9992 9.99998C88.4766 7.48539 85.0761 6.04863 81.5148 5.99267C77.9534 5.9367 74.5095 7.26589 71.9092 9.69998C71.7805 9.81841 71.6776 9.96214 71.6071 10.1222C71.5365 10.2822 71.4998 10.4551 71.4991 10.63C71.4943 10.8059 71.5256 10.9809 71.5909 11.1443C71.6563 11.3076 71.7544 11.4559 71.8791 11.58L73.6092 13.31C73.8322 13.5321 74.1278 13.6665 74.4418 13.6885C74.7558 13.7105 75.0673 13.6188 75.3192 13.43C76.9123 12.2316 78.9009 11.6825 80.8832 11.8936C82.8656 12.1047 84.6939 13.0602 85.999 14.5672C87.3041 16.0741 87.9887 18.0202 87.9145 20.0124C87.8402 22.0046 87.0128 23.8943 85.5992 25.3C74.6992 36.2 60.1392 5.64998 27.1292 21.36C26.5664 21.6214 26.064 21.9969 25.654 22.4626C25.2439 22.9283 24.9351 23.4742 24.7471 24.0655C24.5591 24.6569 24.4959 25.2808 24.5617 25.8979C24.6275 26.5149 24.8207 27.1115 25.1292 27.65L30.7992 37.45C31.3877 38.4683 32.3539 39.2136 33.4883 39.5243C34.6227 39.8351 35.8338 39.6862 36.8592 39.11L36.9992 39L36.8892 39.08L39.3992 37.68C42.1979 35.9406 44.8441 33.9668 47.3092 31.78C47.5523 31.5561 47.8677 31.4269 48.198 31.4159C48.5283 31.4049 48.8517 31.5128 49.1091 31.72C49.2598 31.8375 49.3826 31.9868 49.469 32.1572C49.5553 32.3276 49.6031 32.5149 49.6088 32.7059C49.6145 32.8968 49.5781 33.0867 49.5021 33.262C49.4261 33.4373 49.3124 33.5936 49.1691 33.72C46.5839 36.0558 43.7963 38.1574 40.8392 40H40.7492L38.2392 41.41C36.5938 42.3194 34.658 42.5492 32.8454 42.0503C31.0329 41.5514 29.4874 40.3633 28.5392 38.74L23.1792 29.5C12.8992 36.81 6.66915 50.8 9.99915 68.49C10.0531 68.7901 10.2109 69.0618 10.4449 69.2574C10.6789 69.453 10.9742 69.5601 11.2792 69.56H17.3692C17.6882 69.5578 17.9957 69.4401 18.2347 69.2287C18.4737 69.0173 18.6281 68.7264 18.6691 68.41C18.941 66.2519 19.9911 64.2672 21.6224 62.8285C23.2537 61.3898 25.354 60.5959 27.5292 60.5959C29.7043 60.5959 31.8046 61.3898 33.4359 62.8285C35.0672 64.2672 36.1173 66.2519 36.3892 68.41C36.428 68.7256 36.5803 69.0163 36.8176 69.2279C37.055 69.4395 37.3612 69.5575 37.6792 69.56H43.6191C43.9382 69.5578 44.2457 69.4401 44.4847 69.2287C44.7237 69.0173 44.8781 68.7264 44.9191 68.41C45.191 66.2519 46.2411 64.2672 47.8724 62.8285C49.5037 61.3898 51.604 60.5959 53.7791 60.5959C55.9543 60.5959 58.0546 61.3898 59.6859 62.8285C61.3172 64.2672 62.3673 66.2519 62.6391 68.41C62.6791 68.7378 62.8415 69.0384 63.0937 69.2516C63.3458 69.4649 63.6692 69.575 63.9991 69.56H69.8692C70.2124 69.5575 70.5411 69.4214 70.7857 69.1805C71.0302 68.9397 71.1714 68.6131 71.1791 68.27C71.3091 59.99 73.5392 50.49 79.9092 45.72C101.889 29.24 96.0892 15.12 90.9992 9.99998ZM68.5191 34.91L64.3191 32.8C64.3175 32.3483 64.4317 31.9037 64.651 31.5088C64.8702 31.1139 65.1871 30.7819 65.5713 30.5444C65.9556 30.307 66.3943 30.1721 66.8455 30.1526C67.2968 30.1332 67.7455 30.2299 68.1487 30.4334C68.552 30.637 68.8962 30.9405 69.1486 31.3151C69.401 31.6897 69.553 32.1228 69.5902 32.573C69.6273 33.0231 69.5484 33.4753 69.3609 33.8862C69.1734 34.2971 68.8835 34.6531 68.5191 34.92V34.91Z" fill="url(#paint0_linear_479_1834)"/>
<defs>
<linearGradient id="paint0_linear_479_1834" x1="6.63915" y1="30.98" x2="461.719" y2="78.81" gradientUnits="userSpaceOnUse">
<stop stop-color="#06A0CE"/>
<stop offset="1" stop-color="#51CBBF"/>
</linearGradient>
</defs>
</svg>
