<svg width="16" height="16" viewBox="0 0 16 16" fill="none" xmlns="http://www.w3.org/2000/svg">
<g clip-path="url(#clip0_541_1428)">
<path d="M15.2031 7.75372L7.5509 0.101577C7.48555 0.0363593 7.39695 -0.000162424 7.30464 6.19399e-07H1.04377C0.851672 -0.000358076 0.695672 0.15512 0.695313 0.347218C0.69515 0.439826 0.731933 0.528685 0.797509 0.594098L8.20411 8.00002L0.797509 15.4059C0.661498 15.5416 0.661237 15.7618 0.796889 15.8978C0.862302 15.9634 0.951161 16.0002 1.04377 16H7.30464C7.39695 16.0002 7.48555 15.9636 7.5509 15.8984L15.2031 8.24625C15.3391 8.11059 15.3393 7.89035 15.2037 7.75434C15.2035 7.75415 15.2033 7.75395 15.2031 7.75372Z" fill="#176AFF"/>
</g>
<defs>
<clipPath id="clip0_541_1428">
<rect width="16" height="16" fill="white"/>
</clipPath>
</defs>
</svg>
