<svg width="60" height="28" viewBox="0 0 60 28" fill="none" xmlns="http://www.w3.org/2000/svg">
<rect width="60" height="28" rx="4" fill="#176AFF"/>
<path d="M39.3288 8.09904L37.9269 8.09897V6.64773C37.9269 6.31548 37.6838 6.03319 37.3552 5.98403C37.2978 5.97541 35.932 5.77703 34.2874 6.07629C32.4539 6.40989 30.9917 7.23258 30 8.47628C29.0082 7.23258 27.546 6.40989 25.7126 6.07629C24.0679 5.77709 22.7021 5.97541 22.6448 5.98403C22.3162 6.03326 22.0731 6.31554 22.0731 6.64773V8.09897H20.6711C20.3005 8.09897 20 8.39951 20 8.77015V21.4169C20 21.6342 20.1052 21.8381 20.2824 21.964C20.4595 22.0899 20.6867 22.1222 20.8918 22.0507C20.9422 22.0333 25.9714 20.3169 29.7214 22.0275C29.8984 22.1082 30.1016 22.1082 30.2786 22.0275C34.0181 20.3218 39.058 22.0334 39.1081 22.0507C39.1801 22.0758 39.2545 22.0881 39.3288 22.0881C39.4663 22.0881 39.6025 22.0458 39.7176 21.964C39.8948 21.8381 40 21.6343 40 21.417V8.77022C39.9999 8.39958 39.6995 8.09904 39.3288 8.09904ZM21.3423 20.5189V9.44126H22.0731V18.379C22.0731 18.574 22.1584 18.7592 22.3059 18.8867C22.4535 19.0142 22.6497 19.0713 22.8425 19.0428C22.8796 19.0375 25.7951 18.6372 27.9252 20.0987C25.3013 19.65 22.6752 20.169 21.3423 20.5189ZM29.3289 19.4934C28.3907 18.6457 27.1687 18.0725 25.7126 17.8076C25.0118 17.6801 24.3617 17.6429 23.8419 17.6429C23.6875 17.6429 23.5446 17.6462 23.4154 17.6514V7.26403H23.4153C24.7052 7.20584 27.8431 7.34376 29.3289 9.86247V19.4934ZM30.6711 9.86254C32.1515 7.3546 35.2943 7.21042 36.5846 7.26571V17.6514C36.0201 17.6286 35.196 17.6422 34.2874 17.8076C32.8313 18.0725 31.6093 18.6457 30.6711 19.4934V9.86254ZM32.0725 20.0991C34.2028 18.6367 37.1199 19.0374 37.1563 19.0428C37.3496 19.0718 37.5457 19.015 37.6937 18.8876C37.8418 18.76 37.9269 18.5744 37.9269 18.379V9.44133H38.6576V20.5189C37.3243 20.1688 34.6971 19.6496 32.0725 20.0991Z" fill="white"/>
</svg>
