<svg width="48" height="48" viewBox="0 0 48 48" fill="none" xmlns="http://www.w3.org/2000/svg">
<path d="M0 4C0 1.79086 1.79086 0 4 0H44C46.2091 0 48 1.79086 48 4V44C48 46.2091 46.2091 48 44 48H4C1.79086 48 0 46.2091 0 44V4Z" fill="url(#paint0_linear_202_1177)"/>
<path fill-rule="evenodd" clip-rule="evenodd" d="M32.0507 13.6645C30.9979 10.3909 28.2142 7.8719 24.8724 7.16899C23.6921 6.92068 21.876 6.94911 20.7175 7.23387C17.3097 8.07198 14.6578 10.6575 13.674 14.1016C13.4553 14.8672 13.398 15.3781 13.3951 16.5875L13.3914 18.1097L12.6017 18.4658C11.524 18.9516 10.1875 20.2722 9.68338 21.3497C9.18372 22.4175 8.91925 23.7417 9.0219 24.6624C9.33448 27.4651 11.4002 29.7779 14.0897 30.3365L14.7883 30.4815L14.7844 32.735L14.7806 34.9886L14.2454 35.3133C12.2654 36.5143 12.3319 39.2873 14.3678 40.4287C14.8955 40.7245 15.0776 40.7622 15.8327 40.731C16.927 40.6859 17.7028 40.2491 18.2443 39.3733C18.7688 38.5247 18.8268 37.4045 18.3905 36.5437C18.0567 35.8848 17.4853 35.3305 16.9462 35.1426L16.6105 35.0255V32.7292V30.4329H19.8299H23.0492V32.7216V35.0103L22.7604 35.1419C21.7868 35.5854 21.0811 36.7231 21.0811 37.849C21.0811 40.0198 23.3885 41.456 25.3071 40.4795C26.0089 40.1224 26.3251 39.8004 26.6921 39.0697C27.379 37.702 26.6901 35.7836 25.2817 35.1419L24.9929 35.0103V32.7216V30.4329H28.2123H31.4316V32.7169V35.0008L30.8878 35.2651C30.3011 35.5502 29.7097 36.2601 29.4804 36.9548C29.0871 38.1465 29.6505 39.6465 30.7459 40.3238C32.5272 41.425 34.7707 40.4465 35.1994 38.3812C35.4481 37.1837 34.7974 35.8253 33.6894 35.2286L33.2489 34.9914L33.2818 32.642L33.3146 30.2926L33.922 30.0777C35.0406 29.6819 35.7983 29.2201 36.6555 28.4114C38.2084 26.9465 38.9908 25.1886 38.9999 23.1439C39.0093 21.0388 38.3118 19.3326 36.836 17.85C35.8758 16.8854 34.5027 16.1078 33.2903 15.8421C32.5111 15.6713 32.4081 15.5844 32.4053 15.0956C32.4043 14.9119 32.2447 14.2679 32.0507 13.6645ZM16.382 12.324C17.6513 10.3605 19.7519 9.0543 22.0166 8.82069C25.4773 8.46365 28.5308 10.1607 29.993 13.2536C30.3905 14.0943 30.6975 15.3965 30.7006 16.2551C30.7034 17.0251 31.0795 17.4341 31.7845 17.4341C33.1596 17.4341 34.5179 17.9979 35.6146 19.0239C38.6822 21.8935 37.5372 27.0066 33.5245 28.3583C32.7928 28.6048 32.5661 28.6107 23.6825 28.6107C15.1998 28.6107 14.0885 28.624 13.2442 28.1557C13.0911 28.0707 12.9467 27.97 12.7687 27.8503C12.0484 27.3661 11.335 26.4421 11.0576 25.6343C10.7255 24.6667 10.7784 23.249 11.1793 22.3742C11.8363 20.9407 12.6936 20.2125 14.2701 19.7487C15.426 19.4087 15.4747 19.3135 15.2727 17.7878C15.0055 15.7685 15.3947 13.8518 16.382 12.324ZM24.6285 11.4737C24.6285 11.2923 24.5328 11.0268 24.4159 10.8837C23.8996 10.252 21.8285 10.6016 20.116 11.6095C18.6628 12.4647 17.1726 14.4424 16.9147 15.8581C16.8071 16.4484 17.1922 16.9482 17.7547 16.9482C18.2314 16.9482 18.4808 16.701 18.7372 15.9743C19.038 15.1218 19.4518 14.5026 20.1823 13.8117C21.0265 13.0133 21.8639 12.6219 23.1138 12.4414C24.2027 12.2842 24.6285 12.0122 24.6285 11.4737ZM14.9028 38.6257C14.3444 38.0312 14.6754 36.8565 15.4411 36.7155C16.2283 36.5704 16.8535 37.0752 16.8535 37.8557C16.8535 38.5409 16.4406 38.9368 15.7261 38.9368C15.3133 38.9368 15.13 38.8674 14.9028 38.6257ZM22.9277 37.8653C22.9277 37.319 23.2772 36.792 23.6894 36.7172C24.5013 36.5696 25.1476 37.0661 25.1476 37.8372C25.1476 38.5501 24.7633 38.9368 24.0551 38.9368C23.3449 38.9368 22.9277 38.5403 22.9277 37.8653ZM31.1886 37.9017C31.1886 37.316 31.3716 37.0071 31.836 36.8086C32.6167 36.475 33.4306 36.9996 33.4306 37.8366C33.4306 38.5292 33.0177 38.9368 32.316 38.9368C31.6229 38.9368 31.1886 38.5381 31.1886 37.9017Z" fill="white"/>
<defs>
<linearGradient id="paint0_linear_202_1177" x1="8.29947e-07" y1="21.84" x2="48" y2="22.56" gradientUnits="userSpaceOnUse">
<stop stop-color="#F77468"/>
<stop offset="1" stop-color="#F68831"/>
</linearGradient>
</defs>
</svg>
