<svg width="48" height="48" viewBox="0 0 48 48" fill="none" xmlns="http://www.w3.org/2000/svg">
<circle cx="24" cy="24" r="24" fill="url(#paint0_linear_183_2271)"/>
<path d="M17.752 33V30.24L23.128 24.648C23.8 23.944 24.288 23.32 24.592 22.776C24.896 22.232 25.048 21.672 25.048 21.096C25.048 20.376 24.816 19.832 24.352 19.464C23.888 19.096 23.224 18.912 22.36 18.912C21.64 18.912 20.928 19.048 20.224 19.32C19.536 19.576 18.856 19.976 18.184 20.52L17.008 17.784C17.712 17.176 18.584 16.696 19.624 16.344C20.664 15.992 21.744 15.816 22.864 15.816C24.752 15.816 26.2 16.24 27.208 17.088C28.216 17.92 28.72 19.112 28.72 20.664C28.72 21.704 28.48 22.696 28 23.64C27.52 24.584 26.744 25.584 25.672 26.64L21.352 30.888V29.928H29.368V33H17.752Z" fill="white"/>
<defs>
<linearGradient id="paint0_linear_183_2271" x1="-2.54837e-07" y1="18.96" x2="48" y2="19.2" gradientUnits="userSpaceOnUse">
<stop stop-color="#6674F3"/>
<stop offset="1" stop-color="#9985FC"/>
</linearGradient>
</defs>
</svg>
