<svg width="64" height="64" viewBox="0 0 64 64" fill="none" xmlns="http://www.w3.org/2000/svg">
<g clip-path="url(#clip0_403_2042)">
<g filter="url(#filter0_d_403_2042)">
<path d="M52.5234 18.868L49.4391 18.8679V15.6382C49.4391 14.8988 48.9043 14.2705 48.1814 14.1611C48.0551 14.142 45.0504 13.7005 41.4322 14.3665C37.3986 15.1089 34.1817 16.9397 31.9999 19.7075C29.818 16.9397 26.6011 15.1089 22.5677 14.3665C18.9493 13.7006 15.9446 14.142 15.8185 14.1611C15.0955 14.2707 14.5607 14.8989 14.5607 15.6382V18.8679H11.4764C10.6612 18.8679 10 19.5367 10 20.3615V48.5063C10 48.9899 10.2314 49.4436 10.6212 49.7238C11.011 50.004 11.5107 50.076 11.9621 49.9168C12.0729 49.878 23.137 46.0583 31.3872 49.8651C31.7765 50.0448 32.2235 50.0448 32.6128 49.8651C40.8399 46.0691 51.9277 49.8783 52.0379 49.9168C52.1962 49.9726 52.36 50 52.5233 50C52.8259 50 53.1255 49.9059 53.3788 49.724C53.7686 49.4437 54 48.9901 54 48.5065V20.3617C53.9999 19.5368 53.3388 18.868 52.5234 18.868ZM12.953 46.5079V21.8551H14.5607V41.7456C14.5607 42.1796 14.7484 42.5917 15.073 42.8754C15.3976 43.1591 15.8293 43.2863 16.2536 43.223C16.3351 43.211 22.7493 42.3202 27.4355 45.5726C21.6629 44.5741 15.8855 45.7291 12.953 46.5079ZM30.5235 44.2257C28.4595 42.3392 25.7711 41.0636 22.5677 40.474C21.026 40.1902 19.5958 40.1075 18.4521 40.1075C18.1126 40.1075 17.7982 40.1148 17.5139 40.1264V17.0097H17.5138C20.3515 16.8802 27.2548 17.1872 30.5235 22.7924V44.2257ZM33.4764 22.7926C36.7334 17.2113 43.6474 16.8904 46.4861 17.0135V40.1264C45.2442 40.0757 43.4313 40.106 41.4322 40.474C38.2288 41.0636 35.5404 42.3391 33.4764 44.2257V22.7926ZM36.5595 45.5735C41.2463 42.3191 47.6639 43.2108 47.7439 43.2228C48.1692 43.2874 48.6006 43.1609 48.9262 42.8774C49.2519 42.5935 49.4391 42.1805 49.4391 41.7456V21.8552H51.0468V46.5079C48.1135 45.7288 42.3337 44.5734 36.5595 45.5735Z" fill="#8B9ACB"/>
</g>
</g>
<defs>
<filter id="filter0_d_403_2042" x="-2" y="2" width="68" height="60" filterUnits="userSpaceOnUse" color-interpolation-filters="sRGB">
<feFlood flood-opacity="0" result="BackgroundImageFix"/>
<feColorMatrix in="SourceAlpha" type="matrix" values="0 0 0 0 0 0 0 0 0 0 0 0 0 0 0 0 0 0 127 0" result="hardAlpha"/>
<feOffset/>
<feGaussianBlur stdDeviation="6"/>
<feComposite in2="hardAlpha" operator="out"/>
<feColorMatrix type="matrix" values="0 0 0 0 0.395833 0 0 0 0 0.611979 0 0 0 0 1 0 0 0 0.62 0"/>
<feBlend mode="normal" in2="BackgroundImageFix" result="effect1_dropShadow_403_2042"/>
<feBlend mode="normal" in="SourceGraphic" in2="effect1_dropShadow_403_2042" result="shape"/>
</filter>
<clipPath id="clip0_403_2042">
<rect width="64" height="64" fill="white"/>
</clipPath>
</defs>
</svg>
