<svg width="64" height="64" viewBox="0 0 64 64" fill="none" xmlns="http://www.w3.org/2000/svg">
<g clip-path="url(#clip0_783_12191)">
<path d="M29.6175 29.6383L0.8675 17.5331C0.455625 17.3596 0 17.6621 0 18.1091V50.4714C0 51.2892 0.497875 52.0247 1.25725 52.3283L29.1429 63.4826C29.5534 63.6468 30 63.3444 30 62.9023V30.2143C30 29.9628 29.8492 29.7359 29.6175 29.6383Z" fill="#363C45"/>
<path d="M32.2428 26.1994L60.0322 14.4986C60.5317 14.2884 60.545 13.5854 60.0539 13.3563L32.846 0.659273C32.3099 0.409148 31.6907 0.409148 31.1545 0.659273L3.94666 13.3563C3.45554 13.5854 3.46891 14.2884 3.96841 14.4986L31.7578 26.1994C31.9128 26.2648 32.0878 26.2648 32.2428 26.1994Z" fill="#363C45"/>
<path d="M34 30.2143V62.9023C34 63.3444 34.4466 63.6468 34.8571 63.4826L62.7427 52.3283C63.502 52.0246 64 51.2892 64 50.4714V18.1091C64 17.6621 63.5444 17.3596 63.1325 17.5331L34.3825 29.6383C34.1507 29.7359 34 29.9628 34 30.2143Z" fill="#363C45"/>
</g>
<defs>
<clipPath id="clip0_783_12191">
<rect width="64" height="64" fill="white"/>
</clipPath>
</defs>
</svg>
