<svg width="188" height="18" viewBox="0 0 188 18" fill="none" xmlns="http://www.w3.org/2000/svg">
<path d="M7.612 10.658V9.074H13.244V16.73C12.5253 17.082 11.7113 17.346 10.802 17.522C9.89267 17.7127 8.96133 17.808 8.008 17.808C5.38267 17.808 3.388 17.0967 2.024 15.674C0.674667 14.2367 0 12.1247 0 9.338C0 7.63667 0.33 6.18467 0.99 4.982C1.65 3.77933 2.596 2.85533 3.828 2.21C5.07467 1.56467 6.57067 1.242 8.316 1.242C9.03467 1.242 9.724 1.308 10.384 1.44C11.0587 1.55733 11.6747 1.74067 12.232 1.99V4.322C11.4987 4.07267 10.8313 3.89667 10.23 3.794C9.62867 3.67667 9.02733 3.618 8.426 3.618C6.622 3.618 5.22867 4.11667 4.246 5.114C3.278 6.09667 2.794 7.50467 2.794 9.338C2.794 13.386 4.554 15.41 8.074 15.41C8.92467 15.41 9.78267 15.322 10.648 15.146V11.472L7.612 10.658Z" fill="white"/>
<path d="M15.8663 17.522V5.95H17.6483L18.0663 7.864C18.433 7.248 18.895 6.77133 19.4523 6.434C20.0096 6.082 20.6623 5.906 21.4103 5.906C21.689 5.906 21.9456 5.928 22.1803 5.972V8.37H21.5423C20.7356 8.37 20.0756 8.59733 19.5623 9.052C19.049 9.492 18.7116 10.0787 18.5503 10.812V17.522H15.8663Z" fill="white"/>
<path d="M31.2469 17.522L30.8729 15.806C30.4475 16.4367 29.9122 16.928 29.2669 17.28C28.6215 17.6173 27.9102 17.786 27.1329 17.786C25.9449 17.786 24.9989 17.456 24.2949 16.796C23.6055 16.136 23.2609 15.2413 23.2609 14.112C23.2609 12.9093 23.7009 11.9633 24.5809 11.274C25.4609 10.5847 26.6635 10.24 28.1889 10.24H30.3669V9.69C30.3669 8.95667 30.2129 8.458 29.9049 8.194C29.5969 7.93 29.0542 7.798 28.2769 7.798C27.1182 7.798 25.7982 8.06933 24.3169 8.612V6.522C24.9035 6.27267 25.5709 6.07467 26.3189 5.928C27.0669 5.78133 27.8002 5.708 28.5189 5.708C31.5255 5.708 33.0289 7.028 33.0289 9.668V17.522H31.2469ZM27.6829 15.762C28.2255 15.762 28.7389 15.6227 29.2229 15.344C29.7069 15.0507 30.1029 14.6473 30.4109 14.134V11.956H28.4969C26.7222 11.956 25.8349 12.6013 25.8349 13.892C25.8349 14.4787 25.9962 14.9407 26.3189 15.278C26.6415 15.6007 27.0962 15.762 27.6829 15.762Z" fill="white"/>
<path d="M43.2566 17.522L42.8826 15.806C42.4573 16.4367 41.922 16.928 41.2766 17.28C40.6313 17.6173 39.92 17.786 39.1426 17.786C37.9546 17.786 37.0086 17.456 36.3046 16.796C35.6153 16.136 35.2706 15.2413 35.2706 14.112C35.2706 12.9093 35.7106 11.9633 36.5906 11.274C37.4706 10.5847 38.6733 10.24 40.1986 10.24H42.3766V9.69C42.3766 8.95667 42.2226 8.458 41.9146 8.194C41.6066 7.93 41.064 7.798 40.2866 7.798C39.128 7.798 37.808 8.06933 36.3266 8.612V6.522C36.9133 6.27267 37.5806 6.07467 38.3286 5.928C39.0766 5.78133 39.81 5.708 40.5286 5.708C43.5353 5.708 45.0386 7.028 45.0386 9.668V17.522H43.2566ZM39.6926 15.762C40.2353 15.762 40.7486 15.6227 41.2326 15.344C41.7166 15.0507 42.1126 14.6473 42.4206 14.134V11.956H40.5066C38.732 11.956 37.8446 12.6013 37.8446 13.892C37.8446 14.4787 38.006 14.9407 38.3286 15.278C38.6513 15.6007 39.106 15.762 39.6926 15.762Z" fill="white"/>
<path d="M48.0284 17.522V2.958L46.8624 2.1V1H50.7124V17.522H48.0284Z" fill="white"/>
<path d="M70.8608 14.486V16.818C70.2448 17.1407 69.5555 17.3827 68.7928 17.544C68.0301 17.72 67.2161 17.808 66.3508 17.808C63.8868 17.808 61.9948 17.082 60.6748 15.63C59.3695 14.178 58.7168 12.0807 58.7168 9.338C58.7168 7.65133 59.0248 6.20667 59.6408 5.004C60.2715 3.80133 61.1661 2.87733 62.3248 2.232C63.4981 1.572 64.8841 1.242 66.4828 1.242C67.1868 1.242 67.8835 1.32267 68.5728 1.484C69.2621 1.64533 69.8561 1.87267 70.3548 2.166V4.476C69.5921 4.168 68.9248 3.948 68.3528 3.816C67.7808 3.684 67.2161 3.618 66.6588 3.618C65.0161 3.618 63.7475 4.124 62.8528 5.136C61.9581 6.13333 61.5108 7.534 61.5108 9.338C61.5108 11.2887 61.9508 12.792 62.8308 13.848C63.7255 14.8893 65.0015 15.41 66.6588 15.41C67.3041 15.41 67.9568 15.3367 68.6168 15.19C69.2915 15.0433 70.0395 14.8087 70.8608 14.486Z" fill="white"/>
<path d="M73.337 17.522V2.958L72.171 2.1V1H76.021V17.522H73.337Z" fill="white"/>
<path d="M84.0668 17.764C82.2921 17.764 80.9061 17.236 79.9088 16.18C78.9261 15.124 78.4348 13.6427 78.4348 11.736C78.4348 9.82934 78.9261 8.348 79.9088 7.292C80.9061 6.236 82.2921 5.708 84.0668 5.708C85.8561 5.708 87.2421 6.236 88.2248 7.292C89.2075 8.348 89.6988 9.82934 89.6988 11.736C89.6988 13.6427 89.2075 15.124 88.2248 16.18C87.2421 17.236 85.8561 17.764 84.0668 17.764ZM84.0668 15.674C86.0175 15.674 86.9928 14.3613 86.9928 11.736C86.9928 9.11067 86.0175 7.798 84.0668 7.798C82.1161 7.798 81.1408 9.11067 81.1408 11.736C81.1408 14.3613 82.1161 15.674 84.0668 15.674Z" fill="white"/>
<path d="M92.0263 13.078V5.95H94.7103V12.99C94.7103 14.6913 95.385 15.542 96.7343 15.542C97.3357 15.542 97.893 15.3513 98.4063 14.97C98.9343 14.5887 99.3303 14.0753 99.5943 13.43V5.95H102.278V17.522H100.496L100.078 15.652C99.5943 16.3267 99.0003 16.8473 98.2963 17.214C97.607 17.5807 96.8517 17.764 96.0303 17.764C94.7397 17.764 93.7497 17.3607 93.0603 16.554C92.371 15.7473 92.0263 14.5887 92.0263 13.078Z" fill="white"/>
<path d="M113.731 17.522L113.335 15.74C112.88 16.3853 112.323 16.884 111.663 17.236C111.017 17.588 110.321 17.764 109.573 17.764C108.047 17.764 106.852 17.236 105.987 16.18C105.121 15.1093 104.689 13.6207 104.689 11.714C104.689 9.80733 105.114 8.33333 105.965 7.292C106.83 6.236 108.033 5.708 109.573 5.708C110.834 5.708 111.919 6.14067 112.829 7.006V1H115.513V17.522H113.731ZM107.395 11.736C107.395 12.9827 107.622 13.9433 108.077 14.618C108.546 15.278 109.213 15.608 110.079 15.608C110.636 15.608 111.157 15.4613 111.641 15.168C112.139 14.86 112.543 14.4567 112.851 13.958V9.14C112.117 8.27467 111.193 7.842 110.079 7.842C109.213 7.842 108.546 8.17933 108.077 8.854C107.622 9.514 107.395 10.4747 107.395 11.736Z" fill="white"/>
<path d="M124.108 17.522V1.528H126.682L134.36 13.012V1.528H137.088V17.522H134.514L126.836 6.06V17.522H124.108Z" fill="white"/>
<path d="M147.542 17.522L147.168 15.806C146.742 16.4367 146.207 16.928 145.562 17.28C144.916 17.6173 144.205 17.786 143.428 17.786C142.24 17.786 141.294 17.456 140.59 16.796C139.9 16.136 139.556 15.2413 139.556 14.112C139.556 12.9093 139.996 11.9633 140.876 11.274C141.756 10.5847 142.958 10.24 144.484 10.24H146.662V9.69C146.662 8.95667 146.508 8.458 146.2 8.194C145.892 7.93 145.349 7.798 144.572 7.798C143.413 7.798 142.093 8.06933 140.612 8.612V6.522C141.198 6.27267 141.866 6.07467 142.614 5.928C143.362 5.78133 144.095 5.708 144.814 5.708C147.82 5.708 149.324 7.028 149.324 9.668V17.522H147.542ZM143.978 15.762C144.52 15.762 145.034 15.6227 145.518 15.344C146.002 15.0507 146.398 14.6473 146.706 14.134V11.956H144.792C143.017 11.956 142.13 12.6013 142.13 13.892C142.13 14.4787 142.291 14.9407 142.614 15.278C142.936 15.6007 143.391 15.762 143.978 15.762Z" fill="white"/>
<path d="M152.776 13.76V8.04H150.774V6.698L152.842 5.906L153.744 2.694H155.46V5.95H157.946V8.04H155.46V13.738C155.46 14.354 155.599 14.8013 155.878 15.08C156.156 15.344 156.567 15.476 157.11 15.476C157.271 15.476 157.44 15.476 157.616 15.476C157.806 15.4613 157.96 15.4467 158.078 15.432V17.544C157.784 17.588 157.513 17.6173 157.264 17.632C157.029 17.6467 156.765 17.654 156.472 17.654C155.225 17.654 154.294 17.3387 153.678 16.708C153.076 16.0773 152.776 15.0947 152.776 13.76Z" fill="white"/>
<path d="M160.236 3.618V1.418H163.294V3.618H160.236ZM160.632 17.522V7.908L159.466 7.05V5.95H163.316V17.522H160.632Z" fill="white"/>
<path d="M169.642 17.522L165.11 5.95H167.948L170.808 14.222L173.668 5.95H176.396L171.864 17.522H169.642Z" fill="white"/>
<path d="M187.054 16.972C186.57 17.2213 185.983 17.4193 185.294 17.566C184.605 17.7127 183.871 17.786 183.094 17.786C181.187 17.786 179.728 17.2653 178.716 16.224C177.719 15.1827 177.22 13.6647 177.22 11.67C177.22 9.76333 177.697 8.29667 178.65 7.27C179.618 6.22867 180.975 5.708 182.72 5.708C184.333 5.708 185.551 6.17 186.372 7.094C187.193 8.00333 187.604 9.30867 187.604 11.01V12.506H179.882C179.985 13.606 180.315 14.4053 180.872 14.904C181.444 15.4027 182.273 15.652 183.358 15.652C184.003 15.652 184.612 15.5933 185.184 15.476C185.756 15.344 186.379 15.1387 187.054 14.86V16.972ZM182.698 7.732C180.938 7.732 179.992 8.69267 179.86 10.614H185.14C185.125 8.69267 184.311 7.732 182.698 7.732Z" fill="white"/>
</svg>
