<svg width="88" height="88" viewBox="0 0 88 88" fill="none" xmlns="http://www.w3.org/2000/svg">
<g opacity="0.1">
<path d="M15.6832 84.4747H72.1562C78.4761 84.4747 82.3499 77.7469 79.4956 72.2422L58.4073 33.4853C57.3957 31.6261 56.8657 29.5432 56.8657 27.4266V16.0751C56.8657 15.3433 57.459 14.75 58.1908 14.75V14.75C58.9227 14.75 59.516 14.1567 59.516 13.4248V9.04149C59.516 5.88878 56.9602 3.33301 53.8075 3.33301H34.2358C31.0831 3.33301 28.5273 5.88878 28.5273 9.04149V13.4248C28.5273 14.1567 29.1206 14.75 29.8525 14.75V14.75C30.5844 14.75 31.1777 15.3433 31.1777 16.0751V27.4266C31.1777 29.5432 30.6477 31.6261 29.6361 33.4853L8.5477 72.2422C5.4897 77.7469 9.56721 84.4747 15.6832 84.4747Z" fill="#C6D1EB"/>
<path d="M58.0928 51.0393C58.0928 51.0393 51.9766 46.9618 44.0255 51.0393C36.6861 54.7089 29.9582 51.0393 29.9582 51.0393L17.1141 74.4848C17.1141 74.6888 16.9101 74.8925 17.1141 75.3004C17.318 75.708 17.7257 75.708 17.9296 75.708H70.1211C70.3251 75.708 70.5288 75.708 70.9367 75.3004C71.1407 74.8927 70.9367 74.4848 70.9367 74.4848L58.0928 51.0393Z" fill="#1E2631"/>
<path d="M55.2393 72.446C57.1535 72.446 58.7053 70.8942 58.7053 68.9801C58.7053 67.0659 57.1535 65.5142 55.2393 65.5142C53.3252 65.5142 51.7734 67.0659 51.7734 68.9801C51.7734 70.8942 53.3252 72.446 55.2393 72.446Z" fill="#C4D1EE"/>
<path d="M37.5008 66.7374C39.9779 66.7374 41.9859 64.7293 41.9859 62.2522C41.9859 59.7752 39.9779 57.7671 37.5008 57.7671C35.0237 57.7671 33.0156 59.7752 33.0156 62.2522C33.0156 64.7293 35.0237 66.7374 37.5008 66.7374Z" fill="#C4D1EE"/>
<path d="M43.8211 43.2916C46.2982 43.2916 48.3062 41.2835 48.3062 38.8064C48.3062 36.3294 46.2982 34.3213 43.8211 34.3213C41.344 34.3213 39.3359 36.3294 39.3359 38.8064C39.3359 41.2835 41.344 43.2916 43.8211 43.2916Z" fill="#1E2631"/>
<path d="M44.2273 21.6812C46.7044 21.6812 48.7125 19.6732 48.7125 17.1961C48.7125 14.719 46.7044 12.7109 44.2273 12.7109C41.7503 12.7109 39.7422 14.719 39.7422 17.1961C39.7422 19.6732 41.7503 21.6812 44.2273 21.6812Z" fill="#1E2631"/>
</g>
</svg>
