<svg width="24" height="24" viewBox="0 0 24 24" fill="none" xmlns="http://www.w3.org/2000/svg">
<path d="M15.1387 2.93595L23.517 17.4476C23.8242 17.9798 24.0009 18.5968 24.0009 19.2554C24.0009 21.2556 22.3794 22.8772 20.3792 22.8772H12.0009L9.10352 11.9996L12.0009 1.12207C13.3425 1.12207 14.5128 1.85205 15.1387 2.93595Z" fill="#29303E"/>
<path d="M8.86223 2.93595L0.483891 17.4476C0.176672 17.9798 0 18.5968 0 19.2554C0 21.2556 1.6215 22.8772 3.62175 22.8772H12V1.12207C10.6584 1.12207 9.48811 1.85205 8.86223 2.93595Z" fill="#29303E"/>
<path d="M22.2617 18.1723L13.8835 3.6607C13.5059 3.00638 12.8125 2.5935 12.0625 2.57227L19.2282 21.4289H20.3785C21.5766 21.4289 22.5515 20.454 22.5515 19.2559C22.5515 18.8753 22.4511 18.5006 22.2617 18.1723Z" fill="white"/>
<path d="M20.853 18.1727C21.0167 18.5011 21.1031 18.8758 21.1031 19.2564C21.1031 20.4544 20.2624 21.4294 19.2285 21.4294H3.62225C2.42417 21.4294 1.44922 20.4544 1.44922 19.2564C1.44922 18.8758 1.54967 18.5011 1.73895 18.1727L10.1172 3.66118C10.5055 2.98899 11.2269 2.57129 12.0005 2.57129C12.0213 2.57129 12.042 2.57176 12.0628 2.57274C12.7065 2.59787 13.301 3.00976 13.625 3.66118L20.853 18.1727Z" fill="white"/>
<path d="M12 16.5996V19.0141C12.6669 19.0141 13.2073 18.4737 13.2073 17.8068C13.2073 17.14 12.6669 16.5996 12 16.5996Z" fill="#29303E"/>
<path d="M12.0002 16.5996C12.1335 16.5996 12.2417 17.14 12.2417 17.8069C12.2417 18.4738 12.1335 19.0141 12.0002 19.0141C11.3333 19.0141 10.793 18.4738 10.793 17.8069C10.793 17.14 11.3333 16.5996 12.0002 16.5996Z" fill="#29303E"/>
<path d="M12 6.21777V15.1514C12.6669 15.1514 13.2073 14.6106 13.2073 13.9441V7.42504C13.2073 6.75815 12.6669 6.21777 12 6.21777Z" fill="#29303E"/>
<path d="M12.0002 6.21777C12.1335 6.21777 12.2417 6.75815 12.2417 7.42504V13.9441C12.2417 14.6105 12.1335 15.1514 12.0002 15.1514C11.3333 15.1514 10.793 14.6106 10.793 13.9441V7.42504C10.793 6.75815 11.3333 6.21777 12.0002 6.21777Z" fill="#29303E"/>
</svg>
