<svg width="196" height="20" viewBox="0 0 196 20" fill="none" xmlns="http://www.w3.org/2000/svg">
<path d="M189.879 14.7594V9.03936H187.877V7.69736L189.945 6.90536L190.847 3.69336H192.563V6.94936H195.049V9.03936H192.563V14.7374C192.563 15.3534 192.702 15.8007 192.981 16.0794C193.26 16.3434 193.67 16.4754 194.213 16.4754C194.374 16.4754 194.543 16.4754 194.719 16.4754C194.91 16.4607 195.064 16.446 195.181 16.4314V18.5434C194.888 18.5874 194.616 18.6167 194.367 18.6314C194.132 18.646 193.868 18.6534 193.575 18.6534C192.328 18.6534 191.397 18.338 190.781 17.7074C190.18 17.0767 189.879 16.094 189.879 14.7594Z" fill="white"/>
<path d="M183.267 4.61797V2.41797H186.325V4.61797H183.267ZM183.663 18.522V8.90797L182.497 8.04997V6.94997H186.347V18.522H183.663Z" fill="white"/>
<path d="M168.967 18.5213V2.52734H171.717V9.56734L178.053 2.52734H181.309L174.643 9.72134L181.859 18.5213H178.603L172.905 11.5033H171.717V18.5213H168.967Z" fill="white"/>
<path d="M154.882 18.5212L150.35 6.94922H153.188L156.048 15.2212L158.908 6.94922H161.636L157.104 18.5212H154.882Z" fill="white"/>
<path d="M148.726 17.971C148.242 18.2204 147.655 18.4184 146.966 18.565C146.276 18.7117 145.543 18.785 144.766 18.785C142.859 18.785 141.4 18.2644 140.388 17.223C139.39 16.1817 138.892 14.6637 138.892 12.669C138.892 10.7624 139.368 9.2957 140.322 8.26903C141.29 7.2277 142.646 6.70703 144.392 6.70703C146.005 6.70703 147.222 7.16903 148.044 8.09303C148.865 9.00236 149.276 10.3077 149.276 12.009V13.505H141.554C141.656 14.605 141.986 15.4044 142.544 15.903C143.116 16.4017 143.944 16.651 145.03 16.651C145.675 16.651 146.284 16.5924 146.856 16.475C147.428 16.343 148.051 16.1377 148.726 15.859V17.971ZM144.37 8.73103C142.61 8.73103 141.664 9.6917 141.532 11.613H146.812C146.797 9.6917 145.983 8.73103 144.37 8.73103Z" fill="white"/>
<path d="M124.107 18.5213V2.52734H129.189C131.785 2.52734 133.743 3.20201 135.063 4.55134C136.398 5.90068 137.065 7.89534 137.065 10.5353C137.065 13.1607 136.398 15.148 135.063 16.4973C133.743 17.8467 131.785 18.5213 129.189 18.5213H124.107ZM129.145 4.79334H126.857V16.2553H129.145C130.847 16.2553 132.115 15.786 132.951 14.8473C133.802 13.9087 134.227 12.4713 134.227 10.5353C134.227 8.59934 133.809 7.16201 132.973 6.22334C132.137 5.27001 130.861 4.79334 129.145 4.79334Z" fill="white"/>
<path d="M113.73 18.522L113.334 16.74C112.88 17.3853 112.322 17.884 111.662 18.236C111.017 18.588 110.32 18.764 109.572 18.764C108.047 18.764 106.852 18.236 105.986 17.18C105.121 16.1093 104.688 14.6207 104.688 12.714C104.688 10.8073 105.114 9.33333 105.964 8.292C106.83 7.236 108.032 6.708 109.572 6.708C110.834 6.708 111.919 7.14067 112.828 8.006V2H115.512V18.522H113.73ZM107.394 12.736C107.394 13.9827 107.622 14.9433 108.076 15.618C108.546 16.278 109.213 16.608 110.078 16.608C110.636 16.608 111.156 16.4613 111.64 16.168C112.139 15.86 112.542 15.4567 112.85 14.958V10.14C112.117 9.27467 111.193 8.842 110.078 8.842C109.213 8.842 108.546 9.17933 108.076 9.854C107.622 10.514 107.394 11.4747 107.394 12.736Z" fill="white"/>
<path d="M92.0264 14.0772V6.94922H94.7104V13.9892C94.7104 15.6906 95.385 16.5412 96.7344 16.5412C97.3357 16.5412 97.893 16.3506 98.4064 15.9692C98.9344 15.5879 99.3304 15.0746 99.5944 14.4292V6.94922H102.278V18.5212H100.496L100.078 16.6512C99.5944 17.3259 99.0004 17.8466 98.2964 18.2132C97.607 18.5799 96.8517 18.7632 96.0304 18.7632C94.7397 18.7632 93.7497 18.3599 93.0604 17.5532C92.371 16.7466 92.0264 15.5879 92.0264 14.0772Z" fill="white"/>
<path d="M84.0666 18.763C82.2919 18.763 80.9059 18.235 79.9086 17.179C78.9259 16.123 78.4346 14.6417 78.4346 12.735C78.4346 10.8284 78.9259 9.34703 79.9086 8.29103C80.9059 7.23503 82.2919 6.70703 84.0666 6.70703C85.8559 6.70703 87.2419 7.23503 88.2246 8.29103C89.2072 9.34703 89.6986 10.8284 89.6986 12.735C89.6986 14.6417 89.2072 16.123 88.2246 17.179C87.2419 18.235 85.8559 18.763 84.0666 18.763ZM84.0666 16.673C86.0172 16.673 86.9926 15.3604 86.9926 12.735C86.9926 10.1097 86.0172 8.79703 84.0666 8.79703C82.1159 8.79703 81.1406 10.1097 81.1406 12.735C81.1406 15.3604 82.1159 16.673 84.0666 16.673Z" fill="white"/>
<path d="M73.3369 18.522V3.958L72.1709 3.1V2H76.0209V18.522H73.3369Z" fill="white"/>
<path d="M70.8608 15.4862V17.8182C70.2448 18.1409 69.5555 18.3829 68.7928 18.5442C68.0301 18.7202 67.2161 18.8082 66.3508 18.8082C63.8868 18.8082 61.9948 18.0822 60.6748 16.6302C59.3695 15.1782 58.7168 13.0809 58.7168 10.3382C58.7168 8.65152 59.0248 7.20685 59.6408 6.00419C60.2715 4.80152 61.1661 3.87752 62.3248 3.23219C63.4981 2.57219 64.8841 2.24219 66.4828 2.24219C67.1868 2.24219 67.8835 2.32285 68.5728 2.48419C69.2621 2.64552 69.8561 2.87285 70.3548 3.16619V5.47619C69.5921 5.16819 68.9248 4.94819 68.3528 4.81619C67.7808 4.68419 67.2161 4.61819 66.6588 4.61819C65.0161 4.61819 63.7475 5.12419 62.8528 6.13619C61.9581 7.13352 61.5108 8.53419 61.5108 10.3382C61.5108 12.2889 61.9508 13.7922 62.8308 14.8482C63.7255 15.8895 65.0015 16.4102 66.6588 16.4102C67.3041 16.4102 67.9568 16.3369 68.6168 16.1902C69.2915 16.0435 70.0395 15.8089 70.8608 15.4862Z" fill="white"/>
<path d="M48.0283 18.522V3.958L46.8623 3.1V2H50.7123V18.522H48.0283Z" fill="white"/>
<path d="M43.2565 18.521L42.8825 16.805C42.4572 17.4357 41.9218 17.927 41.2765 18.279C40.6312 18.6164 39.9198 18.785 39.1425 18.785C37.9545 18.785 37.0085 18.455 36.3045 17.795C35.6152 17.135 35.2705 16.2404 35.2705 15.111C35.2705 13.9084 35.7105 12.9624 36.5905 12.273C37.4705 11.5837 38.6732 11.239 40.1985 11.239H42.3765V10.689C42.3765 9.9557 42.2225 9.45703 41.9145 9.19303C41.6065 8.92903 41.0638 8.79703 40.2865 8.79703C39.1278 8.79703 37.8078 9.06836 36.3265 9.61103V7.52103C36.9132 7.2717 37.5805 7.0737 38.3285 6.92703C39.0765 6.78036 39.8098 6.70703 40.5285 6.70703C43.5352 6.70703 45.0385 8.02703 45.0385 10.667V18.521H43.2565ZM39.6925 16.761C40.2352 16.761 40.7485 16.6217 41.2325 16.343C41.7165 16.0497 42.1125 15.6464 42.4205 15.133V12.955H40.5065C38.7318 12.955 37.8445 13.6004 37.8445 14.891C37.8445 15.4777 38.0058 15.9397 38.3285 16.277C38.6512 16.5997 39.1058 16.761 39.6925 16.761Z" fill="white"/>
<path d="M31.2467 18.521L30.8727 16.805C30.4474 17.4357 29.9121 17.927 29.2667 18.279C28.6214 18.6164 27.9101 18.785 27.1327 18.785C25.9447 18.785 24.9987 18.455 24.2947 17.795C23.6054 17.135 23.2607 16.2404 23.2607 15.111C23.2607 13.9084 23.7007 12.9624 24.5807 12.273C25.4607 11.5837 26.6634 11.239 28.1887 11.239H30.3667V10.689C30.3667 9.9557 30.2127 9.45703 29.9047 9.19303C29.5967 8.92903 29.0541 8.79703 28.2767 8.79703C27.1181 8.79703 25.7981 9.06836 24.3167 9.61103V7.52103C24.9034 7.2717 25.5707 7.0737 26.3187 6.92703C27.0667 6.78036 27.8001 6.70703 28.5187 6.70703C31.5254 6.70703 33.0287 8.02703 33.0287 10.667V18.521H31.2467ZM27.6827 16.761C28.2254 16.761 28.7387 16.6217 29.2227 16.343C29.7067 16.0497 30.1027 15.6464 30.4107 15.133V12.955H28.4967C26.7221 12.955 25.8347 13.6004 25.8347 14.891C25.8347 15.4777 25.9961 15.9397 26.3187 16.277C26.6414 16.5997 27.0961 16.761 27.6827 16.761Z" fill="white"/>
<path d="M15.8662 18.5223V6.95025H17.6482L18.0662 8.86425C18.4329 8.24825 18.8949 7.77158 19.4522 7.43425C20.0095 7.08225 20.6622 6.90625 21.4102 6.90625C21.6889 6.90625 21.9455 6.92825 22.1802 6.97225V9.37025H21.5422C20.7355 9.37025 20.0755 9.59758 19.5622 10.0522C19.0489 10.4922 18.7115 11.0789 18.5502 11.8123V18.5223H15.8662Z" fill="white"/>
<path d="M7.612 11.6582V10.0742H13.244V17.7302C12.5253 18.0822 11.7113 18.3462 10.802 18.5222C9.89267 18.7129 8.96133 18.8082 8.008 18.8082C5.38267 18.8082 3.388 18.0969 2.024 16.6742C0.674667 15.2369 0 13.1249 0 10.3382C0 8.63685 0.33 7.18485 0.99 5.98219C1.65 4.77952 2.596 3.85552 3.828 3.21019C5.07467 2.56485 6.57067 2.24219 8.316 2.24219C9.03467 2.24219 9.724 2.30819 10.384 2.44019C11.0587 2.55752 11.6747 2.74085 12.232 2.99019V5.32219C11.4987 5.07285 10.8313 4.89685 10.23 4.79419C9.62867 4.67685 9.02733 4.61819 8.426 4.61819C6.622 4.61819 5.22867 5.11685 4.246 6.11419C3.278 7.09685 2.794 8.50485 2.794 10.3382C2.794 14.3862 4.554 16.4102 8.074 16.4102C8.92467 16.4102 9.78267 16.3222 10.648 16.1462V12.4722L7.612 11.6582Z" fill="white"/>
</svg>
