<svg width="669" height="172" viewBox="0 0 669 172" fill="none" xmlns="http://www.w3.org/2000/svg">
<g clip-path="url(#clip0_1057_12298)">
<path d="M666.952 83.044L668.404 91.0959C662.992 93.8679 657.712 95.188 652.696 95.188C641.212 95.188 636.856 90.436 636.856 77.764V37.8999H627.352V28.2639H637.252C638.572 22.3239 639.628 15.9879 640.552 9.25586H650.452V28.2639H666.556V37.8999H650.452V74.464C650.452 82.384 652.036 84.892 657.316 84.892C659.956 84.892 663.124 84.232 666.952 83.044Z" fill="#FF9100"/>
<path d="M619.703 10.1802C619.703 15.8563 617.987 17.5723 611.519 17.5723C604.787 17.5723 603.203 15.9883 603.203 10.1802C603.203 4.37235 604.787 2.65625 611.519 2.65625C618.251 2.65625 619.703 4.24035 619.703 10.1802ZM618.251 28.2642V94H604.655V28.2642H618.251Z" fill="#FF9100"/>
<path d="M564.894 45.1604L594.726 94H578.094L552.354 51.6284V94H538.098V4.90039H552.354V43.5764L576.774 4.90039H592.746L564.894 45.1604Z" fill="#FF9100"/>
<path d="M483.852 28.2637H498.108C493.752 52.5517 487.02 74.464 477.78 94H461.016L440.82 28.2637H455.472L468.012 68.656L470.784 80.8C477.252 62.848 481.608 45.2917 483.852 28.2637Z" fill="#FF9100"/>
<path d="M434.344 63.375H395.14V64.563C395.14 78.027 400.684 84.759 411.64 84.759C418.24 84.759 424.972 83.439 431.836 80.931L434.08 88.851C425.632 93.207 417.184 95.319 408.736 95.319C390.388 95.319 381.148 84.495 381.148 62.979C381.148 39.8794 391.576 26.9434 409.528 26.9434C426.16 26.9434 434.476 37.3714 434.476 58.2274C434.476 59.9434 434.476 61.659 434.344 63.375ZM395.14 54.6634H421.144V54.2674C421.144 42.2554 417.052 36.3154 408.736 36.3154C400.684 36.3154 395.668 43.9714 395.14 54.6634Z" fill="#FF9100"/>
<path d="M372.305 47.1396C372.305 78.688 358.445 94.396 330.857 94.396C328.745 94.396 325.577 94.396 321.353 94.264C316.997 94.132 313.961 94 312.113 94V4.89958C314.753 4.89958 318.581 4.89958 323.465 4.76758H334.685C347.753 4.76758 357.521 8.85958 363.989 17.1756C369.533 24.4356 372.305 34.4676 372.305 47.1396ZM357.389 48.8556C357.389 26.5476 349.337 15.4596 333.233 15.4596C330.197 15.4596 327.953 15.4596 326.369 15.5916V83.044C329.669 83.176 332.177 83.308 333.893 83.308C349.601 83.308 357.389 71.824 357.389 48.8556Z" fill="#FF9100"/>
<path d="M270.972 85.288L271.5 93.472C268.332 94.396 264.768 94.924 260.676 94.924C256.32 94.924 253.416 94.132 251.7 92.416C249.72 90.436 248.664 87.004 248.664 81.856V0.412109H262.26V76.576C262.26 81.724 263.052 84.496 264.636 85.156C265.164 85.288 265.956 85.42 267.012 85.42C267.408 85.42 268.068 85.42 268.992 85.288H270.972Z" fill="white"/>
<path d="M231.51 47.0082V94H220.95L219.894 86.872C213.426 92.548 206.562 95.32 199.566 95.32C186.366 95.32 179.766 89.248 179.766 77.104C179.766 70.108 182.406 64.696 187.818 60.8682C193.626 56.7762 202.074 54.6642 213.294 54.6642H218.046V48.7242C218.046 40.9362 213.558 36.9762 204.45 36.9762C198.51 36.9762 192.174 38.2962 185.178 40.8042L183.198 32.4882C191.382 28.9242 199.698 27.0762 208.146 27.0762C223.722 27.0762 231.51 33.6762 231.51 47.0082ZM218.046 78.82V63.244H212.37C199.566 63.244 193.23 67.204 193.23 75.124C193.23 81.988 196.662 85.42 203.394 85.42C208.014 85.42 212.898 83.176 218.046 78.82Z" fill="white"/>
<path d="M167.892 47.0082V94H157.332L156.276 86.872C149.808 92.548 142.944 95.32 135.948 95.32C122.748 95.32 116.148 89.248 116.148 77.104C116.148 70.108 118.788 64.696 124.2 60.8682C130.008 56.7762 138.456 54.6642 149.676 54.6642H154.428V48.7242C154.428 40.9362 149.94 36.9762 140.832 36.9762C134.892 36.9762 128.556 38.2962 121.56 40.8042L119.58 32.4882C127.764 28.9242 136.08 27.0762 144.528 27.0762C160.104 27.0762 167.892 33.6762 167.892 47.0082ZM154.428 78.82V63.244H148.752C135.948 63.244 129.612 67.204 129.612 75.124C129.612 81.988 133.044 85.42 139.776 85.42C144.396 85.42 149.28 83.176 154.428 78.82Z" fill="white"/>
<path d="M111.475 28.5282L109.891 40.6722C107.515 40.0122 105.667 39.7482 104.347 39.7482C101.047 39.7482 96.4269 43.4442 90.4869 50.7042V94H76.8906V28.2642H88.1109L89.2989 39.3522C95.6349 31.1682 101.047 27.0762 105.667 27.0762C107.647 27.0762 109.495 27.6042 111.475 28.5282Z" fill="white"/>
<path d="M60.0842 44.2361V85.024C52.2962 91.888 42.7923 95.32 31.7043 95.32C10.7162 95.32 0.15625 80.536 0.15625 50.8361C0.15625 35.7881 3.45625 24.0401 10.1883 15.4601C16.5243 7.54008 24.8403 3.58008 35.1362 3.58008C44.9042 3.58008 52.9562 7.67208 59.2922 15.7241L53.0883 21.7961C47.1483 17.1761 41.3402 14.9321 35.9282 14.9321C29.4602 14.9321 24.3122 17.7041 20.7482 23.2481C16.9202 29.1881 15.0723 37.5041 15.0723 48.3281C15.0723 71.956 21.4082 83.836 34.2122 83.836C39.0962 83.836 43.0563 82.516 46.0923 80.008V54.7961H34.3442V44.2361H60.0842Z" fill="white"/>
<path d="M655.299 160.507V141.433H649.359V138.397L655.299 136.417L657.675 127.045H661.239V136.549H668.697V141.433H661.239V160.441C661.239 164.225 662.867 166.117 666.123 166.117C666.651 166.117 667.157 166.095 667.641 166.051C668.169 165.963 668.653 165.897 669.093 165.853V171.001C668.477 171.133 667.839 171.221 667.179 171.265C666.563 171.309 665.903 171.331 665.199 171.331C661.811 171.331 659.303 170.451 657.675 168.691C656.091 166.931 655.299 164.203 655.299 160.507Z" fill="white"/>
<path d="M614.918 157.867V136.549H620.858V157.669C620.858 160.617 621.496 162.883 622.772 164.467C624.048 166.051 625.918 166.843 628.382 166.843C630.45 166.843 632.386 166.139 634.19 164.731C636.038 163.279 637.424 161.365 638.348 158.989V136.549H644.288V171.001H640.262L639.206 165.127C637.798 167.239 636.016 168.867 633.86 170.011C631.748 171.155 629.438 171.727 626.93 171.727C623.102 171.727 620.132 170.539 618.02 168.163C615.952 165.787 614.918 162.355 614.918 157.867Z" fill="white"/>
<path d="M601.638 171L600.648 165.456C597.832 169.636 594.004 171.726 589.164 171.726C585.688 171.726 582.894 170.758 580.782 168.822C578.714 166.842 577.68 164.224 577.68 160.968C577.68 157.36 578.912 154.566 581.376 152.586C583.884 150.562 587.36 149.55 591.804 149.55H599.724V147.372C599.724 144.908 599.174 143.17 598.074 142.158C597.018 141.146 595.192 140.64 592.596 140.64C590.924 140.64 589.142 140.838 587.25 141.234C585.358 141.586 583.224 142.18 580.848 143.016V138.198C582.52 137.45 584.434 136.878 586.59 136.482C588.746 136.042 590.77 135.822 592.662 135.822C601.33 135.822 605.664 139.672 605.664 147.372V171H601.638ZM589.89 166.974C591.914 166.974 593.806 166.402 595.566 165.258C597.326 164.07 598.734 162.464 599.79 160.44V153.906H592.398C589.406 153.906 587.184 154.456 585.732 155.556C584.324 156.612 583.62 158.262 583.62 160.506C583.62 162.486 584.17 164.07 585.27 165.258C586.414 166.402 587.954 166.974 589.89 166.974Z" fill="white"/>
<path d="M540.738 171V136.548H544.764L545.82 142.422C547.272 140.31 549.054 138.682 551.166 137.538C553.278 136.394 555.654 135.822 558.294 135.822C562.254 135.822 565.29 137.01 567.402 139.386C569.514 141.762 570.57 145.194 570.57 149.682V171H564.63V149.88C564.63 143.896 562.034 140.904 556.842 140.904C554.642 140.904 552.618 141.586 550.77 142.95C548.966 144.27 547.602 146.074 546.678 148.362V171H540.738Z" fill="white"/>
<path d="M516.583 171.726C511.391 171.726 507.365 170.142 504.505 166.974C501.645 163.762 500.215 159.362 500.215 153.774C500.215 148.142 501.645 143.742 504.505 140.574C507.365 137.406 511.391 135.822 516.583 135.822C521.819 135.822 525.867 137.406 528.727 140.574C531.587 143.742 533.017 148.142 533.017 153.774C533.017 159.362 531.587 163.762 528.727 166.974C525.867 170.142 521.819 171.726 516.583 171.726ZM516.583 166.842C519.971 166.842 522.545 165.742 524.305 163.542C526.065 161.298 526.945 158.042 526.945 153.774C526.945 149.506 526.065 146.272 524.305 144.072C522.545 141.828 519.971 140.706 516.583 140.706C513.239 140.706 510.687 141.828 508.927 144.072C507.167 146.272 506.287 149.506 506.287 153.774C506.287 158.042 507.167 161.298 508.927 163.542C510.687 165.742 513.239 166.842 516.583 166.842Z" fill="white"/>
<path d="M479.254 171V136.548H483.28L484.468 143.016C486.712 138.66 489.924 136.482 494.104 136.482C494.984 136.482 495.754 136.548 496.414 136.68V141.894H494.896C492.388 141.894 490.298 142.598 488.626 144.006C486.954 145.414 485.81 147.46 485.194 150.144V171H479.254Z" fill="white"/>
<path d="M472.025 164.4V169.284C469.297 170.912 465.843 171.726 461.663 171.726C456.339 171.726 452.313 170.186 449.585 167.106C446.901 163.982 445.559 159.406 445.559 153.378C445.559 147.79 446.989 143.478 449.849 140.442C452.709 137.362 456.757 135.822 461.993 135.822C465.249 135.822 468.263 136.548 471.035 138V142.884C468.131 141.432 465.425 140.706 462.917 140.706C455.393 140.706 451.631 144.93 451.631 153.378C451.631 157.954 452.489 161.342 454.205 163.542C455.965 165.742 458.715 166.842 462.455 166.842C463.951 166.842 465.469 166.644 467.009 166.248C468.549 165.852 470.221 165.236 472.025 164.4Z" fill="white"/>
<path d="M430.507 128.563V123.217H437.767V128.563H430.507ZM431.893 171.001V141.169L428.461 138.991V136.549H437.833V171.001H431.893Z" fill="white"/>
<path d="M372.785 171.002V123.02H379.055L397.139 159.98L414.827 123.02H421.097V171.002H415.157V134.174L399.515 166.382H394.367L378.725 134.57V171.002H372.785Z" fill="white"/>
<path d="M331.781 171V136.548H335.807L336.995 143.016C339.239 138.66 342.451 136.482 346.631 136.482C347.511 136.482 348.281 136.548 348.941 136.68V141.894H347.423C344.915 141.894 342.825 142.598 341.153 144.006C339.481 145.414 338.337 147.46 337.721 150.144V171H331.781Z" fill="white"/>
<path d="M307.626 171.726C302.434 171.726 298.408 170.142 295.548 166.974C292.688 163.762 291.258 159.362 291.258 153.774C291.258 148.142 292.688 143.742 295.548 140.574C298.408 137.406 302.434 135.822 307.626 135.822C312.862 135.822 316.91 137.406 319.77 140.574C322.63 143.742 324.06 148.142 324.06 153.774C324.06 159.362 322.63 163.762 319.77 166.974C316.91 170.142 312.862 171.726 307.626 171.726ZM307.626 166.842C311.014 166.842 313.588 165.742 315.348 163.542C317.108 161.298 317.988 158.042 317.988 153.774C317.988 149.506 317.108 146.272 315.348 144.072C313.588 141.828 311.014 140.706 307.626 140.706C304.282 140.706 301.73 141.828 299.97 144.072C298.21 146.272 297.33 149.506 297.33 153.774C297.33 158.042 298.21 161.298 299.97 163.542C301.73 165.742 304.282 166.842 307.626 166.842Z" fill="white"/>
<path d="M274.335 171.001V141.433H268.395V138.397L274.335 136.417V132.589C274.335 124.845 278.031 120.973 285.423 120.973C286.215 120.973 287.073 121.061 287.997 121.237V125.857C287.469 125.769 286.765 125.725 285.885 125.725C283.861 125.725 282.409 126.275 281.529 127.375C280.693 128.431 280.275 130.147 280.275 132.523V136.549H288.261V141.433H280.275V171.001H274.335Z" fill="white"/>
</g>
<defs>
<clipPath id="clip0_1057_12298">
<rect width="669" height="172" fill="white"/>
</clipPath>
</defs>
</svg>
