<svg width="64" height="64" viewBox="0 0 64 64" fill="none" xmlns="http://www.w3.org/2000/svg">
<g clip-path="url(#clip0_783_12196)">
<path d="M9.79178 7.55273C9.79006 7.55273 9.78812 7.55273 9.78639 7.55273C9.18108 7.55273 8.61176 7.78869 8.18186 8.21752C7.74722 8.65108 7.50781 9.22838 7.50781 9.84295V44.1843C7.50781 45.4437 8.53634 46.4707 9.80083 46.4739C15.1316 46.4866 24.0628 47.5977 30.224 54.0453V18.1061C30.224 17.6792 30.115 17.2782 29.9092 16.9463C24.8523 8.80257 15.1346 7.56523 9.79178 7.55273Z" fill="#363C45"/>
<path d="M56.4972 44.1841V9.84246C56.4972 9.22789 56.2578 8.65059 55.8232 8.21703C55.3933 7.78821 54.8235 7.55225 54.2189 7.55225C54.2169 7.55225 54.215 7.55225 54.2133 7.55225C48.8706 7.56496 39.153 8.8023 34.0959 16.9461C33.8901 17.2779 33.7812 17.6789 33.7812 18.1058V54.0448C39.9425 47.5972 48.8737 46.4861 54.2044 46.4734C55.4687 46.4702 56.4972 45.4432 56.4972 44.1841Z" fill="#363C45"/>
<path d="M61.7109 15.4722H60.0503V44.1841C60.0503 47.3994 57.4306 50.0213 54.2103 50.0293C49.6887 50.04 42.2333 50.9242 36.9531 55.9216C46.0851 53.6857 55.7119 55.1392 61.1982 56.3894C61.8833 56.5454 62.5911 56.3842 63.14 55.9468C63.6869 55.5104 64.0007 54.8582 64.0007 54.158V17.762C64.0009 16.4994 62.9734 15.4722 61.7109 15.4722Z" fill="#363C45"/>
<path d="M3.95034 44.1841V15.4722H2.28979C1.02745 15.4722 0 16.4994 0 17.762V54.1574C0 54.8577 0.313752 55.5098 0.860663 55.9462C1.40908 56.3834 2.11632 56.5452 2.80243 56.3888C8.28878 55.1383 17.9158 53.685 27.0473 55.921C21.7674 50.9238 14.3119 50.0398 9.79031 50.0291C6.57026 50.0213 3.95034 47.3994 3.95034 44.1841Z" fill="#363C45"/>
</g>
<defs>
<clipPath id="clip0_783_12196">
<rect width="64" height="64" fill="white"/>
</clipPath>
</defs>
</svg>
